<svg xmlns="http://www.w3.org/2000/svg" viewBox="0 0 692.296 243.316"><path d="M241.102,144.914c-10.916,57.111-61.225,98.402-119.443,98.402C54.58,243.316,0,188.736,0,121.658S54.58,0,121.658,0c58.377,0,108.527,41.291,119.443,98.402V6.803h69.135v28.16C329.537,10.758,351.052,0,379.687,0c50.309,0,81.475,36.387,81.475,95.238v4.271C470.654,39.709,517.482,0,578.865,0c67.395,0,113.432,50.783,113.432,124.822v15.346h-163.898c4.904,33.539,24.521,52.682,53.947,52.682,21.516,0,37.02-9.967,41.766-27.053h65.021c-9.176,46.512-52.207,77.52-107.736,77.52-62.332,0-110.584-39.867-120.234-99.352v92.549h-70.242V102.516c0-28.793-14.238-44.771-39.709-44.771-23.888,0-39.708,17.719-39.708,44.771V236.514h-70.4v-91.6Zm382.535-49.043c-4.43-29.9-21.516-47.303-46.195-47.303-24.838,0-42.24,17.086-47.936,47.303h94.131Z"/><path d="M9.439,125.616h8.741c.543,2.942,2.228,4.228,5.656,4.228,2.856,0,4.742-1.457,4.742-3.685,0-1.628-1.257-2.685-3.771-3.114l-3.399-.571c-7.798-1.314-11.197-4.199-11.197-9.512,0-5.627,5.484-9.598,13.254-9.598,7.827,0,12.511,3.171,13.568,9.226h-8.655c-.4-2.371-2.142-3.656-4.97-3.656-2.656,0-4.627,1.542-4.627,3.628,0,1.542,1.228,2.399,4.085,2.914l3.685,.657c7.541,1.343,10.854,4.342,10.854,9.826,0,5.913-5.399,9.883-13.454,9.883-8.626,0-13.911-3.713-14.511-10.226Zm29.421-5.913c0-9.455,6.855-16.339,16.31-16.339,9.398,0,16.025,6.627,16.025,16.082,0,9.569-6.77,16.396-16.253,16.396s-16.082-6.627-16.082-16.139Zm23.08-.2c0-5.684-2.685-9.283-6.941-9.283-4.199,0-6.884,3.656-6.884,9.341,0,5.827,2.628,9.426,6.884,9.426,4.285,0,6.941-3.656,6.941-9.483Zm8.769-15.196h5.027v-2.971c0-6.855,3.142-9.883,10.198-9.883,1.171,0,2.599,.114,3.399,.257v6.484q-.514-.029-1.143-.029c-2.571,0-3.428,.743-3.428,3.028v3.114h8.912v-9.569h8.998v9.569h14.054l3.256,14.568c.457,2.085,.914,4.313,1.285,6.398,.457-2.171,1-4.342,1.542-6.37l3.799-14.368h7.37l3.856,14.368c.457,1.771,1,4.056,1.457,5.999,.543-2.942,.828-4.37,1.2-5.999l3.256-14.596h8.884l-8.684,30.593h-8.655l-5.17-19.595-5.056,19.595h-8.912l-6.741-24.194h-6.741v13.939c0,2.628,.943,3.513,3.685,3.513,.8,0,1.228-.029,2.028-.171v6.627c-1.514,.286-3.228,.486-4.599,.486-7.255,0-10.112-2.685-10.112-9.512v-14.882h-8.912v24.194h-9.026v-24.194h-5.027v-6.398Zm80.238,22.709c0-5.542,3.599-8.341,12.825-9.912,4.97-.828,6.77-1.971,6.77-4.313s-1.742-3.771-4.627-3.771c-3.056,0-4.799,1.4-4.999,4.056h-8.312c.657-6.284,5.37-9.712,13.397-9.712,8.855,0,13.225,4.256,13.225,12.911v12.14c0,3.771,.2,4.856,1.2,6.484h-8.684c-.428-1.028-.714-2.199-.828-3.771-2.371,3.114-5.427,4.542-9.655,4.542-6.398,0-10.312-3.285-10.312-8.655Zm14.539-5.284c-4.285,.857-5.884,2.057-5.884,4.427,0,2.399,1.542,3.771,4.285,3.771,4.142,0,6.684-2.628,6.684-6.827v-2.856c-1.314,.628-2.399,.943-5.084,1.485Zm18.224-17.424h8.941v4.685c1.942-3.513,4.485-5.199,7.912-5.199,.4,0,1.228,.086,1.914,.229v7.484c-.571-.143-1.171-.2-2.428-.2-4.399,0-7.227,2.828-7.227,7.227v16.367h-9.112v-30.593Zm18.481,15.396c0-9.74,6.398-16.339,15.853-16.339,8.998,0,15.053,6.741,15.053,16.824v1.571h-21.852c.6,5.084,3.228,7.969,7.255,7.969,3.028,0,4.999-1.428,5.656-4.028h8.512c-1.228,6.084-6.941,10.14-14.282,10.14-9.626,0-16.196-6.541-16.196-16.139Zm21.938-3.285c-.571-4.656-2.742-7.141-6.256-7.141s-5.713,2.457-6.456,7.141h12.711Z" fill="#fff"/></svg>
