<svg id="Layer_1" data-name="Layer 1" xmlns="http://www.w3.org/2000/svg" viewBox="0 0 400 300" width="406" height="306" class="illustration styles_illustrationTablet__1DWOa"><title>#15 calendar</title><path d="M103.73,107.11s19.49-10,41.49-2.41-20.74,20-20.74,20Z" fill="#9317E1"></path><path d="M103.73,107.11s19.49-10,41.49-2.41-20.74,20-20.74,20Z" opacity="0.08"></path><path d="M80,114.32S66.63,122,63.3,141s42.33,44.67,42.33,44.67L134,164.38s16.85-74.22-42.41-54.3Z" fill="#9317E1"></path><ellipse cx="207.64" cy="256.99" rx="140.39" ry="20.18" fill="#e6e6e6" opacity="0.45"></ellipse><rect x="124.49" y="71.77" width="161.12" height="185.22" fill="#e6e6e6"></rect><rect x="244.3" y="176.75" width="22.51" height="20.79" fill="#24285b"></rect><rect x="244.3" y="207.5" width="22.51" height="20.79" fill="#a5a5a5"></rect><path d="M250.54,191.42s-41,6.81-21.79,65.57h43.88Z" opacity="0.08"></path><polygon points="105.64 185.67 124.93 211.33 124.49 171.5 105.64 185.67" fill="#24285b"></polygon><rect x="121.84" y="58.31" width="166.62" height="46.39" fill="#9317E1"></rect><circle cx="276.3" cy="219.15" r="37.85" fill="#ffd200"></circle><polyline points="264.96 218.68 273.1 232.69 290.08 207.31" fill="none" stroke="#fff" stroke-linecap="round" stroke-linejoin="round" stroke-width="10"></polyline><rect x="154.03" y="41.08" width="13.36" height="40.43" fill="#f2f2f2"></rect><rect x="167.39" y="58" width="8.82" height="23.5" opacity="0.08"></rect><rect x="255.55" y="58" width="8.82" height="23.5" opacity="0.08"></rect><rect x="242.19" y="41.08" width="13.36" height="40.43" fill="#f2f2f2"></rect><rect x="146.44" y="123.18" width="36.57" height="11.06" fill="#24285b"></rect><rect x="147.53" y="146.19" width="22.51" height="20.79" fill="#fff"></rect><rect x="180.2" y="146.19" width="22.51" height="20.79" fill="#a5a5a5" opacity="0.32"></rect><rect x="212.53" y="146.19" width="22.51" height="20.79" fill="#ffd200"></rect><rect x="244.3" y="146.19" width="22.51" height="20.79" fill="#24285b"></rect><path d="M79.37,114.71s-.57,7.29,6.1,10.79,6-5.39,6-5.39,2.43,2.62,6.29-.83-5.21-9.77-5.21-9.77Z" fill="#fff"></path><rect x="147.53" y="176.75" width="22.51" height="20.79" fill="#fff"></rect><rect x="180.2" y="176.75" width="22.51" height="20.79" fill="#a5a5a5" opacity="0.32"></rect><rect x="212.53" y="176.75" width="22.51" height="20.79" fill="#a5a5a5" opacity="0.32"></rect><rect x="147.53" y="207.5" width="22.51" height="20.79" fill="#fff"></rect><rect x="180.2" y="207.5" width="22.51" height="20.79" fill="#a5a5a5" opacity="0.32"></rect><rect x="212.53" y="207.5" width="22.51" height="20.79" fill="#a5a5a5" opacity="0.32"></rect><path d="M89.76,106.66a41.88,41.88,0,0,0,1.76,4.47c.94,2,1.81,5.22-1,7.37-4.3,3.32-9.43-3.55-9.43-3.55s-6.61-5.51-2-9.13C83.33,102.57,87.39,99.7,89.76,106.66Z" fill="#f4a28c"></path><path d="M73.88,105a5.46,5.46,0,0,0-1.42,3.64A3.51,3.51,0,0,0,74.37,112c3.12,1.47,6.73,3,6.73,3s-3.55-3.19,0-4.56,7.52-.19,8.66-3.73,2-5.55,0-7.76-3.09-5.51-6.39-2.57-3-.62-5.89-1.69-6.38.59-5,3.16C73.64,100.05,75.62,102.91,73.88,105Z" fill="#24285b"></path><path d="M85.46,137.18c-2.19-9.6-15.13-11.55-20.41-3.24C58.44,144.37,50,161.48,53,177.67c4.66,25.66,24.71,48.33,71.52,33.66v-7.66s-16.5,3.53-30.8-1.91-20.8-22.48-14.08-36.39C83.5,157.32,87.5,146.14,85.46,137.18Z" fill="#9317E1"></path><path d="M85.46,137.18c-2.19-9.6-15.13-11.55-20.41-3.24C58.44,144.37,50,161.48,53,177.67c4.66,25.66,24.71,48.33,71.52,33.66v-7.66s-16.5,3.53-30.8-1.91-20.8-22.48-14.08-36.39C83.5,157.32,87.5,146.14,85.46,137.18Z" fill="#fff" opacity="0.2"></path><path d="M124.49,211.33s-7-4.33-2.65-10.83S135,202.67,124.49,211.33Z" fill="#f4a28c"></path><rect x="124.49" y="104.7" width="161.12" height="9.62" fill="#a5a5a5" opacity="0.32"></rect><path d="M81.55,115.1s-1.44-2.14-3.38-1S79.2,119.06,81.55,115.1Z" fill="#f4a28c"></path><path d="M90.82,111.56S89,109.72,90.47,108,95.17,110,90.82,111.56Z" fill="#f4a28c"></path><path d="M185.3,58.31s5.33-8,11.33-4S197.3,63.61,185.3,58.31Z" fill="#f4a28c"></path><path d="M103.73,107.11s27.2,42.72-10.51,70.72l12.41,7.84,18.86-14.17V111S117.56,105,103.73,107.11Z" opacity="0.08"></path></svg>