<svg id="Layer_1" data-name="Layer 1" xmlns="http://www.w3.org/2000/svg" viewBox="0 0 400 300" width="406" height="306" class="illustration styles_illustrationTablet__1DWOa"><title>#90_code development_twocolour</title><path d="M292,155.28s14.83-2.4,13.83,6.67H292Z" fill="#f4a28c"></path><polygon points="259.08 138.78 254.6 160.53 279.76 160.53 276.33 135.53 259.08 138.78" fill="#c9c9c9"></polygon><rect x="217.47" y="68.57" width="99.81" height="67.79" fill="#24285b"></rect><rect x="252.54" y="113.39" width="31.4" height="2.95" fill="#9317E1"></rect><rect x="266.53" y="121.13" width="31.4" height="2.95" fill="#ffd200"></rect><rect x="217.47" y="130.53" width="99.81" height="12.83" fill="#e6e6e6"></rect><rect x="244.98" y="106.26" width="26.35" height="2.95" fill="#9317E1"></rect><rect x="276.81" y="106.26" width="26.35" height="2.95" fill="#9317E1"></rect><rect x="252.54" y="98.05" width="23.56" height="2.95" fill="#ffd200"></rect><rect x="282.23" y="98.05" width="23.56" height="2.95" fill="#ffd200"></rect><rect x="235.21" y="113.39" width="11.81" height="2.95" fill="#fff"></rect><rect x="246.97" y="121.13" width="11.81" height="2.95" fill="#fff"></rect><rect x="227.65" y="106.26" width="11.81" height="2.95" fill="#fff"></rect><path d="M230.51,92.37s48.76-4.9,38,51L272.22,157,257,148.74l1.22-5.36-8.06,0Z" opacity="0.14"></path><circle cx="230.51" cy="75.23" r="1.39" fill="#9317E1"></circle><circle cx="234.41" cy="75.23" r="1.39" fill="#ffd200"></circle><rect x="227.65" y="83.83" width="11.81" height="2.95" fill="#fff"></rect><rect x="235.21" y="91.21" width="11.81" height="2.95" fill="#fff"></rect><rect x="252.54" y="91.21" width="23.56" height="2.95" fill="#ffd200"></rect><rect x="282.23" y="91.21" width="23.56" height="2.95" fill="#ffd200"></rect><rect x="235.21" y="98.05" width="11.81" height="2.95" fill="#fff"></rect><rect x="244.18" y="83.83" width="24.33" height="2.95" fill="#9317E1"></rect><rect x="273.6" y="83.83" width="17.27" height="2.95" fill="#9317E1"></rect><circle cx="268.51" cy="136.49" r="3.71" fill="#a5a5a5"></circle><rect x="77.14" y="157.03" width="50.17" height="3.5" fill="#c9c9c9"></rect><path d="M97.14,155.28s-14.83-2.4-13.83,6.67H97.14Z" fill="#f4a28c"></path><polygon points="124.72 138.78 120.24 160.53 145.4 160.53 141.97 135.53 124.72 138.78" fill="#c9c9c9"></polygon><rect x="78.93" y="68.57" width="99.81" height="67.79" fill="#24285b"></rect><rect x="114" y="113.39" width="31.4" height="2.95" fill="#9317E1"></rect><rect x="78.93" y="130.53" width="99.81" height="12.83" fill="#e6e6e6"></rect><rect x="106.44" y="106.26" width="26.35" height="2.95" fill="#9317E1"></rect><rect x="114" y="98.05" width="23.56" height="2.95" fill="#ffd200"></rect><rect x="96.67" y="113.39" width="11.81" height="2.95" fill="#fff"></rect><rect x="108.43" y="121.13" width="11.81" height="2.95" fill="#fff"></rect><rect x="89.11" y="106.26" width="11.81" height="2.95" fill="#fff"></rect><circle cx="87.84" cy="75.23" r="1.39" fill="#fff"></circle><circle cx="91.97" cy="75.23" r="1.39" fill="#9317E1"></circle><circle cx="95.87" cy="75.23" r="1.39" fill="#ffd200"></circle><rect x="89.11" y="83.83" width="11.81" height="2.95" fill="#fff"></rect><rect x="96.67" y="91.21" width="11.81" height="2.95" fill="#fff"></rect><rect x="114" y="91.21" width="23.56" height="2.95" fill="#ffd200"></rect><rect x="96.67" y="98.05" width="11.81" height="2.95" fill="#fff"></rect><rect x="105.64" y="83.83" width="24.33" height="2.95" fill="#9317E1"></rect><ellipse cx="196.06" cy="242.16" rx="161.5" ry="20.93" fill="#e6e6e6" opacity="0.45"></ellipse><path d="M171.62,90.14s-34.81,2.39-37.48,21.72c-1.48,10.74,1.46,20.45,4.37,27a7,7,0,0,1-5.48,9.79l-35.89,5V162l49.94-1.48a20.69,20.69,0,0,0,20-18.87Z" fill="#9317E1"></path><path d="M217.47,90.14s34.81,2.39,37.48,21.72c1.48,10.74-1.46,20.45-4.37,27a7,7,0,0,0,5.48,9.79l35.89,5V162L242,160.47a20.7,20.7,0,0,1-20-18.87Z" fill="#9317E1"></path><path d="M171.62,90.14s-34.81,2.39-37.48,21.72c-1.48,10.74,1.46,20.45,4.37,27a7,7,0,0,1-5.48,9.79l-35.89,5V162l49.94-1.48a20.69,20.69,0,0,0,20-18.87Z" fill="#fff" opacity="0.46"></path><path d="M217.47,90.14s34.81,2.39,37.48,21.72c1.48,10.74-1.46,20.45-4.37,27a7,7,0,0,0,5.48,9.79l35.89,5V162L242,160.47a20.7,20.7,0,0,1-20-18.87Z" fill="#fff" opacity="0.46"></path><rect x="63.81" y="168.25" width="262.5" height="73.92" fill="#c9c9c9"></rect><rect x="63.81" y="160.53" width="262.5" height="18.07" fill="#e6e6e6"></rect><path d="M191.33,90.14l4.25-18.53s.14-8.68,5.71-6.66,7.24,12.08,4.24,15.48-5-1.24-5-1.24V89.44Z" fill="#f4a28c"></path><path d="M264.8,161.15s-23.07,4.91-13.43,14.22,4.32,22.4-2.36,26.18-34.35,8.34-25.51,40.23H192.31l-2.3-17-20-21.12,8.74-20.37,24.59-33.43L220,163.67l9.12-3.14Z" opacity="0.1"></path><path d="M185.78,89.29s-34.7-3.09-39.23,20.34,27.76,67.65,27.76,67.65l45-1.75S289.22,77.33,185.78,89.29Z" fill="#9317E1"></path><path d="M190,224.75s2,2.64.69,5.14.58,4.62,2.56,2.88,2.8-9,2.8-9l-4.47-2.61Z" fill="#9317E1"></path><path d="M174.31,177.28s-3,15.75,3.75,16.5,54.5,2.88,62.5-3.81,6-15.94-21.25-14.44Z" fill="#24285b"></path><path d="M173.92,180s-20.86,16.3-10.11,28.3,26.25,19,26.25,19l2.25-5.75s-32.5-25.25-1.75-30.25Z" fill="#24285b"></path><rect x="165.47" y="126.95" width="58.03" height="45.76" rx="22.88" ry="22.88" fill="#ffd200"></rect><rect x="188.52" y="149.83" width="11.42" height="45.83" fill="#ffd200"></rect><rect x="188.52" y="149.83" width="11.42" height="45.83" opacity="0.08"></rect><rect x="171.62" y="189.97" width="45.85" height="13.69" fill="#ffd200"></rect><path d="M192.64,77.68l.07-4.39a7.52,7.52,0,0,0-2.14-5.48,2.8,2.8,0,0,1-.48-3.94c2.3-3.29,4.24-1.16,6.56-4.07s4.07-3.48,6.78,0,4.84-.58,6.39,3.68.19,6.39-5.81,6.78c-5.1.33-3.52,6.11-8.25,9.15A2,2,0,0,1,192.64,77.68Z" fill="#24285b"></path><rect x="190.6" y="203.65" width="7.28" height="31.63" fill="#ffd200"></rect><rect x="190.6" y="203.65" width="7.28" height="31.63" opacity="0.08"></rect><polygon points="190.6 235.28 176.52 248.28 213.06 248.28 197.87 235.28 190.6 235.28" fill="#ffd200"></polygon><rect x="286.14" y="185.03" width="27" height="46.75" fill="#a5a5a5"></rect><rect x="273.48" y="178.6" width="6.33" height="63.57" fill="#e6e6e6"></rect><rect x="319.98" y="178.6" width="6.33" height="63.57" fill="#e6e6e6"></rect><rect x="279.19" y="231.78" width="47.13" height="10.38" fill="#e6e6e6"></rect><rect x="63.81" y="178.6" width="13.33" height="63.57" fill="#e6e6e6"></rect><rect x="77.14" y="224.19" width="38" height="7.59" fill="#a5a5a5" opacity="0.42"></rect><rect x="77.14" y="231.48" width="57.24" height="10.68" fill="#a5a5a5"></rect><rect x="135.06" y="83.83" width="17.27" height="2.95" fill="#9317E1"></rect><circle cx="132.55" cy="136.49" r="3.71" fill="#a5a5a5"></circle><circle cx="226.38" cy="75.23" r="1.39" fill="#fff"></circle><rect x="296.16" y="53.5" width="38.75" height="26.64" fill="#ffd200"></rect><path d="M310.33,72.05a.88.88,0,0,1-.55-.19L304,67.27a.91.91,0,0,1-.34-.7.92.92,0,0,1,.33-.71l5.81-4.67a.9.9,0,0,1,1.13,1.4l-4.94,4,4.93,3.89a.89.89,0,0,1,.15,1.26A.88.88,0,0,1,310.33,72.05Z" fill="#fff"></path><path d="M320.85,72.05a.88.88,0,0,1-.7-.34.89.89,0,0,1,.15-1.26l4.92-3.89-4.93-4a.9.9,0,1,1,1.12-1.4l5.82,4.67a.92.92,0,0,1,.33.71.91.91,0,0,1-.34.7l-5.81,4.59A.9.9,0,0,1,320.85,72.05Z" fill="#fff"></path><path d="M313.16,72.05a.87.87,0,0,1-.38-.08.9.9,0,0,1-.44-1.19l4.23-9.27a.9.9,0,0,1,1.64.75L314,71.53A.88.88,0,0,1,313.16,72.05Z" fill="#fff"></path><path d="M94,212.87s-9.21-2.52-11.22-11.09c0,0,14.28-2.88,14.68,11.85Z" fill="#9317E1" opacity="0.58"></path><path d="M95.08,212s-6.44-10.18-.77-19.69c0,0,10.85,6.89,6,19.71Z" fill="#9317E1" opacity="0.73"></path><path d="M96.74,212s3.4-10.74,13.68-12.78c0,0,1.92,7-6.66,12.81Z" fill="#9317E1"></path><polygon points="90.06 211.72 91.92 224.5 103.68 224.55 105.42 211.79 90.06 211.72" fill="#24285b"></polygon><circle cx="304.21" cy="195.73" r="3.46" fill="#fff"></circle><rect x="290.75" y="203.65" width="18.83" height="23.63" fill="#fff" opacity="0.18"></rect></svg>