<svg xmlns="http://www.w3.org/2000/svg" viewBox="0 0 400 300" width="406" height="306" class="illustration styles_illustrationTablet__1DWOa"><g id="_481_computer_display_outline" data-name="#481_computer_display_outline"><rect x="101.32" y="71.65" width="197.36" height="130.31" rx="4.64" fill="#093f68"></rect><path d="M294,203H106a5.65,5.65,0,0,1-5.64-5.65V76.3A5.65,5.65,0,0,1,106,70.65H294a5.65,5.65,0,0,1,5.64,5.65v121A5.65,5.65,0,0,1,294,203ZM106,72.65a3.65,3.65,0,0,0-3.64,3.65v121A3.65,3.65,0,0,0,106,201H294a3.65,3.65,0,0,0,3.64-3.65V76.3A3.65,3.65,0,0,0,294,72.65Z" fill="#093f68"></path><rect x="108.28" y="77.27" width="183.44" height="107.37" rx="1.96" fill="#9317E1"></rect><path d="M289.76,185.64H110.24a3,3,0,0,1-3-3V79.22a3,3,0,0,1,3-3H289.76a3,3,0,0,1,3,3V182.68A3,3,0,0,1,289.76,185.64ZM110.24,78.27a1,1,0,0,0-1,1V182.68a1,1,0,0,0,1,1H289.76a1,1,0,0,0,1-1V79.22a1,1,0,0,0-1-1Z" fill="#093f68"></path><rect x="181.56" y="201.97" width="36.87" height="17.73" fill="#093f68"></rect><path d="M218.44,220.7H181.56a1,1,0,0,1-1-1V202a1,1,0,0,1,1-1h36.88a1,1,0,0,1,1,1V219.7A1,1,0,0,1,218.44,220.7Zm-35.88-2h34.88V203H182.56Z" fill="#093f68"></path><rect x="150.13" y="219.7" width="99.75" height="8.64" rx="3.9" fill="#093f68"></rect><path d="M246,229.35H154a4.91,4.91,0,0,1-4.9-4.91v-.84a4.91,4.91,0,0,1,4.9-4.9H246a4.91,4.91,0,0,1,4.9,4.9v.84A4.91,4.91,0,0,1,246,229.35ZM154,220.7a2.9,2.9,0,0,0-2.9,2.9v.84a2.91,2.91,0,0,0,2.9,2.91H246a2.91,2.91,0,0,0,2.9-2.91v-.84a2.9,2.9,0,0,0-2.9-2.9Z" fill="#093f68"></path><circle cx="280.88" cy="193.31" r="3.39" fill="#f56132"></circle><path d="M280.88,197.7a4.39,4.39,0,1,1,4.39-4.39A4.4,4.4,0,0,1,280.88,197.7Zm0-6.78a2.39,2.39,0,1,0,2.39,2.39A2.39,2.39,0,0,0,280.88,190.92Z" fill="#093f68"></path><rect x="181.95" y="111.25" width="86.55" height="58.22" fill="#fff"></rect><path d="M268.5,170.47H182a1,1,0,0,1-1-1V111.25a1,1,0,0,1,1-1H268.5a1,1,0,0,1,1,1v58.22A1,1,0,0,1,268.5,170.47Zm-85.55-2H267.5V112.25H183Z" fill="#093f68"></path><rect x="181.95" y="111.25" width="86.55" height="6.9" fill="#70cc40"></rect><path d="M268.5,119.15H182a1,1,0,0,1-1-1v-6.9a1,1,0,0,1,1-1H268.5a1,1,0,0,1,1,1v6.9A1,1,0,0,1,268.5,119.15Zm-85.55-2H267.5v-4.9H183Z" fill="#093f68"></path><rect x="131.5" y="92.7" width="86.55" height="58.22" fill="#fff"></rect><path d="M218.05,151.92H131.5a1,1,0,0,1-1-1V92.7a1,1,0,0,1,1-1h86.55a1,1,0,0,1,1,1v58.22A1,1,0,0,1,218.05,151.92Zm-85.55-2h84.55V93.7H132.5Z" fill="#093f68"></path><rect x="131.5" y="92.7" width="86.55" height="6.9" fill="#ffbc0e"></rect><path d="M218.05,100.59H131.5a1,1,0,0,1-1-1V92.7a1,1,0,0,1,1-1h86.55a1,1,0,0,1,1,1v6.89A1,1,0,0,1,218.05,100.59Zm-85.55-2h84.55V93.7H132.5Z" fill="#093f68"></path></g></svg>