<svg id="Layer_1" data-name="Layer 1" xmlns="http://www.w3.org/2000/svg" xmlns:xlink="http://www.w3.org/1999/xlink" viewBox="0 0 680.75 574.54" width="406" height="306" class="illustration styles_illustrationTablet__1DWOa"><defs><linearGradient id="linear-gradient" x1="344.62" y1="521.26" x2="346.31" y2="374.04" gradientUnits="userSpaceOnUse"><stop offset="0" stop-color="#010101" stop-opacity="0"></stop><stop offset="0.95" stop-color="#010101"></stop></linearGradient><linearGradient id="linear-gradient-2" x1="349.72" y1="97.92" x2="351.67" y2="819.09" xlink:href="#linear-gradient"></linearGradient><linearGradient id="linear-gradient-3" x1="345.99" y1="427.78" x2="346.13" y2="480.25" xlink:href="#linear-gradient"></linearGradient><linearGradient id="linear-gradient-4" x1="470.2" y1="121.33" x2="482.16" y2="121.33" gradientUnits="userSpaceOnUse"><stop offset="0" stop-color="#e5c6d6"></stop><stop offset="0.42" stop-color="#ead4d0"></stop><stop offset="1" stop-color="#f0e9cb"></stop></linearGradient><linearGradient id="linear-gradient-5" x1="454.06" y1="49.74" x2="464.87" y2="74.55" xlink:href="#linear-gradient"></linearGradient><linearGradient id="linear-gradient-6" x1="459.85" y1="51.05" x2="467.8" y2="51.05" xlink:href="#linear-gradient"></linearGradient><linearGradient id="linear-gradient-7" x1="509.01" y1="56.63" x2="448.97" y2="87.48" gradientTransform="translate(-11.16 -25.61) rotate(9.05)" xlink:href="#linear-gradient"></linearGradient><linearGradient id="linear-gradient-8" x1="467.82" y1="182.54" x2="503.21" y2="167.79" xlink:href="#linear-gradient"></linearGradient><linearGradient id="linear-gradient-9" x1="436.05" y1="183.3" x2="505.48" y2="149.26" xlink:href="#linear-gradient"></linearGradient><linearGradient id="linear-gradient-10" x1="484.97" y1="179.3" x2="431.98" y2="150.13" xlink:href="#linear-gradient"></linearGradient><linearGradient id="linear-gradient-11" x1="445.75" y1="153.86" x2="402.31" y2="149.33" xlink:href="#linear-gradient"></linearGradient><linearGradient id="linear-gradient-12" x1="442.67" y1="135.54" x2="407.01" y2="127.27" xlink:href="#linear-gradient"></linearGradient><linearGradient id="linear-gradient-13" x1="448.48" y1="111.49" x2="387.21" y2="131.39" xlink:href="#linear-gradient"></linearGradient><linearGradient id="linear-gradient-14" x1="424.02" y1="118.37" x2="447.7" y2="118.37" xlink:href="#linear-gradient-4"></linearGradient><linearGradient id="linear-gradient-15" x1="475.24" y1="127.97" x2="442.14" y2="142.84" xlink:href="#linear-gradient"></linearGradient><linearGradient id="linear-gradient-16" x1="458.99" y1="137.09" x2="458.4" y2="145.89" xlink:href="#linear-gradient"></linearGradient><linearGradient id="linear-gradient-17" x1="462.98" y1="71.77" x2="454.04" y2="89.66" xlink:href="#linear-gradient-4"></linearGradient><linearGradient id="linear-gradient-18" x1="454.64" y1="82.82" x2="497.65" y2="30.42" xlink:href="#linear-gradient"></linearGradient><linearGradient id="linear-gradient-19" x1="455.74" y1="47.76" x2="464.9" y2="74.81" xlink:href="#linear-gradient-4"></linearGradient><linearGradient id="linear-gradient-20" x1="443.75" y1="132.85" x2="462.48" y2="132.85" xlink:href="#linear-gradient-4"></linearGradient><linearGradient id="linear-gradient-21" x1="466.43" y1="135.54" x2="480.49" y2="135.54" xlink:href="#linear-gradient-4"></linearGradient><linearGradient id="linear-gradient-22" x1="485.47" y1="151.98" x2="449.49" y2="43.72" xlink:href="#linear-gradient"></linearGradient><linearGradient id="linear-gradient-23" x1="493.38" y1="149.27" x2="461.28" y2="52.7" xlink:href="#linear-gradient"></linearGradient><linearGradient id="linear-gradient-24" x1="449.92" y1="68.92" x2="454.82" y2="68.92" xlink:href="#linear-gradient-4"></linearGradient><linearGradient id="linear-gradient-25" x1="658.17" y1="462.59" x2="666.35" y2="461.45" gradientTransform="translate(-346.63 -29.3) rotate(-28.08)" xlink:href="#linear-gradient"></linearGradient></defs><title>Code CSS</title><path d="M198.25,42.54c-21.58,20.79-34.6,48.71-45.39,76.66s-20.53,56.86-38.26,81C90,233.81,51.71,255.6,27.6,289.58.31,328.05-5.65,379.75,8.27,424.82s46.45,83.31,86.59,108.09C176,583,278.09,577.7,373.47,576.22c58-.9,117.08.09,172.77-16.25S655,506.46,674.15,451.67c22.61-64.69-7.79-138.15-56.27-186.58-24.54-24.51-54.2-45.37-70-76.26-11.13-21.8-14.29-46.78-23.34-69.53-17.85-44.89-58.36-78.5-103.82-94.84C380.66,10.05,268-24.66,198.25,42.54Z" transform="translate(-1.02 -2.6)" fill="#9317E1" opacity="0.24" style="isolation: isolate;"></path><path d="M186.81,526.36c12.24,8.76,28.13,10.09,43.16,11.1,93.66,6.26,188.55,11.3,280.71-6.5,6.82-1.32,14.86-3.89,16.58-10.62-19.16-5.22-39.37-4.25-59.22-3.77a1117.07,1117.07,0,0,1-149.13-6.38c-21.45-2.36-43.81-3.37-65.33-1.82a182.43,182.43,0,0,0-34.87,6.1C214.9,515.51,188.41,527.5,186.81,526.36Z" transform="translate(-1.02 -2.6)" fill="#9317E1" opacity="0.13" style="isolation: isolate;"></path><polygon points="417.36 512.41 271.76 512.41 297.17 462.08 398.1 462.08 417.36 512.41" fill="#9317E1"></polygon><polygon points="414.43 505.08 275.18 505.08 297.17 462.08 398.1 462.08 414.43 505.08" fill="url(#linear-gradient)"></polygon><rect x="259.86" y="508.77" width="170.96" height="12.19" fill="#9317E1"></rect><path d="M560.57,173.73V461.52a13.42,13.42,0,0,1-13.46,13.4H153.4a13.42,13.42,0,0,1-13.47-13.4V173.73a13.48,13.48,0,0,1,13.47-13.46H547.11A13.48,13.48,0,0,1,560.57,173.73Z" transform="translate(-1.02 -2.6)" fill="#9317E1"></path><path d="M560.57,173.73V414.39H139.93V173.73a13.48,13.48,0,0,1,13.47-13.46H547.11A13.48,13.48,0,0,1,560.57,173.73Z" transform="translate(-1.02 -2.6)" fill="url(#linear-gradient-2)"></path><rect x="154.34" y="174.63" width="391.52" height="226.71" fill="#fff"></rect><circle cx="346.03" cy="441.56" r="9.28" fill="url(#linear-gradient-3)"></circle><g opacity="0.52"><rect x="204.49" y="193.14" width="86.27" height="6.33" fill="#9317E1"></rect><rect x="204.49" y="205.39" width="52.66" height="5.95" fill="#9317E1"></rect><rect x="278.39" y="205.39" width="165.7" height="5.98" fill="#9317E1"></rect><rect x="231.87" y="217.66" width="72.4" height="6.26" fill="#9317E1"></rect><rect x="255.11" y="229.9" width="86.27" height="6.33" fill="#9317E1"></rect><rect x="347.01" y="229.9" width="72.31" height="7.03" fill="#9317E1"></rect><rect x="254.99" y="242.15" width="66.62" height="5.95" fill="#9317E1"></rect><rect x="328" y="242.15" width="137.46" height="6.58" fill="#9317E1"></rect><rect x="204.49" y="258.71" width="86.27" height="6.33" fill="#9317E1"></rect><rect x="204.49" y="270.95" width="52.66" height="5.95" fill="#9317E1"></rect><rect x="278.39" y="270.95" width="165.7" height="5.98" fill="#9317E1"></rect><rect x="231.87" y="283.2" width="72.4" height="6.26" fill="#9317E1"></rect><rect x="255.11" y="295.47" width="86.27" height="6.33" fill="#9317E1"></rect><rect x="347.01" y="295.47" width="72.31" height="7.03" fill="#9317E1"></rect><rect x="254.99" y="307.71" width="66.62" height="5.95" fill="#9317E1"></rect><rect x="328" y="307.71" width="137.46" height="6.58" fill="#9317E1"></rect><rect x="204.49" y="324.28" width="86.27" height="6.33" fill="#9317E1"></rect><rect x="204.49" y="336.52" width="52.66" height="5.95" fill="#9317E1"></rect><rect x="278.39" y="336.52" width="165.7" height="5.98" fill="#9317E1"></rect><rect x="231.87" y="348.76" width="72.4" height="6.26" fill="#9317E1"></rect><rect x="255.11" y="361.01" width="86.27" height="6.33" fill="#9317E1"></rect><rect x="347.01" y="361.01" width="72.31" height="7.03" fill="#9317E1"></rect><rect x="254.99" y="373.28" width="66.62" height="5.95" fill="#9317E1"></rect><rect x="328" y="373.28" width="137.46" height="6.58" fill="#9317E1"></rect></g><g opacity="0.24" style="isolation: isolate;"><rect x="110.48" y="95.23" width="233.25" height="107.56" rx="16.52" transform="translate(453.19 295.43) rotate(-180)" fill="#9317E1"></rect><polygon points="342.71 222.36 342.71 183.28 309.68 183.28 342.71 222.36" fill="#9317E1"></polygon></g><rect x="119.8" y="86.27" width="216.15" height="99.68" rx="15.3" transform="translate(454.74 269.62) rotate(-180)" fill="#fff"></rect><polygon points="334.94 203.88 334.94 167.67 304.32 167.67 334.94 203.88" fill="#fff"></polygon><path d="M155.05,136.73,177.92,125v3.4L158.65,138v.1l19.27,9.66v3.4l-22.87-11.78Z" transform="translate(-1.02 -2.6)" fill="#9317E1"></path><path d="M208.15,150.08a21.27,21.27,0,0,1-8.78,1.58c-9.36,0-16.4-5.91-16.4-16.8,0-10.4,7-17.45,17.34-17.45a17.72,17.72,0,0,1,7.89,1.48l-1,3.5a15.56,15.56,0,0,0-6.7-1.38c-7.79,0-13,5-13,13.7,0,8.13,4.68,13.35,12.76,13.35a17.13,17.13,0,0,0,7-1.38Z" transform="translate(-1.02 -2.6)" fill="#9317E1"></path><path d="M212.94,145.94a15.21,15.21,0,0,0,7.69,2.17c4.39,0,7-2.31,7-5.67,0-3.1-1.77-4.88-6.26-6.6-5.42-1.92-8.77-4.73-8.77-9.41,0-5.18,4.29-9,10.74-9a15,15,0,0,1,7.34,1.63l-1.18,3.5a13.1,13.1,0,0,0-6.31-1.58c-4.53,0-6.25,2.71-6.25,5,0,3.1,2,4.63,6.6,6.4,5.61,2.17,8.47,4.88,8.47,9.76,0,5.12-3.79,9.56-11.63,9.56a17.2,17.2,0,0,1-8.47-2.12Z" transform="translate(-1.02 -2.6)" fill="#9317E1"></path><path d="M237.26,145.94a15.21,15.21,0,0,0,7.68,2.17c4.39,0,6.95-2.31,6.95-5.67,0-3.1-1.77-4.88-6.26-6.6-5.42-1.92-8.77-4.73-8.77-9.41,0-5.18,4.29-9,10.74-9A15.1,15.1,0,0,1,255,119l-1.19,3.5a13.09,13.09,0,0,0-6.3-1.58c-4.54,0-6.26,2.71-6.26,5,0,3.1,2,4.63,6.6,6.4,5.62,2.17,8.48,4.88,8.48,9.76,0,5.12-3.8,9.56-11.63,9.56a17.21,17.21,0,0,1-8.48-2.12Z" transform="translate(-1.02 -2.6)" fill="#9317E1"></path><path d="M284.53,139.44l-22.86,11.73v-3.4l19.41-9.66V138l-19.41-9.66V125l22.86,11.73Z" transform="translate(-1.02 -2.6)" fill="#9317E1"></path><path d="M482.16,108.64s-1,23.5-1.77,24.5-10.19.88-10.19.88l.89-9.61,4.25-13.31Z" transform="translate(-1.02 -2.6)" fill="url(#linear-gradient-4)"></path><path d="M469.59,45.3a10,10,0,0,0-4.43-3.61,17.33,17.33,0,0,0-11.26-1.31,14.06,14.06,0,0,0-9,6.64c-1.95,3.48-2.24,7.81-4.76,10.9a2.29,2.29,0,0,0,1.74,1.28l-.47,1.14a.64.64,0,0,1,.82.82l2.82,0c-.1.42.24.8.55,1.1l4.16,4a2.79,2.79,0,0,0,1.5.93c.73-.76,2.48,2,2.71,1s-1.23-5.53-.28-5.92l8-3.29c1.85-.76,4.51-1.43,5.69-3.2.87-1.3,1-3,1.88-4.41C470.43,49.39,470.93,47.5,469.59,45.3Z" transform="translate(-1.02 -2.6)" fill="#606161"></path><path d="M469.59,45.3a10,10,0,0,0-4.43-3.61,17.33,17.33,0,0,0-11.26-1.31,14.06,14.06,0,0,0-9,6.64c-1.95,3.48-2.24,7.81-4.76,10.9a2.29,2.29,0,0,0,1.74,1.28l-.47,1.14a.64.64,0,0,1,.82.82l2.82,0c-.1.42.24.8.55,1.1l4.16,4a2.79,2.79,0,0,0,1.5.93c.73-.76,2.48,1.26,2.71.23s-1.23-4.81-.28-5.2l8-3.29c1.85-.76,4.51-1.43,5.69-3.2.87-1.3,1-3,1.88-4.41C470.43,49.39,470.93,47.5,469.59,45.3Z" transform="translate(-1.02 -2.6)" fill="url(#linear-gradient-5)"></path><path d="M462.13,50.35a6.47,6.47,0,0,1,2.83-3,2.1,2.1,0,0,1,2.47.42,2.79,2.79,0,0,1,.37,1.76v2.68c-1.3.35-2.05,1.72-3.24,2.35A4.94,4.94,0,0,1,462,55c-.72,0-2.6-.44-2.06-1.38.3-.52.86-1,1.19-1.48S461.8,50.94,462.13,50.35Z" transform="translate(-1.02 -2.6)" fill="url(#linear-gradient-6)"></path><path d="M475.93,84.85c7.21,6.37,7.89,16.06,8.48,20.49.73,5.5-12.37,9-10.69,2.63.86-3.29-5.84-25.95-1.48-25.47C473.75,82.67,473.72,82.9,475.93,84.85Z" transform="translate(-1.02 -2.6)" fill="#9317E1"></path><path d="M474.19,90.71c6.12,7.43,5.27,17.1,5.16,21.56a52.13,52.13,0,0,1-2.67,16.37A27.74,27.74,0,0,1,467.09,142a2.84,2.84,0,0,1-1.19.59,3.12,3.12,0,0,1-2.45-1.26,8.77,8.77,0,0,1-2.42-3.53c-1-3.4,2-6.48,3.94-9.45,4-6.25,3.71-14.31,2.69-21.68-.46-3.37-1-20,3.26-18.82C472.39,88.21,472.32,88.43,474.19,90.71Z" transform="translate(-1.02 -2.6)" fill="url(#linear-gradient-7)"></path><path d="M474.19,194.3c-.12,2-.22,4.24,1,5.86,3.19-1.91,4.16-6,4.56-9.74a80.6,80.6,0,0,0-.6-22,10,10,0,0,0-1-3.36,9.06,9.06,0,0,0-4.18-3.33,7,7,0,0,0-3.31-.87,2.8,2.8,0,0,0-2.61,1.9,4.37,4.37,0,0,0,.23,2.11c.7,2.41,1.21,4.92,2.5,7.09a19.74,19.74,0,0,1,2.5,5.85A52.12,52.12,0,0,1,474.19,194.3Z" transform="translate(-1.02 -2.6)" fill="url(#linear-gradient-8)"></path><path d="M430.51,167.59c2.36,1.83,5.46,2.4,8.44,2.61,1.1.07,2.2.1,3.3.15a6.16,6.16,0,0,1,5.9,5.87q.14,3.42.14,6.84c0,5.46-.19,11.18,2.21,16.08.5,1,1.31,2.12,2.45,2.13a2.74,2.74,0,0,0,1.66-.67,8.63,8.63,0,0,0,2.88-4.76,22.69,22.69,0,0,0,.48-5.64c0-7.24-.63-14.62-3.45-21.29a15.57,15.57,0,0,0-1.1-2.2,12.82,12.82,0,0,0-7.83-5.21A31.07,31.07,0,0,0,436,161c-1.53.1-3.05.23-4.58.3-.85,0-4-.43-4.63,0C425.56,162.35,429.6,166.89,430.51,167.59Z" transform="translate(-1.02 -2.6)" fill="url(#linear-gradient-9)"></path><path d="M494,164c.33,7.19-8.86,43-10.86,44.31-1.67,1.14-4.67-.38-6.39-1.43-.33-.24-.57-.43-.81-.57-1.33-1,.81-28.5.81-28.5s.67-9.33-5.86-14.77c-7.29-6.05-15.63-11.62-15.06-15.91a2.83,2.83,0,0,1,.77-1.72c3.67-4.38,24.54-1,28.92,2.2l.24.14a.19.19,0,0,1,0,.09c.1.1.24.29.48.53.33.43.86,1.05,1.43,1.76a53.37,53.37,0,0,1,4.15,6.72A19.49,19.49,0,0,1,494,164Z" transform="translate(-1.02 -2.6)" fill="#606161"></path><path d="M491.86,156.8c0,1.86-14.35-1.24-16.11,1.86s2.14,1.86,3.53,8.72,0,35.21-1.53,38.21a3.52,3.52,0,0,1-1,1.24c-.33-.24-.57-.43-.81-.57-1.33-1,.81-28.5.81-28.5s.67-9.33-5.86-14.77c0,0,1-6.19-3.53-9.72-4.28-3.33-10.86-5.91-11.53-6.19.53-.19,9.58-3,16.87-2.67a33.65,33.65,0,0,1,12.82,3.15l.24.14a.19.19,0,0,1,0,.09c.1.1.24.29.48.53.33.43.86,1.05,1.43,1.76C489.47,152.42,491.86,155.66,491.86,156.8Z" transform="translate(-1.02 -2.6)" fill="url(#linear-gradient-10)"></path><path d="M465.51,205.54a14.75,14.75,0,0,1-3.62,5.72c-1.77,1.48-4.44,2.1-6.34.91-2.24-1.39-2.67-4.34-2.91-6.91-.76-9-.81-24.54-1.57-33.5a4,4,0,0,0-1.29-2.62l0,0a11.73,11.73,0,0,0-3.81-2c-2.71-.91-6.1-1.62-8.62-3.29a8.41,8.41,0,0,1-2.34-2.14c-4.48-6.15-6.14-18.63-2.43-24.59a6.51,6.51,0,0,1,4.91-3.34c6.48-.81,18.16,3.44,20.87,9.3.86,1.9,1.24,4,2.48,5.67,2.14,3,6.38,3.9,8.48,6.95a12.68,12.68,0,0,1,1.72,5.24A81.74,81.74,0,0,1,465.51,205.54Z" transform="translate(-1.02 -2.6)" fill="#606161"></path><path d="M451,167a3.14,3.14,0,0,1-.09,2.76c-.38-.19-.72-.43-1.1-.62l0,0c-1.23-.66-2.52-1.33-3.81-2-1.81-.81-3.71-1.57-5.62-2.24-1-.33-2-.67-3-1.05a8.41,8.41,0,0,1-2.34-2.14c-4.48-6.15-6.14-18.63-2.43-24.59,3.63.24,7.15,1.91,10.44,3.48,1.95,1,3.91,1.86,5.76,3,1.24.72,3.77,1.77,1.81,3.15-2.66,1.86-7.76-1.43-9.81,1.57a4.63,4.63,0,0,0-.57,2.24c-.1,1.14-.19,2.33-.29,3.53a8.71,8.71,0,0,0,.19,3.14,7.09,7.09,0,0,0,2.77,3.15c2.14,1.52,4.47,2.71,6.38,4.43A7,7,0,0,1,451,167Z" transform="translate(-1.02 -2.6)" fill="url(#linear-gradient-11)"></path><path d="M455.25,222.78a13.05,13.05,0,0,0,2.66,2l4.17,2.59c1.5.93,3.48,1.85,4.89.8s1.17-2.88.67-4.39a13.82,13.82,0,0,0-3.77-5.82,3.47,3.47,0,0,1-.91-1,3.23,3.23,0,0,1-.19-1.35l0-4.29c0-4.34-6-3.56-7.86-1C452.62,213.45,452.55,219.89,455.25,222.78Z" transform="translate(-1.02 -2.6)" fill="#606161"></path><path d="M476.12,217.44a9.08,9.08,0,0,0,4.31,3.52,30.44,30.44,0,0,0,5.28,1.95,2.47,2.47,0,0,0,2.3-.19,2.22,2.22,0,0,0,.55-1.14,8.54,8.54,0,0,0-2.09-7.69,14.29,14.29,0,0,1-2.31-2.49c-.82-1.43-.64-3.18-.79-4.82-.32-3.58-6-2.65-7.42-.33S474.9,215.18,476.12,217.44Z" transform="translate(-1.02 -2.6)" fill="#606161"></path><path d="M431.23,133.66a7.12,7.12,0,0,0,1,4.17,7.63,7.63,0,0,0,2.83,2c5.31,2.66,10.7,5.36,16.53,6.46s12.27.42,17-3.17a10.17,10.17,0,0,0,3.72-4.9c.76-2.41.25-5,.12-7.53-.33-6.28,1.77-12.4,3.23-18.52s2.24-12.84-.53-18.49c-2.19-4.45,2.52-8.18-1.63-10.9-5.83-3.82-12.68-5.67-22.23-4.25-3.7.55-16.33,5.74-17.7,9.22s2.63,7,2.16,10.75C434.3,110.07,431.23,122.06,431.23,133.66Z" transform="translate(-1.02 -2.6)" fill="#9317E1"></path><path d="M438.79,134.71a1.39,1.39,0,0,1,.48-.51,1.55,1.55,0,0,1,.93-.08,31.34,31.34,0,0,0,5.48,0,3.36,3.36,0,0,0,1.65-.44,1.27,1.27,0,0,0,.56-1.48c-.25-.54-.91-.72-1.49-.85a24.84,24.84,0,0,1-5.79-2.13,30.24,30.24,0,0,0-5-2.43c-1.39-.42-3.3-.26-3.79,1.12a3.23,3.23,0,0,0-.14,1l-.21,4.16a9.07,9.07,0,0,0,.57,4.55c1,1.86,3.06,2.79,5,3.59a2.89,2.89,0,0,0,1.88.27C438,139.28,437.36,136.94,438.79,134.71Z" transform="translate(-1.02 -2.6)" fill="url(#linear-gradient-12)"></path><path d="M439,113.32c0-1.75,1.57-3,2.71-4.37a12.71,12.71,0,0,0,3-9c-.12-1.86-1.34-4.15-3.17-3.76a3.49,3.49,0,0,0-1.19.59,21.75,21.75,0,0,0-8.57,12,11.22,11.22,0,0,0-.36,5.33,12.27,12.27,0,0,0,3.92,6,33.33,33.33,0,0,0,12.37,7.4c1.23.4,5,1.64,4.13-.72C451.37,125.47,438.91,115,439,113.32Z" transform="translate(-1.02 -2.6)" fill="url(#linear-gradient-13)"></path><path d="M428.27,104.51s-4,11.18-4.25,17.44,20.35,10.28,20.35,10.28l3.33-4.72s-11.49-6.23-12.61-8.92,2.46-11.07,2.46-11.07Z" transform="translate(-1.02 -2.6)" fill="url(#linear-gradient-14)"></path><path d="M442.3,133.73l24.13,1.14,1.2.37s-2.35,8-6.63,7.72S442.3,133.73,442.3,133.73Z" transform="translate(-1.02 -2.6)" fill="url(#linear-gradient-15)"></path><path d="M453,138.05l11.76.07s-2.48,4.11-4.55,4.33Z" transform="translate(-1.02 -2.6)" fill="#9317E1"></path><path d="M453,138.05l11.76.07s-2.48,4.11-4.55,4.33Z" transform="translate(-1.02 -2.6)" fill="url(#linear-gradient-16)"></path><path d="M456.15,90.43a6.38,6.38,0,0,0,6.93-.62,5.25,5.25,0,0,0,1.71-3.12c.52-3.42-2.37-6.59-2.12-10,.13-1.71,1-3.46.42-5.07-.52-1.37-8.18-3.6-8.46-2.16C452.67,79.6,447.77,86.25,456.15,90.43Z" transform="translate(-1.02 -2.6)" fill="url(#linear-gradient-17)"></path><path d="M455.72,69.92s-.8,14.93,7.25,13.92c0,0,1.26-.16.88-2s-1.93-3.73-1.84-5.37S455.72,69.92,455.72,69.92Z" transform="translate(-1.02 -2.6)" fill="url(#linear-gradient-18)"></path><path d="M469.51,55.34a6.25,6.25,0,0,0,.13,1.09,33.42,33.42,0,0,1,.82,4.1,59.09,59.09,0,0,1,.17,7.87,16.65,16.65,0,0,1-1.3,6.58,6.76,6.76,0,0,1-5.19,3.85c-2.06.18-4-.94-5.7-2.19-2.59-2-9.17-9-6.25-7.47,4.09,2.16-2.74-7.28.11-9.15.77-.51,1.68-.52,2.46-1a12.34,12.34,0,0,0,2.55-2.4c1.57-1.76,3-3.8,5.32-4.67a6.31,6.31,0,0,1,5.41.44,2.81,2.81,0,0,1,1.06,1A4.3,4.3,0,0,1,469.51,55.34Z" transform="translate(-1.02 -2.6)" fill="url(#linear-gradient-19)"></path><path d="M461.6,131.87a7.43,7.43,0,0,1,.82,4.79,2.16,2.16,0,0,1-.24.91,1.76,1.76,0,0,1-1,.68c-2.87,1-5.76-1.56-8.79-1.71-.76,0-1.52.08-2.27,0a7.06,7.06,0,0,1-2.67-1.16c-.88-.54-1.73-1.12-2.57-1.72-2-1.47-1.15-4.08.52-5.48,1.51-1.26,2.71-1.05,4.42-.44C453.4,129,459.3,128.37,461.6,131.87Z" transform="translate(-1.02 -2.6)" fill="url(#linear-gradient-20)"></path><path d="M479.69,132.38a2,2,0,0,1,.7.76,2.1,2.1,0,0,1,.08,1,11.59,11.59,0,0,1-2.1,5.44,3.17,3.17,0,0,1-2,1.46c-1.47.21-2.56-1.33-3.94-1.89s-3.23-.1-4.52-1a4.26,4.26,0,0,1-1.51-3.32c-.18-2.49,3.74-4.17,5.85-4.69C474.77,129.56,477.73,130.93,479.69,132.38Z" transform="translate(-1.02 -2.6)" fill="url(#linear-gradient-21)"></path><path d="M473.45,124.81c.59-1.24,1.26-2.62,2.54-3.14a5,5,0,0,1,1.64-.3A174,174,0,0,1,515,122.6a2.64,2.64,0,0,1-.77,2.21c-5.91,7.74-11.83,15.5-18.68,22.42a4.71,4.71,0,0,1-1.44,1.12,4.58,4.58,0,0,1-2.33.19c-2-.2-4-.54-6-.83a163.49,163.49,0,0,0-23.7-1.82,19,19,0,0,1-5.48-.53,17.87,17.87,0,0,1-3.7-1.75,67.1,67.1,0,0,1-11.83-7.92c-.28-.25-.58-.58-.52-.95s.43-.58.77-.71c3.89-1.53,5.77,1.6,9.37,3.73,2.2,1.3,5.91,4.06,8.36,4.78,2.21.65,4.93-3.38,6.24-5A56.8,56.8,0,0,0,473.45,124.81Z" transform="translate(-1.02 -2.6)" fill="#9317E1"></path><path d="M514.2,124.83c-.66.85-1.33,1.76-2,2.62a200.1,200.1,0,0,1-16.67,19.77,5.28,5.28,0,0,1-1.43,1.14,5.43,5.43,0,0,1-2.34.19c-2-.19-4-.57-6-.85a152.8,152.8,0,0,0-22.44-1.77c-.43,0-.81,0-1.24,0-.77,0-1.53,0-2.24,0a12.21,12.21,0,0,1-3.24-.48,18.57,18.57,0,0,1-3.72-1.76,92.18,92.18,0,0,1-7.91-4.86,36,36,0,0,1-3.91-3.05,1.16,1.16,0,0,1-.52-.95c0-.39.43-.58.76-.72,3.91-1.52,5.06,1,8.63,3.15,2.2,1.29,6.69,4.65,9.12,5.37,2.23.66,4.93-3.37,6.22-4.95a57.13,57.13,0,0,0,8.2-12.76c.57-1.24,1.23-2.63,2.52-3.15a4.68,4.68,0,0,1,1.62-.33A177.47,177.47,0,0,1,515,122.59,2.71,2.71,0,0,1,514.2,124.83Z" transform="translate(-1.02 -2.6)" fill="url(#linear-gradient-22)"></path><path d="M514.2,124.81c-5.24,6.86-12.57,16.26-18.67,22.41a5.28,5.28,0,0,1-1.43,1.14,5.43,5.43,0,0,1-2.34.19c-2-.19-4-.57-6-.85a152.8,152.8,0,0,0-22.44-1.77,17.12,17.12,0,0,0,2.76-3.09,59.05,59.05,0,0,0,8.15-12.77c.57-1.24,3.23-5.26,4.52-5.79a6.05,6.05,0,0,1,1.62-.28A170,170,0,0,1,514.2,124.81Z" transform="translate(-1.02 -2.6)" fill="url(#linear-gradient-23)"></path><path d="M451,66.65a1.37,1.37,0,0,0-.63.19,1.08,1.08,0,0,0-.41.93,2.59,2.59,0,0,0,.31,1,7,7,0,0,0,.86,1.3,2.63,2.63,0,0,0,2.53,1.06,1.72,1.72,0,0,0,1.16-2A4,4,0,0,0,451,66.65Z" transform="translate(-1.02 -2.6)" fill="url(#linear-gradient-24)"></path><path d="M452.6,68.79c-.26-.16-.24-.55-.42-.8s-.63-.31-1.11-.28a.16.16,0,0,0-.06.15,2.39,2.39,0,0,0,.76,1.85,1.65,1.65,0,0,0,.62.43.75.75,0,0,0,.72-.11.92.92,0,0,0,.23-.88C453.18,68.68,453,69,452.6,68.79Z" transform="translate(-1.02 -2.6)" fill="url(#linear-gradient-25)"></path><path d="M426.64,99.29a4.29,4.29,0,0,0-.41,1.71c0,.71-1,3.6-.7,4.23,1.56,3.08,10.84,6,11.07,5.82,2.08-1.71,2.2-5,3.35-7.39a20.83,20.83,0,0,0,2.2-7.35c.26-3.87-1.54-8-5.57-9-3.72-.93-5.11,2.22-6.68,5.05A56.7,56.7,0,0,0,426.64,99.29Z" transform="translate(-1.02 -2.6)" fill="#9317E1"></path></svg>