<svg id="Layer_1" data-name="Layer 1" xmlns="http://www.w3.org/2000/svg" viewBox="0 0 400 300" width="406" height="306" class="illustration styles_illustrationTablet__1DWOa"><path d="M107.49,222.41H82.69a18.31,18.31,0,1,1,0-36.62h24.8Zm-24.8-30.62a12.31,12.31,0,1,0,0,24.62h18.8V191.79Z" fill="#9317E1"></path><path d="M107.49,222.41H82.69a18.31,18.31,0,1,1,0-36.62h24.8Zm-24.8-30.62a12.31,12.31,0,1,0,0,24.62h18.8V191.79Z" fill="#fff" opacity="0.46"></path><rect x="104.74" y="59.97" width="106.87" height="127.37" fill="#f2f2f2"></rect><rect x="193.9" y="59.97" width="106.87" height="127.37" fill="#24285b"></rect><polygon points="187.94 172.8 180.5 220.1 230.16 220.1 218.74 172.8 187.94 172.8" fill="#c9c9c9"></polygon><ellipse cx="200.66" cy="230.98" rx="159.83" ry="12.55" fill="#e6e6e6" opacity="0.24"></ellipse><rect x="169.17" y="211.81" width="69.84" height="15.2" fill="#e6e6e6"></rect><circle cx="120.68" cy="72.68" r="3.43" fill="#24285b"></circle><circle cx="130.88" cy="72.68" r="3.43" fill="#9317E1"></circle><circle cx="140.5" cy="72.68" r="3.43" fill="#ffd200"></circle><rect x="104.74" y="162.76" width="196.03" height="24.59" fill="#e6e6e6"></rect><circle cx="204.88" cy="175.05" r="6.7" fill="#a5a5a5"></circle><rect x="232.42" y="98.22" width="31.81" height="2.32" fill="#9317E1"></rect><rect x="246.59" y="104.31" width="31.81" height="2.32" fill="#ffd200"></rect><rect x="224.76" y="92.6" width="26.69" height="2.32" fill="#9317E1"></rect><rect x="257" y="92.6" width="26.69" height="2.32" fill="#9317E1"></rect><rect x="232.42" y="86.14" width="23.86" height="2.32" fill="#ffd200"></rect><rect x="262.49" y="86.14" width="23.86" height="2.32" fill="#ffd200"></rect><rect x="214.86" y="98.22" width="11.96" height="2.32" fill="#fff"></rect><rect x="226.77" y="104.31" width="11.96" height="2.32" fill="#fff"></rect><rect x="207.2" y="92.6" width="11.96" height="2.32" fill="#fff"></rect><rect x="207.2" y="74.95" width="11.96" height="2.32" fill="#fff"></rect><rect x="214.86" y="80.75" width="11.96" height="2.32" fill="#fff"></rect><rect x="232.42" y="80.75" width="23.86" height="2.32" fill="#ffd200"></rect><rect x="262.49" y="80.75" width="23.86" height="2.32" fill="#ffd200"></rect><rect x="214.86" y="86.14" width="11.96" height="2.32" fill="#fff"></rect><rect x="223.95" y="74.95" width="24.64" height="2.32" fill="#9317E1"></rect><rect x="253.74" y="74.95" width="17.5" height="2.32" fill="#9317E1"></rect><rect x="232.42" y="134.24" width="31.81" height="2.32" fill="#9317E1"></rect><rect x="246.59" y="140.34" width="31.81" height="2.32" fill="#ffd200"></rect><rect x="224.76" y="128.63" width="26.69" height="2.32" fill="#9317E1"></rect><rect x="257" y="128.63" width="26.69" height="2.32" fill="#9317E1"></rect><rect x="232.42" y="122.17" width="23.86" height="2.32" fill="#ffd200"></rect><rect x="262.49" y="122.17" width="23.86" height="2.32" fill="#ffd200"></rect><rect x="214.86" y="134.24" width="11.96" height="2.32" fill="#fff"></rect><rect x="226.77" y="140.34" width="11.96" height="2.32" fill="#fff"></rect><rect x="207.2" y="128.63" width="11.96" height="2.32" fill="#fff"></rect><rect x="207.2" y="110.98" width="11.96" height="2.32" fill="#fff"></rect><rect x="214.86" y="116.78" width="11.96" height="2.32" fill="#fff"></rect><rect x="232.42" y="116.78" width="23.86" height="2.32" fill="#ffd200"></rect><rect x="262.49" y="116.78" width="23.86" height="2.32" fill="#ffd200"></rect><rect x="214.86" y="122.17" width="11.96" height="2.32" fill="#fff"></rect><rect x="223.95" y="110.98" width="24.64" height="2.32" fill="#9317E1"></rect><rect x="253.74" y="110.98" width="17.5" height="2.32" fill="#9317E1"></rect><rect x="246.59" y="134.24" width="100.62" height="65.61" fill="#e6e6e6"></rect><rect x="237.26" y="134.24" width="9.33" height="53.1" opacity="0.08"></rect><circle cx="257.47" cy="143.62" r="3.43" fill="#24285b"></circle><circle cx="267.67" cy="143.62" r="3.43" fill="#9317E1"></circle><rect x="246.59" y="154.74" width="100.62" height="49.35" fill="#f2f2f2"></rect><circle cx="277.29" cy="143.62" r="3.43" fill="#ffd200"></circle><path d="M273.22,176.84l-7.09,2.6,7.09,2.57v2.67l-10.14-3.86v-2.77l10.14-3.85Z" fill="#a5a5a5"></path><path d="M275.35,179.44c0-4.5,3.45-7.71,8.09-7.71a7.69,7.69,0,0,1,6.14,2.64l-2.22,2a4.79,4.79,0,0,0-3.75-1.75,4.78,4.78,0,0,0,0,9.55,4.75,4.75,0,0,0,3.75-1.77l2.22,2a7.66,7.66,0,0,1-6.16,2.67C278.8,187.15,275.35,183.93,275.35,179.44Z" fill="#a5a5a5"></path><path d="M290.6,185.42l1.17-2.6a8.75,8.75,0,0,0,4.92,1.56c2.05,0,2.88-.68,2.88-1.6,0-2.79-8.67-.87-8.67-6.41,0-2.54,2-4.64,6.28-4.64a10,10,0,0,1,5.18,1.32l-1.07,2.62a8.4,8.4,0,0,0-4.13-1.18c-2,0-2.83.77-2.83,1.71,0,2.75,8.67.85,8.67,6.33,0,2.49-2.07,4.62-6.33,4.62A10.65,10.65,0,0,1,290.6,185.42Z" fill="#a5a5a5"></path><path d="M304.19,185.42l1.17-2.6a8.75,8.75,0,0,0,4.92,1.56c2.05,0,2.88-.68,2.88-1.6,0-2.79-8.67-.87-8.67-6.41,0-2.54,2-4.64,6.28-4.64a10,10,0,0,1,5.18,1.32l-1.07,2.62a8.4,8.4,0,0,0-4.13-1.18c-2.05,0-2.83.77-2.83,1.71,0,2.75,8.67.85,8.67,6.33,0,2.49-2.07,4.62-6.33,4.62A10.65,10.65,0,0,1,304.19,185.42Z" fill="#a5a5a5"></path><path d="M328.64,178.05v2.77l-10.14,3.86V182l7.09-2.57-7.09-2.6V174.2Z" fill="#a5a5a5"></path><rect x="120.68" y="88.46" width="59.82" height="37.69" fill="#a5a5a5"></rect><rect x="120.68" y="142.16" width="17.99" height="14.29" fill="#c9c9c9" opacity="0.36"></rect><rect x="141.59" y="142.16" width="17.99" height="14.29" fill="#c9c9c9" opacity="0.36"></rect><rect x="162.51" y="142.16" width="17.99" height="14.29" fill="#c9c9c9" opacity="0.36"></rect><polygon points="120.68 126.15 140.5 100.54 150.59 119.1 163.55 104.31 180.5 126.15 120.68 126.15" fill="#fff" opacity="0.54"></polygon><circle cx="152.55" cy="100.54" r="4.32" fill="#f2f2f2"></circle><rect x="120.68" y="130.95" width="59.82" height="5.61" fill="#a5a5a5"></rect><rect x="85.94" y="176.37" width="43.74" height="53.27" fill="#9317E1"></rect><ellipse cx="107.81" cy="203" rx="12.68" ry="14.32" opacity="0.08"></ellipse><path d="M126.11,176.37s7.49-9.8,0-17.25-22.81-3.18-22.81-18.93-.34-33.5-19.07-38.75-32.34-16.58-48,2.87-3.4,38.58,14.64,32.25,25.19-2.51,18,7.06,8.18,21.34,17,17.17c6.55-3.08,4.42,15.58,4.42,15.58Z" fill="#a5a5a5" opacity="0.15"></path></svg>