<svg xmlns="http://www.w3.org/2000/svg" viewBox="0 0 400 300" width="406" height="306" class="illustration styles_illustrationTablet__1DWOa"><g id="_182_css_outline" data-name="#182_css_outline"><rect x="90.09" y="81.56" width="222.88" height="136.88" rx="5.78" fill="#093f68"></rect><path d="M307.18,219.44H95.87a6.79,6.79,0,0,1-6.78-6.78V87.34a6.79,6.79,0,0,1,6.78-6.78H307.18A6.79,6.79,0,0,1,314,87.34V212.66A6.79,6.79,0,0,1,307.18,219.44ZM95.87,82.56a4.79,4.79,0,0,0-4.78,4.78V212.66a4.79,4.79,0,0,0,4.78,4.78H307.18a4.79,4.79,0,0,0,4.78-4.78V87.34a4.79,4.79,0,0,0-4.78-4.78Z" fill="#093f68"></path><path d="M90.09,102.39H196.74a0,0,0,0,1,0,0v116a0,0,0,0,1,0,0H96.14a6.06,6.06,0,0,1-6.06-6.06v-110A0,0,0,0,1,90.09,102.39Z" fill="#9317E1"></path><path d="M196.74,219.44H96.14a7.06,7.06,0,0,1-7-7.06v-110a1,1,0,0,1,1-1H196.74a1,1,0,0,1,1,1V218.44A1,1,0,0,1,196.74,219.44Zm-105.65-116v109a5.06,5.06,0,0,0,5,5.06h99.6v-114Z" fill="#093f68"></path><path d="M229.26,114.42H210.32a1,1,0,0,1,0-2h18.94a1,1,0,0,1,0,2Z" fill="#fff"></path><path d="M255.43,126.26H216.54a1,1,0,0,1,0-2h38.89a1,1,0,0,1,0,2Z" fill="#ffbc0e"></path><path d="M245.78,138.1H216.54a1,1,0,0,1,0-2h29.24a1,1,0,0,1,0,2Z" fill="#ffbc0e"></path><path d="M230.35,149.94H213.56a1,1,0,0,1,0-2h16.79a1,1,0,0,1,0,2Z" fill="#fff"></path><path d="M237,161.78H218.08a1,1,0,0,1,0-2H237a1,1,0,0,1,0,2Z" fill="#f56132"></path><path d="M246.68,173.63H217.42a1,1,0,1,1,0-2h29.26a1,1,0,0,1,0,2Z" fill="#fff"></path><path d="M224.53,185.47H210.32a1,1,0,0,1,0-2h14.21a1,1,0,0,1,0,2Z" fill="#fff"></path><path d="M246.68,197.31H215.55a1,1,0,0,1,0-2h31.13a1,1,0,0,1,0,2Z" fill="#70cc40"></path><path d="M276.5,197.31H256.06a1,1,0,0,1,0-2H276.5a1,1,0,0,1,0,2Z" fill="#ffbc0e"></path><path d="M269.87,138.1H255.43a1,1,0,0,1,0-2h14.44a1,1,0,0,1,0,2Z" fill="#fff"></path><path d="M290.44,126.26H262.65a1,1,0,0,1,0-2h27.79a1,1,0,0,1,0,2Z" fill="#9317E1"></path><path d="M285.84,138.1h-8.12a1,1,0,0,1,0-2h8.12a1,1,0,0,1,0,2Z" fill="#f56132"></path><path d="M250.74,161.78h-8.12a1,1,0,0,1,0-2h8.12a1,1,0,0,1,0,2Z" fill="#f56132"></path><path d="M290.44,161.78h-33a1,1,0,0,1,0-2h33a1,1,0,0,1,0,2Z" fill="#ffbc0e"></path><path d="M262.65,173.63h-7.22a1,1,0,0,1,0-2h7.22a1,1,0,0,1,0,2Z" fill="#9317E1"></path><path d="M290.44,197.31h-4.6a1,1,0,0,1,0-2h4.6a1,1,0,0,1,0,2Z" fill="#fff"></path><circle cx="105.17" cy="92.65" r="3.52" fill="#f56132"></circle><path d="M105.17,97.17a4.52,4.52,0,1,1,4.51-4.52A4.53,4.53,0,0,1,105.17,97.17Zm0-7a2.52,2.52,0,1,0,2.51,2.52A2.52,2.52,0,0,0,105.17,90.13Z" fill="#093f68"></path><circle cx="119.37" cy="92.65" r="3.52" fill="#ffbc0e"></circle><path d="M119.37,97.17a4.52,4.52,0,1,1,4.52-4.52A4.53,4.53,0,0,1,119.37,97.17Zm0-7a2.52,2.52,0,1,0,2.52,2.52A2.52,2.52,0,0,0,119.37,90.13Z" fill="#093f68"></path><circle cx="133.57" cy="92.65" r="3.52" fill="#70cc40"></circle><path d="M133.57,97.17a4.52,4.52,0,1,1,4.52-4.52A4.52,4.52,0,0,1,133.57,97.17Zm0-7a2.52,2.52,0,1,0,2.52,2.52A2.51,2.51,0,0,0,133.57,90.13Z" fill="#093f68"></path><path d="M123,200.46a4.11,4.11,0,0,1-1.21-3.24V190a2.54,2.54,0,0,0-.51-1.85,2.85,2.85,0,0,0-2-.49v-3.51a2.9,2.9,0,0,0,2-.49,2.59,2.59,0,0,0,.51-1.86v-7.18a4.14,4.14,0,0,1,1.21-3.24,4.45,4.45,0,0,1,3.12-1.09h2.19v3.51h-.63a1.91,1.91,0,0,0-1.56.61,3.41,3.41,0,0,0-.51,2.16v5.86a3.18,3.18,0,0,1-2.38,3.43V186a3.2,3.2,0,0,1,2.38,3.44v5.85a3.45,3.45,0,0,0,.51,2.17,1.93,1.93,0,0,0,1.56.6h.63v3.52h-2.19A4.45,4.45,0,0,1,123,200.46Z" fill="#093f68"></path><path d="M146.67,172.28h3.71l-10.77,27.33H135.9Z" fill="#093f68"></path><path d="M158,198h.62a1.93,1.93,0,0,0,1.56-.6,3.45,3.45,0,0,0,.51-2.17v-5.85A3.2,3.2,0,0,1,163,186v-.08a3.18,3.18,0,0,1-2.38-3.43v-5.86a3.41,3.41,0,0,0-.51-2.16,1.91,1.91,0,0,0-1.56-.61H158v-3.51h2.18a4.45,4.45,0,0,1,3.12,1.09,4.14,4.14,0,0,1,1.21,3.24v7.18a2.59,2.59,0,0,0,.51,1.86,2.9,2.9,0,0,0,2,.49v3.51a2.85,2.85,0,0,0-2,.49,2.54,2.54,0,0,0-.51,1.85v7.18a4.11,4.11,0,0,1-1.21,3.24,4.45,4.45,0,0,1-3.12,1.1H158Z" fill="#093f68"></path><rect x="78.22" y="110.95" width="89.34" height="48.16" rx="4.44" fill="#fff"></rect><path d="M163.12,160.11H82.65a5.44,5.44,0,0,1-5.43-5.43V115.39A5.44,5.44,0,0,1,82.65,110h80.47a5.44,5.44,0,0,1,5.43,5.44v39.29A5.44,5.44,0,0,1,163.12,160.11ZM82.65,112a3.44,3.44,0,0,0-3.43,3.44v39.29a3.44,3.44,0,0,0,3.43,3.43h80.47a3.44,3.44,0,0,0,3.43-3.43V115.39a3.44,3.44,0,0,0-3.43-3.44Z" fill="#093f68"></path><path d="M110.61,131.82a4.8,4.8,0,0,0-1.75-1.34,6.42,6.42,0,0,0-4.94.07,6,6,0,0,0-2,1.47,6.83,6.83,0,0,0-1.34,2.25,8.16,8.16,0,0,0-.48,2.83,8.06,8.06,0,0,0,.48,2.84,7,7,0,0,0,1.32,2.24,6.19,6.19,0,0,0,2,1.48,5.75,5.75,0,0,0,2.44.52,5.37,5.37,0,0,0,2.64-.62,5.19,5.19,0,0,0,1.9-1.74l4,3a8.45,8.45,0,0,1-3.54,2.88,10.84,10.84,0,0,1-4.42.94,13.54,13.54,0,0,1-4.75-.81,10.87,10.87,0,0,1-3.76-2.32,10.52,10.52,0,0,1-2.47-3.65,13.42,13.42,0,0,1,0-9.56,10.52,10.52,0,0,1,2.47-3.65,10.87,10.87,0,0,1,3.76-2.32,13.54,13.54,0,0,1,4.75-.81,12.15,12.15,0,0,1,2,.17,10.8,10.8,0,0,1,2,.55,8.91,8.91,0,0,1,1.88,1,7.75,7.75,0,0,1,1.62,1.52Z" fill="#093f68"></path><path d="M128.38,131.48a3.45,3.45,0,0,0-1.6-1.11,5.91,5.91,0,0,0-1.91-.35,5.27,5.27,0,0,0-1.09.12,3.9,3.9,0,0,0-1,.39,2.39,2.39,0,0,0-.81.7,1.94,1.94,0,0,0,.43,2.58,7.31,7.31,0,0,0,1.88.9c.76.25,1.57.5,2.44.74a10,10,0,0,1,2.44,1.06,5.86,5.86,0,0,1,1.88,1.83,5.57,5.57,0,0,1,.75,3.08,7,7,0,0,1-.69,3.2,6.41,6.41,0,0,1-1.85,2.27,7.75,7.75,0,0,1-2.7,1.33,11.87,11.87,0,0,1-3.25.44,11.65,11.65,0,0,1-4-.66,9.85,9.85,0,0,1-3.42-2.11l3.45-3.79a5,5,0,0,0,1.88,1.54,5.38,5.38,0,0,0,2.34.54,4.92,4.92,0,0,0,1.2-.14,3.75,3.75,0,0,0,1.09-.42,2.2,2.2,0,0,0,.77-.71,1.76,1.76,0,0,0,.3-1,1.84,1.84,0,0,0-.76-1.56,7,7,0,0,0-1.91-1q-1.16-.41-2.49-.81a10.85,10.85,0,0,1-2.48-1.09,5.77,5.77,0,0,1-1.91-1.8,5.14,5.14,0,0,1-.76-2.95,6.42,6.42,0,0,1,2.56-5.34,8.12,8.12,0,0,1,2.69-1.36,11,11,0,0,1,3.13-.45,12.42,12.42,0,0,1,3.61.53,8.22,8.22,0,0,1,3.13,1.77Z" fill="#093f68"></path><path d="M146.21,131.48a3.45,3.45,0,0,0-1.6-1.11,5.91,5.91,0,0,0-1.91-.35,5.27,5.27,0,0,0-1.09.12,3.9,3.9,0,0,0-1.05.39,2.39,2.39,0,0,0-.81.7,1.93,1.93,0,0,0,.44,2.58,7.08,7.08,0,0,0,1.87.9c.76.25,1.57.5,2.44.74a9.86,9.86,0,0,1,2.44,1.06,5.86,5.86,0,0,1,1.88,1.83,5.57,5.57,0,0,1,.75,3.08,7,7,0,0,1-.69,3.2,6.41,6.41,0,0,1-1.85,2.27,7.75,7.75,0,0,1-2.7,1.33,11.85,11.85,0,0,1-3.24.44,11.66,11.66,0,0,1-4-.66,9.85,9.85,0,0,1-3.42-2.11l3.45-3.79a5,5,0,0,0,1.88,1.54,5.42,5.42,0,0,0,2.35.54,4.89,4.89,0,0,0,1.19-.14,3.64,3.64,0,0,0,1.09-.42,2.32,2.32,0,0,0,.78-.71,2,2,0,0,0-.47-2.59,6.83,6.83,0,0,0-1.91-1q-1.16-.41-2.49-.81a10.85,10.85,0,0,1-2.48-1.09,5.86,5.86,0,0,1-1.91-1.8,5.14,5.14,0,0,1-.76-2.95,6.49,6.49,0,0,1,2.56-5.34,8.12,8.12,0,0,1,2.69-1.36,11,11,0,0,1,3.13-.45,12.42,12.42,0,0,1,3.61.53,8.33,8.33,0,0,1,3.14,1.77Z" fill="#093f68"></path><path d="M166.51,119.55H78.22a1,1,0,0,1,0-2h88.29a1,1,0,0,1,0,2Z" fill="#093f68"></path></g></svg>