<svg xmlns="http://www.w3.org/2000/svg" xmlns:xlink="http://www.w3.org/1999/xlink" viewBox="0 0 400 300" width="406" height="306" class="illustration styles_illustrationTablet__1DWOa"><defs><linearGradient id="linear-gradient" x1="26.16" y1="217.47" x2="91.8" y2="174.43" gradientUnits="userSpaceOnUse"><stop offset="0" stop-color="#fff" stop-opacity="0"></stop><stop offset="0.99" stop-color="gray"></stop></linearGradient><linearGradient id="linear-gradient-2" x1="237.31" y1="221.2" x2="287.75" y2="172.23" xlink:href="#linear-gradient"></linearGradient><linearGradient id="linear-gradient-3" x1="168.46" y1="262.02" x2="228.25" y2="222.82" xlink:href="#linear-gradient"></linearGradient><linearGradient id="linear-gradient-4" x1="167.91" y1="128.42" x2="158.9" y2="108.34" gradientTransform="matrix(-1, 0, 0, 1, 330.32, 0)" gradientUnits="userSpaceOnUse"><stop offset="0" stop-color="#fff" stop-opacity="0"></stop><stop offset="1" stop-color="#006837"></stop></linearGradient></defs><title>PP</title><g style="isolation: isolate;"><g id="Layer_2" data-name="Layer 2"><path d="M194.28,288.83,14.56,182.61c-5.72-3.21-10.63-8.49-5.05-11.94l180.37-104c2.71-1.68,6.82-2.78,9.57-1.18L388.11,175c5.72,3.32,6.75,12.6,1,15.93L218,288.66A23.9,23.9,0,0,1,194.28,288.83Z" fill="#9736bb"></path><path d="M72.36,213.89l43.52-25.39c-10.2-6.91-32.31-19.7-41.14-28.23L26.35,187.5C35,193.26,59.72,207.67,72.36,213.89Z" opacity="0.91" fill="url(#linear-gradient)" style="mix-blend-mode: multiply;"></path><polygon points="155 123.22 47.51 147.1 47.51 178.78 89.49 203.99 155 165.59 155 123.22" fill="#9317E1"></polygon><polyline points="155.38 123.16 88.86 168.91 47.51 147.1 78.69 130.1" fill="#3099aa" opacity="0.81"></polyline><path d="M39.72,140.61l39.64,22.89a101.83,101.83,0,0,0,34.42-12.12C131.52,141.25,156,122.42,156,122.42l-36.45-21.1L68,131.76S53.72,138.71,39.72,140.61Z" fill="#9317E1"></path><path d="M44.23,141.27,80.06,162a121.49,121.49,0,0,0,32.78-12.41c16-9.15,38.12-26.17,38.12-26.17L118,104.31l-46.6,27.51A139.28,139.28,0,0,1,44.23,141.27Z" fill="none" stroke="#2e3192" stroke-miterlimit="10"></path><polygon points="88.86 168.91 88.86 203.99 155 165.59 155.96 122.42 88.86 168.91" fill="#3099aa" opacity="0.54"></polygon><polygon points="88.86 168.91 88.86 203.99 155 165.59 155.96 122.42 88.86 168.91" fill="#3099aa" opacity="0.54"></polygon><path d="M92.42,124.77l24.53-15.24,26.81,14.19s-28,16.94-30.11,18.12-25.4,14-35.61,13.44l-23.35-13Z" fill="#fff" opacity="0.5"></path><ellipse cx="100.45" cy="135.85" rx="21.14" ry="10.19" fill="#3099aa" opacity="0.54"></ellipse><path d="M47.51,153.76q10.44,5.6,20.82,11.3t20.74,11.44h-.44l16.52-10.82L121.72,155l16.61-10.67Q146.65,139,155,133.71q-8.17,5.54-16.39,11l-16.46,10.91-16.51,10.83L89.09,177.23l-.21.14-.22-.12Q78.32,171.46,68,165.57T47.51,153.76Z" fill="#3099aa" opacity="0.68"></path><path d="M47.51,162.07q10.44,5.6,20.82,11.3t20.74,11.44h-.44L105.15,174l16.57-10.75,16.61-10.67Q146.64,147.27,155,142q-8.17,5.54-16.39,11l-16.46,10.91-16.51,10.83L89.09,185.54l-.21.14-.22-.12Q78.32,179.77,68,173.88T47.51,162.07Z" fill="#3099aa" opacity="0.68"></path><path d="M47.7,168.42q10.44,5.6,20.82,11.3t20.74,11.44h-.44l16.52-10.82,16.57-10.75,16.61-10.67q8.32-5.32,16.68-10.57-8.17,5.54-16.39,11l-16.46,10.91-16.51,10.83L89.28,191.89l-.21.14-.22-.12q-10.33-5.79-20.61-11.67T47.7,168.42Z" fill="#3099aa" opacity="0.68"></path><path d="M47.51,174.63q10.44,5.6,20.82,11.3t20.74,11.44h-.44l16.52-10.82,16.57-10.75,16.61-10.67q8.32-5.32,16.68-10.57-8.17,5.54-16.39,11L122.15,176.5l-16.51,10.83L89.09,198.1l-.21.14-.22-.12Q78.32,192.33,68,186.45T47.51,174.63Z" fill="#3099aa" opacity="0.68"></path><polygon points="72.36 129.16 113.78 151.37 113.78 189.75 129.38 180.47 129.38 141.04 88.86 119.42 72.36 129.16" fill="#dce5ca"></polygon><polygon points="113.78 151.37 129.38 141.04 129.38 180.47 113.78 189.75 113.78 151.37" fill="#c7d1b0"></polygon><path d="M104.95,132.74a8,8,0,0,1,2.92.82,3.51,3.51,0,0,1,1.58,1.32,1.51,1.51,0,0,1-.07,1.61,4.49,4.49,0,0,1-1.73,1.48l2.75,1.35-1.52.79L106,138.71a12.72,12.72,0,0,1-4.17.83,10.47,10.47,0,0,1-4.48-.78l2.9-1.51a5.8,5.8,0,0,0,1.89.38,5.5,5.5,0,0,0,1.42-.12l-4.17-2.05c-1.2.33-2.23.57-3.07.72a11.13,11.13,0,0,1-2.8.11,8.08,8.08,0,0,1-2.94-.83,3.09,3.09,0,0,1-1.58-1.4,1.58,1.58,0,0,1,.24-1.59,4.86,4.86,0,0,1,1.49-1.28L88,129.87l1.52-.79,2.76,1.36a11.46,11.46,0,0,1,4.1-.87,10.41,10.41,0,0,1,4.25.73l-2.94,1.53A5.41,5.41,0,0,0,96,131.5a4.88,4.88,0,0,0-1.28.12l4.06,2,.18,0q1.85-.48,3.16-.71A11,11,0,0,1,104.95,132.74Zm.91,3.3c0-.35-.3-.65-.85-.93a3.72,3.72,0,0,0-1.75-.37,9.74,9.74,0,0,0-1.73.22l3.8,1.87c.36-.25.55-.52.54-.79m-9.18-1.93-3.58-1.76a1,1,0,0,0-.46.68c0,.31.25.6.79.86a3.79,3.79,0,0,0,1.71.37,9.51,9.51,0,0,0,1.55-.15" fill="#0a5293"></path><path d="M209.84,212.81c4.72,1.45,4.26,6.3,9.11,7.28,3,.6,3.81,7.47,6.8,7.69l20.91,15.91,62-38.63-58.17-33.42-50,32.15C208.26,209.51,200.72,210,209.84,212.81Z" opacity="0.91" fill="url(#linear-gradient-2)" style="mix-blend-mode: multiply;"></path><polyline points="254.06 16.77 247.78 19.55 253.82 22.21 255.28 19.09" fill="#8b54ba"></polyline><path d="M311.33,201.42,259.12,171a13.92,13.92,0,0,1-6.91-12L250.52,20.76c0-3.63,5.63-5.47,8.75-3.63l54,31.91a9,9,0,0,1,4.4,7.71v141A4.23,4.23,0,0,1,311.33,201.42Z" fill="#8b54ba"></path><polyline points="315.51 201.46 308.69 205.06 309.48 200.31 314.22 199.45" fill="#8b54ba"></polyline><path d="M304.78,204.88l-52.21-30.43a13.92,13.92,0,0,1-6.91-12V22.9a3.7,3.7,0,0,1,5.58-3.18L306.75,52.5a9,9,0,0,1,4.4,7.71v141A4.23,4.23,0,0,1,304.78,204.88Z" fill="#f4f4f4"></path><polygon points="307.83 68.72 248.34 34.61 248.34 156.67 307.83 191.06 307.83 68.72" fill="#9317E1"></polygon><ellipse cx="272.55" cy="178.94" rx="2.74" ry="3.7" transform="translate(-34.1 68.18) rotate(-13.43)" fill="#bababc"></ellipse><path d="M270.32,40.48h0a1.33,1.33,0,0,0,.67,1.15l11.49,6.61a1.33,1.33,0,0,0,2-1.15V46.8a1.33,1.33,0,0,0-.69-1.16l-11.49-6.32A1.33,1.33,0,0,0,270.32,40.48Z" fill="#ccc"></path><ellipse cx="265.04" cy="36.97" rx="1.3" ry="1.77" transform="translate(3.64 94.28) rotate(-20.31)" fill="#ccc"></ellipse><ellipse cx="291.83" cy="82.2" rx="9.56" ry="12.85" transform="translate(-11.19 92.24) rotate(-17.63)" fill="#f2f2f2"></ellipse><ellipse cx="291.28" cy="79.03" rx="3.44" ry="5.01" transform="translate(-10.14 63.7) rotate(-12.27)" fill="#c4b7b3"></ellipse><path d="M298,93.21s-2.07-9.05-7.28-10.15-6.49,5.52-6.49,5.52a11.51,11.51,0,0,0,6.89,5.85C296.38,96.19,298,93.21,298,93.21Z" fill="#c4b7b3"></path><path d="M302.78,77.09l-3.06,2.52L299,78.19c-.46-.9-1.6,0-1.14.9l.93,1.8a.75.75,0,0,0,.13.17c.16.43.59.73,1,.39l3.66-3C304.29,77.84,303.5,76.49,302.78,77.09Z" fill="#8b54ba"></path><path d="M257.88,86v37a1.5,1.5,0,0,0,3,0V86a1.5,1.5,0,0,0-3,0Z" fill="#fff"></path><path d="M265.39,97.57v29.93a1.5,1.5,0,0,0,3,0V97.57a1.5,1.5,0,0,0-3,0Z" fill="#fff"></path><path d="M273.17,106.05v26.37a1.5,1.5,0,0,0,3,0V106.05a1.5,1.5,0,0,0-3,0Z" fill="#fff"></path><ellipse cx="293.7" cy="130.9" rx="7.71" ry="12.57" transform="translate(-21.11 65.4) rotate(-12.27)" fill="#fff"></ellipse><path d="M293.7,131.7l-5.53-11.33s3.89-5.07,9.51,1.29Z" fill="#8b54ba"></path><path d="M293.7,131.7l8,2.63a17.62,17.62,0,0,0-4-12.66Z" fill="#ff9f9f"></path><path d="M251.83,128.06,303,157.56a.75.75,0,0,0,.76-1.3l-51.13-29.5a.75.75,0,0,0-.76,1.3Z" fill="#0071bc"></path><polygon points="253.25 154.21 260.41 149.75 266.26 156.99 276.52 152.14 286.5 164 299.8 161.01 299.8 181.3 253.25 154.21" fill="#8b54ba"></polygon><path d="M140.67,124.08s.46,7.15-5.1,7.59c0,0,4.71,2,5.49,5.69,0,0,.58-5.22,5.36-5.76A7.35,7.35,0,0,1,140.67,124.08Z" fill="#fff"></path><path d="M197.47,258.31l49.24-28c-10.2-6.91-17.71-8.74-26.54-17.27L172.1,240C180.8,245.78,189.34,251.8,197.47,258.31Z" opacity="0.91" fill="url(#linear-gradient-3)" style="mix-blend-mode: multiply;"></path><path d="M243.72,98.21s-.63-4.29,0-5.94a36,36,0,0,0,1-6.25,1.74,1.74,0,0,1,2,1.09c.6,1.44-.65,5-.65,5s3.56,7.38,0,10.75S243.72,98.21,243.72,98.21Z" fill="#ffac99"></path><path d="M220.11,121.25l23.61-23s5.35,11.62,0,16.94L222.06,136.7" fill="#091114"></path><path d="M215.7,216.54s-3.26,4.52-3,7.16,4.42,7.1,5.36,9,1.19,2.72,0,4.09-11.35-7.48-11.59-8.9S207.9,221,207.9,221l-4.51,5.7-3.29-1.94,7-11.73" fill="#ea7554"></path><path d="M217,236.93c-.28-.27-8.32-3.06-8.32-3.06s-3.78-3.94-3.67-5.44,1.49-7.46,2.91-7.4,1.57,7.95,1.57,7.95Z" fill="#af4127"></path><path d="M226.56,224l1,12s2.6,1.9,3.24,1.74,2.55-.66,2.57-1-.92-8.51-.65-8.73,4.26,6.27,5.51,6.4,10.8-5.42,9.88-7.52-5.53-1-7.81-1-5.42-1.32-7.13-5.23" fill="#ea7554"></path><path d="M232.61,191.4l5.83,30.88s-3.37,4.4-15.41,3.85l-9-21.9" fill="#ffc65a"></path><path d="M235.19,143s9,13.11,6.22,34.34c-2.45,18.82-21.24,41-21.24,41s-5.62,2.48-17.32-8.59l12.91-20.53S203.18,160,218,141.5" fill="#ffc65a"></path><path d="M260.52,117.8a1.31,1.31,0,0,1,2.62,0c0,.88,0,1.77,0,2.65.1-.19.2-.38.3-.57a37.85,37.85,0,0,0,2.29-7.58c.32-1.69,2.75-.93,2.53.7a26.32,26.32,0,0,1-.8,3.77l.26-.11a1.72,1.72,0,0,1,2.2,1.22,2.43,2.43,0,0,1,.07,1.24l.2,0a1.9,1.9,0,0,1,1,2.92,1.74,1.74,0,0,1,.63,1,2.53,2.53,0,0,1-1.12,2.41c-.9.75-1.88,1.72-2.71,2.53-1.08,1.05-2.31,2.1-3.32,2.94s-2.68-1.94-2.7-2.88a1.2,1.2,0,0,1-1.57-1.22Q260.62,122.33,260.52,117.8Z" fill="#ffac99"></path><path d="M265.76,120.59q.93-1.94,1.71-3.93c.11-.28.57-.16.46.13q-.81,2.06-1.76,4C266,121.11,265.63,120.87,265.76,120.59Z" fill="#af594a"></path><path d="M233.82,114s4.38,4,6.07,6.7,8.49,10.24,11.29,8,7.76-6.57,7.76-6.57,7.08,4.87,6.35,9.93c0,0-6.29,12.84-16.08,10S237,135.53,237,135.53l-1.48,8.35s-12.16,3.81-17.79-1.84c0,0-3.7-24-1-27.58" fill="#091114"></path><path d="M235.18,99.47c.09.28.3,9-2.66,9.81s-8-1.24-9.3-4,.56-11.55,5.23-12.06S234.34,96.93,235.18,99.47Z" fill="#ffac99"></path><path d="M231.58,101.08c-2,1.32-.71,3.83.11,5.44a8.35,8.35,0,0,1,.87,4,5.21,5.21,0,0,0,1.27,3.51,13.87,13.87,0,0,1,1.66,2.65c-4.26,1-8.74.67-13.08.17a101.45,101.45,0,0,1-10.65-1.43,6.42,6.42,0,0,1,.5-2.19c.84-1.92,2.22-2.95,1.89-5.21-.25-1.74-.7-3.46-.09-5.18s2.13-2.6,3.57-3.66a9.14,9.14,0,0,0,1.17-1l.31-.52c.86-1.46,1.48-3.22,2.63-4.47A7.73,7.73,0,0,1,225.94,91a12.56,12.56,0,0,1,9.63,2.2s2.54,2.44,1.74,5.05S233.33,99.9,231.58,101.08Z" fill="#e28133"></path><path d="M233.81,197.77s-10.29,17.81-13.65,20.52l2.87,7.84S235,209.35,233.81,197.77Z" fill="#ea7554"></path><path d="M216,188.23a56.08,56.08,0,0,0,5.37-22.14c0-.61,1-.61,1,0a57.29,57.29,0,0,1-5.5,22.62C216.52,189.26,215.71,188.78,216,188.23Z" fill="#ea7554"></path><path d="M272.63,66.57c1.23,6.83-1.83,12.8-6.84,13.34s-10.07-4.57-11.3-11.4,1.83-12.8,6.84-13.34S271.4,59.74,272.63,66.57Z" fill="#f4f4f4"></path><path d="M266.67,72.16a3.52,3.52,0,0,1-.44,1.68,1.91,1.91,0,0,1-1.17.91,2.83,2.83,0,0,1-1.52-.11l-.06,1.81c0,.53-.34.65-.64.5a1,1,0,0,1-.47-.92l.06-1.87a5.45,5.45,0,0,1-1.95-1.89,5.81,5.81,0,0,1-.88-3l2,.77a3.25,3.25,0,0,0,.34,1.31,2.38,2.38,0,0,0,.56.73l.11-3.56a16.88,16.88,0,0,1-1.52-1.34,5.18,5.18,0,0,1-1-1.52,5,5,0,0,1-.36-2.17,3.2,3.2,0,0,1,.48-1.73,1.91,1.91,0,0,1,1.2-.8,3,3,0,0,1,1.41.12l.08-2.32c0-.52.35-.65.64-.49a1,1,0,0,1,.47.92L264,61.52a5,5,0,0,1,1.85,1.77,5.74,5.74,0,0,1,.84,2.85l-2-.78a3.07,3.07,0,0,0-.32-1.17,2.26,2.26,0,0,0-.41-.56l-.11,3.46a17.92,17.92,0,0,1,1.53,1.38,5.23,5.23,0,0,1,1,1.54A5,5,0,0,1,266.67,72.16Zm-2.41.31a1.37,1.37,0,0,0,.39-1,2.2,2.2,0,0,0-.31-1.22,4.17,4.17,0,0,0-.62-.76l-.11,3.16a.81.81,0,0,0,.65-.15m-2.19-7.16a4.39,4.39,0,0,0,.63.79l.1-3.05a.85.85,0,0,0-.65.11,1.19,1.19,0,0,0-.37,1,2.19,2.19,0,0,0,.29,1.19" fill="#8b54ba"></path><path d="M172.45,106.07l18,10.1-23.18,14.54h-.6c-9.38-5.17-17.62-3.69-24.29-7.81C151,118.3,164.47,111.69,172.45,106.07Z" opacity="0.63" fill="url(#linear-gradient-4)" style="mix-blend-mode: multiply;"></path><path d="M198.82,88.33s2.11,25-11.22,29.4-20-8.36-19.48-30.38" fill="#06577a"></path><ellipse cx="183.47" cy="87.84" rx="8.88" ry="15.36" transform="matrix(0.03, -1, 1, 0.03, 89.84, 268.42)" fill="#f2696a"></ellipse><path d="M180.16,68s6.3-8.51,3.87-14.61c0,0-2-3.93-5.1-4.65,0,0,0,8.26-3,7.11s.27-8.63.27-8.63-3.09-4.47-6.62-4.45-.25,7.71-2.66,6.38.09-7.71-2.65-8.56a58.06,58.06,0,0,0-7.64-1.47s-2.85,7.44-.27,8.6,6.4,1.65,4.51,3.25-7.06-.47-7.06-.47-.46,4.22,1.26,6.11,12.29-1.83,10.33,1.75-8.81,1.54-8.81,1.54S160,65,164,67.46,180.16,68,180.16,68Z" fill="#8ccc00"></path><path d="M178.06,89.7s4.49-4.16,3.75-7.88c0,0-.74-2.45-2.4-3.18,0,0-.86,4.69-2.46,3.72S178,77.48,178,77.48s-1.27-2.87-3.29-3.23-1,4.35-2.19,3.34.87-4.37-.59-5.14a33.54,33.54,0,0,0-4.18-1.65s-2.41,3.92-1.07,4.85,3.46,1.62,2.21,2.32-4-1-4-1-.71,2.35.06,3.6,7.17.27,5.68,2.1-5.17-.07-5.17-.07A16.35,16.35,0,0,0,169,87.69C171,89.51,178.06,89.7,178.06,89.7Z" fill="#8ccc00"></path><path d="M194.36,80.92s10.56.75,14.4-4.59c0,0,2.22-3.84,1.18-6.8,0,0-6.94,4.47-7.6,1.29s7.43-4.41,7.43-4.41,2.11-5,.19-8-6.64,3.94-6.81,1.18,6.55-4.06,5.8-6.84a58.06,58.06,0,0,0-2.86-7.23s-7.81,1.59-7.4,4.39,2.05,6.29-.32,5.55S195,49.3,195,49.3s-3.81,1.88-4.48,4.34,8.15,9.38,4.08,9.65-6-6.61-6-6.61S186,62.3,186.13,67,194.36,80.92,194.36,80.92Z" fill="#8ccc00"></path><path d="M158.83,42.5q1.64,1.48,3.29,3c-.08-1.2-.18-2.4-.33-3.6-.08-.63.89-.87,1-.24q.3,2.4.42,4.82c2.88,2.69,5.74,5.51,8.38,8.48a35.69,35.69,0,0,0,.38-6.1c0-.64,1-.61,1,0a36.71,36.71,0,0,1-.52,7A69.17,69.17,0,0,1,177.15,62a19.81,19.81,0,0,0,3.68-7.87c.14-.63,1.09-.33,1,.3a20.49,20.49,0,0,1-4,8.34.51.51,0,0,1-.1.09c4.2,6.37,7,13.45,7,21.56,0,.64-1,.61-1,0,0-7.8-2.68-14.65-6.71-20.81a38.56,38.56,0,0,1-12.42.81c-.64-.06-.61-1.06,0-1a37.78,37.78,0,0,0,11.8-.71,72.53,72.53,0,0,0-6.7-8.31l-.09,0c-2.34.13-4.68.27-7,.28a8.55,8.55,0,0,1-4.33-.64c-.57-.31,0-1.15.53-.85,1.59.86,3.86.51,5.59.46,1.48,0,3-.12,4.45-.2-3.45-3.64-7.16-7-10.75-10.29C157.62,42.75,158.35,42.07,158.83,42.5Z" fill="#06577a"></path><path d="M189.18,62.94a.5.5,0,0,1,1-.24,17.71,17.71,0,0,0,6.12,9.42q1.85-4.66,3.41-9.43a29.87,29.87,0,0,1-5.6-8.46c-.26-.59.62-1.07.88-.48A29.1,29.1,0,0,0,200,61.59c1.16-3.64,2.2-7.33,3.1-11.05.15-.63,1.11-.33,1,.3q-1.84,7.65-4.42,15.06a23.45,23.45,0,0,0,5.51-1.61c.59-.25,1.07.62.48.88A24.53,24.53,0,0,1,199.29,67h0c-1.16,3.26-2.44,6.47-3.81,9.64A24.18,24.18,0,0,0,204.23,75c.59-.23,1.08.65.48.88a25.51,25.51,0,0,1-9.65,1.76q-2.6,5.93-5.67,11.66c-.31.57-1.15,0-.85-.53a156.06,156.06,0,0,0,7.35-15.64h0A18.81,18.81,0,0,1,189.18,62.94Z" fill="#06577a"></path><path d="M170.67,75.28l2.6,4.7a8.62,8.62,0,0,0,.92-1.41c.3-.57,1.14,0,.85.53a9.53,9.53,0,0,1-1.21,1.78l0,0L176.61,86a2,2,0,0,0,.65-1.18c.1-.63,1.1-.6,1,0a3.15,3.15,0,0,1-1.16,2l3.53,6.37a.5.5,0,0,1-.88.48l-4.65-8.4a7.47,7.47,0,0,1-2.42-.44c-.6-.22-.31-1.18.3-1a6.65,6.65,0,0,0,1.54.34l-4.71-8.51A.5.5,0,0,1,170.67,75.28Z" fill="#06577a"></path></g></g></svg>