<svg id="Layer_1" data-name="Layer 1" xmlns="http://www.w3.org/2000/svg" viewBox="0 0 400 300" width="406" height="306" class="illustration styles_illustrationTablet__1DWOa"><title>_</title><path d="M109.48,50.44c-35.14,8.4-63.09,28.83-68.05,67.07-4.18,32.21.13,89.27,58.91,99.41,114.38,19.74,203.77,29.11,239-25.79,32.34-50.38,29.88-125.7-34.19-139.51C259.84,41.85,184.78,32.44,109.48,50.44Z" fill="#e6e6e6" opacity="0.3"></path><ellipse cx="200" cy="251.22" rx="140.79" ry="15.19" fill="#e6e6e6" opacity="0.45"></ellipse><path d="M94.81,213.87s-8.63-2.32-10.54-10.34c0,0,13.35-2.76,13.79,11Z" fill="#9317E1" opacity="0.58"></path><path d="M95.86,213s-6.06-9.5-.8-18.43c0,0,10.19,6.41,5.73,18.43Z" fill="#9317E1" opacity="0.73"></path><path d="M97.42,213s3.14-10.07,12.75-12c0,0,1.83,6.52-6.18,12Z" fill="#9317E1"></path><polygon points="91.16 212.81 92.96 224.76 103.97 224.76 105.54 212.81 91.16 212.81" fill="#24285b"></polygon><path d="M94.81,213.87s-8.63-2.32-10.54-10.34c0,0,13.35-2.76,13.79,11Z" fill="#9317E1" opacity="0.58"></path><path d="M95.86,213s-6.06-9.5-.8-18.43c0,0,10.19,6.41,5.73,18.43Z" fill="#9317E1" opacity="0.73"></path><path d="M97.42,213s3.14-10.07,12.75-12c0,0,1.83,6.52-6.18,12Z" fill="#9317E1"></path><polygon points="91.16 212.81 92.96 224.76 103.97 224.76 105.54 212.81 91.16 212.81" fill="#24285b"></polygon><rect x="76.09" y="236.49" width="49.64" height="11.9" transform="translate(201.83 484.87) rotate(-180)" fill="#ccc"></rect><rect x="86.95" y="224.85" width="49.64" height="11.9" transform="translate(223.53 461.59) rotate(-180)" fill="#e6e6e6" opacity="0.43"></rect><rect x="112.06" y="33.6" width="179.52" height="214.79" fill="#e6e6e6"></rect><rect x="193.85" y="41.99" width="33.58" height="4.9" opacity="0.12"></rect><circle cx="181.69" cy="44.97" r="5.47" fill="#fff"></circle><rect x="128.57" y="58.96" width="146.5" height="168.46" opacity="0.08"></rect><g opacity="0.12"><rect x="143.47" y="176.91" width="20.2" height="35.43"></rect><rect x="176.4" y="163.95" width="20.2" height="48.39"></rect><rect x="209.33" y="143.19" width="20.2" height="69.15"></rect><rect x="242.25" y="124.3" width="20.2" height="88.04"></rect></g><circle cx="201.82" cy="237.94" r="6.43" opacity="0.12"></circle><path d="M234,177.1s-25.43,5.7-35.42,23.38,31,48.19,31,48.19l28.35.1,6.54-29.63-14.78-21.08Z" opacity="0.08"></path><path d="M285.86,174s33.22-3.52,32,14.06-19.88,55-19.88,55H257.14s-31-47.5-15.9-62.78S259.74,178.11,285.86,174Z" fill="#9317E1"></path><polygon points="298.01 248.77 273.17 255.47 251.14 244.28 247.79 238.32 270 238.32 305.34 238.32 298.01 248.77" fill="#24285b"></polygon><path d="M301.88,193c-3.11-10.41,2.77-21.78,13.89-13.45,7.62,5.71,16.67,23.91,17.13,40.76,1.08,38.72-46.42-2.94-52.32-25.12l5.85-3.45s9.84,18.58,20.58,22.6C314.75,217.26,306.48,208.39,301.88,193Z" fill="#9317E1"></path><path d="M301.88,193c-3.11-10.41,2.77-21.78,13.89-13.45,7.62,5.71,16.67,23.91,17.13,40.76,1.08,38.72-46.42-2.94-52.32-25.12l5.85-3.45s9.84,18.58,20.58,22.6C314.75,217.26,306.48,208.39,301.88,193Z" fill="#fff" opacity="0.46"></path><path d="M284.69,174.22a39.55,39.55,0,0,0-.44,4.47c-.07,2.06-.73,5.11-4,5.71-5,.93-6.34-7-6.34-7s-3.15-7.42,2.27-8.43C281.09,168.07,285.69,167.41,284.69,174.22Z" fill="#f4a28c"></path><path d="M265.4,185.38s3.11,6.52-4.74,19.88c-4.49,7.65,9.34,20.41,9.34,20.41l34.42,3.45L298,243.05H257.14s-17.93-29.16-19.31-44.17S265.4,185.38,265.4,185.38Z" opacity="0.08"></path><path d="M274.26,177.74s-.29-2.41-2.39-2.3S270.6,180,274.26,177.74Z" fill="#f4a28c"></path><path d="M283.48,176.4s-.73-2.31,1.22-3.08S287.76,177,283.48,176.4Z" fill="#f4a28c"></path><polygon points="296.39 236.2 299.27 209.97 255.22 209.97 259.61 237.54 258.98 241.08 296.86 241.38 296.39 236.2" fill="#ffd200"></polygon><path d="M278.66,248.77s-8.36,2.92-5.49,6.7,7.41-2.5,7.41-2.5Z" fill="#9317E1"></path><path d="M255.22,210,264,221.5a45.09,45.09,0,0,0,19.87,14.9l13,5-34.93-.28-2.95,0,.63-3.54Z" opacity="0.08"></path><path d="M284.8,173.92a3,3,0,0,0,2.75-.25,2.26,2.26,0,0,0,.6-1.55c.28-2.77-.3-6.74-2.07-9s-5.74-2.08-8.26-1.7a10.46,10.46,0,0,0-3.72,1.14,8.08,8.08,0,0,0-3,3.51c-1.6,3.38-1.83,8.8,2.41,10,6.15,1.73,9.34-5,9.34-5a10.66,10.66,0,0,0,1.55,2.6A1.48,1.48,0,0,0,284.8,173.92Z" fill="#24285b"></path><path d="M278.4,247.31s33.79-17.25,36.67-8.08-20.41,14.51-35.44,15.06Z" fill="#24285b"></path><circle cx="276.81" cy="224.1" r="3.77" fill="#fff"></circle><path d="M270.19,248.66s-26.94-26.7-32.47-18.83,15,20,29.18,25.11Z" fill="#24285b"></path><path d="M269.14,250.67s8,7.11,3.36,9.21-5.6-4.94-5.6-4.94Z" fill="#9317E1"></path><path d="M265.4,185.38a11.42,11.42,0,0,0-10.15-12.49c-6.09-.65-14.1-.25-21.22,4.21-13.81,8.66-29.09,15.57-25.32,31.26s31.18,22.28,31.18,22.28l3.65-6s-24.16-8.16-19.76-20.92C227.74,192.25,262.8,211.47,265.4,185.38Z" fill="#9317E1"></path><path d="M265.4,185.38a11.42,11.42,0,0,0-10.15-12.49c-6.09-.65-14.1-.25-21.22,4.21-13.81,8.66-29.09,15.57-25.32,31.26s31.18,22.28,31.18,22.28l3.65-6s-24.16-8.16-19.76-20.92C227.74,192.25,262.8,211.47,265.4,185.38Z" fill="#fff" opacity="0.46"></path><path d="M242.94,225.67s7.62,5.16,4.85,6.58-7.44-2.36-7.44-2.36Z" fill="#f4a28c"></path><path d="M281.53,178.38a4,4,0,1,0-4.11,4.74l1.74,9.11,1.8-.34-1.74-9.11A4,4,0,0,0,281.53,178.38Zm-3.52,3a2.24,2.24,0,1,1,1.78-2.62A2.25,2.25,0,0,1,278,181.33Z" fill="#24285b"></path><path d="M285.4,192.37s-2.73-6.7-6.47-6.15S281,195,281,195Z" fill="#f4a28c"></path><rect x="162.26" y="132.22" width="28.67" height="4.83" fill="#fff" opacity="0.46"></rect><rect x="162.26" y="144.94" width="28.67" height="4.83" fill="#fff" opacity="0.46"></rect><rect x="144.87" y="132.22" width="8.46" height="4.83" fill="#9317E1"></rect><rect x="144.87" y="144.94" width="8.46" height="4.83" fill="#ffd200"></rect><path d="M226.78,94.25a25,25,0,1,1-.53-5.07h0c.13.68.24,1.36.34,2A25.48,25.48,0,0,1,226.78,94.25Z" fill="#9317E1"></path><path d="M201.82,69.3v25l24.44-5.08S222.85,69.14,201.82,69.3Z" fill="#ffd200"></path><path d="M226.78,94.25A25,25,0,0,1,188,115l13.87-20.75,24.43-5.08c.13.68.24,1.36.34,2A25.48,25.48,0,0,1,226.78,94.25Z" fill="#fff" opacity="0.46"></path><rect x="112.06" y="71.01" width="53.76" height="46.5" opacity="0.08"></rect><rect x="104.27" y="65.83" width="56.71" height="46.5" fill="#24285b"></rect><path d="M133.81,73.64c.84,0,1.1.29,1.1,1.13v1.79c3.36.47,5.29,2.15,6.72,5.07.44.88.26,1.36-.73,1.79l-1.79.81c-.84.4-1.24.22-1.72-.66a4.57,4.57,0,0,0-4.67-2.81c-3.11,0-4.53.91-4.53,3a2.75,2.75,0,0,0,2.52,2.45,19.65,19.65,0,0,0,2.63.4,17.47,17.47,0,0,1,4.86,1,6.79,6.79,0,0,1,2.15,1.17,7.07,7.07,0,0,1,1.94,5.12c0,4-2.67,6.68-7.38,7.37v1.9c0,.84-.26,1.14-1.1,1.14h-2c-.84,0-1.13-.3-1.13-1.14v-1.86a8.3,8.3,0,0,1-7.3-5.62,1.18,1.18,0,0,1,.84-1.68l1.79-.66c.91-.33,1.31-.11,1.71.8q1.22,3.07,4.93,3.07c3.36,0,5-1.06,5-3.21a2.24,2.24,0,0,0-1.57-2.27A12.29,12.29,0,0,0,132.5,91a16.76,16.76,0,0,1-4.9-1.06,6.9,6.9,0,0,1-2.12-1.21,6.67,6.67,0,0,1-2-5c0-3.94,2.49-6.57,7.16-7.19V74.77c0-.84.29-1.13,1.13-1.13Z" fill="#fff"></path><rect x="237.11" y="72.86" width="25.35" height="4.82" fill="#fff" opacity="0.46"></rect><rect x="237.11" y="83.4" width="25.35" height="4.82" fill="#fff" opacity="0.46"></rect><rect x="237.11" y="93.94" width="25.35" height="4.82" fill="#fff" opacity="0.46"></rect><rect x="247.9" y="104.48" width="14.56" height="4.82" fill="#fff" opacity="0.46"></rect></svg>