<?xml version="1.0" encoding="UTF-8"?>
<svg width="62px" height="62px" viewBox="0 0 62 62" version="1.1" xmlns="http://www.w3.org/2000/svg" xmlns:xlink="http://www.w3.org/1999/xlink">
    <!-- Generator: Sketch 55.2 (78181) - https://sketchapp.com -->
    <title>Group 5</title>
    <desc>Created with Sketch.</desc>
    <g id="Marshmello_landing-page" stroke="none" stroke-width="1" fill="none" fill-rule="evenodd">
        <g id="Simple_landngpage" transform="translate(-1006.000000, -950.000000)">
            <g id="Group-5" transform="translate(1007.000000, 951.000000)">
                <path d="M58,54 C58,56.209125 56.209125,58 54,58 L6,58 C3.790875,58 2,56.209125 2,54 L2,53 C2,52.44775 2.44775,52 3,52 L22,52 L22,53 C22,54.656875 23.343125,56 25,56 L35,56 C36.656875,56 38,54.656875 38,53 L38,52 L57,52 C57.55225,52 58,52.44775 58,53 L58,54 Z M24,52 L36,52 L36,53 C36,53.55225 35.55225,54 35,54 L25,54 C24.44775,54 24,53.55225 24,53 L24,52 Z M4,19 C4,18.44775 4.44775,18 5,18 L14,18 L14,35 L7,35 C6.44775,35 6,35.44775 6,36 L6,40 C6.00325,43.312375 8.687625,45.99675 12,46 L40,46 C43.312375,45.99675 45.99675,43.312375 46,40 L46,18 L55,18 C55.55225,18 56,18.44775 56,19 L56,50 L4,50 L4,19 Z M34,37 L34,40 C34.000375,41.478 34.54925,42.903375 35.54,44 L12,44 C9.790875,44 8,42.209125 8,40 L8,37 L34,37 Z M20,2 L45.54,2 C44.54925,3.096625 44.000375,4.522 44,6 L44,40 C44,42.209125 42.209125,44 40,44 C37.790875,44 36,42.209125 36,40 L36,36 C36,35.44775 35.55225,35 35,35 L16,35 L16,6 C16,3.790875 17.790875,2 20,2 L20,2 Z M54,6 L54,10 L46,10 L46,6 C46,3.790875 47.790875,2 50,2 C52.209125,2 54,3.790875 54,6 L54,6 Z M58,50.184 L58,19 C58,17.343125 56.656875,16 55,16 L46,16 L46,12 L55,12 C55.55225,12 56,11.55225 56,11 L56,6 C55.99675,2.687625 53.312375,0.00325 50,0 L20,0 C16.687625,0.00325 14.00325,2.687625 14,6 L14,16 L5,16 C3.343125,16 2,17.343125 2,19 L2,50.184 C0.805625,50.60625 0.00525,51.733125 0,53 L0,54 C0.00325,57.312375 2.687625,59.99675 6,60 L54,60 C57.312375,59.99675 59.99675,57.312375 60,54 L60,53 C59.99475,51.733125 59.194375,50.60625 58,50.184 L58,50.184 Z" id="Fill-1" stroke="#FFFFFF" stroke-width="0.5" fill="#161514"></path>
                <path d="M30,13 C32.209125,13 34,14.790875 34,17 C34,19.209125 32.209125,21 30,21 C27.790875,21 26,19.209125 26,17 C26,14.790875 27.790875,13 30,13 M30,23 C33.31375,23 36,20.31375 36,17 C36,13.68625 33.31375,11 30,11 C26.68625,11 24,13.68625 24,17 C24.00325,20.312375 26.687625,22.99675 30,23" id="Fill-3" fill="#FF5F32"></path>
            </g>
        </g>
    </g>
</svg>