<?xml version="1.0" encoding="UTF-8"?>
<svg width="129px" height="104px" viewBox="0 0 129 104" version="1.1" xmlns="http://www.w3.org/2000/svg" xmlns:xlink="http://www.w3.org/1999/xlink">
    <!-- Generator: Sketch 55.2 (78181) - https://sketchapp.com -->
    <title>Group 115</title>
    <desc>Created with Sketch.</desc>
    <defs>
        <polygon id="path-1" points="0.892662822 1.13332572 106.551596 1.13332572 106.551596 99.0678673 0.892662822 99.0678673"></polygon>
        <polygon id="path-3" points="0 1.01451976 51.4536347 1.01451976 51.4536347 61.3184398 0 61.3184398"></polygon>
    </defs>
    <g id="Marshmello_landing-page" stroke="none" stroke-width="1" fill="none" fill-rule="evenodd">
        <g id="Simple_landngpage" transform="translate(-1163.000000, -2565.000000)">
            <g id="Group-4" transform="translate(1098.000000, 2489.000000)">
                <g id="Group-115" transform="translate(65.000000, 75.000000)">
                    <g id="Group-3" transform="translate(22.127660, 0.243112)">
                        <mask id="mask-2" fill="white">
                            <use xlink:href="#path-1"></use>
                        </mask>
                        <g id="Clip-2"></g>
                        <path d="M105.178851,60.3770494 C104.993532,59.8195169 104.787468,59.2716208 104.56066,58.7319844 C102.46683,53.7403481 99.3177872,49.259439 96.9473617,44.3930753 C91.7473617,33.7146078 95.6694894,21.7324779 88.606617,11.4518545 C82.0291702,1.88019221 70.540766,-1.42508052 59.8351277,3.1989974 C44.8422553,9.67325714 35.0562979,24.0355688 20.5695957,31.1898805 C15.1953404,33.8440104 9.24161702,35.9640104 5.40108511,40.5536727 C2.09023404,44.5100883 0.826191489,49.8486338 0.895340426,54.9958286 C1.12353191,72.0549455 13.9340638,97.1287636 34.590234,93.4889714 C45.2239574,91.6140104 52.080766,87.7209195 62.7850213,92.6313351 C68.3736383,95.1959844 73.8377872,98.5439325 79.9740638,99.013361 C86.0190638,99.4759065 92.0875745,96.9580623 96.5283191,92.8488416 C104.957574,85.0516468 108.825766,71.3033091 105.178851,60.3770494" id="Fill-1" fill="#FF99EC" mask="url(#mask-2)"></path>
                    </g>
                    <path d="M69.2187766,70.4736182 C69.3335638,68.6908909 70.9018617,67.0637221 72.6084574,66.2528909 C76.1101596,64.5871766 80.308883,64.2127351 83.1965426,61.3892805 C86.0357979,58.6140078 86.9734574,54.3161896 85.5476064,50.6185792 C83.5118617,45.3406052 77.7310106,43.8910208 72.5365426,44.7032286 C71.8740957,44.8064753 71.1701596,44.9455143 70.5533511,44.6825792 C69.7609043,44.3453065 69.3667553,43.4408649 69.2533511,42.5901117 C68.5148404,37.0615922 69.3626064,31.0388649 66.3573936,26.0375922 C63.0313298,20.500813 55.5867553,19.1806312 50.0119681,22.1734104 C46.0386702,24.3071766 44.0333511,28.0474623 43.3114362,32.3604234 C42.8329255,35.2210468 44.7234574,43.0650468 41.4264362,44.7569169 C40.8815426,45.0363714 40.2370745,45.0432545 39.6230319,45.0060857 C34.0814362,44.6605532 29.0736702,44.4870987 26.7101596,50.6185792 C24.7117553,55.798813 27.3103723,61.6095403 32.5145213,63.5973844 L40.2121809,66.5392286 C41.8537766,67.1655922 42.935266,68.7321896 42.935266,70.4818779 C42.9366489,75.9360597 37.5914362,73.9785013 34.2930319,73.9193065 C30.7553723,73.8559818 28.0516489,77.1529948 26.9231383,80.1843195 C23.9939894,88.0558519 30.0486702,93.5155403 36.7035638,96.5289688 C44.9876064,100.278891 54.3572872,101.509592 63.3549468,100.254112 C70.8423936,99.2106312 82.7913298,96.1641636 85.6043085,88.0393325 C86.5419681,85.3246312 86.3303723,82.265774 85.1907979,79.6281636 C84.4370745,77.8853584 83.2601596,76.2843455 81.6517553,75.2656442 C78.9826064,73.573774 75.4560106,75.0508909 72.5835638,74.3350468 C71.1134574,73.9702416 69.709734,72.9584234 69.319734,71.5019558 C69.2284574,71.1564234 69.1966489,70.8122675 69.2187766,70.4736182" id="Fill-4" fill="#24C8D1"></path>
                    <path d="M55.7832766,58.6225429 C55.7459362,58.6225429 55.7058298,58.6170364 55.6684894,58.6046468 L47.3152979,56.0647766 C47.1078511,56.0014519 46.9902979,55.7825688 47.0539149,55.5746987 C47.114766,55.3682052 47.3374255,55.2456857 47.5448723,55.3145169 L55.8980638,57.854387 C56.1055106,57.9177117 56.2230638,58.1365948 56.1594468,58.3444649 C56.1082766,58.5137896 55.952,58.6225429 55.7832766,58.6225429" id="Fill-6" fill="#D9E8FF"></path>
                    <path d="M55.7832766,86.0736519 C55.7459362,86.0736519 55.7058298,86.0681455 55.6684894,86.0557558 L47.3152979,83.5158857 C47.1078511,83.452561 46.9902979,83.2336779 47.0539149,83.0258078 C47.114766,82.8193143 47.3374255,82.6981714 47.5448723,82.765626 L55.8980638,85.3054961 C56.1055106,85.3688208 56.2230638,85.5877039 56.1594468,85.795574 C56.1082766,85.9648987 55.952,86.0736519 55.7832766,86.0736519" id="Fill-8" fill="#D9E8FF"></path>
                    <path d="M56.4599681,58.6225429 C56.2912447,58.6225429 56.1349681,58.5137896 56.0837979,58.3444649 C56.0201809,58.1365948 56.137734,57.9177117 56.3451809,57.854387 L64.6983723,55.3145169 C64.9044362,55.2456857 65.1270957,55.3682052 65.1893298,55.5746987 C65.2529468,55.7825688 65.1353936,56.0014519 64.9279468,56.0647766 L56.5747553,58.6046468 C56.5374149,58.6170364 56.4973085,58.6225429 56.4599681,58.6225429" id="Fill-10" fill="#D9E8FF"></path>
                    <path d="M56.4599681,86.0736519 C56.2912447,86.0736519 56.1349681,85.9648987 56.0837979,85.795574 C56.0201809,85.5877039 56.137734,85.3688208 56.3451809,85.3054961 L64.6983723,82.765626 C64.9044362,82.6981714 65.1270957,82.8193143 65.1893298,83.0258078 C65.2529468,83.2336779 65.1353936,83.452561 64.9279468,83.5158857 L56.5747553,86.0557558 C56.5374149,86.0681455 56.4973085,86.0736519 56.4599681,86.0736519" id="Fill-12" fill="#D9E8FF"></path>
                    <path d="M56.4599681,96.9306675 C56.2428404,96.9306675 56.0658191,96.7544597 56.0658191,96.5383299 L56.0658191,40.4602 C56.0658191,40.2440701 56.2428404,40.0678623 56.4599681,40.0678623 C56.6770957,40.0678623 56.854117,40.2440701 56.854117,40.4602 L56.854117,96.5383299 C56.854117,96.7544597 56.6770957,96.9306675 56.4599681,96.9306675" id="Fill-14" fill="#D9E8FF"></path>
                    <g id="Group-18" transform="translate(0.000000, 37.411943)">
                        <mask id="mask-4" fill="white">
                            <use xlink:href="#path-3"></use>
                        </mask>
                        <g id="Clip-17"></g>
                        <path d="M30.1698191,15.7806468 C35.3877979,21.4771143 39.9018404,27.8178416 43.5473723,34.5577896 C46.3105638,39.0249325 55.7770532,57.1688286 49.1373723,60.8485429 C42.3386489,64.510361 27.7980106,45.6795299 23.7721596,42.1058156 C19.6093936,37.747426 15.6596064,33.2265948 11.9062021,28.5268026 C8.51098936,24.2000753 2.16311702,17.9212961 0.415031915,12.5841273 C-1.05369149,8.0041013 1.51726596,3.41030909 5.8238617,1.64960779 C11.9463085,-0.857223377 18.346734,4.58456883 23.0405638,8.78051688 C25.5354574,10.9831143 27.9183298,13.3219974 30.1698191,15.7806468" id="Fill-16" fill="#1B00EB" mask="url(#mask-4)"></path>
                    </g>
                    <path d="M43.1528085,89.0351818 C43.0228085,89.0351818 42.8955745,88.9718571 42.8222766,88.8548442 C32.7431277,73.2976234 20.8066383,58.9353117 7.34334043,46.1685065 C7.18568085,46.0184545 7.17876596,45.7706623 7.33089362,45.6137273 C7.47887234,45.4567922 7.73195745,45.4512857 7.88685106,45.599961 C21.3957872,58.4108182 33.372383,72.8213117 43.4833404,88.4308442 C43.6022766,88.6125584 43.5497234,88.8548442 43.3657872,88.9732338 C43.2994043,89.0145325 43.2261064,89.0351818 43.1528085,89.0351818" id="Fill-19" fill="#D9E8FF"></path>
                    <path d="M24.910766,77.1081169 C24.7309787,77.1081169 24.5691702,76.9855974 24.5262979,76.8038831 C24.4778936,76.5918831 24.6106596,76.3812597 24.8236383,76.3330779 C26.8787447,75.8636494 28.9767234,75.407987 31.0608723,74.9784805 C31.279383,74.9371818 31.4826809,75.0720909 31.5269362,75.2827143 C31.5711915,75.4947143 31.4342766,75.7025844 31.2199149,75.7466364 C29.1426809,76.1747662 27.0488511,76.6304286 24.9978936,77.0984805 C24.9688511,77.1053636 24.9398085,77.1081169 24.910766,77.1081169" id="Fill-21" fill="#D9E8FF"></path>
                    <path d="M34.6335213,73.1193506 C34.5726702,73.1193506 34.5118191,73.1055844 34.455117,73.0766753 C34.260117,72.9775584 34.1840532,72.7421558 34.2822447,72.5480519 C35.2461809,70.6634545 36.2045851,68.7361818 37.1311809,66.8212987 C37.2252234,66.6258182 37.4630957,66.5445974 37.6580957,66.6382078 C37.8530957,66.7318182 37.9360745,66.9672208 37.8406489,67.1613247 C36.9112872,69.0817143 35.9515,71.0144935 34.9847979,72.9045974 C34.9156489,73.0408831 34.7773511,73.1193506 34.6335213,73.1193506" id="Fill-23" fill="#D9E8FF"></path>
                    <path d="M19.8204362,70.8184623 C19.6461809,70.8184623 19.4871383,70.702826 19.440117,70.5279948 C19.3834149,70.3173714 19.507883,70.1026182 19.7194787,70.0461766 C21.7856489,69.4982805 23.8670319,68.9669039 25.9041596,68.4713195 C26.1129894,68.4176312 26.328734,68.549787 26.3812872,68.7590338 C26.4324574,68.9710338 26.3024574,69.1830338 26.0908617,69.2339688 C24.059266,69.7281766 21.9834149,70.2568 19.9213936,70.8046961 C19.8882021,70.8143325 19.8536277,70.8184623 19.8204362,70.8184623" id="Fill-25" fill="#D9E8FF"></path>
                    <path d="M29.3946596,66.4882935 C29.3393404,66.4882935 29.2826383,66.4759039 29.2287021,66.4511247 C29.0309362,66.3602675 28.9451915,66.1262416 29.0364681,65.930761 C29.9354043,64.0076182 30.8232766,62.0473065 31.6793404,60.1048909 C31.7664681,59.9066571 32.0001915,59.8171766 32.1979574,59.9039039 C32.3984894,59.9906312 32.488383,60.2219039 32.4012553,60.4215143 C31.5438085,62.3680597 30.6517872,64.3338779 29.7528511,66.2611506 C29.6850851,66.4043195 29.5426383,66.4882935 29.3946596,66.4882935" id="Fill-27" fill="#D9E8FF"></path>
                    <path d="M14.5073085,64.7131377 C14.3385851,64.7131377 14.1823085,64.6043844 14.1311383,64.4350597 C14.0675213,64.2271896 14.1850745,64.0083065 14.3925213,63.9449818 C16.4144362,63.3310078 18.4750745,62.7266701 20.519117,62.1526182 C20.7251809,62.0906701 20.9464574,62.2159429 21.0045426,62.4224364 C21.0640106,62.6316831 20.9423085,62.8491896 20.7320957,62.9070078 C18.6935851,63.4810597 16.6384787,64.0826442 14.6220957,64.6952416 C14.5847553,64.7076312 14.5446489,64.7131377 14.5073085,64.7131377" id="Fill-29" fill="#D9E8FF"></path>
                    <path d="M23.9208298,60.0461091 C23.8696596,60.0461091 23.8184894,60.0364727 23.7673191,60.0158234 C23.5667872,59.9304727 23.4727447,59.7005766 23.5571064,59.5009662 C24.3772128,57.5695636 25.1959362,55.5789662 25.9911489,53.5869922 C26.0713617,53.3846286 26.2981702,53.2868883 26.5028511,53.3653558 C26.7061489,53.4465766 26.8043404,53.6750961 26.7227447,53.8760831 C25.9261489,55.8749403 25.1046596,57.8696675 24.2845532,59.8065766 C24.2209362,59.9566286 24.0743404,60.0461091 23.9208298,60.0461091" id="Fill-31" fill="#D9E8FF"></path>
                    <path d="M8.9767766,58.7965481 C8.81358511,58.7965481 8.66007447,58.6946779 8.60337234,58.5322364 C8.5342234,58.3271195 8.64347872,58.1041065 8.84815957,58.0325221 C10.8603936,57.3428338 12.8989043,56.6682883 14.9083723,56.0254052 C15.1075213,55.9593273 15.3370957,56.0722104 15.4034787,56.2787039 C15.4698617,56.4851974 15.3564574,56.7054571 15.1490106,56.7729117 C13.1464574,57.4130416 11.1120957,58.0862104 9.10539362,58.7745221 C9.06252128,58.7896649 9.01964894,58.7965481 8.9767766,58.7965481" id="Fill-33" fill="#D9E8FF"></path>
                    <path d="M18.2186702,53.8009195 C18.1716489,53.8009195 18.1246277,53.7926597 18.0776064,53.7747636 C17.8756915,53.6976727 17.7733511,53.4719065 17.8494149,53.2681662 C18.5976064,51.313361 19.3430319,49.2952312 20.0690957,47.2702182 C20.1437766,47.0651013 20.3719681,46.9591013 20.5725,47.0320623 C20.7785638,47.1050234 20.8850532,47.329413 20.8117553,47.5331532 C20.0856915,49.5636727 19.3375,51.5873091 18.5879255,53.5476208 C18.5284574,53.7045558 18.3777128,53.8009195 18.2186702,53.8009195" id="Fill-35" fill="#D9E8FF"></path>
                    <path d="M29.7741489,83.5743922 C29.5874468,83.5743922 29.4228723,83.443613 29.3869149,83.2563922 C29.3454255,83.0430156 29.4864894,82.8365221 29.6994681,82.7966 C31.7919149,82.3973792 33.9051064,82.0160545 35.9823404,81.6650156 C36.207766,81.6319766 36.401383,81.7723922 36.4373404,81.9857688 C36.4746809,82.1991455 36.3294681,82.4028857 36.1151064,82.4386779 C34.0434043,82.7883403 31.9343617,83.1682883 29.8488298,83.5675091 C29.8225532,83.571639 29.7990426,83.5743922 29.7741489,83.5743922" id="Fill-37" fill="#D9E8FF"></path>
                    <path d="M39.6346489,79.9339117 C39.5696489,79.9339117 39.503266,79.9173922 39.4437979,79.8843532 C39.2543298,79.7797299 39.1851809,79.5401974 39.2902872,79.3516 C40.3219894,77.4959117 41.3481596,75.6044312 42.3411383,73.7280935 C42.4420957,73.5353662 42.682734,73.4637818 42.8735851,73.5628987 C43.0658191,73.6647688 43.139117,73.9015481 43.0381596,74.0928987 C42.0437979,75.9747429 41.0148617,77.8717299 39.9790106,79.7315481 C39.9070957,79.8609506 39.7729468,79.9339117 39.6346489,79.9339117" id="Fill-39" fill="#D9E8FF"></path>
                    <path d="M35.8598085,89.3384519 C35.6675745,89.3384519 35.4988511,89.199413 35.4698085,89.0053091 C35.436617,88.7905558 35.5859787,88.5909455 35.8003404,88.5579065 C37.255234,88.3376468 38.7128936,88.1284 40.1747021,87.9301662 C40.3835319,87.8971273 40.5882128,88.0513091 40.6172553,88.2660623 C40.6476809,88.4808156 40.4969362,88.6790494 40.2798085,88.7079584 C38.8235319,88.9061922 37.3686383,89.1140623 35.9192766,89.3343221 C35.8985319,89.3370753 35.8791702,89.3384519 35.8598085,89.3384519" id="Fill-41" fill="#D9E8FF"></path>
                    <path d="M43.8915957,86.3175896 C43.8224468,86.3175896 43.7519149,86.2996935 43.6896809,86.2611481 C43.5029787,86.1510182 43.4421277,85.9101091 43.552766,85.7242649 C44.3410638,84.4095896 45.1210638,83.0866545 45.89,81.7568364 C45.9978723,81.5668623 46.2398936,81.502161 46.4293617,81.6122909 C46.6174468,81.7196675 46.6824468,81.9592 46.5731915,82.1477974 C45.8014894,83.4817455 45.0187234,84.8088104 44.2304255,86.126239 C44.1557447,86.2487584 44.0257447,86.3175896 43.8915957,86.3175896" id="Fill-43" fill="#D9E8FF"></path>
                    <path d="M5.01288298,52.4384753 C4.85384043,52.4384753 4.70309574,52.3421117 4.64362766,52.1838 C4.56756383,51.9814364 4.66990426,51.7556701 4.87320213,51.6785792 C6.25064894,51.1623455 7.63362766,50.6543714 9.01937234,50.1560338 C9.22543617,50.0830727 9.4508617,50.1890727 9.52554255,50.392813 C9.59745745,50.5965532 9.49235106,50.8209429 9.28767021,50.8939039 C7.90330851,51.3908649 6.5258617,51.8974623 5.15256383,52.4123195 C5.10554255,52.4302156 5.05852128,52.4384753 5.01288298,52.4384753" id="Fill-45" fill="#D9E8FF"></path>
                    <path d="M12.234383,47.8159117 C12.1928936,47.8159117 12.1486383,47.8090286 12.1071489,47.7952623 C11.9010851,47.7250545 11.7918298,47.5020416 11.8609787,47.2969247 C12.3560851,45.8473403 12.8415106,44.3922494 13.3144894,42.9302753 C13.3822553,42.7237818 13.6049149,42.6108987 13.8123617,42.6769766 C14.0184255,42.7430545 14.1318298,42.9646909 14.0654468,43.1698078 C13.5897021,44.6359117 13.1042766,46.0965091 12.6077872,47.5502234 C12.5510851,47.7126649 12.3989574,47.8159117 12.234383,47.8159117" id="Fill-47" fill="#D9E8FF"></path>
                    <path d="M21.9679255,103.881652 C21.9928191,103.328249 22.0273936,102.774847 22.0813298,102.222821 C22.6981383,95.9495481 25.7462234,89.3403792 31.5962234,86.9285351 C37.8998404,84.3280935 45.0664362,87.3786909 50.8265426,91.0171065 C54.3545213,93.2458597 58.4218617,95.8325351 62.3937766,94.5453922 C66.5122872,93.2086909 68.2119681,88.4813662 69.7526064,84.450613 C72.1299468,78.2282753 75.8985638,71.8930545 82.1468617,69.5183792 C87.8364362,67.3557039 94.5272872,69.1067688 99.2529255,72.9324052 C103.978564,76.7566649 106.947819,82.3719117 108.737394,88.1661195 C110.228245,92.9953143 110.984734,98.0282494 112.555798,102.831288 C112.670585,103.182327 112.792287,103.53199 112.918138,103.881652 L21.9679255,103.881652 Z" id="Fill-49" fill="#FF99EC"></path>
                    <polygon id="Fill-51" fill="#FCD4CB" points="40.5259787 77.1363377 41.289383 80.794026 45.3304468 79.9584156 44.5656596 76.3007273"></polygon>
                    <path d="M41.6132766,86.8244623 L40.155617,87.1259429 L38.7505106,80.3887481 C38.9399787,80.2689818 39.1308298,80.1505922 39.3216809,80.0322026 C39.1073191,80.0322026 38.8901915,80.0322026 38.6758298,80.0322026 L38.1738085,77.6231117 L40.5262553,77.135787 L41.2896596,80.7948519 L41.6132766,86.8244623 Z" id="Fill-53" fill="#887BF1"></path>
                    <polygon id="Fill-55" fill="#FCD4CB" points="67.4940638 101.301171 71.2474681 101.381016 71.3345957 97.2745481 67.5811915 97.1947039"></polygon>
                    <path d="M77.2222128,102.41899 L77.1917872,103.900236 L70.2782766,103.752938 C70.2063617,103.540938 70.1330638,103.330314 70.058383,103.119691 C70.0099787,103.327561 69.9629574,103.536808 69.9145532,103.744678 L67.4431702,103.692366 L67.4943404,101.301171 L71.2477447,101.381016 L77.2222128,102.41899 Z" id="Fill-57" fill="#6654F1"></path>
                    <path d="M70.2127234,77.9603844 L70.8433617,77.9948 C72.7988936,78.0994234 74.4695319,76.605787 74.5746383,74.6592416 L76.2314468,53.3972935 C76.3365532,51.4507481 74.1237872,53.5542286 72.1682553,53.4509818 L71.537617,53.4165662 C69.5820851,53.3119429 67.9114468,54.8055792 67.8063404,56.7521247 L66.861766,74.2462545 C66.7566596,76.1928 68.2571915,77.855761 70.2127234,77.9603844" id="Fill-59" fill="#6654F1"></path>
                    <polygon id="Fill-61" fill="#6654F1" points="66.6270745 97.6499532 72.2889894 97.9528104 74.5750532 74.6589662 67.3005851 74.5075377"></polygon>
                    <path d="M60.5953511,51.4510234 L76.2313085,51.4510234 L76.2313085,32.9051532 C76.2313085,31.0591013 74.8151383,30.051413 73.2330106,29.4525818 C72.4142872,29.1428416 71.5582234,28.9459844 70.7159894,28.7092052 C70.2997128,28.5935688 68.7480106,27.8295429 68.4133298,27.9493091 L67.0815213,28.428374 C65.926734,28.8441143 64.7719468,29.1882701 63.5895,29.5186597 C61.9437553,29.9812052 60.5953511,31.0728675 60.5953511,32.9051532 L60.5953511,51.4510234 Z" id="Fill-63" fill="#1B00EB"></path>
                    <path d="M64.5039255,57.2874935 L72.3219043,57.2874935 C74.480734,57.2874935 76.2302021,55.5460649 76.2302021,53.3971558 L76.2302021,51.4506104 L60.5956277,51.4506104 L60.5956277,53.3971558 C60.5956277,55.5460649 62.3450957,57.2874935 64.5039255,57.2874935" id="Fill-65" fill="#887BF1"></path>
                    <path d="M64.2352128,77.1531325 L64.867234,77.1531325 C66.8255319,77.1531325 68.4131915,75.5727688 68.4131915,73.6234701 L68.4131915,56.104561 C68.4131915,54.1538857 66.8255319,52.5748987 64.867234,52.5748987 L64.2352128,52.5748987 C62.2769149,52.5748987 60.5952128,51.4474442 60.5952128,53.3967429 L60.6892553,73.6234701 C60.6892553,75.5727688 62.2769149,77.1531325 64.2352128,77.1531325" id="Fill-67" fill="#887BF1"></path>
                    <polygon id="Fill-69" fill="#887BF1" points="42.9313936 75.7079532 44.0847979 81.2337195 64.9912872 77.1024727 66.0022447 70.9365766"></polygon>
                    <path d="M68.6528617,30.2296857 L68.6528617,30.2296857 C69.5061596,30.1346987 70.1215851,29.3679195 70.0261596,28.5171662 L69.6292447,24.9847506 L66.5355213,25.3289065 L66.9324362,28.8613221 C67.0278617,29.7134519 67.7981809,30.3246727 68.6528617,30.2296857" id="Fill-71" fill="#FCD4CB"></path>
                    <path d="M66.439266,24.4818701 L69.5329894,24.1377143 L69.9783085,28.0831169 C68.5718191,28.0115325 67.1183085,27.136 66.6965,25.8295844 C66.5996915,25.5336104 66.5346915,25.228 66.4890532,24.9168831 L66.439266,24.4818701 Z" id="Fill-73" fill="#FC957E"></path>
                    <path d="M70.5476809,27.0663429 C70.7883191,26.9754857 71.0109787,26.8419532 71.2032128,26.6547325 C71.8200213,26.0531481 72.0260851,25.110161 72.0302421,24.2786805 C72.033,23.8395377 71.3262979,17.8154338 71.3332128,17.8140571 L65.1914043,18.498239 C65.3158723,19.6022909 65.4403404,20.7063429 65.5634255,21.8117714 C65.6809787,22.8621351 65.6464043,23.9840831 65.9755532,24.9972779 C66.5328936,26.7194338 68.8784255,27.6940831 70.5476809,27.0663429" id="Fill-75" fill="#FCD4CB"></path>
                    <path d="M70.3965213,23.8015429 C70.3660957,23.8015429 70.3370532,23.7808935 70.3301383,23.7492312 L70.2485426,23.4174649 C70.2430106,23.3981922 70.2471596,23.3761662 70.2582234,23.3610234 C70.2706702,23.3431273 70.2900319,23.3334909 70.3107766,23.3321143 L70.807266,23.3059584 L69.962266,21.889413 C69.9429043,21.8577506 69.9539681,21.8150753 69.9857766,21.7958026 C70.0175851,21.7765299 70.0604574,21.7875429 70.0798191,21.8205818 L70.9842872,23.3321143 C70.996734,23.3527636 70.996734,23.3775429 70.9856702,23.3995688 C70.9746064,23.4202182 70.9524787,23.4339844 70.9289681,23.435361 L70.4006702,23.4642701 L70.4629043,23.7161922 C70.4725851,23.753361 70.4490745,23.7905299 70.413117,23.8001662 C70.4075851,23.8015429 70.4020532,23.8015429 70.3965213,23.8015429" id="Fill-77" fill="#FC957E"></path>
                    <path d="M71.3782979,23.7653377 C71.306383,24.2801948 70.8818085,24.7041948 70.3244681,24.7661429 C69.7671277,24.8280909 69.2595745,24.5087143 69.0742553,24.0227662 L71.3782979,23.7653377 Z" id="Fill-79" fill="#FFFFFF"></path>
                    <path d="M68.6650319,18.9873532 C69.3648191,19.0410416 70.1379043,19.3893273 70.6634362,19.5228597 C72.2635426,19.9262104 73.7295,19.0369117 74.2951383,17.5198727 C74.7086489,16.4103143 74.3546064,14.9662364 73.2924787,14.4403662 C72.5193936,14.0576649 71.5762021,14.2283662 70.7962021,14.5973013 C70.0175851,14.9648597 69.3357766,15.5113792 68.5779043,15.9188597 C67.8947128,16.2836649 67.1465213,16.5066779 66.3706702,16.3979247 C65.7524787,16.3098208 65.2698191,16.0923143 64.6295,16.356626 C63.8619468,16.6718727 63.391734,17.5721844 63.5687553,18.3788857 C63.7042872,18.9901065 64.1620532,19.6137169 63.8979043,20.1822623 C63.7291809,20.5470675 63.3115213,20.7384182 63.1109894,21.0880805 C62.4264149,22.2884961 63.976734,22.2114052 64.502266,22.6147558 C65.0706702,23.0525221 64.7456702,23.8371974 65.0388617,24.3919766 C65.1730106,24.6438987 65.3915213,24.7967039 65.6293936,24.8545221 C66.1092872,24.9701584 66.6693936,24.7030935 66.7675851,24.105639 C66.836734,23.6926519 66.6306702,23.2906779 66.4785426,22.9010935 C66.3250319,22.5115091 66.2296064,22.0351974 66.4826915,21.7020545 C66.6638617,21.4625221 66.9819468,21.3551455 67.1465213,21.1059766 C67.5157766,20.552574 67.0676915,19.7734052 67.5724787,19.3012234 C68.1491809,18.761587 68.7480106,19.0121325 69.3855638,19.1608078 C70.1697128,19.3452753 71.0077979,19.2323922 71.6591809,18.7368078" id="Fill-81" fill="#6654F1"></path>
                    <path d="M122.686255,73.7659506 C122.470511,73.7659506 122.294872,73.5938727 122.292106,73.3777429 L122.163489,62.6634831 C122.160723,62.4473532 122.334979,62.2683922 122.553489,62.265639 L122.557638,62.265639 C122.773383,62.265639 122.949021,62.4390935 122.951787,62.6538468 L123.080404,73.3681065 C123.08317,73.585613 122.908915,73.7631974 122.690404,73.7659506 L122.686255,73.7659506 Z" id="Fill-83" fill="#D9E8FF"></path>
                    <path d="M124.382617,78.0095299 L121.102191,78.0481162 C120.79517,78.0522052 120.583574,77.7424649 120.701128,77.4602571 L122.294319,73.5905688 C122.438149,73.2422831 122.931872,73.2367766 123.084,73.5809325 L124.769851,77.4120753 C124.894319,77.6915299 124.691021,78.0067766 124.382617,78.0095299" id="Fill-85" fill="#310F57"></path>
                    <polygon id="Fill-87" fill="#310F57" points="84.5044255 67.0536727 70.6013404 57.0552571 79.1993191 38.8824519 93.1010213 48.8808675"></polygon>
                    <polygon id="Fill-89" fill="#310F57" points="84.5044255 67.0536727 101.102936 71.3528675 109.700915 53.1786857 93.1010213 48.8808675"></polygon>
                    <polygon id="Fill-91" fill="#2B0D4D" points="97.0526064 40.5301325 62.2651596 34.3793792 90.3921809 54.6088597 123.975053 63.3063662"></polygon>
                    <polygon id="Fill-93" fill="#FCD4CB" points="79.0359894 48.7831273 78.0333298 50.7682182 65.9184362 45.7449195 67.035883 42.1918545"></polygon>
                    <path d="M77.7975319,50.6618052 C77.7491277,50.7567922 78.3687021,51.345987 78.4489149,51.4189481 C78.8375319,51.7796234 79.3423191,51.9971299 79.8540213,52.1168961 C80.5745532,52.2834675 81.3822128,52.3371558 82.1151915,52.238039 C82.4858298,52.1884805 82.8495532,52.1003766 83.1994468,51.970974 C83.380617,51.9021429 83.5576383,51.8250519 83.7277447,51.7341948 C83.7305106,51.7341948 83.7318936,51.7328182 83.7332766,51.7328182 C83.9476383,51.6185584 83.968383,51.3184545 83.7830638,51.1601429 C83.6931702,51.0830519 83.6171064,51.0155974 83.5922128,50.9977013 C83.2699787,50.754039 82.9574255,50.509 82.6130638,50.2983766 C81.5868936,49.6678831 80.2481702,48.4385584 78.9467872,48.7345325 C78.4475319,49.6086883 78.2967872,49.7876494 77.7975319,50.6618052" id="Fill-95" fill="#FCD4CB"></path>
                    <path d="M67.5008404,41.1854052 L64.1070106,42.1820805 L64.6989255,44.0570416 C64.9755213,45.155587 65.5259468,46.0077169 66.6295638,45.7323922 L66.9863723,45.6429117 C68.0913723,45.367587 68.1715851,44.3571455 67.8949894,43.2586 L67.5008404,41.1854052 Z" id="Fill-97" fill="#FCD4CB"></path>
                    <path d="M115.798468,73.2356753 C115.560596,73.014039 115.18166,73.0360649 114.952085,73.2893636 C111.827936,76.7185325 108.801979,80.2578312 105.881128,83.9031299 C104.997404,81.3398571 104.157936,78.7449221 103.36134,76.1197013 C103.264532,75.7948182 102.927085,75.6378831 102.606234,75.7631558 C102.285383,75.8898052 102.106979,76.2546104 102.20517,76.5767403 C103.079213,79.4318571 104.005809,82.2511818 104.983574,85.031961 C103.16634,87.3295455 101.391979,89.6684286 99.6604894,92.0472338 C98.6661277,89.517 97.7132553,86.9537273 96.8046383,84.3574156 C96.694,84.038039 96.3482553,83.8948701 96.0329362,84.0366623 C95.716234,84.1784545 95.5530426,84.5542727 95.6664468,84.8722727 C96.6649574,87.6943506 97.7132553,90.4778831 98.8099574,93.2228701 C97.0922979,95.6154416 95.4175106,98.0479351 93.7869787,100.518974 C92.6833617,98.0259091 91.621234,95.4984286 90.5992128,92.9351558 C90.4733617,92.6212857 90.1234681,92.4932597 89.8150638,92.6515714 C89.5052766,92.8085065 89.3572979,93.1912078 89.4845319,93.5064545 C90.6033617,96.2927403 91.7719787,99.0377273 92.987617,101.741416 C92.5257021,102.450377 92.0693191,103.164844 91.6157021,103.882065 L93.0138936,103.882065 C93.3305957,103.386481 93.6459149,102.892273 93.966766,102.400818 C96.8807021,102.488922 99.7863404,102.619701 102.682298,102.789026 C103.008681,102.806922 103.293574,102.555 103.322617,102.22461 C103.348894,101.894221 103.108255,101.606506 102.780489,101.587234 C100.115489,101.419286 97.4435745,101.285753 94.7619787,101.18526 C96.3842128,98.7252338 98.0493191,96.3051299 99.7586809,93.9249481 C102.662936,94.1520909 105.556128,94.4191558 108.438255,94.7247662 C108.761872,94.7591818 109.05783,94.5224026 109.099319,94.1947662 C109.142191,93.8671299 108.912617,93.5711558 108.586234,93.5353636 C105.936447,93.2421429 103.274213,92.981961 100.605064,92.7548182 C102.326872,90.387026 104.092936,88.0605325 105.899106,85.773961 C108.786766,86.1387662 111.661979,86.5421169 114.523362,86.9826364 C114.846979,87.0308182 115.149851,86.8105584 115.20517,86.4870519 C115.260489,86.1635455 115.046128,85.8565584 114.722511,85.807 C112.090702,85.3898831 109.446447,85.0044286 106.792511,84.652013 C109.698149,81.0246104 112.708894,77.5032078 115.815064,74.0919351 C116.043255,73.840013 116.03634,73.4573117 115.798468,73.2356753" id="Fill-99" fill="#887BF1"></path>
                    <path d="M97.9858404,82.0088961 C99.1461596,82.9601429 99.2858404,84.758013 98.3122234,86.0465325 C97.3386064,87.3336753 95.5960532,87.6544286 94.4080745,86.7375974 C93.2200957,85.8221429 93.0569043,83.9884805 94.0581809,82.6655455 C95.0608404,81.3426104 96.8255213,81.059026 97.9858404,82.0088961" id="Fill-101" fill="#1B00EB"></path>
                    <path d="M110.346213,91.8550571 C111.525894,92.7773948 111.737489,94.4830312 110.830255,95.6875766 C109.921638,96.8893688 108.219191,97.1633169 107.011851,96.2753948 C105.805894,95.3888494 105.573553,93.6474208 106.508447,92.4098364 C107.441957,91.1694987 109.166532,90.9327195 110.346213,91.8550571" id="Fill-103" fill="#1B00EB"></path>
                    <path d="M100.869213,78.3737844 C99.7241064,77.4060182 99.6383617,75.5751091 100.69634,74.3058623 C101.752936,73.0366156 103.524532,72.8383818 104.641979,73.839187 C105.758043,74.8413688 105.82166,76.6351091 104.794106,77.8713169 C103.767936,79.1061481 102.014319,79.3429273 100.869213,78.3737844" id="Fill-105" fill="#1B00EB"></path>
                    <path d="M116.549287,84.2197532 C117.686096,85.193026 117.824394,86.8986623 116.867372,88.0536494 C115.911734,89.2058831 114.199606,89.3958571 113.033755,88.457 C111.867904,87.5181429 111.713011,85.7753377 112.696309,84.5886883 C113.682372,83.402039 115.411096,83.2451039 116.549287,84.2197532" id="Fill-107" fill="#1B00EB"></path>
                    <path d="M91.6800106,90.522761 C92.8818191,91.4216961 93.0989468,93.2195662 92.1806489,94.5590208 C91.2609681,95.8984753 89.5336277,96.3032026 88.3055426,95.4400597 C87.0774574,94.5769169 86.8354362,92.7432545 87.7813936,91.3680078 C88.7245851,89.992761 90.4782021,89.6252026 91.6800106,90.522761" id="Fill-109" fill="#1B00EB"></path>
                    <path d="M104.468553,99.8156571 C105.68834,100.685683 105.971851,102.388566 105.11717,103.641294 C104.261106,104.892644 102.56834,105.247813 101.322277,104.414956 C100.076213,103.579345 99.7719574,101.8448 100.651532,100.556281 C101.533872,99.267761 103.247383,98.9470078 104.468553,99.8156571" id="Fill-111" fill="#1B00EB"></path>
                    <path d="M117.319191,71.5060857 C118.400681,72.5413065 118.425574,74.2882416 117.385574,75.4322156 C116.345574,76.5720597 114.609936,76.702839 113.496638,75.6979039 C112.386106,74.6943455 112.341851,72.9102416 113.412277,71.7373584 C114.482702,70.5630987 116.237702,70.4708649 117.319191,71.5060857" id="Fill-113" fill="#1B00EB"></path>
                </g>
            </g>
        </g>
    </g>
</svg>