<?xml version="1.0" encoding="UTF-8"?>
<svg width="129px" height="117px" viewBox="0 0 129 117" version="1.1" xmlns="http://www.w3.org/2000/svg" xmlns:xlink="http://www.w3.org/1999/xlink">
    <!-- Generator: Sketch 55.2 (78181) - https://sketchapp.com -->
    <title>Group 108</title>
    <desc>Created with Sketch.</desc>
    <defs>
        <polygon id="path-1" points="0.289470485 0.890363636 120.684722 0.890363636 120.684722 113.222323 0.289470485 113.222323"></polygon>
        <polygon id="path-3" points="0 0.978284323 52.8460899 0.978284323 52.8460899 64.2320309 0 64.2320309"></polygon>
        <polygon id="path-5" points="0 117.109943 128.912588 117.109943 128.912588 1.53277403 0 1.53277403"></polygon>
    </defs>
    <g id="Marshmello_landing-page" stroke="none" stroke-width="1" fill="none" fill-rule="evenodd">
        <g id="Simple_landngpage" transform="translate(-595.000000, -2559.000000)">
            <g id="Group-9" transform="translate(530.000000, 2489.000000)">
                <g id="Group-108" transform="translate(65.000000, 69.000000)">
                    <g id="Group-3" transform="translate(7.647059, 0.642410)">
                        <mask id="mask-2" fill="white">
                            <use xlink:href="#path-1"></use>
                        </mask>
                        <g id="Clip-2"></g>
                        <path d="M119.120224,68.8436519 C118.909165,68.204613 118.675165,67.5747688 118.416694,66.9571844 C116.029282,61.2318857 112.442812,56.0919896 109.741871,50.5092104 C103.816929,38.2617299 108.285871,24.518561 100.235047,12.7262234 C92.7424588,1.74609351 79.6506941,-2.0436987 67.4536353,3.25863896 C50.3685765,10.6865091 39.2191647,27.1590026 22.7122235,35.3653662 C16.5869294,38.4103792 9.80092941,40.8424052 5.42681176,46.1048987 C1.65375294,50.6440675 0.213047059,56.7662753 0.292576471,62.6724052 C0.552576471,82.2374182 15.1508118,110.998769 38.6869294,106.822795 C50.8044588,104.672743 58.6166941,100.208665 70.8122235,105.840483 C77.1806941,108.782821 83.4084588,112.621652 90.4009294,113.159548 C97.2894,113.691314 104.203871,110.802613 109.264694,106.090275 C118.8694,97.1452623 123.275635,81.3761714 119.120224,68.8436519" id="Fill-1" fill="#FF99EC" mask="url(#mask-2)"></path>
                    </g>
                    <g id="Group-6" transform="translate(0.000000, 51.213839)">
                        <mask id="mask-4" fill="white">
                            <use xlink:href="#path-3"></use>
                        </mask>
                        <g id="Clip-5"></g>
                        <path d="M31.1938824,16.5825247 C36.5437647,22.5729403 41.1564706,29.2299792 44.8637647,36.2931221 C47.6824706,40.9794078 57.3101176,59.9912 50.3971765,63.7610701 C43.3190588,67.5125506 28.4424706,47.7345247 24.3069412,43.9692519 C20.0398824,39.3841091 15.9915294,34.6303948 12.1496471,29.6943169 C8.67635294,25.1490182 2.16258824,18.5379532 0.405294118,12.9567065 C-1.07211765,8.16774545 1.638,3.40177143 6.11458824,1.60878442 C12.4830588,-0.944306494 19.0564706,4.79325195 23.8787059,9.21288831 C26.442,11.5345766 28.886,13.9972519 31.1938824,16.5825247" id="Fill-4" fill="#1B00EB" mask="url(#mask-4)"></path>
                    </g>
                    <path d="M44.2940588,105.296917 C44.1564118,105.296917 44.0248824,105.229488 43.9468824,105.106891 C33.6615882,88.7876442 21.4385294,73.6943714 7.61876471,60.2485013 C7.45664706,60.0906571 7.45205882,59.8316701 7.61111765,59.670761 C7.76711765,59.5052545 8.02558824,59.5021896 8.18923529,59.6615662 C22.0548824,73.1518779 34.3177059,88.2941896 44.6381765,104.670138 C44.759,104.861696 44.7008824,105.114553 44.5112353,105.234086 C44.4439412,105.276995 44.3674706,105.296917 44.2940588,105.296917" id="Fill-7" fill="#D9E8FF"></path>
                    <path d="M25.5139529,92.6810312 C25.3258353,92.6810312 25.1576,92.5507714 25.1147765,92.3607455 C25.0658353,92.1385377 25.2065412,91.9209273 25.4267765,91.8734208 C27.5863059,91.3983558 29.7657176,90.943213 31.9023059,90.5217844 C32.1240706,90.4742779 32.3397176,90.6213948 32.3825412,90.8436026 C32.4268941,91.0642779 32.2831294,91.2803558 32.0598353,91.3232649 C29.9308941,91.746226 27.7576,92.1998364 25.6011294,92.6718364 C25.5720706,92.6779662 25.5430118,92.6810312 25.5139529,92.6810312" id="Fill-9" fill="#D9E8FF"></path>
                    <path d="M35.6253529,88.6178468 C35.5611176,88.6178468 35.4968824,88.6040545 35.4372353,88.5734052 C35.2368824,88.4676649 35.1573529,88.2209377 35.2628824,88.0201844 C36.2845294,86.0524961 37.2954706,84.052626 38.2697059,82.0757429 C38.3706471,81.8734571 38.6168824,81.7937688 38.8172353,81.8903143 C39.0206471,81.9914571 39.1017059,82.2366519 39.0022941,82.4389377 C38.025,84.4219506 37.011,86.4248857 35.9862941,88.3971714 C35.9144118,88.5381584 35.7721765,88.6178468 35.6253529,88.6178468" id="Fill-11" fill="#D9E8FF"></path>
                    <path d="M20.3027882,86.0737974 C20.1207882,86.0737974 19.9540824,85.9527325 19.9066706,85.7673039 C19.8516118,85.548161 19.9831412,85.3259532 20.2018471,85.2692519 C22.3185529,84.722161 24.4796118,84.1903948 26.6253765,83.686213 C26.8440824,83.6325766 27.0643176,83.7720312 27.1163176,83.9927065 C27.1667882,84.2118494 27.0306706,84.4325247 26.8119647,84.4830961 C24.6723176,84.9857455 22.5173765,85.5159792 20.4037294,86.0615377 C20.3700824,86.0707325 20.3349059,86.0737974 20.3027882,86.0737974" id="Fill-13" fill="#D9E8FF"></path>
                    <path d="M30.2633882,81.6514026 C30.2052706,81.6514026 30.1440941,81.6391429 30.0875059,81.6130909 C29.8840941,81.515013 29.7969176,81.2713506 29.8948,81.066 C30.8491529,79.0584675 31.7882118,77.0233506 32.6890353,75.0204156 C32.7808,74.8150649 33.0300941,74.7215844 33.2273882,74.8150649 C33.4353882,74.9085455 33.5271529,75.1491429 33.4338588,75.356026 C32.5315059,77.3650909 31.5893882,79.4048052 30.6319765,81.42 C30.5616235,81.5655844 30.4163294,81.6514026 30.2633882,81.6514026" id="Fill-15" fill="#D9E8FF"></path>
                    <path d="M14.8603765,79.6550571 C14.6844941,79.6550571 14.5208471,79.5401221 14.4688471,79.3623558 C14.4046118,79.1462779 14.5284941,78.9194727 14.7456706,78.8551091 C16.8639059,78.2267974 19.0035529,77.6184078 21.1080235,77.0437325 C21.3267294,76.9870312 21.5484941,77.114226 21.6096706,77.3303039 C21.6677882,77.5494468 21.5393176,77.773187 21.3236706,77.8344857 C19.2253176,78.4060961 17.0902588,79.0129532 14.9766118,79.6382 C14.9383765,79.6504597 14.8986118,79.6550571 14.8603765,79.6550571" id="Fill-17" fill="#D9E8FF"></path>
                    <path d="M24.6565647,74.8811143 C24.6030353,74.8811143 24.5479765,74.870387 24.4959765,74.8489325 C24.2879765,74.7585169 24.1916235,74.5179195 24.2818588,74.3095039 C25.1566824,72.2881792 26.0253882,70.2193481 26.8604471,68.1658416 C26.9460941,67.9558935 27.1846824,67.8562831 27.3942118,67.9421013 C27.6022118,68.026387 27.7016235,68.2654519 27.6175059,68.4738675 C26.7778588,70.5350364 25.9091529,72.6069325 25.0312706,74.6359195 C24.9639765,74.7891662 24.8156235,74.8811143 24.6565647,74.8811143" id="Fill-19" fill="#D9E8FF"></path>
                    <path d="M9.18916471,73.4324727 C9.0194,73.4324727 8.85881176,73.3236675 8.80222353,73.1520312 C8.73034118,72.9374857 8.84504706,72.7045506 9.06069412,72.6340571 C11.1804588,71.9260571 13.3002235,71.2410442 15.3572824,70.6004727 C15.5759882,70.5315117 15.8023412,70.6556416 15.8681059,70.870187 C15.9354,71.0862649 15.8161059,71.3146026 15.5989294,71.3820312 C13.5464588,72.0210701 11.4328118,72.7030182 9.31916471,73.4094857 C9.27787059,73.4248104 9.23198824,73.4324727 9.18916471,73.4324727" id="Fill-21" fill="#D9E8FF"></path>
                    <path d="M18.8122235,68.3141844 C18.7632824,68.3141844 18.7128118,68.3034571 18.6638706,68.2850675 C18.4558706,68.2038468 18.3503412,67.9647818 18.4329294,67.7548338 C19.2419882,65.6798727 20.0357529,63.5834571 20.7897529,61.5222883 C20.8662235,61.3108078 21.1032824,61.2020026 21.3128118,61.278626 C21.5254,61.3567818 21.6339882,61.5912494 21.5559882,61.8042623 C20.8004588,63.871561 20.0036353,65.9741065 19.1930471,68.0536649 C19.1303412,68.2161065 18.9758706,68.3141844 18.8122235,68.3141844" id="Fill-23" fill="#D9E8FF"></path>
                    <path d="M30.4874471,99.4709351 C30.2947412,99.4709351 30.1234471,99.333013 30.0852118,99.1353247 C30.0469765,98.9131169 30.1938,98.7001039 30.4155647,98.6602597 C32.5903882,98.2633506 34.7835647,97.8878961 36.9354471,97.5415584 C37.1648588,97.5155065 37.3682706,97.6564935 37.4019176,97.8817662 C37.4401529,98.103974 37.2872118,98.3139221 37.0654471,98.3507013 C34.9181529,98.693974 32.7310941,99.0694286 30.5623882,99.4648052 C30.5363882,99.4694026 30.5134471,99.4709351 30.4874471,99.4709351" id="Fill-25" fill="#D9E8FF"></path>
                    <path d="M40.7363412,95.7729377 C40.6690471,95.7729377 40.6002235,95.7560805 40.5359882,95.7208338 C40.3402235,95.6104961 40.2698706,95.3591714 40.3830471,95.1630156 C41.4689294,93.2428338 42.5502235,91.2782104 43.5978706,89.3273792 C43.7034,89.1296909 43.9542235,89.0561325 44.1499882,89.1618727 C44.3488118,89.2691455 44.4237529,89.5174052 44.3166941,89.716626 C43.2659882,91.6705221 42.1801059,93.6397429 41.0926941,95.5660545 C41.0177529,95.6993792 40.8801059,95.7729377 40.7363412,95.7729377" id="Fill-27" fill="#D9E8FF"></path>
                    <path d="M36.7350941,105.540886 C36.5347412,105.540886 36.3603882,105.393769 36.3313294,105.189951 C36.2992118,104.96621 36.4552118,104.757795 36.6785059,104.727145 C38.1865059,104.5126 39.6975647,104.308782 41.2147412,104.115691 C41.4334471,104.071249 41.6414471,104.244418 41.6720353,104.469691 C41.6995647,104.693431 41.5420353,104.898782 41.3172118,104.927899 C39.8061529,105.12099 38.2966235,105.323275 36.7932118,105.537821 C36.7733294,105.540886 36.7549765,105.540886 36.7350941,105.540886" id="Fill-29" fill="#D9E8FF"></path>
                    <path d="M45.0841529,102.469974 C45.0107412,102.469974 44.9388588,102.451584 44.8715647,102.410208 C44.6788588,102.29374 44.6192118,102.042416 44.7354471,101.849325 C45.5643882,100.485429 46.3872118,99.1154026 47.1962706,97.7331169 C47.3109765,97.5384935 47.5587412,97.4741299 47.7560353,97.5875325 C47.9502706,97.704 48.0145059,97.9537922 47.8998,98.1499481 C47.0876824,99.5337662 46.2648588,100.906857 45.4343882,102.273818 C45.3563882,102.401013 45.2218,102.469974 45.0841529,102.469974" id="Fill-31" fill="#D9E8FF"></path>
                    <path d="M5.14769412,66.7622545 C4.98098824,66.7622545 4.82498824,66.6611117 4.76228235,66.4940727 C4.68581176,66.2825922 4.7944,66.0465922 5.00545882,65.9684364 C6.43698824,65.4458649 7.87310588,64.9278909 9.31687059,64.4237091 C9.5264,64.3440208 9.76345882,64.4604883 9.83534118,64.6750338 C9.91028235,64.8865143 9.79710588,65.1209818 9.58451765,65.1960727 C8.14687059,65.7002545 6.71228235,66.2151636 5.2884,66.7377351 C5.24098824,66.7545922 5.19357647,66.7622545 5.14769412,66.7622545" id="Fill-33" fill="#D9E8FF"></path>
                    <path d="M12.6737765,62.0152831 C12.6294235,62.0152831 12.5820118,62.0076208 12.5376588,61.9907636 C12.3250706,61.9172052 12.2134235,61.6827377 12.2883647,61.4712571 C12.8160118,59.9633091 13.3314235,58.4492312 13.8361294,56.9305558 C13.9095412,56.7175429 14.1389529,56.5995429 14.3530706,56.6731013 C14.5671882,56.7435948 14.6818941,56.9749974 14.6130706,57.1910753 C14.1053059,58.7128156 13.5868353,60.2299584 13.0591882,61.739439 C13.0010706,61.9095429 12.8420118,62.0152831 12.6737765,62.0152831" id="Fill-35" fill="#D9E8FF"></path>
                    <path d="M0.905870588,115.177195 C0.939517647,114.394104 0.989988235,113.611013 1.06492941,112.82639 C1.93363529,103.93961 6.22669412,94.5777662 14.4579882,91.1572987 C23.3285765,87.4747792 33.4165765,91.7963377 41.5239882,96.9515584 C46.4884588,100.109974 52.2130471,103.775636 57.8030471,101.948935 C63.5995176,100.05787 65.9930471,93.3594545 68.1602235,87.6494805 C71.5050471,78.8331948 76.8090471,69.8575325 85.6031647,66.4922338 C93.6126941,63.4288312 103.027753,65.9098961 109.679165,71.3287013 C116.330576,76.749039 120.510459,84.7025455 123.030929,92.9135065 C125.129282,99.7544416 126.193753,106.885013 128.403753,113.690701 C128.565871,114.187221 128.735635,114.68374 128.911518,115.177195 L0.905870588,115.177195 Z" id="Fill-37" fill="#FF99EC"></path>
                    <path d="M116.613976,78.4384312 C116.366212,78.2100935 115.974682,78.2361455 115.737624,78.5027948 C112.533506,82.1071584 109.433388,85.8249247 106.440329,89.6514961 C105.501271,86.9880675 104.606565,84.2893922 103.759271,81.5585351 C103.655271,81.2213922 103.305035,81.0604831 102.973153,81.1953403 C102.6428,81.3301974 102.4608,81.7133143 102.5648,82.0458597 C103.496212,85.0173143 104.481153,87.9473922 105.519624,90.837626 C103.659859,93.2497299 101.842918,95.7047429 100.070329,98.2011325 C99.0165647,95.5729506 98.0071529,92.9064571 97.0405647,90.2093143 C96.9243294,89.8767688 96.5649176,89.7296519 96.2406824,89.8813662 C95.9149176,90.0315481 95.7482118,90.4238597 95.8690353,90.7548727 C96.9273882,93.6895481 98.0377412,96.5828468 99.2000941,99.4347688 C97.4428,101.944951 95.7313882,104.496509 94.0643294,107.087912 C92.8989176,104.499574 91.7748,101.872925 90.6935059,99.2110286 C90.5604471,98.8830805 90.1964471,98.7528208 89.8783294,98.9198597 C89.5602118,99.0884312 89.4088,99.4884052 89.5433882,99.8148208 C90.7271529,102.709652 91.9629176,105.561574 93.2476235,108.369055 C92.7750353,109.115366 92.3085647,109.86321 91.8451529,110.614119 L93.2950353,110.600327 C93.6177412,110.082353 93.9404471,109.564379 94.2677412,109.04947 C97.2868,109.115366 100.298212,109.224171 103.298918,109.374353 C103.638447,109.389678 103.930565,109.124561 103.956565,108.779756 C103.981035,108.434951 103.728682,108.137652 103.390682,108.119262 C100.628565,107.970613 97.8572706,107.854145 95.0798588,107.774457 C96.7377412,105.195314 98.4415059,102.656016 100.189624,100.158094 C103.199506,100.369574 106.198682,100.620899 109.188682,100.912068 C109.523624,100.945782 109.827976,100.69599 109.867741,100.354249 C109.907506,100.010977 109.668918,99.7060156 109.330918,99.6707688 C106.581035,99.3903273 103.823506,99.1436 101.055271,98.930587 C102.817153,96.4464571 104.624918,94.0037039 106.475506,91.6038597 C109.470094,91.9563273 112.450918,92.3501714 115.419506,92.7838597 C115.754447,92.8328987 116.069506,92.5984312 116.123035,92.2628208 C116.178094,91.922613 115.950212,91.6069247 115.6168,91.5578857 C112.885271,91.1456519 110.144565,90.7686649 107.391624,90.4238597 C110.367859,86.6156779 113.452682,82.9163013 116.639976,79.3303273 C116.873976,79.0667429 116.863271,78.6667688 116.613976,78.4384312" id="Fill-39" fill="#887BF1"></path>
                    <path d="M98.2431412,87.7498571 C99.4544353,88.7306364 99.6165529,90.6033117 98.6193765,91.9564805 C97.6237294,93.3081169 95.8205529,93.6575195 94.5802,92.711987 C93.3429059,91.767987 93.1563176,89.8585325 94.1825529,88.4701169 C95.2087882,87.0801688 97.0333765,86.7690779 98.2431412,87.7498571" id="Fill-41" fill="#1B00EB"></path>
                    <path d="M111.137,97.9024545 C112.368176,98.8541169 112.602176,100.628714 111.673824,101.893 C110.743941,103.157286 108.982059,103.457649 107.724882,102.542766 C106.466176,101.629416 106.209235,99.814974 107.166647,98.5154416 C108.122529,97.2159091 109.907353,96.9507922 111.137,97.9024545" id="Fill-43" fill="#1B00EB"></path>
                    <path d="M101.197353,83.932174 C100.002882,82.9345377 99.8973529,81.0266156 100.980176,79.6918364 C102.063,78.3585896 103.898294,78.1363818 105.062176,79.1707974 C106.229118,80.2036805 106.311706,82.0732909 105.257941,83.3728234 C104.205706,84.6692909 102.393353,84.9313429 101.197353,83.932174" id="Fill-45" fill="#1B00EB"></path>
                    <path d="M117.492165,89.8855039 C118.678988,90.8892701 118.838047,92.6669325 117.857694,93.8791143 C116.878871,95.0897636 115.106282,95.3043091 113.891929,94.3342571 C112.676047,93.3657377 112.497106,91.5512961 113.506518,90.3038675 C114.515929,89.0579714 116.306871,88.8802052 117.492165,89.8855039" id="Fill-47" fill="#1B00EB"></path>
                    <path d="M91.7894824,96.6842961 C93.0436,97.6099065 93.2852471,99.4825818 92.3461882,100.887855 C91.4071294,102.29466 89.6207765,102.729881 88.3391294,101.841049 C87.0605412,100.953751 86.7913647,99.0442961 87.7579529,97.6022442 C88.7245412,96.1586597 90.5368941,95.7586857 91.7894824,96.6842961" id="Fill-49" fill="#1B00EB"></path>
                    <path d="M105.121059,106.257774 C106.393529,107.152735 106.702471,108.927332 105.829176,110.240657 C104.952824,111.552449 103.203176,111.938631 101.904706,111.081982 C100.607765,110.222268 100.275882,108.415488 101.176706,107.063852 C102.077529,105.713748 103.850118,105.362813 105.121059,106.257774" id="Fill-51" fill="#1B00EB"></path>
                    <path d="M118.173212,76.6215377 C119.304976,77.6912 119.346271,79.5133039 118.278741,80.713226 C117.211212,81.9131481 115.415682,82.0648623 114.253329,81.0273818 C113.092506,79.9914338 113.032859,78.1310182 114.129447,76.8989143 C115.227565,75.6637455 117.044506,75.5518753 118.173212,76.6215377" id="Fill-53" fill="#1B00EB"></path>
                    <polygon id="Fill-55" fill="#FFCE0A" points="57.2806 70.1923766 53.3576588 70.1923766 48.9086 42.9481688 61.7281294 42.9481688"></polygon>
                    <mask id="mask-6" fill="white">
                        <use xlink:href="#path-5"></use>
                    </mask>
                    <g id="Clip-58"></g>
                    <polygon id="Fill-57" fill="#FFCE0A" mask="url(#mask-6)" points="43.4521176 70.5643065 67.1824706 70.5643065 67.1824706 65.8213195 43.4521176 65.8213195"></polygon>
                    <path d="M32.9071294,20.7298416 C32.1592471,22.360387 31.7508941,24.0997377 31.7508941,25.9080494 C31.7508941,29.4189325 33.2803059,32.6769584 35.8910118,35.366439 C40.0448941,39.6435558 42.6066588,45.2171403 42.9859529,51.1723091 L42.9859529,51.175374 C42.9859529,56.5512701 67.8939529,56.5512701 67.8939529,51.175374 L67.9107765,50.9071922 C68.2854824,45.0240494 70.7952471,39.5102312 74.8604235,35.2469065 C77.4023059,32.580413 78.8843059,29.3668286 78.8843059,25.9080494 C78.8843059,24.0997377 78.4790118,22.360387 77.7311294,20.7298416 L32.9071294,20.7298416 Z" id="Fill-59" fill="#FFCE0A" mask="url(#mask-6)"></path>
                    <path d="M28.0723529,34.3185377 C25.8256471,34.3185377 23.9995294,36.1498364 23.9995294,38.4010312 C23.9995294,40.652226 25.8256471,42.4835247 28.0723529,42.4835247 L45.8135294,42.4835247 C48.0571765,42.4835247 49.8863529,40.652226 49.8863529,38.4010312 C49.8863529,36.1498364 48.0571765,34.3185377 45.8135294,34.3185377 L28.0723529,34.3185377 Z M45.8135294,48.060174 L28.0723529,48.060174 C22.7561176,48.060174 18.4309412,43.7278883 18.4309412,38.4010312 C18.4309412,33.074174 22.7561176,28.7418883 28.0723529,28.7418883 L45.8135294,28.7418883 C51.1267059,28.7418883 55.4518824,33.074174 55.4518824,38.4010312 C55.4518824,43.7278883 51.1267059,48.060174 45.8135294,48.060174 L45.8135294,48.060174 Z" id="Fill-60" fill="#FFCE0A" mask="url(#mask-6)"></path>
                    <path d="M65.1605882,34.3035195 C62.9047059,34.3035195 61.0709412,36.1424805 61.0709412,38.4013377 C61.0709412,40.6586623 62.9047059,42.4991558 65.1605882,42.4991558 L82.5637647,42.4991558 C84.8196471,42.4991558 86.6534118,40.6586623 86.6534118,38.4013377 C86.6534118,36.1424805 84.8196471,34.3035195 82.5637647,34.3035195 L65.1605882,34.3035195 Z M82.5637647,48.0451558 L65.1605882,48.0451558 C59.852,48.0451558 55.536,43.7205325 55.536,38.4013377 C55.536,33.0821429 59.852,28.7575195 65.1605882,28.7575195 L82.5637647,28.7575195 C87.8723529,28.7575195 92.1898824,33.0821429 92.1898824,38.4013377 C92.1898824,43.7205325 87.8723529,48.0451558 82.5637647,48.0451558 L82.5637647,48.0451558 Z" id="Fill-61" fill="#FFCE0A" mask="url(#mask-6)"></path>
                    <polygon id="Fill-62" fill="#310F57" mask="url(#mask-6)" points="61.5970588 83.8201506 95.4031765 83.8201506 95.4031765 72.1534753 61.5970588 72.1534753"></polygon>
                    <polygon id="Fill-63" fill="#FEFFFE" mask="url(#mask-6)" points="35.8417647 83.8201506 61.5985882 83.8201506 61.5985882 72.1534753 35.8417647 72.1534753"></polygon>
                    <polygon id="Fill-64" fill="#C2C4EF" mask="url(#mask-6)" points="35.8402353 75.5800727 61.5985882 75.5800727 61.5985882 74.5594494 35.8402353 74.5594494"></polygon>
                    <polygon id="Fill-65" fill="#C2C4EF" mask="url(#mask-6)" points="35.8402353 81.4141766 61.5985882 81.4141766 61.5985882 80.3935532 35.8402353 80.3935532"></polygon>
                    <polygon id="Fill-66" fill="#C2C4EF" mask="url(#mask-6)" points="35.8402353 78.4963584 61.5985882 78.4963584 61.5985882 77.4757351 35.8402353 77.4757351"></polygon>
                    <polygon id="Fill-67" fill="#310F57" mask="url(#mask-6)" points="34.8950588 72.1534753 95.4031765 72.1534753 95.4031765 70.5137351 34.8950588 70.5137351"></polygon>
                    <polygon id="Fill-68" fill="#310F57" mask="url(#mask-6)" points="34.8950588 85.4583584 95.4031765 85.4583584 95.4031765 83.8201506 34.8950588 83.8201506"></polygon>
                    <polygon id="Fill-69" fill="#887BF1" mask="url(#mask-6)" points="58.9955294 98.7663065 92.8001176 98.7663065 92.8001176 87.0980987 58.9955294 87.0980987"></polygon>
                    <polygon id="Fill-70" fill="#FEFFFE" mask="url(#mask-6)" points="33.2387059 98.7663065 58.9970588 98.7663065 58.9970588 87.0980987 33.2387059 87.0980987"></polygon>
                    <polygon id="Fill-71" fill="#C2C4EF" mask="url(#mask-6)" points="33.2387059 90.5262286 58.9970588 90.5262286 58.9970588 89.5056052 33.2387059 89.5056052"></polygon>
                    <polygon id="Fill-72" fill="#C2C4EF" mask="url(#mask-6)" points="33.2387059 96.3603325 58.9970588 96.3603325 58.9970588 95.3397091 33.2387059 95.3397091"></polygon>
                    <polygon id="Fill-73" fill="#C2C4EF" mask="url(#mask-6)" points="33.2387059 93.4425143 58.9970588 93.4425143 58.9970588 92.4218909 33.2387059 92.4218909"></polygon>
                    <polygon id="Fill-74" fill="#887BF1" mask="url(#mask-6)" points="32.292 87.0980987 92.8001176 87.0980987 92.8001176 85.4598909 32.292 85.4598909"></polygon>
                    <polygon id="Fill-75" fill="#887BF1" mask="url(#mask-6)" points="32.292 100.404514 92.8001176 100.404514 92.8001176 98.7663065 32.292 98.7663065"></polygon>
                    <polygon id="Fill-76" fill="#310F57" mask="url(#mask-6)" points="36.2577647 113.807475 70.0638824 113.807475 70.0638824 102.1408 36.2577647 102.1408"></polygon>
                    <polygon id="Fill-77" fill="#FEFFFE" mask="url(#mask-6)" points="70.0623529 113.807475 95.8191765 113.807475 95.8191765 102.1408 70.0623529 102.1408"></polygon>
                    <polygon id="Fill-78" fill="#C2C4EF" mask="url(#mask-6)" points="70.0623529 105.567397 95.8191765 105.567397 95.8191765 104.546774 70.0623529 104.546774"></polygon>
                    <polygon id="Fill-79" fill="#C2C4EF" mask="url(#mask-6)" points="70.0623529 111.401501 95.8191765 111.401501 95.8191765 110.380878 70.0623529 110.380878"></polygon>
                    <polygon id="Fill-80" fill="#C2C4EF" mask="url(#mask-6)" points="70.0623529 108.485216 95.8191765 108.485216 95.8191765 107.464592 70.0623529 107.464592"></polygon>
                    <polygon id="Fill-81" fill="#310F57" mask="url(#mask-6)" points="36.2577647 102.1408 96.7674118 102.1408 96.7674118 100.50106 36.2577647 100.50106"></polygon>
                    <polygon id="Fill-82" fill="#310F57" mask="url(#mask-6)" points="36.2577647 115.447216 96.7674118 115.447216 96.7674118 113.809008 36.2577647 113.809008"></polygon>
                    <polygon id="Fill-83" fill="#FC957E" mask="url(#mask-6)" points="101.772412 58.742239 101.533824 60.9229403 87.4326471 60.4540052 87.6972353 56.6672779"></polygon>
                    <polygon id="Fill-84" fill="#FCD4CB" mask="url(#mask-6)" points="93.8370588 113.348348 97.4755294 113.896971 98.0781176 109.889569 94.4411765 109.340945"></polygon>
                    <path d="M103.155459,115.665132 L102.936753,117.108717 L96.2379294,116.097288 C96.1920471,115.882743 96.1476941,115.666665 96.1033412,115.449055 C96.0299294,115.648275 95.9565176,115.845964 95.8831059,116.045184 L93.4865176,115.683522 L93.8367529,113.348042 L97.4752235,113.898197 L103.155459,115.665132 Z" id="Fill-85" fill="#6654F1" mask="url(#mask-6)"></path>
                    <path d="M96.1207765,91.332613 L96.7157176,91.1594442 C98.5601882,90.6200156 99.6185412,88.6860416 99.0817176,86.8394182 L93.6874824,66.5020416 C93.1506588,64.6538857 91.7910118,67.332639 89.9465412,67.8705351 L89.3516,68.0452364 C87.5086588,68.5816 86.4503059,70.515574 86.9856,72.3637299 L91.8108941,88.9618857 C92.3477176,90.8085091 94.2778353,91.8705091 96.1207765,91.332613" id="Fill-86" fill="#6654F1" mask="url(#mask-6)"></path>
                    <polygon id="Fill-87" fill="#6654F1" mask="url(#mask-6)" points="93.0754118 110.961377 98.6332941 110.863299 99.2236471 87.7720779 92.0981176 88.1352727"></polygon>
                    <path d="M82.0514118,66.4061091 L97.3776471,66.4061091 L97.3776471,48.1053818 C97.3776471,46.2832779 95.9904706,45.2887065 94.4396471,44.697174 C93.6367059,44.392213 92.7970588,44.1975896 91.9727059,43.9631221 C91.5643529,43.848187 90.0441176,43.0957455 89.7152941,43.2137455 L88.4091765,43.6872779 C87.2774118,44.0964468 86.1456471,44.4366545 84.9863529,44.7630701 C83.3712941,45.218213 82.0514118,46.2955377 82.0514118,48.1053818 L82.0514118,66.4061091 Z" id="Fill-88" fill="#FFFFFF" mask="url(#mask-6)"></path>
                    <path d="M85.8838118,72.1648156 L93.5476941,72.1648156 C95.6644,72.1648156 97.3788706,70.445387 97.3788706,68.3244519 L97.3788706,66.4058026 L82.0511059,66.4058026 L82.0511059,68.3244519 C82.0511059,70.445387 83.7671059,72.1648156 85.8838118,72.1648156" id="Fill-89" fill="#887BF1" mask="url(#mask-6)"></path>
                    <path d="M111.713588,69.2630883 C112.089824,67.3781532 111.037588,65.6418675 109.024882,65.5192701 L82.4788824,66.4065688 L87.5962941,67.8026468 C87.4800588,69.7228286 83.9654706,72.0475818 85.8833529,72.1655818 C85.8833529,72.1655818 108.064412,72.5395039 108.076647,72.5395039 C109.833941,72.5686208 111.236412,71.1235039 111.661588,69.4898935 C111.681471,69.4148026 111.698294,69.3381792 111.713588,69.2630883" id="Fill-90" fill="#887BF1" mask="url(#mask-6)"></path>
                    <polygon id="Fill-91" fill="#FCD4CB" mask="url(#mask-6)" points="96.9347294 90.9032156 100.299435 92.395839 101.937435 88.6903325 98.5727294 87.1961766"></polygon>
                    <path d="M105.312235,95.602374 L104.720353,96.9386857 L98.5247059,94.189439 C98.5384706,93.9702961 98.5522353,93.7496208 98.566,93.5289455 C98.4436471,93.7005818 98.3212941,93.8722182 98.1974118,94.0438545 L95.9812941,93.0615429 L96.9341176,90.9038286 L100.300353,92.3949195 L105.312235,95.602374 Z" id="Fill-92" fill="#887BF1" mask="url(#mask-6)"></path>
                    <polygon id="Fill-93" fill="#887BF1" mask="url(#mask-6)" points="97.1647529 88.1599455 102.246988 90.4157377 111.216988 70.5963351 106.515576 66.9965688"></polygon>
                    <path d="M90.7574353,37.676787 C90.6473176,37.3427091 90.6993176,36.9013584 91.0143765,36.7450468 C91.3095529,36.5979299 91.7347294,36.7527091 91.9549647,36.5059818 C92.0941412,36.3496701 92.0696706,36.1044753 91.9916706,35.9113844 C91.9106118,35.716761 91.7867294,35.5374623 91.7439059,35.3336442 C91.6215529,34.7605013 92.2348471,34.2379299 92.8206118,34.2501896 C93.4033176,34.2609169 93.9156706,34.6379039 94.3347294,35.0455403 C94.8180235,35.5175403 95.2447294,36.0646312 95.4741412,36.6990727 C95.7050824,37.3335143 95.7219059,38.0660338 95.4175529,38.6682935 C95.0260235,39.4437221 94.1848471,39.8850727 93.3574353,40.1394623 C92.9460235,40.2666571 92.5101412,40.3616701 92.0849647,40.295774 C91.5129647,40.2068909 91.1719059,39.9203195 91.1673176,39.3701636 C91.1627294,39.0606052 91.2560235,38.8537221 91.1612,38.5365013 C91.0709647,38.2330727 90.8568471,37.9771506 90.7574353,37.676787" id="Fill-94" fill="#310F57" mask="url(#mask-6)"></path>
                    <path d="M89.9463882,45.4649403 L89.9463882,45.4649403 C90.7860353,45.5446286 91.5308588,44.9285766 91.6119176,44.0887844 L91.9453294,40.5962909 L88.9063882,40.3051221 L88.5729765,43.7960831 C88.4919176,44.6374078 89.1067412,45.3837195 89.9463882,45.4649403" id="Fill-95" fill="#FCD4CB" mask="url(#mask-6)"></path>
                    <path d="M88.9874471,39.4667091 L92.0248588,39.7578779 L91.6516824,43.6595403 C90.3180353,43.3055403 89.1006235,42.1669169 88.9599176,40.8198779 C88.9278,40.5149169 88.9278,40.2053584 88.9461529,39.8958 L88.9874471,39.4667091 Z" id="Fill-96" fill="#FC957E" mask="url(#mask-6)"></path>
                    <path d="M92.4047647,42.7920104 C92.6540588,42.7536987 92.8941765,42.669413 93.1174706,42.5268935 C93.8317059,42.0702182 94.2201765,41.2013091 94.393,40.3982961 C94.4832353,39.9753351 95.0261765,34.0155688 95.0338235,34.0155688 L89.0002941,33.4378286 L88.6867647,36.7096468 C88.5888824,37.7501922 88.3273529,38.8259844 88.4374706,39.8711273 C88.6225294,41.6457247 90.675,43.0601922 92.4047647,42.7920104" id="Fill-97" fill="#FCD4CB" mask="url(#mask-6)"></path>
                    <path d="M92.9365412,39.6103013 C92.8998353,39.6103013 92.8692471,39.5811844 92.8677176,39.5459377 L92.8554824,39.2087948 C92.8554824,39.1888727 92.8631294,39.1689506 92.8799529,39.1551584 C92.8952471,39.1428987 92.9166588,39.1383013 92.9334824,39.1383013 L93.4152471,39.2118597 L92.8921882,37.6747948 C92.8799529,37.6395481 92.8983059,37.5997039 92.9319529,37.5889766 C92.9686588,37.5797818 93.0068941,37.596639 93.0176,37.6303532 L93.5788941,39.2731584 C93.5865412,39.2961455 93.5819529,39.3221974 93.5666588,39.3390545 C93.5513647,39.3559117 93.5299529,39.3620416 93.5054824,39.363574 L92.9946588,39.2854182 L93.0023059,39.5398078 C93.0038353,39.5781195 92.9747765,39.6087688 92.9380706,39.6103013 L92.9365412,39.6103013 Z" id="Fill-98" fill="#FC957E" mask="url(#mask-6)"></path>
                    <path d="M93.8699412,39.7719766 C93.6971176,40.2547039 93.2031176,40.5780545 92.6571176,40.5244182 C92.1095882,40.4723143 91.6859412,40.0600805 91.6079412,39.5543662 L93.8699412,39.7719766 Z" id="Fill-99" fill="#FFFFFF" mask="url(#mask-6)"></path>
                    <path d="M87.2847529,39.6657766 C87.7909882,39.8466078 88.3767529,39.7255429 88.8065176,39.103361 C89.4886353,38.1118545 89.0435765,36.4292052 90.6372235,36.1886078 C91.5594588,36.0506857 92.3027529,36.7494909 93.1087529,37.0590494 C94.4791059,37.5846857 94.8033412,35.897439 95.9748706,35.5679584 C96.8191059,35.330426 97.6740471,35.2997766 97.7031059,34.2071273 C97.7291059,33.1742442 96.7854588,32.3880883 95.8280471,32.259361 C95.2560471,32.1827377 94.6748706,32.2777506 94.1089882,32.3896208 C93.3962824,32.5321403 92.6331059,32.7635429 91.9265176,32.4907636 C91.0226353,32.141361 90.5408706,31.1115429 89.6691059,30.6901143 C89.1353412,30.4311273 88.4838118,30.4357247 87.9531059,30.6993091 C87.0614588,31.1437247 86.9635765,32.0708675 86.6867529,32.9167896 C86.3594588,33.9266857 85.1405176,34.3006078 84.8422824,35.3503481 C84.7413412,35.7135429 84.7688706,36.1227117 84.9753412,36.4384 C85.2628706,36.8766857 85.8058118,37.0988935 86.0551059,37.5555688 C86.4818118,38.3309974 86.3028706,39.3148416 87.2847529,39.6657766" id="Fill-100" fill="#310F57" mask="url(#mask-6)"></path>
                    <path d="M81.7481294,60.0426909 L81.3994235,59.9492104 C80.3196588,59.6657039 80.2508353,58.6696 80.5353059,57.5861455 L82.5082471,47.7584312 C82.7927176,46.6780416 83.8969529,46.0313403 84.9767176,46.3163792 L85.3254235,46.4083273 C86.4036588,46.6918338 87.0490706,47.7998078 86.7646,48.8801974 L83.6598941,58.410613 C83.3754235,59.4925351 82.8278941,60.3261974 81.7481294,60.0426909" id="Fill-101" fill="#FCD4CB" mask="url(#mask-6)"></path>
                    <polygon id="Fill-102" fill="#FCD4CB" mask="url(#mask-6)" points="95.5039647 60.8823299 94.8585529 62.977213 81.8478471 60.0823818 82.8297294 56.415187"></polygon>
                    <path d="M94.4271059,61.7054182 C94.3338118,61.7559896 94.5173412,62.5773922 94.5418118,62.6831325 C94.6611059,63.1903792 94.9532235,63.6455221 95.3034588,64.0240416 C95.7974588,64.5527429 96.4291059,65.0385351 97.0775765,65.3588208 C97.4064,65.5197299 97.7520471,65.6469247 98.1084,65.7327429 C98.2919294,65.7756519 98.4800471,65.8093662 98.6681647,65.8277558 L98.6727529,65.8277558 C98.9113412,65.8522753 99.0918118,65.6178078 99.0291059,65.3864052 C98.9969882,65.2745351 98.9725176,65.1779896 98.9633412,65.1488727 C98.8318118,64.7734182 98.7125176,64.402561 98.5473412,64.0408987 C98.0579294,62.963574 96.7258118,61.3514182 95.5038118,60.8824831 C94.6167529,61.3253662 95.3126353,61.2625351 94.4271059,61.7054182" id="Fill-103" fill="#FCD4CB" mask="url(#mask-6)"></path>
                    <path d="M86.5440588,45.9049117 C87.4617059,47.3209117 87.5687647,49.1430156 87.2078235,50.7904182 C86.8453529,52.4393532 86.0592353,53.9580286 85.2807647,55.4537169 C83.6534706,55.3081325 82.0215882,55.1686779 80.3897059,55.1610156 C80.8500588,53.0216909 81.4297059,50.7521065 82.0735882,48.6602883 C82.3167647,47.8634052 82.5874706,47.0481325 83.1334706,46.4182883 C83.9379412,45.4880805 85.3786471,45.5126 86.5440588,45.9049117" id="Fill-104" fill="#FFFFFF" mask="url(#mask-6)"></path>
                    <polygon id="Fill-105" fill="#310F57" mask="url(#mask-6)" points="94.1820941 66.6155974 99.4402118 66.8669221 100.639271 65.594974 94.1820941 65.8554935"></polygon>
                    <polygon id="Fill-106" fill="#310F57" mask="url(#mask-6)" points="100.540165 66.117239 94.1824 66.117239 94.1824 65.855187 100.540165 65.3433429"></polygon>
                    <polygon id="Fill-107" fill="#310F57" mask="url(#mask-6)" points="99.4409765 66.8670753 113.838859 65.3008935 116.441918 54.8050234 102.337682 55.1912052"></polygon>
                </g>
            </g>
        </g>
    </g>
</svg>