<?xml version="1.0" encoding="UTF-8"?>
<svg width="130px" height="130px" viewBox="0 0 130 130" version="1.1" xmlns="http://www.w3.org/2000/svg" xmlns:xlink="http://www.w3.org/1999/xlink">
    <!-- Generator: Sketch 55.2 (78181) - https://sketchapp.com -->
    <title>Group 95</title>
    <desc>Created with Sketch.</desc>
    <defs>
        <polygon id="path-1" points="0.006237722 0.364515242 58.75255 0.364515242 58.75255 57.7837146 0.006237722 57.7837146"></polygon>
        <polygon id="path-3" points="0.199489855 0.323014391 104.088707 0.323014391 104.088707 34 0.199489855 34"></polygon>
        <polygon id="path-5" points="0.5 129.5 129.5 129.5 129.5 0.5 0.5 0.5"></polygon>
    </defs>
    <g id="Marshmello_landing-page" stroke="none" stroke-width="1" fill="none" fill-rule="evenodd">
        <g id="Simple_landngpage" transform="translate(-307.000000, -2550.000000)">
            <g id="Group-10" transform="translate(245.000000, 2491.000000)">
                <g id="Group-95" transform="translate(62.000000, 59.000000)">
                    <path d="M125.629615,78.3938337 C123.278604,70.2510078 117.979646,62.8586022 109.748046,60.1126765 C105.228166,58.60571 100.431247,58.0222199 95.9634073,56.3697638 C85.0884509,52.3450607 81.3231598,41.5206308 71.755341,36.0425626 C66.6706675,33.1312382 60.3232439,32.8249442 54.7365316,34.5891976 C44.1309618,37.940054 35.033039,48.4030569 33.6692689,59.5031514 C33.6003917,60.0682638 33.5514123,60.6349077 33.5238614,61.2030831 C33.2759032,66.4514308 34.1590629,71.6890581 34.2034505,76.9435317 C34.2998787,88.4693748 25.8876674,97.3595581 27.7764354,109.309618 C29.5351018,120.437279 38.1906794,128.099224 49.4605323,128.48056 C58.8247805,128.796043 68.0619884,125.194025 77.1277685,123.317974 C88.985374,120.866091 102.10573,122.670163 113.346501,117.539738 C127.9393,110.877844 129.63215,92.2643574 125.629615,78.3938337" id="Fill-1" fill="#FF99EC"></path>
                    <path d="M59.1075331,95.2506929 C58.988243,93.3997786 60.3830201,91.5183463 62.0286124,90.4578472 C65.4069707,88.2803907 69.6692995,87.3419634 72.2630956,84.0536532 C74.8125402,80.8202753 75.2025272,76.2715733 73.248004,72.6521432 C70.4569204,67.4854525 64.3257125,66.7545474 59.0968276,68.2743418 C58.4284969,68.4696567 57.7234615,68.704645 57.0551308,68.5154337 C56.1971593,68.27129 55.6725885,67.3938986 55.4431844,66.5317663 C53.9505281,60.9362982 54.0224081,54.6236581 50.2708858,49.867434 C46.118671,44.6046117 38.2944606,44.226189 32.9646379,48.04246 C29.1657054,50.7631361 27.6026985,54.8784831 27.4329395,59.4165038 C27.3197668,62.4240488 30.3050792,70.2549574 27.1423609,72.4293621 C26.6162608,72.7909999 25.9571062,72.8825538 25.3208921,72.9237531 C19.5812006,73.299124 14.4134901,73.7797818 12.798485,80.405231 C11.4342951,86.0037509 14.8753571,91.6449958 20.4850529,93.0060969 L28.7848945,95.0218082 C30.5528357,95.4505855 31.8726742,96.9215512 32.105137,98.7221109 C32.8285247,104.338941 27.0781277,103.028195 23.6814172,103.40204 C20.0400089,103.801825 17.6985573,107.554009 16.9415237,110.825534 C14.9762949,119.317156 21.9211228,124.142046 29.1580586,126.366805 C38.1659943,129.137836 47.9554334,129.16988 57.0352491,126.691822 C64.5872332,124.628807 76.4611913,119.91836 78.2719546,111.181068 C78.8760521,108.260499 78.2520729,105.140038 76.7303588,102.573477 C75.7255687,100.878205 74.3047924,99.3843506 72.5169695,98.5481585 C69.54848,97.1580654 66.1227116,99.1417328 63.0746953,98.7846727 C61.5178059,98.6015649 59.9410348,97.7455361 59.3476428,96.2974589 C59.2069416,95.9526059 59.1304735,95.6016494 59.1075331,95.2506929" id="Fill-3" fill="#1B00EB"></path>
                    <path d="M44.0808033,84.5 C44.0572436,84.5 44.0336838,84.4986893 44.010124,84.4947574 L34.850088,83.1932738 C34.620773,83.1605073 34.4668492,82.9796365 34.5061155,82.789591 C34.5453818,82.5982349 34.7684142,82.4763437 34.989876,82.5038675 L44.149912,83.8053511 C44.379227,83.8381176 44.5331508,84.0176778 44.4938845,84.2090339 C44.4593302,84.3794194 44.280276,84.5 44.0808033,84.5" id="Fill-5" fill="#D9E8FF"></path>
                    <path d="M47.0808033,112.5 C47.0572436,112.5 47.0336838,112.49869 47.010124,112.494758 L37.850088,111.193453 C37.620773,111.160691 37.4668492,110.979845 37.5061155,110.789826 C37.5453818,110.599807 37.7699848,110.475311 37.989876,110.504142 L47.149912,111.805447 C47.379227,111.838209 47.5331508,112.017744 47.4938845,112.209074 C47.4593302,112.379436 47.280276,112.5 47.0808033,112.5" id="Fill-7" fill="#D9E8FF"></path>
                    <path d="M43.9054012,84.5 C43.7504582,84.5 43.6031103,84.400655 43.5362721,84.2356411 C43.4436101,84.0083262 43.5347531,83.7422835 43.7383058,83.6412547 L51.9275033,79.5394829 C52.132575,79.4384541 52.3725849,79.5377991 52.4637279,79.7634302 C52.5563899,79.9890614 52.4652469,80.255104 52.2616942,80.3578167 L44.0724967,84.4595885 C44.0178109,84.4865295 43.9616061,84.5 43.9054012,84.5" id="Fill-9" fill="#D9E8FF"></path>
                    <path d="M47.9054012,113.5 C47.7504582,113.5 47.6031103,113.400655 47.5362721,113.235641 C47.4436101,113.008326 47.5347531,112.742284 47.7383058,112.641255 L55.9275033,108.539483 C56.1310559,108.438454 56.3725849,108.537799 56.4637279,108.76343 C56.5563899,108.989061 56.4652469,109.255104 56.2616942,109.357817 L48.0724967,113.459588 C48.0178109,113.486529 47.9616061,113.5 47.9054012,113.5" id="Fill-11" fill="#D9E8FF"></path>
                    <path d="M49.1039533,124.5 C48.908344,124.5 48.7379268,124.349347 48.7127347,124.141814 L41.5033462,65.9619268 C41.4751903,65.7374839 41.6278248,65.5314885 41.8441806,65.5038174 C42.0620182,65.4730718 42.2591094,65.6314116 42.2872653,65.8573918 L49.4966538,124.037279 C49.5248097,124.261722 49.3721752,124.467717 49.1558194,124.496925 C49.1380368,124.498463 49.121736,124.5 49.1039533,124.5" id="Fill-13" fill="#D9E8FF"></path>
                    <g id="Group-17" transform="translate(70.500000, 66.500000)">
                        <mask id="mask-2" fill="white">
                            <use xlink:href="#path-1"></use>
                        </mask>
                        <g id="Clip-16"></g>
                        <path d="M27.018215,12.9707842 C20.94109,18.1785737 15.504465,24.1388368 10.908115,30.6211 C7.50584,34.8749421 -4.51421,52.3711 1.82064,57.0080474 C8.321715,61.6480474 25.630465,44.0877842 30.214615,40.9176263 C35.036665,36.9537842 39.663515,32.7976263 44.11194,28.4308368 C48.14404,24.4028895 55.453365,18.7387316 57.92539,13.4607316 C60.016165,8.92757368 57.966565,3.86631053 53.778915,1.50357368 C47.822265,-1.8589 40.566315,2.93525789 35.219665,6.66404737 C32.380115,8.61467895 29.63969,10.7225211 27.018215,12.9707842" id="Fill-15" fill="#310F57" mask="url(#mask-2)"></path>
                    </g>
                    <path d="M79.9095717,114.5 C79.8158975,114.5 79.7237588,114.468237 79.6469767,114.406223 C79.4734489,114.262531 79.4504143,114.008424 79.5947648,113.837507 C92.0380848,99.1704055 106.253537,85.9629049 121.844927,74.5795277 C122.024597,74.4464242 122.284121,74.4842377 122.419258,74.66423 C122.554394,74.8427097 122.516003,75.0953039 122.333261,75.2284074 C106.794084,86.5739711 92.6262363,99.7376081 80.2243787,114.354796 C80.1429895,114.450086 80.0262806,114.5 79.9095717,114.5" id="Fill-18" fill="#D9E8FF"></path>
                    <path d="M100.094494,105.5 C100.048931,105.5 100.001849,105.492376 99.9562867,105.475602 C97.8907735,104.722329 95.8115915,103.987353 93.7749347,103.293549 C93.5638271,103.221881 93.4499202,102.990105 93.5213019,102.776626 C93.5926836,102.564673 93.8250538,102.448785 94.0361614,102.521977 C96.0773744,103.218831 98.1626315,103.953807 100.232701,104.71013 C100.443809,104.786372 100.55164,105.021199 100.475702,105.231627 C100.414952,105.397835 100.260039,105.5 100.094494,105.5" id="Fill-20" fill="#D9E8FF"></path>
                    <path d="M91.0937579,99.5 C90.9278443,99.5 90.7710636,99.3990291 90.7117001,99.234763 C89.9673723,97.1987673 89.2306552,95.1115326 88.5213367,93.0318331 C88.449796,92.8208491 88.5639567,92.5932878 88.7770567,92.5224574 C88.9871124,92.448613 89.2200002,92.5631472 89.2915409,92.7741312 C89.9993373,94.8493096 90.7345322,96.9305162 91.4758157,98.9604838 C91.5519229,99.1699607 91.4423286,99.4005361 91.2322729,99.4758875 C91.1866086,99.4924649 91.1394222,99.5 91.0937579,99.5" id="Fill-22" fill="#D9E8FF"></path>
                    <path d="M106.089146,99.5 C106.036902,99.5 105.986195,99.4914783 105.935488,99.4715943 C103.891841,98.7074804 101.815925,97.9547287 99.7645952,97.2346437 C99.5540842,97.1607888 99.4465238,96.9420648 99.5264258,96.7460653 C99.6078644,96.5486455 99.8444972,96.4492255 100.056545,96.5259209 C102.112485,97.2474263 104.194547,98.0015982 106.242804,98.7685527 C106.453315,98.8480887 106.554729,99.068233 106.470217,99.2628122 C106.405681,99.410522 106.250487,99.5 106.089146,99.5" id="Fill-24" fill="#D9E8FF"></path>
                    <path d="M97.061114,93.5 C96.8752612,93.5 96.702566,93.3926016 96.6433563,93.2240459 C95.9163919,91.1745273 95.2009406,89.0847343 94.5183836,87.012841 C94.4493055,86.8010276 94.5808828,86.5787726 94.8127877,86.5161236 C95.0496268,86.4549662 95.2897553,86.5728061 95.3588333,86.7846195 C96.0397456,88.8505462 96.7535522,90.9358643 97.4788718,92.9794163 C97.552884,93.1897381 97.4262409,93.4134847 97.1959807,93.4806086 C97.1515734,93.4940334 97.1055214,93.5 97.061114,93.5" id="Fill-26" fill="#D9E8FF"></path>
                    <path d="M113.084009,93.5 C113.026418,93.5 112.968827,93.490679 112.914349,93.469374 C110.870645,92.687744 108.798924,91.9194298 106.75522,91.1830732 C106.541977,91.1071738 106.443917,90.8981178 106.532638,90.7170247 C106.622916,90.5359315 106.865733,90.4520428 107.077419,90.5279421 C109.125792,91.2656303 111.203739,92.0366077 113.253669,92.8195692 C113.463799,92.8994632 113.55719,93.1098508 113.463799,93.2896124 C113.395312,93.4214375 113.242774,93.5 113.084009,93.5" id="Fill-28" fill="#D9E8FF"></path>
                    <path d="M104.021596,87.5 C103.812059,87.5 103.620431,87.3861971 103.56133,87.2132757 C102.859291,85.1618669 102.169787,83.0705531 101.516103,80.9940189 C101.448048,80.7826706 101.602067,80.5683664 101.858168,80.5122039 C102.117851,80.4589973 102.373952,80.584624 102.440216,80.7944943 C103.093901,82.8665946 103.779822,84.9534745 104.481862,86.9974935 C104.553499,87.2073639 104.406643,87.426102 104.152333,87.4852204 C104.10756,87.4955661 104.064578,87.5 104.021596,87.5" id="Fill-30" fill="#D9E8FF"></path>
                    <path d="M119.078015,88.5 C119.014869,88.5 118.951723,88.4849589 118.893312,88.4548766 C116.853688,87.3969844 114.784069,86.3541333 112.744444,85.3530631 C112.532904,85.2494465 112.441342,84.98372 112.539219,84.7597744 C112.635517,84.5341576 112.888102,84.4372259 113.098063,84.5425138 C115.144003,85.5469265 117.218358,86.59312 119.262718,87.6526835 C119.472679,87.7613138 119.559505,88.0287115 119.456893,88.2493146 C119.382696,88.408082 119.234302,88.5 119.078015,88.5" id="Fill-32" fill="#D9E8FF"></path>
                    <path d="M110.149758,81.5 C109.990876,81.5 109.849064,81.3797857 109.809672,81.2009303 C109.356662,79.1411614 108.919408,77.0447418 108.508416,74.9761767 C108.466398,74.7650687 108.585888,74.5554268 108.773657,74.5085139 C108.958801,74.464533 109.150509,74.5950095 109.192528,74.8061175 C109.602206,76.8702845 110.03946,78.959374 110.489844,81.0147448 C110.535802,81.2258528 110.421564,81.4369608 110.232482,81.4882718 C110.204907,81.4970679 110.177333,81.5 110.149758,81.5" id="Fill-34" fill="#D9E8FF"></path>
                    <path d="M94.0988114,111.5 C94.0582322,111.5 94.0161501,111.493411 93.9755709,111.478586 C91.9330854,110.75382 89.8515236,110.042231 87.7864941,109.363586 C87.5730777,109.292756 87.4528431,109.047324 87.5174692,108.815069 C87.5805924,108.582814 87.8030264,108.446097 88.0164428,108.520221 C90.0874841,109.200513 92.1750576,109.915397 94.2220519,110.64181 C94.4339654,110.715934 94.5481883,110.964661 94.4805563,111.195269 C94.4249478,111.381402 94.2686428,111.5 94.0988114,111.5" id="Fill-36" fill="#D9E8FF"></path>
                    <path d="M85.1211758,106.5 C84.9723409,106.5 84.8291759,106.403957 84.769642,106.245411 C84.0070404,104.207173 83.2529437,102.1232 82.5243615,100.051423 C82.4506528,99.8410436 82.549876,99.6062727 82.7454876,99.5269994 C82.9396817,99.4462016 83.1593903,99.5529156 83.233099,99.7648192 C83.9588462,101.830498 84.7115255,103.908373 85.4727096,105.940514 C85.5506707,106.149368 85.4556999,106.387188 85.2629233,106.46951 C85.2161466,106.490853 85.1679524,106.5 85.1211758,106.5" id="Fill-38" fill="#D9E8FF"></path>
                    <path d="M87.1093137,116.5 C87.0742024,116.5 87.0390912,116.495462 87.0039799,116.484872 C85.6053818,116.077932 84.2009318,115.681581 82.7906299,115.295819 C82.5828883,115.238333 82.4585359,115.017466 82.5126658,114.801137 C82.5682586,114.584808 82.7803891,114.456221 82.9910566,114.513707 C84.4042844,114.900981 85.8116604,115.300357 87.2146474,115.707298 C87.422389,115.76781 87.5438154,115.99019 87.4852967,116.205006 C87.4370187,116.383515 87.280481,116.5 87.1093137,116.5" id="Fill-40" fill="#D9E8FF"></path>
                    <path d="M80.0480098,112.5 C79.8739568,112.5 79.7100427,112.41209 79.6340001,112.265572 C78.9242691,110.86633 78.2246771,109.458298 77.5352242,108.042939 C77.4389035,107.845141 77.547053,107.615108 77.7751808,107.530128 C78.0066883,107.448079 78.2703027,107.538919 78.3666233,107.738183 C79.0543864,109.150611 79.7522886,110.554248 80.4620196,111.95056 C80.5617199,112.148358 80.4586399,112.379856 80.2288223,112.467766 C80.1713678,112.489744 80.1088439,112.5 80.0480098,112.5" id="Fill-42" fill="#D9E8FF"></path>
                    <path d="M124.081445,82.5 C124.015606,82.5 123.949766,82.4842546 123.887062,82.4511894 C122.509139,81.7237536 121.12181,81.0041906 119.729778,80.2956493 C119.522855,80.1901553 119.441339,79.936655 119.544801,79.7303907 C119.649831,79.5209774 119.902215,79.4422506 120.107571,79.5445955 C121.504305,80.2562858 122.894769,80.9774235 124.275828,81.7080083 C124.481184,81.8150767 124.559564,82.0701516 124.451399,82.2748413 C124.376154,82.4181241 124.231935,82.5 124.081445,82.5" id="Fill-44" fill="#D9E8FF"></path>
                    <path d="M117.033025,76.5 C116.81666,76.5 116.622979,76.355345 116.577612,76.1458446 C116.207698,74.4449013 115.851743,72.7389698 115.508002,71.0280502 C115.46089,70.7869585 115.626653,70.5541803 115.877916,70.5076247 C116.134413,70.4627318 116.376951,70.6206884 116.424063,70.8601174 C116.766059,72.5677115 117.122014,74.2703176 117.490183,75.9662729 C117.54253,76.2057019 117.380256,76.4401428 117.128994,76.4916865 C117.095841,76.4966746 117.064433,76.5 117.033025,76.5" id="Fill-46" fill="#D9E8FF"></path>
                    <path d="M84.5,65.9481087 L83.5678346,62.5 L71.5190691,68.2080178 C70.2490314,67.865828 68.8719004,68.9797652 67.8296248,69.5345495 C67.4811941,69.7194777 67.1629305,69.940809 66.8326001,70.1577719 C66.8084663,70.1737893 66.7300317,70.2349466 66.6365135,70.3048407 C66.4479687,70.4460851 66.4540021,70.7343982 66.6591389,70.8538006 C66.6606472,70.8552567 66.6621556,70.8552567 66.6636639,70.8567129 C66.828075,70.949905 66.9985195,71.0329042 67.173489,71.1057106 C67.5128696,71.2454988 67.8673338,71.3474277 68.2293398,71.4100411 C68.9473183,71.5381803 69.7467482,71.5250752 70.4632183,71.3983921 C70.9730434,71.3081122 71.4813601,71.121728 71.8825834,70.7970117 C71.9625264,70.7314859 72.5719031,70.2203854 72.5598363,70.1097197 L84.5,65.9481087 Z" id="Fill-48" fill="#FC957E"></path>
                    <g id="Group-52" transform="translate(13.500000, 95.500000)">
                        <mask id="mask-4" fill="white">
                            <use xlink:href="#path-3"></use>
                        </mask>
                        <g id="Clip-51"></g>
                        <path d="M104.087171,33.9592174 C103.286794,21.2587826 93.911171,10.9611739 80.4507072,15.4198696 C73.9278667,17.5792174 66.9579826,23.7483478 59.6854609,22.3894348 C51.3959536,20.8418261 49.4126783,10.1774783 43.6379826,5.26986957 C38.6928522,1.06682609 31.6676638,-0.626869565 25.3184174,0.844652174 C11.297229,4.09204348 4.59618551,20.6424783 0.612736232,32.7676957 C0.482156522,33.1663913 0.34235942,33.5635652 0.199489855,33.9607391 C34.829229,33.9607391 69.4589681,33.9424783 104.088707,34.0003043 C104.088707,33.9866087 104.087171,33.9744348 104.087171,33.9592174" id="Fill-50" fill="#FF99EC" mask="url(#mask-4)"></path>
                    </g>
                    <polygon id="Fill-53" fill="#FC957E" points="89.5 122.533749 90.3025666 126.5 92.5 120.5"></polygon>
                    <path d="M92.5,121.149334 C91.3939532,121.778694 90.2818292,121.87064 89.1757824,122.5 C88.849134,121.902346 88.2079915,120.668992 87.5,119.216867 C88.6075661,118.642993 89.5996658,118.096068 90.6965968,117.5 C91.3802796,118.673114 91.9621696,119.893786 92.5,121.149334" id="Fill-55" fill="#FC957E"></path>
                    <mask id="mask-6" fill="white">
                        <use xlink:href="#path-5"></use>
                    </mask>
                    <g id="Clip-58"></g>
                    <polygon id="Fill-57" fill="#FCD4CB" mask="url(#mask-6)" points="90.5 124.5 94.5 124.5 94.5 120.5 90.5 120.5"></polygon>
                    <path d="M86.5,128.086167 L86.5,129.5 L90.7879884,129.5 C90.8617945,129.299477 92.9008683,127.20125 92.9746744,126.999273 C93.0166425,127.20125 92.9327062,129.299477 92.9746744,129.5 L94.012301,129.5 L94.5,124.5 L90.947178,124.5 L89.1063676,127.361087 L86.5,128.086167 Z" id="Fill-59" fill="#310F57" mask="url(#mask-6)"></path>
                    <polygon id="Fill-60" fill="#FCD4CB" mask="url(#mask-6)" points="90.5477596 124.5 88.5 127.5 94.5 124.5"></polygon>
                    <path d="M85.1169782,103.434983 C84.9426447,103.573029 84.674202,103.450494 84.4936974,103.436535 C82.261303,103.265916 81.9188071,101.693123 81.7120753,99.5247157 C81.1520483,93.7159283 81.8617244,81.1397873 82.008288,76.4787977 C82.008288,76.4787977 83.4461536,75.8893881 85.4749019,74.5352969 C85.6384359,74.4251704 85.9331058,74.6050954 86.1043538,74.636117 C88.2071551,75.0285397 89.3580648,76.2383806 89.5,78.569651 C88.7594683,84.0899378 87.4203402,94.2184776 87.4388535,98.6871335 C87.4589096,103.158892 87.2830333,101.713287 85.1169782,103.434983" id="Fill-61" fill="#6654F1" mask="url(#mask-6)"></path>
                    <path d="M91.5,118.772928 C90.4058026,119.339647 89.3809344,119.912347 88.2972871,120.5 C83.8767898,112.021646 82.4600603,109.706921 81.5,99.8170037 C83.3432555,99.6076616 85.2287114,99.6091569 87.082517,99.5 C87.3643557,108.316292 88.6439337,112.286314 91.5,118.772928" id="Fill-62" fill="#6654F1" mask="url(#mask-6)"></path>
                    <path d="M84.5199888,46.1499607 C84.359147,47.333984 85.208206,47.834798 85.6613468,48.7730515 C86.1871757,49.86124 85.9861235,50.7098415 85.4726671,51.8181244 C84.8648707,53.1381713 84.5292681,54.5586901 85.2453234,55.9034685 C85.8639456,57.0627603 87.167692,57.665592 87.640938,58.9377215 C88.2518275,60.5777328 87.1506799,62.6041748 88.0801598,64.0865225 C88.5193816,64.7882804 89.3390561,65.1808939 90.1587305,65.2999145 C92.2883376,65.609059 95.03966,64.4544044 96.6666365,66.4762092 C97.6069423,67.6447753 97.4136229,69.3450699 97.9564639,70.7424028 C99.8247031,75.5604193 106.337249,73.4304139 107.33787,69.2090463 C107.815756,67.1949701 107.20796,64.9923158 105.899573,63.387856 C104.148873,61.2454849 99.988638,59.3396093 101.609428,55.9792089 C102.150723,54.8554688 103.279708,53.9558584 103.298267,52.6219 C103.316826,51.185924 102.047103,50.3172281 101.533647,49.0821959 C100.659843,46.9769221 102.453848,45.2008872 102.345589,43.1358022 C102.178561,39.9933487 97.6610718,36.9529129 95.0009961,35.9976565 C92.1537873,34.9743883 87.5868086,35.354636 86.5784543,38.7954139 C86.2165603,40.030446 86.5444301,41.1526404 86.0464392,42.4031298 C85.5499948,43.6520734 84.7055755,44.7912708 84.5199888,46.1499607" id="Fill-63" fill="#887BF1" mask="url(#mask-6)"></path>
                    <path d="M94.6823832,74.5 L82.5,73.2248916 C82.5,73.2248916 82.9588935,54.7092235 82.9619942,54.6849067 C83.1619849,52.8520334 84.4502975,51.9371166 86.1122363,51.510054 C86.9711114,51.2896837 87.8547915,51.183298 88.7291697,51.0373976 C89.1617079,50.9659672 90.8096938,50.3717272 91.1337099,50.5252266 L92.4235728,51.1422635 C93.5429009,51.6757117 94.671531,52.1407691 95.8265164,52.5936682 C97.4372948,53.2259031 98.6775476,54.452378 98.4791071,56.2715732 L94.6823832,74.5 Z" id="Fill-64" fill="#6654F1" mask="url(#mask-6)"></path>
                    <path d="M90.8901868,61.5 L84.5404332,60.7780905 C83.1535522,60.6204684 82.2225511,59.1845305 82.5748218,57.7470164 L83.3696511,54.5 L91.5,55.4252421 L90.8901868,61.5 Z" id="Fill-65" fill="#6654F1" mask="url(#mask-6)"></path>
                    <path d="M92.5842595,83.5 L82.5,76.8669542 L83.5418494,71.5 C83.5418494,71.5 95.6601242,72.0096218 95.6751799,72.0096218 C96.1268487,72.0096218 97.5119664,77.5453882 97.5,78.1680823 C97.4562606,80.4056403 94.77937,83.5 92.5842595,83.5" id="Fill-66" fill="#887BF1" mask="url(#mask-6)"></path>
                    <path d="M93.5481392,101.5 L92.9349195,101.5 C91.0374931,101.5 90.4953712,99.822343 90.4953712,97.8416254 L89.5,80.1141255 C89.5,78.1334079 91.0374931,76.5284236 92.9349195,76.5284236 L93.5481392,76.5284236 C95.4455656,76.5284236 97.5,76.1526903 97.5,78.1334079 L95.9876875,97.8416254 C95.9876875,99.822343 95.4455656,101.5 93.5481392,101.5" id="Fill-67" fill="#887BF1" mask="url(#mask-6)"></path>
                    <polygon id="Fill-68" fill="#887BF1" mask="url(#mask-6)" points="94.5307443 121.5 90.5582524 121.5 89.5 97.5 95.5 97.5"></polygon>
                    <path d="M91.0972115,52.4913539 L91.0972115,52.4913539 C90.1155741,52.4051987 89.4058536,51.6778225 89.510174,50.8671159 L89.9462673,47.5 L93.5,47.8135485 L93.0639067,51.1806645 C92.9595864,51.9913711 92.0788489,52.5789215 91.0972115,52.4913539" id="Fill-69" fill="#FCD4CB" mask="url(#mask-6)"></path>
                    <path d="M93.5,46.8334585 L89.9824376,46.5 L89.5,50.5 C91.0979687,50.4203905 92.7433347,49.5251596 93.2173085,48.200338 C93.3239526,47.8999249 93.3950487,47.5889974 93.4475243,47.2750657 L93.5,46.8334585 Z" id="Fill-70" fill="#FC957E" mask="url(#mask-6)"></path>
                    <path d="M89.0387316,49.3034031 C88.7907009,49.2090943 88.5610429,49.0692028 88.363537,48.8711543 C87.7250876,48.2361415 87.509209,47.2364679 87.5,46.3562521 C87.4954296,45.8909952 88.1889969,39.5 88.1828726,39.5 L94.5,40.1915981 L94.1340782,43.7046021 C94.0177181,44.82059 94.0605876,46.0088812 93.728349,47.0855737 C93.1633902,48.9135933 90.7596359,49.9588495 89.0387316,49.3034031" id="Fill-71" fill="#FCD4CB" mask="url(#mask-6)"></path>
                    <path d="M89.6086107,45.5 C89.6026107,45.5 89.5946107,45.5 89.5866107,45.4985299 C89.5366107,45.4897095 89.5066107,45.4529578 89.5186107,45.4162062 L89.6006107,45.1662947 L88.8946107,45.1398335 C88.8606107,45.1383635 88.8326107,45.1251329 88.8166107,45.1045519 C88.8026107,45.083971 88.8026107,45.0589798 88.8186107,45.0383989 L90.0226107,43.5345201 C90.0466107,43.5007085 90.1046107,43.4904181 90.1486107,43.5095289 C90.1926107,43.5286398 90.2066107,43.5712718 90.1806107,43.6021432 L89.0546107,45.0104676 L89.7226107,45.0354587 C89.7486107,45.0369288 89.7746107,45.0457492 89.7906107,45.06339 C89.8066107,45.0780907 89.8126107,45.1001417 89.8066107,45.1192526 L89.6986107,45.4485476 C89.6886107,45.4794191 89.6506107,45.5 89.6086107,45.5" id="Fill-72" fill="#FC957E" mask="url(#mask-6)"></path>
                    <path d="M88.5,45.8242595 C88.5645995,46.5182595 88.9354005,47.0862595 89.4186047,47.1662595 C89.9031008,47.2462595 90.3423773,46.8122595 90.5,46.1562595 L88.5,45.8242595 Z" id="Fill-73" fill="#FFFFFF" mask="url(#mask-6)"></path>
                    <path d="M95.2541223,44.6033078 C95.1721223,45.1535062 94.4941223,45.5537828 93.7381223,45.4941052 L94.0301223,43.5 C94.7861223,43.5582221 95.3341223,44.0531095 95.2541223,44.6033078" id="Fill-74" fill="#FCD4CB" mask="url(#mask-6)"></path>
                    <path d="M95.8331481,47.5 C95.8788135,47.3823628 95.9166056,47.2632174 95.9465243,47.1485965 C96.437821,45.2392541 96.9054977,43.1202761 95.9260536,41.3934222 C95.4442049,40.5428147 94.6552957,39.8897773 93.8238705,39.3408037 C92.8444264,38.693799 91.7815249,38.1659397 90.6650846,37.7692912 C90.0100223,37.5370331 89.2557559,37.3545446 88.6353363,37.6637193 C88.0920755,37.9351898 87.7125803,38.6621275 87.5,39.5067023 C88.2936332,39.6409294 88.9549941,40.0134472 89.2856746,40.9183488 C89.559667,41.6664009 89.4510148,42.575827 90.0682851,43.1836192 C90.7327954,43.8366566 91.7342848,43.6556763 92.5531127,43.9814408 C93.949844,44.5334308 93.9419707,46.1366149 94.9607815,47.0143695 C95.2048552,47.2255132 95.5040423,47.3808546 95.8331481,47.5" id="Fill-75" fill="#887BF1" mask="url(#mask-6)"></path>
                    <polygon id="Fill-76" fill="#310F57" mask="url(#mask-6)" points="78.5879175 72.1194961 76.5202358 60.5 75.4696464 60.5 58.5505894 60.5 57.5 60.5 59.8112967 73.4923475 60.8618861 73.4923475 70.5303536 73.4923475 88.1361002 73.5 88.5 72.1194961"></polygon>
                    <path d="M92.4696875,68.3586267 L92.8009838,68.4480293 C93.8275756,68.7222984 94.3394497,67.8737311 94.5982305,66.7796854 L97.4419752,57.1287481 C97.6993341,56.0347024 97.076554,54.9255038 96.0499621,54.6512347 L95.7186659,54.5618321 C94.6906522,54.287563 93.6498416,54.9512638 93.3924827,56.0468248 L91.6250954,65.9841536 C91.3677365,67.0781993 91.4430957,68.0843576 92.4696875,68.3586267" id="Fill-77" fill="#FCD4CB" mask="url(#mask-6)"></path>
                    <polygon id="Fill-78" fill="#FCD4CB" mask="url(#mask-6)" points="80.5 71.4160752 81.4924242 73.5 93.5 68.2287083 92.3924242 64.5"></polygon>
                    <path d="M81.4973084,72.6920411 C81.5453168,72.7969383 80.9362103,73.4517 80.8581967,73.5346026 C80.4771301,73.9338888 79.9820435,74.1775211 79.4779554,74.3094885 C78.7728321,74.4955965 77.9791934,74.5548127 77.2605678,74.4448398 C76.8975043,74.3890074 76.5389416,74.2908777 76.1968818,74.147067 C76.0183506,74.070932 75.8443202,73.9846455 75.6777911,73.884824 L75.6732903,73.8831321 C75.4617533,73.7545484 75.4422499,73.4212459 75.6237816,73.2469812 C75.7122971,73.1606948 75.7858099,73.0845597 75.8098141,73.064257 C76.1278697,72.7952464 76.4339232,72.522852 76.7714823,72.2876792 C77.7781582,71.5872365 79.0908877,70.2218807 80.3691112,70.5501075 C80.8596969,71.5229446 81.0067226,71.7208958 81.4973084,72.6920411" id="Fill-79" fill="#FCD4CB" mask="url(#mask-6)"></path>
                    <path d="M95.817792,53.5 C94.4042357,54.2915707 93.4813589,55.8255184 93.0277657,57.4310205 C92.5755989,59.0380133 92.5356598,60.7359398 92.5,62.4115056 C93.9221146,63.0644396 95.347082,63.7248272 96.7121409,64.5 C97.3083735,62.4174685 97.8632407,60.166486 98.2840269,58.039233 C98.4452094,57.228283 98.5935543,56.3905001 98.4266662,55.5810408 C98.1813265,54.3869766 96.9688918,53.7176447 95.817792,53.5" id="Fill-80" fill="#6654F1" mask="url(#mask-6)"></path>
                    <path d="M70.7440829,55.4601546 C72.548072,54.8664009 72.3882613,50.7485352 72.4976813,49.5882349 C72.5336747,49.2073364 72.1435062,50.1915911 71.8224451,50.0507546 C71.6655139,49.9819368 71.4884264,50.0267484 71.3257362,50.0731604 C70.0645275,50.4332536 66.6451546,49.7642805 66.5026207,51.6047568 C66.39752,52.9491047 69.4814344,55.8746619 70.7440829,55.4601546" id="Fill-81" fill="#2B0D4D" mask="url(#mask-6)"></path>
                    <path d="M77.2550739,48.7014685 C77.2520879,48.6859121 77.2491018,48.6703557 77.2461158,48.6547992 C77.0042457,47.3060562 76.6503988,45.9899817 76.2278727,44.692575 C75.8979142,43.679851 75.6679883,42.4820054 74.8662339,41.7446303 C74.4466939,41.3557194 73.56133,41.497283 73.0342922,41.7104062 C68.6328544,43.4947294 64.249333,45.3303888 59.8882069,47.2204958 C59.7030718,47.3013893 59.4641878,47.7463034 59.5044994,47.9500927 C60.0524396,50.7409173 61.8216743,56.1965594 62.8578336,56.4750196 C63.2863318,56.5885816 63.9313186,56.2852311 64.3284633,56.1607796 C68.2625842,54.941155 72.607287,53.1148294 76.4368962,51.5809648 C77.8851305,51.0007098 77.5193394,50.1731074 77.2550739,48.7014685" id="Fill-82" fill="#310F57" mask="url(#mask-6)"></path>
                    <path d="M75.3475339,41.321768 C74.8991846,39.3860255 74.6930643,36.5064727 75.5927719,34.0522554 C76.7061224,31.0174706 76.8400253,27.580635 75.7417201,24.2710896 C73.2020774,16.6134971 65.0445283,12.5821231 57.6422521,15.3995832 C50.5830083,18.0866484 46.8277072,26.1819951 49.2214107,33.5430946 C50.3031661,36.8697154 52.4426045,39.5179727 55.1221683,41.2270765 C57.3037334,42.6210595 58.9857954,44.7104817 59.8177992,47.2143732 L59.9125844,47.5 C65.1047094,45.8980062 70.4457827,43.7092356 75.3475339,41.321768" id="Fill-83" fill="#FFCE0A" mask="url(#mask-6)"></path>
                    <path d="M61.2836763,38.3809503 C61.1345467,38.3809503 60.9901766,38.4117657 60.8632578,38.4822008 C60.5602393,38.6538863 60.3984178,39.061823 60.4761556,39.4521508 C60.5713447,39.9290552 60.948928,40.3076439 61.2487736,40.5424276 C61.9262025,41.0706909 62.6781962,41.2394416 63.5618682,41.1719413 C63.4032197,40.7566677 63.2271199,40.3472636 63.0319823,39.946664 C62.7971826,39.4609552 62.5211343,38.9679095 62.1023023,38.6597559 C61.8801945,38.4968747 61.5740029,38.3809503 61.2836763,38.3809503 M64.8374018,44.5 C64.6057751,44.5 64.402705,44.3444558 64.3662159,44.1258135 C64.245643,43.4170603 64.0774757,42.7200462 63.8633003,42.0377061 C62.752761,42.1609676 61.6358758,42.003956 60.6300446,41.2188981 C60.0303534,40.7493307 59.6511836,40.1931868 59.5353702,39.6135646 C59.3846542,38.8651916 59.7257484,38.0889381 60.3651017,37.7279582 C61.0361847,37.3508369 61.9960079,37.4491526 62.6988205,37.9671441 C63.2778874,38.3941569 63.6205681,38.9957901 63.9045489,39.5842167 C64.1330026,40.0552514 64.3376592,40.5350906 64.5201049,41.0252015 C64.9405233,40.9327554 65.3863255,40.8036244 65.8622709,40.6495476 C66.1097625,40.5673733 66.3842243,40.6906348 66.4730675,40.9210163 C66.5603241,41.1528651 66.4286459,41.4052576 66.1779813,41.4859645 C65.7353521,41.6283021 65.2752716,41.7677049 64.8088451,41.874825 C65.021434,42.5659694 65.1896014,43.2717879 65.3117607,43.9893455 C65.3514228,44.2314662 65.1737365,44.4574455 64.9119666,44.4955978 C64.8865828,44.4985326 64.8627856,44.5 64.8374018,44.5" id="Fill-84" fill="#FFFFFF" mask="url(#mask-6)"></path>
                    <path d="M68.4595418,35.4343218 C68.4337687,35.4343218 68.4096063,35.4343218 68.3838332,35.4374204 C67.9456896,35.4854488 67.6138602,35.9208033 67.5107676,36.326721 C67.3819018,36.8348929 67.4914377,37.4096848 67.6299684,37.9565892 C67.7443368,38.4074367 67.8764242,38.8551857 68.0294523,39.2982867 C68.8155335,38.7792698 69.2955585,38.1394071 69.4614732,37.3864452 C69.5436251,37.0130629 69.5919498,36.4708063 69.3471048,36.0153109 C69.1618603,35.6682667 68.7978145,35.4343218 68.4595418,35.4343218 M69.2842828,43.5 C69.1199789,43.5 68.9588967,43.4194362 68.8670798,43.2738016 C68.3387302,42.4278814 67.8844783,41.5478766 67.5075459,40.6430829 C67.0887322,40.8259008 66.6264262,40.9885777 66.1222389,41.1295644 C65.8661182,41.203931 65.5955,41.0598457 65.5197914,40.811957 C65.4440828,40.5640683 65.5922784,40.3053345 65.8500099,40.2325172 C66.3364782,40.0961784 66.7762327,39.9396987 67.1676625,39.7646273 C66.9824179,39.2425118 66.8213357,38.7126497 66.6860266,38.1781397 C66.5185011,37.5165868 66.3880245,36.8085547 66.5668258,36.1067198 C66.782676,35.2515039 67.4866052,34.5945988 68.2759081,34.5093871 C69.0491027,34.4288233 69.8287406,34.8734736 70.2105055,35.5877029 C70.5874379,36.2879884 70.5278375,37.0579927 70.4118583,37.5816575 C70.1750674,38.6506775 69.490468,39.5275837 68.3693358,40.2015311 C68.7349924,41.0939304 69.1795793,41.9584422 69.7014857,42.7919679 C69.8384056,43.0135184 69.7643078,43.3001397 69.5339602,43.4333799 C69.4566407,43.4783097 69.3696563,43.5 69.2842828,43.5" id="Fill-85" fill="#FFFFFF" mask="url(#mask-6)"></path>
                    <path d="M59.6747359,12.3482789 L57.9861421,12.6813199 L55.5957553,0.854527516 L56.3511788,0.702587152 C56.4477136,0.682635387 56.5442485,0.664218373 56.6392511,0.645801359 L57.3946746,0.5 L59.6747359,12.3482789 Z M50.2097234,17.0169919 L42.1912014,8.01107213 L42.7658136,7.49846525 C42.839364,7.4340057 42.9129143,7.3680114 42.9864647,7.30355185 L43.5656738,6.79708397 L51.4999194,15.875137 L50.2097234,17.0169919 Z M68.4931181,13.433348 L66.8750101,12.8624205 L70.7869701,1.44847621 L71.5148122,1.7001754 C71.6098148,1.73240517 71.7048173,1.76463495 71.7982876,1.79839947 L72.5245974,2.05623767 L68.4931181,13.433348 Z M45.6879083,24.6999561 L34.2278421,20.9720456 L34.4653485,20.2384346 C34.4975268,20.1386757 34.5297051,20.0389169 34.564948,19.9391581 L34.8116482,19.2101513 L46.2257453,23.0823284 L45.9775128,23.81287 C45.9591252,23.8635168 45.94227,23.9156983 45.9254147,23.9663451 L45.6879083,24.6999561 Z M75.5800022,18.8264635 L74.4690852,17.521925 L83.5893304,9.63790835 L84.0934568,10.219579 C84.1593457,10.2963166 84.2237023,10.3730542 84.2895911,10.4513265 L84.7860561,11.0391362 L75.5800022,18.8264635 Z M45.6541977,33.6015128 L33.8876717,36.1952423 L33.7221834,35.444749 C33.6991989,35.3434554 33.6777467,35.2421618 33.6578268,35.142403 L33.5,34.3873054 L45.297172,31.9270993 L45.6541977,33.6015128 Z M90.5,23.1191625 L78.7871045,25.9523131 L78.6062932,25.2018198 C78.5940348,25.1465687 78.5787118,25.0928524 78.5664534,25.0376014 L78.3764483,24.2901776 L90.0571655,21.3250384 L90.2456383,22.0709274 C90.2716874,22.1691515 90.2962042,22.2689103 90.320721,22.3686692 L90.5,23.1191625 Z M41.2519019,49.5 L40.7309202,48.9336768 C40.663499,48.8615435 40.5960779,48.7878755 40.5286567,48.7126727 L40.0107395,48.1417452 L48.9547703,40.0474677 L49.4696228,40.6214646 C49.5094626,40.6659724 49.5493024,40.7089454 49.5891422,40.7519184 L50.1101239,41.3182416 L41.2519019,49.5 Z M89.6940106,38.3193379 L78.1557972,34.8369875 L78.3779806,34.0987722 C78.3933036,34.0450559 78.4101589,33.9898049 78.4254819,33.9345538 L78.6384715,33.193269 L90.2149923,36.5467003 L90.0020027,37.2864503 C89.9728891,37.3846744 89.9437754,37.4828985 89.9146617,37.5811226 L89.6940106,38.3193379 Z" id="Fill-86" fill="#FFCE0A" mask="url(#mask-6)"></path>
                    <path d="M24.9606024,82.9563711 C25.0645246,82.6219111 24.8811326,82.2385802 24.5479703,82.1026581 C24.2178646,81.9697904 23.8648349,82.130148 23.7639693,82.4676624 C22.9264788,85.1998495 22.0446687,87.8999651 21.1170105,90.5664819 C19.2296005,88.1641732 17.3009274,85.8061537 15.330991,83.4939507 C16.2311404,80.5678073 17.0762721,77.6034836 17.8663862,74.6025068 C17.9550257,74.2649923 17.7548227,73.8923519 17.4186039,73.7747564 C17.0823852,73.6556336 16.7385251,73.8327905 16.6514138,74.1733594 C15.9331283,76.9315092 15.1674664,79.6606418 14.3574848,82.3561757 C11.1893869,78.687806 7.91889519,75.1324503 4.55212261,71.69469 C4.30301506,71.4426996 3.91025039,71.4350635 3.67336898,71.673309 C3.43648757,71.9130817 3.44260064,72.3101575 3.69017992,72.5621479 C7.04014157,75.9815816 10.2938224,79.5201381 13.443581,83.1701812 C10.7125676,83.6420905 7.99378028,84.1460713 5.28721912,84.6851781 C4.95558514,84.7493212 4.74468427,85.0761451 4.81498456,85.4106051 C4.88528485,85.7435379 5.20927749,85.9619296 5.54091147,85.8977866 C8.48282578,85.3250811 11.4400228,84.7936104 14.4125024,84.30032 C16.3732692,86.6033598 18.2927728,88.9491615 20.1679566,91.3377253 C17.4155474,91.6798214 14.6738361,92.0555162 11.9428227,92.466337 C11.6081321,92.5167351 11.3819486,92.8328685 11.4384945,93.170383 C11.4950404,93.5094246 11.8098634,93.7430885 12.1445539,93.6957448 C15.113977,93.263543 18.0956263,92.8710489 21.0895017,92.5197895 C22.9539876,94.9236254 24.7726256,97.3702233 26.548472,99.8611105 C23.7792519,100.071866 21.0192014,100.31622 18.271377,100.597228 C17.9321017,100.629299 17.6952203,100.937797 17.7364835,101.279893 C17.7777467,101.621989 18.0834002,101.872452 18.4196189,101.840381 C21.4089095,101.548683 24.408898,101.299747 27.4195843,101.090518 C29.1801481,103.59515 30.8963922,106.13949 32.5667882,108.726592 C29.7883985,108.80448 27.0176501,108.919021 24.254543,109.067161 C23.9152677,109.08396 23.6646319,109.383294 23.6906124,109.728445 C23.7181212,110.075122 24.0130768,110.33933 24.3508238,110.324058 C27.3523406,110.175919 30.3645552,110.069013 33.3859394,110.003343 C37.4037538,116.246597 38.6080283,113.367797 42.0634404,120.073797 C42.2300215,120.402148 45.9803892,121.578103 46.5,117.715777 C43.0262487,110.977706 38.4414472,115.597531 34.4037653,109.32526 C35.6752836,106.510603 36.8978973,103.653185 38.0716065,100.754531 C38.2030375,100.427707 38.0517391,100.024522 37.7323312,99.8565289 C37.4129234,99.6900625 37.0476675,99.8183485 36.9177648,100.1467 C35.8479778,102.814744 34.7353993,105.446135 33.5800293,108.039345 C31.901992,105.441553 30.1765783,102.883468 28.4053167,100.366619 C29.5561018,97.5107271 30.6549259,94.6136008 31.701789,91.676767 C31.8194655,91.3453614 31.6498279,90.9528672 31.3258352,90.801673 C31.0003143,90.6504787 30.6411715,90.7970913 30.5250232,91.1284969 C29.5713845,93.8301397 28.5718978,96.4981838 27.5296196,99.1311019 C25.7446035,96.627997 23.9152677,94.1691814 22.0431404,91.7531277 C23.0686077,88.8605831 24.0421139,85.9268037 24.9606024,82.9563711" id="Fill-87" fill="#FF99EC" mask="url(#mask-6)"></path>
                    <path d="M22.4605338,80.1442285 C21.2531762,81.1742809 21.1753334,83.0396342 22.2762529,84.3344267 C23.3771724,85.6276978 25.264463,85.889395 26.5035932,84.894337 C27.7427234,83.9008005 27.842807,81.9974099 26.7101149,80.6676229 C25.5774228,79.3393575 23.6678914,79.1156977 22.4605338,80.1442285" id="Fill-88" fill="#310F57" mask="url(#mask-6)"></path>
                    <path d="M9.5588928,91.1811323 C8.30379493,92.2376904 8.14325916,94.1039022 9.19079562,95.3785057 C10.2367105,96.6531092 12.1193573,96.8791709 13.4068866,95.8610914 C14.6927944,94.8446152 14.872789,92.9367182 13.7944427,91.6252394 C12.7177179,90.3137606 10.8139907,90.1261774 9.5588928,91.1811323" id="Fill-89" fill="#310F57" mask="url(#mask-6)"></path>
                    <path d="M19.5999239,76.8089984 C20.789132,75.7542324 20.8049881,73.8424691 19.6173657,72.5608059 C18.4313288,71.2806757 16.5222534,71.1442307 15.3647575,72.2327246 C14.2072616,73.3212185 14.2151897,75.1931215 15.3679287,76.4410568 C16.5206678,77.687459 18.4107158,77.8637643 19.5999239,76.8089984" id="Fill-90" fill="#310F57" mask="url(#mask-6)"></path>
                    <path d="M3.46199366,83.2734175 C2.25265807,84.3872636 2.17636441,86.2635542 3.27369443,87.4886237 C4.37427099,88.7120813 6.2637564,88.8490956 7.50393411,87.7707121 C8.74411182,86.6923285 8.84150798,84.7757396 7.71008931,83.5152075 C6.57704737,82.2562874 4.67132926,82.1595714 3.46199366,83.2734175" id="Fill-91" fill="#310F57" mask="url(#mask-6)"></path>
                    <path d="M28.5609414,89.0628977 C27.3030278,90.0330328 27.1437982,91.8842859 28.1899365,93.2225593 C29.2344826,94.5623415 31.1149839,94.9078484 32.4031512,93.9739237 C33.6897262,93.0415077 33.8744326,91.1510267 32.7980406,89.7765429 C31.7232409,88.4035679 29.8188551,88.0942714 28.5609414,89.0628977" id="Fill-92" fill="#310F57" mask="url(#mask-6)"></path>
                    <path d="M15.6595009,99.0938513 C14.357922,100.086764 14.1196504,101.945087 15.1100174,103.266314 C16.1020053,104.585947 17.9741392,104.901511 19.3065151,103.946849 C20.6356491,102.990594 20.8966132,101.097207 19.8770702,99.7377302 C18.8559062,98.3782532 16.9610797,98.1009391 15.6595009,99.0938513" id="Fill-93" fill="#310F57" mask="url(#mask-6)"></path>
                    <path d="M1.32048216,70.3472643 C0.188017222,71.5060219 0.236138962,73.384063 1.41351752,74.5696949 C2.59089609,75.7521652 4.4804764,75.8217223 5.6450225,74.6961623 C6.81117265,73.5721832 6.78229961,71.6530403 5.57123583,70.4357915 C4.36017205,69.2169618 2.45134304,69.1900875 1.32048216,70.3472643" id="Fill-94" fill="#310F57" mask="url(#mask-6)"></path>
                </g>
            </g>
        </g>
    </g>
</svg>