<?xml version="1.0" encoding="UTF-8"?>
<svg width="477px" height="333px" viewBox="0 0 477 333" version="1.1" xmlns="http://www.w3.org/2000/svg" xmlns:xlink="http://www.w3.org/1999/xlink">
    <!-- Generator: Sketch 55.2 (78181) - https://sketchapp.com -->
    <title>Group 171</title>
    <desc>Created with Sketch.</desc>
    <defs>
        <polygon id="path-1" points="0 352 490 352 490 0 0 0"></polygon>
    </defs>
    <g id="Marshmello_landing-page" stroke="none" stroke-width="1" fill="none" fill-rule="evenodd">
        <g id="Simple_landngpage" transform="translate(-542.000000, -331.000000)">
            <g id="Group-171" transform="translate(528.000000, 331.000000)">
                <path d="M411.847091,262 L113.152909,262 C109.201274,262 106,258.805349 106,254.866255 L106,71.1337445 C106,67.1946514 109.201274,64 113.152909,64 L411.847091,64 C415.798726,64 419,67.1946514 419,71.1337445 L419,254.866255 C419,258.805349 415.798726,262 411.847091,262 Z" id="Stroke-1" stroke="#E2B3B3" stroke-width="0.443"></path>
                <path d="M428.845177,247 L130.154823,247 C126.201254,247 123,243.80538 123,239.864372 L123,56.135628 C123,52.1946199 126.201254,49 130.154823,49 L428.845177,49 C432.798746,49 436,52.1946199 436,56.135628 L436,239.864372 C436,243.80538 432.798746,247 428.845177,247" id="Fill-3" fill="#FDE6E1"></path>
                <path d="M152,61.5 C152,63.4327066 150.433094,65 148.500866,65 C146.566906,65 145,63.4327066 145,61.5 C145,59.5672934 146.566906,58 148.500866,58 C150.433094,58 152,59.5672934 152,61.5" id="Fill-5" fill="#006BE4"></path>
                <path d="M164,61.5 C164,63.4327066 162.434438,65 160.5,65 C158.567293,65 157,63.4327066 157,61.5 C157,59.5672934 158.567293,58 160.5,58 C162.434438,58 164,59.5672934 164,61.5" id="Fill-7" fill="#FC7341"></path>
                <path d="M177,61.5 C177,63.4327066 175.432707,65 173.5,65 C171.565562,65 170,63.4327066 170,61.5 C170,59.5672934 171.565562,58 173.5,58 C175.432707,58 177,59.5672934 177,61.5 Z" id="Stroke-9" stroke="#E2B3B3" stroke-width="0.303"></path>
                <path d="M387.55936,221 L293.43675,221 C291.538466,221 290,219.462136 290,217.565049 L290,165.43301 C290,163.537864 291.538466,162 293.43675,162 L387.561305,162 C389.459589,162 391,163.535922 391,165.43301 L391,217.565049 C391,219.462136 389.459589,221 387.55936,221 Z" id="Stroke-11" stroke="#E2B3B3" stroke-width="0.457"></path>
                <path d="M252.554042,220 L152.442062,220 C150.540844,220 149,218.444629 149,216.525944 L149,95.4740557 C149,93.5553714 150.540844,92 152.442062,92 L252.554042,92 C254.457208,92 256,93.5553714 256,95.4720918 L256,216.525944 C256,218.444629 254.457208,220 252.554042,220 Z" id="Stroke-13" stroke="#E2B3B3" stroke-width="0.457"></path>
                <path d="M227.962645,171 L170.033435,171 C168.357991,171 167,169.65341 167,167.988147 L167,114.011853 C167,112.34659 168.357991,111 170.033435,111 L227.962645,111 C229.638089,111 231,112.34659 231,114.011853 L231,167.988147 C231,169.65341 229.638089,171 227.962645,171 Z" id="Stroke-15" stroke="#FFFFFF" stroke-width="0.433"></path>
                <path d="M166,182 L229,182" id="Stroke-17" stroke="#FFFFFF" stroke-width="0.433"></path>
                <path d="M166,193 L199,193" id="Stroke-19" stroke="#FFFFFF" stroke-width="0.433"></path>
                <path d="M166,204 L212,204" id="Stroke-21" stroke="#FFFFFF" stroke-width="0.433"></path>
                <path d="M360.697726,144 L295.302274,144 C293.477536,144 292,142.512044 292,140.678774 L292,75.3212265 C292,73.4860161 293.477536,72 295.302274,72 L360.697726,72 C362.520535,72 364,73.4860161 364,75.3212265 L364,140.678774 C364,142.512044 362.520535,144 360.697726,144 Z" id="Stroke-23" stroke="#FFFFFF" stroke-width="0.433"></path>
                <path d="M349.563278,123 L305.436722,123 C303.536746,123 302,121.656404 302,119.999129 C302,118.343596 303.536746,117 305.436722,117 L349.563278,117 C351.461259,117 353,118.343596 353,119.999129 C353,121.656404 351.461259,123 349.563278,123 Z" id="Stroke-25" stroke="#FFFFFF" stroke-width="0.433"></path>
                <path d="M349.563278,100 L305.436722,100 C303.536746,100 302,98.6564043 302,96.9991287 C302,95.341853 303.536746,94 305.436722,94 L349.563278,94 C351.461259,94 353,95.341853 353,96.9991287 C353,98.6564043 351.461259,100 349.563278,100 Z" id="Stroke-27" stroke="#FFFFFF" stroke-width="0.433"></path>
                <path d="M320,97.5 C320,100.536775 317.538249,103 314.49905,103 C311.46365,103 309,100.536775 309,97.5 C309,94.461326 311.46365,92 314.49905,92 C317.538249,92 320,94.461326 320,97.5" id="Fill-29" fill="#006BE4"></path>
                <path d="M56.8891458,68 L34.1108542,68 C32.9446475,68 32,68.8919425 32,69.9900062 L32,81.9094316 C32,83.0093691 32.9446475,83.9013117 34.1108542,83.9013117 L43.3941813,83.9013117 L51.1970906,92 L51.1970906,84.1973766 L56.9314435,84.0886946 C58.0815367,84.0662086 59,83.1817614 59,82.0949407 L59,69.9900062 C59,68.8919425 58.0553525,68 56.8891458,68 Z" id="Stroke-31" stroke="#E2B3B3" stroke-width="0.443"></path>
                <path d="M27,240.999064 C27,244.315026 24.3137162,247 20.9990508,247 C17.6862838,247 15,244.315026 15,240.999064 C15,237.684974 17.6862838,235 20.9990508,235 C24.3137162,235 27,237.684974 27,240.999064 Z" id="Stroke-33" stroke="#E2B3B3" stroke-width="0.49"></path>
                <path d="M490,167.998929 C490,170.761833 487.760643,173 484.997828,173 C482.237185,173 480,170.761833 480,167.998929 C480,165.238167 482.237185,163 484.997828,163 C487.760643,163 490,165.238167 490,167.998929 Z" id="Stroke-35" stroke="#E2B3B3" stroke-width="0.49"></path>
                <mask id="mask-2" fill="white">
                    <use xlink:href="#path-1"></use>
                </mask>
                <g id="Clip-38"></g>
                <polygon id="Stroke-37" stroke="#E2B3B3" stroke-width="0.49" mask="url(#mask-2)" points="269 11 279 11 279 1 269 1"></polygon>
                <path d="M337.631169,182 L365,182 L365,154.600778 C365,152.611832 363.373498,151 361.368831,151 L337.631169,151 C335.626502,151 334,152.611832 334,154.600778 L334,178.399222 C334,180.388168 335.626502,182 337.631169,182" id="Fill-39" fill="#006BE4" mask="url(#mask-2)"></path>
                <polygon id="Fill-40" fill="#006BE4" mask="url(#mask-2)" points="366 177 366 188 356 177"></polygon>
                <path d="M346.106779,171.962422 C348.956325,172.00709 351.843558,172.043991 354.466983,171.875026 C355.298187,171.822589 356.012144,170.599055 355.005067,170.212574 C355.430091,170.010594 355.859303,169.816382 356.045643,169.373579 C356.221516,168.956024 356.007957,168.388926 355.541058,168.28211 C356.531385,168.509337 356.918723,167.054691 356.148235,166.582757 C356.55651,166.260366 356.895692,165.835042 356.981534,165.343686 C357.067376,164.852331 356.851724,164.298827 356.380638,164.059947 C356.072862,163.904577 355.704368,163.898751 355.352624,163.896809 C354.167581,163.887098 352.980445,163.87933 351.795402,163.871561 C352.115741,162.148903 352.212052,160.272818 351.26988,158.761851 C350.985135,158.307395 350.223023,157.761661 349.617939,158.111242 C349.048449,158.439459 349.205477,159.255149 349.234789,159.771752 C349.354131,161.911965 348.041372,164.067715 346,165.073732 C346,165.073732 346.136091,169.635765 346.106779,171.962422" id="Fill-41" fill="#FDFDFD" mask="url(#mask-2)"></path>
                <polygon id="Fill-42" fill="#FDFDFD" mask="url(#mask-2)" points="343 172 347 172 347 166 343 166"></polygon>
                <path d="M181.262841,127 L145.35212,127 C141.291591,127 138,123.601194 138,119.408405 L138,81.9260213 C138,78.6525811 140.568906,76 143.737159,76 L181.262841,76 C184.431094,76 187,78.6525811 187,81.9260213 L187,121.073979 C187,124.347419 184.431094,127 181.262841,127" id="Fill-43" fill="#13CA92" mask="url(#mask-2)"></path>
                <polyline id="Stroke-44" stroke="#FFFFFF" stroke-width="0.478" mask="url(#mask-2)" points="143 111 156.937292 99.9284294 162.018679 105.528827 176 95"></polyline>
                <polyline id="Stroke-45" stroke="#FFFFFF" stroke-width="0.478" mask="url(#mask-2)" points="174 94 176 94.7737705 175.715789 98"></polyline>
                <path d="M463.611432,116 L383.388568,116 C380.96465,116 379,114.032081 379,111.604129 L379,32.3978375 C379,29.9679192 380.96465,28 383.388568,28 L463.611432,28 C466.03535,28 468,29.9679192 468,32.3978375 L468,111.604129 C468,114.032081 466.03535,116 463.611432,116" id="Fill-46" fill="#13CA92" mask="url(#mask-2)"></path>
                <path d="M408,78 L427,78" id="Stroke-47" stroke="#FFFFFF" stroke-width="0.433" mask="url(#mask-2)"></path>
                <path d="M396,88 L453,88" id="Stroke-48" stroke="#FFFFFF" stroke-width="0.433" mask="url(#mask-2)"></path>
                <path d="M396,99 L413,99" id="Stroke-49" stroke="#FFFFFF" stroke-width="0.433" mask="url(#mask-2)"></path>
                <path d="M416,99 L428,99" id="Stroke-50" stroke="#FFFFFF" stroke-width="0.433" mask="url(#mask-2)"></path>
                <path d="M396,78 L403,78" id="Stroke-51" stroke="#FFFFFF" stroke-width="0.433" mask="url(#mask-2)"></path>
                <path d="M418,47.2142617 L418,58.784145 C418,59.7181039 419.05557,60.3027622 419.900416,59.8357827 L430.366365,54.0489732 C431.211212,53.5819937 431.211212,52.416413 430.366365,51.9494335 L419.900416,46.1644919 C419.05557,45.6975124 418,46.2803028 418,47.2142617 Z" id="Stroke-52" stroke="#FFFFFF" stroke-width="0.433" mask="url(#mask-2)"></path>
                <path d="M438,52.4990152 C438,61.6121755 430.612175,69 421.499015,69 C412.385855,69 405,61.6121755 405,52.4990152 C405,43.3878245 412.385855,36 421.499015,36 C430.612175,36 438,43.3878245 438,52.4990152 Z" id="Stroke-53" stroke="#FFFFFF" stroke-width="0.393" mask="url(#mask-2)"></path>
                <path d="M421.429494,286 L387.570506,286 C385.59888,286 384,284.433123 384,282.500961 C384,280.566877 385.59888,279 387.570506,279 L421.429494,279 C423.40112,279 425,280.566877 425,282.500961 C425,284.433123 423.40112,286 421.429494,286" id="Fill-54" fill="#000000" mask="url(#mask-2)"></path>
                <polygon id="Fill-55" fill="#171D21" mask="url(#mask-2)" points="399 329 445 329 445 325 399 325"></polygon>
                <path d="M402.951896,328.926702 C403.269695,330.833255 401.979291,332.635053 400.072497,332.952812 C398.165703,333.267079 396.363678,331.978584 396.047625,330.072031 C395.731572,328.165478 397.021976,326.36368 398.927024,326.047667 C400.833818,325.731655 402.635843,327.020149 402.951896,328.926702" id="Fill-56" fill="#171D21" mask="url(#mask-2)"></path>
                <polygon id="Fill-57" fill="#171D21" mask="url(#mask-2)" points="419 329 424 329 424 283 419 283"></polygon>
                <path d="M447.952384,328.926702 C448.268379,330.833255 446.978209,332.635053 445.073506,332.952812 C443.167057,333.267079 441.365358,331.978584 441.047616,330.072031 C440.731621,328.165478 442.021791,326.36368 443.926494,326.047667 C445.832943,325.731655 447.634642,327.020149 447.952384,328.926702" id="Fill-58" fill="#171D21" mask="url(#mask-2)"></path>
                <path d="M444.560512,285 L404.130469,285 C401.373063,285 399.389874,282.336564 400.172033,279.677049 L419.477845,213.973092 C419.995975,212.209227 421.607936,211 423.438266,211 L463.868309,211 C466.625715,211 468.608904,213.665395 467.828731,216.320992 L448.520933,282.024948 C448.000818,283.788813 446.390842,285 444.560512,285" id="Fill-59" fill="#171D21" mask="url(#mask-2)"></path>
                <path d="M438.855513,285 L404.078828,285 C401.355896,285 399.397502,282.336564 400.169882,279.677049 L419.234327,213.973092 C419.74598,212.209227 421.335827,211 423.143274,211 L457.921919,211 C460.642891,211 462.601285,213.665395 461.830865,216.320992 L442.76446,282.024948 C442.252807,283.788813 440.660999,285 438.855513,285" id="Fill-60" fill="#F7A7AB" mask="url(#mask-2)"></path>
                <path d="M445.46069,286 L403.53931,286 C401.584911,286 400,284.433123 400,282.500961 C400,280.566877 401.584911,279 403.53931,279 L445.46069,279 C447.415089,279 449,280.566877 449,282.500961 C449,284.433123 447.415089,286 445.46069,286" id="Fill-61" fill="#171D21" mask="url(#mask-2)"></path>
                <polygon id="Fill-62" fill="#F5A5A9" mask="url(#mask-2)" points="393 311.314866 383.453202 317 376 303.685134 385.550693 298"></polygon>
                <path d="M392.512628,309 L380.474876,316.126334 L374.098759,325.637379 C372.700776,327.863241 372.631071,330.706627 373.922559,333 L398,318.745346 L392.512628,309 Z" id="Fill-63" fill="#231B22" mask="url(#mask-2)"></path>
                <path d="M380,317 L380.532637,312.004425 C380.532637,312.004425 383.942559,308.932072 386,313.534135 L380,317 Z" id="Fill-64" fill="#231B22" mask="url(#mask-2)"></path>
                <path d="M373.114635,246.064256 C373.114635,246.064256 343.624467,244.596475 346.153884,255.691115 C348.685271,266.785755 367.850926,312 367.850926,312 L392.518654,305.743026 L373.859277,271.573009 L410,258.211743 L373.114635,246.064256 Z" id="Fill-65" fill="#F16532" mask="url(#mask-2)"></path>
                <polygon id="Fill-66" fill="#F5A5A9" mask="url(#mask-2)" points="367 324 378 324 378 308 367 308"></polygon>
                <path d="M379,322 L364.49798,322 L353.902215,326.855681 C351.506756,328.03952 350,330.41108 350,333 L379,333 L379,322 Z" id="Fill-67" fill="#231B22" mask="url(#mask-2)"></path>
                <path d="M363,322.786291 L365.871706,318.063115 C365.871706,318.063115 370.368638,317.065808 369.975667,323 L363,322.786291 Z" id="Fill-68" fill="#231B22" mask="url(#mask-2)"></path>
                <path d="M401.028908,253 L366.560026,253.528498 C363.584026,253.571561 360.818491,255.241225 359.577343,257.932652 C358.603702,260.046646 357.883797,263.156957 358.015583,267.723575 C358.381436,280.431026 362.138316,312 362.138316,312 L382.83066,312 L380.049389,278.630217 L418.009612,278.162398 C425.800712,278.068443 433.088272,273.750415 436.380952,266.723343 C437.753885,263.791155 438.461988,260.463572 437.667339,256.955909 L401.028908,253 Z" id="Fill-69" fill="#FC7341" mask="url(#mask-2)"></path>
                <path d="M366,245.714502 C366.007829,249.431232 363.574994,249.991788 359.986562,250 C356.394206,250.008036 353.007857,249.459666 353,245.742936 C352.994123,242.026206 355.897829,239.006109 359.488223,239 C363.078617,238.991892 365.994095,241.999803 366,245.714502" id="Fill-70" fill="#E7ABA0" mask="url(#mask-2)"></path>
                <path d="M370.596568,248.984629 L363.416559,249 C361.541393,249.003834 360.003757,247.434838 360,245.514403 C359.996257,243.592048 361.528267,242.019211 363.403432,242.015371 L370.583441,242 C372.458607,241.996166 373.996243,243.565162 374,245.485597 C374.003743,247.407952 372.471733,248.980789 370.596568,248.984629" id="Fill-71" fill="#E7ABA0" mask="url(#mask-2)"></path>
                <path d="M369.498936,251 L367,238.715194 L395.903121,231.942574 L401.507625,200.200453 C402.129913,196.922937 405.990838,193.451357 409.262742,194.072752 C412.534645,194.694147 415.538456,198.502888 414.918125,201.780405 L411.311595,243.14729 C410.871297,245.476052 409.112062,247.330436 406.814685,247.891064 L369.498936,251 Z" id="Fill-72" fill="#0458AF" mask="url(#mask-2)"></path>
                <path d="M433.946751,193.829541 C441.470407,194.165022 444.765845,202.089781 445,207.387257 L437.750803,258 C406.447018,257.724984 402,254.060051 402,254.060051 L402,203.055263 C402.381941,198.145931 404.596813,193.527218 410.101366,193.061056 L421.348465,192 L433.946751,193.829541 Z" id="Fill-73" fill="#006BE4" mask="url(#mask-2)"></path>
                <path d="M412.580276,193.106332 L420.827798,192 L430,193.304015 C430,193.304015 429.208819,200.052987 417.670927,198.858217 C415.93347,198.677875 414.2608,198.117773 413.076973,197.16924 C411.904926,196.232847 411.614368,194.94964 412.580276,193.106332" id="Fill-74" fill="#F5A5A9" mask="url(#mask-2)"></path>
                <polygon id="Fill-75" fill="#0458AF" mask="url(#mask-2)" points="410 239 426.070764 233.115722 427.916201 216 429 235.775328"></polygon>
                <path d="M439,248 C438.884081,247.993343 438.159095,252.89455 438.159095,252.89455 C438.159095,252.89455 403.106335,255.565058 398,252.604676 L439,248 Z" id="Fill-76" fill="#0458AF" mask="url(#mask-2)"></path>
                <path d="M395.982494,249.252913 C396.229672,252.95294 393.83636,253.680383 390.256199,253.933671 C386.676039,254.186958 383.260664,253.870855 383.015448,250.172854 C382.770231,246.474853 385.473498,243.27127 389.053658,243.015956 C392.63578,242.762668 395.737278,245.554912 395.982494,249.252913" id="Fill-77" fill="#E7ABA0" mask="url(#mask-2)"></path>
                <path d="M400.82068,252.522085 L393.648487,252.992406 C391.774705,253.114474 390.137492,251.750185 390.007942,249.958657 C389.88027,248.167129 391.307198,246.599992 393.18098,246.477924 L400.353173,246.007603 C402.226956,245.885535 403.864168,247.248029 403.991841,249.041352 C404.121391,250.83288 402.692585,252.400017 400.82068,252.522085" id="Fill-78" fill="#E7ABA0" mask="url(#mask-2)"></path>
                <path d="M400.374046,254 L397,239.996045 L429.993776,234.560467 L428.346682,206.869977 C427.013036,200.722668 432.752907,195.350181 437.177099,196.063884 C441.40963,195.998822 444.899472,199.234144 445.720023,205.503689 L448,243.320086 C447.710511,245.683981 446.045449,247.663422 443.745508,248.379097 L400.374046,254 Z" id="Fill-79" fill="#006BE4" mask="url(#mask-2)"></path>
                <path d="M342.827907,212.011638 L379.779348,215.499978 C380.995401,215.612633 381.962717,216.56328 382.104853,217.776787 L385.98201,251.112673 C386.173499,252.747153 384.809387,254.142489 383.172848,253.98833 L345.607458,250.442675 C344.373637,250.328043 343.396452,249.35368 343.278005,248.120408 L340.012822,214.841838 C339.852919,213.221193 341.211109,211.859455 342.827907,212.011638" id="Fill-80" fill="#0C0005" mask="url(#mask-2)"></path>
                <path d="M340.829613,212.011913 L377.781265,215.500231 C378.995351,215.612885 379.964646,216.563525 380.106783,217.777025 L383.981988,251.112692 C384.173478,252.747161 382.811332,254.142488 381.172809,253.988331 L343.607205,250.442698 C342.375352,250.326091 341.39816,249.351734 341.277739,248.11847 L338.012538,214.842095 C337.854608,213.22146 339.210831,211.857755 340.829613,212.011913" id="Fill-81" fill="#243033" mask="url(#mask-2)"></path>
                <path d="M384.828655,252 L410.700884,254.300598 C411.489795,254.37118 412.068329,255.031219 411.993484,255.775193 C411.920661,256.51726 411.220756,257.062841 410.429822,256.994166 L383,254.649693 L384.828655,252 Z" id="Fill-82" fill="#0C0005" mask="url(#mask-2)"></path>
                <path d="M360.984365,231.827438 C360.80327,233.752845 359.096538,235.164013 357.172833,234.984628 C355.247421,234.801825 353.83454,233.095097 354.015635,231.16969 C354.19673,229.245991 355.903462,227.833114 357.828875,228.015917 C359.752579,228.197011 361.165459,229.903739 360.984365,231.827438" id="Fill-83" fill="#FFFFFF" mask="url(#mask-2)"></path>
                <path d="M407.088312,147.008529 C410.923094,146.827992 414.215403,149.534109 414.797327,153.183678 C415.685008,152.537239 416.767978,152.133456 417.951553,152.07716 C421.137341,151.927683 423.772766,153.296271 424.54209,156.417818 C442.881575,154.453263 425.684239,181 425.684239,181 L424.291567,170.771498 L423.78263,159.308355 C423.125746,161.593219 421.048573,163.315117 418.503888,163.437416 C415.832955,163.561657 413.503286,161.876643 412.728045,159.481127 C411.463593,160.737123 409.739519,161.556335 407.802402,161.647574 C403.693426,161.8417 400.205827,158.720153 400.008565,154.678449 C399.813275,150.636745 402.981309,147.202655 407.088312,147.008529" id="Fill-84" fill="#0C0005" mask="url(#mask-2)"></path>
                <path d="M427,172 L426.62067,192.289181 C426.550279,195.889587 423.777654,198.81931 420.275698,198.992001 C416.519553,199.17674 413.355866,196.138583 413.289385,192.277133 L413,175.236952 L427,172 Z" id="Fill-85" fill="#F5A5A9" mask="url(#mask-2)"></path>
                <path d="M426,177 C426,177 426,189.371071 414.099437,187.874375 L414,182.176852 L426,177 Z" id="Fill-86" fill="#0C0005" mask="url(#mask-2)"></path>
                <path d="M415.278714,186 L415.699649,186 C421.933036,186.005906 426.988196,180.947595 426.99213,174.703034 L427,161.938039 C427.001965,160.322217 425.693917,159.011824 424.080987,159.009854 L409.228257,159 C406.346619,158.998031 404.009837,161.335061 404.00787,164.221865 L404,174.687269 C403.996068,180.931831 409.045328,185.996054 415.278714,186" id="Fill-87" fill="#F5A5A9" mask="url(#mask-2)"></path>
                <path d="M415.066266,170.071 C415.106266,170.587 415.556266,170.973 416.070266,170.933 C416.586266,170.893 416.972266,170.445 416.934266,169.929 C416.892266,169.413 416.442266,169.027 415.928266,169.067 C415.412266,169.107 415.024266,169.555 415.066266,170.071" id="Fill-88" fill="#0C0005" mask="url(#mask-2)"></path>
                <path d="M406.066121,170.071867 C406.108121,170.587867 406.556121,170.973867 407.072121,170.933867 C407.588121,170.893867 407.972121,170.445867 407.934121,169.929867 C407.894121,169.413867 407.444121,169.027867 406.930121,169.065867 C406.414121,169.107867 406.026121,169.555867 406.066121,170.071867" id="Fill-89" fill="#0C0005" mask="url(#mask-2)"></path>
                <path d="M409.284404,171 L409,172.386761 C409,172.386761 409.152294,173.263393 411,172.920417" id="Stroke-90" stroke="#C3707A" stroke-width="0.402" stroke-linecap="round" stroke-linejoin="round" mask="url(#mask-2)"></path>
                <path d="M418.279499,166.925428 C418.223039,166.935428 418.162547,166.939428 418.10407,166.935428 L413.833289,166.779428 C413.355397,166.759428 412.984375,166.363428 413.000507,165.887428 C413.018654,165.415428 413.417906,165.049428 413.897814,165.063428 L418.168596,165.221428 C418.646488,165.241428 419.017509,165.637428 418.999362,166.111428 C418.985247,166.525428 418.674718,166.859428 418.279499,166.925428" id="Fill-91" fill="#0C0005" mask="url(#mask-2)"></path>
                <path d="M408.335729,166.893067 C408.283676,166.903067 408.227904,166.907067 408.173991,166.905067 L405.766516,166.807067 C405.327779,166.789067 404.983854,166.393067 405.000586,165.921067 C405.015458,165.445067 405.387269,165.077067 405.824147,165.095067 L408.231622,165.191067 C408.674077,165.209067 409.016143,165.605067 408.999412,166.079067 C408.986398,166.495067 408.700104,166.829067 408.335729,166.893067" id="Fill-92" fill="#0C0005" mask="url(#mask-2)"></path>
                <path d="M408,177.598578 C408,177.598578 410.65535,179.310578 414,177.734578" id="Stroke-93" stroke="#C3707A" stroke-width="0.402" stroke-linecap="round" stroke-linejoin="round" mask="url(#mask-2)"></path>
                <path d="M425.696079,173 C425.696079,173 419.206591,171.488316 420.437798,161.397625 L404,161.106606 L404.396591,157 L422.627926,157.252621 C425.23043,157.291019 427.241007,159.600985 426.976613,162.250474 L425.696079,173 Z" id="Fill-94" fill="#0C0005" mask="url(#mask-2)"></path>
                <path d="M424,172.497155 C423.998105,174.431589 425.563145,175.998102 427.498104,176 C429.429269,176.001895 430.998103,174.433486 431,172.502845 C431,170.568411 429.43496,169.001898 427.501898,169 C425.568836,168.998105 424,170.564618 424,172.497155" id="Fill-95" fill="#F5A5A9" mask="url(#mask-2)"></path>
                <path d="M278.786701,105.786701 C275.109039,109.462419 269.762717,110.075039 266.843536,107.155858 C263.924355,104.236677 264.538919,98.8903548 268.212692,95.2126922 C271.88841,91.5389193 277.234732,90.9243549 280.155858,93.843536 C283.075039,96.7627171 282.462419,102.109039 278.786701,105.786701" id="Fill-96" fill="#171223" mask="url(#mask-2)"></path>
                <path d="M273,106.5 C273,109.538787 270.537341,112 267.499069,112 C264.462659,112 262,109.538787 262,106.5 C262,103.463076 264.462659,101 267.499069,101 C270.537341,101 273,103.463076 273,106.5" id="Fill-97" fill="#FC7341" mask="url(#mask-2)"></path>
                <path d="M242.011817,116.489501 C242.357971,124.906159 250.513598,132.323967 259.215468,131.989082 C267.915337,131.654196 275.332636,123.884081 274.988483,115.467423 C274.64433,107.04883 267.429121,99.5632705 257.550728,101.235762 C248.972913,102.689513 241.665663,108.070908 242.011817,116.489501" id="Fill-98" fill="#171223" mask="url(#mask-2)"></path>
                <path d="M264.994474,140.147704 L264.306731,122 L253,122.497383 L253.687743,140.643152 C253.826464,143.735829 256.469977,146.131782 259.59022,145.994373 C262.712418,145.856964 265.131242,143.240381 264.994474,140.147704" id="Fill-99" fill="#A7614E" mask="url(#mask-2)"></path>
                <path d="M266,123 C266,123 265.370135,136.797159 255.277216,137 L255,130.115341 L266,123 Z" id="Fill-100" fill="#171223" mask="url(#mask-2)"></path>
                <path d="M256.143193,133.988316 L256.143193,133.988316 C249.917523,134.227167 244.677601,130.791989 244.430662,124.772176 L244.005044,114.420038 C243.822349,109.978969 248.646691,105.104861 251.354988,105 L261.449368,107.324425 C264.155657,107.219564 266.462427,109.277952 266.568832,111.899483 L266.992443,122.210842 C267.239381,128.230656 261.389139,133.786361 256.143193,133.988316" id="Fill-101" fill="#A7614E" mask="url(#mask-2)"></path>
                <path d="M255.112013,121.098193 C255.166013,121.588193 255.608013,121.942193 256.098013,121.888193 C256.588013,121.832193 256.942013,121.390193 256.888013,120.900193 C256.832013,120.410193 256.392013,120.056193 255.902013,120.112193 C255.410013,120.166193 255.058013,120.608193 255.112013,121.098193" id="Fill-102" fill="#231B22" mask="url(#mask-2)"></path>
                <path d="M246.112013,121.1 C246.166013,121.59 246.608013,121.942 247.098013,121.888 C247.588013,121.832 247.942013,121.392 247.888013,120.9 C247.832013,120.41 247.392013,120.058 246.902013,120.112 C246.410013,120.168 246.058013,120.61 246.112013,121.1" id="Fill-103" fill="#231B22" mask="url(#mask-2)"></path>
                <path d="M250.131179,122 L250,124.961568 C250,124.961568 250.193916,126.511547 252,125.824205" id="Stroke-104" stroke="#8C453A" stroke-width="0.399" stroke-linecap="round" stroke-linejoin="round" mask="url(#mask-2)"></path>
                <path d="M258.309156,117.807 C258.254226,117.817 258.192959,117.823 258.133804,117.823 L253.861979,117.811 C253.384515,117.811 252.997896,117.443 253,116.991 C253,116.539 253.386628,116.177 253.866205,116.177 L258.140142,116.187 C258.617606,116.187 259,116.555 259,117.009 C259,117.403 258.704226,117.731 258.309156,117.807" id="Fill-105" fill="#231B22" mask="url(#mask-2)"></path>
                <path d="M248.363195,117.804004 C248.312562,117.816004 248.256087,117.820004 248.20156,117.820004 L245.794554,117.814004 C245.354438,117.812004 244.998061,117.446004 245,116.994004 C245,116.542004 245.358332,116.178004 245.798448,116.180004 L248.205454,116.184004 C248.647518,116.186004 249,116.554004 249,117.006004 C249,117.400004 248.727362,117.728004 248.363195,117.804004" id="Fill-106" fill="#231B22" mask="url(#mask-2)"></path>
                <path d="M249,127 L255,127.001612 C255,127.001612 254.439004,129.208055 251.385062,128.984026 C249.300415,128.832524 249,127 249,127" id="Fill-107" fill="#FFFFFF" mask="url(#mask-2)"></path>
                <path d="M262,113.216532 C262,113.216532 262.122046,119.475955 265.625486,120 L268,113 L262,113.216532 Z" id="Fill-108" fill="#171223" mask="url(#mask-2)"></path>
                <path d="M270.997222,120.359691 C271.073456,122.291968 269.571304,123.920973 267.639472,123.997225 C265.707639,124.073476 264.080741,122.569246 264.002775,120.636968 C263.926541,118.706424 265.430425,117.077419 267.360525,117.0029 C269.292358,116.924916 270.920988,118.429146 270.997222,120.359691" id="Fill-109" fill="#A7614E" mask="url(#mask-2)"></path>
                <path d="M261.913939,101.027415 C261.913939,101.027415 240.804683,99.7866235 241.001366,114 L270,114 L266.080398,104.339288 L261.913939,101.027415 Z" id="Fill-110" fill="#171223" mask="url(#mask-2)"></path>
                <polygon id="Fill-111" fill="#A7614E" mask="url(#mask-2)" points="269.245376 323 261 323 262.905055 293 273 293"></polygon>
                <path d="M259.588371,322 L274.072576,322 L284.250613,326.855963 C286.55079,328.041307 288,330.411997 288,333 L259,332.658226 L259.588371,322 Z" id="Fill-112" fill="#231B22" mask="url(#mask-2)"></path>
                <path d="M274,322.786882 L271.126485,318.06314 C271.126485,318.06314 266.631641,317.065661 267.024307,323 L274,322.786882 Z" id="Fill-113" fill="#231B22" mask="url(#mask-2)"></path>
                <path d="M275.131361,179 C275.131361,179 292.435939,191.140664 285.255222,231.617366 L275.131361,300 L260,300 L260.876807,191.828831 L260,179 L275.131361,179 Z" id="Fill-114" fill="#231B22" mask="url(#mask-2)"></path>
                <polygon id="Fill-115" fill="#A7614E" mask="url(#mask-2)" points="217 323 225.5 323 234 293 223.593315 293"></polygon>
                <path d="M226.411629,322 L211.925449,322 L201.749387,326.855963 C199.447236,328.041307 198,330.411997 198,333 L227,332.658226 L226.411629,322 Z" id="Fill-116" fill="#231B22" mask="url(#mask-2)"></path>
                <path d="M210,322.786882 L212.874254,318.06314 C212.874254,318.06314 217.368444,317.065661 216.975678,323 L210,322.786882 Z" id="Fill-117" fill="#231B22" mask="url(#mask-2)"></path>
                <path d="M246.962848,179 C246.962848,179 239.383147,185.904333 233.812993,216.259522 C228.240888,246.614712 218,298.902117 218,298.902117 L232.246326,300 L262.939726,205.62317 L265,179 L246.962848,179 Z" id="Fill-118" fill="#231B22" mask="url(#mask-2)"></path>
                <polygon id="Fill-119" fill="#111012" mask="url(#mask-2)" points="262 215.491579 254.11649 205 251 245"></polygon>
                <path d="M227,162.998559 C227.509744,163.016486 228.578869,162.863115 229.080976,162.761531 L259.003117,156.148642 C263.260526,155.487353 269.48818,148.970073 267.678304,144.896772 C266.345716,141.905038 263.134522,140.361366 260.091333,141.249724 L229.491443,152.043473 L227,162.998559 Z" id="Fill-120" fill="#A7614E" mask="url(#mask-2)"></path>
                <path d="M229.292468,152.755599 L201.826214,134 L198,138.868197 L220.637609,161.320385 C224.584193,164.771985 232.047184,162.592755 233.702776,157.615893 C234.849259,154.166269 232.530641,154.401381 229.292468,152.755599" id="Fill-121" fill="#A7614E" mask="url(#mask-2)"></path>
                <path d="M202.527883,135.32848 C201.243311,138.380595 197.726439,139.813414 194.672012,138.529014 C191.619488,137.242711 190.186477,133.72631 191.471049,130.674195 C192.755621,127.620178 196.274397,126.185455 199.32692,127.471758 C202.381347,128.758061 203.814359,132.276365 202.527883,135.32848" id="Fill-122" fill="#A7614E" mask="url(#mask-2)"></path>
                <path d="M198,126.721549 L193.443077,123.220219 C193.079255,122.897683 192.514415,122.933903 192.200431,123.299559 C191.929641,123.615197 191.932963,124.080891 192.21206,124.394803 L196.425096,129 L198,126.721549 Z" id="Fill-123" fill="#A7614E" mask="url(#mask-2)"></path>
                <path d="M248,142 C242.124709,143.374261 234,147.024891 234,147.024891 L243.087652,160 L246.204294,159.17022 L248,142 Z" id="Fill-124" fill="#F8C22D" mask="url(#mask-2)"></path>
                <path d="M243,159 C243,159 242.031199,154.010962 243,148 L238,152.059086 L243,159 Z" id="Fill-125" fill="#EBB023" mask="url(#mask-2)"></path>
                <path d="M301.221418,182 L304,176.947048 L289.99909,153.817749 C288.194484,150.720841 279.911758,145.067229 277.431653,147.662937 C275.611338,149.566326 275.540646,155.446161 277.141031,157.536769 L294.317182,180.295531 L301.221418,182 Z" id="Fill-126" fill="#A7614E" mask="url(#mask-2)"></path>
                <path d="M295.180674,181.673592 L303.031571,214 L309,213.345913 L305.244563,180.195041 C305.181877,176.421309 301.411243,173.934211 298.062312,175.451929 C295.741045,176.50356 294.513927,179.151243 295.180674,181.673592" id="Fill-127" fill="#A7614E" mask="url(#mask-2)"></path>
                <path d="M272.858605,142 C272.858605,142 282.614067,143.443326 289,152.077545 L275.057255,166 C275.057255,166 266.061935,157.207392 272.06501,148.858274 L272.858605,142 Z" id="Fill-128" fill="#F8C22D" mask="url(#mask-2)"></path>
                <path d="M301.28863,213.286508 C303.891633,211.236184 307.663766,211.684511 309.71409,214.289447 C311.764414,216.89245 311.314154,220.664583 308.711151,222.714907 C306.108148,224.763299 302.336015,224.314971 300.285691,221.711968 C298.237299,219.108964 298.683694,215.336832 301.28863,213.286508" id="Fill-129" fill="#A7614E" mask="url(#mask-2)"></path>
                <path d="M259.32519,139.011241 C259.32519,139.011241 252.511148,138.502775 242.375332,144.325401 C242.375332,144.325401 240.339155,161.623131 245.751978,168.023469 L246.528038,179 L273.864559,178.875357 C273.864559,178.875357 275.379444,159.294476 281,154.348311 L279.126481,144.598429 C279.126481,144.598429 270.797553,138.80548 259.32519,139.011241" id="Fill-130" fill="#F8C22D" mask="url(#mask-2)"></path>
                <path d="M249,142.286669 C249,142.286669 259.35645,137.496748 273,141.781939 L268.364653,144.225367 C262.452647,147.342325 254.263734,146.138995 249,142.286669" id="Fill-131" fill="#A7614E" mask="url(#mask-2)"></path>
                <path d="M276,162.455983 L275.242281,163.283587 C275.242281,163.283587 272.072879,160.789146 270,157 L273.695132,176 L276,162.455983 Z" id="Fill-132" fill="#EBB023" mask="url(#mask-2)"></path>
                <path d="M107.147079,211 C107.147079,211 113.275641,219.070022 110.07407,228.8351 C106.874367,238.600177 98,228.131749 98,228.131749 L107.147079,211 Z" id="Fill-133" fill="#F5A5A9" mask="url(#mask-2)"></path>
                <path d="M109.650765,139.992745 C109.650765,139.992745 108.906612,136.915495 102,134 L106.869566,171.805936 L107.333428,169.516025 L103.604766,217 L114.544018,216.364672 C116.851485,159.070135 109.650765,139.992745 109.650765,139.992745" id="Fill-134" fill="#EBB023" mask="url(#mask-2)"></path>
                <path d="M88.1264897,129 C88.1264897,129 76.4539196,129.482077 67.7832012,134.836085 L66,198 L107,198 L107,142.171529 C107,138.739926 106.083092,135.853366 104.858601,135.235521 C102.111771,133.850287 94.8271212,129.653264 88.1264897,129" id="Fill-135" fill="#F8C22D" mask="url(#mask-2)"></path>
                <polygon id="Fill-136" fill="#EBB023" mask="url(#mask-2)" points="66 165.303154 72 157 72 174 66 172.812987"></polygon>
                <path d="M66,188.952002 C65.9960608,189.059997 77.079892,188.952002 77.079892,188.952002 L77.079892,186.540748 L79.4834245,186.540748 C79.4834245,186.540748 91.0893344,188.998552 95,179.061204 L85.5789406,177 L66.3309793,181.155923 L66,188.952002 Z" id="Fill-137" fill="#EBB023" mask="url(#mask-2)"></path>
                <path d="M81,144.887541 C81,144.887541 70.1897434,159.767037 58.7930631,177.103129 C57.5160485,179.048018 54.4392535,180.057441 52.172649,179.997475 C47.0510874,179.863552 44.788341,174.192793 46.6402051,169.509469 C46.6402051,169.509469 59.7652918,140.84785 67.9154228,134.003762 C68.1951314,133.765898 81,144.887541 81,144.887541" id="Fill-138" fill="#F8C22D" mask="url(#mask-2)"></path>
                <path d="M92.6642444,164.857481 L82.4608632,177.933276 C81.4542154,179.219775 82.1830284,181.093375 83.8097711,181.400716 L92.0461627,182.959094 C92.8736272,183.118675 93.7212245,182.803453 94.2366282,182.151338 L104.534634,169.093274 C105.547322,167.806775 104.820522,165.925295 103.191766,165.617954 L94.862763,164.039874 C94.031272,163.882263 93.1796481,164.199455 92.6642444,164.857481" id="Fill-139" fill="#0A0A0A" mask="url(#mask-2)"></path>
                <polygon id="Fill-140" fill="#F5A5A9" mask="url(#mask-2)" points="80 177 66.6857435 177.175238 64 183 78.9473684 182.308571"></polygon>
                <path d="M78.9820283,176.830235 L87.1509779,171.195105 C87.5647645,170.906363 88.1272856,170.941757 88.5010284,171.27707 C88.9224424,171.655229 88.9682068,172.286737 88.6097189,172.718919 L86.8229995,174.863062 L92.9821282,175.50761 C93.7753782,175.606341 94.2330224,176.439036 93.8783481,177.139469 L92.945898,178.98183 C92.1183247,180.621141 90.5756822,181.804053 88.7451053,182.187801 C85.5759189,182.850976 80.8373943,183.698574 78,182.022007 L78.9820283,176.830235 Z" id="Fill-141" fill="#F5A5A9" mask="url(#mask-2)"></path>
                <path d="M46.7408472,168 C46.7408472,168 41.7730461,176.083165 45.2136787,180.673485 C48.6863358,185.300776 63.7078295,187.894628 76.4715957,186.717373 L77,174.409713 L62.056566,171.518142 L46.7408472,168 Z" id="Fill-142" fill="#F8C22D" mask="url(#mask-2)"></path>
                <path d="M82.4074928,109 L81.0156435,128.848654 C80.7694093,132.371396 83.4571183,135.46881 87.1652386,135.939428 C91.1425472,136.443521 94.7713717,133.743868 95.1824576,129.978925 L97,113.365522 L82.4074928,109 Z" id="Fill-143" fill="#F5A5A9" mask="url(#mask-2)"></path>
                <path d="M83.3081886,116 C83.3081886,116 80.1179917,129.951657 94.2656598,130 L95,122.58232 L83.3081886,116 Z" id="Fill-144" fill="#231B22" mask="url(#mask-2)"></path>
                <path d="M88,93 C88,93 79.7945729,94.3468646 80.0039395,100.121882 C80.2133061,105.8969 80.9199185,112 80.9199185,112 L85.4125774,102.558518 L88,93 Z" id="Fill-145" fill="#231B22" mask="url(#mask-2)"></path>
                <path d="M103.974024,99 C103.974024,99 109.954108,108.000294 101.366076,112 L99.9399362,111.216867 C99.9399362,111.216867 97.3562486,104.208786 100.756111,100.497502 L103.974024,99 Z" id="Fill-146" fill="#231B22" mask="url(#mask-2)"></path>
                <path d="M92.3655051,126.985049 L91.9351582,126.963092 C85.5815633,126.639726 80.6923435,121.216362 81.0151037,114.852842 L81.6725783,101.83637 C81.7562569,100.189599 83.1568769,98.9200889 84.8005632,99.0039245 L99.9443935,99.7744135 C102.881113,99.9241199 105.142427,102.429207 104.993001,105.373433 L104.453075,116.042509 C104.130315,122.408025 98.7171077,127.306419 92.3655051,126.985049" id="Fill-147" fill="#F5A5A9" mask="url(#mask-2)"></path>
                <path d="M93.9359829,112.121202 C93.8699829,112.637202 93.3959829,113.001202 92.8799829,112.935202 C92.3639829,112.869202 91.9979829,112.397202 92.0639829,111.879202 C92.1319829,111.363202 92.6039829,110.997202 93.1199829,111.065202 C93.6379829,111.131202 94.0019829,111.603202 93.9359829,112.121202" id="Fill-148" fill="#171D21" mask="url(#mask-2)"></path>
                <path d="M100.935983,113.121185 C100.869983,113.639185 100.395983,114.001185 99.8799829,113.935185 C99.3639829,113.869185 98.9979829,113.397185 99.0639829,112.881185 C99.1319829,112.363185 99.6039829,111.997185 100.119983,112.065185 C100.637983,112.131185 101.001983,112.605185 100.935983,113.121185" id="Fill-149" fill="#171D21" mask="url(#mask-2)"></path>
                <path d="M97.9052726,114 L98,116.967027 C98,116.967027 97.7855228,118.539374 96,117.804279" id="Stroke-150" stroke="#C3707A" stroke-width="0.394" stroke-linecap="round" stroke-linejoin="round" mask="url(#mask-2)"></path>
                <path d="M89.6780665,108.814 C89.7340644,108.826 89.7940623,108.834 89.8520602,108.834 L94.1259067,108.894 C94.6018896,108.9 94.9918756,108.52 94.9998753,108.042 C95.007875,107.564 94.6298886,107.176 94.1479059,107.166 L89.8760593,107.106 C89.3980765,107.1 89.0080905,107.48 89.0000908,107.958 C88.994091,108.374 89.2860805,108.728 89.6780665,108.814" id="Fill-151" fill="#171D21" mask="url(#mask-2)"></path>
                <path d="M99.6249376,110.826 C99.676548,110.838 99.7318448,110.846 99.7852984,110.846 L102.192553,110.882 C102.633084,110.888 102.992513,110.508 102.999886,110.032 C103.007259,109.552 102.655203,109.162 102.214672,109.154 L99.8092603,109.118 C99.3668859,109.112 99.0074566,109.492 99.0000837,109.968 C98.994554,110.386 99.2636651,110.738 99.6249376,110.826" id="Fill-152" fill="#171D21" mask="url(#mask-2)"></path>
                <path d="M91,118.133512 C91,118.133512 94.2834345,121.633512 99,118.685512" id="Stroke-153" stroke="#C3707A" stroke-width="0.394" stroke-linecap="round" stroke-linejoin="round" mask="url(#mask-2)"></path>
                <path d="M82,113 C82,113 88.3517955,109.602109 87.9846779,97.8552253 L82.1686756,97 L82.0843378,98.7008629 L82,113 Z" id="Fill-154" fill="#231B22" mask="url(#mask-2)"></path>
                <path d="M83.9953546,112.675927 C83.8966641,114.606673 82.2530197,116.092414 80.3222758,115.995518 C78.3933262,115.896827 76.9075865,114.253181 77.0044825,112.322436 C77.103173,110.393485 78.7468174,108.90595 80.6775614,109.00464 C82.6083053,109.103331 84.094045,110.746976 83.9953546,112.675927" id="Fill-155" fill="#F5A5A9" mask="url(#mask-2)"></path>
                <path d="M84.8318817,103.612215 L89.2496146,101.4732 C89.2496146,101.4732 99.3905475,106.457853 103.866435,102.424937 C108.69927,98.0703078 108.442588,88.6850662 99.5469629,87.2086284 C91.8224477,85.9256021 85.5838789,90.8011021 84.4268059,95.241905 C83.2697328,99.682708 84.8318817,103.612215 84.8318817,103.612215" id="Fill-156" fill="#231B22" mask="url(#mask-2)"></path>
                <polygon id="Fill-157" fill="#006BE4" mask="url(#mask-2)" points="66 198 66.1090115 211 106.953281 211 107 198"></polygon>
                <polygon id="Fill-158" fill="#F5A5A9" mask="url(#mask-2)" points="72 324 83 324 83 308 72 308"></polygon>
                <path d="M83,322 L68.5,322 L57.9052369,326.857143 C55.50665,328.03861 54,330.409266 54,333 L83,333 L83,322 Z" id="Fill-159" fill="#231B22" mask="url(#mask-2)"></path>
                <path d="M69,322.785345 L71.8723476,318.062926 C71.8723476,318.062926 76.3683499,317.066925 75.9757014,323 L69,322.785345 Z" id="Fill-160" fill="#231B22" mask="url(#mask-2)"></path>
                <polygon id="Fill-161" fill="#006BE4" mask="url(#mask-2)" points="89 204 84.5541699 311 67.5815363 311 66 204"></polygon>
                <polygon id="Fill-162" fill="#0458AF" mask="url(#mask-2)" points="65 305 84 305 83.7223301 311 65 311"></polygon>
                <polygon id="Fill-163" fill="#F5A5A9" mask="url(#mask-2)" points="93 324 104 324 104 308 93 308"></polygon>
                <path d="M93,322 L107.501005,322 L118.096502,326.857143 C120.495255,328.03861 122,330.409266 122,333 L93,333 L93,322 Z" id="Fill-164" fill="#231B22" mask="url(#mask-2)"></path>
                <path d="M107,322.785345 L104.125887,318.062926 C104.125887,318.062926 99.6316596,317.066925 100.024308,323 L107,322.785345 Z" id="Fill-165" fill="#231B22" mask="url(#mask-2)"></path>
                <polygon id="Fill-166" fill="#006BE4" mask="url(#mask-2)" points="106 205 105.114184 311 88.1429277 311 87 206.713984"></polygon>
                <polygon id="Fill-167" fill="#0458AF" mask="url(#mask-2)" points="87 211 93 211 87.7476241 271"></polygon>
                <polygon id="Fill-168" fill="#0458AF" mask="url(#mask-2)" points="107 305 88 305 88.0703224 311 107 311"></polygon>
            </g>
        </g>
    </g>
</svg>