<?xml version="1.0" encoding="UTF-8"?>
<svg width="160px" height="102px" viewBox="0 0 160 102" version="1.1" xmlns="http://www.w3.org/2000/svg" xmlns:xlink="http://www.w3.org/1999/xlink">
    <!-- Generator: Sketch 55.2 (78181) - https://sketchapp.com -->
    <title>Group 126</title>
    <desc>Created with Sketch.</desc>
    <defs>
        <polygon id="path-1" points="0 101.780488 160 101.780488 160 0.780487805 0 0.780487805"></polygon>
    </defs>
    <g id="Marshmello_landing-page" stroke="none" stroke-width="1" fill="none" fill-rule="evenodd">
        <g id="Simple_landngpage" transform="translate(-866.000000, -2566.000000)">
            <g id="Group-8" transform="translate(815.000000, 2489.000000)">
                <g id="Group-126" transform="translate(51.000000, 77.000000)">
                    <path d="M133.615075,36.0017809 C129.050496,41.1040829 125.101844,46.7814961 121.915031,52.8168731 C119.497806,56.8163304 111.219583,73.0655237 117.025056,76.3595815 C122.971276,79.6391628 135.687536,62.776693 139.210074,59.5760743 C142.848825,55.6726883 146.304218,51.6245374 149.587874,47.4171452 C152.556465,43.5413961 158.108853,37.9192568 159.636405,33.1393856 C160.921202,29.038593 158.673131,24.9246399 154.906546,23.3493354 C149.551719,21.1041646 143.954138,25.977475 139.849244,29.7334641 C137.667027,31.7062138 135.582944,33.8013556 133.615075,36.0017809" id="Fill-1" fill="#6654F1"></path>
                    <path d="M121.348037,67.7804878 C121.283009,67.7804878 121.217981,67.7620589 121.159456,67.7252012 C120.998187,67.6198934 120.951366,67.402696 121.055411,67.2394689 C129.962939,53.2598562 140.513072,40.3517506 152.413186,28.8758313 C152.552346,28.7455129 152.77084,28.7481456 152.904797,28.8876784 C153.036154,29.029844 153.030951,29.2509904 152.893092,29.3852579 C141.031995,40.8230031 130.516977,53.6876693 121.640663,67.6198934 C121.574334,67.7238849 121.462486,67.7804878 121.348037,67.7804878" id="Fill-3" fill="#D9E8FF"></path>
                    <path d="M137.662446,56.7804878 C137.637204,56.7804878 137.613225,56.7777361 137.586722,56.7722326 C135.770599,56.3181949 133.982242,55.8930505 132.269609,55.5078065 C132.086608,55.4665303 131.969236,55.2725324 132.007098,55.0744069 C132.04496,54.8749055 132.227961,54.7469494 132.404651,54.7882256 C134.122332,55.1748455 135.916999,55.6027416 137.73817,56.0554034 C137.918647,56.1008072 138.032233,56.2975568 137.991847,56.4956824 C137.955247,56.6662905 137.816419,56.7804878 137.662446,56.7804878" id="Fill-5" fill="#D9E8FF"></path>
                    <path d="M129.674892,53.7804878 C129.556882,53.7804878 129.443739,53.7088147 129.385342,53.5830487 C128.607939,51.8858836 127.817154,50.1075792 127.032451,48.2995237 C126.954589,48.1196648 127.021502,47.9032931 127.183308,47.8180968 C127.346332,47.7274912 127.538554,47.8072782 127.617632,47.9857848 C128.399902,49.7897834 129.189471,51.5613262 129.964441,53.2557866 C130.045953,53.4342932 129.98269,53.6506648 129.822099,53.7426228 C129.774652,53.7683169 129.724772,53.7804878 129.674892,53.7804878" id="Fill-7" fill="#D9E8FF"></path>
                    <path d="M142.66043,51.7804878 C142.632456,51.7804878 142.60194,51.7767471 142.573967,51.7692657 C140.790037,51.3029265 139.002292,50.8552907 137.259051,50.4375804 C137.075953,50.393939 136.965332,50.213139 137.009835,50.0348329 C137.055609,49.8565267 137.234892,49.7480467 137.420533,49.7891943 C139.16886,50.2093984 140.961691,50.659528 142.746892,51.1271141 C142.928719,51.1744962 143.036797,51.356543 142.98848,51.5336023 C142.949063,51.6832299 142.810468,51.7804878 142.66043,51.7804878" id="Fill-9" fill="#D9E8FF"></path>
                    <path d="M133.655305,47.7804878 C133.52505,47.7804878 133.401242,47.7045158 133.343208,47.5752302 C132.555226,45.8198778 131.776271,44.0378686 131.029559,42.2785177 C130.952179,42.0985841 131.032138,41.8879951 131.206242,41.8106903 C131.377767,41.7320526 131.582823,41.8120231 131.658912,41.9919567 C132.405625,43.748642 133.182,45.5253198 133.967403,47.2753408 C134.048651,47.4539416 133.972562,47.6645306 133.799747,47.7484996 C133.753319,47.7698251 133.704312,47.7804878 133.655305,47.7804878" id="Fill-11" fill="#D9E8FF"></path>
                    <path d="M146.657449,45.7804878 C146.625386,45.7804878 146.590757,45.7770633 146.557411,45.7667896 C144.811874,45.2919187 143.025295,44.8250385 141.248977,44.377564 C141.066856,44.3319034 140.961688,44.1641004 141.012989,44.0020051 C141.064291,43.8410513 141.256672,43.7463054 141.434945,43.7919661 C143.215111,44.2394405 145.00682,44.7086038 146.757487,45.1857577 C146.938326,45.2337014 147.040929,45.4049289 146.984497,45.5658827 C146.939608,45.6971571 146.803659,45.7804878 146.657449,45.7804878" id="Fill-13" fill="#D9E8FF"></path>
                    <path d="M138.632793,41.7804878 C138.489904,41.7804878 138.353884,41.7002919 138.294805,41.5661939 C137.517156,39.8031993 136.754621,38.0191696 136.026434,36.2614337 C135.950867,36.0813217 136.042921,35.8775453 136.23115,35.8052375 C136.415258,35.7342444 136.63234,35.8210138 136.707907,36.0011258 C137.43472,37.753603 138.197255,39.5350032 138.970782,41.2940538 C139.05047,41.4728512 138.961164,41.6779423 138.775683,41.7528794 C138.728969,41.7725997 138.680881,41.7804878 138.632793,41.7804878" id="Fill-15" fill="#D9E8FF"></path>
                    <path d="M151.654049,40.7804878 C151.616491,40.7804878 151.577638,40.7752236 151.541376,40.7636422 C149.827971,40.2835422 148.044632,39.8013365 146.239276,39.3296593 C146.059258,39.282281 145.958241,39.1243534 146.01652,38.9759014 C146.074799,38.8285023 146.269063,38.7453271 146.451671,38.794811 C148.260912,39.2675411 150.049432,39.7507996 151.766722,40.2330053 C151.948034,40.2835422 152.043871,40.4435755 151.980412,40.5899218 C151.931198,40.7067882 151.796509,40.7804878 151.654049,40.7804878" id="Fill-17" fill="#D9E8FF"></path>
                    <path d="M143.606764,36.7804878 C143.449292,36.7804878 143.299179,36.6947915 143.238839,36.5558596 C142.47061,34.767923 141.724457,32.9812847 141.022455,31.2426884 C140.950342,31.0622068 141.057776,30.8635472 141.260871,30.7999241 C141.469852,30.7375995 141.690608,30.829788 141.764193,31.0102696 C142.463252,32.7449707 143.206461,34.5277136 143.97469,36.3104565 C144.051218,36.4883413 143.948199,36.6895978 143.746576,36.7571161 C143.699482,36.7726972 143.652387,36.7804878 143.606764,36.7804878" id="Fill-19" fill="#D9E8FF"></path>
                    <path d="M133.664555,62.7804878 C133.643244,62.7804878 133.623186,62.7789508 133.601875,62.7743398 C131.806714,62.3516665 130.016567,61.9551221 128.279072,61.5954655 C128.097299,61.5555037 127.974446,61.3433985 128.004533,61.1205344 C128.037126,60.8976703 128.205109,60.7562669 128.391896,60.7839327 C130.133153,61.1482003 131.92706,61.5447447 133.727236,61.967418 C133.909008,62.0104539 134.028101,62.225633 133.994253,62.4469601 C133.961659,62.6436953 133.822509,62.7804878 133.664555,62.7804878" id="Fill-21" fill="#D9E8FF"></path>
                    <path d="M124.69255,59.7804878 C124.584218,59.7804878 124.479344,59.7131289 124.424025,59.5907831 C123.602318,57.8215803 122.799051,56.0468788 122.034967,54.3161668 C121.956599,54.1388342 122.014223,53.9147626 122.165195,53.8212849 C122.313863,53.7305566 122.500562,53.7951662 122.580082,53.9752482 C123.341861,55.7004615 124.142824,57.4696643 124.961074,59.2361177 C125.044051,59.4134504 124.989885,59.6375219 124.841217,59.7351236 C124.793966,59.7653664 124.743258,59.7804878 124.69255,59.7804878" id="Fill-23" fill="#D9E8FF"></path>
                    <path d="M128.617685,67.7609462 C128.599073,67.7609462 128.580461,67.7599462 128.560417,67.7579462 C127.154478,67.6099462 125.744244,67.4669462 124.331146,67.3319462 C124.120685,67.3129462 123.976082,67.1779462 124.003285,67.0319462 C124.033351,66.8859462 124.212315,66.7809462 124.43423,66.8029462 C125.85019,66.9379462 127.266151,67.0799462 128.674954,67.2309462 C128.883983,67.2519462 129.027154,67.3889462 128.995657,67.5339462 C128.967023,67.6659462 128.803808,67.7609462 128.617685,67.7609462" id="Fill-25" fill="#D9E8FF"></path>
                    <path d="M121.621784,64.7804878 C121.492958,64.7804878 121.366963,64.7236445 121.297595,64.6198436 C120.538793,63.5126344 119.791316,62.3967751 119.050918,61.2759729 C118.946158,61.1178001 119.008448,60.916377 119.188238,60.8249334 C119.366613,60.7334898 119.598784,60.7878617 119.70496,60.9447987 C120.443942,62.0643652 121.191419,63.1765173 121.945974,64.2824908 C122.053565,64.4394278 121.995522,64.6408509 121.815732,64.734766 C121.754858,64.7656591 121.688321,64.7804878 121.621784,64.7804878" id="Fill-27" fill="#D9E8FF"></path>
                    <path d="M155.679781,34.7804878 C155.64263,34.7804878 155.60428,34.7728434 155.56593,34.7575546 C154.453783,34.3103581 153.334445,33.87208 152.210314,33.4401722 C152.04493,33.376469 151.959842,33.1815371 152.018565,33.0044422 C152.078487,32.8298954 152.260649,32.7368887 152.428429,32.8005919 C153.554957,33.2324997 154.675493,33.673326 155.793632,34.1205225 C155.957818,34.1880479 156.041708,34.3829798 155.97939,34.5600747 C155.930254,34.6963996 155.808013,34.7804878 155.679781,34.7804878" id="Fill-29" fill="#D9E8FF"></path>
                    <path d="M148.648391,30.7804878 C148.502285,30.7804878 148.365392,30.6808034 148.315374,30.5213083 C147.874423,29.1114858 147.440052,27.6988152 147.017528,26.2790242 C146.95698,26.0782313 147.058333,25.8646218 147.243928,25.800539 C147.42689,25.732184 147.626963,25.8446849 147.686195,26.0454778 C148.108719,27.4624207 148.540457,28.8722432 148.981408,30.2763695 C149.043273,30.4757383 148.945869,30.6921959 148.761591,30.7591269 C148.724735,30.7733675 148.685247,30.7804878 148.648391,30.7804878" id="Fill-31" fill="#D9E8FF"></path>
                    <path d="M57.0368248,72.96806 C57.1369634,71.3882491 58.5206966,69.947795 60.0227754,69.2275679 C63.1075642,67.7506466 66.8061894,67.4198371 69.3499697,64.9166247 C71.8508334,62.457694 72.6753511,58.6494771 71.4203675,55.3726393 C69.6269764,50.6944194 64.5355144,49.4115557 59.9590509,50.1304803 C59.3764263,50.2216483 58.7547868,50.3453763 58.2124778,50.1122467 C57.5141087,49.8126948 57.1681754,49.0117189 57.0667363,48.2576295 C56.4164857,43.359304 57.1642739,38.0220698 54.5164535,33.588701 C51.5877249,28.6825611 45.0292976,27.5117038 40.1186053,30.1646921 C36.6189567,32.0557765 34.8528761,35.3703839 34.216931,39.1916248 C33.7942682,41.7273971 35.4602101,48.679607 32.5574916,50.1773667 C32.0763061,50.4248227 31.5079871,50.4313347 30.9669787,50.3987747 C26.0861978,50.0940131 21.6761984,49.9377252 19.5927956,55.3726393 C17.8332175,59.9635985 20.1234,65.1119847 24.7076666,66.8741316 L31.4871791,69.4802335 C32.9320359,70.0363582 33.8853032,71.4247163 33.8853032,72.974572 C33.8866037,77.8090799 29.1774891,76.0742835 26.27347,76.0221875 C23.1574692,75.9648819 20.7749511,78.8874669 19.7813682,81.5730152 C17.1998735,88.5499707 22.5345292,93.3883858 28.3971884,96.0583053 C35.6929998,99.3807271 43.9459802,100.472138 51.8712342,99.3598887 C58.467376,98.4338825 68.9923319,95.7353102 71.4697866,88.5343419 C72.2956048,86.1275072 72.1096331,83.4185157 71.1043457,81.0807081 C70.4423907,79.536062 69.4058912,78.1177487 67.9896455,77.2151856 C65.6357384,75.7148211 62.5314421,77.0237329 59.9993664,76.3907666 C58.7053678,76.0664691 57.4698917,75.170418 57.1265594,73.8797399 C57.0446278,73.5736759 57.0173173,73.267612 57.0368248,72.96806" id="Fill-33" fill="#1B00EB"></path>
                    <path d="M44.6548795,61.7804878 C44.6225754,61.7804878 44.5876871,61.7765118 44.5540909,61.7645838 L37.2443319,59.474407 C37.0621371,59.4174177 36.9587641,59.219943 37.0156193,59.0330709 C37.0698901,58.8461988 37.2572535,58.7348708 37.4459091,58.7984868 L44.7556681,61.0899889 C44.9378629,61.1456529 45.0412359,61.3431277 44.9843807,61.5313251 C44.9404472,61.6837384 44.8021859,61.7804878 44.6548795,61.7804878" id="Fill-35" fill="#D9E8FF"></path>
                    <path d="M44.6548795,86.7804878 C44.6225754,86.7804878 44.5876871,86.7765125 44.5540909,86.7645864 L37.2443319,84.4747912 C37.0621371,84.4178113 36.9587641,84.2203695 37.0156193,84.0335285 C37.0698901,83.8466876 37.2572535,83.734053 37.4459091,83.7989835 L44.7556681,86.0901039 C44.9378629,86.1457587 45.0412359,86.3432005 44.9843807,86.5313666 C44.9404472,86.6837546 44.8021859,86.7804878 44.6548795,86.7804878" id="Fill-37" fill="#D9E8FF"></path>
                    <path d="M45.3451205,61.7804878 C45.1978141,61.7804878 45.0595528,61.6837384 45.0156193,61.5313251 C44.9587641,61.3431277 45.0621371,61.1456529 45.2443319,61.0899889 L52.5540909,58.7984868 C52.7427465,58.7348708 52.9288178,58.8461988 52.9843807,59.0330709 C53.0412359,59.219943 52.9378629,59.4174177 52.7556681,59.474407 L45.4459091,61.7645838 C45.4123129,61.7765118 45.3774246,61.7804878 45.3451205,61.7804878" id="Fill-39" fill="#D9E8FF"></path>
                    <path d="M45.3451205,86.7804878 C45.1978141,86.7804878 45.0595528,86.6837546 45.0156193,86.5313666 C44.9587641,86.3432005 45.0621371,86.1457587 45.2443319,86.0901039 L52.5540909,83.7989835 C52.7427465,83.734053 52.9288178,83.8466876 52.9843807,84.0335285 C53.0412359,84.2203695 52.9378629,84.4178113 52.7556681,84.4747912 L45.4459091,86.7645864 C45.4123129,86.7765125 45.3774246,86.7804878 45.3451205,86.7804878" id="Fill-41" fill="#D9E8FF"></path>
                    <path d="M45.5,96.7804878 C45.353,96.7804878 45.233,96.6236256 45.233,96.4285364 L45.233,46.131121 C45.233,45.93735 45.353,45.7804878 45.5,45.7804878 C45.647,45.7804878 45.767,45.93735 45.767,46.131121 L45.767,96.4285364 C45.767,96.6236256 45.647,96.7804878 45.5,96.7804878" id="Fill-43" fill="#D9E8FF"></path>
                    <mask id="mask-2" fill="white">
                        <use xlink:href="#path-1"></use>
                    </mask>
                    <g id="Clip-46"></g>
                    <polygon id="Fill-45" fill="#FFFFFF" mask="url(#mask-2)" points="92 71.7804878 99 71.7804878 99 66.7804878 92 66.7804878"></polygon>
                    <polygon id="Fill-47" fill="#AB96FF" mask="url(#mask-2)" points="90 72.6469878 102 72.6469878 102 71.9139878 90 71.9139878"></polygon>
                    <path d="M108.826978,68.7804878 L81.1730218,68.7804878 C80.526339,68.7804878 80,68.26856 80,67.6367096 L80,49.924266 C80,49.2937051 80.526339,48.7804878 81.1730218,48.7804878 L108.826978,48.7804878 C109.474983,48.7804878 110,49.2937051 110,49.924266 L110,67.6367096 C110,68.26856 109.474983,68.7804878 108.826978,68.7804878" id="Fill-48" fill="#310F57" mask="url(#mask-2)"></path>
                    <polygon id="Fill-49" fill="#6654F1" mask="url(#mask-2)" points="108.957395 49.7830399 108.957395 49.7804878 82 49.7804878 82 64.7804878 108.957395 64.7804878 108.957395 64.761347 109 64.761347 109 63.8617298 109 51.5809982 109 49.7830399"></polygon>
                    <path d="M110,64.7804878 L110,67.6114598 C110,68.2572588 109.476306,68.7804878 108.826978,68.7804878 L81.1730218,68.7804878 C80.526339,68.7804878 80,68.2572588 80,67.6114598 L80,64.7804878 L110,64.7804878 Z" id="Fill-50" fill="#FFFFFF" mask="url(#mask-2)"></path>
                    <path d="M96,67.2804878 C96,67.5566867 95.7763975,67.7804878 95.5004437,67.7804878 C95.2236025,67.7804878 95,67.5566867 95,67.2804878 C95,67.0034008 95.2236025,66.7804878 95.5004437,66.7804878 C95.7763975,66.7804878 96,67.0034008 96,67.2804878" id="Fill-51" fill="#ACA7C4" mask="url(#mask-2)"></path>
                    <path d="M126.5,75.0763663 L131.675272,92.3982752 L121.32603,92.3982752 L126.5,75.0763663 Z M125.940018,73.2021798 L118,99.7804878 L119.119963,99.7804878 L119.143404,99.7063013 L120.936648,93.7049997 L132.064655,93.7049997 L133.880037,99.7804878 L135,99.7804878 L134.959629,99.6464314 L127.061284,73.2021798 L127.186303,72.7804878 L126.934962,72.7804878 L126.06634,72.7804878 L125.814999,72.7804878 L125.85537,72.9158457 L125.940018,73.2021798 Z" id="Fill-52" fill="#24C8D1" mask="url(#mask-2)"></path>
                    <path d="M76.3270777,92.3969737 L81.5006511,75.0750648 L86.6742244,92.3969737 L76.3270777,92.3969737 Z M73,99.7804878 L74.1211796,99.7804878 L74.1433167,99.7049997 L75.9351206,93.7036982 L87.0648794,93.7036982 L88.8801226,99.7804878 L90,99.7804878 L89.9596323,99.6451299 L82.0605898,73.2008783 L82.1869016,72.7804878 L81.9355802,72.7804878 L81.0670241,72.7804878 L80.8144006,72.7804878 L80.8547683,72.9145442 L80.9407124,73.2008783 L73,99.7804878 Z" id="Fill-53" fill="#24C8D1" mask="url(#mask-2)"></path>
                    <polygon id="Fill-54" fill="#24C8D1" mask="url(#mask-2)" points="73 73.7024878 135 73.7024878 135 72.8584878 73 72.8584878"></polygon>
                    <polygon id="Fill-55" fill="#24C8D1" mask="url(#mask-2)" points="38 61.7804878 104 61.7804878 104 17.7804878 38 17.7804878"></polygon>
                    <path d="M78.1623328,47.4634031 L77.8192285,47.6055251 C76.7583659,48.049158 76.1129092,47.6307617 75.6738409,46.5588701 L71.1582732,36.8294945 C70.7192049,35.7576029 71.2253166,34.5276504 72.2848646,34.0840175 L72.6279689,33.9405673 C73.6901461,33.4969343 74.9061287,34.0069794 75.345197,35.0801993 L78.6881631,44.2636672 C79.1272314,45.3355588 79.22451,47.0197702 78.1623328,47.4634031" id="Fill-56" fill="#1800CF" mask="url(#mask-2)"></path>
                    <polygon id="Fill-57" fill="#1800CF" mask="url(#mask-2)" points="90 46.4117727 89.6972947 48.7804878 77.0741063 47.7902643 77 43.7804878"></polygon>
                    <path d="M90.0002306,49.0871888 C89.9847507,49.1861193 90.7535835,49.5215177 90.8516226,49.5637441 C91.3302081,49.7652244 91.873293,49.8098638 92.3918681,49.7640179 C93.1207113,49.6988686 93.897284,49.50704 94.5525978,49.2042163 C94.8841247,49.0509947 95.1988818,48.8651985 95.4852591,48.6480341 C95.6336077,48.534626 95.7755064,48.4127726 95.9070851,48.2836804 L95.9109551,48.280061 C96.0760735,48.1159812 96,47.8457322 95.7780863,47.7600729 C95.6684374,47.7190529 95.5742682,47.6816524 95.5471785,47.6732071 C95.1666321,47.5537667 94.7964055,47.4307068 94.4068292,47.346254 C93.2432601,47.0928955 91.5972356,46.4027952 90.4684962,47.0494626 C90.277578,47.9663791 90.1924388,48.1678594 90.0002306,49.0871888" id="Fill-58" fill="#FCD4CB" mask="url(#mask-2)"></path>
                    <path d="M60,56.7804878 L76,56.7804878 L76,37.0644454 C76,35.1004946 74.5522413,34.0290128 72.9311781,33.393388 C72.0939843,33.0639009 71.2181303,32.8537556 70.3569405,32.6021001 C69.9290118,32.4788667 68.3426096,31.6668236 68,31.7939486 L66.6375604,32.3037456 C65.4564239,32.7460885 64.2739543,33.1118971 63.0648225,33.4634365 C61.3784369,33.9537756 60,35.1147637 60,37.0644454 L60,56.7804878 Z" id="Fill-59" fill="#1B00EB" mask="url(#mask-2)"></path>
                    <path d="M67.813999,33.7713011 L67.813999,33.7713011 C68.5451801,33.6812321 69.0731933,32.9508089 68.9917029,32.142655 L68.6512293,28.7804878 L66,29.1086847 L66.3404737,32.469618 C66.4219641,33.2790058 67.0817015,33.8613702 67.813999,33.7713011" id="Fill-60" fill="#FCD4CB" mask="url(#mask-2)"></path>
                    <path d="M66,28.1301428 L69.4977909,27.7804878 L70,31.7804878 C68.4108984,31.7081907 66.7673049,30.8209084 66.2886598,29.4959002 C66.1811487,29.196196 66.107511,28.8859758 66.0544919,28.5718122 L66,28.1301428 Z" id="Fill-61" fill="#FC957E" mask="url(#mask-2)"></path>
                    <path d="M70.4823718,30.5784271 C70.7290852,30.4823016 70.9557948,30.3408597 71.1531656,30.1431157 C71.7852853,29.5059407 71.9959919,28.5062351 72,27.6259997 C72.0026598,27.1618507 71.2798562,20.781861 71.2878577,20.7804878 L65,21.505549 C65.1253571,22.674161 65.2533813,23.8441462 65.380072,25.0127582 C65.5014283,26.1264413 65.4654215,27.3142783 65.8014852,28.3867647 C66.3722599,30.2104036 68.7727146,31.2416934 70.4823718,30.5784271" id="Fill-62" fill="#FCD4CB" mask="url(#mask-2)"></path>
                    <path d="M70.442014,26.7804878 C70.404014,26.7804878 70.369014,26.7495947 70.360014,26.7014015 L70.296014,26.3850565 C70.290014,26.3541634 70.296014,26.3220346 70.310014,26.2960844 C70.325014,26.2713699 70.348014,26.2565413 70.374014,26.2540698 L70.703014,26.2318268 L70.080014,24.9404963 C70.056014,24.8898317 70.069014,24.8255741 70.109014,24.7959167 C70.150014,24.7650237 70.201014,24.7823238 70.226014,24.8317527 L70.921014,26.2726057 C70.935014,26.3047345 70.936014,26.3430419 70.922014,26.3764064 C70.909014,26.4085352 70.881014,26.4295425 70.852014,26.4320139 L70.486014,26.4567284 L70.524014,26.6507369 C70.536014,26.7063444 70.508014,26.7631877 70.463014,26.7767806 C70.456014,26.7792521 70.449014,26.7804878 70.442014,26.7804878" id="Fill-63" fill="#FC957E" mask="url(#mask-2)"></path>
                    <path d="M71,26.8920025 C70.9367232,27.2890025 70.5683616,27.6160025 70.0847458,27.6630025 C69.6022599,27.7110025 69.1615819,27.4650025 69,27.0900025 L71,26.8920025 Z" id="Fill-64" fill="#FFFFFF" mask="url(#mask-2)"></path>
                    <path d="M64.7457013,28.7492819 C65.2055676,28.8883848 65.7082122,28.5433026 65.8766516,28.0938932 C66.045091,27.6431463 65.9448295,27.1348857 65.7603482,26.692164 C65.6547394,26.4366961 65.5170468,26.1892535 65.4822895,25.9163978 C65.4461954,25.6422046 65.5437833,25.326548 65.7910951,25.2061705 C65.9140826,25.1459817 66.0584592,25.1406316 66.1787731,25.0750927 C66.4127167,24.9480276 66.4782209,24.6403962 66.4568318,24.3742281 C66.4367794,24.1080601 66.3552334,23.8432295 66.4006853,23.5810741 C66.49961,23.0072746 67.1613362,22.6929555 67.7415164,22.7156935 C68.3243702,22.739769 68.8671194,22.9952368 69.4339313,23.1276521 C70.0809525,23.2787928 70.8041725,23.2520422 71.3522689,22.8761969 C71.9017022,22.5003515 72.1891187,21.71121 71.8615976,21.1347355 C71.5447711,20.5743113 70.8081829,20.4031077 70.1678459,20.4566089 C69.5261719,20.51011 68.9018767,20.7294646 68.258866,20.7187643 C67.4781627,20.7067266 66.7495955,20.3603069 66.0156809,20.0914637 C65.2817664,19.8226206 64.4542744,19.6340292 63.7337281,19.9322979 C62.9463408,20.2573172 62.4624117,21.1868991 62.6455561,22.0188415 C62.7845855,22.6488171 63.2538095,23.292168 62.9824349,23.8780053 C62.8086482,24.2551881 62.3795288,24.4531423 62.1763321,24.8129373 C61.4731644,26.0501506 63.063981,25.9712364 63.6040565,26.3872076 C64.3152451,26.9382691 63.6495084,28.4215876 64.7457013,28.7492819" id="Fill-65" fill="#FFFFFF" mask="url(#mask-2)"></path>
                    <path d="M59.5077992,47.7340339 L59.1533652,47.6325567 C58.0560583,47.3177172 57.8114857,46.5995709 58.1279914,45.5067397 L60.5867959,35.2692524 C60.9033016,34.1764211 62.0503077,33.5467421 63.1489225,33.8615816 L63.5033566,33.9630588 C64.6019714,34.2778983 65.2349827,35.4188662 64.918477,36.5116974 L61.8815919,45.6069159 C61.5650862,46.6997471 60.606414,48.0488734 59.5077992,47.7340339" id="Fill-66" fill="#1800CF" mask="url(#mask-2)"></path>
                    <polygon id="Fill-67" fill="#1800CF" mask="url(#mask-2)" points="58.0736816 59.7804878 56 59.3439199 57.4637753 45.7804878 61 45.8848845"></polygon>
                    <polygon id="Fill-68" fill="#1800CF" mask="url(#mask-2)" points="68.3622428 34.7804878 66 32.8390988 66.7345704 31.7804878 69 33.6749077"></polygon>
                    <polygon id="Fill-69" fill="#1800CF" mask="url(#mask-2)" points="69.7224126 34.7804878 71 32.8390988 70.1665524 31.7804878 69 33.6749077"></polygon>
                    <polygon id="Fill-70" fill="#310F57" mask="url(#mask-2)" points="38 61.7804878 104 61.7804878 104 56.7804878 38 56.7804878"></polygon>
                    <polygon id="Fill-71" fill="#FFFFFF" mask="url(#mask-2)" points="40 59.7804878 42 59.7804878 42 57.7804878 40 57.7804878"></polygon>
                    <polygon id="Fill-72" fill="#FFFFFF" mask="url(#mask-2)" points="45 59.7804878 45 57.7804878 47 58.7810557"></polygon>
                    <polygon id="Fill-73" fill="#FFFFFF" mask="url(#mask-2)" points="79 23.7804878 108 23.7804878 108 0.780487805 79 0.780487805"></polygon>
                    <polygon id="Fill-74" fill="#FFFFFF" mask="url(#mask-2)" points="83 32.7804878 83 19.7804878 95 19.7804878"></polygon>
                    <path d="M83,6.2804878 L100,6.2804878" id="Fill-75" fill="#0086CC" mask="url(#mask-2)"></path>
                    <polygon id="Fill-76" fill="#24C8D1" mask="url(#mask-2)" points="83 6.7804878 100 6.7804878 100 4.7804878 83 4.7804878"></polygon>
                    <path d="M83,15.2804878 L105,15.2804878" id="Fill-77" fill="#0086CC" mask="url(#mask-2)"></path>
                    <polygon id="Fill-78" fill="#24C8D1" mask="url(#mask-2)" points="83 15.7804878 105 15.7804878 105 13.7804878 83 13.7804878"></polygon>
                    <path d="M83,10.2804878 L105,10.2804878" id="Fill-79" fill="#0086CC" mask="url(#mask-2)"></path>
                    <polygon id="Fill-80" fill="#24C8D1" mask="url(#mask-2)" points="83 11.7804878 105 11.7804878 105 9.7804878 83 9.7804878"></polygon>
                    <path d="M95,19.2804878 L105,19.2804878" id="Fill-81" fill="#0086CC" mask="url(#mask-2)"></path>
                    <polygon id="Fill-82" fill="#24C8D1" mask="url(#mask-2)" points="95 20.7804878 105 20.7804878 105 18.7804878 95 18.7804878"></polygon>
                    <path d="M114.774126,58.7733649 L114.774126,58.7733649 C114.030052,58.8529154 113.368065,58.25701 113.29657,57.4427024 L113,54.0625304 L115.696937,53.7804878 L115.993507,57.1592134 C116.066326,57.9720747 115.5182,58.6952608 114.774126,58.7733649" id="Fill-83" fill="#FCD4CB" mask="url(#mask-2)"></path>
                    <path d="M115.960569,53.7804878 L113,54.0584636 L113.363349,57.7804878 C114.387994,57.6664465 114.655419,57.0648784 114.792038,55.7790623 C114.824013,55.4882569 116.017251,54.4861186 115.999811,54.1910366 L115.960569,53.7804878 Z" id="Fill-84" fill="#FC957E" mask="url(#mask-2)"></path>
                    <path d="M113.382444,56.7524254 C113.155416,56.7205886 112.937848,56.6480006 112.735144,56.5270208 C112.089195,56.1386117 111.737842,55.3974507 111.581084,54.713596 C111.498651,54.3532033 111.006757,49.2745951 111,49.2758686 L116.464892,48.7804878 C116.560839,49.7113962 116.655434,50.6410311 116.748678,51.5719394 C116.84057,52.4570028 117.075706,53.373903 116.975706,54.2640602 C116.806786,55.775672 114.948669,56.9816504 113.382444,56.7524254" id="Fill-85" fill="#FCD4CB" mask="url(#mask-2)"></path>
                    <path d="M109.015536,49.0447669 C109.207635,47.7089075 110.399185,47.1976844 111.520881,46.6710475 C112.964981,45.9966954 115.835716,44.794422 116.226631,47.2798911 C116.804271,46.9112453 117.389971,46.9035384 117.827902,47.2683308 C118.167769,47.5560544 117.983731,47.8810278 117.981044,48.2393978 C117.978357,48.6093281 118.116722,48.9779739 118.277924,49.3093698 C118.502263,49.7743516 118.78974,50.2174973 118.920045,50.7145911 C119.083933,51.3491243 118.972435,52.019623 118.796456,52.6541562 C118.580177,53.4389736 118.25643,54.2160841 117.692224,54.8236432 C117.129361,55.4312024 116.292455,55.8473739 115.447489,55.7715896 C114.898059,55.7227794 114.317733,55.3978059 114.227728,54.8788759 C114.165934,54.5269283 114.324449,54.1158947 114.093393,53.8345935 C113.856964,53.5468699 113.353208,53.5918267 113.097972,53.316948 C112.741985,52.9303194 113.158423,52.2957862 112.96095,51.8166751 C112.837362,51.5186757 112.496152,51.3516933 112.165688,51.2977451 C111.836568,51.2450814 111.496701,51.2784779 111.16355,51.2502194 C110.032451,51.1513144 108.850304,50.1956611 109.015536,49.0447669" id="Fill-86" fill="#1800CF" mask="url(#mask-2)"></path>
                    <polygon id="Fill-87" fill="#FCD4CB" mask="url(#mask-2)" points="96.2340711 95.7804878 93 95.1255982 93.7645875 91.7804878 97 92.4353774"></polygon>
                    <path d="M87.2810368,94.7804878 L87,96.0252795 L93.0600273,97.2700711 C93.1678035,97.1073107 93.2769441,96.9458524 93.3847203,96.783092 L93.3806276,97.3364774 L95.5470668,97.7804878 L96,95.7700711 L92.7094134,95.0942899 L87.2810368,94.7804878 Z" id="Fill-88" fill="#1B00EB" mask="url(#mask-2)"></path>
                    <polygon id="Fill-89" fill="#1B00EB" mask="url(#mask-2)" points="97.7523547 93.7804878 93 92.7448207 95.8587161 78.0658247 102 73.7804878"></polygon>
                    <path d="M105,70.7173731 L105,70.7173731 C105.118799,71.9173682 106.053349,72.8144519 107.146299,72.7795006 L117,72.4678514 L116.758442,68.7804878 L105,70.7173731 Z" id="Fill-90" fill="#FC957E" mask="url(#mask-2)"></path>
                    <polygon id="Fill-91" fill="#FCD4CB" mask="url(#mask-2)" points="100.980669 98.7804878 98 98.7584856 98.0193315 94.7804878 101 94.80249"></polygon>
                    <path d="M93.0074801,99.5069621 L93,100.734064 L98.6637058,100.766686 C98.7297803,100.593537 98.7946081,100.420387 98.8581892,100.247238 C98.8943432,100.421642 98.9280037,100.594791 98.962911,100.769195 L100.98878,100.780488 L101,98.7993084 L97.9244195,98.7804878 L93.0074801,99.5069621 Z" id="Fill-92" fill="#1B00EB" mask="url(#mask-2)"></path>
                    <path d="M95.0992955,79.2098511 C94.5823428,77.2579283 96.1449498,75.3305987 98.3681074,75.2801179 L116.310021,74.7804878 C117.990117,74.7817822 116.073737,76.562847 116.072432,78.2287122 L116.072432,78.7671737 C116.069821,80.4330388 114.708251,81.7817813 113.025544,81.7804878 L97.92687,81.7662487 C96.6867057,81.7649543 95.7259048,80.8006423 95.2729185,79.7198363 C95.2024249,79.5515671 95.1436803,79.3807091 95.0992955,79.2098511" id="Fill-93" fill="#1800CF" mask="url(#mask-2)"></path>
                    <path d="M101.897771,95.6854357 L97.3085352,95.7804878 L96.0029556,79.0057482 C95.943835,78.0786649 96.7813766,76.9002795 97.6435518,76.7153836 L102,75.7804878 L101.897771,95.6854357 Z" id="Fill-94" fill="#1800CF" mask="url(#mask-2)"></path>
                    <path d="M122,77.7804878 L109,77.7804878 L109,61.6064419 C109,59.5417544 111.041845,58.6553786 112.657357,58.1785058 C114.500584,57.6369051 116.484235,57.6553988 118.327462,58.1890737 C119.960685,58.6619835 122,59.5179768 122,61.6064419 L122,77.7804878 Z" id="Fill-95" fill="#CC76BC" mask="url(#mask-2)"></path>
                    <path d="M95.8366978,74.5158194 C96.024097,72.8286773 97.5444059,71.6134078 99.2323183,71.799257 L122,75.4450656 C122,75.4450656 117.309741,75.1840858 117.123662,76.8699098 L117.062955,77.4142767 C116.875556,79.1014188 114.32983,81.9576976 112.640598,81.7718484 L95,77.6185791 L95.8366978,74.5158194 Z" id="Fill-96" fill="#1B00EB" mask="url(#mask-2)"></path>
                    <path d="M111.527407,72.7765961 L111.846089,72.7549708 C112.832548,72.6900948 113.057344,71.8657884 112.988583,70.9168183 L112.89602,62.3849922 C112.828581,61.4360221 111.973032,60.7185702 110.986573,60.7847182 L110.667891,60.8063435 C109.681431,60.8712195 108.935636,61.6942539 109.004398,62.643224 L110.131024,71.10763 C110.199785,72.0566001 110.540947,72.8427442 111.527407,72.7765961" id="Fill-97" fill="#FCD4CB" mask="url(#mask-2)"></path>
                    <polygon id="Fill-98" fill="#FCD4CB" mask="url(#mask-2)" points="100.307357 67.7804878 100 69.8011409 111.347357 72.7804878 112 69.3071414"></polygon>
                    <path d="M100.995981,68.8897206 C101.046978,68.9679949 100.596931,69.5591006 100.538284,69.6346758 C100.253977,69.9963569 99.8587515,70.248724 99.4456772,70.4133699 C98.8668632,70.644144 98.2013546,70.7831483 97.5817432,70.7804492 C97.2681127,70.7790996 96.9557571,70.7440112 96.6510511,70.6697856 C96.4929609,70.6306484 96.3386955,70.5820644 96.18698,70.5226839 C96.1844301,70.5226839 96.1831552,70.5226839 96.1818803,70.5213344 C95.9906422,70.4444097 95.9409203,70.1825957 96.0773368,70.0219985 C96.1436327,69.9423747 96.1984543,69.8735473 96.2175781,69.856003 C96.459813,69.603636 96.6918486,69.3512689 96.9544822,69.125893 C97.7372835,68.4497652 99.3691819,67.6805181 100.483463,67.7911817 C100.993431,68.5064466 100.484737,68.1758053 100.995981,68.8897206" id="Fill-99" fill="#FCD4CB" mask="url(#mask-2)"></path>
                    <path d="M110.330618,59.8223183 C109.342318,60.8873669 108.963469,62.4359345 109.002748,63.9113208 C109.043294,65.3854004 109.460154,66.8189688 109.871945,68.2329352 C111.253032,68.3727637 112.635385,68.520433 114,68.7804878 C113.954386,66.8673207 113.830215,64.8234729 113.62622,62.9207603 C113.547663,62.1967886 113.451367,61.451908 113.096592,60.8220265 C112.572033,59.8915791 111.364532,59.6759558 110.330618,59.8223183" id="Fill-100" fill="#CC76BC" mask="url(#mask-2)"></path>
                    <polygon id="Fill-101" fill="#24C8D1" mask="url(#mask-2)" points="115.075 100.780488 115.916 100.780488 115.925 85.7804878 115.084 85.7804878"></polygon>
                    <path d="M105,85.7634846 L124.892176,85.7804878 L126.410287,85.4560104 L127,81.7974922 L107.628471,81.7804878 C106.178097,81.7790721 105.002656,83.0330568 105.001328,84.5789295 L105,85.7634846 Z" id="Fill-102" fill="#1EA6AD" mask="url(#mask-2)"></path>
                    <path d="M113,81.7688712 L126.234917,81.7804878 L129,65.7882333 L118.591784,65.7804878 C116.957638,65.7791981 115.559692,66.9602242 115.279846,68.5788107 L113,81.7688712 Z" id="Fill-103" fill="#1EA6AD" mask="url(#mask-2)"></path>
                    <polygon id="Fill-104" fill="#24C8D1" mask="url(#mask-2)" points="116 81.7701627 129.235978 81.7804878 132 65.7908129 118.764022 65.7804878"></polygon>
                    <polygon id="Fill-105" fill="#1EA6AD" mask="url(#mask-2)" points="118 99.7804878 116.859631 99.7804878 114 83.7804878 115.139028 83.7804878"></polygon>
                    <polygon id="Fill-106" fill="#1EA6AD" mask="url(#mask-2)" points="127 99.7804878 125.859249 99.7791969 123 83.7804878 124.13941 83.7817788"></polygon>
                    <path d="M129,81.797497 L128.848558,82.7358383 C128.5656,84.4962914 127.134868,85.7819041 125.461032,85.7804878 L108,85.7663123 L108.642966,81.7804878 L129,81.797497 Z" id="Fill-107" fill="#24C8D1" mask="url(#mask-2)"></path>
                    <polygon id="Fill-108" fill="#24C8D1" mask="url(#mask-2)" points="106.075 100.780488 106.916 100.780488 106.925 85.7818254 106.084 85.7804878"></polygon>
                    <path d="M26.3850358,59.0017809 C30.9496327,64.1027669 34.8970083,69.78018 38.0851242,75.8155571 C40.5010678,79.8163304 48.7806139,96.0655237 42.9751181,99.3595815 C37.0275839,102.639163 24.3112755,85.776693 20.790015,82.5760743 C17.1499588,78.6726883 13.6945525,74.6245374 10.4121748,70.4158292 C7.44228148,66.5413961 1.88987225,60.9179408 0.363605338,56.1393856 C-0.921196333,52.038593 1.32688378,47.9246399 5.09219199,46.3493354 C10.44833,44.1041646 16.044642,48.977475 20.1495511,52.7334641 C22.331777,54.7048978 24.4158674,56.8000396 26.3850358,59.0017809" id="Fill-109" fill="#6654F1" mask="url(#mask-2)"></path>
                    <path d="M37.651949,91.7804878 C37.5374951,91.7804878 37.4256425,91.7238856 37.3593113,91.6198955 C28.4813357,77.6852198 17.9671906,64.8220373 6.10691227,53.3857571 C5.96904743,53.2514913 5.96384498,53.0303478 6.09520677,52.8881841 C6.22916977,52.7486531 6.44767254,52.7447041 6.586838,52.8763371 C18.4861346,64.3507909 29.0366969,77.2574124 37.9445866,91.2394759 C38.0486355,91.4027009 38.0018135,91.6198955 37.8405377,91.7252019 C37.7820101,91.7620592 37.7169795,91.7804878 37.651949,91.7804878" id="Fill-110" fill="#D9E8FF" mask="url(#mask-2)"></path>
                    <path d="M22.337483,80.7804878 C22.1835425,80.7804878 22.0460056,80.6664152 22.0081514,80.4959934 C21.9677736,80.2980842 22.0813362,80.1015494 22.2617746,80.0561952 C24.0005444,79.6218946 25.7948337,79.1958401 27.5941702,78.7890268 C27.7821794,78.745047 27.955047,78.8756121 27.9929012,79.0735212 C28.0307554,79.2714304 27.9134073,79.4665908 27.7317072,79.5078219 C25.9374178,79.9132608 24.146914,80.3393153 22.4131914,80.7722416 C22.3879552,80.7777391 22.3627191,80.7804878 22.337483,80.7804878" id="Fill-111" fill="#D9E8FF" mask="url(#mask-2)"></path>
                    <path d="M30.3249767,76.7804878 C30.2751166,76.7804878 30.2252564,76.768315 30.1778285,76.7426168 C30.0173033,76.6506443 29.9540661,76.4342385 30.0355448,76.2557037 C30.8369548,74.5028166 31.6262038,72.730994 32.3826181,70.9848695 C32.4616646,70.8049822 32.6525924,70.7292402 32.8167659,70.817155 C32.9785072,70.9023648 33.0453927,71.1187706 32.9675623,71.298658 C32.2099319,73.04884 31.4170346,74.8274253 30.6144085,76.5830175 C30.5560357,76.7088034 30.4429384,76.7804878 30.3249767,76.7804878" id="Fill-112" fill="#D9E8FF" mask="url(#mask-2)"></path>
                    <path d="M17.3396545,74.7804878 C17.1896184,74.7804878 17.0522973,74.6832718 17.0116095,74.5349552 C16.9632928,74.3567259 17.0700982,74.1747575 17.2519216,74.1273959 C18.9976803,73.668736 20.7892127,73.2200469 22.5794737,72.7900532 C22.766383,72.7464306 22.9443919,72.8561102 22.9901656,73.0355858 C23.0346679,73.2138151 22.9240481,73.3945371 22.7409532,73.4381596 C20.9557782,73.8656606 19.1667887,74.3131033 17.4273875,74.7692706 C17.3981432,74.7767487 17.3676273,74.7804878 17.3396545,74.7804878" id="Fill-113" fill="#D9E8FF" mask="url(#mask-2)"></path>
                    <path d="M26.3446947,71.7804878 C26.2956876,71.7804878 26.2466806,71.7698261 26.2002528,71.7485026 C26.0274385,71.6645416 25.9513486,71.4539726 26.0325971,71.2753888 C26.8192894,69.5268667 27.5956644,67.7490248 28.3410875,65.9925064 C28.4171774,65.8125899 28.6209436,65.7312943 28.793758,65.8112572 C28.967862,65.8885546 29.0478209,66.0977909 28.9704413,66.2790401 C28.2237285,68.038224 27.4460639,69.8213967 26.6567923,71.5752497 C26.5987576,71.704523 26.4749503,71.7804878 26.3446947,71.7804878" id="Fill-114" fill="#D9E8FF" mask="url(#mask-2)"></path>
                    <path d="M12.342624,69.7804878 C12.1963831,69.7804878 12.0604048,69.6971239 12.0155063,69.5657971 C11.9590624,69.404779 12.0616876,69.2334832 12.2425644,69.1855204 C14.0038688,68.7058922 15.7946778,68.2353997 17.5649619,67.7911727 C17.7445559,67.7477777 17.9356953,67.8402774 17.9870078,68.0012955 C18.0383204,68.1634555 17.9331296,68.3313254 17.75097,68.3770043 C15.9858172,68.8212314 14.2001394,69.2894399 12.4426835,69.7667841 C12.4093303,69.7770619 12.3746943,69.7804878 12.342624,69.7804878" id="Fill-115" fill="#D9E8FF" mask="url(#mask-2)"></path>
                    <path d="M21.3672066,65.7804878 C21.3191188,65.7804878 21.271031,65.7712867 21.2243171,65.7528844 C21.0388355,65.6766464 20.9495296,65.4715925 21.029218,65.2928276 C21.8137363,63.5117507 22.5748978,61.7319881 23.2920932,60.0021747 C23.3662858,59.8220953 23.5806201,59.7327128 23.7688495,59.8063219 C23.957079,59.8786165 24.0491328,60.0810415 23.9735662,60.2624353 C23.2549969,61.9961922 22.4910876,63.7812125 21.7051953,65.5649183 C21.6461159,65.698992 21.5100961,65.7804878 21.3672066,65.7804878" id="Fill-116" fill="#D9E8FF" mask="url(#mask-2)"></path>
                    <path d="M8.34590508,63.7804878 C8.20346412,63.7804878 8.06879267,63.7067879 8.01958579,63.589921 C7.95613482,63.4435742 8.05195873,63.2835402 8.23324723,63.2330032 C10.0085795,62.7350027 11.796861,62.2506894 13.5501797,61.7948031 C13.7236987,61.7453189 13.9257059,61.8284945 13.9839772,61.9769471 C14.0409536,62.1243468 13.9412449,62.282275 13.7599564,62.3296535 C12.0131123,62.7855398 10.2287156,63.2677474 8.45856292,63.7636421 C8.42230523,63.7752235 8.38345769,63.7804878 8.34590508,63.7804878" id="Fill-117" fill="#D9E8FF" mask="url(#mask-2)"></path>
                    <path d="M16.3930429,59.7804878 C16.3474425,59.7804878 16.3003711,59.7726959 16.2532997,59.7571121 C16.0517753,59.6895823 15.9488067,59.4882916 16.0252977,59.3103766 C16.765201,57.5961587 17.5095173,55.8131124 18.2361818,54.0092878 C18.3082598,53.8287754 18.528907,53.7391686 18.7392572,53.7989065 C18.9422525,53.8625403 19.0496341,54.0612338 18.9775561,54.2417461 C18.2479496,56.0507654 17.5021624,57.8390062 16.7607881,59.5558214 C16.7004778,59.6947769 16.5504378,59.7804878 16.3930429,59.7804878" id="Fill-118" fill="#D9E8FF" mask="url(#mask-2)"></path>
                    <path d="M26.3354465,86.7804878 C26.1774924,86.7804878 26.0383424,86.6452939 26.0057487,86.4486482 C25.9719014,86.2258855 26.0909937,86.0108043 26.2715127,85.9693244 C27.9989786,85.5606701 29.7941391,85.1627699 31.6081037,84.7833052 C31.799905,84.7587245 31.9628735,84.8969909 31.9954672,85.1197536 C32.0255537,85.3425163 31.9027005,85.5545249 31.720928,85.5944686 C29.9119779,85.9708607 28.1205781,86.3672246 26.3993803,86.7743426 C26.3768154,86.7789515 26.3567577,86.7804878 26.3354465,86.7804878" id="Fill-119" fill="#D9E8FF" mask="url(#mask-2)"></path>
                    <path d="M35.3076995,83.7804878 C35.2569957,83.7804878 35.2051396,83.7653645 35.157893,83.7351178 C35.0092388,83.6375036 34.9562304,83.4134034 35.0392001,83.2360481 C35.8308699,81.5284872 36.6317585,79.7590581 37.4199711,77.9758805 C37.4994838,77.7957754 37.6861658,77.7297827 37.8348199,77.8218975 C37.9857788,77.9153872 38.0433967,78.1381125 37.9650363,78.3168427 C37.1756713,80.1068946 36.372478,81.8804482 35.5761988,83.5921337 C35.5208856,83.7131203 35.4160211,83.7804878 35.3076995,83.7804878" id="Fill-120" fill="#D9E8FF" mask="url(#mask-2)"></path>
                    <path d="M31.3823146,91.7608365 C31.1961923,91.7608365 31.0329774,91.6658365 31.0043432,91.5338365 C30.9728456,91.3888365 31.1160166,91.2518365 31.3250462,91.2308365 C32.7338486,91.0798365 34.1483778,90.9378365 35.5657705,90.8028365 C35.7876855,90.7818365 35.9680809,90.8858365 35.9967151,91.0318365 C36.0239176,91.1778365 35.8793149,91.3128365 35.6688536,91.3318365 C34.2543244,91.4668365 32.845522,91.6098365 31.439583,91.7578365 C31.4195391,91.7598365 31.4009268,91.7608365 31.3823146,91.7608365" id="Fill-121" fill="#D9E8FF" mask="url(#mask-2)"></path>
                    <path d="M38.3780374,88.7804878 C38.3115321,88.7804878 38.2450267,88.7656571 38.1841814,88.7347597 C38.0044754,88.6408318 37.9464601,88.439381 38.0540007,88.2824224 C38.8081997,87.176297 39.5567387,86.0639922 40.2939576,84.944272 C40.4000832,84.7873134 40.6321444,84.73417 40.8118504,84.8243903 C40.9915563,84.9158464 41.0538167,85.1172972 40.9491061,85.2754917 C40.2090572,86.3964478 39.4605182,87.5124603 38.7020741,88.6198216 C38.6327388,88.7236367 38.5068031,88.7804878 38.3780374,88.7804878" id="Fill-122" fill="#D9E8FF" mask="url(#mask-2)"></path>
                    <path d="M4.32011063,58.7804878 C4.19071807,58.7804878 4.068514,58.696346 4.02059083,58.5586593 C3.95829071,58.3827264 4.04215625,58.1863954 4.20749118,58.1201018 C5.32410101,57.6738951 6.44550314,57.2327878 7.5716976,56.8006047 C7.73942869,56.7368609 7.92153673,56.8299269 7.98144069,57.004585 C8.04014657,57.1817928 7.95508294,57.3768489 7.78974801,57.4405927 C6.66594972,57.8727758 5.54574566,58.3113333 4.43273007,58.75754 C4.39558962,58.7728385 4.35725108,58.7804878 4.32011063,58.7804878" id="Fill-123" fill="#D9E8FF" mask="url(#mask-2)"></path>
                    <path d="M10.3516087,54.7804878 C10.3147531,54.7804878 10.2752649,54.7747881 10.2384092,54.7605387 C10.0541309,54.692142 9.95672668,54.4769771 10.0185915,54.2774865 C10.4608594,52.8725027 10.8912808,51.4618191 11.3138046,50.0440109 C11.3730369,49.8430953 11.5691616,49.7348004 11.7560725,49.7989224 C11.941667,49.8630444 12.0430201,50.0767843 11.9824715,50.2776999 C11.5599477,51.698358 11.1268938,53.1147413 10.6846259,54.522575 C10.6346075,54.6821674 10.4977151,54.7804878 10.3516087,54.7804878" id="Fill-124" fill="#D9E8FF" mask="url(#mask-2)"></path>
                    <path d="M70,101.780488 C69.9829954,101.420454 69.9620667,101.059134 69.9241334,100.6991 C69.5186396,96.6114276 67.5068672,92.3064491 63.648136,90.7338718 C59.4898627,89.0417118 54.7625899,91.0283282 50.9614127,93.3981237 C48.6344016,94.8511183 45.9502943,96.5368491 43.3302812,95.6984841 C40.6134729,94.8266874 39.4924787,91.7471105 38.4761282,89.1214336 C36.9077829,85.0671931 34.4224984,80.9396599 30.2995422,79.3927994 C26.5454545,77.9835233 22.1321125,79.1240597 19.0137345,81.6160096 C15.8979725,84.1092454 13.9385219,87.7674484 12.7560497,91.5413767 C11.7724003,94.6878171 11.2740353,97.9666986 10.2380641,101.096423 C10.1621975,101.325302 10.0824068,101.552895 10,101.780488 L70,101.780488 Z" id="Fill-125" fill="#1B00EB" mask="url(#mask-2)"></path>
                </g>
            </g>
        </g>
    </g>
</svg>