<?xml version="1.0" encoding="UTF-8"?>
<svg width="62px" height="62px" viewBox="0 0 62 62" version="1.1" xmlns="http://www.w3.org/2000/svg" xmlns:xlink="http://www.w3.org/1999/xlink">
    <!-- Generator: Sketch 55.2 (78181) - https://sketchapp.com -->
    <title>Group 7</title>
    <desc>Created with Sketch.</desc>
    <g id="Marshmello_landing-page" stroke="none" stroke-width="1" fill="none" fill-rule="evenodd">
        <g id="Simple_landngpage" transform="translate(-677.000000, -950.000000)">
            <g id="Group-7" transform="translate(678.000000, 951.000000)">
                <path d="M58,54.0215 C58,56.230625 56.209125,58.0215 54,58.0215 L6,58.0215 C3.790875,58.0215 2,56.230625 2,54.0215 L2,53.0215 C2,52.46925 2.44775,52.0215 3,52.0215 L22,52.0215 L22,53.0215 C22,54.678375 23.343125,56.0215 25,56.0215 L35,56.0215 C36.656875,56.0215 38,54.678375 38,53.0215 L38,52.0215 L57,52.0215 C57.55225,52.0215 58,52.46925 58,53.0215 L58,54.0215 Z M24,52.0215 L36,52.0215 L36,53.0215 C36,53.57375 35.55225,54.0215 35,54.0215 L25,54.0215 C24.44775,54.0215 24,53.57375 24,53.0215 L24,52.0215 Z M41,21.1325 L41,17.9625 C42.082125,17.84075 43.13275,17.52175 44.1,17.0215 L55,17.0215 C55.568125,17.038875 56.015125,17.512375 56.0003728,18.0805 L56.0003728,50.0215 L3.99962732,50.0215 L3.99962732,18.0805 C3.984875,17.512375 4.432,17.038875 5,17.0215 L35.9,17.0215 C36.86725,17.52175 37.917875,17.84075 39,17.9625 L39,29.0215 L35,29.0215 C34.44775,29.0215 34,29.46925 34,30.0215 L34,33.0215 L25,33.0215 C24.44775,33.0215 24,33.46925 24,34.0215 L24,38.0215 L15,38.0215 C14.44775,38.0215 14,38.46925 14,39.0215 L14,46.0215 L10,46.0215 L10,48.0215 L51,48.0215 L51,46.0215 L46,46.0215 L46,30.0215 C46,29.46925 45.55225,29.0215 45,29.0215 L41,29.0215 L41,27.0215 L41,21.1325 Z M16,46.0215 L24,46.0215 L24,40.0215 L16,40.0215 L16,46.0215 Z M26,46.0215 L34,46.0215 L34,35.0215 L26,35.0215 L26,46.0215 Z M36,46.0215 L44,46.0215 L44,31.0215 L36,31.0215 L36,46.0215 Z M40,2.0215 C43.866,2.0215 47,5.1555 47,9.0215 C47,12.8875 43.866,16.0215 40,16.0215 C36.134,16.0215 33,12.8875 33,9.0215 C33.005,5.1575 36.136125,2.0265 40,2.0215 L40,2.0215 Z M58,50.2055 L58,18.0805 C58.014375,16.408125 56.672375,15.039625 55,15.0215 L46.689,15.0215 C50.0145,11.32725 49.715625,5.636625 46.021375,2.311125 C42.327125,-1.0145 36.6365,-0.7155 33.311,2.97875 C30.229625,6.40175 30.229625,11.5985 33.311,15.0215 L5,15.0215 C3.327625,15.039625 1.9855,16.408125 2,18.0805 L2,50.2055 C0.805625,50.62775 0.00525,51.754625 0,53.0215 L0,54.0215 C0.00325,57.333875 2.687625,60.01825 6,60.0215 L54,60.0215 C57.312375,60.01825 59.99675,57.333875 60,54.0215 L60,53.0215 C59.99475,51.754625 59.194375,50.62775 58,50.2055 L58,50.2055 Z" id="Fill-1" stroke="#FFFFFF" stroke-width="0.5" fill="#161514"></path>
                <path d="M41,12.0215 L39,12.0215 C38.44775,12.0215 38,11.57375 38,11.0215 L36,11.0215 C36,12.678375 37.343125,14.0215 39,14.0215 L39,15.0215 L41,15.0215 L41,14.0215 C42.656875,14.0215 44,12.678375 44,11.0215 C44,9.364625 42.656875,8.0215 41,8.0215 L39,8.0215 C38.44775,8.0215 38,7.57375 38,7.0215 C38,6.46925 38.44775,6.0215 39,6.0215 L41,6.0215 C41.55225,6.0215 42,6.46925 42,7.0215 L44,7.0215 C44,5.364625 42.656875,4.0215 41,4.0215 L40.981,4.0215 L41,3.0415 L39,3.0015 L38.98,4.0215 C37.323125,4.027 35.9845,5.374625 35.9899831,7.0315 C35.9955,8.688375 37.343125,10.027 39,10.0215 L41,10.0215 C41.55225,10.0215 42,10.46925 42,11.0215 C42,11.57375 41.55225,12.0215 41,12.0215" id="Fill-3" fill="#FF3602"></path>
                <path d="M11,19.0215 L7,19.0215 C6.44775,19.0215 6,19.46925 6,20.0215 L6,24.0215 L8,24.0215 L8,21.0215 L11,21.0215 L11,19.0215 Z" id="Fill-5" fill="#006DF0"></path>
            </g>
        </g>
    </g>
</svg>