<?xml version="1.0" encoding="UTF-8"?>
<svg width="62px" height="61px" viewBox="0 0 62 61" version="1.1" xmlns="http://www.w3.org/2000/svg" xmlns:xlink="http://www.w3.org/1999/xlink">
    <!-- Generator: Sketch 55.2 (78181) - https://sketchapp.com -->
    <title>Group 12</title>
    <desc>Created with Sketch.</desc>
    <defs>
        <polygon id="path-1" points="0 59.975625 60 59.975625 60 0 0 0"></polygon>
    </defs>
    <g id="Marshmello_landing-page" stroke="none" stroke-width="1" fill="none" fill-rule="evenodd">
        <g id="Simple_landngpage" transform="translate(-341.000000, -951.000000)">
            <g id="Group-12" transform="translate(342.000000, 951.000000)">
                <path d="M30,2.6966375 L32.323,5.9486375 C32.96725,6.8626375 33.434375,7.8893875 33.7,8.9756375 L26.3,8.9756375 C26.566,7.8893875 27.033375,6.8626375 27.678,5.9486375 L30,2.6966375 Z M37.159,17.1426375 C39.460875,19.1138875 40.846375,21.9483875 40.988,24.9756375 L36,24.9756375 L36,16.1496375 L37.159,17.1426375 Z M26,26.9756375 L34,26.9756375 L34,24.9756375 L26,24.9756375 L26,26.9756375 Z M31.613,29.9756375 L28.387,29.9756375 L28.721,28.9756375 L31.279,28.9756375 L31.613,29.9756375 Z M34,11.1806375 L34,22.9756375 L26,22.9756375 L26,11.1806375 C26,11.1116375 26.014,11.0446375 26.016,10.9756375 L33.984,10.9756375 C33.986,11.0446375 34,11.1116375 34,11.1806375 L34,11.1806375 Z M19.042,24.9756375 C19.263625,22.4016375 20.390375,19.9896375 22.222,18.1676375 L24,16.3896375 L24,24.9756375 L19.042,24.9756375 Z M20.808,16.7536375 C18.356,19.1943875 16.984375,22.5160125 16.999868,25.9756375 C16.999868,26.5278875 17.44775,26.9756375 18,26.9756375 L24,26.9756375 L24,27.9756375 C24,28.5278875 24.44775,28.9756375 25,28.9756375 L26.612,28.9756375 L26.051,30.6596375 C25.8765,31.1836375 26.15975,31.7498875 26.68375,31.9243875 C26.78575,31.9582625 26.8925,31.9756375 27,31.9756375 L33,31.9756375 C33.55225,31.9756375 34.000125,31.5281375 34.00025,30.9758875 C34.00025,30.8683875 33.982875,30.7616375 33.949,30.6596375 L33.388,28.9756375 L35,28.9756375 C35.55225,28.9756375 36,28.5278875 36,27.9756375 L36,26.9756375 L42,26.9756375 C42.55225,26.9756375 43.0000016,26.5278875 43.0000016,25.9756375 L43.0000016,25.4946375 C43.001875,21.6992625 41.343,18.0930125 38.46,15.6246375 L36,13.5156375 L36,11.1806375 C36.00425,8.8871375 35.2875,6.6503875 33.951,4.7866375 L30.814,0.3946375 C30.45925,-0.0549875 29.807125,-0.1317375 29.3575,0.2231375 C29.293875,0.2733875 29.23625,0.3308875 29.186,0.3946375 L26.049,4.7866375 C24.7125,6.6503875 23.99575,8.8871375 24,11.1806375 L24,13.5616375 L20.808,16.7536375 Z" id="Fill-1" fill="#FF6237"></path>
                <path d="M30,14.975625 C30.55225,14.975625 31,15.423375 31,15.975625 C31,16.527875 30.55225,16.975625 30,16.975625 C29.44775,16.975625 29,16.527875 29,15.975625 C29,15.423375 29.44775,14.975625 30,14.975625 M30,18.975625 C31.656875,18.975625 33,17.6325 33,15.975625 C33,14.31875 31.656875,12.975625 30,12.975625 C28.343125,12.975625 27,14.31875 27,15.975625 C27,17.6325 28.343125,18.975625 30,18.975625" id="Fill-3" fill="#FB6A43"></path>
                <path d="M57,48.975625 L3,48.975625 C2.44775,48.975625 2,48.527875 2,47.975625 L2,44.975625 L58,44.975625 L58,47.975625 C58,48.527875 57.55225,48.975625 57,48.975625 L57,48.975625 Z M27,53.975625 L33,53.975625 L33,50.975625 L27,50.975625 L27,53.975625 Z M22,57.975625 L38,57.975625 L38,55.975625 L22,55.975625 L22,57.975625 Z M8.972,36.411625 C9.177,36.632 9.472125,36.745625 9.772,36.719625 C10.073,36.69525 10.34675,36.536 10.517,36.286625 C11.446875,34.915375 13.312375,34.557375 14.683625,35.48725 C15.5085,36.0465 16.00175,36.979 16,37.975625 C15.99775,38.036625 15.991375,38.0975 15.981,38.157625 L15.961,38.310625 C15.90075,38.859625 16.296875,39.3535 16.846,39.41375 C17.021625,39.433 17.199375,39.405375 17.361,39.333625 C19.3625,38.419625 21.726,39.301125 22.64,41.3025 C22.87975,41.8275 23.002625,42.3985 23.0000412,42.975625 L2,42.975625 L2,33.025625 C4.660375,33.262 7.14125,34.466875 8.972,36.411625 L8.972,36.411625 Z M39,40.975625 C39.71425,40.980625 40.402625,41.243 40.939,41.714625 C41.358125,42.074125 41.9895,42.02575 42.349125,41.606625 C42.4185,41.525625 42.4745,41.43425 42.515,41.335625 C43.962625,37.76225 48.033,36.038875 51.606375,37.4865 C51.706875,37.527125 51.8065,37.57025 51.905,37.615625 C52.292,37.79175 52.748,37.703875 53.042,37.396625 C54.396625,35.972625 56.109,34.9385 58,34.402625 L58,42.975625 L36.184,42.975625 C36.60625,41.78125 37.733125,40.980875 39,40.975625 L39,40.975625 Z M57,12.975625 L39,12.975625 L39,14.975625 L57,14.975625 C57.55225,14.975625 58,15.423375 58,15.975625 L58,32.331625 C55.780375,32.85675 53.73975,33.960875 52.085875,35.531625 C47.9745,34.016625 43.37,35.69225 41.194,39.495625 C40.5135,39.15275 39.762,38.9745 39,38.975625 C36.624875,38.978625 34.578375,40.64925 34.1,42.975625 L25,42.975625 C24.99675,39.66325 22.312375,36.978875 19,36.975625 C18.637375,36.97525 18.2755,37.008875 17.919,37.075625 C17.420875,34.3595 14.81525,32.5615 12.099125,33.0595 C11.182125,33.22775 10.330375,33.648875 9.64,34.275625 C7.52475,32.373625 4.837125,31.228375 2,31.020625 L2,15.975625 C2,15.423375 2.44775,14.975625 3,14.975625 L21,14.975625 L21,12.975625 L3,12.975625 C1.343125,12.975625 0,14.31875 0,15.975625 L0,47.975625 C0,49.6325 1.343125,50.975625 3,50.975625 L25,50.975625 L25,53.975625 L21,53.975625 C20.44775,53.975625 20,54.423375 20,54.975625 L20,57.975625 L18,57.975625 L18,59.975625 L42,59.975625 L42,57.975625 L40,57.975625 L40,54.975625 C40,54.423375 39.55225,53.975625 39,53.975625 L35,53.975625 L35,50.975625 L57,50.975625 C58.656875,50.975625 60,49.6325 60,47.975625 L60,15.975625 C60,14.31875 58.656875,12.975625 57,12.975625 L57,12.975625 Z" id="Fill-5" stroke="#FFFFFF" stroke-width="0.5" fill="#161514"></path>
                <mask id="mask-2" fill="white">
                    <use xlink:href="#path-1"></use>
                </mask>
                <g id="Clip-8"></g>
                <polygon id="Fill-7" fill="#006DF0" mask="url(#mask-2)" points="37 31.975625 39 31.975625 39 27.975625 37 27.975625"></polygon>
                <polygon id="Fill-9" fill="#006DF0" mask="url(#mask-2)" points="40 29.975625 42 29.975625 42 27.975625 40 27.975625"></polygon>
                <polygon id="Fill-10" fill="#006DF0" mask="url(#mask-2)" points="21 31.975625 23 31.975625 23 27.975625 21 27.975625"></polygon>
                <polygon id="Fill-11" fill="#006DF0" mask="url(#mask-2)" points="18 29.975625 20 29.975625 20 27.975625 18 27.975625"></polygon>
            </g>
        </g>
    </g>
</svg>