<svg width="500" height="543" viewBox="0 0 500 543" fill="none" xmlns="http://www.w3.org/2000/svg">
<g clip-path="url(#clip0)">
<path opacity="0.15" d="M193.012 543.335C212.965 543.335 229.141 541.632 229.141 539.531C229.141 537.431 212.965 535.728 193.012 535.728C173.057 535.728 156.881 537.431 156.881 539.531C156.881 541.632 173.057 543.335 193.012 543.335Z" fill="#137ED9"/>
<path opacity="0.15" d="M391.728 499.598H0V507.204H391.728V499.598Z" fill="#137ED9"/>
<path opacity="0.05" d="M499.053 117.683H330.839V230.314H499.053V117.683Z" fill="#137ED9"/>
<path opacity="0.2" d="M499.062 230.314C499.062 230.314 499.062 229.611 499.062 228.27V222.328L498.949 199.622C498.949 180.055 498.872 151.921 498.825 117.635L499.062 117.873L330.857 117.93L331.162 117.626C331.162 157.75 331.162 195.905 331.162 230.257L330.886 229.981L452.074 230.114L486.702 230.19H495.916H498.293H499.11H498.33H495.982H486.826L452.264 230.267L330.896 230.4H330.62V230.124C330.62 195.772 330.62 157.617 330.62 117.493V117.189H330.934L499.138 117.246H499.376V117.483C499.319 151.836 499.281 180.017 499.253 199.622L499.11 222.441V228.336C499.082 229.639 499.062 230.314 499.062 230.314Z" fill="#137ED9"/>
<path opacity="0.2" d="M330.839 127.733C330.839 127.562 368.471 127.429 414.87 127.429C461.268 127.429 498.911 127.562 498.911 127.733C498.911 127.904 461.288 128.037 414.87 128.037C368.452 128.037 330.839 127.895 330.839 127.733Z" fill="#137ED9"/>
<path opacity="0.2" d="M336.135 124.016C336.88 124.016 337.485 123.411 337.485 122.665C337.485 121.919 336.88 121.315 336.135 121.315C335.389 121.315 334.784 121.919 334.784 122.665C334.784 123.411 335.389 124.016 336.135 124.016Z" fill="#137ED9"/>
<path opacity="0.2" d="M340.755 124.016C341.501 124.016 342.105 123.411 342.105 122.665C342.105 121.919 341.501 121.315 340.755 121.315C340.01 121.315 339.405 121.919 339.405 122.665C339.405 123.411 340.01 124.016 340.755 124.016Z" fill="#137ED9"/>
<path opacity="0.2" d="M345.309 124.016C346.055 124.016 346.66 123.411 346.66 122.665C346.66 121.919 346.055 121.315 345.309 121.315C344.564 121.315 343.959 121.919 343.959 122.665C343.959 123.411 344.564 124.016 345.309 124.016Z" fill="#137ED9"/>
<path opacity="0.3" d="M390.178 139.475H345.309V184.343H390.178V139.475Z" fill="#137ED9"/>
<path opacity="0.2" d="M475.996 152.159C475.996 152.33 458.492 152.463 436.909 152.463C415.326 152.463 397.822 152.33 397.822 152.159C397.822 151.988 415.316 151.855 436.909 151.855C458.502 151.855 475.996 151.997 475.996 152.159Z" fill="#137ED9"/>
<path opacity="0.2" d="M475.996 160.498C475.996 160.669 458.492 160.802 436.909 160.802C415.326 160.802 397.822 160.669 397.822 160.498C397.822 160.326 415.316 160.193 436.909 160.193C458.502 160.193 475.996 160.336 475.996 160.498Z" fill="#137ED9"/>
<path opacity="0.2" d="M475.996 168.836C475.996 169.007 458.492 169.14 436.909 169.14C415.326 169.14 397.822 169.007 397.822 168.836C397.822 168.665 415.316 168.531 436.909 168.531C458.502 168.531 475.996 168.674 475.996 168.836Z" fill="#137ED9"/>
<path opacity="0.2" d="M444.021 177.174C443.42 177.265 442.813 177.303 442.205 177.288L437.251 177.383C433.068 177.441 427.296 177.469 420.917 177.469C414.537 177.469 408.766 177.469 404.582 177.383L399.628 177.288C399.021 177.303 398.413 177.265 397.813 177.174C398.414 177.084 399.021 177.046 399.628 177.06L404.582 176.965C408.766 176.908 414.537 176.88 420.917 176.88C427.296 176.88 433.068 176.88 437.251 176.965L442.205 177.06C442.813 177.046 443.42 177.084 444.021 177.174Z" fill="#137ED9"/>
<path opacity="0.2" d="M369.203 199.48H348.115V220.569H369.203V199.48Z" fill="#137ED9"/>
<path opacity="0.2" d="M407.444 199.48H386.356V220.569H407.444V199.48Z" fill="#137ED9"/>
<path opacity="0.2" d="M445.685 199.48H424.597V220.569H445.685V199.48Z" fill="#137ED9"/>
<path opacity="0.2" d="M483.936 199.48H462.847V220.569H483.936V199.48Z" fill="#137ED9"/>
<path d="M262.487 109.816C261.924 109.904 261.355 109.942 260.786 109.93L256.098 110.025C252.114 110.082 246.59 110.12 240.315 110.13H240.001V109.816C240.001 108.818 240.001 107.762 240.001 106.688C240.001 99.6995 240.001 93.3767 240.096 88.7844L240.21 83.3648C240.197 82.7002 240.238 82.0356 240.334 81.3777C240.429 82.0356 240.47 82.7002 240.457 83.3648L240.552 88.7939C240.61 93.3767 240.648 99.6995 240.648 106.697C240.648 107.772 240.648 108.827 240.648 109.825L240.334 109.512C246.59 109.512 252.143 109.512 256.117 109.616L260.804 109.711C261.367 109.697 261.93 109.732 262.487 109.816Z" fill="#137ED9"/>
<path d="M240.448 76.1008C240.621 76.1008 240.762 74.2874 240.762 72.0504C240.762 69.8135 240.621 68 240.448 68C240.274 68 240.134 69.8135 240.134 72.0504C240.134 74.2874 240.274 76.1008 240.448 76.1008Z" fill="#137ED9"/>
<path d="M259.842 77.5605C261.402 76.001 262.567 74.6374 262.444 74.5149C262.322 74.3924 260.958 75.5573 259.399 77.1168C257.839 78.6763 256.675 80.0398 256.797 80.1623C256.919 80.2849 258.283 79.12 259.842 77.5605Z" fill="#137ED9"/>
<path d="M275.294 88.5562C275.371 88.7178 273.84 89.6306 271.967 90.7716C270.093 91.9125 268.572 92.8443 268.468 92.6731C268.363 92.502 269.742 91.361 271.643 90.2106C273.545 89.0602 275.218 88.4041 275.294 88.5562Z" fill="#137ED9"/>
<path d="M277.301 109.711C280.352 109.711 282.825 109.571 282.825 109.398C282.825 109.224 280.352 109.084 277.301 109.084C274.25 109.084 271.776 109.224 271.776 109.398C271.776 109.571 274.25 109.711 277.301 109.711Z" fill="#137ED9"/>
<path d="M200.952 108.979C203.835 108.979 206.172 108.839 206.172 108.666C206.172 108.492 203.835 108.352 200.952 108.352C198.069 108.352 195.732 108.492 195.732 108.666C195.732 108.839 198.069 108.979 200.952 108.979Z" fill="#137ED9"/>
<path d="M207.648 127.764C209.934 125.923 211.699 124.32 211.59 124.186C211.482 124.051 209.54 125.434 207.254 127.275C204.969 129.116 203.203 130.719 203.312 130.853C203.421 130.988 205.362 129.605 207.648 127.764Z" fill="#137ED9"/>
<path d="M224.997 136.181C225.14 136.286 223.828 138.302 222.316 140.84C220.804 143.379 219.625 145.471 219.464 145.395C219.303 145.318 220.234 143.074 221.774 140.517C223.314 137.96 224.836 136.077 224.997 136.181Z" fill="#137ED9"/>
<path d="M240.448 151.651C240.621 151.651 240.762 149.177 240.762 146.127C240.762 143.076 240.621 140.602 240.448 140.602C240.274 140.602 240.134 143.076 240.134 146.127C240.134 149.177 240.274 151.651 240.448 151.651Z" fill="#137ED9"/>
<path d="M264.275 144.292C264.19 144.435 262.022 143.189 259.721 141.173C257.42 139.158 255.917 137.189 256.003 137.085C256.088 136.98 257.847 138.73 260.13 140.707C262.411 142.685 264.379 144.139 264.275 144.292Z" fill="#137ED9"/>
<path d="M275.471 132.252C275.593 132.129 274.152 130.489 272.251 128.588C270.349 126.687 268.709 125.245 268.587 125.368C268.464 125.49 269.906 127.131 271.807 129.031C273.708 130.933 275.349 132.375 275.471 132.252Z" fill="#137ED9"/>
<path d="M211.1 93.7955C211.223 93.673 209.973 92.2251 208.31 90.5617C206.646 88.8982 205.198 87.649 205.076 87.7716C204.954 87.8941 206.203 89.3419 207.866 91.0054C209.53 92.6688 210.977 93.918 211.1 93.7955Z" fill="#137ED9"/>
<path d="M224.892 79.2577C225.014 79.1349 223.789 77.717 222.155 76.0906C220.521 74.4643 219.098 73.2454 218.975 73.3682C218.853 73.491 220.078 74.909 221.712 76.5353C223.346 78.1617 224.769 79.3805 224.892 79.2577Z" fill="#137ED9"/>
<path opacity="0.05" d="M178.769 159.223H34.4473V217.849H178.769V159.223Z" fill="#137ED9"/>
<path opacity="0.3" d="M178.769 217.84C178.769 217.84 178.769 217.478 178.769 216.794V213.752V202.085L178.683 159.213L178.845 159.375L34.5328 159.442L34.7611 159.213C34.7611 179.742 34.7611 199.556 34.7611 217.84L34.5423 217.621L138.018 217.725L168.034 217.783H176.068H176.125H168.139L138.17 217.84L34.5328 217.944H34.3142V217.725C34.3142 199.451 34.3142 179.637 34.3142 159.1V158.871H34.5519L178.864 158.938H179.025V159.1L178.94 202.066C178.94 207.115 178.94 211.032 178.94 213.694V216.709C178.778 217.498 178.769 217.84 178.769 217.84Z" fill="#137ED9"/>
<path opacity="0.3" d="M34.5899 167.124C34.5899 167.001 66.8502 166.896 106.632 166.896C146.413 166.896 178.683 167.001 178.683 167.124C178.683 167.248 146.432 167.353 106.632 167.353C66.8315 167.353 34.5899 167.295 34.5899 167.124Z" fill="#137ED9"/>
<path opacity="0.3" d="M39.591 164.634C40.1687 164.634 40.6369 164.165 40.6369 163.587C40.6369 163.01 40.1687 162.542 39.591 162.542C39.0134 162.542 38.5452 163.01 38.5452 163.587C38.5452 164.165 39.0134 164.634 39.591 164.634Z" fill="#137ED9"/>
<path opacity="0.3" d="M43.1756 164.634C43.7531 164.634 44.2214 164.165 44.2214 163.587C44.2214 163.01 43.7531 162.542 43.1756 162.542C42.5979 162.542 42.1297 163.01 42.1297 163.587C42.1297 164.165 42.5979 164.634 43.1756 164.634Z" fill="#137ED9"/>
<path opacity="0.3" d="M46.7125 164.634C47.2901 164.634 47.7584 164.165 47.7584 163.587C47.7584 163.01 47.2901 162.542 46.7125 162.542C46.1349 162.542 45.6667 163.01 45.6667 163.587C45.6667 164.165 46.1349 164.634 46.7125 164.634Z" fill="#137ED9"/>
<path opacity="0.2" d="M81.5687 176.651H46.7125V211.507H81.5687V176.651Z" fill="#137ED9"/>
<path opacity="0.3" d="M168.833 185.998C168.833 186.121 150.891 186.226 128.776 186.226C106.66 186.226 88.7091 186.121 88.7091 185.998C88.7091 185.874 106.641 185.77 128.776 185.77C150.911 185.77 168.833 185.865 168.833 185.998Z" fill="#137ED9"/>
<path opacity="0.3" d="M168.833 193.1C168.833 193.223 150.891 193.328 128.776 193.328C106.66 193.328 88.7091 193.223 88.7091 193.1C88.7091 192.976 106.641 192.872 128.776 192.872C150.911 192.872 168.833 192.967 168.833 193.1Z" fill="#137ED9"/>
<path opacity="0.3" d="M140.243 200.193C140.068 200.213 139.893 200.213 139.72 200.193H138.217L132.693 200.269L114.457 200.336L96.2204 200.269L90.696 200.193H89.1941C89.02 200.213 88.8446 200.213 88.6711 200.193C88.8446 200.173 89.02 200.173 89.1941 200.193H90.696L96.2204 200.117L114.457 200.051L132.693 200.117L138.217 200.193H139.72C139.893 200.173 140.068 200.173 140.243 200.193Z" fill="#137ED9"/>
<path opacity="0.3" d="M81.1504 117.712H73.382V142.822H81.1504V117.712Z" fill="#137ED9"/>
<path opacity="0.3" d="M95.4594 107.376H87.6917V142.822H95.4594V107.376Z" fill="#137ED9"/>
<path opacity="0.3" d="M110.682 102.546H102.914V142.813H110.682V102.546Z" fill="#137ED9"/>
<path opacity="0.3" d="M125.914 97.4594H118.146V142.822H125.914V97.4594Z" fill="#137ED9"/>
<path opacity="0.3" fill-rule="evenodd" clip-rule="evenodd" d="M458.987 242.665C460.395 243.398 461.7 244.316 462.866 245.394L467.011 243.92L470.909 250.072L467.8 253.19C468.28 254.706 468.555 256.279 468.618 257.868L472.592 259.77L470.995 266.872H466.593C465.857 268.282 464.936 269.586 463.854 270.752L465.328 274.897L459.176 278.795L456.067 275.686C454.552 276.165 452.979 276.441 451.389 276.504L449.488 280.478L442.386 278.881V274.478C440.976 273.743 439.671 272.822 438.507 271.74L434.361 273.214L430.462 267.062L433.572 263.944C433.092 262.428 432.818 260.855 432.754 259.266L428.78 257.364L430.377 250.262H434.779C435.515 248.852 436.435 247.547 437.517 246.383L436.006 242.247L442.157 238.348L445.276 241.458C446.792 240.978 448.365 240.703 449.954 240.64L451.856 236.665L458.958 238.263V242.665H458.987ZM452.721 251.022C451.212 250.684 449.636 250.799 448.194 251.356C446.751 251.912 445.506 252.884 444.616 254.149C443.726 255.413 443.231 256.913 443.193 258.459C443.156 260.004 443.578 261.527 444.406 262.833C445.235 264.139 446.431 265.17 447.845 265.795C449.259 266.421 450.827 266.612 452.351 266.347C453.874 266.081 455.284 265.37 456.402 264.301C457.521 263.234 458.298 261.859 458.635 260.35C459.085 258.328 458.716 256.212 457.607 254.463C456.499 252.713 454.741 251.476 452.721 251.022Z" fill="#137ED9"/>
<g opacity="0.3">
<path opacity="0.3" fill-rule="evenodd" clip-rule="evenodd" d="M382.505 247.115C383.326 247.541 384.087 248.075 384.768 248.702L387.183 247.847L389.455 251.431L387.648 253.247C387.927 254.129 388.087 255.043 388.124 255.966L390.434 257.069L389.484 261.205H386.926C386.5 262.027 385.966 262.788 385.338 263.468L386.194 265.883L382.609 268.155L380.793 266.349C379.912 266.628 378.997 266.788 378.074 266.825L376.971 269.135L372.835 268.184V265.627C372.014 265.2 371.252 264.667 370.572 264.039L368.157 264.895L365.885 261.31L367.691 259.494C367.414 258.612 367.253 257.698 367.216 256.775L364.924 255.719L365.876 251.584H368.433C368.859 250.762 369.393 250.001 370.021 249.32L369.165 246.906L372.749 244.633L374.565 246.439C375.447 246.161 376.361 246.001 377.285 245.964L378.387 243.654L382.524 244.604V247.162L382.505 247.115ZM378.854 251.983C377.977 251.787 377.061 251.855 376.223 252.179C375.384 252.503 374.66 253.068 374.143 253.803C373.627 254.538 373.339 255.41 373.317 256.309C373.296 257.207 373.541 258.092 374.022 258.851C374.504 259.61 375.199 260.21 376.021 260.574C376.843 260.938 377.754 261.049 378.64 260.895C379.525 260.741 380.345 260.328 380.996 259.708C381.646 259.088 382.099 258.289 382.296 257.412C382.56 256.237 382.346 255.005 381.703 253.987C381.059 252.969 380.038 252.248 378.863 251.983H378.854Z" fill="#137ED9"/>
</g>
<path d="M107.763 289.263H285.619C293.367 289.263 300.798 292.34 306.279 297.817C311.759 303.294 314.841 310.723 314.846 318.472V418.115H78.5069V318.472C78.5094 314.633 79.2684 310.832 80.7397 307.286C82.2116 303.74 84.3677 300.519 87.0843 297.807C89.8009 295.095 93.0256 292.944 96.5737 291.478C100.122 290.012 103.924 289.26 107.763 289.263Z" fill="white"/>
<path d="M325.181 349.933H350.434C353.879 349.933 357.183 351.302 359.618 353.737C362.054 356.173 363.422 359.477 363.422 362.921V464.418H313.116V362.009C313.115 360.423 313.426 358.853 314.032 357.388C314.637 355.923 315.526 354.592 316.646 353.471C317.767 352.35 319.097 351.459 320.562 350.853C322.026 350.246 323.596 349.933 325.181 349.933Z" fill="#137ED9"/>
<path d="M43.9076 349.933H67.3827C70.6417 349.931 73.7684 351.222 76.0749 353.524C78.382 355.826 79.681 358.949 79.686 362.208V464.418H32.8689V360.963C32.8689 358.037 34.031 355.232 36.0993 353.164C38.1677 351.096 40.973 349.933 43.8981 349.933H43.9076Z" fill="#137ED9"/>
<path d="M83.0805 403.672H310.377C314.324 403.672 318.108 405.24 320.899 408.031C323.69 410.821 325.258 414.606 325.258 418.552V424.485H68.7041V418.048C68.7041 414.235 70.2191 410.579 72.9151 407.883C75.6111 405.187 79.2678 403.672 83.0805 403.672Z" fill="#137ED9"/>
<path d="M354.57 349.933H339.215C335.51 349.933 331.958 351.405 329.339 354.024C326.72 356.644 325.248 360.196 325.248 363.901V422.726H68.7041V365.061C68.7041 361.026 67.1018 357.157 64.2484 354.303C61.3957 351.451 57.5263 349.848 53.4916 349.848H38.1838C34.4795 349.848 30.927 351.32 28.3076 353.939C25.6883 356.558 24.2167 360.111 24.2167 363.815V488.331C24.2167 488.866 24.4291 489.378 24.8071 489.756C25.1851 490.134 25.6978 490.346 26.2324 490.346H68.7041V464.343H325.248V490.346H367.719C368.254 490.346 368.767 490.134 369.145 489.756C369.523 489.378 369.736 488.866 369.736 488.331V365.061C369.713 361.049 368.107 357.208 365.266 354.376C362.426 351.542 358.582 349.946 354.57 349.933Z" fill="white"/>
<path opacity="0.3" d="M354.57 349.933H339.215C335.51 349.933 331.958 351.405 329.339 354.024C326.72 356.644 325.248 360.196 325.248 363.901V422.726H68.7041V365.061C68.7041 361.026 67.1018 357.157 64.2484 354.303C61.3957 351.451 57.5263 349.848 53.4916 349.848H38.1838C34.4795 349.848 30.927 351.32 28.3076 353.939C25.6883 356.558 24.2167 360.111 24.2167 363.815V488.331C24.2167 488.866 24.4291 489.378 24.8071 489.756C25.1851 490.134 25.6978 490.346 26.2324 490.346H68.7041V464.343H325.248V490.346H367.719C368.254 490.346 368.767 490.134 369.145 489.756C369.523 489.378 369.736 488.866 369.736 488.331V365.061C369.713 361.049 368.107 357.208 365.266 354.376C362.426 351.542 358.582 349.946 354.57 349.933Z" fill="#137ED9"/>
<path opacity="0.3" d="M107.763 289.263H285.619C293.367 289.263 300.798 292.34 306.279 297.817C311.759 303.294 314.841 310.723 314.846 318.472V418.115H78.5069V318.472C78.5094 314.633 79.2684 310.832 80.7397 307.286C82.2116 303.74 84.3677 300.519 87.0843 297.807C89.8009 295.095 93.0256 292.944 96.5737 291.478C100.122 290.012 103.924 289.26 107.763 289.263Z" fill="#137ED9"/>
<path d="M362.804 492.856V490.546H330.449V492.856H326.408V499.798H366.854V492.856H362.804Z" fill="#137ED9"/>
<path d="M62.3533 492.856V490.546H29.988V492.856H25.9471V499.798H66.3939V492.856H62.3533Z" fill="#137ED9"/>
<path d="M278.63 342.023C271.731 328.038 263.918 314.524 255.241 301.567C252.578 297.592 249.707 293.551 245.59 291.108C241.901 288.94 237.537 288.255 233.23 287.846C222.771 286.801 212.189 286.963 201.654 287.124C185.386 287.362 169.014 287.619 153.088 290.927C151.326 291.21 149.621 291.775 148.039 292.601C146.176 293.861 144.58 295.477 143.342 297.355C134.914 308.499 127.59 320.437 121.474 333C118.407 339.16 115.743 345.512 113.497 352.016C111.414 358.224 108.058 364.052 107.716 370.794C107.402 377.231 110.273 384.276 116.159 386.9C123.565 390.2 132.047 385.522 140.147 385.949C140.147 385.16 140.147 384.371 140.147 383.582L154.286 382.403L153.116 403.625L165.477 387.29C166.136 386.043 167.128 385.004 168.344 384.289C169.56 383.574 170.95 383.21 172.36 383.24L222.372 378.78C227.525 378.324 232.707 377.83 237.851 378.4C245.314 379.18 252.379 382.023 259.633 383.925C266.888 385.826 274.846 386.777 281.711 383.782C282.824 383.378 283.832 382.728 284.658 381.88C285.47 380.82 286.019 379.581 286.256 378.267C289.279 365.954 284.202 353.318 278.63 342.023ZM242.728 368.255V345.864L252.151 362.36L242.728 368.255Z" fill="#137ED9"/>
<path d="M154.352 343.506L143.741 362.36L154.352 369.434V343.506Z" fill="white"/>
<path d="M157.889 369.434C157.889 369.434 160.143 354.82 183.313 357.435C183.779 357.489 184.208 357.713 184.519 358.064C184.829 358.415 184.999 358.868 184.996 359.336C184.997 359.831 184.804 360.307 184.46 360.662C184.115 361.017 183.646 361.223 183.151 361.238C179.234 361.238 170.535 361.723 171.447 365.384H187.497C187.928 365.384 188.342 365.555 188.646 365.86C188.952 366.165 189.123 366.579 189.123 367.009V370.756C189.123 371.513 188.822 372.238 188.288 372.773C187.753 373.308 187.027 373.608 186.27 373.608C186.097 373.608 185.929 373.677 185.806 373.8C185.683 373.923 185.614 374.09 185.614 374.264V376.032C185.615 376.315 185.558 376.596 185.444 376.855C185.331 377.113 185.165 377.346 184.955 377.536C184.747 377.727 184.5 377.872 184.233 377.962C183.964 378.052 183.68 378.084 183.399 378.058C179.111 377.659 170.012 377.364 169.137 381.861H160.884C160.884 381.861 159.658 368.864 157.889 369.434Z" fill="#F5B58F"/>
<path d="M237.423 377.088L236.244 370.014C236.244 370.014 232.945 361.21 213.587 363.805C213.011 363.883 212.483 364.167 212.1 364.604C211.718 365.041 211.506 365.602 211.504 366.182V367.656H209.717C209.485 367.656 209.254 367.702 209.04 367.791C208.826 367.88 208.631 368.01 208.467 368.174C208.303 368.338 208.172 368.533 208.083 368.748C207.994 368.963 207.949 369.192 207.949 369.424C207.949 369.657 207.994 369.887 208.083 370.101C208.172 370.316 208.303 370.511 208.467 370.675C208.631 370.84 208.826 370.969 209.04 371.059C209.254 371.147 209.485 371.193 209.717 371.193H219.729V373.551H210.221C209.608 373.551 209.02 373.795 208.587 374.228C208.154 374.661 207.911 375.248 207.911 375.861C207.91 376.173 207.973 376.481 208.095 376.768C208.217 377.055 208.396 377.314 208.62 377.53C208.845 377.746 209.111 377.914 209.402 378.024C209.694 378.134 210.005 378.185 210.316 378.172L237.423 377.088Z" fill="#F5B58F"/>
<path d="M141.973 397.388L135.507 335.501C135.384 334.799 135.414 334.079 135.594 333.391C135.774 332.702 136.102 332.06 136.553 331.509C137.004 330.958 137.57 330.512 138.21 330.2C138.849 329.888 139.55 329.717 140.261 329.7L237.984 327.438C238.707 327.421 239.426 327.562 240.088 327.853C240.751 328.144 241.341 328.577 241.818 329.121C242.295 329.665 242.647 330.307 242.848 331.002C243.05 331.697 243.097 332.428 242.985 333.142L244.336 391.883C244.336 391.883 206.532 394.649 190.064 394.896C190.064 394.906 159.135 402.056 141.973 397.388Z" fill="white"/>
<path opacity="0.2" d="M141.973 397.388L135.507 335.501C135.384 334.799 135.414 334.079 135.594 333.391C135.774 332.702 136.102 332.06 136.553 331.509C137.004 330.958 137.57 330.512 138.21 330.2C138.849 329.888 139.55 329.717 140.261 329.7L237.984 327.438C238.707 327.421 239.426 327.562 240.088 327.853C240.751 328.144 241.341 328.577 241.818 329.121C242.295 329.665 242.647 330.307 242.848 331.002C243.05 331.697 243.097 332.428 242.985 333.142L244.336 391.883C244.336 391.883 206.532 394.649 190.064 394.896C190.064 394.906 159.135 402.056 141.973 397.388Z" fill="#137ED9"/>
<path opacity="0.2" d="M190.387 354.079C194.205 354.079 197.299 352.223 197.299 349.933C197.299 347.644 194.205 345.788 190.387 345.788C186.57 345.788 183.475 347.644 183.475 349.933C183.475 352.223 186.57 354.079 190.387 354.079Z" fill="#137ED9"/>
<path d="M141.393 385.931C141.393 385.931 108.401 388.288 102.505 395.353C96.6099 402.417 103.685 413.028 122.538 407.133C141.393 401.238 146.109 397.711 146.109 397.711L141.393 385.931Z" fill="#000D44"/>
<path d="M186.166 273.984L184.996 290.48C186.213 292.996 188.033 295.174 190.294 296.817C192.555 298.461 195.186 299.521 197.955 299.903L199.562 303.459C199.758 303.894 200.072 304.266 200.467 304.533C200.863 304.8 201.326 304.952 201.803 304.971C202.28 304.989 202.753 304.875 203.168 304.64C203.583 304.405 203.925 304.058 204.155 303.639L206.208 299.893C206.208 299.893 215.84 295.424 216.914 287.057L215.631 270.438L186.166 273.984Z" fill="#F5B58F"/>
<path d="M282.719 383.572H281.607C277.037 379.764 271.277 377.678 265.329 377.678H236.14L154.371 382.431V382.356L140.233 383.534L139.054 407.105H153.192C153.192 407.105 260.423 420.064 266.337 420.064C272.251 420.064 295.754 413.028 282.719 383.572Z" fill="#1B255E"/>
<path d="M177.39 537.734L200.427 533.513C196.425 513.28 194.542 492.695 192.669 472.158L187.916 420.53C187.173 412.372 186.175 403.606 180.737 397.483C179.012 395.561 176.925 394 174.595 392.889C172.264 391.778 169.738 391.139 167.16 391.008C161.664 390.76 156.434 392.91 151.785 395.609C147.136 398.31 145.539 401.362 144.483 406.648C143.589 411.136 144.588 415.757 145.615 420.216C154.733 459.76 165.933 498.78 177.21 537.763L177.39 537.734Z" fill="#1B255E"/>
<path d="M221.516 251.602C221.516 251.602 228.695 257.802 216.763 259.855L215.583 270.456L183.627 269.867L184.683 262.755C184.683 262.755 173.168 269.278 176.705 253.96L177.913 243.359L188.514 232.758L206.19 236.295L221.507 244.547L221.516 251.602Z" fill="#F5B58F"/>
<path d="M183.808 258.648C184.221 257.674 184.453 256.634 184.492 255.577C184.505 255.047 184.375 254.524 184.116 254.062C183.856 253.601 183.477 253.217 183.019 252.953C182.499 252.735 181.935 252.644 181.374 252.686C179.774 252.733 178.209 253.164 176.81 253.941C176.107 254.331 173.397 248.465 173.188 247.856C172.286 245.488 172.004 242.929 172.37 240.421C173.321 236.057 177.608 232.13 181.526 230.39C181.897 227.081 180.879 223.602 182.011 220.464C182.382 219.435 182.97 218.498 183.736 217.717C184.502 216.936 185.427 216.33 186.449 215.939C187.47 215.548 188.564 215.383 189.656 215.453C190.748 215.523 191.811 215.828 192.774 216.347C194.475 217.298 195.798 218.81 197.594 219.513C199.455 220.134 201.474 220.079 203.299 219.361C205.102 218.643 206.866 217.834 208.585 216.936C210.663 215.912 212.927 215.32 215.241 215.197C217.565 215.081 219.849 215.833 221.65 217.307C224.673 219.951 225.11 224.429 225.053 228.441C224.996 232.453 224.749 236.77 226.955 240.135C227.525 240.845 227.984 241.637 228.314 242.484C228.51 243.793 228.27 245.129 227.63 246.287C226.375 249.254 224.778 252.515 221.735 253.551C220.583 253.883 219.385 254.022 218.188 253.96C217.016 254.084 215.841 253.743 214.918 253.009C214.157 252.239 214.033 251.061 213.53 250.1C213.145 249.406 212.563 248.843 211.856 248.482C211.15 248.121 210.352 247.979 209.565 248.075C210.088 250.185 207.768 252.144 205.59 252.097C203.413 252.049 201.512 250.69 199.8 249.33C195.522 245.936 191.49 242.227 187.44 238.539C187.877 243.749 188.314 249.054 187.145 254.141C186.622 256.109 185.681 258.21 183.808 258.648Z" fill="#000D44"/>
<path d="M184.996 262.204C184.996 262.204 186.175 275.163 193.249 266.958C193.249 266.958 202.671 264.6 207.387 268.137C212.103 271.674 216.81 259.884 216.81 259.884C216.81 259.884 217.989 282.275 209.736 284.604C201.483 286.934 190.444 286.04 185.966 277.074C181.488 268.108 184.996 262.204 184.996 262.204Z" fill="#000D44"/>
<g opacity="0.5">
<path opacity="0.5" d="M233.201 277.416C233.191 279.298 232.79 281.156 232.022 282.874C231.861 282.874 232.022 281.6 232.327 280.088C232.631 278.576 233.05 277.369 233.201 277.416Z" fill="#137ED9"/>
<path opacity="0.5" d="M237.214 267.024C236.814 268.86 236.037 270.592 234.932 272.111C234.78 272.054 235.17 270.865 235.807 269.449C236.444 268.032 237.071 266.948 237.214 267.024Z" fill="#137ED9"/>
<path opacity="0.5" d="M243.356 257.735C243.048 258.628 242.563 259.449 241.93 260.15C241.43 260.953 240.786 261.656 240.028 262.223C239.876 262.118 240.523 261.053 241.445 259.808C242.367 258.562 243.233 257.621 243.356 257.735Z" fill="#137ED9"/>
<path opacity="0.5" d="M249.142 251.728C250.203 250.614 250.967 249.62 250.85 249.508C250.732 249.396 249.776 250.208 248.715 251.322C247.653 252.436 246.889 253.43 247.007 253.542C247.125 253.655 248.08 252.843 249.142 251.728Z" fill="#137ED9"/>
<path opacity="0.5" d="M256.948 243.713C258.028 242.617 258.809 241.636 258.694 241.522C258.578 241.408 257.608 242.203 256.528 243.299C255.449 244.395 254.667 245.376 254.783 245.491C254.899 245.605 255.868 244.809 256.948 243.713Z" fill="#137ED9"/>
<path opacity="0.5" d="M264.5 235.498C265.475 234.308 266.165 233.261 266.039 233.157C265.913 233.054 265.02 233.934 264.044 235.124C263.068 236.313 262.379 237.361 262.505 237.464C262.63 237.568 263.524 236.687 264.5 235.498Z" fill="#137ED9"/>
<path opacity="0.5" d="M271.728 223.564C271.627 224.511 271.3 225.42 270.777 226.216C270.064 227.595 269.294 228.603 269.161 228.517C269.378 227.604 269.751 226.736 270.263 225.95C270.613 225.077 271.108 224.27 271.728 223.564Z" fill="#137ED9"/>
<path opacity="0.5" d="M274.437 212.782C274.657 214.667 274.327 216.575 273.487 218.277C273.568 216.412 273.888 214.566 274.437 212.782Z" fill="#137ED9"/>
<path opacity="0.5" d="M273.61 201.705C274.419 203.419 274.716 205.331 274.466 207.21C273.947 205.419 273.66 203.569 273.61 201.705Z" fill="#137ED9"/>
<path opacity="0.5" d="M269.236 191.502C269.37 191.417 270.188 192.387 270.919 193.756C271.45 194.548 271.778 195.459 271.871 196.409C271.258 195.7 270.763 194.898 270.406 194.032C269.885 193.256 269.49 192.403 269.236 191.502Z" fill="#137ED9"/>
<path opacity="0.5" d="M261.45 183.582C262.361 183.862 263.188 184.365 263.855 185.047C265.053 186.045 265.832 187.053 265.757 187.157C265.681 187.262 264.692 186.464 263.522 185.494C262.353 184.524 261.364 183.725 261.45 183.582Z" fill="#137ED9"/>
<path opacity="0.5" d="M251.314 179.057C253.214 179.118 255.052 179.747 256.591 180.863C254.768 180.47 252.996 179.863 251.314 179.057Z" fill="#137ED9"/>
<path opacity="0.5" d="M240.238 178.553C242.016 177.881 243.96 177.778 245.799 178.258C244.895 178.499 243.959 178.599 243.024 178.553C242.1 178.694 241.161 178.694 240.238 178.553Z" fill="#137ED9"/>
<path opacity="0.5" d="M229.95 182.651C229.855 182.527 230.815 181.7 232.194 180.939C232.984 180.397 233.901 180.069 234.856 179.989C234.135 180.582 233.331 181.066 232.469 181.424C231.696 181.958 230.847 182.371 229.95 182.651Z" fill="#137ED9"/>
<path opacity="0.5" d="M222.286 190.675C222.527 189.752 222.999 188.905 223.656 188.213C224.607 186.977 225.557 186.169 225.71 186.311C225.861 186.454 225.053 187.395 224.122 188.603C223.19 189.81 222.429 190.761 222.286 190.675Z" fill="#137ED9"/>
<path opacity="0.5" d="M218.531 201.096C218.351 200.143 218.426 199.159 218.749 198.244C218.883 197.296 219.26 196.398 219.843 195.639C219.806 196.572 219.63 197.495 219.32 198.377C219.193 199.318 218.927 200.234 218.531 201.096Z" fill="#137ED9"/>
<path opacity="0.5" d="M219.862 212.068C219.28 211.308 218.904 210.411 218.768 209.463C218.443 208.549 218.364 207.565 218.54 206.61C218.933 207.458 219.199 208.358 219.329 209.283C219.648 210.179 219.828 211.118 219.862 212.068Z" fill="#137ED9"/>
<path opacity="0.5" d="M225.51 221.624C225.396 221.728 224.464 220.854 223.56 219.589C222.929 218.875 222.481 218.016 222.258 217.089C222.401 217.003 223.133 218.039 224.027 219.247C224.65 219.951 225.151 220.755 225.51 221.624Z" fill="#137ED9"/>
<path opacity="0.5" d="M233.724 229.097C232.821 228.801 231.997 228.3 231.319 227.633C230.112 226.682 229.275 225.731 229.417 225.589C229.56 225.446 230.53 226.216 231.718 227.177C232.907 228.137 233.819 229.011 233.724 229.097Z" fill="#137ED9"/>
<path opacity="0.5" d="M243.394 234.688C243.327 234.83 242.158 234.383 240.779 233.68C239.401 232.976 238.346 232.292 238.421 232.159C240.236 232.647 241.93 233.509 243.394 234.688Z" fill="#137ED9"/>
<path opacity="0.5" d="M254.005 238.063C252.115 238.101 250.251 237.631 248.605 236.703C250.463 236.898 252.283 237.365 254.005 238.092V238.063Z" fill="#137ED9"/>
<path opacity="0.5" d="M265.11 238.605C263.301 239.17 261.369 239.209 259.539 238.719C260.447 238.484 261.389 238.405 262.324 238.481C263.253 238.369 264.195 238.41 265.11 238.605Z" fill="#137ED9"/>
<path opacity="0.5" d="M275.844 235.753C274.317 236.883 272.494 237.544 270.597 237.654C272.259 236.803 274.022 236.164 275.844 235.753Z" fill="#137ED9"/>
<path opacity="0.5" d="M285.143 229.677C285.248 229.791 284.402 230.742 283.166 231.684C282.471 232.336 281.63 232.811 280.713 233.071C280.627 232.938 281.597 232.12 282.804 231.227C284.012 230.333 285.038 229.554 285.143 229.677Z" fill="#137ED9"/>
<path opacity="0.5" d="M292.436 221.234C292.18 222.151 291.71 222.995 291.067 223.697C290.116 224.942 289.165 225.807 289.089 225.703C289.439 224.858 289.927 224.077 290.534 223.392C291.485 222.128 292.265 221.149 292.436 221.234Z" fill="#137ED9"/>
<path opacity="0.5" d="M297.19 211.213C296.982 213.095 296.262 214.884 295.108 216.385C295.553 214.571 296.254 212.83 297.19 211.213Z" fill="#137ED9"/>
<path opacity="0.5" d="M299.396 200.288C299.635 202.164 299.372 204.071 298.635 205.812C298.609 203.943 298.866 202.081 299.396 200.288Z" fill="#137ED9"/>
<path opacity="0.5" d="M299.092 189.164C299.253 189.164 299.481 190.381 299.595 191.921C299.71 193.461 299.681 194.726 299.519 194.726C298.992 192.921 298.847 191.027 299.092 189.164Z" fill="#137ED9"/>
<path opacity="0.5" d="M296.686 178.258C297.54 179.934 298.035 181.771 298.141 183.649C297.288 181.973 296.792 180.137 296.686 178.258Z" fill="#137ED9"/>
<path opacity="0.5" d="M292.436 167.961C293.09 168.645 293.595 169.458 293.919 170.348C294.386 171.17 294.681 172.079 294.784 173.019C294.161 172.31 293.689 171.483 293.396 170.586C292.905 169.783 292.578 168.891 292.436 167.961Z" fill="#137ED9"/>
<path opacity="0.5" d="M289.748 163.045C289.888 162.963 289.371 161.82 288.592 160.493C287.814 159.165 287.069 158.156 286.929 158.238C286.788 158.321 287.306 159.464 288.084 160.791C288.862 162.118 289.607 163.127 289.748 163.045Z" fill="#137ED9"/>
<path opacity="0.5" d="M284.088 153.423C284.231 153.344 283.743 152.189 282.998 150.843C282.253 149.496 281.534 148.469 281.391 148.548C281.248 148.627 281.737 149.782 282.482 151.128C283.227 152.474 283.946 153.502 284.088 153.423Z" fill="#137ED9"/>
<path opacity="0.5" d="M277.033 138.297C278.022 139.886 278.669 141.664 278.935 143.516C278.792 143.583 278.231 142.461 277.689 141.006C277.147 139.551 276.881 138.344 277.033 138.297Z" fill="#137ED9"/>
<path opacity="0.5" d="M275.141 127.362C275.462 128.243 275.63 129.172 275.635 130.11C275.828 131.029 275.859 131.975 275.731 132.905C275.036 131.145 274.833 129.229 275.141 127.362Z" fill="#137ED9"/>
<path opacity="0.5" d="M276.063 116.238C276.158 117.171 276.09 118.114 275.864 119.024C275.82 119.962 275.614 120.885 275.255 121.753C275.022 119.872 275.301 117.963 276.063 116.228V116.238Z" fill="#137ED9"/>
<path opacity="0.5" d="M279.695 105.713C279.552 106.642 279.249 107.539 278.801 108.365C278.527 109.262 278.099 110.105 277.537 110.856C277.774 108.979 278.517 107.201 279.686 105.713H279.695Z" fill="#137ED9"/>
<path opacity="0.5" d="M285.914 96.4807C286.037 96.5849 285.296 97.593 284.364 98.8096C283.432 100.027 282.633 100.977 282.462 100.892C282.736 99.9807 283.221 99.1461 283.879 98.4582C284.829 97.2222 285.781 96.3758 285.914 96.4807Z" fill="#137ED9"/>
</g>
<path d="M176.61 539.531H202.348C202.968 538.317 203.291 536.973 203.291 535.609C203.291 534.246 202.968 532.902 202.348 531.687C200.256 527.285 188.087 521.78 181.317 528.16C178.835 530.499 175.745 535.243 175.745 536.783C175.768 537.763 176.068 538.715 176.61 539.531Z" fill="#000D44"/>
</g>
<defs>
<clipPath id="clip0">
<rect width="500" height="543" fill="white"/>
</clipPath>
</defs>
</svg>
