<?xml version="1.0" encoding="UTF-8" standalone="no"?>
<svg
   xmlns:dc="http://purl.org/dc/elements/1.1/"
   xmlns:cc="http://creativecommons.org/ns#"
   xmlns:rdf="http://www.w3.org/1999/02/22-rdf-syntax-ns#"
   xmlns:svg="http://www.w3.org/2000/svg"
   xmlns="http://www.w3.org/2000/svg"
   xmlns:sodipodi="http://sodipodi.sourceforge.net/DTD/sodipodi-0.dtd"
   xmlns:inkscape="http://www.inkscape.org/namespaces/inkscape"
   id="Layer_1"
   data-name="Layer 1"
   viewBox="0 0 400 300"
   width="406"
   height="306"
   class="illustration styles_illustrationTablet__1DWOa"
   version="1.1"
   sodipodi:docname="HTML_Two Color.svg"
   inkscape:version="0.92.4 (5da689c313, 2019-01-14)">
  <metadata
     id="metadata9189">
    <rdf:RDF>
      <cc:Work
         rdf:about="">
        <dc:format>image/svg+xml</dc:format>
        <dc:type
           rdf:resource="http://purl.org/dc/dcmitype/StillImage" />
        <dc:title></dc:title>
      </cc:Work>
    </rdf:RDF>
  </metadata>
  <defs
     id="defs9187" />
  <sodipodi:namedview
     pagecolor="#ffffff"
     bordercolor="#666666"
     borderopacity="1"
     objecttolerance="10"
     gridtolerance="10"
     guidetolerance="10"
     inkscape:pageopacity="0"
     inkscape:pageshadow="2"
     inkscape:window-width="1920"
     inkscape:window-height="1027"
     id="namedview9185"
     showgrid="false"
     inkscape:zoom="0.69950739"
     inkscape:cx="203"
     inkscape:cy="153"
     inkscape:window-x="-8"
     inkscape:window-y="-8"
     inkscape:window-maximized="1"
     inkscape:current-layer="Layer_1" />
  <rect
     x="102.92"
     y="45.46"
     width="196.03"
     height="127.37"
     fill="#24285b"
     id="rect9110" />
  <polygon
     points="186.13 158.28 178.68 205.58 228.34 205.58 216.92 158.28 186.13 158.28"
     fill="#c9c9c9"
     id="polygon9112" />
  <ellipse
     cx="203.5"
     cy="234.47"
     rx="155.16"
     ry="30.56"
     fill="#e6e6e6"
     opacity="0.24"
     id="ellipse9114" />
  <rect
     x="167.35"
     y="197.29"
     width="69.84"
     height="15.2"
     fill="#e6e6e6"
     id="rect9116" />
  <circle
     cx="118.86"
     cy="58.16"
     r="3.43"
     fill="#fff"
     id="circle9118" />
  <circle
     cx="129.07"
     cy="58.16"
     r="3.43"
     fill="#9317E1"
     id="circle9120" />
  <circle
     cx="138.68"
     cy="58.16"
     r="3.43"
     fill="#ffd200"
     id="circle9122" />
  <rect
     x="102.92"
     y="148.24"
     width="196.03"
     height="24.59"
     fill="#e6e6e6"
     id="rect9124" />
  <circle
     cx="203.06"
     cy="160.54"
     r="6.7"
     fill="#a5a5a5"
     id="circle9126" />
  <rect
     x="174.52"
     y="117.35"
     width="57.08"
     height="4.16"
     fill="#9317E1"
     id="rect9128" />
  <rect
     x="199.95"
     y="128.29"
     width="57.08"
     height="4.16"
     fill="#ffd200"
     id="rect9130" />
  <rect
     x="160.78"
     y="107.28"
     width="47.9"
     height="4.16"
     fill="#9317E1"
     id="rect9132" />
  <rect
     x="218.64"
     y="107.28"
     width="47.9"
     height="4.16"
     fill="#9317E1"
     id="rect9134" />
  <rect
     x="174.52"
     y="95.67"
     width="42.83"
     height="4.16"
     fill="#ffd200"
     id="rect9136" />
  <rect
     x="228.49"
     y="95.67"
     width="42.83"
     height="4.16"
     fill="#ffd200"
     id="rect9138" />
  <rect
     x="143.01"
     y="117.35"
     width="21.47"
     height="4.16"
     fill="#fff"
     id="rect9140" />
  <rect
     x="164.39"
     y="128.29"
     width="21.47"
     height="4.16"
     fill="#fff"
     id="rect9142" />
  <rect
     x="129.27"
     y="107.28"
     width="21.47"
     height="4.16"
     fill="#fff"
     id="rect9144" />
  <rect
     x="129.27"
     y="75.59"
     width="21.47"
     height="4.16"
     fill="#fff"
     id="rect9146" />
  <rect
     x="143.01"
     y="86.01"
     width="21.47"
     height="4.16"
     fill="#fff"
     id="rect9148" />
  <rect
     x="174.52"
     y="86.01"
     width="42.83"
     height="4.16"
     fill="#ffd200"
     id="rect9150" />
  <rect
     x="228.49"
     y="86.01"
     width="42.83"
     height="4.16"
     fill="#ffd200"
     id="rect9152" />
  <rect
     x="143.01"
     y="95.67"
     width="21.47"
     height="4.16"
     fill="#fff"
     id="rect9154" />
  <rect
     x="159.32"
     y="75.59"
     width="44.22"
     height="4.16"
     fill="#9317E1"
     id="rect9156" />
  <rect
     x="212.79"
     y="75.59"
     width="31.4"
     height="4.16"
     fill="#9317E1"
     id="rect9158" />
  <rect
     x="257.63"
     y="18.85"
     width="74.49"
     height="51.21"
     fill="#ffd200"
     id="rect9160" />
  <path
     d="M284.87,54.51a1.72,1.72,0,0,1-1.07-.37l-11.17-8.83a1.74,1.74,0,0,1,0-2.7l11.17-9A1.72,1.72,0,0,1,286,36.31l-9.48,7.63,9.47,7.49a1.73,1.73,0,0,1-1.07,3.08Z"
     fill="#fff"
     id="path9162" />
  <path
     d="M305.09,54.51A1.72,1.72,0,0,1,304,51.43l9.47-7.49L304,36.31a1.72,1.72,0,1,1,2.17-2.68l11.16,9A1.74,1.74,0,0,1,318,44a1.77,1.77,0,0,1-.66,1.35l-11.17,8.83A1.69,1.69,0,0,1,305.09,54.51Z"
     fill="#fff"
     id="path9164" />
  <path
     d="M290.29,54.51a1.63,1.63,0,0,1-.71-.16,1.71,1.71,0,0,1-.85-2.28l8.13-17.82A1.73,1.73,0,1,1,300,35.69L291.86,53.5A1.73,1.73,0,0,1,290.29,54.51Z"
     fill="#fff"
     id="path9166" />
  <polygon
     points="267.88 225.21 206.06 225.21 199.55 225.21 137.73 225.21 122.63 265.04 199.55 265.04 206.06 265.04 282.97 265.04 267.88 225.21"
     fill="#e6e6e6"
     id="polygon9168" />
  <polygon
     points="230.53 231.84 197.86 231.84 192.92 231.84 143.04 231.84 134.53 258.4 192.92 258.4 197.86 258.4 240.1 258.4 230.53 231.84"
     fill="#c9c9c9"
     id="polygon9170" />
  <polygon
     points="237.19 231.84 247.55 258.4 273.08 258.4 262.19 231.84 237.19 231.84"
     fill="#c9c9c9"
     opacity="0.42"
     id="polygon9172" />
  <polygon
     points="122.63 265.04 128.15 272.44 276.49 272.44 282.97 265.04 122.63 265.04"
     fill="#c9c9c9"
     id="polygon9174" />
  <path
     d="M76.19,213.1s-14.78-4-18-17.8c0,0,22.91-4.63,23.56,19Z"
     fill="#9317E1"
     opacity="0.58"
     id="path9176" />
  <path
     d="M78,211.63S67.68,195.3,76.77,180c0,0,17.42,11.07,9.68,31.64Z"
     fill="#9317E1"
     opacity="0.73"
     id="path9178" />
  <path
     d="M80.67,211.65s5.46-17.25,22-20.52c0,0,3.09,11.2-10.69,20.56Z"
     fill="#9317E1"
     id="path9180" />
  <polygon
     points="69.95 211.26 72.94 231.76 91.82 231.84 94.6 211.36 69.95 211.26"
     fill="#24285b"
     id="polygon9182" />
</svg>
