<svg id="Layer_1" data-name="Layer 1" xmlns="http://www.w3.org/2000/svg" viewBox="0 0 400 300" width="406" height="306" class="illustration styles_illustrationTablet__1DWOa"><title>_</title><path d="M305.2,73.74c25.64,12.82,42.95,40.11,43.34,79.55.32,31.63-1,66.55-57.29,76.43C181.74,249,93.75,258.77,67.56,206.9s-20.09-129,38.52-145.38C148.87,49.58,244.66,43.46,305.2,73.74Z" fill="#e6e6e6" opacity="0.3"></path><rect x="196.27" y="73.74" width="82.66" height="98.73" transform="translate(475.19 246.21) rotate(-180)" fill="#e6e6e6"></rect><rect x="240.37" y="78.59" width="32.06" height="41.75" opacity="0.05"></rect><rect x="202.76" y="78.59" width="32.06" height="41.75" opacity="0.05"></rect><rect x="202.76" y="125.88" width="32.06" height="41.75" opacity="0.05"></rect><rect x="240.37" y="125.88" width="32.06" height="41.75" opacity="0.05"></rect><path d="M245.22,214.93,265,153.29s-58.92.68-58.58,1.7l-18,57.19Z" fill="#ffd200"></path><path d="M206.42,155c-.34-1.7-30.64-18.69-46.64-19.39L135,204.32l54,6.46Z" fill="#ffd200"></path><path d="M206.42,155c-.34-1.7-30.64-18.69-46.64-19.39L135,204.32l54,6.46Z" opacity="0.09"></path><path d="M158.28,151.32a96.42,96.42,0,0,1,38.32,16.77c1,.76,0,2.49-1,1.73a95,95,0,0,0-37.84-16.58C156.48,153,157,151.07,158.28,151.32Z" opacity="0.09"></path><path d="M155,159.09a96.36,96.36,0,0,1,38.32,16.77c1,.76,0,2.49-1,1.73A94.88,94.88,0,0,0,154.5,161C153.24,160.77,153.77,158.84,155,159.09Z" opacity="0.09"></path><path d="M151.92,167.8a96.36,96.36,0,0,1,38.32,16.77c1,.76,0,2.49-1,1.73a95,95,0,0,0-37.84-16.58C150.13,169.48,150.66,167.55,151.92,167.8Z" opacity="0.09"></path><rect x="67.56" y="214.93" width="266.32" height="33.36" fill="#e6e6e6"></rect><rect x="84.01" y="232.91" width="180.99" height="15.38" fill="#c1c1c1"></rect><polygon points="137.49 131.28 135.03 146.86 121.06 148.09 129.2 123.11 137.49 131.28" fill="#f4a28c"></polygon><path d="M134.47,114.38a7.33,7.33,0,0,1,9.94,7.22c-.24,5.79-1.69,13.91-8.08,12.62-9.8-2-7.65-14.72-7.65-14.72A13.38,13.38,0,0,1,134.47,114.38Z" fill="#f4a28c"></path><path d="M87.37,248.29h52.28l5.72-13.56A185.94,185.94,0,0,1,157.18,211c17.32-28.83,5.17-66.65-27.91-69.7a41.92,41.92,0,0,0-26.65,6.6c-17.94,11.27-26.89,32.61-23.3,53.49Z" fill="#9317E1"></path><path d="M126.52,162.14a16.36,16.36,0,0,1,26.86-11,45.73,45.73,0,0,1,11.68,15.11c9.56,20,24.8,33.16,76.18,32v12.55s-74.7,15.83-101.58-14.34C128.2,183.57,125.66,171.62,126.52,162.14Z" fill="#9317E1"></path><path d="M126.52,162.14a16.36,16.36,0,0,1,26.86-11,45.73,45.73,0,0,1,11.68,15.11c9.56,20,24.8,33.16,76.18,32v12.55s-74.7,15.83-101.58-14.34C128.2,183.57,125.66,171.62,126.52,162.14Z" fill="#fff" opacity="0.44"></path><path d="M241.24,201.64s10.3-6.87,15.68-2.09-15.68,11.23-15.68,11.23Z" fill="#f4a28c"></path><path d="M119.47,248.29c-24.4-19.82-20.2-64-20.2-64,1.58-26.07,30-42.94,30-42.94l2.61-11.62-5,.49-3.57,10.94c-34.11,2.51-43,37.54-43,37.54l11.17,69.64Z" opacity="0.09"></path><path d="M132.53,126.3c.36-.49.73-1,1.07-1.47,2-3,3.85-6.14,7.35-7.47,3.84-1.45,2.93-3.65.46-6.25-3.33-3.5-9.5-4.6-14-3.57a12.54,12.54,0,0,0-8.21,5.9,27.78,27.78,0,0,0-2,5.27A38.42,38.42,0,0,1,109.27,133a93.82,93.82,0,0,1-9,8c-3.06,2.61-6,5.48-7.86,9.05s-2.51,7.94-.88,11.62A14.27,14.27,0,0,0,98,168.13c6.67,3.62,15,3.5,22.07.83a11.23,11.23,0,0,0,4.51-2.71A12.22,12.22,0,0,0,127,161c2.31-8.62,2.89-17.56,3.74-26.41.19-2,.11-4.37.7-6.29A6.8,6.8,0,0,1,132.53,126.3Z" fill="#24285b"></path><path d="M137.53,123.37s-.28-3.5-3.42-2.12-.9,5.85,1.25,5.73S137.53,123.37,137.53,123.37Z" fill="#f4a28c"></path><path d="M69.68,248.29H101.2C129.26,235,112,180.54,86.6,178.72c-18.9-1.35-28.78,16.65-33.88,33.55A29.69,29.69,0,0,0,69.68,248.29Z" fill="#ffd200"></path><path d="M69.58,248.29h6.17l4.53-3.83c-32-24.69,3.25-65.79,3.25-65.79C62.31,179.2,53,211.23,53,211.23,46.88,233.78,62,244.45,69.58,248.29Z" opacity="0.09"></path><path d="M85.53,248.29a135.66,135.66,0,0,1,4.23-30.69,5.85,5.85,0,1,0-11.29-3.07,145.3,145.3,0,0,0-4.79,33.76Z" fill="#ffd200"></path><path d="M85.53,248.29a135.66,135.66,0,0,1,4.23-30.69,5.85,5.85,0,1,0-11.29-3.07,145.3,145.3,0,0,0-4.79,33.76Z" fill="#fff" opacity="0.44"></path><path d="M209.65,161.31h42a1,1,0,0,1,0,2h-42A1,1,0,0,1,209.65,161.31Z" opacity="0.09"></path><path d="M207.38,169.84h42a1,1,0,0,1,0,2h-42A1,1,0,0,1,207.38,169.84Z" opacity="0.09"></path><path d="M205.11,178.37h42a1,1,0,0,1,0,2h-42A1,1,0,0,1,205.11,178.37Z" opacity="0.09"></path><path d="M202.85,186.9h42a1,1,0,0,1,0,2h-42A1,1,0,0,1,202.85,186.9Z" opacity="0.09"></path><path d="M313.2,178.6S322.87,176,325,167c0,0-15-3-15.4,12.43Z" fill="#9317E1" opacity="0.58"></path><path d="M312,177.64s6.75-10.67.81-20.66c0,0-11.39,7.24-6.33,20.68Z" fill="#9317E1" opacity="0.73"></path><path d="M310.28,177.65s-3.57-11.28-14.36-13.41c0,0-2,7.32,7,13.44Z" fill="#9317E1"></path><polygon points="317.29 177.39 315.33 190.8 302.99 190.85 301.17 177.46 317.29 177.39" fill="#24285b"></polygon><path d="M161.36,143.37a96.44,96.44,0,0,1,38.32,16.78c1,.75,0,2.49-1,1.73a95.1,95.1,0,0,0-37.84-16.58C159.56,145.05,160.1,143.13,161.36,143.37Z" opacity="0.09"></path><rect x="264.03" y="206.9" width="60.94" height="8.03" transform="translate(589 421.83) rotate(-180)" fill="#c1c1c1"></rect><rect x="294.5" y="206.9" width="30.47" height="8.03" transform="translate(619.47 421.83) rotate(-180)" fill="#dbdbdb"></rect><rect x="261.22" y="198.88" width="60.94" height="8.03" transform="translate(583.39 405.78) rotate(-180)" fill="#c1c1c1"></rect><rect x="291.69" y="198.88" width="30.47" height="8.03" transform="translate(613.85 405.78) rotate(-180)" fill="#dbdbdb"></rect><rect x="269.91" y="190.85" width="60.94" height="8.03" transform="translate(600.75 389.73) rotate(-180)" fill="#c1c1c1"></rect><rect x="300.37" y="190.85" width="30.47" height="8.03" transform="translate(631.22 389.73) rotate(-180)" fill="#dbdbdb"></rect></svg>