<svg xmlns="http://www.w3.org/2000/svg" viewBox="0 0 400 300" width="406" height="306" class="illustration styles_illustrationTablet__1DWOa"><g id="_59_ui_design_outline" data-name="#59_ui_design_outline"><rect x="149.38" y="83.75" width="146.82" height="100.05" rx="8.56" fill="#9317E1"></rect><path d="M287.63,184.8H158a9.58,9.58,0,0,1-9.57-9.57V92.31A9.57,9.57,0,0,1,158,82.75H287.63a9.57,9.57,0,0,1,9.57,9.56v82.92A9.58,9.58,0,0,1,287.63,184.8ZM158,84.75a7.58,7.58,0,0,0-7.57,7.56v82.92A7.58,7.58,0,0,0,158,182.8H287.63a7.58,7.58,0,0,0,7.57-7.57V92.31a7.57,7.57,0,0,0-7.57-7.56Z" fill="#093f68"></path><polygon points="246.25 205.31 199.33 205.31 204.23 183.8 241.35 183.8 246.25 205.31" fill="#9317E1"></polygon><path d="M246.25,206.31H199.33a1,1,0,0,1-.78-.38,1,1,0,0,1-.19-.84l4.89-21.51a1,1,0,0,1,1-.78h37.12a1,1,0,0,1,1,.78l4.89,21.51a1,1,0,0,1-.19.84A1,1,0,0,1,246.25,206.31Zm-45.67-2H245l-4.44-19.51H205Z" fill="#093f68"></path><rect x="159.39" y="92.09" width="126.8" height="74.25" fill="#fff"></rect><path d="M286.19,167.34H159.39a1,1,0,0,1-1-1V92.09a1,1,0,0,1,1-1h126.8a1,1,0,0,1,1,1v74.25A1,1,0,0,1,286.19,167.34Zm-125.8-2h124.8V93.09H160.39Z" fill="#093f68"></path><rect x="189.55" y="205.31" width="66.47" height="8.04" rx="4.02" fill="#9317E1"></rect><path d="M252,214.35H193.58a5,5,0,1,1,0-10H252a5,5,0,0,1,0,10Zm-58.43-8a3,3,0,1,0,0,6H252a3,3,0,1,0,0-6Z" fill="#093f68"></path><path d="M285.6,102.34H160a1,1,0,0,1,0-2H285.6a1,1,0,0,1,0,2Z" fill="#093f68"></path><circle cx="166.24" cy="96.79" r="1.95" fill="#ffbc0e"></circle><circle cx="173.8" cy="96.79" r="1.95" fill="#093f68"></circle><circle cx="181.36" cy="96.79" r="1.95" fill="#093f68"></circle><rect x="173.8" y="107.36" width="54.08" height="21.86" fill="#ffbc0e"></rect><path d="M227.88,130.21H173.8a1,1,0,0,1-1-1V107.36a1,1,0,0,1,1-1h54.08a1,1,0,0,1,1,1v21.85A1,1,0,0,1,227.88,130.21Zm-53.08-2h52.08V108.36H174.8Z" fill="#093f68"></path><path d="M173.8,130.21a1,1,0,0,1-.77-.36,1,1,0,0,1,.14-1.41l17.75-14.59a1,1,0,0,1,1.27,0l14.12,11.76a1,1,0,1,1-1.28,1.54l-13.48-11.24L174.43,130A1,1,0,0,1,173.8,130.21Z" fill="#093f68"></path><path d="M227.88,130.21a1.05,1.05,0,0,1-.62-.21l-16-12.68-8.13,7.17a1,1,0,0,1-1.32-1.5l8.75-7.73a1,1,0,0,1,1.28,0l16.65,13.2a1,1,0,0,1-.63,1.78Z" fill="#093f68"></path><path d="M269.36,109.35h-31a1,1,0,0,1,0-2h31a1,1,0,0,1,0,2Z" fill="#dfeaef"></path><path d="M269.36,118.19h-31a1,1,0,1,1,0-2h31a1,1,0,0,1,0,2Z" fill="#dfeaef"></path><path d="M262.77,127H238.34a1,1,0,0,1,0-2h24.43a1,1,0,0,1,0,2Z" fill="#dfeaef"></path><rect x="173.8" y="136.49" width="23.06" height="16.21" fill="#70cc40"></rect><path d="M196.86,153.7H173.8a1,1,0,0,1-1-1V136.49a1,1,0,0,1,1-1h23.06a1,1,0,0,1,1,1V152.7A1,1,0,0,1,196.86,153.7Zm-22.06-2h21.06V137.49H174.8Z" fill="#093f68"></path><rect x="210.92" y="136.49" width="23.06" height="16.21" fill="#70cc40"></rect><path d="M234,153.7H210.92a1,1,0,0,1-1-1V136.49a1,1,0,0,1,1-1H234a1,1,0,0,1,1,1V152.7A1,1,0,0,1,234,153.7Zm-22.06-2H233V137.49H211.92Z" fill="#093f68"></path><rect x="248.04" y="136.49" width="23.06" height="16.21" fill="#70cc40"></rect><path d="M271.1,153.7H248a1,1,0,0,1-1-1V136.49a1,1,0,0,1,1-1H271.1a1,1,0,0,1,1,1V152.7A1,1,0,0,1,271.1,153.7Zm-22.06-2H270.1V137.49H249Z" fill="#093f68"></path><path d="M190.3,161.27h-9.93a1,1,0,0,1,0-2h9.93a1,1,0,0,1,0,2Z" fill="#dfeaef"></path><path d="M227.42,161.27h-9.94a1,1,0,0,1,0-2h9.94a1,1,0,0,1,0,2Z" fill="#dfeaef"></path><path d="M264.54,161.27H254.6a1,1,0,0,1,0-2h9.94a1,1,0,0,1,0,2Z" fill="#dfeaef"></path><rect x="99.48" y="111.49" width="65.71" height="101.88" rx="5.33" fill="#9317E1"></rect><path d="M159.85,214.37h-55A6.35,6.35,0,0,1,98.47,208V116.82a6.35,6.35,0,0,1,6.34-6.33h55a6.34,6.34,0,0,1,6.34,6.33V208A6.34,6.34,0,0,1,159.85,214.37Zm-55-101.88a4.34,4.34,0,0,0-4.34,4.33V208a4.35,4.35,0,0,0,4.34,4.33h55a4.35,4.35,0,0,0,4.34-4.33V116.82a4.34,4.34,0,0,0-4.34-4.33Z" fill="#093f68"></path><rect x="105.02" y="125.01" width="54.63" height="73.2" rx="2.56" fill="#fff"></rect><path d="M157.08,199.21h-49.5a3.56,3.56,0,0,1-3.56-3.56V127.57a3.56,3.56,0,0,1,3.56-3.56h49.5a3.57,3.57,0,0,1,3.57,3.56v68.08A3.56,3.56,0,0,1,157.08,199.21ZM107.58,126a1.56,1.56,0,0,0-1.56,1.56v68.08a1.56,1.56,0,0,0,1.56,1.56h49.5a1.56,1.56,0,0,0,1.57-1.56V127.57a1.56,1.56,0,0,0-1.57-1.56Z" fill="#093f68"></path><circle cx="123.85" cy="117.16" r="0.86" fill="#093f68"></circle><path d="M141.67,118.16H128a1,1,0,0,1,0-2h13.72a1,1,0,0,1,0,2Z" fill="#093f68"></path><circle cx="132.33" cy="207.08" r="3.61" fill="#093f68"></circle><rect x="111.64" y="132.88" width="41.47" height="26.14" fill="#f56132"></rect><path d="M153.12,160H111.64a1,1,0,0,1-1-1V132.88a1,1,0,0,1,1-1h41.48a1,1,0,0,1,1,1V159A1,1,0,0,1,153.12,160Zm-40.48-2h39.48V133.88H112.64Z" fill="#093f68"></path><rect x="111.64" y="182.37" width="41.47" height="8.7" rx="4.35" fill="#70cc40"></rect><path d="M148.76,192.08H116a5.36,5.36,0,0,1,0-10.71h32.77a5.36,5.36,0,1,1,0,10.71ZM116,183.37a3.36,3.36,0,0,0,0,6.71h32.77a3.36,3.36,0,1,0,0-6.71Z" fill="#093f68"></path><path d="M153.12,167.33H111.64a1,1,0,0,1,0-2h41.48a1,1,0,0,1,0,2Z" fill="#dfeaef"></path><path d="M143.79,175.35H111.64a1,1,0,0,1,0-2h32.15a1,1,0,0,1,0,2Z" fill="#dfeaef"></path><path d="M139.52,156.53a1,1,0,0,1-.76-.35l-12.52-14.41L113,155.61a1,1,0,1,1-1.44-1.39l14-14.63a1,1,0,0,1,1.47,0l13.24,15.24a1,1,0,0,1-.1,1.41A1,1,0,0,1,139.52,156.53Z" fill="#093f68"></path><path d="M153.11,153.81a1,1,0,0,1-.64-.24l-8.63-7.32-6.66,6.5a1,1,0,0,1-1.4-1.44l7.31-7.13a1,1,0,0,1,1.35,0l9.32,7.9a1,1,0,0,1-.65,1.77Z" fill="#093f68"></path><path d="M92.6,214.37a1,1,0,0,1-.94-.83,1,1,0,0,1,.85-1.17c1-.2,165.52-.06,215.9,0a1,1,0,0,1,0,2h0c-2.13,0-212.7-.18-215.63,0Z" fill="#093f68"></path><rect x="273.49" y="162.43" width="34.91" height="26.67" rx="2.72" fill="#fff"></rect><path d="M305.69,190.1H276.21a3.73,3.73,0,0,1-3.72-3.72V165.15a3.73,3.73,0,0,1,3.72-3.72h29.48a3.73,3.73,0,0,1,3.72,3.72v21.23A3.73,3.73,0,0,1,305.69,190.1Zm-29.48-26.67a1.72,1.72,0,0,0-1.72,1.72v21.23a1.72,1.72,0,0,0,1.72,1.72h29.48a1.72,1.72,0,0,0,1.72-1.72V165.15a1.72,1.72,0,0,0-1.72-1.72Z" fill="#093f68"></path><path d="M302.34,170.53h-21.4a1,1,0,0,1,0-2h21.4a1,1,0,0,1,0,2Z" fill="#dfeaef"></path><path d="M302.34,176.76h-21.4a1,1,0,0,1,0-2h21.4a1,1,0,0,1,0,2Z" fill="#dfeaef"></path><path d="M296.48,183H280.94a1,1,0,0,1,0-2h15.54a1,1,0,0,1,0,2Z" fill="#dfeaef"></path><polygon points="313.31 184.34 301.1 196.55 294.17 177.41 313.31 184.34" fill="#fff"></polygon><path d="M301.1,197.55l-.22,0a1,1,0,0,1-.72-.63l-6.93-19.14a1,1,0,0,1,1.28-1.28l19.14,6.93A1,1,0,0,1,314,185l-12.21,12.21A1,1,0,0,1,301.1,197.55Zm-5.26-18.47,5.67,15.65,10-10Z" fill="#093f68"></path><line x1="307.21" y1="190.44" x2="311.32" y2="194.55" fill="#fff"></line><path d="M311.32,195.55a1,1,0,0,1-.71-.29l-4.11-4.11a1,1,0,0,1,0-1.42,1,1,0,0,1,1.41,0l4.11,4.12a1,1,0,0,1,0,1.41A1,1,0,0,1,311.32,195.55Z" fill="#093f68"></path></g></svg>