<svg id="Layer_1" data-name="Layer 1" xmlns="http://www.w3.org/2000/svg" viewBox="0 0 400 300" width="406" height="306" class="illustration styles_illustrationTablet__1DWOa"><title>_</title><path d="M293.49,62.14c33.41,11.29,65.23,42.31,66.17,82.38s-10.15,80.9-71,96.76c-57.2,14.89-193,20.35-229.15-29.44C25.37,164.91,36.25,88.67,95.91,64.26,137.73,47.15,228.23,40.08,293.49,62.14Z" fill="#e6e6e6" opacity="0.3"></path><rect x="69.78" y="66.52" width="59.74" height="46.2" fill="#e6e6e6"></rect><rect x="69.78" y="57.57" width="59.74" height="8.95" fill="#24285b"></rect><g opacity="0.12"><path d="M97.34,102.56A13.55,13.55,0,0,1,92,100.34c-.53.55-1.06,1.09-1.57,1.65-.26.29-.44.26-.7,0-.85-.87-1.72-1.73-2.6-2.58-.25-.25-.22-.4,0-.63.54-.53,1.06-1.09,1.56-1.6-.44-.87-.94-1.73-1.33-2.63a17,17,0,0,1-.71-2.3c-.07-.29-.18-.37-.45-.36-.66,0-1.33,0-2,0-.32,0-.42-.12-.42-.43,0-1.23,0-2.47,0-3.71,0-.32.12-.43.43-.42.68,0,1.35,0,2,0,.13,0,.34-.13.36-.23a13.55,13.55,0,0,1,2.17-5c-.55-.55-1.09-1.1-1.66-1.62-.25-.24-.24-.39,0-.63.89-.86,1.76-1.73,2.63-2.61.24-.24.41-.23.64,0,.51.56,1,1.1,1.58,1.66.4-.25.74-.46,1.09-.66A12.53,12.53,0,0,1,97,76.77c.29,0,.4-.15.39-.47,0-.65,0-1.29,0-1.94,0-.31.1-.43.43-.43,1.25,0,2.5,0,3.74,0,.35,0,.45.14.45.46,0,.75,0,1.49,0,2.29a13.64,13.64,0,0,1,5.35,2.22c.54-.56,1.07-1.1,1.59-1.66.24-.27.42-.25.67,0,.85.87,1.72,1.74,2.6,2.58.27.26.24.42,0,.66-.54.52-1.06,1.06-1.62,1.62.14.22.3.46.44.7a12.19,12.19,0,0,1,1.65,4.14c.07.36.22.42.54.41.62,0,1.24,0,1.86,0,.34,0,.49.1.48.46,0,1.21,0,2.42,0,3.62,0,.36-.11.49-.47.48-.67,0-1.35,0-2,0a.46.46,0,0,0-.34.26,13.41,13.41,0,0,1-2.15,5c.54.54,1.06,1.09,1.61,1.61.27.25.3.42,0,.69-.88.84-1.74,1.71-2.6,2.57-.23.24-.4.26-.63,0-.52-.56-1-1.1-1.6-1.67a13.86,13.86,0,0,1-5.35,2.21c0,.78,0,1.52,0,2.27,0,.34-.09.49-.46.49-1.23,0-2.47,0-3.71,0-.37,0-.46-.15-.45-.48C97.35,104.08,97.34,103.34,97.34,102.56Zm2.34-20.63a7.7,7.7,0,1,0,7.74,7.71A7.72,7.72,0,0,0,99.68,81.93Z"></path></g><rect x="228.44" y="54.75" width="90.59" height="90.59" fill="#e6e6e6"></rect><rect x="258.36" y="64.5" width="87.25" height="38.4" fill="#ccc"></rect><rect x="128.87" y="216.55" width="99.95" height="28.32" rx="14.16" fill="#e6e6e6"></rect><rect x="176.83" y="185.12" width="99.95" height="28.32" rx="14.16" fill="#e6e6e6"></rect><rect x="224.79" y="153.69" width="99.95" height="28.32" rx="14.16" fill="#e6e6e6"></rect><rect x="69.59" y="186.14" width="52.56" height="57.22" fill="#e6e6e6"></rect><rect x="77.67" y="193.27" width="9.14" height="9.14" fill="#a8a8a8"></rect><polyline points="80.33 197.93 81.64 199.89 84.01 196.36" fill="none" stroke="#fff" stroke-linecap="round" stroke-linejoin="round" stroke-width="2"></polyline><rect x="91.79" y="196.26" width="21.17" height="3.63" fill="#fff"></rect><rect x="77.67" y="209.88" width="9.14" height="9.14" fill="#a8a8a8"></rect><polyline points="80.33 214.54 81.64 216.51 84.01 212.98" fill="none" stroke="#fff" stroke-linecap="round" stroke-linejoin="round" stroke-width="2"></polyline><rect x="91.79" y="212.88" width="21.17" height="3.63" fill="#fff"></rect><rect x="77.67" y="225.41" width="9.14" height="9.14" fill="#a8a8a8"></rect><polyline points="80.33 230.07 81.64 232.04 84.01 228.5" fill="none" stroke="#fff" stroke-linecap="round" stroke-linejoin="round" stroke-width="2"></polyline><rect x="91.79" y="228.4" width="21.17" height="3.63" fill="#fff"></rect><path d="M257.1,80.19a23.47,23.47,0,0,0,3.68-2.59c.62-.79,1.66-5,2.49-5.86s2.51-.8,2.72-.08a6.6,6.6,0,0,1,.07,2s.93-1.13,1-.62a12.78,12.78,0,0,1-2.59,6.09c-2,2.52-5.41,6-5.41,6Z" fill="#f4a28c"></path><rect x="101.03" y="143.06" width="36.77" height="24.25" transform="translate(57.65 -30.63) rotate(19.19)" fill="#ffd200"></rect><path d="M191.32,83.6s47.28,7.91,67.11-5l2.93,4.64s-8.13,12.42-31.28,17.87-36.57,2.72-36.57,2.72Z" fill="#9317E1"></path><path d="M191.32,83.6s47.28,7.91,67.11-5l2.93,4.64s-8.13,12.42-31.28,17.87-36.57,2.72-36.57,2.72Z" fill="#fff" opacity="0.46"></path><path d="M147.89,206.73s-1.13,2.62.49,4.42.47,4-1.54,2.93-4.19-6.93-4.19-6.93l3.18-3.09Z" fill="#9317E1"></path><path d="M219.66,180.93s2.46,1.42,4.45,0,4,0,2.72,1.87-7.36,3.36-7.36,3.36l-2.7-3.52Z" fill="#9317E1"></path><path d="M189.25,63a30.58,30.58,0,0,1-2.28,7.8,2.45,2.45,0,0,1-3.33,1,5.43,5.43,0,0,1-3.18-5l-.42-4.5a4.39,4.39,0,0,1,3-4.11C186.16,57,189.84,60.06,189.25,63Z" fill="#f4a28c"></path><polygon points="180.12 63.17 173.97 77.98 182.38 80.78 183.47 68.88 180.12 63.17" fill="#f4a28c"></polygon><path d="M188,62.91a19.93,19.93,0,0,1-4.3-1.39,4.07,4.07,0,0,1-1.05,4.35,3.33,3.33,0,0,1-4.21.35L180,60.13a5,5,0,0,1,3.5-3.73,16.46,16.46,0,0,1,2.28-.51c1.92-.28,4.22,1.51,6.08.7a1.18,1.18,0,0,1,1.64,1.19c-.17,1.92-1.2,4.77-4,5.18A4.56,4.56,0,0,1,188,62.91Z" fill="#24285b"></path><path d="M183.21,65.85s.41-1.84-1-2-2,2.47-.2,3.16Z" fill="#f4a28c"></path><path d="M188.63,66l.89,2.15a.78.78,0,0,1-.76,1.08l-1.91-.1Z" fill="#f4a28c"></path><path d="M183.34,71.5A5.82,5.82,0,0,1,181,69.17s-.57,2.88,1.89,6.44Z" fill="#ce8172" opacity="0.31"></path><path d="M174,78l5.72,1.9a36.59,36.59,0,0,0,4.25,1.17c4.6,1,18,5,20.54,20,3.08,18.2-22.37,42.92-22.37,42.92l-29.63-7S131.6,69.42,174,78Z" fill="#9317E1"></path><path d="M152.48,136.92s-4,18.81,10.2,21.31,38.57-8.58,53.43,25l5.23-3.08s-3.47-30.66-36-39.54Z" fill="#24285b"></path><path d="M157.16,145.12S175.65,174,144,201.42l3.94,5.31s34.08-15.61,30.77-59.12Z" fill="#24285b"></path><path d="M174,94.44s.14,7.43-8.93,16.94,3.59,27.34,3.59,27.34l-16.14-1.8s-6.26-22.09-5-36.45,25.69-6,25.69-6Z" opacity="0.08"></path><path d="M157.84,77.4c-17.83,1.07-55.19,9.11-39.28,59.19l7.89-.7S124.11,98.21,157,99.66a28.23,28.23,0,0,0,3.68,0c5.49-.46,18.61-2.68,13.13-13.37A16.71,16.71,0,0,0,157.84,77.4Z" fill="#9317E1"></path><path d="M157.84,77.4c-17.83,1.07-55.19,9.11-39.28,59.19l7.89-.7S124.11,98.21,157,99.66a28.23,28.23,0,0,0,3.68,0c5.49-.46,18.61-2.68,13.13-13.37A16.71,16.71,0,0,0,157.84,77.4Z" fill="#fff" opacity="0.46"></path><path d="M125.05,136a14.25,14.25,0,0,1,0,7.68c-1.23,3.57-3.84,4.44-6.13,3.23s2.18-7.24,2.18-7.24l-1.43-3.2Z" fill="#f4a28c"></path><path d="M246.29,163.55h3.43a9.33,9.33,0,0,1,1.52.09,2.2,2.2,0,0,1,.9.35,2.3,2.3,0,0,1,.66.72,2,2,0,0,1,.26,1,2,2,0,0,1-.33,1.1,2,2,0,0,1-.88.76,2.21,2.21,0,0,1,1.21.78,2.08,2.08,0,0,1,.42,1.29,2.58,2.58,0,0,1-.27,1.14,2.32,2.32,0,0,1-.74.89,2.51,2.51,0,0,1-1.17.4c-.29,0-1,.06-2.09.06h-2.92ZM248,165v2h1.14q1,0,1.26,0a1.19,1.19,0,0,0,.7-.31.9.9,0,0,0,.25-.67,1,1,0,0,0-.22-.65,1,1,0,0,0-.65-.3c-.17,0-.67,0-1.48,0Zm0,3.42v2.3h1.61a7,7,0,0,0,1.19-.06,1.09,1.09,0,0,0,.63-.34,1.05,1.05,0,0,0,.24-.73,1.09,1.09,0,0,0-.19-.66,1,1,0,0,0-.54-.39,6.07,6.07,0,0,0-1.54-.12Z" fill="#999"></path><path d="M254.93,163.55h1.74v4.66a10.36,10.36,0,0,0,.06,1.43,1.45,1.45,0,0,0,.53.85,1.87,1.87,0,0,0,1.15.32,1.75,1.75,0,0,0,1.11-.3,1.21,1.21,0,0,0,.45-.75,9.56,9.56,0,0,0,.08-1.45v-4.76h1.73v4.51a11.11,11.11,0,0,1-.14,2.19,2.36,2.36,0,0,1-.51,1.08,2.76,2.76,0,0,1-1,.7,4.45,4.45,0,0,1-1.65.26,4.9,4.9,0,0,1-1.86-.28,2.71,2.71,0,0,1-1-.74,2.37,2.37,0,0,1-.49-1,10.55,10.55,0,0,1-.17-2.17Z" fill="#999"></path><path d="M265.55,172.14V165H263v-1.46h6.82V165h-2.54v7.13Z" fill="#999"></path><path d="M272.88,172.14V165h-2.55v-1.46h6.82V165h-2.54v7.13Z" fill="#999"></path><path d="M277.7,167.9a5.47,5.47,0,0,1,.4-2.2,3.91,3.91,0,0,1,.8-1.18,3.05,3.05,0,0,1,1.11-.77,4.63,4.63,0,0,1,1.85-.34,4.06,4.06,0,0,1,3,1.17,5.26,5.26,0,0,1,0,6.53,4.51,4.51,0,0,1-6.07,0A4.41,4.41,0,0,1,277.7,167.9Zm1.79-.06a3.21,3.21,0,0,0,.68,2.21,2.15,2.15,0,0,0,1.71.76,2.18,2.18,0,0,0,1.7-.75,3.31,3.31,0,0,0,.66-2.24,3.21,3.21,0,0,0-.64-2.2,2.4,2.4,0,0,0-3.45,0A3.24,3.24,0,0,0,279.49,167.84Z" fill="#999"></path><path d="M287.41,172.14v-8.59h1.68l3.52,5.74v-5.74h1.61v8.59h-1.74l-3.46-5.6v5.6Z" fill="#999"></path><path d="M303.24,172.14h-1.65v-6.2a5.73,5.73,0,0,1-2.12,1.25v-1.5a4.88,4.88,0,0,0,1.4-.8,3,3,0,0,0,1-1.37h1.34Z" fill="#999"></path><path d="M149.7,226.42h3.43a11,11,0,0,1,1.52.08,2.24,2.24,0,0,1,.9.36,2.37,2.37,0,0,1,.66.71,2,2,0,0,1,.26,1,2.08,2.08,0,0,1-.32,1.11,2,2,0,0,1-.88.75,2.34,2.34,0,0,1,1.2.78,2.09,2.09,0,0,1,.42,1.3,2.58,2.58,0,0,1-.27,1.14,2.28,2.28,0,0,1-.74.88,2.47,2.47,0,0,1-1.17.41c-.28,0-1,.05-2.09.06H149.7Zm1.73,1.43v2h1.14q1,0,1.26,0a1.1,1.1,0,0,0,.7-.3,1,1,0,0,0,0-1.32.93.93,0,0,0-.65-.3c-.17,0-.66,0-1.48,0Zm0,3.41v2.3H153a8.92,8.92,0,0,0,1.19-.05,1,1,0,0,0,.87-1.07,1.09,1.09,0,0,0-.19-.66,1,1,0,0,0-.54-.39,5.43,5.43,0,0,0-1.54-.13Z" fill="#999"></path><path d="M158.35,226.42h1.73v4.65a8.56,8.56,0,0,0,.07,1.44,1.35,1.35,0,0,0,.53.84,2.22,2.22,0,0,0,2.26,0,1.19,1.19,0,0,0,.45-.74,10,10,0,0,0,.07-1.46v-4.75h1.74v4.51a12,12,0,0,1-.14,2.19,2.39,2.39,0,0,1-1.53,1.77,4.35,4.35,0,0,1-1.66.26,4.71,4.71,0,0,1-1.86-.28,2.71,2.71,0,0,1-1-.74,2.44,2.44,0,0,1-.48-.95,10,10,0,0,1-.17-2.18Z" fill="#999"></path><path d="M169,235v-7.14h-2.55v-1.45h6.83v1.45h-2.55V235Z" fill="#999"></path><path d="M176.29,235v-7.14h-2.55v-1.45h6.83v1.45H178V235Z" fill="#999"></path><path d="M181.12,230.77a5.53,5.53,0,0,1,.39-2.21,3.91,3.91,0,0,1,.8-1.18,3.53,3.53,0,0,1,1.11-.77,4.63,4.63,0,0,1,1.85-.34,4,4,0,0,1,3,1.18,5.26,5.26,0,0,1,0,6.53,4.54,4.54,0,0,1-6.07,0A4.42,4.42,0,0,1,181.12,230.77Zm1.78-.06a3.21,3.21,0,0,0,.68,2.21,2.2,2.2,0,0,0,1.71.75,2.17,2.17,0,0,0,1.7-.75,3.28,3.28,0,0,0,.67-2.24,3.23,3.23,0,0,0-.65-2.2,2.39,2.39,0,0,0-3.45,0A3.24,3.24,0,0,0,182.9,230.71Z" fill="#999"></path><path d="M190.82,235v-8.59h1.69l3.51,5.73v-5.73h1.61V235h-1.74l-3.46-5.6V235Z" fill="#999"></path><path d="M208,233.48V235h-5.77a4,4,0,0,1,.56-1.65,11.28,11.28,0,0,1,1.85-2.06,12.77,12.77,0,0,0,1.37-1.4,1.88,1.88,0,0,0,.34-1,1,1,0,0,0-1.12-1.14,1.1,1.1,0,0,0-.82.31,1.61,1.61,0,0,0-.35,1l-1.64-.16a2.74,2.74,0,0,1,.92-2,3.12,3.12,0,0,1,1.93-.59,2.78,2.78,0,0,1,2,.69,2.23,2.23,0,0,1,.73,1.7,3,3,0,0,1-.21,1.11,4.7,4.7,0,0,1-.66,1.1,10.47,10.47,0,0,1-1.08,1.09c-.52.48-.84.8-1,1a3.18,3.18,0,0,0-.34.46Z" fill="#999"></path><path d="M197.61,195h3.44a9.75,9.75,0,0,1,1.52.08,2.41,2.41,0,0,1,.89.35,2.08,2.08,0,0,1,.66.72,2,2,0,0,1-.06,2.11,2,2,0,0,1-.88.76,2.29,2.29,0,0,1,1.21.78,2.09,2.09,0,0,1,.42,1.3,2.39,2.39,0,0,1-.28,1.13,2.32,2.32,0,0,1-.74.89,2.43,2.43,0,0,1-1.16.41c-.29,0-1,0-2.09.06h-2.93Zm1.74,1.43v2h1.13q1,0,1.26,0a1.11,1.11,0,0,0,.7-.31.9.9,0,0,0,.26-.67,1,1,0,0,0-.22-.64,1,1,0,0,0-.66-.31c-.17,0-.66,0-1.48,0Zm0,3.41v2.3H201a8.81,8.81,0,0,0,1.19,0,1.1,1.1,0,0,0,.63-.35A1.05,1.05,0,0,0,203,201a1,1,0,0,0-.73-1.05,5.92,5.92,0,0,0-1.53-.12Z" fill="#999"></path><path d="M206.26,195H208v4.65a9.7,9.7,0,0,0,.07,1.43,1.37,1.37,0,0,0,.53.85,1.86,1.86,0,0,0,1.14.32,1.76,1.76,0,0,0,1.12-.3,1.19,1.19,0,0,0,.45-.74,9.72,9.72,0,0,0,.08-1.46V195h1.73v4.51a11.84,11.84,0,0,1-.14,2.18,2.37,2.37,0,0,1-.52,1.08,2.61,2.61,0,0,1-1,.7,4.45,4.45,0,0,1-1.65.26,4.8,4.8,0,0,1-1.87-.28,2.67,2.67,0,0,1-1-.74,2.34,2.34,0,0,1-.49-.95,10.73,10.73,0,0,1-.17-2.18Z" fill="#999"></path><path d="M216.87,203.58v-7.14h-2.55V195h6.83v1.45h-2.54v7.14Z" fill="#999"></path><path d="M224.2,203.58v-7.14h-2.55V195h6.83v1.45h-2.54v7.14Z" fill="#999"></path><path d="M229,199.33a5.48,5.48,0,0,1,.39-2.2,4.1,4.1,0,0,1,.8-1.18,3.37,3.37,0,0,1,1.11-.77,4.66,4.66,0,0,1,1.85-.34,4,4,0,0,1,3,1.18,4.49,4.49,0,0,1,1.14,3.27,4.53,4.53,0,0,1-1.13,3.26,4.52,4.52,0,0,1-6.07,0A4.45,4.45,0,0,1,229,199.33Zm1.79-.06a3.24,3.24,0,0,0,.67,2.22,2.2,2.2,0,0,0,1.71.75,2.17,2.17,0,0,0,1.7-.75,4.06,4.06,0,0,0,0-4.44,2.17,2.17,0,0,0-1.72-.73,2.22,2.22,0,0,0-1.73.74A3.28,3.28,0,0,0,230.82,199.27Z" fill="#999"></path><path d="M238.73,203.58V195h1.69l3.52,5.73V195h1.61v8.59h-1.74L240.34,198v5.61Z" fill="#999"></path><path d="M250.29,201.3l1.6-.2a1.44,1.44,0,0,0,.41.93,1.1,1.1,0,0,0,.81.33A1.09,1.09,0,0,0,254,202a1.47,1.47,0,0,0,.35-1,1.41,1.41,0,0,0-.33-1,1.08,1.08,0,0,0-.82-.36,2.89,2.89,0,0,0-.75.12l.18-1.34a1.42,1.42,0,0,0,1-.29,1,1,0,0,0,.35-.82.9.9,0,0,0-.26-.69.93.93,0,0,0-.68-.26,1,1,0,0,0-.72.3,1.4,1.4,0,0,0-.37.85l-1.51-.26a3.31,3.31,0,0,1,.47-1.24,2.14,2.14,0,0,1,.89-.73,3,3,0,0,1,1.28-.27,2.58,2.58,0,0,1,1.95.77,2,2,0,0,1-.63,3.24,2,2,0,0,1,1.18.71A2.07,2.07,0,0,1,256,201a2.57,2.57,0,0,1-.83,1.92,2.8,2.8,0,0,1-2,.8,2.84,2.84,0,0,1-1.94-.67A2.68,2.68,0,0,1,250.29,201.3Z" fill="#999"></path><rect x="269.14" y="73.66" width="17.85" height="17.85" fill="#e6e6e6"></rect><rect x="293.91" y="74.56" width="42.51" height="5.49" fill="#e6e6e6"></rect><rect x="293.91" y="85.15" width="35.11" height="5.49" fill="#e6e6e6"></rect><rect x="244.67" y="235.24" width="82.73" height="4.66" fill="#e6e6e6"></rect><rect x="264.48" y="228.31" width="18.52" height="18.52" fill="#ccc"></rect><rect x="279.49" y="213.25" width="53.44" height="3.01" fill="#e6e6e6"></rect><rect x="311.61" y="208.77" width="11.96" height="11.96" fill="#ccc"></rect></svg>