<?xml version="1.0" encoding="UTF-8"?>
<svg xmlns="http://www.w3.org/2000/svg" xmlns:xlink="http://www.w3.org/1999/xlink" width="800px" height="600px" viewBox="0 0 796 600" version="1.1">
<defs>
<filter id="alpha" filterUnits="objectBoundingBox" x="0%" y="0%" width="100%" height="100%">
  <feColorMatrix type="matrix" in="SourceGraphic" values="0 0 0 0 1 0 0 0 0 1 0 0 0 0 1 0 0 0 1 0"/>
</filter>
<mask id="mask0">
  <g filter="url(#alpha)">
<rect x="0" y="0" width="796" height="600" style="fill:rgb(0%,0%,0%);fill-opacity:0.301961;stroke:none;"/>
  </g>
</mask>
<clipPath id="clip1">
  <rect x="0" y="0" width="796" height="600"/>
</clipPath>
<g id="surface5" clip-path="url(#clip1)">
<path style=" stroke:none;fill-rule:nonzero;fill:rgb(90.196078%,90.196078%,90.196078%);fill-opacity:1;" d="M 719.921875 447.273438 C 719.921875 433.328125 575.792969 422.019531 398 422.019531 C 220.207031 422.019531 76.078125 433.328125 76.078125 447.273438 C 76.078125 461.222656 220.207031 472.53125 398 472.53125 C 575.792969 472.53125 719.921875 461.222656 719.921875 447.273438 Z M 719.921875 447.273438 "/>
</g>
<mask id="mask1">
  <g filter="url(#alpha)">
<rect x="0" y="0" width="796" height="600" style="fill:rgb(0%,0%,0%);fill-opacity:0.0901961;stroke:none;"/>
  </g>
</mask>
<clipPath id="clip2">
  <rect x="0" y="0" width="796" height="600"/>
</clipPath>
<g id="surface8" clip-path="url(#clip2)">
<path style=" stroke:none;fill-rule:nonzero;fill:rgb(0%,0%,0%);fill-opacity:1;" d="M 140.652344 315.027344 C 138.765625 325.5625 143.496094 336.1875 152.59375 341.832031 C 164.753906 349.792969 183.476562 378.335938 198.003906 392.761719 C 202.613281 397.289062 205.171875 403.5 205.089844 409.957031 C 205.175781 413.273438 206.839844 416.351562 209.566406 418.238281 C 219.65625 426.476562 261.984375 430.617188 285.664062 405.242188 C 309.34375 379.867188 278.121094 367.308594 278.121094 367.308594 L 174.085938 310.984375 Z M 140.652344 315.027344 "/>
</g>
<mask id="mask2">
  <g filter="url(#alpha)">
<rect x="0" y="0" width="796" height="600" style="fill:rgb(0%,0%,0%);fill-opacity:0.0901961;stroke:none;"/>
  </g>
</mask>
<clipPath id="clip3">
  <rect x="0" y="0" width="796" height="600"/>
</clipPath>
<g id="surface11" clip-path="url(#clip3)">
<path style=" stroke:none;fill-rule:nonzero;fill:rgb(0%,0%,0%);fill-opacity:1;" d="M 299.914062 350.53125 C 299.914062 350.53125 373.882812 351.289062 373.164062 439.511719 L 355.710938 442.457031 C 355.710938 442.457031 352.371094 349.316406 256.210938 393.679688 L 261.226562 356.980469 Z M 299.914062 350.53125 "/>
</g>
<mask id="mask3">
  <g filter="url(#alpha)">
<rect x="0" y="0" width="796" height="600" style="fill:rgb(0%,0%,0%);fill-opacity:0.0901961;stroke:none;"/>
  </g>
</mask>
<clipPath id="clip4">
  <rect x="0" y="0" width="796" height="600"/>
</clipPath>
<g id="surface14" clip-path="url(#clip4)">
<path style=" stroke:none;fill-rule:nonzero;fill:rgb(0%,0%,0%);fill-opacity:1;" d="M 204.96875 312.9375 C 204.96875 312.9375 217.746094 345.21875 248.949219 339.566406 C 280.152344 333.914062 291.992188 268.414062 291.992188 268.414062 C 291.992188 268.414062 304.351562 260.453125 298.359375 251.4375 C 292.371094 242.421875 282.679688 261.847656 282.679688 261.847656 C 282.679688 261.847656 269.246094 316.996094 240.152344 299.125 Z M 204.96875 312.9375 "/>
</g>
<mask id="mask4">
  <g filter="url(#alpha)">
<rect x="0" y="0" width="796" height="600" style="fill:rgb(0%,0%,0%);fill-opacity:0.309804;stroke:none;"/>
  </g>
</mask>
<clipPath id="clip5">
  <rect x="0" y="0" width="796" height="600"/>
</clipPath>
<g id="surface17" clip-path="url(#clip5)">
<path style=" stroke:none;fill-rule:nonzero;fill:rgb(80.784314%,50.588235%,44.705882%);fill-opacity:1;" d="M 211.757812 228.691406 C 209.488281 227.8125 207.523438 226.289062 206.105469 224.3125 C 206.105469 224.3125 205.625 230.601562 211.757812 237.585938 Z M 211.757812 228.691406 "/>
</g>
<mask id="mask5">
  <g filter="url(#alpha)">
<rect x="0" y="0" width="796" height="600" style="fill:rgb(0%,0%,0%);fill-opacity:0.180392;stroke:none;"/>
  </g>
</mask>
<clipPath id="clip6">
  <rect x="0" y="0" width="796" height="600"/>
</clipPath>
<g id="surface20" clip-path="url(#clip6)">
<path style=" stroke:none;fill-rule:nonzero;fill:rgb(0%,0%,0%);fill-opacity:1;" d="M 231 374.910156 L 220.613281 392.503906 C 220.613281 392.503906 182.921875 374.273438 172.113281 324.835938 C 161.308594 275.402344 197.011719 294.644531 197.011719 294.644531 Z M 231 374.910156 "/>
</g>
<mask id="mask6">
  <g filter="url(#alpha)">
<rect x="0" y="0" width="796" height="600" style="fill:rgb(0%,0%,0%);fill-opacity:0.439216;stroke:none;"/>
  </g>
</mask>
<clipPath id="clip7">
  <rect x="0" y="0" width="796" height="600"/>
</clipPath>
<g id="surface23" clip-path="url(#clip7)">
<path style=" stroke:none;fill-rule:nonzero;fill:rgb(100%,100%,100%);fill-opacity:1;" d="M 293.519531 316.933594 L 306.609375 321.925781 L 303.792969 329.308594 L 290.703125 324.316406 Z M 293.519531 316.933594 "/>
</g>
<mask id="mask7">
  <g filter="url(#alpha)">
<rect x="0" y="0" width="796" height="600" style="fill:rgb(0%,0%,0%);fill-opacity:0.0901961;stroke:none;"/>
  </g>
</mask>
<clipPath id="clip8">
  <rect x="0" y="0" width="796" height="600"/>
</clipPath>
<g id="surface26" clip-path="url(#clip8)">
<path style=" stroke:none;fill-rule:nonzero;fill:rgb(0%,0%,0%);fill-opacity:1;" d="M 667.703125 315.027344 C 669.589844 325.5625 664.859375 336.1875 655.765625 341.832031 C 643.605469 349.792969 624.898438 378.335938 610.351562 392.761719 C 605.753906 397.292969 603.195312 403.503906 603.269531 409.957031 C 603.183594 413.273438 601.519531 416.351562 598.789062 418.238281 C 588.703125 426.476562 546.375 430.617188 522.714844 405.242188 C 499.050781 379.867188 530.234375 367.308594 530.234375 367.308594 L 632.820312 296.277344 C 629.277344 294.40625 663.503906 301.175781 667.703125 315.027344 Z M 667.703125 315.027344 "/>
</g>
<mask id="mask8">
  <g filter="url(#alpha)">
<rect x="0" y="0" width="796" height="600" style="fill:rgb(0%,0%,0%);fill-opacity:0.0901961;stroke:none;"/>
  </g>
</mask>
<clipPath id="clip9">
  <rect x="0" y="0" width="796" height="600"/>
</clipPath>
<g id="surface29" clip-path="url(#clip9)">
<path style=" stroke:none;fill-rule:nonzero;fill:rgb(0%,0%,0%);fill-opacity:1;" d="M 508.445312 350.53125 C 508.445312 350.53125 434.476562 351.289062 435.191406 439.511719 L 452.664062 442.457031 C 452.664062 442.457031 456.007812 349.316406 552.164062 393.679688 L 547.152344 356.980469 Z M 508.445312 350.53125 "/>
</g>
<mask id="mask9">
  <g filter="url(#alpha)">
<rect x="0" y="0" width="796" height="600" style="fill:rgb(0%,0%,0%);fill-opacity:0.458824;stroke:none;"/>
  </g>
</mask>
<clipPath id="clip10">
  <rect x="0" y="0" width="796" height="600"/>
</clipPath>
<g id="surface32" clip-path="url(#clip10)">
<path style=" stroke:none;fill-rule:nonzero;fill:rgb(100%,100%,100%);fill-opacity:1;" d="M 583.167969 269.910156 C 574.472656 287.183594 555.429688 310.328125 515.03125 314.609375 L 506.375 271.203125 C 506.375 271.203125 537.101562 251.777344 569.636719 249.308594 C 574.726562 248.976562 579.601562 251.40625 582.398438 255.667969 C 585.199219 259.929688 585.492188 265.367188 583.167969 269.910156 Z M 583.167969 269.910156 "/>
</g>
<mask id="mask10">
  <g filter="url(#alpha)">
<rect x="0" y="0" width="796" height="600" style="fill:rgb(0%,0%,0%);fill-opacity:0.309804;stroke:none;"/>
  </g>
</mask>
<clipPath id="clip11">
  <rect x="0" y="0" width="796" height="600"/>
</clipPath>
<g id="surface35" clip-path="url(#clip11)">
<path style=" stroke:none;fill-rule:nonzero;fill:rgb(80.784314%,50.588235%,44.705882%);fill-opacity:1;" d="M 581.894531 227.515625 C 583.902344 227.125 585.746094 226.15625 587.210938 224.730469 C 586.386719 228.824219 584.039062 232.453125 580.640625 234.878906 Z M 581.894531 227.515625 "/>
</g>
<mask id="mask11">
  <g filter="url(#alpha)">
<rect x="0" y="0" width="796" height="600" style="fill:rgb(0%,0%,0%);fill-opacity:0.0784314;stroke:none;"/>
  </g>
</mask>
<clipPath id="clip12">
  <rect x="0" y="0" width="796" height="600"/>
</clipPath>
<g id="surface38" clip-path="url(#clip12)">
<path style=" stroke:none;fill-rule:nonzero;fill:rgb(0%,0%,0%);fill-opacity:1;" d="M 595.648438 266.863281 C 595.648438 266.863281 586.132812 300.417969 589.675781 332.9375 C 593.21875 365.457031 583.90625 371.167969 583.90625 371.167969 L 609.296875 372.085938 C 609.296875 372.085938 616.839844 359.027344 618.890625 352.183594 C 620.941406 345.335938 631.90625 268.15625 595.648438 266.863281 Z M 595.648438 266.863281 "/>
</g>
<mask id="mask12">
  <g filter="url(#alpha)">
<rect x="0" y="0" width="796" height="600" style="fill:rgb(0%,0%,0%);fill-opacity:0.458824;stroke:none;"/>
  </g>
</mask>
<clipPath id="clip13">
  <rect x="0" y="0" width="796" height="600"/>
</clipPath>
<g id="surface41" clip-path="url(#clip13)">
<path style=" stroke:none;fill-rule:nonzero;fill:rgb(100%,100%,100%);fill-opacity:1;" d="M 618.570312 254.722656 C 633.933594 266.464844 653.15625 289.472656 649.855469 329.972656 L 605.597656 330.429688 C 605.597656 330.429688 592.222656 296.597656 595.90625 264.214844 C 596.535156 259.179688 599.8125 254.867188 604.492188 252.910156 C 609.171875 250.949219 614.542969 251.640625 618.570312 254.722656 Z M 618.570312 254.722656 "/>
</g>
<mask id="mask13">
  <g filter="url(#alpha)">
<rect x="0" y="0" width="796" height="600" style="fill:rgb(0%,0%,0%);fill-opacity:0.0901961;stroke:none;"/>
  </g>
</mask>
<clipPath id="clip14">
  <rect x="0" y="0" width="796" height="600"/>
</clipPath>
<g id="surface44" clip-path="url(#clip14)">
<path style=" stroke:none;fill-rule:nonzero;fill:rgb(0%,0%,0%);fill-opacity:1;" d="M 475.949219 188.371094 C 475.949219 191.050781 473.773438 193.226562 471.09375 193.226562 C 468.410156 193.226562 466.238281 191.050781 466.238281 188.371094 C 466.238281 185.6875 468.410156 183.515625 471.09375 183.515625 C 473.773438 183.515625 475.949219 185.6875 475.949219 188.371094 Z M 475.949219 188.371094 "/>
</g>
<mask id="mask14">
  <g filter="url(#alpha)">
<rect x="0" y="0" width="796" height="600" style="fill:rgb(0%,0%,0%);fill-opacity:0.0901961;stroke:none;"/>
  </g>
</mask>
<clipPath id="clip15">
  <rect x="0" y="0" width="796" height="600"/>
</clipPath>
<g id="surface47" clip-path="url(#clip15)">
<path style=" stroke:none;fill-rule:nonzero;fill:rgb(0%,0%,0%);fill-opacity:1;" d="M 491.886719 188.371094 C 491.886719 191.050781 489.714844 193.226562 487.03125 193.226562 C 484.351562 193.226562 482.175781 191.050781 482.175781 188.371094 C 482.175781 185.6875 484.351562 183.515625 487.03125 183.515625 C 489.714844 183.515625 491.886719 185.6875 491.886719 188.371094 Z M 491.886719 188.371094 "/>
</g>
<mask id="mask15">
  <g filter="url(#alpha)">
<rect x="0" y="0" width="796" height="600" style="fill:rgb(0%,0%,0%);fill-opacity:0.0901961;stroke:none;"/>
  </g>
</mask>
<clipPath id="clip16">
  <rect x="0" y="0" width="796" height="600"/>
</clipPath>
<g id="surface50" clip-path="url(#clip16)">
<path style=" stroke:none;fill-rule:nonzero;fill:rgb(0%,0%,0%);fill-opacity:1;" d="M 507.828125 188.371094 C 507.828125 191.050781 505.652344 193.226562 502.972656 193.226562 C 500.289062 193.226562 498.117188 191.050781 498.117188 188.371094 C 498.117188 185.6875 500.289062 183.515625 502.972656 183.515625 C 505.652344 183.515625 507.828125 185.6875 507.828125 188.371094 Z M 507.828125 188.371094 "/>
</g>
<mask id="mask16">
  <g filter="url(#alpha)">
<rect x="0" y="0" width="796" height="600" style="fill:rgb(0%,0%,0%);fill-opacity:0.0901961;stroke:none;"/>
  </g>
</mask>
<clipPath id="clip17">
  <rect x="0" y="0" width="796" height="600"/>
</clipPath>
<g id="surface53" clip-path="url(#clip17)">
<path style=" stroke:none;fill-rule:nonzero;fill:rgb(0%,0%,0%);fill-opacity:1;" d="M 345.125 162.417969 C 345.125 165.980469 342.238281 168.867188 338.679688 168.867188 C 335.117188 168.867188 332.230469 165.980469 332.230469 162.417969 C 332.230469 158.855469 335.117188 155.96875 338.679688 155.96875 C 342.238281 155.96875 345.125 158.855469 345.125 162.417969 Z M 345.125 162.417969 "/>
</g>
<mask id="mask17">
  <g filter="url(#alpha)">
<rect x="0" y="0" width="796" height="600" style="fill:rgb(0%,0%,0%);fill-opacity:0.0901961;stroke:none;"/>
  </g>
</mask>
<clipPath id="clip18">
  <rect x="0" y="0" width="796" height="600"/>
</clipPath>
<g id="surface56" clip-path="url(#clip18)">
<path style=" stroke:none;fill-rule:nonzero;fill:rgb(0%,0%,0%);fill-opacity:1;" d="M 366.257812 162.417969 C 366.257812 165.980469 363.371094 168.867188 359.8125 168.867188 C 356.25 168.867188 353.363281 165.980469 353.363281 162.417969 C 353.363281 158.855469 356.25 155.96875 359.8125 155.96875 C 363.371094 155.96875 366.257812 158.855469 366.257812 162.417969 Z M 366.257812 162.417969 "/>
</g>
<mask id="mask18">
  <g filter="url(#alpha)">
<rect x="0" y="0" width="796" height="600" style="fill:rgb(0%,0%,0%);fill-opacity:0.0901961;stroke:none;"/>
  </g>
</mask>
<clipPath id="clip19">
  <rect x="0" y="0" width="796" height="600"/>
</clipPath>
<g id="surface59" clip-path="url(#clip19)">
<path style=" stroke:none;fill-rule:nonzero;fill:rgb(0%,0%,0%);fill-opacity:1;" d="M 387.394531 162.417969 C 387.394531 165.980469 384.507812 168.867188 380.945312 168.867188 C 377.386719 168.867188 374.5 165.980469 374.5 162.417969 C 374.5 158.855469 377.386719 155.96875 380.945312 155.96875 C 384.507812 155.96875 387.394531 158.855469 387.394531 162.417969 Z M 387.394531 162.417969 "/>
</g>
</defs>
<g id="surface1">
<use xlink:href="#surface5" mask="url(#mask0)"/>
<path style=" stroke:none;fill-rule:nonzero;fill:rgb(100%,82.352941%,0%);fill-opacity:1;" d="M 143.976562 296.019531 C 143.976562 296.019531 110.980469 311.941406 106.683594 348.382812 C 102.386719 384.820312 90.1875 455.335938 179.855469 451.253906 C 269.527344 447.175781 311.8125 442.238281 290.660156 373.636719 C 269.503906 305.035156 143.976562 296.019531 143.976562 296.019531 Z M 143.976562 296.019531 "/>
<use xlink:href="#surface8" mask="url(#mask1)"/>
<path style=" stroke:none;fill-rule:nonzero;fill:rgb(95.686275%,63.529412%,54.901961%);fill-opacity:1;" d="M 370.636719 439.3125 C 372.066406 442.632812 374.90625 445.140625 378.378906 446.140625 C 383.910156 447.394531 386.914062 454.199219 374.816406 453.085938 C 362.71875 451.972656 356.089844 453.882812 357.820312 447.234375 C 359.554688 440.585938 358.777344 439.59375 358.777344 439.59375 Z M 370.636719 439.3125 "/>
<path style=" stroke:none;fill-rule:nonzero;fill:rgb(95.686275%,63.529412%,54.901961%);fill-opacity:1;" d="M 289.40625 434.558594 C 288.949219 438.144531 290.125 441.742188 292.609375 444.367188 C 296.730469 448.347656 295.851562 455.671875 286.003906 448.546875 C 276.152344 441.421875 269.464844 439.691406 274.339844 434.875 C 279.21875 430.058594 279.058594 428.765625 279.058594 428.765625 Z M 289.40625 434.558594 "/>
<path style=" stroke:none;fill-rule:nonzero;fill:rgb(14.117647%,15.686275%,35.686275%);fill-opacity:1;" d="M 299.914062 350.53125 C 299.914062 350.53125 373.882812 351.289062 373.164062 439.511719 L 355.710938 442.457031 C 355.710938 442.457031 352.371094 349.316406 256.210938 393.679688 L 261.226562 356.980469 Z M 299.914062 350.53125 "/>
<use xlink:href="#surface11" mask="url(#mask2)"/>
<path style=" stroke:none;fill-rule:nonzero;fill:rgb(100%,82.352941%,0%);fill-opacity:1;" d="M 305.785156 269.269531 L 312.191406 270.984375 L 307.632812 266.066406 Z M 305.785156 269.269531 "/>
<path style=" stroke:none;fill-rule:nonzero;fill:rgb(95.686275%,63.529412%,54.901961%);fill-opacity:1;" d="M 204.96875 312.9375 C 204.96875 312.9375 217.746094 345.21875 248.949219 339.566406 C 280.152344 333.914062 291.992188 268.414062 291.992188 268.414062 C 291.992188 268.414062 304.351562 260.453125 298.359375 251.4375 C 292.371094 242.421875 282.679688 261.847656 282.679688 261.847656 C 282.679688 261.847656 269.246094 316.996094 240.152344 299.125 Z M 204.96875 312.9375 "/>
<use xlink:href="#surface14" mask="url(#mask3)"/>
<path style=" stroke:none;fill-rule:nonzero;fill:rgb(57.647059%,9.019608%,88.235294%);fill-opacity:1;" d="M 205.269531 247.300781 L 212.035156 248.710938 C 212.035156 248.710938 264.132812 276.992188 254.441406 305.332031 C 244.75 333.675781 265.921875 360.582031 265.921875 360.582031 L 220.613281 392.425781 C 220.613281 392.425781 161.410156 363.007812 170.265625 282.128906 C 170.265625 282.207031 174.382812 244.492188 205.269531 247.300781 Z M 205.269531 247.300781 "/>
<path style=" stroke:none;fill-rule:nonzero;fill:rgb(90.196078%,90.196078%,90.196078%);fill-opacity:1;" d="M 316.5 259.179688 L 325.035156 263.285156 L 289.957031 336.246094 L 281.417969 332.144531 Z M 316.5 259.179688 "/>
<path style=" stroke:none;fill-rule:nonzero;fill:rgb(95.686275%,63.529412%,54.901961%);fill-opacity:1;" d="M 202.800781 211.753906 L 193.429688 244.832031 L 212.035156 248.691406 L 211.378906 223.078125 Z M 202.800781 211.753906 "/>
<use xlink:href="#surface17" mask="url(#mask4)"/>
<path style=" stroke:none;fill-rule:nonzero;fill:rgb(95.686275%,63.529412%,54.901961%);fill-opacity:1;" d="M 222.0625 212.730469 C 221.503906 218.542969 220.164062 224.25 218.085938 229.707031 C 217.511719 230.984375 216.449219 231.980469 215.140625 232.476562 C 213.828125 232.96875 212.371094 232.917969 211.097656 232.332031 C 206.820312 230.6875 203.90625 226.683594 203.65625 222.105469 L 202.183594 212.53125 C 201.976562 208.542969 204.316406 204.859375 208.015625 203.355469 C 214.679688 200.191406 222.878906 206.460938 222.0625 212.730469 Z M 222.0625 212.730469 "/>
<path style=" stroke:none;fill-rule:nonzero;fill:rgb(95.686275%,63.529412%,54.901961%);fill-opacity:1;" d="M 209.527344 219.617188 C 209.527344 219.617188 210.144531 215.636719 207.097656 215.398438 C 204.054688 215.15625 203.121094 220.929688 207.097656 222.203125 Z M 209.527344 219.617188 "/>
<path style=" stroke:none;fill-rule:nonzero;fill:rgb(95.686275%,63.529412%,54.901961%);fill-opacity:1;" d="M 221.148438 219.277344 L 223.316406 223.777344 C 223.570312 224.292969 223.542969 224.902344 223.238281 225.394531 C 222.933594 225.882812 222.402344 226.179688 221.824219 226.183594 L 217.726562 226.183594 Z M 221.148438 219.277344 "/>
<path style=" stroke:none;fill-rule:nonzero;fill:rgb(14.117647%,15.686275%,35.686275%);fill-opacity:1;" d="M 276.625 248.558594 L 308.863281 267.089844 L 307.011719 270.308594 L 274.773438 251.78125 Z M 276.625 248.558594 "/>
<use xlink:href="#surface20" mask="url(#mask5)"/>
<path style=" stroke:none;fill-rule:nonzero;fill:rgb(14.117647%,15.686275%,35.686275%);fill-opacity:1;" d="M 220.613281 392.503906 C 220.613281 392.503906 255.535156 321.296875 307.175781 321.574219 C 358.816406 321.851562 291.734375 436.449219 291.734375 436.449219 L 274.621094 429.523438 C 274.621094 429.523438 299.972656 380.34375 293.484375 364.523438 C 286.996094 348.699219 277.265625 457.902344 220.613281 392.503906 Z M 220.613281 392.503906 "/>
<path style=" stroke:none;fill-rule:nonzero;fill:rgb(95.686275%,63.529412%,54.901961%);fill-opacity:1;" d="M 190.722656 251.300781 C 190.722656 251.300781 206.261719 243.339844 214.164062 259.417969 C 222.0625 275.5 215.835938 344.320312 247.875 347.902344 C 279.914062 351.488281 296.171875 318.050781 296.171875 318.050781 C 296.171875 318.050781 298.820312 303.960938 303.234375 301.671875 C 307.652344 299.382812 311.496094 314.109375 303.234375 322.707031 C 303.234375 322.707031 289.105469 375.804688 244.292969 377 C 199.476562 378.195312 146.503906 287.640625 190.722656 251.300781 Z M 190.722656 251.300781 "/>
<path style=" stroke:none;fill-rule:nonzero;fill:rgb(14.117647%,15.686275%,35.686275%);fill-opacity:1;" d="M 222.144531 199.15625 C 222.144531 199.15625 232.351562 211.097656 219.117188 213.683594 C 205.886719 216.273438 203.199219 218.582031 204.453125 231.976562 C 205.707031 245.367188 210.941406 257.6875 193.429688 266.167969 C 175.914062 274.644531 191.039062 288.476562 187.738281 304.976562 C 184.433594 321.472656 169.089844 332.839844 149.371094 321.574219 C 129.648438 310.308594 117.53125 281.671875 138.601562 264.457031 C 159.675781 247.238281 186.363281 243.101562 186.363281 215.398438 C 186.363281 187.691406 208.472656 186.261719 222.144531 199.15625 Z M 222.144531 199.15625 "/>
<path style=" stroke:none;fill-rule:nonzero;fill:rgb(57.647059%,9.019608%,88.235294%);fill-opacity:1;" d="M 293.519531 316.933594 L 306.609375 321.925781 L 303.792969 329.308594 L 290.703125 324.316406 Z M 293.519531 316.933594 "/>
<use xlink:href="#surface23" mask="url(#mask6)"/>
<path style=" stroke:none;fill-rule:nonzero;fill:rgb(100%,82.352941%,0%);fill-opacity:1;" d="M 638.671875 291.125 C 638.671875 291.125 704.738281 302.289062 701.675781 348.382812 C 699.246094 385.042969 718.171875 455.335938 628.523438 451.316406 C 538.871094 447.292969 496.566406 442.300781 517.699219 373.695312 C 538.832031 305.09375 638.671875 291.125 638.671875 291.125 Z M 638.671875 291.125 "/>
<use xlink:href="#surface26" mask="url(#mask7)"/>
<path style=" stroke:none;fill-rule:nonzero;fill:rgb(95.686275%,63.529412%,54.901961%);fill-opacity:1;" d="M 437.800781 439.3125 C 436.367188 442.640625 433.519531 445.144531 430.039062 446.140625 C 424.507812 447.394531 421.5 454.199219 433.601562 453.085938 C 445.699219 451.972656 452.347656 453.882812 450.59375 447.234375 C 448.84375 440.585938 449.660156 439.59375 449.660156 439.59375 Z M 437.800781 439.3125 "/>
<path style=" stroke:none;fill-rule:nonzero;fill:rgb(95.686275%,63.529412%,54.901961%);fill-opacity:1;" d="M 495.648438 442.457031 C 494.847656 445.992188 492.503906 448.980469 489.261719 450.597656 C 484.066406 452.847656 482.335938 460.070312 494.039062 456.789062 C 505.738281 453.503906 512.605469 454.140625 509.679688 447.929688 C 506.753906 441.722656 507.351562 440.585938 507.351562 440.585938 Z M 495.648438 442.457031 "/>
<path style=" stroke:none;fill-rule:nonzero;fill:rgb(14.117647%,15.686275%,35.686275%);fill-opacity:1;" d="M 508.445312 350.53125 C 508.445312 350.53125 434.476562 351.289062 435.191406 439.511719 L 452.664062 442.457031 C 452.664062 442.457031 456.007812 349.316406 552.164062 393.679688 L 547.152344 356.980469 Z M 508.445312 350.53125 "/>
<use xlink:href="#surface29" mask="url(#mask8)"/>
<path style=" stroke:none;fill-rule:nonzero;fill:rgb(95.686275%,63.529412%,54.901961%);fill-opacity:1;" d="M 511.113281 269.949219 C 511.113281 269.949219 484.742188 283.480469 475.710938 277.292969 C 466.675781 271.101562 464.109375 236.652344 464.109375 236.652344 L 451.730469 239.398438 C 451.730469 239.398438 446.972656 307.464844 467.929688 314.527344 C 488.882812 321.59375 525.359375 303.523438 525.359375 303.523438 Z M 511.113281 269.949219 "/>
<path style=" stroke:none;fill-rule:nonzero;fill:rgb(57.647059%,9.019608%,88.235294%);fill-opacity:1;" d="M 583.167969 269.910156 C 574.472656 287.183594 555.429688 310.328125 515.03125 314.609375 L 506.375 271.203125 C 506.375 271.203125 537.101562 251.777344 569.636719 249.308594 C 574.726562 248.976562 579.601562 251.40625 582.398438 255.667969 C 585.199219 259.929688 585.492188 265.367188 583.167969 269.910156 Z M 583.167969 269.910156 "/>
<use xlink:href="#surface32" mask="url(#mask9)"/>
<path style=" stroke:none;fill-rule:nonzero;fill:rgb(95.686275%,63.529412%,54.901961%);fill-opacity:1;" d="M 463.492188 236.792969 C 464.109375 236.652344 464.726562 223.496094 463.132812 224.710938 C 462.058594 225.695312 461.300781 226.976562 460.964844 228.394531 C 460.964844 228.394531 460.964844 219.078125 456.167969 220.113281 C 451.371094 221.148438 449.738281 231.875 451.628906 239.398438 L 463.410156 237.230469 "/>
<path style=" stroke:none;fill-rule:nonzero;fill:rgb(95.686275%,63.529412%,54.901961%);fill-opacity:1;" d="M 576.066406 209.804688 C 575.40625 214.664062 575.40625 219.589844 576.066406 224.453125 C 576.289062 225.605469 576.96875 226.621094 577.949219 227.273438 C 578.929688 227.925781 580.128906 228.15625 581.277344 227.914062 C 585.058594 227.367188 588.171875 224.65625 589.238281 220.988281 L 592.265625 213.445312 C 593.175781 210.21875 591.964844 206.761719 589.238281 204.808594 C 584.484375 200.988281 576.542969 204.46875 576.066406 209.804688 Z M 576.066406 209.804688 "/>
<path style=" stroke:none;fill-rule:nonzero;fill:rgb(95.686275%,63.529412%,54.901961%);fill-opacity:1;" d="M 591.746094 214.800781 L 594.75 243.519531 L 578.8125 244.054688 L 583.03125 222.941406 Z M 591.746094 214.800781 "/>
<path style=" stroke:none;fill-rule:nonzero;fill:rgb(100%,82.352941%,0%);fill-opacity:1;" d="M 578.234375 210.300781 C 580.945312 210.550781 583.675781 210.484375 586.375 210.101562 C 584.683594 212.441406 584.511719 215.550781 585.9375 218.0625 C 587.328125 220.574219 590.316406 221.738281 593.039062 220.828125 L 593.496094 209.503906 C 593.742188 206.214844 592.160156 203.058594 589.378906 201.285156 C 588.195312 200.542969 586.96875 199.875 585.695312 199.296875 C 582.511719 197.824219 577.636719 199.734375 574.832031 197.304688 C 574.253906 196.828125 573.472656 196.691406 572.765625 196.9375 C 572.0625 197.1875 571.539062 197.789062 571.390625 198.519531 C 570.710938 201.921875 571.03125 207.355469 575.585938 209.484375 C 576.417969 209.90625 577.3125 210.183594 578.234375 210.300781 Z M 578.234375 210.300781 "/>
<path style=" stroke:none;fill-rule:nonzero;fill:rgb(95.686275%,63.529412%,54.901961%);fill-opacity:1;" d="M 585.058594 217.84375 C 585.058594 217.84375 585.296875 214.460938 587.824219 214.859375 C 590.351562 215.257812 590.035156 220.152344 586.550781 220.410156 Z M 585.058594 217.84375 "/>
<path style=" stroke:none;fill-rule:nonzero;fill:rgb(95.686275%,63.529412%,54.901961%);fill-opacity:1;" d="M 575.585938 215.355469 L 572.941406 218.601562 C 572.644531 218.980469 572.558594 219.488281 572.714844 219.945312 C 572.871094 220.402344 573.25 220.75 573.71875 220.871094 L 577.039062 221.6875 Z M 575.585938 215.355469 "/>
<use xlink:href="#surface35" mask="url(#mask10)"/>
<path style=" stroke:none;fill-rule:nonzero;fill:rgb(57.647059%,9.019608%,88.235294%);fill-opacity:1;" d="M 629.257812 271.839844 C 622.589844 254.074219 605.269531 242.597656 586.3125 243.378906 L 579.25 243.617188 C 579.25 243.617188 529.597656 243.398438 525.835938 288.617188 C 522.078125 333.832031 542.515625 369.65625 542.515625 369.65625 L 609.238281 372.085938 C 609.238281 372.085938 643.664062 311.722656 629.257812 271.839844 Z M 629.257812 271.839844 "/>
<use xlink:href="#surface38" mask="url(#mask11)"/>
<path style=" stroke:none;fill-rule:nonzero;fill:rgb(57.647059%,9.019608%,88.235294%);fill-opacity:1;" d="M 618.570312 254.722656 C 633.933594 266.464844 653.15625 289.472656 649.855469 329.972656 L 605.597656 330.429688 C 605.597656 330.429688 592.222656 296.597656 595.90625 264.214844 C 596.535156 259.179688 599.8125 254.867188 604.492188 252.910156 C 609.171875 250.949219 614.542969 251.640625 618.570312 254.722656 Z M 618.570312 254.722656 "/>
<use xlink:href="#surface41" mask="url(#mask12)"/>
<path style=" stroke:none;fill-rule:nonzero;fill:rgb(95.686275%,63.529412%,54.901961%);fill-opacity:1;" d="M 645.675781 330.011719 C 645.675781 330.011719 646.808594 389.9375 629.535156 424.40625 L 620.105469 422.992188 C 620.105469 422.992188 627.90625 365.636719 612.304688 330.371094 Z M 645.675781 330.011719 "/>
<path style=" stroke:none;fill-rule:nonzero;fill:rgb(95.686275%,63.529412%,54.901961%);fill-opacity:1;" d="M 629.535156 424.40625 C 629.535156 424.40625 625.457031 444.109375 614.890625 436.925781 C 604.324219 429.742188 620.105469 422.992188 620.105469 422.992188 Z M 629.535156 424.40625 "/>
<path style=" stroke:none;fill-rule:nonzero;fill:rgb(14.117647%,15.686275%,35.686275%);fill-opacity:1;" d="M 608.542969 373.777344 C 608.542969 373.777344 552.820312 321.296875 501.203125 321.574219 C 449.582031 321.851562 489.261719 449.644531 489.261719 449.644531 L 506.316406 442.71875 C 506.316406 442.71875 508.304688 380.34375 514.753906 364.523438 C 521.199219 348.699219 546.910156 453.125 608.542969 373.777344 Z M 608.542969 373.777344 "/>
<path style=" stroke:none;fill-rule:nonzero;fill:rgb(90.196078%,90.196078%,90.196078%);fill-opacity:1;" d="M 526.992188 163.351562 L 447.074219 163.351562 L 447.074219 178.160156 L 426.277344 178.160156 L 426.277344 127.46875 L 299.15625 127.46875 L 299.15625 204.171875 L 426.277344 204.171875 L 426.277344 181.921875 L 447.074219 181.921875 L 447.074219 211.554688 L 509.160156 211.554688 L 521.101562 229.804688 L 521.101562 211.554688 L 526.992188 211.554688 Z M 526.992188 163.351562 "/>
<use xlink:href="#surface44" mask="url(#mask13)"/>
<use xlink:href="#surface47" mask="url(#mask14)"/>
<use xlink:href="#surface50" mask="url(#mask15)"/>
<use xlink:href="#surface53" mask="url(#mask16)"/>
<use xlink:href="#surface56" mask="url(#mask17)"/>
<use xlink:href="#surface59" mask="url(#mask18)"/>
</g>
</svg>
