<?xml version="1.0" encoding="UTF-8"?>
<svg xmlns="http://www.w3.org/2000/svg" xmlns:xlink="http://www.w3.org/1999/xlink" width="800px" height="600px" viewBox="0 0 796 600" version="1.1">
<defs>
<filter id="alpha" filterUnits="objectBoundingBox" x="0%" y="0%" width="100%" height="100%">
  <feColorMatrix type="matrix" in="SourceGraphic" values="0 0 0 0 1 0 0 0 0 1 0 0 0 0 1 0 0 0 1 0"/>
</filter>
<mask id="mask0">
  <g filter="url(#alpha)">
<rect x="0" y="0" width="796" height="600" style="fill:rgb(0%,0%,0%);fill-opacity:0.0784314;stroke:none;"/>
  </g>
</mask>
<clipPath id="clip1">
  <rect x="0" y="0" width="796" height="600"/>
</clipPath>
<g id="surface5" clip-path="url(#clip1)">
<path style=" stroke:none;fill-rule:nonzero;fill:rgb(0%,0%,0%);fill-opacity:1;" d="M 520.78125 176.964844 L 642.074219 176.964844 L 642.074219 429.222656 L 520.78125 429.222656 Z M 520.78125 176.964844 "/>
</g>
<mask id="mask1">
  <g filter="url(#alpha)">
<rect x="0" y="0" width="796" height="600" style="fill:rgb(0%,0%,0%);fill-opacity:0.0784314;stroke:none;"/>
  </g>
</mask>
<clipPath id="clip2">
  <rect x="0" y="0" width="796" height="600"/>
</clipPath>
<g id="surface8" clip-path="url(#clip2)">
<path style=" stroke:none;fill-rule:nonzero;fill:rgb(0%,0%,0%);fill-opacity:1;" d="M 213.289062 195.8125 C 213.289062 195.8125 223.019531 193.027344 226.5 207.894531 C 229.984375 222.761719 228.332031 226.003906 221.070312 229.785156 C 213.804688 233.566406 217.546875 257.648438 230.742188 257.152344 C 243.933594 256.652344 254.621094 245.964844 261.089844 257.152344 C 267.554688 268.335938 274.0625 350.3125 301.027344 332.597656 C 327.992188 314.886719 334.042969 247.019531 334.042969 247.019531 L 382.21875 246.324219 L 382.21875 299.542969 L 344.746094 298.804688 C 344.746094 298.804688 339.910156 364.164062 287.195312 378.773438 C 281.898438 380.175781 277.40625 383.691406 274.773438 388.5 C 272.140625 393.308594 271.59375 398.984375 273.265625 404.207031 L 287.4375 447.671875 L 205.84375 447.671875 L 205.84375 390.355469 C 205.84375 390.355469 202.066406 212.132812 213.289062 195.8125 Z M 213.289062 195.8125 "/>
</g>
<mask id="mask2">
  <g filter="url(#alpha)">
<rect x="0" y="0" width="796" height="600" style="fill:rgb(0%,0%,0%);fill-opacity:0.45098;stroke:none;"/>
  </g>
</mask>
<clipPath id="clip3">
  <rect x="0" y="0" width="796" height="600"/>
</clipPath>
<g id="surface11" clip-path="url(#clip3)">
<path style=" stroke:none;fill-rule:nonzero;fill:rgb(90.196078%,90.196078%,90.196078%);fill-opacity:1;" d="M 365.203125 513.070312 C 365.203125 501.429688 298.6875 491.996094 216.632812 491.996094 C 134.578125 491.996094 68.058594 501.429688 68.058594 513.070312 C 68.058594 524.710938 134.578125 534.148438 216.632812 534.148438 C 298.6875 534.148438 365.203125 524.710938 365.203125 513.070312 Z M 365.203125 513.070312 "/>
</g>
<mask id="mask3">
  <g filter="url(#alpha)">
<rect x="0" y="0" width="796" height="600" style="fill:rgb(0%,0%,0%);fill-opacity:0.580392;stroke:none;"/>
  </g>
</mask>
<clipPath id="clip4">
  <rect x="0" y="0" width="796" height="600"/>
</clipPath>
<g id="surface14" clip-path="url(#clip4)">
<path style=" stroke:none;fill-rule:nonzero;fill:rgb(57.647059%,9.019608%,88.235294%);fill-opacity:1;" d="M 106.066406 492.015625 C 106.066406 492.015625 91.660156 488.152344 88.457031 474.757812 C 88.457031 474.757812 110.761719 470.160156 111.5 493.1875 Z M 106.066406 492.015625 "/>
</g>
<mask id="mask4">
  <g filter="url(#alpha)">
<rect x="0" y="0" width="796" height="600" style="fill:rgb(0%,0%,0%);fill-opacity:0.729412;stroke:none;"/>
  </g>
</mask>
<clipPath id="clip5">
  <rect x="0" y="0" width="796" height="600"/>
</clipPath>
<g id="surface17" clip-path="url(#clip5)">
<path style=" stroke:none;fill-rule:nonzero;fill:rgb(57.647059%,9.019608%,88.235294%);fill-opacity:1;" d="M 107.839844 490.582031 C 107.839844 490.582031 97.710938 474.660156 106.484375 459.8125 C 106.484375 459.8125 123.5 470.519531 116.058594 490.582031 Z M 107.839844 490.582031 "/>
</g>
<mask id="mask5">
  <g filter="url(#alpha)">
<rect x="0" y="0" width="796" height="600" style="fill:rgb(0%,0%,0%);fill-opacity:0.0784314;stroke:none;"/>
  </g>
</mask>
<clipPath id="clip6">
  <rect x="0" y="0" width="796" height="600"/>
</clipPath>
<g id="surface20" clip-path="url(#clip6)">
<path style=" stroke:none;fill-rule:nonzero;fill:rgb(0%,0%,0%);fill-opacity:1;" d="M 215.675781 246.863281 C 215.675781 246.863281 246.300781 242.882812 252.472656 268.375 C 258.640625 293.871094 259.496094 329.476562 284.113281 336.558594 C 308.730469 343.644531 322.378906 294.425781 322.378906 294.425781 C 322.378906 294.425781 328.089844 280.617188 334.320312 278.726562 C 340.546875 276.835938 344.867188 290.46875 334.320312 298.824219 C 334.320312 298.824219 325.445312 361.695312 278.222656 359.488281 C 231 357.277344 215.675781 292.476562 215.675781 246.863281 Z M 215.675781 246.863281 "/>
</g>
<mask id="mask6">
  <g filter="url(#alpha)">
<rect x="0" y="0" width="796" height="600" style="fill:rgb(0%,0%,0%);fill-opacity:0.458824;stroke:none;"/>
  </g>
</mask>
<clipPath id="clip7">
  <rect x="0" y="0" width="796" height="600"/>
</clipPath>
<g id="surface23" clip-path="url(#clip7)">
<path style=" stroke:none;fill-rule:nonzero;fill:rgb(100%,100%,100%);fill-opacity:1;" d="M 215.675781 246.863281 C 215.675781 246.863281 248.570312 240.375 253.1875 266.960938 C 255.699219 282.207031 259.972656 297.105469 265.921875 311.363281 L 240.789062 319.503906 Z M 215.675781 246.863281 "/>
</g>
<mask id="mask7">
  <g filter="url(#alpha)">
<rect x="0" y="0" width="796" height="600" style="fill:rgb(0%,0%,0%);fill-opacity:0.309804;stroke:none;"/>
  </g>
</mask>
<clipPath id="clip8">
  <rect x="0" y="0" width="796" height="600"/>
</clipPath>
<g id="surface26" clip-path="url(#clip8)">
<path style=" stroke:none;fill-rule:nonzero;fill:rgb(80.784314%,50.588235%,44.705882%);fill-opacity:1;" d="M 210.460938 224.589844 C 208.300781 224.210938 206.285156 223.246094 204.632812 221.804688 C 204.632812 221.804688 203.476562 228.8125 211.996094 231.160156 Z M 210.460938 224.589844 "/>
</g>
<mask id="mask8">
  <g filter="url(#alpha)">
<rect x="0" y="0" width="796" height="600" style="fill:rgb(0%,0%,0%);fill-opacity:0.0784314;stroke:none;"/>
  </g>
</mask>
<clipPath id="clip9">
  <rect x="0" y="0" width="796" height="600"/>
</clipPath>
<g id="surface29" clip-path="url(#clip9)">
<path style=" stroke:none;fill-rule:nonzero;fill:rgb(0%,0%,0%);fill-opacity:1;" d="M 184.59375 270.503906 C 184.59375 270.503906 193.230469 288.417969 195.296875 320.558594 C 197.367188 352.699219 246.183594 314.726562 246.183594 314.726562 L 248.410156 367.886719 L 177.367188 371.648438 L 171.398438 350.113281 C 171.398438 350.113281 152.832031 316.757812 184.59375 270.503906 Z M 184.59375 270.503906 "/>
</g>
<mask id="mask9">
  <g filter="url(#alpha)">
<rect x="0" y="0" width="796" height="600" style="fill:rgb(0%,0%,0%);fill-opacity:0.0784314;stroke:none;"/>
  </g>
</mask>
<clipPath id="clip10">
  <rect x="0" y="0" width="796" height="600"/>
</clipPath>
<g id="surface32" clip-path="url(#clip10)">
<path style=" stroke:none;fill-rule:nonzero;fill:rgb(0%,0%,0%);fill-opacity:1;" d="M 255.257812 314.828125 L 205.945312 334.511719 L 203.359375 356.621094 L 249.726562 362.054688 Z M 255.257812 314.828125 "/>
</g>
<mask id="mask10">
  <g filter="url(#alpha)">
<rect x="0" y="0" width="796" height="600" style="fill:rgb(0%,0%,0%);fill-opacity:0.458824;stroke:none;"/>
  </g>
</mask>
<clipPath id="clip11">
  <rect x="0" y="0" width="796" height="600"/>
</clipPath>
<g id="surface35" clip-path="url(#clip11)">
<path style=" stroke:none;fill-rule:nonzero;fill:rgb(100%,100%,100%);fill-opacity:1;" d="M 178.246094 319.503906 L 139.558594 319.503906 C 139.558594 319.503906 135.320312 263.023438 167.417969 255.816406 C 199.515625 248.613281 178.246094 319.503906 178.246094 319.503906 Z M 178.246094 319.503906 "/>
</g>
<mask id="mask11">
  <g filter="url(#alpha)">
<rect x="0" y="0" width="796" height="600" style="fill:rgb(0%,0%,0%);fill-opacity:0.45098;stroke:none;"/>
  </g>
</mask>
<clipPath id="clip12">
  <rect x="0" y="0" width="796" height="600"/>
</clipPath>
<g id="surface38" clip-path="url(#clip12)">
<path style=" stroke:none;fill-rule:nonzero;fill:rgb(100%,100%,100%);fill-opacity:1;" d="M 344.867188 194.082031 L 412.347656 194.082031 L 412.347656 204.132812 L 344.867188 204.132812 Z M 344.867188 194.082031 "/>
</g>
<mask id="mask12">
  <g filter="url(#alpha)">
<rect x="0" y="0" width="796" height="600" style="fill:rgb(0%,0%,0%);fill-opacity:0.619608;stroke:none;"/>
  </g>
</mask>
<clipPath id="clip13">
  <rect x="0" y="0" width="796" height="600"/>
</clipPath>
<g id="surface41" clip-path="url(#clip13)">
<path style=" stroke:none;fill-rule:nonzero;fill:rgb(100%,100%,100%);fill-opacity:1;" d="M 311.078125 282.84375 L 324.90625 258.167969 L 334.578125 276.4375 L 346.339844 260.933594 L 358.101562 282.84375 Z M 311.078125 282.84375 "/>
</g>
<mask id="mask13">
  <g filter="url(#alpha)">
<rect x="0" y="0" width="796" height="600" style="fill:rgb(0%,0%,0%);fill-opacity:0.741176;stroke:none;"/>
  </g>
</mask>
<clipPath id="clip14">
  <rect x="0" y="0" width="796" height="600"/>
</clipPath>
<g id="surface44" clip-path="url(#clip14)">
<path style=" stroke:none;fill-rule:nonzero;fill:rgb(78.823529%,78.823529%,78.823529%);fill-opacity:1;" d="M 592.742188 170.519531 L 664.382812 170.519531 L 664.382812 226.503906 L 592.742188 226.503906 Z M 592.742188 170.519531 "/>
</g>
<mask id="mask14">
  <g filter="url(#alpha)">
<rect x="0" y="0" width="796" height="600" style="fill:rgb(0%,0%,0%);fill-opacity:0.470588;stroke:none;"/>
  </g>
</mask>
<clipPath id="clip15">
  <rect x="0" y="0" width="796" height="600"/>
</clipPath>
<g id="surface47" clip-path="url(#clip15)">
<path style=" stroke:none;fill-rule:nonzero;fill:rgb(78.823529%,78.823529%,78.823529%);fill-opacity:1;" d="M 510.496094 238.144531 L 582.132812 238.144531 L 582.132812 294.128906 L 510.496094 294.128906 Z M 510.496094 238.144531 "/>
</g>
<mask id="mask15">
  <g filter="url(#alpha)">
<rect x="0" y="0" width="796" height="600" style="fill:rgb(0%,0%,0%);fill-opacity:0.211765;stroke:none;"/>
  </g>
</mask>
<clipPath id="clip16">
  <rect x="0" y="0" width="796" height="600"/>
</clipPath>
<g id="surface50" clip-path="url(#clip16)">
<path style=" stroke:none;fill-rule:nonzero;fill:rgb(78.823529%,78.823529%,78.823529%);fill-opacity:1;" d="M 592.742188 238.144531 L 664.382812 238.144531 L 664.382812 294.128906 L 592.742188 294.128906 Z M 592.742188 238.144531 "/>
</g>
<mask id="mask16">
  <g filter="url(#alpha)">
<rect x="0" y="0" width="796" height="600" style="fill:rgb(0%,0%,0%);fill-opacity:0.458824;stroke:none;"/>
  </g>
</mask>
<clipPath id="clip17">
  <rect x="0" y="0" width="796" height="600"/>
</clipPath>
<g id="surface53" clip-path="url(#clip17)">
<path style=" stroke:none;fill-rule:nonzero;fill:rgb(100%,100%,100%);fill-opacity:1;" d="M 583.25 323.265625 L 612.601562 323.265625 L 612.601562 330.925781 L 583.25 330.925781 Z M 583.25 323.265625 "/>
</g>
</defs>
<g id="surface1">
<path style=" stroke:none;fill-rule:nonzero;fill:rgb(90.196078%,90.196078%,90.196078%);fill-opacity:1;" d="M 205.945312 103.746094 L 642.074219 103.746094 L 642.074219 447.535156 L 205.945312 447.535156 Z M 205.945312 103.746094 "/>
<path style=" stroke:none;fill-rule:nonzero;fill:rgb(78.823529%,78.823529%,78.823529%);fill-opacity:1;" d="M 267.019531 323.902344 L 350.359375 323.902344 L 350.359375 403.628906 L 267.019531 403.628906 Z M 267.019531 323.902344 "/>
<use xlink:href="#surface5" mask="url(#mask0)"/>
<use xlink:href="#surface8" mask="url(#mask1)"/>
<use xlink:href="#surface11" mask="url(#mask2)"/>
<use xlink:href="#surface14" mask="url(#mask3)"/>
<use xlink:href="#surface17" mask="url(#mask4)"/>
<path style=" stroke:none;fill-rule:nonzero;fill:rgb(57.647059%,9.019608%,88.235294%);fill-opacity:1;" d="M 110.425781 490.582031 C 110.425781 490.582031 115.679688 473.765625 131.738281 470.519531 C 131.738281 470.519531 134.78125 481.40625 121.410156 490.582031 Z M 110.425781 490.582031 "/>
<path style=" stroke:none;fill-rule:nonzero;fill:rgb(14.117647%,15.686275%,35.686275%);fill-opacity:1;" d="M 99.976562 490.242188 L 102.984375 510.222656 L 121.371094 510.222656 L 123.996094 490.242188 Z M 99.976562 490.242188 "/>
<path style=" stroke:none;fill-rule:nonzero;fill:rgb(14.117647%,15.686275%,35.686275%);fill-opacity:1;" d="M 246.78125 127.949219 C 246.78125 131.707031 243.734375 134.753906 239.972656 134.753906 C 236.214844 134.753906 233.167969 131.707031 233.167969 127.949219 C 233.167969 124.1875 236.214844 121.140625 239.972656 121.140625 C 243.734375 121.140625 246.78125 124.1875 246.78125 127.949219 Z M 246.78125 127.949219 "/>
<path style=" stroke:none;fill-rule:nonzero;fill:rgb(57.647059%,9.019608%,88.235294%);fill-opacity:1;" d="M 267.019531 127.949219 C 267.019531 131.707031 263.972656 134.753906 260.210938 134.753906 C 256.453125 134.753906 253.40625 131.707031 253.40625 127.949219 C 253.40625 124.1875 256.453125 121.140625 260.210938 121.140625 C 263.972656 121.140625 267.019531 124.1875 267.019531 127.949219 Z M 267.019531 127.949219 "/>
<path style=" stroke:none;fill-rule:nonzero;fill:rgb(100%,82.352941%,0%);fill-opacity:1;" d="M 286.082031 127.949219 C 286.082031 131.707031 283.035156 134.753906 279.277344 134.753906 C 275.519531 134.753906 272.472656 131.707031 272.472656 127.949219 C 272.472656 124.1875 275.519531 121.140625 279.277344 121.140625 C 283.035156 121.140625 286.082031 124.1875 286.082031 127.949219 Z M 286.082031 127.949219 "/>
<path style=" stroke:none;fill-rule:nonzero;fill:rgb(95.686275%,63.529412%,54.901961%);fill-opacity:1;" d="M 215.675781 246.863281 C 215.675781 246.863281 246.300781 242.882812 252.472656 268.375 C 258.640625 293.871094 259.496094 329.476562 284.113281 336.558594 C 308.730469 343.644531 322.378906 294.425781 322.378906 294.425781 C 322.378906 294.425781 328.089844 280.617188 334.320312 278.726562 C 340.546875 276.835938 344.867188 290.46875 334.320312 298.824219 C 334.320312 298.824219 325.445312 361.695312 278.222656 359.488281 C 231 357.277344 215.675781 292.476562 215.675781 246.863281 Z M 215.675781 246.863281 "/>
<use xlink:href="#surface20" mask="url(#mask5)"/>
<path style=" stroke:none;fill-rule:nonzero;fill:rgb(57.647059%,9.019608%,88.235294%);fill-opacity:1;" d="M 215.675781 246.863281 C 215.675781 246.863281 248.570312 240.375 253.1875 266.960938 C 255.699219 282.207031 259.972656 297.105469 265.921875 311.363281 L 240.789062 319.503906 Z M 215.675781 246.863281 "/>
<use xlink:href="#surface23" mask="url(#mask6)"/>
<path style=" stroke:none;fill-rule:nonzero;fill:rgb(95.686275%,63.529412%,54.901961%);fill-opacity:1;" d="M 214.105469 203.65625 C 216.441406 208.625 218.101562 213.886719 219.039062 219.296875 C 219.179688 220.613281 218.789062 221.929688 217.957031 222.957031 C 217.125 223.980469 215.917969 224.636719 214.601562 224.769531 C 210.34375 225.457031 206.078125 223.589844 203.695312 219.992188 L 197.925781 212.929688 C 195.859375 209.78125 196.011719 205.667969 198.304688 202.679688 C 202.144531 196.988281 211.796875 198.0625 214.105469 203.65625 Z M 214.105469 203.65625 "/>
<path style=" stroke:none;fill-rule:nonzero;fill:rgb(95.686275%,63.529412%,54.901961%);fill-opacity:1;" d="M 200.09375 214.539062 L 197.765625 246.863281 L 215.675781 246.863281 L 210.304688 223.953125 Z M 200.09375 214.539062 "/>
<path style=" stroke:none;fill-rule:nonzero;fill:rgb(95.686275%,63.529412%,54.901961%);fill-opacity:1;" d="M 216.472656 209.425781 L 220.453125 212.035156 C 220.910156 212.320312 221.191406 212.824219 221.191406 213.367188 C 221.191406 213.910156 220.910156 214.414062 220.453125 214.699219 L 217.148438 216.691406 Z M 216.472656 209.425781 "/>
<use xlink:href="#surface26" mask="url(#mask7)"/>
<path style=" stroke:none;fill-rule:nonzero;fill:rgb(95.686275%,63.529412%,54.901961%);fill-opacity:1;" d="M 205.925781 214.144531 C 205.925781 214.144531 204.550781 210.601562 201.945312 211.875 C 199.339844 213.148438 201.347656 218.261719 205.167969 217.40625 Z M 205.925781 214.144531 "/>
<path style=" stroke:none;fill-rule:nonzero;fill:rgb(95.686275%,63.529412%,54.901961%);fill-opacity:1;" d="M 247.992188 430.875 L 263.136719 499.675781 L 254.34375 499.675781 L 224.890625 430.875 Z M 247.992188 430.875 "/>
<path style=" stroke:none;fill-rule:nonzero;fill:rgb(95.686275%,63.529412%,54.901961%);fill-opacity:1;" d="M 198.742188 422.515625 L 182.601562 499.675781 L 173.765625 499.675781 L 175.101562 421.980469 Z M 198.742188 422.515625 "/>
<path style=" stroke:none;fill-rule:nonzero;fill:rgb(57.647059%,9.019608%,88.235294%);fill-opacity:1;" d="M 263.136719 499.675781 C 263.136719 499.675781 268.03125 505.886719 274.28125 505.648438 C 280.53125 505.40625 281.445312 514.183594 271.394531 513.269531 C 268.265625 513.011719 265.160156 512.480469 262.121094 511.675781 C 259.320312 511.039062 256.398438 511.140625 253.644531 511.976562 C 252.546875 512.226562 251.410156 511.773438 250.78125 510.839844 C 247.914062 507.476562 254.9375 499.757812 254.9375 499.757812 Z M 263.136719 499.675781 "/>
<path style=" stroke:none;fill-rule:nonzero;fill:rgb(57.647059%,9.019608%,88.235294%);fill-opacity:1;" d="M 174.402344 499.675781 C 174.402344 499.675781 169.507812 505.886719 163.257812 505.648438 C 157.011719 505.40625 156.09375 514.183594 166.164062 513.269531 C 169.289062 513.011719 172.386719 512.476562 175.417969 511.675781 C 178.222656 511.039062 181.144531 511.140625 183.894531 511.976562 C 184.992188 512.226562 186.132812 511.773438 186.761719 510.839844 C 189.628906 507.476562 182.601562 499.757812 182.601562 499.757812 Z M 174.402344 499.675781 "/>
<path style=" stroke:none;fill-rule:nonzero;fill:rgb(57.647059%,9.019608%,88.235294%);fill-opacity:1;" d="M 215.675781 246.863281 L 197.765625 246.863281 C 197.765625 246.863281 196.550781 246.863281 194.441406 246.863281 C 155.398438 248.117188 132.753906 291.480469 153.46875 324.578125 C 164.992188 342.988281 178.742188 367.804688 179.65625 382.632812 L 249.308594 379.128906 C 249.308594 379.128906 244.035156 333.992188 256.929688 308.199219 C 256.871094 308.199219 280.589844 267.597656 215.675781 246.863281 Z M 215.675781 246.863281 "/>
<use xlink:href="#surface29" mask="url(#mask8)"/>
<path style=" stroke:none;fill-rule:nonzero;fill:rgb(100%,82.352941%,0%);fill-opacity:1;" d="M 211.773438 284.929688 L 258.140625 290.359375 L 249.75 362.015625 L 203.382812 356.585938 Z M 211.773438 284.929688 "/>
<path style=" stroke:none;fill-rule:nonzero;fill:rgb(14.117647%,15.686275%,35.686275%);fill-opacity:1;" d="M 224.5625 281.859375 L 246.144531 284.386719 L 244.917969 294.882812 L 223.332031 292.355469 Z M 224.5625 281.859375 "/>
<path style=" stroke:none;fill-rule:nonzero;fill:rgb(14.117647%,15.686275%,35.686275%);fill-opacity:1;" d="M 248.410156 367.886719 L 177.367188 371.628906 L 158.402344 443.59375 L 261.089844 439.929688 Z M 248.410156 367.886719 "/>
<use xlink:href="#surface32" mask="url(#mask9)"/>
<path style=" stroke:none;fill-rule:nonzero;fill:rgb(95.686275%,63.529412%,54.901961%);fill-opacity:1;" d="M 183.996094 273.949219 C 184.234375 267.46875 180.320312 261.558594 174.265625 259.246094 C 168.207031 256.929688 161.351562 258.730469 157.210938 263.71875 C 147.140625 275.832031 141.8125 291.195312 142.226562 306.945312 C 142.800781 349.078125 148.472656 394.652344 239.316406 344.757812 L 234.421875 331.40625 C 234.421875 331.40625 194.105469 350.789062 177.269531 344.5 C 164.851562 339.941406 182.722656 302.867188 183.996094 273.949219 Z M 183.996094 273.949219 "/>
<path style=" stroke:none;fill-rule:nonzero;fill:rgb(95.686275%,63.529412%,54.901961%);fill-opacity:1;" d="M 234.382812 331.484375 C 234.382812 331.484375 249.527344 324.28125 255.972656 331.484375 C 262.421875 338.6875 252.171875 345.136719 239.277344 344.839844 Z M 234.382812 331.484375 "/>
<path style=" stroke:none;fill-rule:nonzero;fill:rgb(14.117647%,15.686275%,35.686275%);fill-opacity:1;" d="M 215.675781 198.898438 L 218.78125 206.679688 L 205.925781 211.59375 C 205.925781 211.59375 205.207031 220.234375 209.746094 221.804688 C 207.621094 221.707031 205.628906 220.742188 204.234375 219.136719 C 203.109375 217.90625 201.210938 217.78125 199.933594 218.859375 L 199.777344 219.019531 C 196.097656 215.390625 193.503906 210.808594 192.292969 205.785156 C 190.839844 198.179688 199.339844 197.007812 199.339844 197.007812 C 199.339844 197.007812 210.621094 189.085938 215.675781 198.898438 Z M 215.675781 198.898438 "/>
<path style=" stroke:none;fill-rule:nonzero;fill:rgb(14.117647%,15.686275%,35.686275%);fill-opacity:1;" d="M 199.339844 197.007812 C 199.339844 197.007812 198.742188 189.683594 185.566406 190.835938 C 172.394531 191.992188 185.566406 209.824219 174.722656 226.421875 C 174.722656 226.421875 194.621094 222.203125 195.238281 204.332031 Z M 199.339844 197.007812 "/>
<path style=" stroke:none;fill-rule:nonzero;fill:rgb(100%,82.352941%,0%);fill-opacity:1;" d="M 200.175781 196.511719 C 198.117188 195.4375 195.625 195.65625 193.785156 197.066406 C 190.046875 199.414062 188.394531 208.054688 194.285156 211 C 194.285156 210.980469 189.40625 199.296875 200.175781 196.511719 Z M 200.175781 196.511719 "/>
<path style=" stroke:none;fill-rule:nonzero;fill:rgb(57.647059%,9.019608%,88.235294%);fill-opacity:1;" d="M 178.246094 319.503906 L 139.558594 319.503906 C 139.558594 319.503906 135.320312 263.023438 167.417969 255.816406 C 199.515625 248.613281 178.246094 319.503906 178.246094 319.503906 Z M 178.246094 319.503906 "/>
<use xlink:href="#surface35" mask="url(#mask10)"/>
<path style=" stroke:none;fill-rule:nonzero;fill:rgb(78.823529%,78.823529%,78.823529%);fill-opacity:1;" d="M 265.921875 160.449219 L 443.09375 160.449219 L 443.09375 220.96875 L 265.921875 220.96875 Z M 265.921875 160.449219 "/>
<path style=" stroke:none;fill-rule:nonzero;fill:rgb(100%,100%,100%);fill-opacity:1;" d="M 327.035156 190.71875 C 327.035156 201.875 317.992188 210.917969 306.839844 210.917969 C 295.683594 210.917969 286.640625 201.875 286.640625 190.71875 C 286.640625 179.5625 295.683594 170.519531 306.839844 170.519531 C 317.992188 170.519531 327.035156 179.5625 327.035156 190.71875 Z M 327.035156 190.71875 "/>
<path style=" stroke:none;fill-rule:nonzero;fill:rgb(100%,100%,100%);fill-opacity:1;" d="M 344.867188 177.285156 L 412.347656 177.285156 L 412.347656 187.335938 L 344.867188 187.335938 Z M 344.867188 177.285156 "/>
<use xlink:href="#surface38" mask="url(#mask11)"/>
<path style=" stroke:none;fill-rule:nonzero;fill:rgb(57.647059%,9.019608%,88.235294%);fill-opacity:1;" d="M 305.027344 241.925781 L 363.074219 241.925781 L 363.074219 290.347656 L 305.027344 290.347656 Z M 305.027344 241.925781 "/>
<use xlink:href="#surface41" mask="url(#mask12)"/>
<path style=" stroke:none;fill-rule:nonzero;fill:rgb(100%,100%,100%);fill-opacity:1;" d="M 341.34375 255.398438 C 341.34375 257.9375 339.285156 259.996094 336.746094 259.996094 C 334.210938 259.996094 332.152344 257.9375 332.152344 255.398438 C 332.152344 252.859375 334.210938 250.800781 336.746094 250.800781 C 339.285156 250.800781 341.34375 252.859375 341.34375 255.398438 Z M 341.34375 255.398438 "/>
<path style=" stroke:none;fill-rule:nonzero;fill:rgb(94.901961%,94.901961%,94.901961%);fill-opacity:1;" d="M 492.425781 151.371094 L 682.46875 151.371094 L 682.46875 403.628906 L 492.425781 403.628906 Z M 492.425781 151.371094 "/>
<path style=" stroke:none;fill-rule:nonzero;fill:rgb(78.823529%,78.823529%,78.823529%);fill-opacity:1;" d="M 510.496094 170.519531 L 582.132812 170.519531 L 582.132812 226.503906 L 510.496094 226.503906 Z M 510.496094 170.519531 "/>
<use xlink:href="#surface44" mask="url(#mask13)"/>
<use xlink:href="#surface47" mask="url(#mask14)"/>
<use xlink:href="#surface50" mask="url(#mask15)"/>
<path style=" stroke:none;fill-rule:nonzero;fill:rgb(100%,82.352941%,0%);fill-opacity:1;" d="M 553.617188 319.105469 L 621.277344 319.105469 L 621.277344 348.878906 L 553.617188 348.878906 Z M 553.617188 319.105469 "/>
<use xlink:href="#surface53" mask="url(#mask16)"/>
<path style=" stroke:none;fill-rule:nonzero;fill:rgb(100%,100%,100%);fill-opacity:1;" d="M 567.546875 362.171875 L 611.824219 362.171875 L 611.824219 371.050781 L 567.546875 371.050781 Z M 567.546875 362.171875 "/>
<path style=" stroke:none;fill-rule:nonzero;fill:rgb(78.823529%,78.823529%,78.823529%);fill-opacity:1;" d="M 371.59375 323.902344 L 454.933594 323.902344 L 454.933594 403.628906 L 371.59375 403.628906 Z M 371.59375 323.902344 "/>
</g>
</svg>
