<svg xmlns="http://www.w3.org/2000/svg" shape-rendering="geometricPrecision" text-rendering="geometricPrecision" image-rendering="optimizeQuality" fill-rule="evenodd" clip-rule="evenodd" viewBox="0 0 512 408"><defs><linearGradient id="a" gradientUnits="userSpaceOnUse" x1="76" y1="10" x2="523" y2="365"><stop offset="0" stop-color="#9013FE"/><stop offset="1" stop-color="#6610F2"/></linearGradient></defs><path fill="url(#a)" fill-rule="nonzero" d="M56.48 53.32C55.52 25.58 77.13 0 106.34 0H405.7c29.21 0 50.82 25.58 49.86 53.32-.93 26.65.27 61.16 8.96 89.31 8.72 28.23 23.41 46.08 47.48 48.37v26c-24.07 2.29-38.76 20.14-47.48 48.37-8.69 28.15-9.89 62.66-8.96 89.31.96 27.74-20.65 53.32-49.86 53.32H106.34c-29.21 0-50.82-25.58-49.86-53.32.93-26.65-.28-61.16-8.96-89.31C38.8 237.14 24.07 219.29 0 217v-26c24.07-2.29 38.8-20.14 47.52-48.37 8.68-28.15 9.89-62.66 8.96-89.31z"/><path fill="#fff" d="M342.9 251.1c0 38.2-28.5 61.36-75.8 61.36h-89.2v-217h88.74c39.44 0 65.32 21.35 65.32 54.13 0 23.01-17.4 43.62-39.59 47.22v1.21c30.2 3.31 50.53 24.21 50.53 53.08zm-130.49 33.84v-71.43h45.6c32.66 0 49.61 12.03 49.61 35.49s-16.48 35.94-47.6 35.94h-47.61zm0-161.96h45.91c24.96 0 39.13 11.13 39.13 31.28 0 21.5-16.48 33.53-46.37 33.53h-38.67v-64.81z"/></svg>