<svg width="89" height="30" viewBox="0 0 89 30" fill="none" xmlns="http://www.w3.org/2000/svg">
<path d="M8.17362 0.673779L0.678882 4.86611C0.259079 5.10094 0 5.53796 0 6.01127V24.2645C0 24.7378 0.25908 25.1748 0.678882 25.4096L7.83414 29.4121C8.28326 29.6633 8.84208 29.3459 8.84208 28.8395V20.0839L16.6606 15.7105C17.1131 15.4573 17.1131 14.8185 16.6606 14.5653L8.84208 10.1919L16.6606 5.81844C17.1131 5.56528 17.1131 4.92645 16.6606 4.67328L9.51054 0.673779C9.09635 0.442074 8.58781 0.442074 8.17362 0.673779Z" fill="#242424"/>
<path d="M36.7578 12.8516H32.8047V15.6016H36.4375V17.6484H32.8047V22H30.2812V10.7969H36.7578V12.8516ZM40.6759 22H38.2072V10.1562H40.6759V22ZM50.1956 22H47.7347V20.7812H47.6956C47.0863 21.724 46.2711 22.1953 45.2503 22.1953C43.3961 22.1953 42.4691 21.0729 42.4691 18.8281V14H44.93V18.6094C44.93 19.7396 45.3779 20.3047 46.2738 20.3047C46.7165 20.3047 47.0706 20.151 47.3363 19.8438C47.6019 19.5312 47.7347 19.1094 47.7347 18.5781V14H50.1956V22ZM59.3091 18.7031H54.0903C54.1736 19.8646 54.9054 20.4453 56.2856 20.4453C57.1658 20.4453 57.9393 20.237 58.6059 19.8203V21.6016C57.8664 21.9974 56.9054 22.1953 55.7231 22.1953C54.4315 22.1953 53.4289 21.8385 52.7153 21.125C52.0018 20.4062 51.645 19.4062 51.645 18.125C51.645 16.7969 52.0304 15.7448 52.8013 14.9688C53.5721 14.1927 54.52 13.8047 55.645 13.8047C56.8117 13.8047 57.7127 14.151 58.3481 14.8438C58.9888 15.5365 59.3091 16.4766 59.3091 17.6641V18.7031ZM57.02 17.1875C57.02 16.0417 56.5565 15.4688 55.6294 15.4688C55.2335 15.4688 54.8898 15.6328 54.5981 15.9609C54.3117 16.2891 54.1372 16.6979 54.0747 17.1875H57.02ZM68.3444 22H65.8834V17.5547C65.8834 16.3151 65.4407 15.6953 64.5553 15.6953C64.1282 15.6953 63.7767 15.8594 63.5006 16.1875C63.2246 16.5156 63.0866 16.9323 63.0866 17.4375V22H60.6178V14H63.0866V15.2656H63.1178C63.7064 14.2917 64.5631 13.8047 65.6881 13.8047C67.459 13.8047 68.3444 14.9036 68.3444 17.1016V22ZM74.9813 21.9062C74.6167 22.099 74.0672 22.1953 73.3328 22.1953C71.5932 22.1953 70.7234 21.2917 70.7234 19.4844V15.8203H69.4266V14H70.7234V12.2734L73.1844 11.5703V14H74.9813V15.8203H73.1844V19.0547C73.1844 19.888 73.5151 20.3047 74.1766 20.3047C74.437 20.3047 74.7052 20.2292 74.9813 20.0781V21.9062ZM82.7941 19.9531H87.5441V22H80.0909V21.1562C80.0909 20.5833 80.1873 20.0703 80.38 19.6172C80.5727 19.1589 80.8149 18.75 81.1066 18.3906C81.3982 18.026 81.7159 17.7057 82.0597 17.4297C82.4086 17.1484 82.7394 16.8958 83.0519 16.6719C83.38 16.4375 83.6665 16.2135 83.9113 16C84.1613 15.7865 84.3696 15.5755 84.5363 15.3672C84.7081 15.1536 84.8357 14.9401 84.9191 14.7266C85.0024 14.5078 85.0441 14.276 85.0441 14.0312C85.0441 13.5521 84.9086 13.1901 84.6378 12.9453C84.367 12.7005 83.9529 12.5781 83.3956 12.5781C82.4321 12.5781 81.5102 12.9609 80.63 13.7266V11.5547C81.604 10.9245 82.7029 10.6094 83.9269 10.6094C84.4946 10.6094 85.0024 10.6849 85.4503 10.8359C85.9034 10.9818 86.2863 11.1927 86.5988 11.4688C86.9113 11.7448 87.1482 12.0807 87.3097 12.4766C87.4764 12.8672 87.5597 13.3047 87.5597 13.7891C87.5597 14.3047 87.479 14.763 87.3175 15.1641C87.1613 15.5651 86.9503 15.9297 86.6847 16.2578C86.4243 16.5859 86.1222 16.888 85.7784 17.1641C85.4347 17.4349 85.0779 17.6979 84.7081 17.9531C84.4581 18.1302 84.2159 18.3073 83.9816 18.4844C83.7524 18.6562 83.5493 18.8281 83.3722 19C83.1951 19.1667 83.0545 19.3307 82.9503 19.4922C82.8461 19.6536 82.7941 19.8073 82.7941 19.9531Z" fill="#1B1A19"/>
</svg>
