<svg xmlns="http://www.w3.org/2000/svg" xmlns:xlink="http://www.w3.org/1999/xlink" width="183" zoomAndPan="magnify" viewBox="0 0 137.25 30.000001" height="40" preserveAspectRatio="xMidYMid meet" version="1.0"><defs><g/><clipPath id="f98d2f41cc"><path d="M 7 5 L 39 5 L 39 22 L 7 22 Z M 7 5 " clip-rule="nonzero"/></clipPath><clipPath id="db5743fbd8"><path d="M 4.753906 11.296875 L 35.804688 1.164062 L 39.40625 12.207031 L 8.355469 22.335938 Z M 4.753906 11.296875 " clip-rule="nonzero"/></clipPath><clipPath id="f754652c8b"><path d="M 35.632812 1.222656 L 4.582031 11.351562 L 8.183594 22.390625 L 39.234375 12.261719 Z M 35.632812 1.222656 " clip-rule="nonzero"/></clipPath></defs><g clip-path="url(#f98d2f41cc)"><g clip-path="url(#db5743fbd8)"><g clip-path="url(#f754652c8b)"><path fill="#545454" d="M 38.28125 11.070312 C 38.648438 10.597656 38.425781 10.253906 38.179688 9.933594 C 37.507812 9.046875 36.699219 8.316406 35.675781 7.835938 C 32.410156 6.308594 28.953125 5.753906 25.378906 5.988281 C 21.710938 6.226562 18.433594 7.507812 15.652344 9.941406 C 14.347656 11.089844 13.101562 12.308594 11.78125 13.535156 C 11.785156 13.347656 11.765625 13.117188 11.789062 12.886719 C 11.929688 11.316406 11.773438 11.007812 10.359375 10.265625 C 10.046875 10.101562 9.703125 9.992188 9.28125 9.816406 C 9.199219 10.160156 9.128906 10.402344 9.078125 10.648438 C 8.507812 13.296875 7.984375 15.957031 7.335938 18.585938 C 7.183594 19.226562 7.34375 19.625 7.707031 20.007812 C 8.441406 20.769531 9.417969 21.167969 10.398438 21.464844 C 10.742188 21.570312 11.246094 21.335938 11.621094 21.152344 C 14.371094 19.789062 17.222656 18.6875 20.207031 17.96875 C 21.140625 17.746094 22.101562 17.664062 23.132812 17.503906 C 23.148438 17.179688 22.863281 16.917969 22.605469 16.707031 C 21.386719 15.699219 20.058594 14.960938 18.378906 15.261719 C 17.585938 15.402344 16.789062 15.539062 16 15.6875 C 15.648438 15.753906 15.300781 15.859375 14.871094 15.960938 C 15.875 13.78125 22.167969 9.949219 25.773438 9.265625 C 30.152344 8.433594 34.324219 9.121094 38.28125 11.070312 Z M 38.28125 11.070312 " fill-opacity="1" fill-rule="nonzero"/></g></g></g><g fill="#00bf63" fill-opacity="1"><g transform="translate(37.058502, 19.238251)"><g><path d="M 5.765625 -2.03125 C 5.765625 -1.332031 5.519531 -0.796875 5.03125 -0.421875 C 4.550781 -0.0546875 3.820312 0.125 2.84375 0.125 C 2.34375 0.125 1.914062 0.0859375 1.5625 0.015625 C 1.207031 -0.046875 0.878906 -0.144531 0.578125 -0.28125 L 0.578125 -1.828125 C 0.921875 -1.660156 1.3125 -1.519531 1.75 -1.40625 C 2.1875 -1.300781 2.570312 -1.25 2.90625 -1.25 C 3.582031 -1.25 3.921875 -1.445312 3.921875 -1.84375 C 3.921875 -1.988281 3.875 -2.101562 3.78125 -2.1875 C 3.695312 -2.28125 3.539062 -2.382812 3.3125 -2.5 C 3.09375 -2.625 2.800781 -2.765625 2.4375 -2.921875 C 1.90625 -3.140625 1.515625 -3.34375 1.265625 -3.53125 C 1.023438 -3.71875 0.847656 -3.929688 0.734375 -4.171875 C 0.617188 -4.421875 0.5625 -4.722656 0.5625 -5.078125 C 0.5625 -5.691406 0.796875 -6.164062 1.265625 -6.5 C 1.742188 -6.832031 2.414062 -7 3.28125 -7 C 4.113281 -7 4.921875 -6.816406 5.703125 -6.453125 L 5.140625 -5.109375 C 4.796875 -5.253906 4.472656 -5.375 4.171875 -5.46875 C 3.867188 -5.5625 3.5625 -5.609375 3.25 -5.609375 C 2.695312 -5.609375 2.421875 -5.457031 2.421875 -5.15625 C 2.421875 -4.988281 2.507812 -4.84375 2.6875 -4.71875 C 2.863281 -4.59375 3.253906 -4.410156 3.859375 -4.171875 C 4.398438 -3.953125 4.796875 -3.75 5.046875 -3.5625 C 5.296875 -3.375 5.476562 -3.15625 5.59375 -2.90625 C 5.707031 -2.664062 5.765625 -2.375 5.765625 -2.03125 Z M 5.765625 -2.03125 "/></g></g></g><g fill="#00bf63" fill-opacity="1"><g transform="translate(43.304451, 19.238251)"><g><path d="M 5.34375 0 L 4.984375 -0.9375 L 4.9375 -0.9375 C 4.613281 -0.539062 4.285156 -0.265625 3.953125 -0.109375 C 3.617188 0.046875 3.1875 0.125 2.65625 0.125 C 2 0.125 1.476562 -0.0625 1.09375 -0.4375 C 0.71875 -0.8125 0.53125 -1.347656 0.53125 -2.046875 C 0.53125 -2.773438 0.785156 -3.3125 1.296875 -3.65625 C 1.804688 -4.007812 2.570312 -4.203125 3.59375 -4.234375 L 4.796875 -4.28125 L 4.796875 -4.578125 C 4.796875 -5.273438 4.4375 -5.625 3.71875 -5.625 C 3.175781 -5.625 2.53125 -5.457031 1.78125 -5.125 L 1.171875 -6.390625 C 1.960938 -6.796875 2.835938 -7 3.796875 -7 C 4.710938 -7 5.414062 -6.796875 5.90625 -6.390625 C 6.40625 -5.992188 6.65625 -5.390625 6.65625 -4.578125 L 6.65625 0 Z M 4.796875 -3.1875 L 4.0625 -3.15625 C 3.519531 -3.132812 3.113281 -3.035156 2.84375 -2.859375 C 2.582031 -2.679688 2.453125 -2.40625 2.453125 -2.03125 C 2.453125 -1.507812 2.753906 -1.25 3.359375 -1.25 C 3.796875 -1.25 4.144531 -1.375 4.40625 -1.625 C 4.664062 -1.875 4.796875 -2.203125 4.796875 -2.609375 Z M 4.796875 -3.1875 "/></g></g></g><g fill="#00bf63" fill-opacity="1"><g transform="translate(50.894076, 19.238251)"><g><path d="M 2.609375 0 L 0 -6.859375 L 1.953125 -6.859375 L 3.28125 -2.953125 C 3.425781 -2.460938 3.519531 -1.992188 3.5625 -1.546875 L 3.59375 -1.546875 C 3.613281 -1.941406 3.707031 -2.410156 3.875 -2.953125 L 5.203125 -6.859375 L 7.15625 -6.859375 L 4.53125 0 Z M 2.609375 0 "/></g></g></g><g fill="#00bf63" fill-opacity="1"><g transform="translate(58.041945, 19.238251)"><g><path d="M 3.828125 -5.65625 C 3.429688 -5.65625 3.117188 -5.53125 2.890625 -5.28125 C 2.671875 -5.03125 2.539062 -4.675781 2.5 -4.21875 L 5.140625 -4.21875 C 5.128906 -4.675781 5.003906 -5.03125 4.765625 -5.28125 C 4.535156 -5.53125 4.222656 -5.65625 3.828125 -5.65625 Z M 4.09375 0.125 C 2.988281 0.125 2.125 -0.175781 1.5 -0.78125 C 0.875 -1.394531 0.5625 -2.265625 0.5625 -3.390625 C 0.5625 -4.535156 0.847656 -5.421875 1.421875 -6.046875 C 2.003906 -6.679688 2.800781 -7 3.8125 -7 C 4.78125 -7 5.535156 -6.722656 6.078125 -6.171875 C 6.617188 -5.617188 6.890625 -4.851562 6.890625 -3.875 L 6.890625 -2.96875 L 2.46875 -2.96875 C 2.488281 -2.4375 2.644531 -2.019531 2.9375 -1.71875 C 3.226562 -1.414062 3.640625 -1.265625 4.171875 -1.265625 C 4.585938 -1.265625 4.976562 -1.304688 5.34375 -1.390625 C 5.71875 -1.484375 6.101562 -1.625 6.5 -1.8125 L 6.5 -0.359375 C 6.175781 -0.191406 5.828125 -0.0703125 5.453125 0 C 5.078125 0.0820312 4.625 0.125 4.09375 0.125 Z M 4.09375 0.125 "/></g></g></g><g fill="#00bf63" fill-opacity="1"><g transform="translate(65.465912, 19.238251)"><g/></g></g><g fill="#00bf63" fill-opacity="1"><g transform="translate(68.730003, 19.238251)"><g><path d="M 6.78125 0 L 0.5 0 L 0.5 -1.328125 L 2.75 -3.59375 C 3.425781 -4.28125 3.863281 -4.753906 4.0625 -5.015625 C 4.269531 -5.285156 4.414062 -5.53125 4.5 -5.75 C 4.59375 -5.976562 4.640625 -6.210938 4.640625 -6.453125 C 4.640625 -6.816406 4.539062 -7.085938 4.34375 -7.265625 C 4.144531 -7.441406 3.878906 -7.53125 3.546875 -7.53125 C 3.203125 -7.53125 2.863281 -7.445312 2.53125 -7.28125 C 2.207031 -7.125 1.867188 -6.898438 1.515625 -6.609375 L 0.484375 -7.828125 C 0.921875 -8.203125 1.285156 -8.46875 1.578125 -8.625 C 1.867188 -8.78125 2.1875 -8.898438 2.53125 -8.984375 C 2.875 -9.066406 3.257812 -9.109375 3.6875 -9.109375 C 4.25 -9.109375 4.742188 -9.003906 5.171875 -8.796875 C 5.597656 -8.597656 5.929688 -8.3125 6.171875 -7.9375 C 6.410156 -7.570312 6.53125 -7.148438 6.53125 -6.671875 C 6.53125 -6.265625 6.457031 -5.878906 6.3125 -5.515625 C 6.164062 -5.148438 5.9375 -4.773438 5.625 -4.390625 C 5.320312 -4.015625 4.785156 -3.472656 4.015625 -2.765625 L 2.875 -1.6875 L 2.875 -1.59375 L 6.78125 -1.59375 Z M 6.78125 0 "/></g></g></g><g fill="#00bf63" fill-opacity="1"><g transform="translate(75.902414, 19.238251)"><g/></g></g><g fill="#00bf63" fill-opacity="1"><g transform="translate(79.166506, 19.238251)"><g><path d="M 7.125 0 L 5.25 0 L 5.25 -4.015625 C 5.25 -4.503906 5.164062 -4.875 5 -5.125 C 4.84375 -5.375 4.582031 -5.5 4.21875 -5.5 C 3.738281 -5.5 3.390625 -5.320312 3.171875 -4.96875 C 2.960938 -4.613281 2.859375 -4.035156 2.859375 -3.234375 L 2.859375 0 L 0.984375 0 L 0.984375 -6.859375 L 2.40625 -6.859375 L 2.671875 -5.984375 L 2.765625 -5.984375 C 2.953125 -6.304688 3.21875 -6.554688 3.5625 -6.734375 C 3.914062 -6.910156 4.316406 -7 4.765625 -7 C 5.796875 -7 6.492188 -6.660156 6.859375 -5.984375 L 7.015625 -5.984375 C 7.203125 -6.304688 7.472656 -6.554688 7.828125 -6.734375 C 8.191406 -6.910156 8.597656 -7 9.046875 -7 C 9.828125 -7 10.414062 -6.796875 10.8125 -6.390625 C 11.207031 -5.992188 11.40625 -5.359375 11.40625 -4.484375 L 11.40625 0 L 9.53125 0 L 9.53125 -4.015625 C 9.53125 -4.503906 9.445312 -4.875 9.28125 -5.125 C 9.113281 -5.375 8.851562 -5.5 8.5 -5.5 C 8.039062 -5.5 7.695312 -5.332031 7.46875 -5 C 7.238281 -4.675781 7.125 -4.160156 7.125 -3.453125 Z M 7.125 0 "/></g></g></g><g fill="#00bf63" fill-opacity="1"><g transform="translate(91.505016, 19.238251)"><g><path d="M 2.46875 -3.453125 C 2.46875 -2.765625 2.578125 -2.242188 2.796875 -1.890625 C 3.023438 -1.546875 3.394531 -1.375 3.90625 -1.375 C 4.40625 -1.375 4.765625 -1.546875 4.984375 -1.890625 C 5.203125 -2.242188 5.3125 -2.765625 5.3125 -3.453125 C 5.3125 -4.128906 5.195312 -4.632812 4.96875 -4.96875 C 4.75 -5.3125 4.390625 -5.484375 3.890625 -5.484375 C 3.390625 -5.484375 3.023438 -5.3125 2.796875 -4.96875 C 2.578125 -4.632812 2.46875 -4.128906 2.46875 -3.453125 Z M 7.21875 -3.453125 C 7.21875 -2.328125 6.921875 -1.445312 6.328125 -0.8125 C 5.742188 -0.1875 4.925781 0.125 3.875 0.125 C 3.21875 0.125 2.632812 -0.0195312 2.125 -0.3125 C 1.625 -0.601562 1.238281 -1.015625 0.96875 -1.546875 C 0.695312 -2.085938 0.5625 -2.722656 0.5625 -3.453125 C 0.5625 -4.566406 0.851562 -5.4375 1.4375 -6.0625 C 2.03125 -6.6875 2.851562 -7 3.90625 -7 C 4.570312 -7 5.15625 -6.851562 5.65625 -6.5625 C 6.15625 -6.28125 6.539062 -5.867188 6.8125 -5.328125 C 7.082031 -4.796875 7.21875 -4.171875 7.21875 -3.453125 Z M 7.21875 -3.453125 "/></g></g></g><g fill="#00bf63" fill-opacity="1"><g transform="translate(99.284842, 19.238251)"><g><path d="M 7.328125 0 L 5.453125 0 L 5.453125 -4.015625 C 5.453125 -4.503906 5.363281 -4.875 5.1875 -5.125 C 5.007812 -5.375 4.726562 -5.5 4.34375 -5.5 C 3.820312 -5.5 3.441406 -5.320312 3.203125 -4.96875 C 2.972656 -4.625 2.859375 -4.046875 2.859375 -3.234375 L 2.859375 0 L 0.984375 0 L 0.984375 -6.859375 L 2.40625 -6.859375 L 2.671875 -5.984375 L 2.765625 -5.984375 C 2.972656 -6.316406 3.257812 -6.566406 3.625 -6.734375 C 4 -6.910156 4.414062 -7 4.875 -7 C 5.675781 -7 6.285156 -6.78125 6.703125 -6.34375 C 7.117188 -5.914062 7.328125 -5.296875 7.328125 -4.484375 Z M 7.328125 0 "/></g></g></g><g fill="#00bf63" fill-opacity="1"><g transform="translate(107.543238, 19.238251)"><g><path d="M 3.875 -1.375 C 4.195312 -1.375 4.585938 -1.441406 5.046875 -1.578125 L 5.046875 -0.1875 C 4.585938 0.0195312 4.015625 0.125 3.328125 0.125 C 2.585938 0.125 2.046875 -0.0625 1.703125 -0.4375 C 1.359375 -0.820312 1.1875 -1.394531 1.1875 -2.15625 L 1.1875 -5.453125 L 0.28125 -5.453125 L 0.28125 -6.25 L 1.328125 -6.875 L 1.859375 -8.328125 L 3.0625 -8.328125 L 3.0625 -6.859375 L 4.984375 -6.859375 L 4.984375 -5.453125 L 3.0625 -5.453125 L 3.0625 -2.15625 C 3.0625 -1.882812 3.132812 -1.6875 3.28125 -1.5625 C 3.425781 -1.4375 3.625 -1.375 3.875 -1.375 Z M 3.875 -1.375 "/></g></g></g><g fill="#00bf63" fill-opacity="1"><g transform="translate(112.997706, 19.238251)"><g><path d="M 7.328125 0 L 5.453125 0 L 5.453125 -4.015625 C 5.453125 -5.003906 5.082031 -5.5 4.34375 -5.5 C 3.820312 -5.5 3.441406 -5.316406 3.203125 -4.953125 C 2.972656 -4.597656 2.859375 -4.023438 2.859375 -3.234375 L 2.859375 0 L 0.984375 0 L 0.984375 -9.5625 L 2.859375 -9.5625 L 2.859375 -7.609375 C 2.859375 -7.453125 2.84375 -7.097656 2.8125 -6.546875 L 2.765625 -5.984375 L 2.875 -5.984375 C 3.289062 -6.660156 3.953125 -7 4.859375 -7 C 5.660156 -7 6.269531 -6.78125 6.6875 -6.34375 C 7.113281 -5.90625 7.328125 -5.285156 7.328125 -4.484375 Z M 7.328125 0 "/></g></g></g><g fill="#00bf63" fill-opacity="1"><g transform="translate(121.256103, 19.238251)"><g><path d="M 5.765625 -2.03125 C 5.765625 -1.332031 5.519531 -0.796875 5.03125 -0.421875 C 4.550781 -0.0546875 3.820312 0.125 2.84375 0.125 C 2.34375 0.125 1.914062 0.0859375 1.5625 0.015625 C 1.207031 -0.046875 0.878906 -0.144531 0.578125 -0.28125 L 0.578125 -1.828125 C 0.921875 -1.660156 1.3125 -1.519531 1.75 -1.40625 C 2.1875 -1.300781 2.570312 -1.25 2.90625 -1.25 C 3.582031 -1.25 3.921875 -1.445312 3.921875 -1.84375 C 3.921875 -1.988281 3.875 -2.101562 3.78125 -2.1875 C 3.695312 -2.28125 3.539062 -2.382812 3.3125 -2.5 C 3.09375 -2.625 2.800781 -2.765625 2.4375 -2.921875 C 1.90625 -3.140625 1.515625 -3.34375 1.265625 -3.53125 C 1.023438 -3.71875 0.847656 -3.929688 0.734375 -4.171875 C 0.617188 -4.421875 0.5625 -4.722656 0.5625 -5.078125 C 0.5625 -5.691406 0.796875 -6.164062 1.265625 -6.5 C 1.742188 -6.832031 2.414062 -7 3.28125 -7 C 4.113281 -7 4.921875 -6.816406 5.703125 -6.453125 L 5.140625 -5.109375 C 4.796875 -5.253906 4.472656 -5.375 4.171875 -5.46875 C 3.867188 -5.5625 3.5625 -5.609375 3.25 -5.609375 C 2.695312 -5.609375 2.421875 -5.457031 2.421875 -5.15625 C 2.421875 -4.988281 2.507812 -4.84375 2.6875 -4.71875 C 2.863281 -4.59375 3.253906 -4.410156 3.859375 -4.171875 C 4.398438 -3.953125 4.796875 -3.75 5.046875 -3.5625 C 5.296875 -3.375 5.476562 -3.15625 5.59375 -2.90625 C 5.707031 -2.664062 5.765625 -2.375 5.765625 -2.03125 Z M 5.765625 -2.03125 "/></g></g></g></svg>