<svg id="Layer_1" data-name="Layer 1" xmlns="http://www.w3.org/2000/svg" viewBox="0 0 400 300" width="0" height="0" class="illustration styles_illustrationTablet__1DWOa"><title>_</title><path d="M135,52.26C105.13,61.61,54.58,77,46.32,116.9c-6.18,29.87-3.32,107.88,53,126.94C175.08,269.5,305.74,257,334,199.45,352.15,162.51,357,88,301.43,65.71,263.78,50.61,199.15,32.24,135,52.26Z" fill="#e6e6e6" opacity="0.3"></path><rect x="189.26" y="94.73" width="5.38" height="44.34" fill="#e6e6e6"></rect><rect x="260.37" y="103.31" width="39.5" height="5.38" transform="translate(60.46 309.6) rotate(-63.56)" fill="#e6e6e6"></rect><rect x="228.73" y="167.37" width="5.38" height="57.73" transform="translate(-67.1 250.52) rotate(-50.6)" fill="#e6e6e6"></rect><path d="M257.86,215.8a2.39,2.39,0,0,0,.11-2.44l-4.81,2.4c-1.24-2.48,1-4.19,6.32-8.33,3.11-2.4,7.49-5.64,13-9.62,9.39-6.77,19-13.43,19.09-13.5l3.07,4.42C280.48,198.57,259.7,213.47,257.86,215.8Z" fill="#e6e6e6"></path><polygon points="214 158.08 212.11 153.04 268.93 131.64 334.94 128.32 335.22 133.7 270.04 136.98 214 158.08" fill="#e6e6e6"></polygon><rect x="120.57" y="194.32" width="49.76" height="5.38" transform="translate(-82.5 107.52) rotate(-32.13)" fill="#e6e6e6"></rect><rect x="150.54" y="120.5" width="5.38" height="40.1" transform="translate(-54.66 136.8) rotate(-41.49)" fill="#e6e6e6"></rect><polygon points="69.62 165.09 67.01 160.38 117.99 132.13 63.02 90.47 66.27 86.18 127.83 132.83 69.62 165.09" fill="#e6e6e6"></polygon><path d="M224.57,164.51a35.64,35.64,0,1,0-61.42,24.59A28.79,28.79,0,0,1,170.94,209v1.22h35.27v-.9a28.86,28.86,0,0,1,8.31-20A35.48,35.48,0,0,0,224.57,164.51Z" fill="#ffd200"></path><path d="M179.36,210.31a1.24,1.24,0,0,1-1.22-1l-7.45-45.09a1.24,1.24,0,1,1,2.45-.41l7.45,45.09a1.25,1.25,0,0,1-1,1.43Z" fill="#fff"></path><path d="M198,210.31l-.21,0a1.25,1.25,0,0,1-1-1.43l7.45-45.09a1.24,1.24,0,1,1,2.45.41l-7.45,45.09A1.24,1.24,0,0,1,198,210.31Z" fill="#fff"></path><rect x="168.74" y="204.75" width="40.37" height="31.87" fill="#24285b"></rect><path d="M192.59,173.33c-1.57,0-3.09-.94-4.53-2.81-.58-.76-1.15-1.11-1.68-1.07-1.2.11-2.56,2.05-3,3a1.24,1.24,0,0,1-2.21-1.13c.21-.41,2.14-4.06,5-4.32a4.32,4.32,0,0,1,3.88,2c.69.89,1.72,1.94,2.71,1.83,1.15-.12,2.16-1.7,2.42-2.24a1.24,1.24,0,0,1,2.24,1.06c-.16.34-1.66,3.36-4.39,3.65Z" fill="#fff"></path><ellipse cx="201.41" cy="144.95" rx="8.65" ry="11.07" transform="translate(-11.7 272.07) rotate(-66.56)" fill="#fff" opacity="0.21"></ellipse><path d="M175.38,236.62h27.11a0,0,0,0,1,0,0v0a12.43,12.43,0,0,1-12.43,12.43h-2.25a12.43,12.43,0,0,1-12.43-12.43v0a0,0,0,0,1,0,0Z" fill="#24285b"></path><rect x="99.28" y="104.26" width="47.27" height="47.27" rx="7.7" fill="#9317E1"></rect><rect x="245.85" y="113.08" width="47.27" height="47.27" rx="7.7" fill="#9317E1"></rect><rect x="245.85" y="113.08" width="47.27" height="47.27" rx="7.7" opacity="0.09"></rect><rect x="92.68" y="183.78" width="47.27" height="47.27" rx="7.7" fill="#9317E1"></rect><rect x="92.68" y="183.78" width="47.27" height="47.27" rx="7.7" fill="#fff" opacity="0.6"></rect><rect x="238.21" y="197.2" width="34.71" height="34.71" rx="5.65" fill="#9317E1"></rect><rect x="168.82" y="65.18" width="46.27" height="46.27" rx="7.53" fill="#9317E1"></rect><rect x="168.82" y="65.18" width="46.27" height="46.27" rx="7.53" fill="#fff" opacity="0.46"></rect><rect x="49.77" y="72.65" width="28.95" height="28.95" rx="4.71" fill="#9317E1"></rect><rect x="49.77" y="72.65" width="28.95" height="28.95" rx="4.71" fill="#fff" opacity="0.46"></rect><rect x="58.55" y="152.97" width="19.52" height="19.52" rx="3.18" fill="#9317E1"></rect><rect x="58.55" y="152.97" width="19.52" height="19.52" rx="3.18" opacity="0.09"></rect><rect x="281.2" y="174.02" width="19.52" height="19.52" rx="3.18" fill="#9317E1"></rect><rect x="281.2" y="174.02" width="19.52" height="19.52" rx="3.18" fill="#fff" opacity="0.6"></rect><rect x="275.8" y="78.56" width="19.52" height="19.52" rx="3.18" fill="#9317E1"></rect><rect x="275.8" y="78.56" width="19.52" height="19.52" rx="3.18" fill="#fff" opacity="0.6"></rect><rect x="316.9" y="112.21" width="33.33" height="33.33" rx="5.43" fill="#9317E1"></rect><rect x="127.83" y="65.76" width="22.56" height="22.56" fill="#e6e6e6"></rect><rect x="238.65" y="82.9" width="16.79" height="12.47" fill="#e6e6e6"></rect></svg>