<?xml version="1.0" encoding="UTF-8" standalone="no"?>
<svg
   width="200"
   height="100"
   viewBox="0 0 200 100"
   fill="none"
   version="1.1"
   id="svg18"
   sodipodi:docname="abp.svg"
   inkscape:version="1.1.2 (b8e25be833, 2022-02-05)"
   xmlns:inkscape="http://www.inkscape.org/namespaces/inkscape"
   xmlns:sodipodi="http://sodipodi.sourceforge.net/DTD/sodipodi-0.dtd"
   xmlns="http://www.w3.org/2000/svg"
   xmlns:svg="http://www.w3.org/2000/svg">
  <defs
     id="defs22" />
  <sodipodi:namedview
     id="namedview20"
     pagecolor="#ffffff"
     bordercolor="#666666"
     borderopacity="1.0"
     inkscape:pageshadow="2"
     inkscape:pageopacity="0.0"
     inkscape:pagecheckerboard="0"
     showgrid="false"
     width="200px"
     inkscape:zoom="1.5985448"
     inkscape:cx="-112.28963"
     inkscape:cy="15.639224"
     inkscape:window-width="1920"
     inkscape:window-height="1027"
     inkscape:window-x="-8"
     inkscape:window-y="-8"
     inkscape:window-maximized="1"
     inkscape:current-layer="svg18" />
  <g
     id="g32"
     transform="matrix(1.6726,0,0,1.6726,2.7722106,16.548024)">
    <path
       d="m 19.9985,23.1498 c 1.8428,0 3.3368,-1.4938 3.3368,-3.3365 0,-1.8427 -1.494,-3.3365 -3.3368,-3.3365 -1.8428,0 -3.3368,1.4938 -3.3368,3.3365 0,1.8427 1.494,3.3365 3.3368,3.3365 z"
       fill="#b84297"
       id="path2" />
    <path
       d="m 58.6999,8.82219 c -1.7567,-0.01547 -3.4903,0.40005 -5.049,1.21011 -1.5587,0.8101 -2.8949,1.9901 -3.8914,3.4364 -0.9965,1.4464 -1.623,3.115 -1.8245,4.8597 -0.2015,1.7447 0.0281,3.5121 0.6688,5.1475 0.6406,1.6353 1.6726,3.0886 3.0056,4.2325 1.3331,1.1439 2.9264,1.9434 4.6404,2.3286 1.7139,0.3851 3.4963,0.3441 5.1907,-0.1195 1.6944,-0.4636 3.2492,-1.3356 4.5282,-2.5396 v 1.945 h 3.3677 v -9.253 c 0.0085,-0.199 0.0137,-0.3997 0.012,-0.602 C 69.315,16.6548 68.1824,13.9664 66.1926,11.9772 64.2028,9.9879 61.5137,8.85558 58.6999,8.82219 Z m 0.0463,18.13551 c -1.4754,0.0278 -2.9255,-0.386 -4.1639,-1.1883 -1.2385,-0.8023 -2.2087,-1.9564 -2.7862,-3.314 -0.5775,-1.3577 -0.7358,-2.857 -0.4545,-4.3053 0.2812,-1.4482 0.989,-2.7794 2.0326,-3.8225 1.0436,-1.0431 2.3753,-1.7505 3.8241,-2.0312 1.4487,-0.2808 2.9483,-0.1222 4.3062,0.4554 1.3579,0.5776 2.5121,1.5479 3.3143,2.7862 0.8022,1.2383 1.2158,2.6881 1.1877,4.1631 0,0.0738 0,0.1458 -0.0103,0.2178 h -0.0258 v 0.3619 c -0.1828,1.8025 -1.0182,3.476 -2.349,4.7057 -1.3308,1.2296 -3.0652,1.9307 -4.8769,1.9712 z"
       fill="#292d33"
       id="path4" />
    <path
       d="m 82.1623,8.82224 c -2.7816,-0.0282 -5.465,1.02739 -7.4816,2.94316 V 2.40088 H 71.3148 V 19.919 h 0.0189 c 0.0703,2.1034 0.7574,4.1398 1.9758,5.856 1.2183,1.7163 2.9143,3.0368 4.8771,3.7975 1.9628,0.7607 4.1059,0.9279 6.1631,0.481 2.0571,-0.4469 3.9375,-1.4882 5.4075,-2.9947 1.4701,-1.5064 2.4649,-3.4115 2.861,-5.4785 0.396,-2.067 0.1757,-4.2048 -0.6334,-6.1477 C 91.1756,13.4897 89.8133,11.8274 88.0669,10.6521 86.3206,9.47688 84.2674,8.84056 82.1623,8.82224 Z m 0.0412,18.13556 c -1.9234,0.0367 -3.7855,-0.677 -5.1914,-1.9897 -1.406,-1.3128 -2.2453,-3.1213 -2.3399,-5.0422 v -0.753 c 0.0757,-1.4384 0.5699,-2.8234 1.4219,-3.985 0.8519,-1.1617 2.0246,-2.0493 3.374,-2.5541 1.3494,-0.5048 2.8169,-0.6048 4.2223,-0.2876 1.4055,0.3172 2.6877,1.0377 3.6894,2.0731 1.0016,1.0353 1.6791,2.3406 1.9493,3.7554 0.2702,1.4149 0.1213,2.8778 -0.4284,4.2093 -0.5496,1.3315 -1.4762,2.4735 -2.6659,3.286 -1.1897,0.8125 -2.5908,1.2601 -4.0313,1.2878 z"
       fill="#292d33"
       id="path6" />
    <path
       d="m 105.625,8.82254 c -1.426,-0.01258 -2.84,0.25897 -4.16,0.79882 -1.32,0.53984 -2.5197,1.33714 -3.5283,2.34544 -1.0085,1.0082 -1.806,2.2072 -2.346,3.527 -0.54,1.3197 -0.8117,2.7338 -0.7991,4.1596 0,0.0892 0,0.1716 0,0.2659 h -0.0188 v 17.5198 h 3.3659 v -10.102 c 1.2697,1.203 2.8143,2.0775 4.4993,2.5476 1.685,0.4701 3.459,0.5215 5.168,0.1497 1.709,-0.3717 3.302,-1.1555 4.639,-2.2829 1.337,-1.1275 2.379,-2.5645 3.034,-4.1861 0.655,-1.6216 0.903,-3.3786 0.724,-5.1182 -0.179,-1.7396 -0.781,-3.4091 -1.752,-4.8632 -0.972,-1.4541 -2.285,-2.6488 -3.824,-3.4802 -1.539,-0.83131 -3.258,-1.2741 -5.007,-1.28984 z m 0.048,18.13556 c -1.919,0.0364 -3.777,-0.6742 -5.182,-1.9817 -1.4048,-1.3076 -2.2465,-3.1099 -2.3472,-5.0262 v -0.0309 c 0,-0.1715 -0.012,-0.331 0,-0.4991 0.0292,-1.4508 0.4845,-2.8609 1.3092,-4.055 0.825,-1.1941 1.982,-2.1195 3.329,-2.6609 1.347,-0.5414 2.823,-0.6749 4.245,-0.3841 1.422,0.2908 2.727,0.9933 3.753,2.0199 1.025,1.0267 1.726,2.3322 2.016,3.7541 0.289,1.422 0.154,2.8976 -0.389,4.2432 -0.543,1.3457 -1.47,2.502 -2.666,3.3251 -1.195,0.8231 -2.606,1.2766 -4.057,1.3042 z"
       fill="#292d33"
       id="path8" />
    <path
       d="M 19.9977,8.7911e-6 C 16.9662,-0.00283686 13.974,0.685199 11.2484,2.01183 v 4.29634 c 2.4284,-1.54989 5.225,-2.42717 8.1038,-2.54214 2.8788,-0.11496 5.7365,0.53652 8.2809,1.88783 2.5444,1.35131 4.6841,3.35395 6.2004,5.80314 1.5162,2.4492 2.3546,5.257 2.4295,8.1364 V 31.678 C 38.4092,28.6875 39.6889,25.1632 39.9613,21.4926 40.2337,17.8221 39.4883,14.1475 37.807,10.8731 36.1258,7.59867 33.5738,4.85122 30.4317,2.93292 27.2897,1.01461 23.6793,-2.29797e-4 19.9977,8.7911e-6 Z"
       fill="#292d33"
       id="path10" />
    <path
       d="M 19.998,36.2694 C 15.8193,36.2692 11.801,34.6607 8.77698,31.7777 5.7529,28.8946 3.95517,24.9583 3.75677,20.7854 H 3.7379 V 8.3457 c -2.924174,4.0856 -4.204149,9.1214 -3.585664,14.107 0.618485,4.9855 3.090174,9.5562 6.924074,12.8038 3.83389,3.2477 8.74949,4.9348 13.77029,4.7262 5.0208,-0.2086 9.7794,-2.2976 13.3305,-5.8521 v -6.1572 c -1.4137,2.517 -3.4723,4.6121 -5.9643,6.0702 -2.492,1.458 -5.3274,2.2262 -8.2148,2.2258 z"
       fill="#292d33"
       id="path12" />
    <path
       d="m 19.9981,25.1329 c -1.209,0.0011 -2.3834,-0.4036 -3.335,-1.1491 v 3.8247 c 1.7348,0.7133 3.6531,0.8504 5.4718,0.3909 1.8187,-0.4594 3.4415,-1.4911 4.6291,-2.9428 1.1876,-1.4517 1.877,-3.2466 1.9666,-5.1198 0.0896,-1.8732 -0.4253,-3.7257 -1.4689,-5.284 -1.0436,-1.5584 -2.5606,-2.7402 -4.3271,-3.3711 -1.7666,-0.6309 -3.6891,-0.6774 -5.4842,-0.1328 -1.795,0.5446 -3.3674,1.6515 -4.4853,3.1576 -1.1179,1.506 -1.722,3.3313 -1.7232,5.2067 v 11.2459 c 1.0173,0.8007 2.1394,1.4586 3.335,1.9552 V 19.708 c 0,-1.0719 0.318,-2.1198 0.9137,-3.011 0.5957,-0.8913 1.4423,-1.586 2.4329,-1.9962 0.9906,-0.4102 2.0806,-0.5175 3.1322,-0.3084 1.0516,0.2091 2.0176,0.7253 2.7758,1.4833 0.7581,0.7579 1.2744,1.7236 1.4836,2.775 0.2092,1.0513 0.1018,2.141 -0.3085,3.1314 -0.4103,0.9903 -1.1051,1.8367 -1.9966,2.4323 -0.8916,0.5955 -1.9397,0.9133 -3.0119,0.9133 z"
       fill="#292d33"
       id="path14" />
    <path
       d="m 9.1571,28.9464 v -9.1329 c 0.00105,-2.287 0.72598,-4.515 2.071,-6.365 1.3449,-1.8499 3.241,-3.2269 5.4166,-3.93382 2.1756,-0.70688 4.5191,-0.70736 6.695,-0.00138 2.1759,0.706 4.0725,2.0822 5.4182,3.9316 1.3458,1.8494 2.0716,4.0771 2.0736,6.3641 0.002,2.287 -0.72,4.516 -2.0625,6.3678 -1.3425,1.8517 -3.2367,3.2313 -5.4113,3.941 -2.1747,0.7098 -4.5182,0.7134 -6.695,0.0104 v 3.4645 c 2.4546,0.5942 5.0234,0.5221 7.4409,-0.2087 2.4175,-0.7308 4.5958,-2.0939 6.3098,-3.9483 1.714,-1.8545 2.9014,-4.1329 3.4396,-6.5998 0.5381,-2.4669 0.4074,-5.0328 -0.3786,-7.4323 C 32.6884,13.0041 31.2755,10.8581 29.382,9.18732 27.4884,7.51657 25.1828,6.38177 22.7036,5.90024 20.2244,5.41871 17.6615,5.60793 15.28,6.44834 12.8984,7.28874 10.7846,8.74983 9.1571,10.6806 V 6.04976 3.18896 C 7.94981,3.96616 6.82942,4.87062 5.81519,5.88683 V 20.2388 c 0.09465,3.1973 1.27301,6.2676 3.34191,8.7076 z"
       fill="#292d33"
       id="path16" />
  </g>
</svg>
