<?xml version="1.0" encoding="UTF-8" standalone="no"?>
<svg
   id="Logo"
   width="200"
   height="100"
   viewBox="0 0 200 99.999999"
   version="1.1"
   sodipodi:docname="bluepanda_logo.svg"
   inkscape:version="1.1.2 (b8e25be833, 2022-02-05)"
   xmlns:inkscape="http://www.inkscape.org/namespaces/inkscape"
   xmlns:sodipodi="http://sodipodi.sourceforge.net/DTD/sodipodi-0.dtd"
   xmlns="http://www.w3.org/2000/svg"
   xmlns:svg="http://www.w3.org/2000/svg">
  <defs
     id="defs18" />
  <sodipodi:namedview
     id="namedview16"
     pagecolor="#ffffff"
     bordercolor="#666666"
     borderopacity="1.0"
     inkscape:pageshadow="2"
     inkscape:pageopacity="0.0"
     inkscape:pagecheckerboard="0"
     showgrid="false"
     inkscape:zoom="2.3378718"
     inkscape:cx="-3.2080459"
     inkscape:cy="50.900995"
     inkscape:window-width="1920"
     inkscape:window-height="1027"
     inkscape:window-x="-8"
     inkscape:window-y="-8"
     inkscape:window-maximized="1"
     inkscape:current-layer="Logo" />
  <g
     id="Group_217"
     data-name="Group 217"
     style="fill:#1a1a1a"
     transform="matrix(1.20495,0,0,1.20495,3.6097113,30.827568)">
    <g
       id="Group_214"
       data-name="Group 214"
       transform="translate(67.764)"
       style="fill:#1a1a1a">
      <path
         id="Path_1318"
         data-name="Path 1318"
         d="m 1124.777,-355.887 v -13.581 a 13.186,13.186 0 0 1 0.409,-3.489 7.373,7.373 0 0 1 1.163,-2.483 7.621,7.621 0 0 1 3.05,-2.389 10.1,10.1 0 0 1 4.119,-0.817 9.481,9.481 0 0 1 3.442,0.613 8.321,8.321 0 0 1 2.751,1.713 7.771,7.771 0 0 1 1.823,2.672 8.846,8.846 0 0 1 0.66,3.458 9.29,9.29 0 0 1 -0.613,3.458 8.093,8.093 0 0 1 -1.667,2.641 7.307,7.307 0 0 1 -2.468,1.7 7.676,7.676 0 0 1 -3.018,0.6 6.727,6.727 0 0 1 -2.908,-0.55 6.272,6.272 0 0 1 -1.713,-1.116 v 7.577 z m 8.614,-10.469 a 3.409,3.409 0 0 0 2.594,-1.085 3.9,3.9 0 0 0 1.022,-2.782 3.731,3.731 0 0 0 -1.022,-2.735 3.487,3.487 0 0 0 -2.594,-1.037 3.543,3.543 0 0 0 -2.593,1.006 3.706,3.706 0 0 0 -1.022,2.766 4.271,4.271 0 0 0 0.267,1.525 3.643,3.643 0 0 0 0.755,1.226 3.582,3.582 0 0 0 1.147,0.817 3.459,3.459 0 0 0 1.446,0.299 z"
         transform="translate(-1124.777,385.574)"
         fill="#fff"
         style="fill:#1a1a1a" />
      <path
         id="Path_1319"
         data-name="Path 1319"
         d="m 1223,-362.269 a 5.462,5.462 0 0 1 -0.849,0.141 q -0.66,0.078 -1.65,0.173 -0.99,0.095 -2.263,0.157 -1.273,0.063 -2.688,0.063 a 15.507,15.507 0 0 1 -3.961,-0.425 7.186,7.186 0 0 1 -2.515,-1.147 3.937,3.937 0 0 1 -1.32,-1.682 5.484,5.484 0 0 1 -0.377,-2.028 4.605,4.605 0 0 1 1.855,-4.134 q 1.854,-1.241 5.879,-1.242 1.006,0 1.682,0.032 0.676,0.032 1.116,0.094 a 2,2 0 0 0 -0.9,-1.729 5.331,5.331 0 0 0 -2.971,-0.629 11.766,11.766 0 0 0 -1.713,0.11 9,9 0 0 0 -1.257,0.267 5.489,5.489 0 0 0 -0.833,0.314 3.171,3.171 0 0 0 -0.44,0.252 l -0.252,-0.252 a 2.8,2.8 0 0 1 -0.377,-0.487 4.508,4.508 0 0 1 -0.346,-0.676 2.1,2.1 0 0 1 -0.157,-0.817 q 0,-2.735 5.6,-2.735 a 16.966,16.966 0 0 1 3.427,0.33 7.62,7.62 0 0 1 2.782,1.132 5.608,5.608 0 0 1 1.855,2.122 7.208,7.208 0 0 1 0.676,3.3 z m -5.062,-6.571 a 6.841,6.841 0 0 0 -0.833,-0.11 q -0.55,-0.047 -1.65,-0.047 a 6.219,6.219 0 0 0 -1.54,0.157 2.481,2.481 0 0 0 -0.928,0.425 1.407,1.407 0 0 0 -0.456,0.613 2.1,2.1 0 0 0 -0.126,0.723 2.083,2.083 0 0 0 0.094,0.6 1.152,1.152 0 0 0 0.409,0.566 2.628,2.628 0 0 0 0.943,0.425 6.483,6.483 0 0 0 1.666,0.173 q 0.817,0 1.509,-0.047 a 5.445,5.445 0 0 0 0.911,-0.11 z"
         transform="translate(-1187.92,385.574)"
         fill="#fff"
         style="fill:#1a1a1a" />
      <path
         id="Path_1320"
         data-name="Path 1320"
         d="m 1286.377,-371.889 a 6.48,6.48 0 0 1 0.629,-2.908 5.988,5.988 0 0 1 1.729,-2.122 7.88,7.88 0 0 1 2.546,-1.289 10.639,10.639 0 0 1 3.112,-0.44 10.692,10.692 0 0 1 3.1,0.44 7.676,7.676 0 0 1 2.546,1.289 6.068,6.068 0 0 1 1.713,2.122 6.49,6.49 0 0 1 0.629,2.908 v 10.089 h -5.062 v -8.924 a 3.5,3.5 0 0 0 -0.755,-2.468 2.835,2.835 0 0 0 -2.169,-0.8 q -2.956,0 -2.955,3.27 v 8.924 h -5.062 z"
         transform="translate(-1248.307,385.574)"
         fill="#fff"
         style="fill:#1a1a1a" />
      <path
         id="Path_1321"
         data-name="Path 1321"
         d="m 1383.726,-393.387 a 13.2,13.2 0 0 1 -0.409,3.49 7.367,7.367 0 0 1 -1.163,2.483 7.62,7.62 0 0 1 -3.049,2.39 10.109,10.109 0 0 1 -4.118,0.817 9.467,9.467 0 0 1 -3.443,-0.613 8.3,8.3 0 0 1 -2.751,-1.713 7.758,7.758 0 0 1 -1.823,-2.672 8.84,8.84 0 0 1 -0.66,-3.458 9.4,9.4 0 0 1 0.613,-3.474 8.057,8.057 0 0 1 1.666,-2.656 7.515,7.515 0 0 1 2.468,-1.713 7.511,7.511 0 0 1 3.018,-0.613 6.417,6.417 0 0 1 2.908,0.582 6.8,6.8 0 0 1 1.713,1.148 v -6.423 a 1.957,1.957 0 0 1 0.723,-1.729 3.3,3.3 0 0 1 1.918,-0.5 5.275,5.275 0 0 1 1.525,0.2 q 0.675,0.2 0.864,0.267 z m -8.614,4.527 a 3.541,3.541 0 0 0 2.594,-1.006 3.7,3.7 0 0 0 1.022,-2.766 4.285,4.285 0 0 0 -0.267,-1.525 3.658,3.658 0 0 0 -0.755,-1.226 3.592,3.592 0 0 0 -1.147,-0.817 3.469,3.469 0 0 0 -1.446,-0.3 3.407,3.407 0 0 0 -2.594,1.085 3.893,3.893 0 0 0 -1.022,2.782 3.728,3.728 0 0 0 1.022,2.735 3.485,3.485 0 0 0 2.594,1.037 z"
         transform="translate(-1309.409,408.047)"
         fill="#fff"
         style="fill:#1a1a1a" />
      <path
         id="Path_1322"
         data-name="Path 1322"
         d="m 1465.6,-362.269 a 5.465,5.465 0 0 1 -0.849,0.141 q -0.66,0.078 -1.651,0.173 -0.991,0.095 -2.263,0.157 -1.274,0.063 -2.688,0.063 a 15.507,15.507 0 0 1 -3.961,-0.425 7.184,7.184 0 0 1 -2.515,-1.147 3.938,3.938 0 0 1 -1.32,-1.682 5.484,5.484 0 0 1 -0.377,-2.028 4.606,4.606 0 0 1 1.855,-4.134 q 1.854,-1.241 5.879,-1.242 1.006,0 1.682,0.032 0.676,0.032 1.116,0.094 a 2,2 0 0 0 -0.9,-1.729 5.33,5.33 0 0 0 -2.971,-0.629 11.766,11.766 0 0 0 -1.713,0.11 9.005,9.005 0 0 0 -1.258,0.267 5.5,5.5 0 0 0 -0.833,0.314 3.172,3.172 0 0 0 -0.44,0.252 l -0.252,-0.252 a 2.8,2.8 0 0 1 -0.377,-0.487 4.52,4.52 0 0 1 -0.346,-0.676 2.1,2.1 0 0 1 -0.157,-0.817 q 0,-2.735 5.6,-2.735 a 16.965,16.965 0 0 1 3.427,0.33 7.618,7.618 0 0 1 2.782,1.132 5.605,5.605 0 0 1 1.855,2.122 7.208,7.208 0 0 1 0.676,3.3 z m -5.062,-6.571 a 6.844,6.844 0 0 0 -0.833,-0.11 q -0.55,-0.047 -1.65,-0.047 a 6.223,6.223 0 0 0 -1.541,0.157 2.482,2.482 0 0 0 -0.927,0.425 1.409,1.409 0 0 0 -0.456,0.613 2.1,2.1 0 0 0 -0.125,0.723 2.082,2.082 0 0 0 0.094,0.6 1.15,1.15 0 0 0 0.409,0.566 2.627,2.627 0 0 0 0.943,0.425 6.482,6.482 0 0 0 1.666,0.173 q 0.817,0 1.509,-0.047 a 5.443,5.443 0 0 0 0.911,-0.11 z"
         transform="translate(-1373.368,385.574)"
         fill="#fff"
         style="fill:#1a1a1a" />
    </g>
    <g
       id="Group_215"
       data-name="Group 215"
       transform="translate(19.914)"
       style="fill:#1a1a1a">
      <path
         id="Path_1323"
         data-name="Path 1323"
         d="m 921.663,-405.816 a 1.957,1.957 0 0 1 0.723,-1.729 3.3,3.3 0 0 1 1.918,-0.5 5.428,5.428 0 0 1 1.541,0.2 q 0.691,0.2 0.88,0.267 v 23.3 h -5.061 z"
         transform="translate(-921.663,408.048)"
         fill="#fff"
         style="fill:#1a1a1a" />
    </g>
    <path
       id="Path_1324"
       data-name="Path 1324"
       d="m 963.554,-369.719 q 0,3.27 2.955,3.269 2.955,-0.001 2.955,-3.269 v -6.781 a 1.957,1.957 0 0 1 0.723,-1.729 3.3,3.3 0 0 1 1.918,-0.5 5.43,5.43 0 0 1 1.541,0.2 q 0.691,0.2 0.88,0.267 v 9.482 a 7.144,7.144 0 0 1 -0.613,3.065 6.062,6.062 0 0 1 -1.682,2.169 7.315,7.315 0 0 1 -2.547,1.3 11.086,11.086 0 0 1 -3.175,0.44 11.086,11.086 0 0 1 -3.175,-0.44 7.306,7.306 0 0 1 -2.546,-1.3 6.054,6.054 0 0 1 -1.682,-2.169 7.144,7.144 0 0 1 -0.613,-3.065 v -7.72 a 1.957,1.957 0 0 1 0.723,-1.729 3.3,3.3 0 0 1 1.918,-0.5 5.432,5.432 0 0 1 1.54,0.2 q 0.691,0.2 0.88,0.267 z"
       transform="translate(-929.902,385.637)"
       fill="#fff"
       style="fill:#1a1a1a" />
    <path
       id="Path_1325"
       data-name="Path 1325"
       d="m 1049.54,-368.431 a 8.635,8.635 0 0 0 2.861,-0.99 3.54,3.54 0 0 0 1.462,-1.572 5.137,5.137 0 0 0 0.409,-2.091 4.71,4.71 0 0 0 -0.487,-2.075 5.481,5.481 0 0 0 -1.415,-1.792 6.9,6.9 0 0 0 -2.279,-1.242 9.522,9.522 0 0 0 -3.05,-0.456 9.26,9.26 0 0 0 -3.4,0.613 8.341,8.341 0 0 0 -2.735,1.713 7.77,7.77 0 0 0 -1.823,2.672 8.844,8.844 0 0 0 -0.66,3.458 9.182,9.182 0 0 0 0.66,3.584 7.7,7.7 0 0 0 1.807,2.657 7.759,7.759 0 0 0 2.688,1.65 9.495,9.495 0 0 0 3.3,0.566 15.242,15.242 0 0 0 2.594,-0.2 15.442,15.442 0 0 0 2.059,-0.487 11.351,11.351 0 0 0 1.462,-0.566 q 0.575,-0.28 0.827,-0.436 h 0.015 q 0.01,-0.157 0.021,-0.725 a 3.264,3.264 0 0 0 -0.211,-1.18 2.1,2.1 0 0 0 -0.975,-1.209 2.254,2.254 0 0 0 -1.815,0.07 l -0.365,0.133 q -0.434,0.114 -0.971,0.219 a 8.025,8.025 0 0 1 -1.541,0.142 7.609,7.609 0 0 1 -1.823,-0.189 4.138,4.138 0 0 1 -1.242,-0.5 2.815,2.815 0 0 1 -0.755,-0.676 1.712,1.712 0 0 1 -0.33,-0.739 h 1.1 a 25.207,25.207 0 0 0 4.612,-0.352 z m -5.957,-2.924 a 4.271,4.271 0 0 1 0.251,-1.242 3.233,3.233 0 0 1 0.644,-1.085 3.309,3.309 0 0 1 1.053,-0.77 3.411,3.411 0 0 1 1.478,-0.3 2.793,2.793 0 0 1 1.792,0.487 1.448,1.448 0 0 1 0.6,1.148 1.684,1.684 0 0 1 -0.126,0.629 1.228,1.228 0 0 1 -0.692,0.566 6.726,6.726 0 0 1 -1.729,0.409 25.924,25.924 0 0 1 -3.271,0.158 z"
       transform="translate(-991.005,385.574)"
       fill="#fff"
       style="fill:#1a1a1a" />
    <g
       id="Group_216"
       data-name="Group 216"
       transform="translate(0,0.172)"
       style="fill:#1a1a1a">
      <path
         id="Path_1326"
         data-name="Path 1326"
         d="m 837.13,-405.053 a 1.984,1.984 0 0 1 0.734,-1.754 3.345,3.345 0 0 1 1.945,-0.51 5.348,5.348 0 0 1 1.547,0.207 q 0.685,0.208 0.877,0.271 v 8.069 a 6.9,6.9 0 0 1 1.738,-1.164 6.507,6.507 0 0 1 2.95,-0.59 7.618,7.618 0 0 1 3.062,0.622 7.634,7.634 0 0 1 2.5,1.738 8.194,8.194 0 0 1 1.691,2.7 9.547,9.547 0 0 1 0.622,3.524 8.968,8.968 0 0 1 -0.67,3.508 7.875,7.875 0 0 1 -1.85,2.711 8.431,8.431 0 0 1 -2.791,1.738 9.612,9.612 0 0 1 -3.492,0.622 10.251,10.251 0 0 1 -4.178,-0.829 7.723,7.723 0 0 1 -3.094,-2.424 7.463,7.463 0 0 1 -1.18,-2.52 13.355,13.355 0 0 1 -0.415,-3.54 z m 8.739,16.967 a 3.536,3.536 0 0 0 2.631,-1.053 3.784,3.784 0 0 0 1.037,-2.774 3.953,3.953 0 0 0 -1.037,-2.823 3.459,3.459 0 0 0 -2.631,-1.1 3.517,3.517 0 0 0 -1.467,0.3 3.637,3.637 0 0 0 -1.164,0.829 3.7,3.7 0 0 0 -0.765,1.244 4.335,4.335 0 0 0 -0.271,1.547 3.758,3.758 0 0 0 1.036,2.807 3.594,3.594 0 0 0 2.631,1.023 z"
         transform="translate(-837.13,407.317)"
         fill="#fff"
         style="fill:#1a1a1a" />
    </g>
  </g>
</svg>
