<?xml version="1.0" encoding="UTF-8"?>
<svg xmlns="http://www.w3.org/2000/svg" xmlns:xlink="http://www.w3.org/1999/xlink" width="200px" height="100px" viewBox="0 0 285 100" version="1.1">
<g id="surface1">
<path style=" stroke:none;fill-rule:nonzero;fill:rgb(0%,0%,0%);fill-opacity:1;" d="M 163.75 57.726562 C 152.316406 57.726562 142.785156 67.136719 142.785156 78.914062 C 142.785156 90.007812 151.773438 99.886719 163.835938 99.886719 C 172.246094 99.886719 177.570312 94.871094 179.277344 92.980469 L 176.371094 90.117188 C 175.390625 91.292969 171.148438 95.800781 163.835938 95.800781 C 153.984375 95.800781 146.863281 87.804688 146.863281 78.914062 C 146.863281 69.339844 154.542969 61.816406 163.75 61.816406 C 171.601562 61.816406 175.6875 66.699219 175.6875 66.699219 C 176.425781 67.535156 177.691406 67.621094 178.539062 66.898438 C 179.386719 66.171875 179.496094 64.902344 178.789062 64.039062 C 178.789062 64.039062 173.339844 57.726562 163.75 57.726562 Z M 21.03125 57.726562 C 9.601562 57.726562 0.0664062 67.136719 0.0664062 78.914062 C 0.0664062 90.007812 9.054688 99.886719 21.121094 99.886719 C 29.53125 99.886719 34.851562 94.871094 36.558594 92.980469 L 33.652344 90.117188 C 32.671875 91.292969 28.429688 95.800781 21.121094 95.800781 C 11.265625 95.800781 4.144531 87.804688 4.144531 78.914062 C 4.144531 69.339844 11.824219 61.816406 21.03125 61.816406 C 28.882812 61.816406 32.96875 66.699219 32.96875 66.699219 C 33.710938 67.523438 34.96875 67.605469 35.8125 66.882812 C 36.652344 66.164062 36.769531 64.902344 36.070312 64.039062 C 36.070312 64.039062 30.625 57.726562 21.03125 57.726562 Z M 64.277344 57.695312 C 53.84375 57.695312 43.246094 65.925781 43.246094 78.964844 C 43.246094 90.839844 53.027344 99.875 64.4375 99.875 C 77.488281 99.875 85.296875 88.777344 85.296875 78.816406 C 85.296875 67.890625 76.4375 57.695312 64.277344 57.695312 Z M 64.277344 61.785156 C 74.160156 61.785156 81.214844 70.105469 81.214844 78.816406 C 81.214844 86.648438 75.183594 95.785156 64.4375 95.785156 C 55.15625 95.785156 47.324219 88.601562 47.324219 78.964844 C 47.324219 68.128906 55.949219 61.785156 64.277344 61.785156 Z M 128.085938 57.667969 C 127.292969 57.679688 126.578125 58.167969 126.28125 58.90625 L 114.015625 89.046875 L 101.769531 58.914062 C 101.433594 58.101562 100.605469 57.605469 99.734375 57.695312 C 98.863281 57.785156 98.152344 58.4375 97.988281 59.304688 L 90.960938 97.609375 C 90.761719 98.6875 91.476562 99.722656 92.550781 99.917969 C 93.628906 100.117188 94.660156 99.402344 94.855469 98.324219 L 100.660156 66.710938 L 112.183594 95.0625 C 112.484375 95.808594 113.210938 96.300781 114.019531 96.300781 C 114.824219 96.300781 115.550781 95.808594 115.851562 95.0625 L 127.386719 66.683594 L 133.453125 99.652344 L 137.488281 99.652344 L 130.0625 59.292969 C 129.886719 58.339844 129.054688 57.65625 128.085938 57.667969 Z M 202.9375 57.625 C 202.148438 57.636719 201.441406 58.121094 201.140625 58.855469 L 185.535156 97.246094 C 185.117188 98.261719 185.605469 99.421875 186.617188 99.835938 C 187.632812 100.253906 188.789062 99.765625 189.203125 98.75 L 202.972656 64.867188 L 217.125 99.667969 L 221.40625 99.667969 L 204.808594 58.855469 C 204.5 58.097656 203.757812 57.605469 202.9375 57.625 Z M 202.9375 57.625 "/>
<path style=" stroke:none;fill-rule:nonzero;fill:rgb(0%,0%,0%);fill-opacity:1;" d="M 193.742188 80.03125 L 193.742188 84.117188 L 211.449219 84.117188 L 211.449219 80.03125 Z M 239.898438 57.753906 C 236.980469 57.753906 234.058594 58.492188 231.734375 60.199219 C 229.410156 61.910156 227.792969 64.722656 227.792969 68.164062 C 227.792969 71.164062 228.90625 73.617188 230.785156 75.328125 C 232.667969 77.039062 235.085938 78.199219 238.105469 79.761719 L 238.136719 79.773438 C 241.203125 81.292969 243.90625 82.519531 245.636719 83.871094 C 247.367188 85.21875 248.171875 86.402344 248.171875 88.722656 C 248.171875 90.984375 247.300781 92.625 245.882812 93.84375 C 244.464844 95.058594 242.433594 95.792969 240.226562 95.792969 C 234.980469 95.792969 231.050781 92.382812 229.664062 90.996094 L 226.652344 93.753906 C 228.367188 95.535156 233.265625 99.878906 240.226562 99.878906 C 243.320312 99.878906 246.289062 98.878906 248.535156 96.953125 C 250.78125 95.027344 252.25 92.117188 252.25 88.722656 C 252.25 85.203125 250.488281 82.480469 248.140625 80.652344 C 245.800781 78.824219 242.929688 77.589844 239.96875 76.125 L 239.941406 76.109375 C 236.910156 74.542969 234.734375 73.398438 233.53125 72.304688 C 232.328125 71.207031 231.871094 70.335938 231.871094 68.164062 C 231.871094 65.90625 232.726562 64.539062 234.152344 63.492188 C 235.574219 62.445312 237.683594 61.84375 239.898438 61.84375 C 243.828125 61.84375 247.152344 63.996094 247.152344 63.996094 C 247.753906 64.449219 248.558594 64.53125 249.242188 64.210938 C 249.925781 63.886719 250.375 63.214844 250.410156 62.457031 C 250.445312 61.703125 250.0625 60.988281 249.414062 60.601562 C 249.414062 60.601562 245.28125 57.753906 239.898438 57.753906 Z M 259.347656 57.964844 C 258.222656 57.964844 257.308594 58.882812 257.308594 60.011719 C 257.308594 61.140625 258.222656 62.054688 259.347656 62.054688 L 282.867188 62.054688 C 283.992188 62.070312 284.917969 61.167969 284.933594 60.039062 C 284.949219 58.910156 284.050781 57.980469 282.921875 57.964844 Z M 259.347656 57.964844 "/>
<path style=" stroke:none;fill-rule:nonzero;fill:rgb(0%,0%,0%);fill-opacity:1;" d="M 269.21875 60.535156 L 269.21875 99.660156 L 273.0625 99.660156 L 273.0625 60.535156 Z M 269.21875 60.535156 "/>
<path style=" stroke:none;fill-rule:nonzero;fill:rgb(95.294118%,43.921569%,12.941176%);fill-opacity:1;" d="M 114.523438 11.902344 C 111.484375 14.652344 110.378906 20.882812 115.855469 24.527344 L 137.703125 39.515625 L 127.109375 15.246094 C 124.890625 9.519531 118.816406 8.269531 114.523438 11.902344 "/>
<path style=" stroke:none;fill-rule:nonzero;fill:rgb(80%,0%,29.803922%);fill-opacity:1;" d="M 133.328125 0.101562 C 129.777344 0.171875 124.445312 4.402344 126.816406 10.863281 L 137.773438 36.703125 L 141.621094 9.523438 C 142.515625 2.769531 137.402344 -0.347656 133.328125 0.101562 "/>
<path style=" stroke:none;fill-rule:nonzero;fill:rgb(39.215686%,37.647059%,66.666667%);fill-opacity:1;" d="M 143.332031 8.488281 L 145.402344 8.488281 C 145.402344 8.488281 146.511719 8.488281 146.660156 9.007812 C 145.847656 9.675781 143.625 9.757812 143.921875 13.3125 L 147.40625 36.699219 L 158.285156 10.789062 C 160.511719 5.003906 155.839844 0.171875 151.695312 0.0234375 C 151.5 0.0078125 151.304688 0 151.105469 0 C 147.386719 0 143.121094 2.703125 143.332031 8.488281 "/>
<path style=" stroke:none;fill-rule:nonzero;fill:rgb(0%,53.72549%,81.568627%);fill-opacity:1;" d="M 157.847656 15.464844 L 147.554688 39.445312 L 169.398438 24.375 C 174.429688 20.804688 173.617188 15.09375 170.800781 12.273438 C 169.621094 10.945312 167.449219 9.917969 165.152344 9.917969 C 162.4375 9.917969 159.53125 11.359375 157.847656 15.464844 "/>
<path style=" stroke:none;fill-rule:nonzero;fill:rgb(5.098039%,69.411765%,29.411765%);fill-opacity:1;" d="M 166.953125 27.789062 L 146.441406 42.117188 L 171.695312 42.117188 C 176.878906 42.117188 180.207031 36.773438 178.726562 31.871094 C 177.734375 28.789062 174.800781 26.371094 171.394531 26.367188 C 169.964844 26.367188 168.445312 26.800781 166.953125 27.789062 "/>
<path style=" stroke:none;fill-rule:nonzero;fill:rgb(98.823529%,71.764706%,6.666667%);fill-opacity:1;" d="M 113.933594 42.117188 L 138.816406 42.117188 L 118.300781 27.789062 C 113.558594 24.742188 108.230469 26.523438 106.304688 31.578125 C 104.675781 37.363281 108.746094 42.117188 113.933594 42.117188 "/>
</g>
</svg>
