<?xml version="1.0" encoding="UTF-8"?>
<svg xmlns="http://www.w3.org/2000/svg" xmlns:xlink="http://www.w3.org/1999/xlink" width="200px" height="100px" viewBox="0 0 150 100" version="1.1">
<g id="surface1">
<path style=" stroke:none;fill-rule:nonzero;fill:rgb(88.627451%,0%,47.843137%);fill-opacity:1;" d="M 121.179688 47.746094 L 132.691406 47.746094 L 132.691406 59.257812 L 121.179688 59.257812 Z M 86.644531 47.746094 L 98.15625 47.746094 L 98.15625 59.257812 L 86.644531 59.257812 Z M 52.109375 47.746094 L 63.621094 47.746094 L 63.621094 59.257812 L 52.109375 59.257812 Z M 44.78125 66.214844 C 44.78125 69.867188 45.316406 72.238281 46.386719 73.332031 C 47.289062 74.261719 48.832031 74.835938 50.992188 75.050781 C 51.632812 75.105469 52.730469 75.128906 54.28125 75.128906 L 54.28125 78.328125 L 26.542969 78.328125 L 26.542969 75.128906 C 28.773438 75.128906 30.414062 75.023438 31.476562 74.808594 C 33.625 74.355469 34.980469 73.105469 35.535156 71.050781 C 35.824219 69.988281 35.972656 68.375 35.972656 66.214844 L 35.972656 24.390625 C 31.265625 24.523438 27.585938 26.082031 24.929688 29.070312 C 22.40625 31.925781 20.867188 36.300781 20.304688 42.191406 L 17.308594 41.675781 L 17.867188 21.671875 L 62.960938 21.671875 L 63.519531 41.675781 L 60.519531 42.191406 C 59.960938 36.300781 58.40625 31.925781 55.875 29.070312 C 53.203125 26.082031 49.503906 24.523438 44.78125 24.390625 Z M 17.363281 47.746094 L 28.875 47.746094 L 28.875 59.257812 L 17.363281 59.257812 Z M 17.363281 47.746094 "/>
</g>
</svg>
