<?xml version="1.0" encoding="UTF-8"?>
<svg xmlns="http://www.w3.org/2000/svg" xmlns:xlink="http://www.w3.org/1999/xlink" width="200px" height="100px" viewBox="0 0 400 100" version="1.1">
<g id="surface1">
<path style=" stroke:none;fill-rule:evenodd;fill:rgb(93.333333%,0%,0%);fill-opacity:1;" d="M 336.957031 100 L 339.039062 100 L 339.039062 90.355469 L 339.074219 90.355469 L 342.539062 100 L 344.339844 100 L 347.804688 90.355469 L 347.839844 90.355469 L 347.839844 100 L 349.925781 100 L 349.925781 87.503906 L 346.878906 87.503906 L 343.519531 97.289062 L 343.484375 97.289062 L 340.039062 87.503906 L 336.957031 87.503906 Z M 325.425781 89.394531 L 329.378906 89.394531 L 329.378906 100 L 331.566406 100 L 331.566406 89.394531 L 335.539062 89.394531 L 335.539062 87.503906 L 325.425781 87.503906 Z M 300 100 L 400 0 L 339.8125 0 L 239.8125 100 Z M 285.664062 43.550781 L 164.605469 43.550781 C 127.710938 43.550781 121.257812 45.507812 105.453125 61.308594 C 90.675781 76.085938 66.667969 100 66.667969 100 L 119.109375 100 L 131.617188 87.488281 C 139.84375 79.265625 144.085938 78.414062 161.355469 78.414062 L 250.800781 78.414062 Z M 103.839844 54.175781 C 92.925781 64.476562 69.175781 87.542969 56.375 100 L 0 100 C 0 100 45.175781 54.957031 70.28125 30.242188 C 96.152344 5.617188 109.046875 0 156.496094 0 L 329.214844 0 L 291.816406 37.394531 L 160.003906 37.394531 C 126.664062 37.394531 119.171875 39.707031 103.839844 54.175781 Z M 103.839844 54.175781 "/>
</g>
</svg>
