<?xml version="1.0" encoding="UTF-8" standalone="no"?>
<!-- Generator: Adobe Illustrator 24.1.0, SVG Export Plug-In . SVG Version: 6.00 Build 0)  -->

<svg
   version="1.1"
   id="MS-symbol"
   x="0px"
   y="0px"
   viewBox="0 0 200 100"
   xml:space="preserve"
   sodipodi:docname="microsoft.svg"
   width="200"
   height="100"
   inkscape:version="1.1.2 (b8e25be833, 2022-02-05)"
   xmlns:inkscape="http://www.inkscape.org/namespaces/inkscape"
   xmlns:sodipodi="http://sodipodi.sourceforge.net/DTD/sodipodi-0.dtd"
   xmlns="http://www.w3.org/2000/svg"
   xmlns:svg="http://www.w3.org/2000/svg"><defs
   id="defs19" /><sodipodi:namedview
   id="namedview17"
   pagecolor="#ffffff"
   bordercolor="#666666"
   borderopacity="1.0"
   inkscape:pageshadow="2"
   inkscape:pageopacity="0.0"
   inkscape:pagecheckerboard="0"
   showgrid="false"
   width="200px"
   inkscape:zoom="3.1338862"
   inkscape:cx="168.64046"
   inkscape:cy="36.057468"
   inkscape:window-width="1920"
   inkscape:window-height="1027"
   inkscape:window-x="-8"
   inkscape:window-y="-8"
   inkscape:window-maximized="1"
   inkscape:current-layer="MS-symbol" />
<style
   type="text/css"
   id="style2">
	.st0{fill:#737373;}
	.st1{fill:#F25022;}
	.st2{fill:#7FBA00;}
	.st3{fill:#00A4EF;}
	.st4{fill:#FFB900;}
</style>

<g
   id="g27"
   transform="matrix(0.58884687,0,0,0.58884687,0.60264834,28.801513)"><path
     class="st0"
     d="m 140.4,14.4 v 43.2 h -7.5 V 23.7 h -0.1 l -13.4,33.9 h -5 L 100.7,23.7 h -0.1 V 57.6 H 93.7 V 14.4 h 10.8 l 12.4,32 h 0.2 l 13.1,-32 z m 6.2,3.3 c 0,-1.2 0.4,-2.2 1.3,-3 0.9,-0.8 1.9,-1.2 3.1,-1.2 1.3,0 2.4,0.4 3.2,1.2 0.8,0.8 1.3,1.8 1.3,3 0,1.2 -0.4,2.2 -1.3,3 -0.9,0.8 -1.9,1.2 -3.2,1.2 -1.3,0 -2.3,-0.4 -3.1,-1.2 -0.8,-0.9 -1.3,-1.9 -1.3,-3 z m 8.1,8.9 v 31 h -7.3 v -31 z m 22.1,25.7 c 1.1,0 2.3,-0.2 3.6,-0.8 1.3,-0.5 2.5,-1.2 3.6,-2 v 6.8 c -1.2,0.7 -2.5,1.2 -4,1.5 -1.5,0.3 -3.1,0.5 -4.9,0.5 -4.6,0 -8.3,-1.4 -11.1,-4.3 -2.9,-2.9 -4.3,-6.6 -4.3,-11 0,-5 1.5,-9.1 4.4,-12.3 2.9,-3.2 7,-4.8 12.4,-4.8 1.4,0 2.8,0.2 4.1,0.5 1.4,0.3 2.5,0.8 3.3,1.2 v 7 c -1.1,-0.8 -2.3,-1.5 -3.4,-1.9 -1.2,-0.4 -2.4,-0.7 -3.6,-0.7 -2.9,0 -5.2,0.9 -7,2.8 -1.8,1.9 -2.6,4.4 -2.6,7.6 0,3.1 0.9,5.6 2.6,7.3 1.7,1.7 4,2.6 6.9,2.6 z m 27.9,-26.2 c 0.6,0 1.1,0 1.6,0.1 0.5,0.1 0.9,0.2 1.2,0.3 v 7.4 c -0.4,-0.3 -0.9,-0.6 -1.7,-0.8 -0.8,-0.2 -1.6,-0.4 -2.7,-0.4 -1.8,0 -3.3,0.8 -4.5,2.3 -1.2,1.5 -1.9,3.8 -1.9,7 v 15.6 h -7.3 v -31 h 7.3 v 4.9 h 0.1 c 0.7,-1.7 1.7,-3 3,-4 1.4,-0.9 3,-1.4 4.9,-1.4 z m 3.2,16.5 c 0,-5.1 1.5,-9.2 4.3,-12.2 2.9,-3 6.9,-4.5 12,-4.5 4.8,0 8.6,1.4 11.3,4.3 2.7,2.9 4.1,6.8 4.1,11.7 0,5 -1.5,9 -4.3,12 -2.9,3 -6.8,4.5 -11.8,4.5 -4.8,0 -8.6,-1.4 -11.4,-4.2 -2.8,-2.9 -4.2,-6.8 -4.2,-11.6 z m 7.6,-0.3 c 0,3.2 0.7,5.7 2.2,7.4 1.5,1.7 3.6,2.6 6.3,2.6 2.6,0 4.7,-0.8 6.1,-2.6 1.4,-1.7 2.1,-4.2 2.1,-7.6 0,-3.3 -0.7,-5.8 -2.1,-7.6 -1.4,-1.7 -3.5,-2.6 -6,-2.6 -2.7,0 -4.7,0.9 -6.2,2.7 -1.7,1.9 -2.4,4.4 -2.4,7.7 z m 35,-7.5 c 0,1 0.3,1.9 1,2.5 0.7,0.6 2.1,1.3 4.4,2.2 2.9,1.2 5,2.5 6.1,3.9 1.2,1.5 1.8,3.2 1.8,5.3 0,2.9 -1.1,5.2 -3.4,7 -2.2,1.8 -5.3,2.6 -9.1,2.6 -1.3,0 -2.7,-0.2 -4.3,-0.5 -1.6,-0.3 -2.9,-0.7 -4,-1.2 v -7.2 c 1.3,0.9 2.8,1.7 4.3,2.2 1.5,0.5 2.9,0.8 4.2,0.8 1.6,0 2.9,-0.2 3.6,-0.7 0.8,-0.5 1.2,-1.2 1.2,-2.3 0,-1 -0.4,-1.8 -1.2,-2.6 -0.8,-0.7 -2.4,-1.5 -4.6,-2.4 -2.7,-1.1 -4.6,-2.4 -5.7,-3.8 -1.1,-1.4 -1.7,-3.2 -1.7,-5.4 0,-2.8 1.1,-5.1 3.3,-6.9 2.2,-1.8 5.1,-2.7 8.6,-2.7 1.1,0 2.3,0.1 3.6,0.4 1.3,0.3 2.5,0.6 3.4,0.9 V 34 c -1,-0.6 -2.1,-1.2 -3.4,-1.7 -1.3,-0.5 -2.6,-0.7 -3.8,-0.7 -1.4,0 -2.5,0.3 -3.2,0.8 -0.7,0.7 -1.1,1.4 -1.1,2.4 z m 16.4,7.8 c 0,-5.1 1.5,-9.2 4.3,-12.2 2.9,-3 6.9,-4.5 12,-4.5 4.8,0 8.6,1.4 11.3,4.3 2.7,2.9 4.1,6.8 4.1,11.7 0,5 -1.5,9 -4.3,12 -2.9,3 -6.8,4.5 -11.8,4.5 -4.8,0 -8.6,-1.4 -11.4,-4.2 -2.7,-2.9 -4.2,-6.8 -4.2,-11.6 z m 7.6,-0.3 c 0,3.2 0.7,5.7 2.2,7.4 1.5,1.7 3.6,2.6 6.3,2.6 2.6,0 4.7,-0.8 6.1,-2.6 1.4,-1.7 2.1,-4.2 2.1,-7.6 0,-3.3 -0.7,-5.8 -2.1,-7.6 -1.4,-1.7 -3.5,-2.6 -6,-2.6 -2.7,0 -4.7,0.9 -6.2,2.7 -1.6,1.9 -2.4,4.4 -2.4,7.7 z m 48.4,-9.7 H 312 v 25 h -7.4 v -25 h -5.2 v -6 h 5.2 v -4.3 c 0,-3.2 1.1,-5.9 3.2,-8 2.1,-2.1 4.8,-3.1 8.1,-3.1 0.9,0 1.7,0.1 2.4,0.1 0.7,0 1.3,0.2 1.8,0.4 V 18 c -0.2,-0.1 -0.7,-0.3 -1.3,-0.5 -0.6,-0.2 -1.3,-0.3 -2.1,-0.3 -1.5,0 -2.7,0.5 -3.5,1.4 -0.8,0.9 -1.2,2.4 -1.2,4.2 v 3.7 h 10.9 v -7 l 7.3,-2.2 v 9.2 h 7.4 v 6 h -7.4 V 47 c 0,1.9 0.4,3.2 1,4 0.7,0.8 1.8,1.2 3.3,1.2 0.4,0 0.9,-0.1 1.5,-0.3 0.6,-0.2 1.1,-0.4 1.5,-0.7 v 6 c -0.5,0.3 -1.2,0.5 -2.3,0.7 -1.1,0.2 -2.1,0.3 -3.2,0.3 -3.1,0 -5.4,-0.8 -6.9,-2.4 -1.5,-1.6 -2.3,-4.1 -2.3,-7.4 z"
     id="path4" /><g
     id="g14">
	<rect
   class="st1"
   width="34.200001"
   height="34.200001"
   id="rect6"
   x="0"
   y="0" />
	<rect
   x="37.799999"
   class="st2"
   width="34.200001"
   height="34.200001"
   id="rect8"
   y="0" />
	<rect
   y="37.799999"
   class="st3"
   width="34.200001"
   height="34.200001"
   id="rect10"
   x="0" />
	<rect
   x="37.799999"
   y="37.799999"
   class="st4"
   width="34.200001"
   height="34.200001"
   id="rect12" />
</g></g>
</svg>
