<?xml version="1.0" encoding="UTF-8"?>
<svg xmlns="http://www.w3.org/2000/svg" xmlns:xlink="http://www.w3.org/1999/xlink" width="200px" height="100px" viewBox="0 0 353 100" version="1.1">
<g id="surface1">
<path style=" stroke:none;fill-rule:evenodd;fill:rgb(39.607843%,38.431373%,38.431373%);fill-opacity:1;" d="M 86.074219 0.00390625 L 50.847656 0 L 50.847656 8.257812 L 63.6875 8.257812 L 63.6875 35.347656 L 73.214844 35.347656 L 73.210938 8.257812 L 86.074219 8.257812 Z M 86.074219 0.00390625 "/>
<path style=" stroke:none;fill-rule:evenodd;fill:rgb(89.803922%,8.627451%,20.784314%);fill-opacity:1;" d="M 181.878906 59.914062 C 181.878906 56.820312 179.363281 54.335938 176.269531 54.335938 L 163.875 54.335938 C 162.792969 54.335938 162.25 54.878906 161.675781 55.738281 C 161.644531 55.769531 157.980469 61.0625 157.980469 61.0625 L 169.929688 61.0625 C 171.339844 61.125 172.453125 62.289062 172.445312 63.707031 L 172.445312 80.25 L 181.878906 80.25 Z M 148.546875 44.898438 L 157.980469 44.898438 L 157.980469 80.25 L 148.546875 80.25 Z M 230.503906 54.335938 L 203.707031 54.335938 L 203.707031 80.25 L 213.203125 80.25 L 213.203125 61.0625 L 223.972656 61.0625 C 225.4375 61.0625 226.648438 62.238281 226.648438 63.707031 L 226.648438 80.25 L 236.113281 80.25 L 236.113281 59.914062 C 236.113281 56.820312 233.59375 54.335938 230.503906 54.335938 M 96.160156 44.898438 L 50.847656 44.898438 L 50.847656 80.25 L 60.25 80.25 L 60.25 53.15625 L 70.316406 53.15625 C 71.273438 53.15625 72.039062 53.953125 72.039062 54.910156 L 72.039062 80.25 L 81.472656 80.25 L 81.472656 54.910156 C 81.46875 54.445312 81.652344 53.996094 81.984375 53.667969 C 82.3125 53.339844 82.757812 53.15625 83.222656 53.15625 L 90.648438 53.15625 C 92.082031 53.15625 93.261719 54.304688 93.261719 55.738281 L 93.261719 80.25 L 102.660156 80.25 L 102.660156 51.402344 C 102.664062 49.675781 101.980469 48.019531 100.761719 46.800781 C 99.542969 45.582031 97.886719 44.898438 96.160156 44.902344 M 188.09375 62.75 L 188.09375 80.25 L 197.527344 80.25 L 197.527344 54.625 C 197.527344 54.625 193.160156 57.332031 190.070312 59.277344 C 188.890625 60.039062 188.09375 61.316406 188.09375 62.75 M 188.09375 44.867188 L 197.527344 44.867188 L 197.527344 51.402344 L 188.09375 57.648438 Z M 286.558594 54.335938 C 284.199219 54.335938 282.667969 56.152344 282.667969 58.097656 L 282.667969 80.25 L 292.164062 80.25 L 292.164062 63.738281 C 292.164062 62.269531 293.214844 61.027344 294.714844 61.027344 L 301.753906 61.027344 C 302.773438 60.964844 303.636719 60.359375 304.175781 59.5625 C 304.210938 59.53125 307.875 54.335938 307.875 54.335938 Z M 266.992188 44.898438 L 266.992188 73.78125 L 253.320312 73.78125 C 252.367188 73.78125 251.695312 72.949219 251.695312 72.25 L 251.695312 63.707031 L 251.726562 63.707031 C 251.726562 63.003906 252.003906 62.332031 252.5 61.832031 C 252.996094 61.335938 253.671875 61.058594 254.371094 61.0625 L 261.285156 61.0625 C 262.304688 61.0625 263.359375 60.457031 263.804688 59.753906 L 266.992188 54.335938 L 247.808594 54.335938 C 244.75 54.335938 242.230469 56.820312 242.230469 59.914062 L 242.230469 75.59375 C 242.230469 78.59375 244.621094 80.25 246.820312 80.25 L 276.457031 80.25 L 276.457031 44.898438 Z M 335.566406 54.335938 L 313.769531 54.335938 C 312.683594 54.335938 311.699219 54.84375 311.09375 55.675781 L 307.429688 61.0625 L 329.382812 61.0625 C 330.753906 61.125 331.867188 62.304688 331.867188 63.707031 L 331.835938 74 L 315.394531 74 L 315.394531 71.035156 C 315.394531 70.464844 315.871094 69.984375 316.445312 69.984375 L 327.949219 69.984375 L 327.949219 66.160156 C 327.949219 65.238281 327.375 64.726562 326.578125 64.726562 L 310.644531 64.726562 C 308.671875 64.726562 307.109375 66.285156 307.109375 68.234375 L 307.109375 77.636719 C 307.109375 77.699219 307.109375 77.730469 307.140625 77.796875 C 307.363281 79.195312 308.574219 80.25 310.042969 80.25 L 341.140625 80.25 L 341.140625 59.910156 C 341.144531 58.429688 340.558594 57.011719 339.511719 55.964844 C 338.464844 54.917969 337.046875 54.328125 335.566406 54.335938 M 137.109375 54.335938 L 115.3125 54.335938 C 114.261719 54.335938 113.242188 54.84375 112.667969 55.675781 L 108.96875 61.0625 L 130.925781 61.0625 C 132.296875 61.125 133.410156 62.304688 133.410156 63.707031 L 133.410156 74 L 116.9375 74 L 116.9375 71.035156 C 116.9375 70.464844 117.414062 69.984375 117.988281 69.984375 L 129.492188 69.984375 L 129.492188 66.160156 C 129.492188 65.238281 128.917969 64.726562 128.121094 64.726562 L 112.1875 64.726562 C 110.214844 64.726562 108.652344 66.285156 108.652344 68.234375 L 108.652344 77.636719 C 108.652344 77.699219 108.652344 77.730469 108.683594 77.796875 C 108.914062 79.214844 110.144531 80.257812 111.582031 80.25 L 142.683594 80.25 L 142.683594 59.910156 C 142.6875 58.429688 142.101562 57.011719 141.054688 55.964844 C 140.007812 54.917969 138.589844 54.328125 137.109375 54.335938 "/>
<path style=" stroke:none;fill-rule:evenodd;fill:rgb(39.607843%,38.431373%,38.431373%);fill-opacity:1;" d="M 197.523438 15.453125 C 197.523438 12.363281 195.007812 9.878906 191.917969 9.878906 L 179.195312 9.878906 C 178.109375 9.878906 177.570312 10.417969 176.996094 11.277344 C 176.964844 11.308594 173.300781 16.601562 173.300781 16.601562 L 185.574219 16.601562 C 186.988281 16.664062 188.097656 17.832031 188.09375 19.246094 L 188.09375 35.792969 L 197.523438 35.792969 Z M 163.867188 0.441406 L 173.300781 0.441406 L 173.300781 35.789062 L 163.867188 35.789062 Z M 137.691406 26.421875 L 137.722656 26.421875 C 137.722656 27.125 138.003906 27.800781 138.5 28.296875 C 139 28.792969 139.675781 29.070312 140.378906 29.066406 L 158.003906 29.0625 L 158.003906 35.789062 L 133.78125 35.789062 C 130.707031 35.789062 128.179688 33.304688 128.179688 30.214844 L 128.179688 11.035156 L 128.179688 15.011719 C 128.179688 11.921875 130.710938 9.433594 133.78125 9.433594 L 157.945312 9.433594 L 156.460938 13.132812 C 156.144531 13.910156 155.980469 14.574219 155.265625 15.078125 C 154.757812 15.4375 154.324219 15.6875 153.667969 15.6875 L 140.378906 15.6875 C 139.675781 15.683594 139 15.960938 138.5 16.457031 C 138.003906 16.953125 137.722656 17.628906 137.722656 18.332031 L 137.691406 18.332031 Z M 95.367188 35.464844 L 115.546875 35.464844 C 116.597656 35.464844 117.617188 34.957031 118.191406 34.128906 L 121.886719 28.742188 L 101.550781 28.742188 C 100.179688 28.675781 99.0625 27.496094 99.0625 26.09375 L 99.0625 15.800781 L 113.921875 15.800781 L 113.921875 18.765625 C 113.921875 19.335938 113.445312 19.816406 112.871094 19.816406 L 102.984375 19.816406 L 102.984375 23.640625 C 102.984375 24.566406 103.558594 25.074219 104.355469 25.074219 L 118.671875 25.074219 C 120.644531 25.074219 122.207031 23.515625 122.207031 21.570312 L 122.207031 12.164062 C 122.207031 12.101562 122.207031 12.070312 122.175781 12.007812 C 121.945312 10.585938 120.714844 9.542969 119.277344 9.550781 L 89.792969 9.550781 L 89.792969 29.886719 C 89.789062 31.367188 90.375 32.789062 91.421875 33.835938 C 92.46875 34.882812 93.886719 35.46875 95.367188 35.46875 "/>
</g>
</svg>
