<svg xmlns="http://www.w3.org/2000/svg" width="200" height="100" viewBox="0 0 100 100" xmlns:v="https://vecta.io/nano"><style><![CDATA[.B{stroke-miterlimit:2.613}.C{stroke-linecap:round}.D{stroke:rgb(0%,0%,0%)}.E{fill-rule:evenodd}.F{fill:rgb(100%,100%,100%)}.G{stroke-width:.211}.H{fill:rgb(93.333333%,74.117647%,19.215686%)}.I{fill:rgb(0%,0%,0%)}.J{stroke-width:.158}.K{stroke-linejoin:round}.L{stroke-width:.106}.M{fill:rgb(56.078431%,80.392157%,95.686275%)}.N{fill:rgb(62.745098%,44.705882%,12.941176%)}.O{stroke-width:.053}]]></style><path d="M0 0h100v100H0z" class="F"/><g class="B D"><path d="M4.41 50C4.41 24.82 24.82 4.41 50 4.41S95.59 24.82 95.59 50 75.18 95.59 50 95.59 4.41 75.18 4.41 50zm0 0" stroke-width=".316" class="E H"/><path d="M6.066 50C6.066 25.734 25.738 6.066 50 6.066S93.934 25.738 93.934 50 74.262 93.934 50 93.934 6.066 74.266 6.066 50zm0 0" fill="none" class="G"/><g class="E"><g stroke-width=".423"><path d="M7.176 50C7.176 26.348 26.348 7.176 50 7.176S92.824 26.348 92.824 50 73.652 92.824 50 92.824 7.176 73.652 7.176 50zm0 0" class="F"/><path d="M15.605 50c0-18.996 15.398-34.395 34.395-34.395S84.395 31.004 84.395 50 68.996 84.395 50 84.395 15.605 68.996 15.605 50zm0 0" class="H"/></g><g class="G"><path d="M16.652 50c0-18.418 14.93-33.352 33.348-33.352S83.348 31.582 83.348 50 68.418 83.352 50 83.352 16.652 68.418 16.652 50zm0 0" fill="rgb(8.627451%,29.803922%,50.980392%)"/><path d="M41.875 35.914c-1.688-3.691 1.477-3.957 1.477-3.957-1.422-2.531.805-3.375.805-3.375 0-.16.133-.383.344-.594s.727-.199.727-.199c0-1.426 1.371-1.926 1.82-2.004s.668.156.668.156c.242-.141.52.121.52.121.211-.371.711-.91 2.082-.91 1.164 0 1.527.363 1.902.98.422-.266 1.246-.113 1.344.18 0 0 .395-.266.555.316.004.027.449-.344.883.277.305.434.328.988.328.988s.23-.117.504-.117c.289 0 .5.012.656.488v.844s.688.105 1.16.789c1.043 1.508 0 3.695 0 3.695.527.262.844.789.898 1.793s-.898 1.848-.898 1.848c.16.578-.367.789-.367.789 1.266 3.59-7.07 4.117-7.07 4.117s-2.953.422-5.645-.949-2.109-3.008-2.109-3.008c-1.531-.898-.738-2.637-.738-2.637zm0 0" class="F"/></g></g></g><path d="M57.176 15.008l-2.391-.391.027-.156c.75.09.805-.094.902-.699l.668-4.09-.441-.074c-.898-.145-1.148-.027-1.473.836l-.195-.031.277-1.383 4.609.75-.176 1.398-.195-.031c-.027-.93-.23-1.113-1.133-1.258l-.441-.074-.68 4.18c-.09.555-.02.727.664.863zM16.484 63.004c-.215-.594-.371-.652-.93-.48l-3.523 1.07c-.59.18-.641.293-.504.918l-.148.047-.652-2.145c-.582-1.906-.102-3.434 1.68-3.973 1.055-.324 2.801-.168 3.543 2.262l.684 2.254zm-.93-1.367c.27-.082.297-.191.184-.574-.156-.508-.75-2.461-3.062-1.758-.668.203-1.254.59-1.578 1.285-.227.488-.305.996 0 1.996.113.375.266.328.422.281zm-1.168-8.359l.688 4.426-.152.023c-.117-.52-.219-.695-.852-.598l-3.637.57c-.648.098-.668.305-.629.824l-.156.027-.676-4.355 1.168-.207.031.207c-.711.238-.809.469-.668 1.379l.172 1.105c.027.176.043.273.324.23l1.816-.285-.195-1.262c-.113-.73-.324-.781-.918-.781l-.031-.187 1.902-.297.031.188c-.641.203-.738.344-.641 1.023l.18 1.266 2.035-.316c.336-.051.344-.055.152-1.273-.16-1.027-.469-1.398-1.352-1.629l-.035-.23zM8.84 52.48l-.023-2.191c-.012-1.145.414-2.176 1.469-2.187.648-.008.992.355 1.125.492.344.355.5.883.508 1.754l-.016.555 1.508-.012c.605-.008.73-.152.738-.789l.156-.004.027 2.324h-.16c-.055-.695-.246-.691-.844-.687l-3.594.039c-.586.008-.687.098-.738.703zm2.73-1.57l.02-.5c-.004-.309-.016-1.418-1.277-1.406-1.187.012-1.191 1.227-1.187 1.59.004.25.012.34.285.336zm3.285-7.875l-.23 2.098-.156-.016c.035-.305.055-.578-.25-.609-.129-.016-.414.063-.535.098l-.828.254-.234 2.156.922.484a.91.91 0 0 0 .309.098c.344.039.387-.348.406-.52l.156.016-.18 1.633-.156-.02c.008-.133.004-.273-.133-.437-.187-.215-.762-.535-1.105-.73L8.98 45.387l.02-.164 4.902-1.543c.629-.199.73-.305.797-.664zm-2.348 1.902l-2.371.707 2.164 1.195zm3.789-7.062l-.344 1.289-2.98 1.246-.102.453 1.578.422c.535.145.707.105.914-.527l.152.043-.598 2.219-.152-.043c.137-.66-.023-.734-.625-.898l-3.469-.93c-.59-.156-.695-.059-.902.488l-.152-.043.594-2.207c.191-.715.715-1.988 1.945-1.66 1.074.289.988 1.383.957 1.809l2.469-1.105c.266-.117.461-.27.566-.594zm-3.723 2.906c.172-.672.477-1.879-.668-2.187-1.066-.285-1.371.758-1.457 1.086-.113.426-.078.512.152.574zm4.977-5.723l-.918 2.234-.145-.059c.254-.711.086-.805-.48-1.039l-3.828-1.57-.172.414c-.344.844-.285 1.109.48 1.621l-.074.184-1.285-.582 1.773-4.32 1.324.488-.078.184c-.91-.184-1.133-.027-1.48.816l-.168.414 3.914 1.605c.52.215.703.184.992-.449zm-.594-9.637c-.238.465-.297.66.258 1.004l3.137 1.922c.543.332.707.207 1.012-.227l.133.082-1.211 1.977-.137-.082c.313-.566.262-.723-.316-1.078l-3.172-1.945-.008.016 2.918 4.254-.062.102-4.93-.609-.008.016 2.816 1.727c.727.445.973.395 1.309-.109l.133.082-1.016 1.66-.133-.082c.293-.559.277-.773-.484-1.238l-2.867-1.758c-.551-.34-.695-.227-1.047.281l-.133-.082.855-1.398 4.566.555-2.609-3.746.863-1.406zm7.684-.699l-2.961 3.363-.117-.102c.324-.422.395-.613-.086-1.035l-2.766-2.434c-.492-.434-.66-.316-1.035.047l-.121-.102 2.91-3.309.91.766-.141.156c-.633-.395-.879-.32-1.484.371l-.742.84c-.113.133-.18.207.031.391l1.383 1.219.844-.961c.488-.555.395-.746.012-1.203l.125-.145 1.445 1.27-.125.145c-.562-.363-.734-.348-1.195.164l-.855.949 1.543 1.359c.258.227.262.23 1.082-.699.684-.777.77-1.254.383-2.082l.152-.172zm1.441-8.195c-.363.379-.547.574.074 1.32l2.793 3.352-.109.09-5.711-1.156-.012.012 2.07 2.484c.547.656.797.684 1.277.316l.102.121-1.496 1.246-.102-.121c.457-.434.512-.641-.062-1.328l-2.34-2.812c-.527-.102-.656-.047-.91.164l-.102-.121 1.09-.906 4.992 1.031.016-.012-1.773-2.129c-.613-.73-.832-.633-1.293-.305l-.098-.121 1.496-1.246zm6.281 2.406l-2.059 1.281-.082-.137c.621-.426.543-.602.219-1.121l-2.187-3.527-.383.238c-.773.48-.883.734-.559 1.598l-.172.105-.699-1.227 3.977-2.469.785 1.172-.168.105c-.629-.684-.906-.687-1.684-.207l-.379.238 2.238 3.602c.297.48.465.563 1.07.215zm5.055-5.332c-.504-1.84.547-3.125 1.855-3.484s2.871.211 3.375 2.051c.465 1.703-.414 3.07-1.863 3.469s-2.902-.332-3.367-2.035zm4.316-1.191c-.5-1.824-1.566-2.227-2.383-2.004s-1.523 1.113-1.023 2.938c.48 1.758 1.492 2.246 2.379 2.004s1.508-1.18 1.027-2.937zm5.84.027c-.164-.684-.371-.746-.992-.687l-1.195.113.195 1.805c.066.617.242.699.832.66l.016.156-2.305.25-.02-.156c.617-.102.699-.234.629-.91l-.387-3.566c-.07-.652-.273-.68-.797-.664l-.016-.156 4.371-.473.152 1.176-.207.023c-.199-.723-.43-.832-1.344-.73l-1.121.121c-.203.02-.258.059-.23.309l.195 1.828 1.195-.129c.676-.074.805-.254.82-.883l.191-.02.203 1.91zm11.148 2.695c.672.184.762.02.957-.57l1.117-3.41c.191-.582.105-.699-.461-.937l.051-.148 2.188.719-.047.148c-.617-.148-.742-.078-.926.48l-.504 1.531 2.387.781.504-1.527c.191-.582.105-.699-.461-.937l.051-.148 2.188.719-.051.148c-.613-.148-.742-.078-.922.48l-1.148 3.5c-.172.52-.141.695.461.934l-.051.152-2.191-.719.051-.148c.672.184.762.02.953-.57l.504-1.535-2.387-.785-.531 1.625c-.172.52-.141.695.461.934l-.051.152-2.187-.719zm9.941 4.359l-3.965-2.09.074-.141c.484.219.691.242.988-.324l1.715-3.258c.305-.582.156-.719-.289-1l.074-.141 3.898 2.055-.531 1.063-.184-.098c.234-.711.105-.93-.707-1.359l-.992-.52c-.156-.082-.242-.129-.375.121l-.859 1.629 1.133.598c.652.344.82.207 1.176-.273l.168.09-.898 1.703-.168-.09c.223-.633.164-.793-.441-1.121l-1.125-.613-.957 1.82c-.16.305-.16.309.93.887.918.484 1.402.457 2.117-.113l.203.105zm8.594 7.262l-1.508-1.488.113-.109c.219.215.418.402.633.184.094-.094.211-.367.258-.484l.316-.805-1.547-1.527-.953.426c-.098.043-.191.102-.27.176-.242.25.035.52.156.645l-.109.113-1.168-1.156.109-.109c.102.086.215.172.43.168.281-.016.891-.266 1.258-.414l4.086-1.684.121.113-1.84 4.801c-.238.617-.219.766.023 1.039zm-.031-3.027l.918-2.297-2.281.953zm.152 3.109c.453.539.625.527 1.086.16l2.875-2.293c.48-.383.484-.535.082-1.094l.125-.098 1.535 1.922-.125.102c-.398-.461-.57-.586-1.09-.172l-2.875 2.297c-.508.402-.445.609-.078 1.098l-.121.098-1.535-1.922zm4.598 7.043l-.695-1.141 1.152-3.02-.254-.387-1.398.852c-.473.289-.566.441-.246 1.027l-.137.082-1.195-1.965.133-.082c.387.555.551.492 1.086.168l3.066-1.871c.523-.32.523-.465.27-.992l.137-.082 1.191 1.957c.387.629.949 1.891-.141 2.555-.949.582-1.684-.238-1.977-.555l-.902 2.551c-.094.273-.117.523.047.82zm.465-4.707c.371.59 1.031 1.645 2.043 1.027.945-.574.398-1.516.223-1.809-.23-.375-.316-.406-.523-.281zm4.359 12.902c.648-.266.68-.48.531-1.082l-.289-1.168-1.758.457c-.602.156-.656.344-.531.918l-.152.043-.586-2.25.152-.039c.191.594.336.66.992.488l3.477-.906c.633-.164.629-.371.539-.887l.152-.039 1.109 4.258-1.141.324-.051-.199c.684-.309.758-.551.523-1.441l-.285-1.09c-.051-.199-.098-.25-.34-.184l-1.781.465.305 1.16c.172.66.371.762.992.684l.047.184-1.859.488zm1.086 1.008c1.895-.215 3.008 1.016 3.16 2.367s-.645 2.805-2.539 3.023c-1.754.199-2.973-.879-3.145-2.371s.77-2.816 2.523-3.02zm.52 4.449c1.879-.215 2.441-1.207 2.348-2.047s-.871-1.676-2.75-1.461c-1.812.207-2.449 1.133-2.344 2.047s.934 1.668 2.746 1.461zm-2.879 6.988l.059-1.332 2.637-1.859.004-.465-1.633-.07c-.555-.023-.715.051-.777.711l-.156-.004.098-2.293.16.004c.012.676.184.715.805.742l3.586.156c.613.027.691-.094.773-.672l.16.008-.102 2.285c-.031.738-.266 2.094-1.539 2.039-1.109-.047-1.262-1.133-1.328-1.559l-2.168 1.613c-.23.172-.391.363-.422.703zm3.004-3.641c-.02.695-.059 1.938 1.125 1.988 1.102.047 1.172-1.035 1.188-1.375.02-.437-.035-.516-.273-.523zM88.227 60c.895-.039 1.664-.496 1.859-1.5a1.85 1.85 0 0 0-.258-1.32c-.246-.375-.699-.836-1.871-1.066-1.727-.34-2.625.492-2.828 1.52-.195 1 .27 1.699.461 2l-.172.117c-.016-.008-.898-.91-.602-2.41.254-1.309 1.313-2.566 3.34-2.168 1.828.355 2.543 1.918 2.27 3.32-.141.723-.516 1.199-.551 1.379-.008.043-.059.309.195.43l-.031.172-1.848-.289zm-5.266 3.887l1.469-4.23.148.051c-.141.512-.133.719.469.926l3.48 1.211c.617.215.73.043.941-.437l.148.055-1.445 4.156-1.129-.363.066-.195c.738.125.938-.035 1.238-.906l.367-1.059c.055-.164.09-.258-.176-.352l-1.742-.602-.418 1.207c-.242.695-.082.84.445 1.117l-.062.18-1.816-.629.059-.18c.66.121.813.043 1.047-.605l.434-1.199-1.941-.676c-.32-.113-.328-.117-.734 1.051-.344.98-.242 1.453.43 2.074l-.078.219zm0 0" class="E I"/><g class="B D E"><path d="M50.106 76.59c2.531-2.215 6.555-3.965 8.969-4.75 4.063-1.316 5.164-4.527 5.277-6.434.105-1.797-.422-3.063-1.371-6.965s1.793-10.34 1.793-10.34l-3.906-3.586H39.344l-3.902 3.586s2.742 6.438 1.793 10.34-1.477 5.168-1.371 6.965c.109 1.906 1.211 5.117 5.273 6.434 2.414.785 6.438 2.535 8.969 4.75zm0 0" stroke-width=".264" class="C F K"/><path d="M50.055 64.387c1.516 0 1.754.227 1.754.648 0 .371-.426.211-.426.566 0 .66 1.398.633 1.398.633 1.387 0 1.453-.633 1.453-.633 0-.488-.316-.172-.316-.672 0-.543 1.055-.543 1.359-.543s1.5.043 1.5.555c0 .477-.328.145-.328.66 0 .672 1.57.621 1.57.621.445 0 1.477 0 1.477-.582s-.332-.211-.332-.684c0-.582 1.176-.555 1.492-.555s1.477-.094 1.477.539c0 .477-.367.133-.367.621 0 .578 1.43.578 1.43.578.434-3.109-1.512-6.301-1.512-9.336 0-4.434 1.664-8.387 1.664-8.387l-3.063-2.957H39.82l-3.063 2.957s1.684 3.953 1.664 8.387c-.02 3.535-2.023 6.383-1.398 9.285 0 0 1.316.051 1.316-.527 0-.488-.367-.145-.367-.621 0-.633 1.16-.539 1.477-.539s1.492-.027 1.492.555c0 .473-.332.102-.332.684s1.027.578 1.48.578c0 0 1.566.055 1.566-.617 0-.516-.328-.184-.328-.66 0-.516 1.199-.555 1.504-.555s1.355 0 1.355.543c0 .5-.316.184-.316.672 0 0 .066.633 1.453.633 0 0 1.398.027 1.398-.633 0-.355-.422-.195-.422-.566 0-.422.234-.648 1.754-.648zm0 0" class="G M"/></g><path d="M48.977 79.148c-.262-.004-.359.008-.391.332l-.172 1.82c-.031.316.059.359.32.402l-.008.078-1.145-.109.008-.078c.32.012.379-.043.41-.379l.176-1.84h-.012l-1.258 2.234-.059-.008-.809-2.332h-.008l-.152 1.633c-.043.422.035.52.332.563l-.008.074-.961-.09.008-.078c.313.012.406-.043.445-.484l.16-1.664c.027-.316-.055-.359-.355-.402l.008-.078.809.074.75 2.156 1.102-1.98.816.078zm-7.863-1.371c-.246-.074-.348-.086-.465.219l-.66 1.703c-.113.293-.039.363.203.473l-.031.074-1.074-.414.031-.074c.305.102.375.063.496-.254l.668-1.719-.008-.004-1.82 1.805-.055-.02-.145-2.465-.008-.004-.59 1.531c-.152.395-.105.512.172.629l-.031.074-.902-.348.031-.074c.297.094.402.07.563-.348l.602-1.555c.113-.301.047-.363-.234-.488l.031-.07.758.293.141 2.277 1.594-1.609.766.293zm3.156 1.594c0-.445-.215-.832-.707-.945-.223-.051-.461-.012-.656.105s-.43.332-.562.906c-.195.848.199 1.309.703 1.426.492.113.848-.105 1-.195l.055.09c-.008.004-.469.426-1.203.254-.645-.148-1.25-.695-1.016-1.691.207-.895.992-1.223 1.68-1.062.355.082.586.273.676.293.02.008.152.035.215-.09l.082.02-.172.91zm7.961-.309c-.219.023-.324.039-.602.402l-.578.766.82 1.105c.168.219.25.273.465.289l.004.078-1.223.035v-.078c.203-.016.316-.023.313-.148-.004-.074-.152-.293-.223-.383l-.406-.566-.469.621c-.086.113-.207.273-.207.355.004.129.156.137.316.141l.004.078-.957.027-.004-.078c.227-.023.27-.078.582-.484l.625-.812-.469-.645c-.437-.602-.523-.609-.762-.621l-.004-.078 1.242-.039v.078c-.211.012-.312.02-.309.141.004.082.082.219.367.598l.184.238.445-.582c.09-.121.16-.203.156-.281-.004-.129-.152-.129-.293-.129v-.078l.977-.027zm2.02-.262c-.273.059-.371.102-.324.422l.289 1.926c.023.164.098.156.434.105.609-.09.871-.145 1.023-.715l.102-.016-.09.738-2.191.328-.012-.078c.258-.055.348-.105.301-.422l-.27-1.805c-.047-.32-.148-.332-.41-.312l-.012-.078 1.148-.172zm4.328-.945c-.187.063-.227.133-.27.465L58 80.781l-.062.016-1.539-1.934c-.258-.32-.34-.352-.531-.312l-.02-.074 1.059-.273.023.078c-.223.066-.297.094-.262.223.012.059.129.207.27.383l.949 1.191.211-1.609c0-.027.023-.211.004-.293-.043-.164-.184-.141-.336-.109l-.02-.074.813-.211zm1.664 2.129c.324-.125.348-.207.25-.484l-.625-1.715c-.102-.285-.176-.312-.5-.211l-.027-.074 1.148-.418.027.074c-.277.113-.367.176-.254.484l.625 1.719c.109.301.215.305.504.211l.027.07-1.148.418zm1.848-.695c.316-.148.336-.23.219-.5l-.727-1.672c-.121-.277-.195-.301-.516-.18l-.031-.074 1.121-.484.031.07c-.27.133-.355.199-.223.5l.727 1.672c.129.297.234.293.52.18l.027.074-1.117.484zm0 0" class="E F"/><path d="M49.711 88.047h-.105c-.062-.34-.316-.715-.746-.727-.207-.004-.418.117-.422.371-.016.617 1.355.73 1.336 1.574-.012.352-.297.738-.887.727-.312-.008-.508-.152-.633-.156-.086-.004-.129.066-.129.133l-.09-.004-.105-.871h.094c.074.195.273.734.828.746a.46.46 0 0 0 .504-.445c.004-.23-.059-.375-.652-.742-.375-.227-.633-.414-.625-.82.012-.469.391-.687.762-.68.246.008.465.152.566.152.117.004.137-.09.148-.137l.086.004zM20.289 72.918c-.211-.234-.301-.254-.652 0l-.867.633c-.266.195-.891.652-1.52-.211-.602-.82.047-1.297.246-1.441l1.039-.758c.242-.18.246-.254.078-.52l.063-.043.688.938-.062.047c-.211-.246-.285-.254-.52-.082l-1.062.777c-.215.156-.676.492-.254 1.07.191.258.434.371.664.352.102-.008.238-.055.508-.254l.895-.656c.355-.258.355-.379.199-.621l.063-.047.563.77zm2.219 2.578c-.191-.18-.293-.266-.652.051l-1.629 1.43-.047-.051.5-2.852-.004-.004-1.207 1.059c-.316.281-.328.402-.141.637l-.059.055-.637-.727.059-.055c.223.223.324.246.66-.047l1.363-1.199c.043-.262.012-.324-.094-.449l.059-.051.465.531-.449 2.488.008.008 1.031-.906c.355-.312.305-.422.137-.645l.059-.055.637.727zm-1.289 2.336c.258.242.34.227.547.016l1.277-1.301c.211-.219.203-.293-.027-.547l.055-.055.871.855-.055.055c-.223-.199-.316-.25-.547-.016l-1.277 1.301c-.223.23-.184.328.027.547l-.051.055-.875-.852zm2.895 2.77l-.91-.781.051-.059c.293.23.363.168.563-.066l1.336-1.562-.172-.145c-.344-.293-.477-.305-.84-.023l-.074-.062.473-.516 1.762 1.504-.434.547-.074-.062c.23-.398.188-.531-.156-.824l-.168-.145-1.363 1.598c-.18.211-.195.305.059.539zm2.57 1.977l-1.785-1.316.047-.062c.219.141.316.168.508-.086l1.082-1.465c.195-.262.129-.34-.066-.512l.047-.062 1.754 1.297-.34.48-.082-.062c.168-.328.121-.445-.246-.719l-.445-.328c-.07-.051-.109-.078-.191.031l-.543.734.508.375c.293.219.387.164.594-.043l.078.055-.566.766-.078-.055c.156-.293.141-.375-.129-.582l-.504-.383-.605.82c-.102.133-.105.137.387.504.414.305.652.328 1.043.098l.094.07zm.797.484c.277.148.352.117.504-.125l.957-1.555c.16-.258.145-.316-.113-.504l.043-.066.941.582c.84.52 1.16 1.246.68 2.027-.289.465-.988.98-2.059.316l-.992-.613zm.793.203c-.074.117-.047.168.121.273.223.137 1.086.668 1.711-.348.184-.297.273-.629.168-.996-.078-.254-.215-.469-.656-.742-.164-.102-.203-.035-.246.035zm7.762 2.184l-.098-.039c.063-.34-.039-.781-.441-.945-.187-.078-.43-.039-.527.199-.234.57 1.008 1.164.688 1.945-.133.324-.539.586-1.086.359-.289-.117-.422-.324-.535-.367-.082-.035-.145.016-.172.074l-.082-.031.215-.855.09.035c-.004.207-.012.785.504.992.305.125.547-.031.629-.234.09-.219.082-.371-.344-.926-.27-.348-.445-.613-.289-.992.176-.434.609-.504.953-.363.227.094.383.305.477.344.105.047.16-.035.188-.074l.078.031zm1.629 2.59l-1.137-.379.023-.074c.359.102.402.016.496-.27l.648-1.953-.211-.07c-.43-.141-.559-.102-.785.293l-.094-.031.242-.656 2.203.734-.199.668-.094-.027c.063-.457-.023-.566-.453-.707l-.211-.07-.664 1.992c-.086.266-.066.355.258.477zm3.367.934l-1.012-.262.02-.078c.145.039.277.07.316-.078.016-.062 0-.207-.012-.27l-.062-.426-1.043-.27-.305.418c-.031.043-.055.09-.07.141-.043.168.145.219.227.238l-.02.078-.789-.207.023-.074a.28.28 0 0 0 .223-.035c.117-.074.316-.336.438-.488l1.336-1.738.082.02.402 2.52c.051.32.094.379.266.438zm-.762-1.289l-.18-1.215-.738.977zm2.949 1.703l-1.184-.215.016-.074c.371.051.398-.043.453-.34l.367-2.023-.219-.039c-.445-.082-.566-.023-.734.402l-.098-.02.148-.684 2.281.414-.102.691-.098-.016c-.004-.461-.102-.555-.547-.637l-.219-.039-.375 2.066c-.051.277-.016.363.32.438zm3.418.434l-2.207-.227.008-.078c.266.012.363-.016.395-.332l.191-1.816c.031-.32-.062-.355-.32-.402l.008-.078 2.172.227-.047.586-.105-.012c-.023-.371-.121-.445-.574-.492l-.551-.059c-.086-.008-.137-.012-.152.125l-.094.906.629.066c.363.039.414-.055.492-.34l.094.012-.102.945-.094-.008c-.012-.332-.07-.398-.406-.437l-.629-.074-.105 1.016c-.02.168-.02.172.59.234.512.055.727-.047.953-.441l.113.012zm8.703-1.586c-.164-.93.41-1.516 1.074-1.633s1.406.23 1.574 1.164c.152.863-.344 1.496-1.078 1.629s-1.418-.297-1.57-1.16zm2.184-.391c-.164-.926-.672-1.172-1.082-1.098s-.805.48-.641 1.402c.156.891.637 1.18 1.086 1.098s.797-.512.637-1.402zm3.473-.434c-.137-.32-.242-.332-.543-.254l-.574.148.238.867c.078.301.172.324.457.258l.02.078-1.109.305-.02-.074c.293-.098.324-.172.234-.496l-.473-1.719c-.086-.312-.187-.312-.441-.262l-.02-.078 2.105-.574.168.563-.102.027c-.156-.336-.273-.371-.715-.25l-.539.148c-.102.027-.125.051-.09.168l.242.879.574-.156c.324-.09.375-.187.332-.496l.09-.023.254.918zm7.023-1.73l-.953.441-.031-.074c.137-.062.258-.125.195-.262-.027-.059-.133-.16-.18-.203l-.32-.289-.977.453.027.516a.44.44 0 0 0 .039.156c.07.156.246.074.324.039l.035.07-.742.344-.031-.074a.27.27 0 0 0 .152-.168c.043-.133.031-.461.027-.656l-.07-2.191.074-.035 1.91 1.691c.246.219.316.234.488.172zm-1.41-.516l-.906-.824.043 1.223zm3.375-3.605c-.215.145-.289.215-.129.496l.902 1.586c.156.277.258.262.496.145l.035.07-.996.566-.039-.066c.27-.172.285-.254.117-.547l-.914-1.602-.008.004.254 2.547-.051.031-2-1.445-.008.004.813 1.426c.207.367.328.402.594.266l.039.07-.836.477-.039-.066c.258-.172.305-.27.082-.656l-.824-1.449c-.16-.277-.25-.266-.523-.129l-.039-.066.707-.402 1.855 1.332-.242-2.254.711-.402zm3.996.43l-1.809 1.285-.047-.062c.207-.168.262-.25.078-.512l-1.055-1.488c-.187-.266-.281-.227-.508-.094l-.043-.062 1.781-1.266.348.473-.082.059c-.262-.262-.387-.254-.762.012l-.449.32c-.074.051-.113.078-.031.191l.527.746.516-.367c.301-.211.273-.316.145-.578l.074-.055.555.777-.078.055c-.23-.242-.312-.25-.594-.059l-.523.359.59.832c.098.137.102.141.602-.211.418-.297.516-.52.422-.961l.094-.066zm2.832-2.301l-.504.426-1.566-.34-.168.156.52.617c.176.211.258.246.523.047l.051.059-.875.734-.051-.059c.242-.23.199-.309 0-.543l-1.145-1.363c-.195-.234-.266-.223-.504-.059l-.051-.062.867-.727c.281-.238.855-.605 1.266-.121.352.422.008.84-.129 1.008l1.32.25c.141.027.262.02.398-.082zm-2.336.125c.262-.227.727-.629.352-1.078-.352-.422-.773-.082-.902.027-.168.137-.176.184-.102.277zm2.805-.676c.246-.25.234-.332.031-.543l-1.262-1.316c-.211-.223-.289-.215-.543.008l-.055-.055.879-.848.055.059c-.207.215-.262.309-.035.543l1.266 1.32c.223.23.32.191.547-.012l.055.055-.883.848zm1.668-4.258c-.391-.215-.832-.219-1.172.152a.9.9 0 0 0-.23.625c.004.223.078.535.516.934.641.59 1.234.469 1.586.09.34-.375.324-.789.32-.969l.102-.004c.008.008.145.617-.363 1.176-.449.488-1.219.746-1.973.055a1.36 1.36 0 0 1-.105-1.988c.25-.27.531-.375.59-.441.016-.016.105-.117.027-.234l.059-.062.707.598zm3.805-1.82l-.637.832-.062-.047c.094-.121.172-.23.051-.324-.051-.039-.191-.078-.254-.094l-.414-.105-.652.855.266.441c.027.047.063.086.105.121.137.102.254-.051.305-.117l.063.047-.492.645-.062-.047a.27.27 0 0 0 .055-.223c-.023-.137-.184-.418-.281-.59l-1.086-1.902.051-.066 2.473.602c.32.078.391.059.512-.078zm-1.488.203l-1.187-.305.613 1.059zm0 0" class="E I"/><g class="B C D E"><g stroke-width=".159"><path d="M42.324 42.652c.199.164.461.344.816.359.609.023.66-.504.633-.688-.051-.367-.762-1.766-2.031-1.215l-.117-.09c-.18-.137-.398-.266-.723-.277-.609-.027-.66.5-.637.684.055.371.793 1.781 2.059 1.227zm6.48 0c.199.164.461.344.816.359.609.023.66-.504.633-.688-.051-.367-.762-1.766-2.027-1.215-.043-.027-.082-.059-.121-.09-.18-.137-.395-.266-.723-.277-.609-.027-.66.5-.633.684.051.371.789 1.781 2.055 1.227zm6.473 0c.199.164.461.344.816.359.609.023.66-.504.633-.688-.051-.367-.762-1.766-2.031-1.215l-.117-.09c-.18-.137-.398-.266-.723-.277-.609-.027-.66.5-.637.684.055.371.793 1.781 2.059 1.227zm0 0" class="F"/><path d="M45.57 42.652c.199.164.461.344.816.359.605.023.66-.504.633-.688-.055-.367-.766-1.766-2.031-1.215l-.117-.09a1.22 1.22 0 0 0-.727-.277c-.605-.027-.66.5-.633.684.051.371.793 1.781 2.059 1.227zm6.473 0c.199.164.461.344.816.359.605.023.66-.504.633-.688-.055-.367-.766-1.766-2.031-1.215l-.121-.09c-.18-.137-.395-.266-.723-.277-.605-.027-.66.5-.633.684.051.371.793 1.781 2.059 1.227zm6.473 0c.199.164.461.344.816.359.605.023.656-.504.633-.688-.055-.367-.766-1.766-2.031-1.215l-.121-.09c-.18-.137-.395-.266-.723-.277-.605-.027-.66.5-.633.684.051.371.793 1.781 2.059 1.227zm0 0" class="M"/></g><path d="M42.285 41.375c-.328 0-.219.027-.5-.199zm-.566.938c.195 0 .391.152.555.289zm3.809-.938c-.324 0-.215.027-.5-.199zm-.566.938c.199 0 .391.152.555.289zm3.805-.938c-.324 0-.219.027-.5-.199zm-.566.938c.195 0 .391.152.555.289zM52 41.375c-.324 0-.215.027-.5-.199zm-.566.938c.199 0 .391.152.555.289zm3.805-.938c-.328 0-.219.027-.5-.199zm-.566.938c.195 0 .391.152.555.289zm3.801-.938c-.324 0-.215.027-.5-.199zm-.566.938c.199 0 .391.152.555.289zm0 0" class="F J"/></g><g class="N E"><path d="M58.688 33.262c.008-.004.016-.012.023-.02.207-.219.121-.551.121-.551s.207.188.527-.012.25-.441.25-.441.129.133.633.016.383-.465.383-.465c.738.074.91-.422.91-.422 1.648.441 1.594-.406 1.594-.406.379.129.93.25 1.395.094.793-.27.492-.566.492-.566.762.125 1.52-.488 1.473-.805s-1-.082-1-.082c1.84-.633 2.387-1.41 2.02-1.422s-.559.184-.875.176l-1.109-.07 1.68-.613c1.109-.434 1.348-.992 1.137-1s-.391.242-.641.234c-.211-.008-.602-.055-.602-.055 1.789-.852 2.023-1.66 1.758-1.668s-.301.441-.645.484l-1.566.273c.168-.367-.055-.793-.297-.668s-.23.703-1.5.777c-1.508.082-2.664.875-2.664.875.117-.312-.273-.617-.332-.324-.062.285-.809.582-.809.582-.352.309-4.344.566-5.223 1.781-1.098 1.527-2.379 2.152-4.285 1.414l-2.301.289c-1.926.684-3.187.023-4.246-1.531-.844-1.238-4.828-1.609-5.172-1.926 0 0-.738-.316-.789-.605s-.449 0-.344.316c0 0-1.133-.824-2.637-.949-1.266-.105-1.242-.687-1.477-.82s-.477.293-.316.66l-1.559-.316c-.344-.051-.367-.5-.633-.5s-.051.816 1.715 1.715l-.605.039c-.25 0-.422-.25-.633-.25s.008.566 1.105 1.027l1.664.66-1.109.039c-.316 0-.5-.199-.871-.199s.16.793 1.98 1.477c0 0-.949-.262-1.004.055s.688.949 1.449.844c0 0-.305.289.477.582.461.168 1.016.063 1.398-.055 0 0-.078.844 1.582.449 0 0 .16.5.898.449 0 0-.133.34.367.473s.633 0 .633 0-.078.238.238.449.527.027.527.027-.074.27.059.488h16.754zm0 0"/><path d="M41.934 33.262l.047.066c.234.266.461.133.461.133s-.105.16.133.5.41.172.41.172-.039.227.117.383a.57.57 0 0 0 .332.172s.012.266.078.355.316.227.316.227 0 .156.117.316.438.211.438.211-.043.262.105.383.672-.043.672-.043-.039.121.223.254.594.063.594.063l1.914-1.289-3.613 2.727s-.371.082.211 1.031c0 0-.078.527.395.844s.738.078.738.078.027.395.633.5l.25.043.105-.016s-.105.016-.277.188c-.156.156-.184.473-.184.473s.344.871 1.082.184l.289-.156s.211.395.633.473.633-.367.633-.367h.32l.367.184s.711-.055.688-.16l.156-.461c.055.738.66.594.66.594l.582-.395.133-.043s.199.453.625.387.645-.457.645-.457l.25.137.523.199c.262.063.43-.305.43-.305s-.016-.312-.172-.48c-.191-.203-.301-.191-.301-.191l.555-.035c.609-.09.648-.484.648-.484s.258.246.738-.059.422-.832.422-.832c.605-.934.238-1.023.238-1.023l-3.535-2.828 1.875 1.344s.328.074.594-.051.23-.242.23-.242.523.172.672.059.117-.379.117-.379.316-.047.441-.199.125-.316.125-.316.254-.125.324-.215.09-.352.09-.352.172-.008.332-.164.129-.379.129-.379.168.176.414-.16.148-.496.148-.496.207.129.438-.098zm0 0"/></g><g class="B D"><g fill="none"><path d="M50.316 40.727c.055.742.66.594.66.594l.582-.395.133-.043s.199.453.625.387.645-.457.645-.457l.25.137.523.203c.262.059.43-.309.43-.309s-.016-.313-.172-.477c-.191-.207-.301-.195-.301-.195l.555-.035c.609-.09.648-.484.648-.484s.258.246.738-.059.422-.832.422-.832c.605-.934.238-1.023.238-1.023l-3.535-2.828 1.875 1.344s.328.074.594-.047.23-.246.23-.246.523.172.672.059.117-.379.117-.379.316-.043.441-.199.125-.312.125-.312.254-.125.324-.219.09-.352.09-.352.172-.008.332-.164.129-.379.129-.379.168.176.414-.16.148-.496.148-.496.223.141.465-.117c.203-.219.117-.551.117-.551s.207.188.531-.012.25-.441.25-.441.125.133.629.016.383-.465.383-.465c.738.074.91-.422.91-.422 1.652.441 1.594-.406 1.594-.406.379.129.93.25 1.398.094.789-.27.488-.566.488-.566.762.125 1.52-.488 1.473-.805s-1-.082-1-.082c1.84-.633 2.387-1.41 2.02-1.422s-.559.184-.875.176l-1.109-.07 1.684-.613c1.109-.434 1.344-.992 1.133-1s-.387.242-.641.234c-.211-.008-.602-.055-.602-.055 1.789-.852 2.023-1.66 1.762-1.668s-.305.441-.648.484l-1.566.273c.172-.367-.055-.793-.297-.668s-.23.703-1.5.777c-1.508.082-2.66.875-2.66.875.113-.313-.273-.617-.336-.324-.063.285-.809.582-.809.582-.352.309-4.344.566-5.219 1.781-1.102 1.527-2.383 2.152-4.289 1.414l-2.301.289c-1.926.684-3.188.023-4.246-1.531-.844-1.238-4.828-1.609-5.172-1.926 0 0-.738-.316-.789-.605s-.449 0-.344.316c0 0-1.133-.824-2.637-.949-1.266-.105-1.242-.688-1.477-.82s-.477.293-.316.66l-1.559-.316c-.344-.051-.367-.5-.633-.5s-.051.816 1.715 1.715l-.605.039c-.25 0-.422-.25-.633-.25s.008.566 1.105 1.027l1.664.66-1.109.039c-.316 0-.5-.199-.871-.199s.16.793 1.98 1.477c0 0-.949-.262-1.004.055s.688.949 1.453.844c0 0-.309.289.473.582.461.168 1.016.062 1.398-.055 0 0-.078.844 1.582.449 0 0 .16.5.898.449 0 0-.133.34.367.473s.633 0 .633 0-.078.238.238.449.527.027.527.027-.09.328.105.555c.234.266.461.129.461.129s-.105.16.133.504.41.172.41.172-.039.223.117.379a.57.57 0 0 0 .332.172s.012.266.078.355.316.227.316.227 0 .156.117.316.438.211.438.211-.043.266.105.383.672-.039.672-.039-.039.117.223.25.594.066.594.066l1.914-1.293-3.613 2.73s-.371.078.211 1.027c0 0-.078.527.395.844s.738.078.738.078.027.398.633.504l.25.039.105-.012s-.105.012-.277.184c-.156.16-.184.473-.184.473s.344.871 1.082.188l.289-.16s.211.395.633.477.633-.371.633-.371h.32l.367.184s.711-.051.688-.156" class="C G K"/><path d="M48.215 26.156l-.105.156" class="J"/><path d="M47.699 25.98c-.086.039-.121.141-.152.199m4.691.012c.043.078.141.195.188.281m-7.199 1.422c.023.598.238.527.238.527" class="G"/><path d="M44.988 28.16c-.027.184.117.328.117.328" class="L"/><g class="J"><path d="M52.508 26.656l.078.051m2.797 1.32l.027.078"/><path d="M42.086 36.125l.105.211" class="C"/></g><path d="M42.691 38.262l.211.133m-.094.344l.238.129m14.18-1.344s-.184.238-.367.289m.422.184s-.187.238-.371.293" class="C G"/><path d="M38.738 27.051c.289.555 1.266 1.16 3.586 1.715l.789.371m-3.93-1.559s-.023.66.531.871 2.344.527 2.559.395m-2.348-.262s.184.711 2.031.66c.238-.008.367-.109.367-.109m.16.293c-.316.211-1.266.441-1.531.395-.316-.051-.582-.383-.5-.711m1.898-.277c-.078.184-.066.316.117.449s.543.117.621.105m-.621-.105c-.027.09.016.422.184.449s.449.023.543-.043m-5.645 1.242c.805-.199 2.188-.582 3.191-1.16m-1.609 1.555s1.426-.211 2.004-1.027m-5.34.09c.367-.023 3.086-.566 4.563-1.355m-4.973.445s1.598.25 4.707-.617m.859.961c0 .316.184.66.605.633s.922-.262.922-.262m.082-.477c-.055.16-.16.477.027.555s.527.051.633-.027m-1.504.238c.289.238.555.367.922.238m.051-.449c-.051.184-.129.555.133.66s.555-.211.555-.211m-.555.211c.027.289 0 .449.16.555s.578.023.789-.082m-3.742.398c.445-.133 1.371-.266 1.977-1.082m-.977 1.582c.344-.133 1.449-.711 1.715-1.398m-.871 1.871c.371-.184 1.027-.684 1.242-1.16m-7.809-3.43l.422.449 4.063-.078m-5.938-1.871c1.031.816 1.215 0 2.402 1.289 0 0 2.242.16 3.008.055m-5.012-2.215c.816.977 2.293.445 3.191 1.844l1.66.027m4.195 3.93c.051.238.078.477.289.504s.688-.316.688-.316m-.504.34c.027.211.133.477.398.477s.633-.316.633-.316m-2.27 1.105c.266-.129 1.027-.578 1.266-1.027m-.816 1.754c.422-.172 1.32-.75 1.504-1.148m-1.055 1.703c.262-.145 1.133-.645 1.371-1.199m-.977 1.781c.133-.016 1.055-.57 1.449-1.387m-.949-1.238c.027.289.055.5.266.578s.633-.344.633-.473m-.477.5c.055.156.133.473.449.449s.582-.609.582-.609m-.398.582c.027.105.105.344.398.395s.527-.656.527-.656m-.527.656s-.266 1.031-1.348 1.664m.727.406s1.094-.695 1.043-1.777m-.371 2.055s1.004-.711.871-1.766m-.711-.582c.051.16.262.477.578.344s.449-.789.449-.789m-.371.789c.16.211.316.316.504.293s.395-.426.422-.742m-.211.844c0 .266 0 .527-.055.766m-.023-.922c.078.211.34.289.551.262m14.293-7.855c-.305.547-1.297 1.125-3.633 1.613l-.801.348m3.973-1.445s.008.66-.555.855-2.359.461-2.566.324m2.352-.199s-.203.707-2.047.605c-.238-.016-.367-.117-.367-.117m-.164.285c.309.219 1.25.477 1.52.438.316-.043.59-.367.52-.699m-1.891-.328c.074.187.055.32-.133.445s-.543.102-.621.086m.621-.086c.023.094-.023.422-.195.441s-.449.016-.539-.051m5.605 1.395c-.797-.223-2.172-.641-3.156-1.25m1.566 1.602s-1.418-.25-1.977-1.086m5.336.242c-.367-.039-3.066-.652-4.523-1.484m4.957.586s-1.602.207-4.688-.75m-.883.938c-.012.316-.203.656-.625.617s-.918-.289-.918-.289m-.066-.477c.051.16.145.477-.039.551s-.531.039-.633-.043m1.496.277c-.297.23-.563.355-.93.215m-.039-.449c.047.184.117.555-.152.652s-.547-.227-.547-.227m.547.227c-.031.289-.012.449-.172.551s-.582.012-.789-.102m3.734.5c-.445-.145-1.363-.301-1.949-1.137m.934 1.609c-.34-.141-1.434-.75-1.676-1.445m.816 1.898c-.363-.195-1.008-.715-1.207-1.195m7.902-3.211l-.438.434-4.059-.191m5.984-1.707c-1.047.789-1.211-.031-2.434 1.227 0 0-2.246.094-3.008-.031m5.07-2.074c-.844.949-2.305.383-3.238 1.754l-1.664-.02m-4.301 3.813c-.059.238-.09.473-.305.496s-.676-.336-.676-.336m.492.355c-.031.211-.145.473-.41.465s-.625-.336-.625-.336m2.238 1.172c-.258-.141-1.012-.609-1.238-1.063m.77 1.773c-.418-.184-1.297-.785-1.473-1.188m1.012 1.73c-.262-.152-1.117-.676-1.34-1.238m.926 1.809c-.129-.02-1.039-.598-1.41-1.426m.984-1.211c-.035.285-.07.496-.281.57s-.625-.359-.621-.492m.461.516c-.055.156-.145.469-.461.434s-.563-.621-.563-.621m.379.59c-.027.105-.113.34-.406.387s-.508-.676-.508-.676m.508.676s.234 1.035 1.297 1.695m-.734.391s-1.074-.73-.992-1.809m.313 2.066s-.98-.738-.82-1.789m.727-.563c-.055.156-.277.469-.59.328s-.426-.805-.426-.805m.348.801c-.164.207-.324.309-.508.277s-.387-.434-.402-.75m.188.848c-.008.266-.016.527.031.77m.051-.922c-.082.207-.352.277-.559.246m-8.25 4.367c.184.238.477.449.844.051s2.125-1.926 2.387-2.242m-2.137 2.969l2.047-2.07m-1.453 2.609c.582-.262 1.16-1.105 1.348-1.477m8.371-.004c-.191.234-.488.438-.848.031s-2.066-1.984-2.324-2.309m2.055 3.027l-1.988-2.129m1.379 2.652c-.57-.281-1.129-1.141-1.305-1.516" class="C J"/></g><g class="L"><path d="M53.113 40.32c-.105-.133-.262-2.383-.449-4.617-.082-.977-.164-1.531-.312-1.871-.066-.152-.164-.266-.219-.359-.098-.156-.16-.379-.207-.379 0 0-.344.762-1.664.762s-1.66-.762-1.66-.762c-.07.012-.109.25-.227.379-.105.113-.234.254-.312.527-.102.352-.18.871-.199 1.703-.051 2.242-.344 4.484-.449 4.617zm0 0" class="C E I"/><path d="M47.047 40.648c.066.078.145.438.051.594m6.121-.758c-.055.062-.078.328 0 .434" fill="none"/></g><g class="E"><g class="H O"><path d="M46.492 41.231c.027.211.199.355.473.383 0 0-.234-.172-.156-.344.031-.074-.184-.184-.316-.039zm1.727.172c.055.211.383.367.648.262 0 0-.266-.078-.316-.344 0 0-.172-.105-.332.082zm1.254-.199c.172.133-.051.355-.238.434 0 0 .605-.051.633-.234s.027-.293-.051-.316-.266.012-.344.117zm0 0"/><path d="M50.727 41.215c.012.16.133.398.316.465 0 0-.105-.133.023-.316s-.129-.238-.129-.238-.172 0-.211.09zm1.746-.129c-.066.262-.336.473-.535.539 0 0 .254-.328.187-.488s.281-.117.348-.051zm1.445-.172c-.027.262-.266.473-.555.527 0 0 .238-.199.199-.504s.355-.168.355-.023zm0 0" class="C"/></g><g stroke-width=".137" class="N C"><path d="M52.32 36.699c-.066.059-.105.203-.066.309s.555.555.582.516.051-.539-.039-.648-.434-.187-.477-.176zm-4.063.051c.066.063.105.207.066.313s-.555.555-.578.512-.055-.539.039-.645.434-.191.473-.18zm0 0"/><path d="M52.109 35.781c.187-.027.488.055.594.199.137.188.121.527 0 .766-.027.059-.645-.187-.645-.266 0-.211.051-.699.051-.699zm0 0"/><path d="M50.871 35.703c-.055.184-.117.566-.039.699l1.191.074c.082-.105.191-.508.008-.746zm0 0"/><path d="M52.691 35.887c-.609-.238-1.531-.316-1.82-.184 0 0-.105-.422-.027-.688s.344-.262.449-.262.949 0 1.105.078.32.055.293 1.055zm-4.223-.051c-.184-.027-.484.051-.594.195-.133.188-.117.527 0 .766.031.059.648-.184.648-.262 0-.215-.055-.699-.055-.699zm0 0"/><path d="M49.711 35.754c.051.187.117.57.039.699l-1.195.074c-.078-.105-.191-.508-.004-.746zm0 0"/><path d="M47.891 35.941c.605-.238 1.531-.316 1.82-.187 0 0 .105-.422.023-.684s-.34-.266-.445-.266-.953 0-1.109.082-.316.051-.289 1.055zm4.191 2.137c.293.078.766.262.793.445s.25.871.078 1.059c-.055.059-.266-.273-.484-.621-.215-.328-.387-.883-.387-.883zm0 0"/><path d="M52.742 38.262c-.223.008-.578-.184-.633-.316s-.094-.383.094-.883c.223.078.473.438.539.488zm-1.227-.539c-.34.34-.777.988-.938 1.25s-.156.504-.051.633 1.016-.98 1.094-1.41c.027-.145-.105-.473-.105-.473zm-.223-1.215c-.172 0-.355-.066-.461.066s-.133.672-.105.75.617-.016.656-.184c.016-.055-.09-.633-.09-.633zm.118.777c-.09-.027-.527.078-.645.172s-.316.926-.238 1.176.488-.555.754-.793.195-.195.195-.25-.066-.305-.066-.305zm-2.914.844c-.289.078-.766.266-.789.449s-.254.871-.082 1.055c.059.063.266-.273.488-.621.211-.328.383-.883.383-.883zm-.117-1.016c-.227.082-.473.441-.543.488-.129.094-.328.699 0 .711.227.012.582-.184.633-.316s.094-.379-.09-.883zm.34 1.914s.555 1.016.859 1.305c0 0-.488-.027-.633.172-.078.109-.488-.277-.883-.172 0 0 .5-.805.656-1.305zm.57-2.469c.172 0 .355-.063.461.066s.133.676.105.754-.617-.02-.66-.184c-.012-.055.094-.637.094-.637zm0 0"/><path d="M47.297 40.215c0 .051.117.262.383.234s.289-.051.289-.051c.922-1.055 1.371-3.902 1.348-4.035s0-.371-.582.023-.316.555-.184 1.164-.555 1.766-.977 2.32zm0 0"/><path d="M48.762 36.918c0 .078-.238 1.16-.238 1.16zm.301.855c.344.344.781.988.938 1.254s.16.5.055.633-1.02-.984-1.098-1.41c-.023-.145.105-.477.105-.477zm.105-.434a1.38 1.38 0 0 1 .648.172c.121.094.316.922.238 1.172s-.488-.555-.754-.793-.195-.195-.195-.25.063-.301.063-.301zM48.762 39c.129.477.816 1.332.816 1.332s.328-.078.5.172c0 0 .184-.316 0-.605s-1.105-1.242-1.105-1.504-.211.605-.211.605zm3.098-.027s-.555 1.016-.855 1.309c0 0 .488-.027.633.172.078.105.488-.277.883-.172 0 0-.5-.805-.66-1.309zm0 0"/><path d="M51.82 38.949c-.133.473-.816 1.332-.816 1.332s-.332-.082-.504.172c0 0-.184-.316 0-.609s1.109-1.238 1.109-1.504.211.609.211.609zm0 0"/><path d="M53.285 40.109c0 .051-.121.262-.383.234s-.289-.051-.289-.051c-.926-1.055-1.371-3.902-1.348-4.035s0-.371.582.023.316.555.184 1.164.555 1.766.977 2.32zm0 0"/><path d="M51.82 36.813c0 .078.238 1.16.238 1.16zm0 0"/></g><g class="J"><path d="M50.5 40.449c-.156.043-.184.277-.184.277s-.117.227-.117.316c0 0 0-.395-.094-.5s.039.16.066-.277h.238s.145.172.09.184zm0 0" class="I"/><g fill="rgb(71.764706%,56.078431%,23.137255%)"><path d="M48.828 40.555c-.211-.117-.898-.461-1.293.027zm0 0"/><g class="C"><path d="M51.664 40.676c.023-.227.156-.395.734-.395.488 0 .449.078.504.117zm0 0"/><path d="M53.563 40.117c-.133-.055-.781-.18-.598.59zm-6.703.176c.133-.055.531-.305.676.289zm0 0"/></g></g><path d="M48.348 28.547c-.207-.563-.035-.887.465-.93.316-.023.66 0 .66 0s-.027-.25.156-.277 1.059-.117 1.242-.012.211.105.211.105l.027.039s.512.777.906 2.98l-.328-.09.133.422-.41-.027.055.238-.16-.027s-.211.301-.117.578c0 0-.707-.191-.836-.594l-.184.371-.266-.5s-.316.156-.344.422c-.012.141-.246-.383-.191-.566s-.539.09-.539.09.039-.395.316-.539.594-1.711.184-1.742c-.543-.039-.594-.184-.594-.184l-.039.039s-.199-.102-.348.203zm0 0" class="C F K"/></g></g></g><path d="M49.988 27.789c-.023-.059.328-.156.445 0s-.195.16-.195.16l-.012-.105-.105.105c-.004 0-.082-.027-.133-.16zm0 0" class="E I"/><g fill="none" class="B D"><path d="M49.738 27.578c-.043.066-.027.121-.027.121s.043.051.5 0c.145-.016.285.016.41.09" stroke-width=".074" class="C K"/><path d="M48.84 40.648c.066.078.145.438.051.594m3.969-.969c.066.078.145.434.055.594" class="L"/></g><g class="E B"><path d="M49.93 19.836l.57-1.621.563 1.621h1.598l-1.27.926.574 1.688-1.453-1.07-1.52 1.098.621-1.742-1.215-.898zM37.969 22.34l-.117-1.715 1.16 1.266 1.465-.633-.797 1.348 1.195 1.324-1.762-.402-.922 1.465-.156-1.703-1.473-.344zm-9.887 6.938l-.785-1.531 1.566.711 1.098-1.156-.203 1.555 1.617.746-1.777.32-.25 1.852-.836-1.648-1.609.355zm-6.145 9.664l-1.297-1.129 1.715.078.59-1.609.391 1.641 1.777.09-1.527.961.457 1.813-1.258-1.18-1.477.898zM19.84 50.203l-1.625-.566 1.617-.57-.008-1.594.93 1.262 1.688-.578-1.063 1.461 1.102 1.512-1.605-.625-1.035 1.383zm2.25 11.23l-1.719.082 1.289-1.133-.602-1.48 1.332.828 1.348-1.168-.438 1.754 1.582.988-1.723.02-.426 1.813zm39.34-39.348l1.145-1.281-.098 1.715 1.477.605-1.523.371-.113 1.781-.941-1.543-1.816.434 1.234-1.375-.777-1.289zm9.773 6.461l1.551-.75-.746 1.551 1.133 1.121-1.551-.234-.781 1.602-.281-1.785-1.848-.293 1.668-.797-.23-1.492zm6.574 9.699l1.719-.102-1.277 1.145.699 1.586-1.422-.922-1.336 1.18.422-1.754-1.461-.934 1.707-.145.348-1.543zM80.164 50l1.621.574-1.625.559.027 1.73-.953-1.402-1.688.566 1.07-1.453-.98-1.426 1.629.531.973-1.367zm-2.406 11.895l1.23 1.156-1.711-.129-.656 1.602-.324-1.664-1.547-.145 1.328-.91-.344-1.699 1.293 1.129 1.313-.867zm-6.797 9.797l.715 1.563-1.531-.777-1.223 1.223.344-1.66-1.426-.777 1.633-.281.344-1.699.75 1.543 1.496-.195zm-41.969-.047l-1.543.762.73-1.555-1.141-1.113 1.551.223.77-1.605.297 1.781 1.73.332-1.453.648.258 1.707zm0 0" stroke="rgb(100%,100%,100%)" class="F G"/><g class="D"><g class="C K"><path d="M49.777 28.449c-.172.039-.523-.078-1.008-.145l-.082.043s-.199-.102-.348.203c-.207-.566-.035-.887.465-.93.316-.027.66 0 .66 0-.172 0-.223.223-.035.379.293.254.348.449.348.449zm0 0" class="H L"/><path d="M48.734 28.309s.055.109.594.184c.094.016.43-.043.43-.043l-.516-.066-.508-.074zm0 0" fill="rgb(92.54902%,71.764706%,19.215686%)" class="O"/></g><g class="G H"><path d="M49.367 53.957l-4.063-3.691.449-.105-1.215-1.293-.211.262-1.766-2.453 2.609 1.664-.367.234 2.426 1.902-.527.102 3.008 2.375zm-1.883.695l-4.824-2.621.41-.207-1.488-.969-.141.305-2.301-1.961 2.934.992-.305.32 2.809 1.27-.484.227 3.484 1.59zm.438.578l-4.582 3.023.012-.461-1.555.859.203.27-2.813 1.105 2.254-2.121.141.418 2.438-1.883-.027.539 3.047-2.328zm1.973.598l-3.738 4.023-.102-.449-1.305 1.195.262.215-2.473 1.738 1.691-2.59.234.371 1.926-2.406.098.531 2.406-2.98zm.738-1.871l4.063-3.691-.449-.105 1.215-1.293.211.262 1.766-2.453-2.609 1.664.367.234-2.426 1.902.527.102-3.008 2.375zm1.883.695l4.824-2.621-.41-.207 1.488-.969.141.305 2.301-1.961-2.934.992.305.32-2.809 1.27.484.227-3.484 1.59zm-.438.578l4.582 3.023-.012-.461 1.555.859-.203.27 2.813 1.105-2.254-2.121-.141.418-2.438-1.883.027.539-3.043-2.328zm-1.973.598l3.738 4.023.102-.449 1.305 1.195-.262.215 2.473 1.738-1.691-2.59-.234.371-1.926-2.406-.098.531-2.406-2.98zm0 0"/><path d="M49.973 53.852s-1.688.238-1.977.027-.387-.293-.395-.398c-.027-.316.262-.422.129-.633s-.473-.367-2.371-.367c0 0-.383-.039-.621-.227-.207-.16-.672-.078-.527.277 0 0-.832.199-2.469-.027-.922-.125-1.316-.215-1.375-.027s.375.637 1.203.793c0 0-.145.516 1.031.582 0 0 .051.738 1.371.406 0 0 .184.461.871.41 0 0 .012.371.555.566 0 0 .023.566.527.582 0 0 .328.406.828.289 0 0 .359.223.676.078 0 0 .234.238.684.055 0 0 .238.223.66.027 0 0 .434.25.766-.082s.434-2.332.434-2.332zm0 0s1.691.238 1.98.027.387-.293.395-.398c.027-.316-.266-.422-.133-.633s.477-.367 2.375-.367c0 0 .383-.039.621-.227.207-.16.672-.078.527.277 0 0 .832.199 2.465-.027.926-.125 1.316-.215 1.375-.027s-.371.637-1.203.793c0 0 .145.516-1.027.582 0 0-.055.738-1.371.406 0 0-.188.461-.871.41 0 0-.016.371-.555.566 0 0-.027.566-.527.582 0 0-.332.406-.832.289 0 0-.355.223-.672.078 0 0-.238.238-.688.055 0 0-.234.223-.656.027 0 0-.438.25-.766-.082s-.438-2.332-.438-2.332zm0 0"/></g></g></g><g fill="none" class="J B D"><path d="M44.301 52.57c.066.293.316.449 1.926.449 0 0 .293-.012.316.305m-1.711-.371c0 .516.512.699 1.332.41m.578.473s-.516.582-.883.477c-.277-.078-.25-.355-.25-.355m.883-.371s-.777.555-1.07.277c-.242-.23-.051-.328-.051-.328m.684.793c.109.207.188.383.477.289.266-.086.527-.305.566-.395" class="C"/><path d="M44.422 52.809s-1.055.504-2.797.465m3.164-.332s-.34.605-2.188.91m2.441-.449s-.16.383-1.031.832m.039.039c.676-.055 1.254-.371 1.242-.711m-.41 1.105s.621-.145.633-.66m-.117 1.227s.527-.012.645-.828"/><path d="M46.438 54.668a.5.5 0 0 0 .637.316c.289-.078.445-.449.445-.449" class="C"/><path d="M45.926 55.816c.277-.094.539-.41.617-.91m.105 1.215c.449-.238.504-.637.477-1.004"/><path d="M47.074 54.984c.156.344.316.398.551.371s.449-.633.449-.633m-.289.555c.262.184.422.156.527.129s.367-.262.367-.578" class="C"/><path d="M48.313 55.406c.027.238.027.555-.133.82m-.473-.871s.078.527-.211.789m1.277.121c.117-.227.227-.566.172-.883"/><path d="M48.523 55.301c.238.133.582.184.789-.156m6.332-2.574c-.066.293-.316.449-1.926.449 0 0-.289-.012-.316.305m1.715-.371c0 .516-.516.699-1.332.41m-.582.473s.52.582.887.477c.277-.078.25-.355.25-.355m-.883-.371s.777.555 1.066.277c.246-.23.055-.328.055-.328m-.688.793c-.105.207-.184.383-.473.289-.266-.086-.531-.305-.57-.395" class="C"/><path d="M55.527 52.809s1.055.504 2.797.465m-3.168-.332s.344.605 2.191.91m-2.441-.449s.16.383 1.027.832m-.039.039c-.672-.055-1.25-.371-1.238-.711m.41 1.105s-.621-.145-.637-.66m.121 1.227s-.527-.012-.648-.828"/><path d="M53.508 54.668c-.105.266-.344.398-.633.316s-.449-.449-.449-.449" class="C"/><path d="M54.023 55.816c-.277-.094-.543-.41-.621-.91m-.105 1.215c-.449-.238-.5-.637-.477-1.004"/><path d="M52.875 54.984c-.156.344-.316.398-.555.371s-.445-.633-.445-.633m.289.555c-.266.184-.422.156-.527.129s-.371-.262-.371-.578" class="C"/><path d="M51.637 55.406c-.027.238-.027.555.129.82m.477-.871s-.078.527.211.789m-1.277.121c-.121-.227-.227-.566-.172-.883"/><path d="M51.426 55.301c-.238.133-.582.184-.793-.156" class="C"/></g><g class="E"><g class="G H B D"><path d="M50.184 48.469c.105-.262.168-.473.141-1.105s-.633-.898-.191-1.477c0 0 0-.16-.16-.105s-.66.949-.66 1.344c0 1.371.871.766.871 1.344zm0 0"/><path d="M50.012 49.406s-.375-1.094.699-1.465c1.004-.344 1.215.316 1.797.055.289-.133.051-.504.051-.504s.055-.184.16-.051.473 1.316-.766 1.398-1.73.25-1.941.566zm0 0"/><path d="M50.277 49.328s.379-1.094-.699-1.465c-1.004-.344-1.211.316-1.793.055-.289-.133-.055-.504-.055-.504s-.051-.184-.156-.051-.477 1.316.766 1.398 1.727.25 1.938.566zm0 0"/><path d="M49.313 48.945c-.551 1.266 1.137 2.109 1.137 2.109.367-1.793-.633-1.898-.926-2.082zm0 0"/><path d="M49.313 50.133c-.656 1.238 1.156 2.152 1.156 2.152.375-1.828-.793-2.02-1.09-2.207zm.699 9.746s.379 1.094-.699 1.465c-1 .34-1.211-.316-1.793-.055-.289.133-.051.5-.051.5s-.055.188-.16.055-.473-1.32.766-1.398 1.727-.25 1.938-.566zm0 0"/><path d="M49.75 59.957s-.379 1.098.699 1.465c1.004.344 1.211-.316 1.793-.055.289.133.055.504.055.504s.051.184.156.051.477-1.316-.766-1.398-1.727-.25-1.938-.566zm0 0"/><path d="M50.527 60.34c.715-1.266-1.133-2.109-1.133-2.109-.371 1.793.633 1.898.922 2.082zm0 0"/><path d="M50.531 59.152C51.266 57.914 49.375 57 49.375 57c-.484 1.703.793 2.02 1.086 2.207zm-.848.965c-.105.262-.262 1.25-.105 1.883.152.617.633.871.316 1.398 0 0 0 .16.16.105s.656-.949.656-1.344c0-1.371-1.027-1.465-1.027-2.043zm-.328-8.746c-.91 1.848 1.152 2.57 1.152 2.57.395-1.902-.77-2.309-1.078-2.504zm0 0"/><path d="M50.609 57.625c.754-1.359-1.359-2.414-1.359-2.414-.68 1.594.852 2.441 1.16 2.637zm0 0"/><path d="M49.367 52.875c.211.398.672.945 1.199 1.121.078.027.457 1.215.344 1.82-.078.422-.25.621-.25.621s-.695-.902-1.266-1.215c-.438-.238-.488-1.238-.477-1.398.039-.633.449-.949.449-.949zm0 0"/></g><path d="M15.582 67.996s.109.379-.262.488c-.352.098-.41-.133-.613-.051-.102.039-.027.168-.027.168s-.02.063-.055.016-.137-.461.289-.465.594-.051.668-.156zm.055.02s.273-.285.551-.016c.262.254.094.422.266.555.082.07.16-.059.16-.059s.063-.012.039.039-.328.348-.543-.016-.344-.488-.473-.504zm-.012-.055s-.383-.098-.289-.473c.09-.352.316-.289.352-.504.016-.109-.133-.109-.133-.109s-.047-.051.012-.055.469.109.258.48-.25.543-.199.66zm67.93 1.391s.262-.293.551-.035c.273.242.109.414.285.543.09.066.16-.066.16-.066s.063-.016.043.039-.316.359-.547.004-.363-.473-.492-.484zm-.012-.051s-.387-.082-.309-.465c.074-.352.305-.301.328-.516.012-.109-.137-.102-.137-.102s-.047-.051.012-.059.469.094.277.469-.23.555-.172.672zm-.043.035s.125.375-.242.496c-.348.113-.414-.113-.613-.023-.102.043-.02.172-.02.172s-.02.063-.055.016-.156-.453.266-.477.594-.074.664-.184zm0 0" class="I"/></g></svg>