<?xml version="1.0" encoding="utf-8"?>
<!-- Generator: Adobe Illustrator 25.2.3, SVG Export Plug-In . SVG Version: 6.00 Build 0)  -->
<svg version="1.1" xmlns="http://www.w3.org/2000/svg" xmlns:xlink="http://www.w3.org/1999/xlink" x="0px" y="0px"
	 viewBox="0 0 600 600" style="enable-background:new 0 0 600 600;" xml:space="preserve">
<style type="text/css">
	.st0{fill:#404B7C;}
	.st1{fill:none;stroke:#9AB3DA;stroke-width:2;stroke-linecap:round;stroke-linejoin:round;stroke-miterlimit:10;}
	.st2{fill:#9AB3DA;}
	.st3{fill:none;stroke:#404B7C;stroke-width:2;stroke-linecap:round;stroke-linejoin:round;stroke-miterlimit:10;}
	.st4{fill:#F68D88;}
	.st5{fill:none;stroke:#ECBDBB;stroke-width:1.5;stroke-linecap:round;stroke-linejoin:round;stroke-miterlimit:10;}
	.st6{fill:#FFFFFF;}
	.st7{fill:#6B81BE;}
	.st8{fill:#ECBDBB;}
	.st9{fill:none;stroke:#404B7C;stroke-width:1.5;stroke-linecap:round;stroke-linejoin:round;stroke-miterlimit:10;}
	.st10{fill:none;stroke:#ECBDBB;stroke-width:1.4563468;stroke-linecap:round;stroke-linejoin:round;stroke-miterlimit:10;}
	.st11{fill:none;stroke:#6B81BE;stroke-width:1.5;stroke-linecap:round;stroke-linejoin:round;stroke-miterlimit:10;}
	.st12{fill:#E9F3FF;}
	
		.st13{fill:none;stroke:#404B7C;stroke-width:2;stroke-linecap:round;stroke-linejoin:round;stroke-miterlimit:10;stroke-dasharray:6;}
</style>
<g id="PLANTS_2">
	<g>
		<g>
			<g>
				<path class="st0" d="M454.1040344,511.2253418c-14.6974487-3.1692505,6.190979-51.5849609,14.9832764-62.0429382
					c8.7922668-10.4579773,10.3074341,2.4125671,10.3074341,2.4125671s24.8574829-37.5116577,38.7676086-42.3594666
					c13.9101562-4.8477783,6.7047729,9.6729431,6.7047729,9.6729431s35.8669434-28.0567932,52.6807251-16.4791565
					c16.8137817,11.5776672-30.7055054,34.5279541-30.7055054,34.5279541s14.7035522-2.8164062,17.8773193,5.309082
					c3.1737061,8.1254883-54.212677,30.5398254-54.212677,30.5398254s13.6203918-0.344696,16.5957336,7.2729492
					C530.078064,487.6967773,476.7938843,516.117981,454.1040344,511.2253418z"/>
			</g>
			<g>
				<path class="st1" d="M568.7808228,409.9733276c0,0-64.4556274,31.3330383-113.4507446,94.4613953"/>
				<path class="st1" d="M541.2560425,447.348999c0,0-23.7765503,5.5302124-41.7408752,10.5188904
					c0,0,8.6539612-23.6739807,16.8681335-36.3649597"/>
				<path class="st1" d="M497.8249817,486.3513489l-35.0138245,8.822052c0,0,2.7662048-22.2549438,7.9960022-35.1718445"/>
			</g>
		</g>
		<g>
			<g>
				<path class="st2" d="M421.1461792,508.7176514c-22.0151672,1.1572876-11.0416565-75.3750305-2.6142273-93.5494385
					c8.4273987-18.174408,15.5122986-0.5427856,15.5122986-0.5427856s20.7760315-62.6255493,38.5994568-74.8255615
					c17.8233948-12.2000427,13.2011719,11.1144409,13.2011719,11.1144409s39.985199-53.4721985,68.2229919-43.5430298
					c28.237854,9.9291382-30.1969604,60.6481628-30.1969604,60.6481628s19.7260132-9.6300049,27.3364258,0.6501465
					s-64.9931946,64.0285645-64.9931946,64.0285645s19.1419983-5.7164307,26.2767639,3.9212036
					C519.6256104,446.2569885,455.1330261,506.9310913,421.1461792,508.7176514z"/>
			</g>
			<g>
				<path class="st3" d="M544.5576782,321.412384c0,0-79.1836853,69.0831299-124.2832947,177.2251282"/>
				<path class="st3" d="M519.954895,384.8694153c0,0-31.5234985,16.9532471-55.0299377,30.9089661
					c0,0,3.1582642-36.8233643,9.9104004-57.9358215"/>
				<path class="st3" d="M473.4674683,456.7344666l-46.1618042,25.9253845c0,0-4.6288147-32.5550537-2.1866455-52.8415833"/>
			</g>
		</g>
	</g>
</g>
<g id="PLANTS_1">
	<g>
		<g>
			<g>
				<path class="st4" d="M145.8959656,511.2253418c14.697464-3.1692505-6.1909943-51.5849609-14.9832764-62.0429382
					s-10.3074188,2.4125671-10.3074188,2.4125671S95.747757,414.083313,81.837616,409.2355042
					c-13.910141-4.8477783-6.7047119,9.6729431-6.7047119,9.6729431s-35.8669472-28.0567932-52.6807327-16.4791565
					c-16.8137875,11.5776672,30.705471,34.5279541,30.705471,34.5279541s-14.7035713-2.8164062-17.8772812,5.309082
					s54.2126503,30.5398254,54.2126503,30.5398254s-13.620369-0.344696-16.5957184,7.2729492
					C69.921936,487.6967773,123.2061234,516.117981,145.8959656,511.2253418z"/>
			</g>
			<g>
				<path class="st5" d="M31.2191525,409.9733276c0,0,64.4556503,31.3330383,113.4507523,94.4613953"/>
				<path class="st5" d="M58.7439499,447.348999c0,0,23.7765503,5.5302124,41.7408676,10.5188904
					c0,0-8.6539383-23.6739807-16.8681183-36.3649597"/>
				<path class="st5" d="M102.1750031,486.3513489l35.0138245,8.822052c0,0-2.7661743-22.2549438-7.9959869-35.1718445"/>
			</g>
		</g>
		<g>
			<g>
				<path class="st2" d="M178.8538361,508.7176514c22.0151367,1.1572876,11.041626-75.3750305,2.614212-93.5494385
					s-15.5122986-0.5427856-15.5122986-0.5427856s-20.7760315-62.6255493-38.5994492-74.8255615
					c-17.8234024-12.2000427-13.2011871,11.1144409-13.2011871,11.1144409s-39.9851761-53.4721985-68.2230072-43.5430298
					c-28.2378368,9.9291382,30.1969643,60.6481628,30.1969643,60.6481628s-19.7260056-9.6300049-27.3363991,0.6501465
					s64.9931946,64.0285645,64.9931946,64.0285645s-19.1419983-5.7164307-26.276741,3.9212036
					S144.8669739,506.9310913,178.8538361,508.7176514z"/>
			</g>
			<g>
				<path class="st3" d="M55.442337,321.412384c0,0,79.18367,69.0831299,124.2832947,177.2251282"/>
				<path class="st3" d="M80.0450897,384.8694153c0,0,31.5235062,16.9532471,55.0299377,30.9089661
					c0,0-3.1582489-36.8233643-9.9103775-57.9358215"/>
				<path class="st3" d="M126.5325241,456.7344666l46.1618118,25.9253845c0,0,4.62883-32.5550537,2.1866455-52.8415833"/>
			</g>
		</g>
	</g>
</g>
<g id="CHAT_2">
	<g>
		<path class="st2" d="M543.6290283,266.3164368v-43.8499908c0-4.539978-3.6799927-8.2200317-8.2199707-8.2200317h-72.5700378
			c-4.539978,0-8.2200317,3.6800537-8.2200317,8.2200317v25.6699829l-8.4599609,8.4600372
			c-0.9000244,0.8999634-0.2600098,2.4400024,1.0100098,2.4400024h7.4499512v7.2799683
			c0,4.5400391,3.6800537,8.2200317,8.2200317,8.2200317h72.5700378
			C539.9490356,274.5364685,543.6290283,270.8564758,543.6290283,266.3164368z"/>
		<g>
			<g>
				<g>
					<path class="st6" d="M524.8353271,239.6816254h-47.0484314c-2.2149048,0-4.010437-1.7955322-4.010437-4.0104523v-0.0000153
						c0-2.2149048,1.7955322-4.0104523,4.010437-4.0104523h47.0484314c2.2149048,0,4.010437,1.7955475,4.010437,4.0104523v0.0000153
						C528.8457642,237.8860931,527.0502319,239.6816254,524.8353271,239.6816254z"/>
				</g>
				<g>
					<path class="st6" d="M504.6966858,257.1221619h-26.90979c-2.2149048,0-4.010437-1.7955322-4.010437-4.0104523l0,0
						c0-2.21492,1.7955322-4.0104675,4.010437-4.0104675h26.90979c2.2149048,0,4.0104675,1.7955475,4.0104675,4.0104675l0,0
						C508.7071533,255.3266296,506.9115906,257.1221619,504.6966858,257.1221619z"/>
				</g>
			</g>
		</g>
	</g>
</g>
<g id="CHAT">
	<g>
		<path class="st2" d="M373.664917,126.7022934v43.849968c0,4.539978-3.6799927,8.2200317-8.2199707,8.2200317H292.874939
			c-4.539978,0-8.2200317-3.6800537-8.2200317-8.2200317v-25.6699829l-8.4599609-8.460022
			c-0.9000244-0.8999634-0.2600098-2.4400024,1.0100098-2.4400024h7.4499512v-7.2799606
			c0-4.5400391,3.6800537-8.2200317,8.2200317-8.2200317h72.5700073
			C369.9849243,118.4822617,373.664917,122.1622543,373.664917,126.7022934z"/>
		<g>
			<g>
				<path class="st6" d="M354.8711853,143.9174652h-47.0483704c-2.2149353,0-4.0104675-1.7955322-4.0104675-4.0104523l0,0
					c0-2.21492,1.7955322-4.0104675,4.0104675-4.0104675h47.0483704c2.2149353,0,4.0104675,1.7955475,4.0104675,4.0104675l0,0
					C358.8816528,142.121933,357.0861206,143.9174652,354.8711853,143.9174652z"/>
			</g>
			<g>
				<path class="st6" d="M334.7325745,161.358017h-26.9097595c-2.2149353,0-4.0104675-1.7955475-4.0104675-4.0104675l0,0
					c0-2.21492,1.7955322-4.0104675,4.0104675-4.0104675h26.9097595c2.2149353,0,4.0104675,1.7955475,4.0104675,4.0104675l0,0
					C338.743042,159.5624695,336.9475098,161.358017,334.7325745,161.358017z"/>
			</g>
		</g>
	</g>
</g>
<g id="WOMAN_BACKGROUND">
	<circle class="st7" cx="168.6931305" cy="146.7052612" r="87.3895569"/>
</g>
<g id="WOMAN_LEFT_ARM">
	<g>
		<g>
			<path class="st4" d="M167.4753418,118.8602676l-0.2469482-2.4760513l1.451416,0.2194595l11.6022034-14.1732788
				c0.665863-0.8134155,1.8650665-0.9330368,2.6784668-0.2671738l24.873291,20.3611832l2.0802155,0.3145676l0.1071625,1.7860489
				l-0.0000305,0.0000381c0.2524567,0.6241531,0.1735992,1.360321-0.2829437,1.9180374l-12.3851471,15.1297226
				c-0.665863,0.8134155-1.865036,0.933075-2.6784363,0.2672119l-26.5105438-21.7014313
				C167.7310638,119.8841629,167.5013123,119.3783493,167.4753418,118.8602676z"/>
			<path class="st0" d="M197.5571747,138.6576691l11.4850464-14.0301514
				c0.9144135-1.1170578,0.7501373-2.7638855-0.3669128-3.6783066l-25.4109497-20.8013077
				c-1.1170502-0.9144135-2.7638855-0.750145-3.678299,0.3669052l-11.4850464,14.030159
				c-0.9144135,1.1170578-0.7501373,2.7638855,0.3669128,3.6783066l25.4109497,20.8013077
				C194.9959259,139.9389954,196.6427612,139.7747345,197.5571747,138.6576691z"/>
			<path class="st2" d="M196.3028107,136.638855l10.5125885-12.8422012
				c0.2738953-0.3346024,0.2247009-0.8278961-0.1099091-1.1018066l-24.7632599-20.2711182
				c-0.33461-0.2739029-0.8279114-0.2247009-1.1018066,0.1099014l-10.5125885,12.8422012
				c-0.2738953,0.3346024-0.2247009,0.8279037,0.1099091,1.1018066l24.7632599,20.2711258
				C195.535614,137.0226593,196.0289154,136.973465,196.3028107,136.638855z"/>
		</g>
		<g>
			<path class="st8" d="M189.7886505,103.5868378c-6.0866241,1.018425-3.8242645,5.5954361-0.0485229,5.6570282
				c0,0-2.749649,1.3987656-0.8641052,3.8063889c1.8855591,2.4076233,7.8496094,1.5133286,9.1958618,2.1185684
				c0,0-5.0605927-0.8553925-4.2714081,2.6134186c0.7891693,3.468811,8.5380096,3.1139984,8.5380096,3.1139984
				s-4.52565,0.3198929-3.9162292,3.187912c0.6094055,2.8680115,5.7664948,3.1708603,5.7664948,3.1708603
				s-0.7237854,4.1440659,0.9380951,6.8542709c1.6618958,2.7101898,6.2708893,1.7500458,6.2708893,1.7500458l2.6746368,7.6700287
				c0,0,3.4993744,1.8069153,7.2006531,0.1757812c3.7012634-1.6311493,3.0437012-6.0164795,3.0437012-6.0164795
				l-5.7926178-6.9334412c0,0-6.4805756-17.5020523-8.510788-20.8744507
				C207.9830933,106.5083771,200.1117249,101.8595581,189.7886505,103.5868378z"/>
			<path class="st9" d="M191.1786804,108.9219208c0,0,7.5445557-1.2083282,13.3663483,0.7918777"/>
			<path class="st9" d="M199.6143341,115.2189484c0,0,4.7524719,0.0679245,7.7821808,0.59832"/>
			<path class="st9" d="M203.5054169,120.9813232c0,0,2.9155426-0.1002884,5.7795563,0.6924286"/>
		</g>
		<g>
			<path class="st4" d="M251.2247009,217.5742645c-31.5930023,28.4466248-72.5019836-30.2295227-79.5518951-45.7689514
				c-7.0509186-15.5466003-5.4298859-33.3321075,15.7993927-25.1000519
				c14.1284332,5.4785767,34.20784,29.5961761,34.7529144,30.5305176l-9.2860718-25.1001434l-2.4231873-6.5359039
				c0,0-0.4372406-4.6836853,5.4044952-7.7096558c5.8489532-3.0270538,9.5816498-2.6369476,9.5816498-2.6369476
				s2.1670837,2.1269989,5.4135742,5.7561646C244.1887054,155.8217163,275.5657654,195.6638031,251.2247009,217.5742645z"/>
			<path class="st10" d="M223.0415344,178.3567047c0,0,10.299118,14.4459076,13.9690399,24.9184418"/>
			<path class="st2" d="M230.9155731,141.0092926c-13.4702301,1.6001282-17.0841217,8.5332642-17.976532,11.1263428
				l-2.4231873-6.5359039c0,0-0.4372406-4.6836853,5.4044952-7.7096558
				c5.8489532-3.0270538,9.5816498-2.6369476,9.5816498-2.6369476S227.6690826,137.380127,230.9155731,141.0092926z"/>
		</g>
	</g>
</g>
<g id="WOMAN_HAIR">
	<path class="st0" d="M184.4636536,85.6322403c0,0-0.091217-0.1779709-0.2849426-0.4861755
		c-1.3683014-2.1768417-7.8509369-10.8506699-23.433609-9.2037201
		c-17.7889099,1.880127-24.7309265,23.5739212-19.2351532,32.5406876
		c5.4957581,8.9667664-4.772644,13.0162811-15.4749146,17.4996643s-19.2351608,19.0905304-9.1113892,32.2514343
		s61.7549896,16.1980286,65.0813751,0.5785065s-7.2312622-28.2019348-5.9296417-40.7843323L184.4636536,85.6322403z"/>
</g>
<g id="WOMAN_NECK">
	<g>
		<polygon class="st8" points="174.0673981,120.203476 172.4128876,128.6727448 170.7352295,137.2576752 161.7684631,136.1006775 
			163.3188782,119.6943893 163.7932129,114.6961288 		"/>
		<path class="st0" d="M174.0673981,120.203476l-1.6545105,8.4692688c-5.3569183-0.694252-7.8907623-5.0908432-9.0940094-8.9783554
			l0.4743347-4.9982605L174.0673981,120.203476z"/>
	</g>
</g>
<g id="WOMAN_BODY_x27_">
	<g>
		<path class="st4" d="M144.4979706,132.5319366l2.8925171,12.8717041l35.4332275,1.3015747l4.0494995-12.4377441
			C165.3240204,123.7098007,144.4979706,132.5319366,144.4979706,132.5319366z"/>
		<path class="st4" d="M210.3021698,223.5716705c2.0244751-8.4088135,5.7205811-24.6224365,5.9299927-31.7433472
			c0.2892456-9.8344727-12.4378052-29.7928467-12.4378052-29.7928467s-14.4625244-19.958252-39.3380737-20.5367432
			c-24.8755493-0.5785522-41.9366455,12.8287964-41.9366455,12.8287964s-5.0103149,27.3425293-9.8052368,59.4812622
			c15.1625977,12.6625977,34.6792603,20.2860107,55.9787598,20.2860107
			C183.7570648,234.0948029,197.9304047,230.2828522,210.3021698,223.5716705z"/>
		<path class="st10" d="M209.2462158,171.5447388c3.4149475,6.5116577,7.1439972,14.9093018,6.9859314,20.2836151
			c-0.1931763,6.5680847-3.3537445,20.8771362-5.4319305,29.6577911"/>
		<path class="st10" d="M150.4177246,142.6338196c4.3100433-0.7983398,9.0149536-1.2519073,14.038559-1.1350708
			c6.5664215,0.15271,12.4072571,1.6558075,17.4480133,3.7857361"/>
	</g>
</g>
<g id="WOMAN_RIGHT_ARM">
	<g>
		<g>
			<g>
				<path class="st4" d="M140.2166595,198.1687775c23.9552002-28.9362793,6.6711426-53.1021729-8.0233765-48.4782104
					c-11.5043945,3.6201172-28.6030273,18.0142822-43.4902344,32.2467041
					c6.617981,15.0033569,17.3304443,27.7927856,30.7248535,36.9520874
					C126.080307,213.2414093,133.6238861,206.1324005,140.2166595,198.1687775z"/>
			</g>
			<g>
				<path class="st10" d="M132.1932678,149.690567c14.6945343-4.6239319,31.9786072,19.5419617,8.023407,48.4782104
					c-3.6878967,4.4547272-7.673645,8.6426086-11.6344452,12.4568329c0,0-3.40345,3.1163483-7.257103,6.5082245"/>
			</g>
		</g>
	</g>
</g>
<g id="WOMAN_HEAD">
	<g>
		<path class="st8" d="M170.8802643,88.9586182c-9.6548309,5.2533646-14.7517853,34.8546982,2.4586182,36.3009491
			S190.5493011,78.2563477,170.8802643,88.9586182z"/>
		<path class="st0" d="M159.8887329,112.8217926c0,0,3.3263855-8.3882675,7.5205231-13.5947723
			c0,0,10.2683868,6.5081329,19.0905304,3.3263779s13.7394104-20.1029129,6.2188873-23.4292984
			c-7.5205078-3.3263779-11.5700226,4.1941376-11.5700226,4.1941376S148.752594,73.9175949,159.8887329,112.8217926z"/>
		<g>
			<path class="st8" d="M163.504364,110.2185364c0,0-2.747879-10.8468933-11.4253845-8.6775131
				c-8.6775208,2.1693802-0.7231293,18.656662,11.7146454,13.1608963L163.504364,110.2185364z"/>
			<g>
				<g>
					<path class="st0" d="M160.1496429,112.7737732c-0.2310638,0-0.4496918-0.1395416-0.5389557-0.367775
						c-0.024292-0.062149-2.4755707-6.1776505-7.6233368-6.9578323c-0.3163605-0.0474548-0.5332947-0.3423538-0.4852753-0.6581573
						c0.0474548-0.3169327,0.3440399-0.5327454,0.6581573-0.4852905c5.8160706,0.8807449,8.4204559,7.4030075,8.5283661,7.680397
						c0.1158142,0.2977219-0.0310669,0.6327362-0.3287964,0.7485504
						C160.2908783,112.7607803,160.219696,112.7737732,160.1496429,112.7737732z"/>
				</g>
				<g>
					<path class="st0" d="M155.4651337,111.7207184c-0.3118439,0-0.5688934-0.2474442-0.5779266-0.561554
						c-0.0016937-0.0785217-0.0367279-1.9592209,1.3756256-4.2099457c0.1694946-0.270607,0.5276642-0.3536606,0.7971344-0.1824799
						c0.2706146,0.169487,0.3525238,0.5265274,0.1824799,0.7971344c-1.2146301,1.9354935-1.1988068,3.5501022-1.1982422,3.565918
						c0.0056458,0.3186264-0.2468719,0.5830231-0.5649414,0.5903625
						C155.4747467,111.7207184,155.4696655,111.7207184,155.4651337,111.7207184z"/>
				</g>
			</g>
		</g>
	</g>
</g>
<g id="WOMAN_FACE">
	<g>
		<path class="st0" d="M168.2595673,105.7050171c0,0,2.0572205-3.7259674,4.8831787-2.1412048
			c0,0,0.1173706-0.862175,0.8748474-0.8472061c0.7574921,0.0149612,0.7262268,2.3854752,0.7262268,2.3854752
			S171.2846069,104.6593094,168.2595673,105.7050171z"/>
		<path class="st0" d="M184.435379,108.2535477c0,0-0.0579681-3.8919907-2.3474426-2.9166946
			c0,0-0.0250549-0.7190933-0.5076447-0.8218842c-0.8347015-0.1777878-1.1072693,2.0435257-1.1072693,2.0435257
			S182.8886414,106.7114716,184.435379,108.2535477z"/>
		<g>
			
				<ellipse transform="matrix(0.0763355 -0.9970822 0.9970822 0.0763355 48.944149 273.6060486)" class="st0" cx="172.1489258" cy="110.3857803" rx="1.9756618" ry="1.5979617"/>
			<circle class="st6" cx="172.5536804" cy="109.7137985" r="0.4249125"/>
		</g>
		<g>
			
				<ellipse transform="matrix(0.0763355 -0.9970822 0.9970822 0.0763355 56.8971634 283.6283875)" class="st0" cx="181.5348969" cy="111.1043625" rx="1.9756618" ry="1.5979617"/>
			<circle class="st6" cx="181.9396515" cy="110.432373" r="0.4249125"/>
		</g>
		<g>
			<path class="st0" d="M177.3939514,117.5266342c-0.4739838,0-0.9174652-0.0875626-1.2355347-0.1932068
				c-0.3028107-0.100563-0.4655151-0.4271011-0.3660736-0.7299118c0.0994263-0.3022385,0.4270935-0.468338,0.7293396-0.3689041
				c0.0169373,0.0056458,1.6377563,0.5203094,2.1292572-0.4977188c0.1062164-0.2197571,0.0593262-0.3022385,0.0412445-0.3338776
				c-0.177948-0.3129807-1.0372314-0.5463028-1.5891876-0.5948868c-0.3141022-0.0271149-0.549118-0.3016739-0.5276489-0.6157837
				l0.2655182-3.8551712c0.0225983-0.319191,0.3011169-0.5530777,0.6169281-0.5378265
				c0.3191833,0.0220337,0.5592804,0.2982941,0.5378113,0.6169205l-0.2287903,3.3201675
				c0.6225586,0.1231613,1.5434113,0.4146652,1.9304047,1.0937271c0.1672211,0.2932053,0.3022461,0.7756653-0.0045166,1.4106598
				C179.2108002,117.237381,178.2532196,117.5266342,177.3939514,117.5266342z"/>
		</g>
		<path class="st6" d="M177.1885986,121.0696411c0,0-4.3835449,2.5476151-6.8244781-2.8205261L177.1885986,121.0696411z"/>
	</g>
</g>
<g id="ORNAMENT_6">
	<g>
		<line class="st11" x1="281.3569031" y1="73.1001358" x2="281.3569031" y2="77.8123398"/>
		<line class="st11" x1="281.3569031" y1="87.0011292" x2="281.3569031" y2="82.2889252"/>
		<line class="st11" x1="288.3074036" y1="80.0506363" x2="283.5951843" y2="80.0506363"/>
		<line class="st11" x1="274.4064026" y1="80.0506363" x2="279.1186218" y2="80.0506363"/>
	</g>
</g>
<g id="ORNAMENT_5">
	<g>
		<line class="st11" x1="491.2417908" y1="125.099823" x2="491.2417908" y2="129.6307831"/>
		<line class="st11" x1="491.2417908" y1="138.466156" x2="491.2417908" y2="133.9351959"/>
		<line class="st11" x1="497.9249573" y1="131.7829895" x2="493.3940125" y2="131.7829895"/>
		<line class="st11" x1="484.5586243" y1="131.7829895" x2="489.0895996" y2="131.7829895"/>
	</g>
</g>
<g id="ORNAMENT_4">
	<g>
		<line class="st11" x1="271.2875977" y1="226.6347961" x2="271.2875977" y2="231.1657562"/>
		<line class="st11" x1="271.2875977" y1="240.0011292" x2="271.2875977" y2="235.4701691"/>
		<line class="st11" x1="277.9707642" y1="233.3179626" x2="273.4397888" y2="233.3179626"/>
		<line class="st11" x1="264.6044312" y1="233.3179626" x2="269.135376" y2="233.3179626"/>
	</g>
</g>
<g id="ORNAMENT_3">
	<circle class="st11" cx="494.6836243" cy="304.1298523" r="5.2277226"/>
</g>
<g id="ORNAMENT_2">
	<circle class="st12" cx="429.176239" cy="183.1271515" r="5.5"/>
</g>
<g id="ORNAMENT_1">
	<circle class="st12" cx="49.9600067" cy="250.6402283" r="6.6666665"/>
</g>
<g id="MAN_RIGHT_ARM">
	<g>
		<g>
			<path class="st4" d="M325.9733887,340.0167542c-27.0917358,15.2022095-56.4382629,120.821167-56.4382629,120.821167
				s-31.366333,4.0444031-32.7920837,22.1037903c-1.4257355,18.0594177,5.7029724,26.3542175,36.1188049,26.3542175
				c30.415863,0,50.3815002-5.9185486,53.7055969-38.7106323c2.2863159-22.5543213,19.1722717-89.5637207,18.413208-122.3634033
				C344.6361389,333.3336182,325.9733887,340.0167542,325.9733887,340.0167542z"/>
			<path class="st5" d="M271.9113464,460.8379211c0,0,14.7944641-0.2328186,19.9913025,16.2820129"/>
			<path class="st7" d="M252.5450287,469.1595459c-10.5742645,0.7128601-14.257431,1.901001-14.257431,1.901001
				s-9.267334,8.3168335-7.1287079,18.5346375c2.1386108,10.2178345,6.6534576,11.8811951,6.6534576,11.8811951
				l17.8217773,1.7821655c0,0,5.9406128-7.1286926,6.415863-17.0494995
				C262.5252075,476.288269,252.5450287,469.1595459,252.5450287,469.1595459z"/>
		</g>
		<g>
			<path class="st0" d="M231.2776947,478.6644897c-15.8621674,0-16.3960419,22.4554443-16.3960419,22.4554443h34.0990143
				C248.9806671,501.1199341,250.5252228,478.6644897,231.2776947,478.6644897z"/>
			<path class="st8" d="M237.0363007,472.1304626c-11.6650085,0.1976929-20.8476715,5.68573-23.4718628,11.8088074
				c-2.6241913,6.1231079,0.4373627,12.9751282,3.9362793,11.37146c0,0,1.8952332,2.0410461,4.6652069,0.2915955
				c0,0,2.9157715,2.1868286,4.9568024,0.5831604s2.4783936-7.7267761,4.9567871-11.6630554
				c0,0-2.6241913,10.2051697,0.5831451,11.9546204s5.1025848-6.8520508,7.7267761-10.9341125
				c2.624176-4.0820618,1.1663055,6.1231079,0.2915649,9.7677917c-0.8747253,3.6447144,9.4762268,1.4578857,9.9135895-8.6014709
				C251.0319519,476.6498718,245.6378021,471.9846802,237.0363007,472.1304626z"/>
			<path class="st9" d="M221.8743591,494.0350952c0,0,0.2186737-8.9659424,4.5923157-13.8862915"/>
			<path class="st9" d="M216.95401,493.1603699c0,0-1.2027588-8.6379395,3.3895721-13.6676331"/>
		</g>
	</g>
</g>
<g id="MAN_BODY">
	<g>
		<path class="st4" d="M464.8286133,530.9898071H291.3085938c3.5571289-103.9082642,25.5048828-171.1715393,30.9798279-186.4736938
			c0.772522-2.1591492,2.3864746-3.9053955,4.4699402-4.8634644c24.3332214-11.1896973,51.1202393-16.3128357,51.1202393-16.3128357
			c31.8300171-0.1499634,64.5,26.9400024,64.5,26.9400024C455.4185791,384.4898376,462.6085815,492.2798157,464.8286133,530.9898071
			z"/>
		<path class="st5" d="M321.4194641,347.4236755c-5.3642273,16.4186401-14.9071045,49.4849243-21.9046631,95.1516724
			c0,0-5.9763184,43.3110046-7.0498352,64.7077026"/>
		<path class="st7" d="M380.9713135,313.6176758c-5.2705994-0.2403259-11.7472839,1.9878235-15.1025391,3.3199463
			c-1.3561096,0.5384216-2.2071228,1.8872986-2.1317444,3.3444214l0.8358459,16.1630249
			c0,0,6.743042,8.4129028,17.9632568,7.7799988s16.6203003-7.7594604,16.6203003-7.7594604l1.7166443-15.6827698
			c0.1570129-1.4344482-0.5924683-2.8284912-1.8980713-3.4430237
			C396.1842041,316.0261841,390.5018616,314.0522461,380.9713135,313.6176758z"/>
		<g>
			<path class="st8" d="M387.6268311,299.5849304l0.6746826,7.037323l1.5805359,16.5402222
				c-0.3486633,0.1142578-0.6994019,0.2095947-1.0503235,0.3050842c-6.1665955,1.6820679-11.848999,1.0105896-15.9048767-0.085968
				l1.2279663-8.9376526l1.7313232-12.5102539L387.6268311,299.5849304z"/>
			<path class="st0" d="M387.6268311,299.5849304l0.6746826,7.037323c-2.6537781,2.8570557-7.0004578,5.8803101-14.146698,7.8216858
				l1.7313232-12.5102539L387.6268311,299.5849304z"/>
		</g>
		<g>
			<path class="st2" d="M384.4846497,325.1722717c-4.7361145,0.5179749-8.875061-0.1638794-11.7857666-0.9501343
				c-0.5043945-0.140625-0.9832764-0.2823181-1.4451599-0.4250183c-3.1505127-0.9934387-5.0595398-2.0952759-5.1381226-2.1413879
				c-0.4162903-0.2417297-0.5566101-0.7744141-0.3147888-1.1898499c0.2403259-0.4135742,0.7718811-0.5563354,1.1898499-0.3147888
				c0.0181885,0.0099792,1.8356323,1.0559998,4.7825012,1.9853516c0.4406738,0.1364746,0.9052734,0.2728882,1.3867188,0.4066162
				c3.605072,0.9753418,9.2092896,1.7816467,15.442627,0.085144c0.3586121-0.0982056,0.6841431-0.1859741,1.0076599-0.2922974
				c2.5910645-0.8074646,5.1274719-2.0364075,7.5545654-3.6552124c0.3950195-0.2654724,0.9382629-0.1607361,1.2061768,0.2408447
				c0.2676392,0.3990784,0.1592407,0.9401245-0.2408447,1.2061768c-2.5639343,1.7124023-5.2532654,3.0127869-7.9897766,3.8660583
				c-0.3400269,0.1115723-0.6936646,0.208374-1.0506592,0.305542
				C387.5089722,324.7303772,385.9664917,325.0102234,384.4846497,325.1722717z"/>
		</g>
	</g>
</g>
<g id="MAN_LEFT_ARM">
	<g>
		<g>
			<path class="st8" d="M351.7529297,476.5852966l-8.9108887,1.0693054c0,0-19.6039429-8.0198059-24.7722778-7.3069458
				c-5.1683044,0.7128906-21.9207764,15.1485291-23.5247498,20.1386108
				c-1.6039429,4.9901123,1.6039734,11.0494995,1.6039734,11.0494995h36.7128601l5.168335-2.8514709h20.4950256
				L351.7529297,476.5852966z"/>
			<path class="st9" d="M313.0796814,475.5159912c0,0.2673035-11.9406128,9.2673035-15.5049438,15.0593872"/>
			<path class="st9" d="M317.7133484,479.7932129c0,0-12.1188354,9.8910828-15.1485291,14.7920837"/>
			<path class="st9" d="M321.27771,485.407074c0,0-9.8911133,8.0198059-11.9406128,10.5148315"/>
		</g>
		<path class="st7" d="M378.5493774,503.633728c0,0-17.9801331-0.2539673-23.3130188-1.230011
			c-5.3328552-0.9760437-9.6061401-25.8862-3.8082275-31.9941406l23.0761719-3.7498779L378.5493774,503.633728z"/>
		<path class="st4" d="M438.9416199,347.7633972c10.5527344,4.3341675,17.8361816,14.181427,19.5160828,25.46521
			c8.681427,58.3119202,10.8450317,116.1660461-5.9035645,129.1786804
			c-17.4859619,13.5855103-66.4502563,16.5500488-77.5924683,7.588623
			c-11.1422119-8.9614563-8.769104-41.3858643-3.3573608-47.4951172c5.4117432-6.1092834,41.0991211-8.9056091,41.0991211-8.9056091
			s-16.1341858-51.2645569-12.5438538-84.6678772C402.3041992,348.9745789,422.2113953,340.8920898,438.9416199,347.7633972z"/>
		<path class="st5" d="M452.5541382,502.4072876c-17.4859619,13.5855103-66.4502563,16.5500488-77.5924683,7.588623
			c-11.1422119-8.9614563-8.769104-41.3858643-3.3573608-47.4951172c5.4117432-6.1092834,41.0991211-8.9056091,41.0991211-8.9056091
			s-16.1341858-51.2645569-12.5438538-84.6678772c1.7168579-15.9731445,14.8173828-24.3388977,28.5584412-23.5152283"/>
		<g>
			<path class="st5" d="M439.7987671,348.2218933"/>
			<path class="st5" d="M429.176239,475.0016479c-14.4002991-15.0276184-16.4728088-21.4064636-16.4728088-21.4064636
				s-1.5649719,8.9466248,4.4168396,22.7078857"/>
		</g>
	</g>
</g>
<g id="MAN_HEAD">
	<g>
		<g>
			<path class="st7" d="M368.3458862,287.1581421c-0.8639221,4.2327576-2.931366,7.8115845-5.5744934,10.1604614
				l-0.9179077,4.4972534l-8.1029053-1.6538086c-6.3295288-1.2919006-10.052002-9.2061157-8.3221741-17.681427
				c1.7298279-8.4752808,8.2560425-14.2977905,14.5855713-13.0059204l8.1029053,1.6538391l-0.9179077,4.4972839
				C368.7101746,278.8226318,369.2098083,282.925415,368.3458862,287.1581421z"/>
			<path class="st9" d="M350.3272095,297.1199341c0,0-9.4455566,13.633667,3.9207764,13.633667"/>
			<circle class="st7" cx="355.8965149" cy="310.7981567" r="2.8960395"/>
			
				<ellipse transform="matrix(0.1999802 -0.9797999 0.9797999 0.1999802 11.3105135 586.7956543)" class="st0" cx="364.9853516" cy="286.4717407" rx="15.661521" ry="11.6962843"/>
		</g>
		<g>
			<path class="st8" d="M372.8649597,253.6205444c-17.7530212,3.5786133-18.0115662,45.3845825-14.8042908,51.5301819
				c3.2072754,6.1456299,28.230011,0.2400818,32.0783691-2.2406006c3.8483582-2.4807129,7.2833862-17.4335938,7.6565857-27.0605164
				S393.4839783,249.4641876,372.8649597,253.6205444z"/>
			<path class="st0" d="M393.3404541,287.2697449l-0.5247192-5.8843994c0,0-6.3577576-4.8899841-5.3154602-11.6588135
				c0,0-22.6552429,12.3410645-40.1560669,1.1830444c0,0,2.8257446-4.5871277,6.1817627-6.4990234
				c0,0-15.4159546-11.1704102-14.5336609-29.6644287c0.3248596-6.8091736,18.2899475-0.098877,24.4862061,7.6608429
				c0,0-6.4554138-17.3813934,1.4828796-27.7321472c2.2881165-2.9834595,14.8934937,10.1359711,19.293335,23.2020874
				c0,0,1.0414429-10.7569733,5.1268005-15.0586853c1.3853455-1.4586945,8.1393738,8.1413879,9.9520264,23.6295166
				c0,0,12.5265808,5.8790436,17.9466553,17.4075775c5.4200439,11.5285034,0.133606,28.3871765-23.5765686,32.1685791
				L393.3404541,287.2697449z"/>
			<g>
				<path class="st8" d="M393.3404541,287.2697449c0,0,5.4772339-14.0274658,14.0808716-10.3338013
					c8.6036377,3.6936951-0.1139832,20.6899414-15.2589722,20.2072144L393.3404541,287.2697449z"/>
				<g>
					<g>
						<path class="st0" d="M396.5578613,293.8538513c-0.0405579,0.0044556-0.0813904,0.0063477-0.1225891,0.0048523
							c-0.4803772-0.0149841-0.8576355-0.415741-0.8434753-0.8960571c0.0028992-0.1140137,0.4559326-11.3717957,9.7657471-12.517334
							c0.0033875-0.0003662,0.0084534-0.0009155,0.0118408-0.0012817c0.4730835-0.0517578,0.8998413,0.2854309,0.9584045,0.758667
							c0.059082,0.477417-0.2799377,0.9111938-0.7573547,0.9702454c-7.8453064,0.9656982-8.2362061,10.7436218-8.2390747,10.8422546
							C397.3178101,293.4544067,396.9819641,293.8074646,396.5578613,293.8538513z"/>
					</g>
					<g>
						<path class="st0" d="M402.5913391,291.4713135c-0.4173279,0.0456543-0.8189392-0.2182007-0.933197-0.6374512
							c-0.0092163-0.0374756-1.0264893-3.7264099-2.7895813-5.7607117
							c-0.3150024-0.3630981-0.2759399-0.9128113,0.0880127-1.2279053c0.3607483-0.3130493,0.9117737-0.2775574,1.2269592,0.0872498
							c2.0272217,2.3388062,3.1096802,6.2796936,3.1551819,6.4456787c0.1259766,0.4641418-0.1483154,0.9421387-0.6134033,1.0673828
							C402.6822205,291.4579468,402.6369629,291.4663391,402.5913391,291.4713135z"/>
					</g>
				</g>
			</g>
		</g>
		<g>
			<g>
				<path class="st0" d="M368.4088135,292.7183533c-0.0591125,0.0064697-0.1206055,0.0072021-0.1828918,0.0003357
					c-0.1642151-0.0162354-4.024292-0.4464417-4.992218-3.809082c-0.1026001-0.3598022,0.0346985-0.7458801,0.3432007-0.9582825
					c2.7033386-1.860199,5.0385132-6.930603,5.0619812-6.9818726c0.199707-0.4407654,0.7193298-0.630127,1.1532288-0.430481
					c0.4374084,0.2000732,0.6305847,0.7158508,0.430481,1.1532288c-0.0964661,0.2123108-2.2730713,4.9345093-5.1037598,7.2720032
					c0.8984375,1.7424316,3.2611694,2.0209351,3.2870789,2.0232239c0.4759216,0.0522461,0.8219604,0.4803467,0.7714844,0.9569397
					C369.1337891,292.3586426,368.8075867,292.6747437,368.4088135,292.7183533z"/>
			</g>
			<g>
				<path class="st0" d="M373.6628723,299.0935364c-4.992981,0.546051-8.3562317-1.1576233-8.5266113-1.2458801
					c-0.4259949-0.2210083-0.5909424-0.7441406-0.3708801-1.1708679c0.2183838-0.4265747,0.7421875-0.5932922,1.1712952-0.3751831
					c0.0434875,0.0226135,4.5166931,2.2597961,10.6344299,0.4288635c0.4663391-0.14505,0.945282,0.122345,1.0845947,0.5832825
					c0.1376343,0.4611511-0.1239319,0.9462891-0.5842285,1.0838318
					C375.8711243,298.7571411,374.7307434,298.9767456,373.6628723,299.0935364z"/>
			</g>
			<path class="st0" d="M375.952179,276.0690918c0,0,0.784729-3.4312744,1.7394409-3.950531
				s0.8040161,1.1532898,0.8040161,1.1532898s7.07547-0.3136292,6.8315735,6.7115784
				C385.3272095,279.983429,382.8740234,275.7329712,375.952179,276.0690918z"/>
			<path class="st0" d="M367.8777771,274.7077942c0,0,0.727478-3.4521179,0.2879944-4.3478394
				c-0.4395142-0.8957214-0.9465027,0.6834717-0.9465027,0.6834717s-4.5379333-3.4432068-6.9233093,3.0160828
				C360.2959595,274.0595093,363.4489746,271.3128662,367.8777771,274.7077942z"/>
			<g>
				
					<ellipse transform="matrix(0.1692744 -0.9855689 0.9855689 0.1692744 33.8722191 607.0931396)" class="st0" cx="377.0623474" cy="283.4536438" rx="3.3542597" ry="2.6935723"/>
				<circle class="st6" cx="376.0281677" cy="282.5155334" r="0.9275036"/>
			</g>
			<g>
				
					<ellipse transform="matrix(0.1692744 -0.9855689 0.9855689 0.1692744 25.2258339 590.9790649)" class="st0" cx="363.1802979" cy="280.5256348" rx="3.3542597" ry="2.6935723"/>
				<circle class="st6" cx="362.1461487" cy="279.5874939" r="0.9275036"/>
			</g>
		</g>
		<g>
			<g>
				<path class="st4" d="M406.758606,277.3998108l-6.4100342-1.9599609l-1.7799683-0.5400391
					c8.1900024-17.2299805,0.7600098-28.4499664,0.7600098-28.4499664l1.4299927-0.5700073c0,0,0,0,0.0100098,0.0100098
					l8.7299805,6.1999512C413.6585693,263.2598572,406.758606,277.3998108,406.758606,277.3998108z"/>
				<path class="st7" d="M400.3485718,275.4398499l-1.7799683-0.5400391
					c8.1900024-17.2299805,0.7600098-28.4499664,0.7600098-28.4499664l1.4299927-0.5700073c0,0,0,0,0.0100098,0.0100098
					C401.088623,246.339798,408.6885986,257.3598328,400.3485718,275.4398499z"/>
			</g>
			<path class="st7" d="M407.1357117,291.882019c-0.8639221,4.2327576-2.931366,7.8115845-5.5744934,10.1604614
				l-0.9179077,4.4972534l-8.1029053-1.6538086c-6.3295288-1.2919006-10.052002-9.2061157-8.3221741-17.681427
				c1.7298279-8.4752808,8.2560425-14.2977905,14.5855713-13.0059204l8.1029053,1.6538086l-0.9179077,4.4973145
				C407.5,283.5465088,407.9996338,287.649292,407.1357117,291.882019z"/>
			
				<ellipse transform="matrix(0.1999802 -0.9797999 0.9797999 0.1999802 37.7146912 628.5811157)" class="st4" cx="403.775177" cy="291.1956177" rx="15.661521" ry="11.6962843"/>
		</g>
	</g>
</g>
<g id="TABLE">
	<rect x="85.9707642" y="500.7635193" class="st0" width="438.6534729" height="39.9207916"/>
</g>
<g id="PC">
	<g>
		<g>
			<path class="st7" d="M308.8346252,433.9973145c1.210022-1.9420471,1.6427612-4.4522095,1.0238342-7.1986084
				l-30.6661987-136.0715942c-1.3865356-6.1522217-7.4979553-11.1396179-13.650177-11.1396179h-154.300705
				c-3.553978,0-6.3355408,1.6701965-7.7911224,4.2619629l0,0l-10.0904694,9.651825l11.8891525,8.9254761l28.0294724,124.3719482
				c1.3865356,6.1523132,7.4979553,11.1397095,13.6502686,11.1397095h138.828125l11.0670776,8.3083191l9.5884094-9.776825
				c0.9837341-0.6451111,1.8010864-1.4792786,2.4163208-2.4638367l0.0075684-0.0076599L308.8346252,433.9973145z"/>
			<path class="st4" d="M289.849823,449.3179626H135.549118c-6.1522675,0-12.2636719-4.9873962-13.6501999-11.139679
				L91.2326813,302.1066895c-1.386528-6.1522827,2.4768677-11.139679,8.6291428-11.139679h154.3007202
				c6.1522827,0,12.2636719,4.9873962,13.6502075,11.139679l30.6662292,136.0715942
				C299.865509,444.3305664,296.0021057,449.3179626,289.849823,449.3179626z"/>
		</g>
		<g>
			<path class="st7" d="M266.4595032,423.504425c0.8001099-1.2841187,1.0862427-2.9439087,0.677002-4.7598877
				l-20.2772064-89.9737549c-0.9168091-4.0679932-4.9578247-7.3657837-9.0258179-7.3657837H135.8061981
				c-2.3499756,0-4.189209,1.1043701-5.1516724,2.8181152l0,0l-6.6720657,6.382019l7.8613968,5.9017334l18.5337524,82.2376709
				c0.9168091,4.0680542,4.9578247,7.3658447,9.0258789,7.3658447h91.7964478l7.3177948,5.4936523l6.3400879-6.4646606
				c0.6504517-0.4265747,1.190918-0.9781494,1.5977173-1.6291504l0.0050049-0.0050659L266.4595032,423.504425z"/>
			<path class="st4" d="M253.9063263,433.6347961H151.8790436c-4.0680237,0-8.109024-3.2977905-9.0258331-7.3658142
				l-20.2772369-89.9737854c-0.9168091-4.0680237,1.637764-7.3658142,5.7057953-7.3658142h102.0272675
				c4.0680389,0,8.1090393,3.2977905,9.0258484,7.3658142l20.2772369,89.9737854
				C260.5289307,430.3370056,257.9743652,433.6347961,253.9063263,433.6347961z"/>
			<path class="st5" d="M253.9063263,433.6347961H151.8790436c-4.0680237,0-8.109024-3.2977905-9.0258331-7.3658142
				l-20.2772369-89.9737854"/>
		</g>
		<g>
			<path class="st4" d="M169.7399597,495.7598572c0,2.7699585-2.2399902,5-5,5h-31.9500122
				c-1.7699585,0-3.3999634-0.9200439-4.2999878-2.4500122c-0.899971-1.5200195-0.9400101-3.3900146-0.0899658-4.9400024
				l40.8599854-74.7399902h33.0299683l-39.4299927,72.1300049h1.8800049
				C167.4999695,490.7598572,169.7399597,492.9998474,169.7399597,495.7598572z"/>
			<line class="st5" x1="153.0881958" y1="448.2108154" x2="169.2599792" y2="418.6298523"/>
			<path class="st8" d="M203.059967,399.2998352l-0.7700195,19.3300171h-33.0299683l-3.0100098-13.3500366
				c-0.6099854-2.6900024,1.0800171-5.3699951,3.7799683-5.9799805H203.059967z"/>
			<g>
				<path class="st7" d="M199.2779846,405.2816772l3.0074158,13.3452454l-40.8525391,74.7384644
					c-0.8490448,1.5532837-0.8162079,3.4259949,0.086731,4.9485779s2.5304565,2.4495544,4.3006287,2.4495544h44.2581024
					c2.7613983,0,4.9999695-2.2385864,4.9999695-4.9999695c0-2.7614136-2.2385712-4.9999695-4.9999695-4.9999695
					l-35.8269196-0.0000305l37.713974-68.9963989c0.5841064-1.068634,0.7580566-2.3093262,0.4903259-3.497345l-3.4223633-15.1865234
					c-0.6070862-2.6938782-3.28302-4.3855591-5.9768829-3.7784729c-2.6938782,0.6070862-4.3855438,3.28302-3.7784576,5.9768982
					L199.2779846,405.2816772z"/>
			</g>
		</g>
	</g>
</g>
<g id="LINE">
	<path class="st13" d="M127.7878189,204.3542023c0,0-34.6523819,37.2360077-27.1503906,105.0033722
		s111.881691,63.83255,144.6075134,15.9954834s-19.1355743-63.0457458-47.3831024-32.6295166
		c-28.2475128,30.4161987-28.4394836,87.9094849,12.6465912,116.905426
		c41.0860901,28.9959106,133.0893402,9.9038086,152.6718597-48.6293335"/>
</g>
</svg>
