<?xml version="1.0" encoding="utf-8"?>
<!-- Generator: Adobe Illustrator 25.2.3, SVG Export Plug-In . SVG Version: 6.00 Build 0)  -->
<svg version="1.1" xmlns="http://www.w3.org/2000/svg" xmlns:xlink="http://www.w3.org/1999/xlink" x="0px" y="0px"
	 viewBox="0 0 600 600" style="enable-background:new 0 0 600 600;" xml:space="preserve">
<style type="text/css">
	.st0{fill:none;stroke:#6B81BE;stroke-linecap:round;stroke-linejoin:round;stroke-miterlimit:10;}
	.st1{fill:#E9F3FF;}
	.st2{fill:#9AB3DA;}
	.st3{fill:#6B81BE;}
	.st4{fill:#FFFFFF;}
	.st5{fill:none;stroke:#F68D88;stroke-miterlimit:10;}
	.st6{fill:none;stroke:#9AB3DA;stroke-miterlimit:10;}
	.st7{fill:#F68D88;}
	.st8{fill:none;stroke:#6B81BE;stroke-miterlimit:10;}
	.st9{fill:none;stroke:#ECBDBB;stroke-linecap:round;stroke-linejoin:round;stroke-miterlimit:10;}
	.st10{fill:none;stroke:#DEEBFF;stroke-linecap:round;stroke-linejoin:round;stroke-miterlimit:10;}
	.st11{fill:#ECBDBB;}
	.st12{fill:#404B7C;}
	.st13{fill:none;stroke:#404B7C;stroke-linecap:round;stroke-linejoin:round;stroke-miterlimit:10;}
</style>
<g id="ORNAMENT_11">
	<g>
		<line class="st0" x1="52.651165" y1="83.4582672" x2="52.651165" y2="88.7468872"/>
		<line class="st0" x1="52.651165" y1="94.3920441" x2="52.651165" y2="99.6806564"/>
		<line class="st0" x1="60.7623596" y1="91.5694656" x2="55.4737434" y2="91.5694656"/>
		<line class="st0" x1="49.8285904" y1="91.5694656" x2="44.5399704" y2="91.5694656"/>
	</g>
</g>
<g id="ORNAMENT_10">
	<g>
		<line class="st0" x1="406.7114868" y1="443.4013977" x2="406.7114868" y2="447.8279724"/>
		<line class="st0" x1="406.7114868" y1="452.5529175" x2="406.7114868" y2="456.9794922"/>
		<line class="st0" x1="413.5005493" y1="450.1904602" x2="409.0739746" y2="450.1904602"/>
		<line class="st0" x1="404.348999" y1="450.1904602" x2="399.9224548" y2="450.1904602"/>
	</g>
</g>
<g id="ORNAMENT_9">
	<g>
		<line class="st0" x1="203.4647064" y1="420.3511658" x2="203.4647064" y2="424.7777405"/>
		<line class="st0" x1="203.4647064" y1="429.5027161" x2="203.4647064" y2="433.9292603"/>
		<line class="st0" x1="210.2537537" y1="427.1402283" x2="205.8271942" y2="427.1402283"/>
		<line class="st0" x1="201.1022186" y1="427.1402283" x2="196.6756744" y2="427.1402283"/>
	</g>
</g>
<g id="ORNAMENT_8">
	<g>
		<line class="st0" x1="530.3162231" y1="78.86129" x2="530.3162231" y2="84.4011688"/>
		<line class="st0" x1="530.3162231" y1="90.3145218" x2="530.3162231" y2="95.8544006"/>
		<line class="st0" x1="538.8127441" y1="87.3578491" x2="533.2728882" y2="87.3578491"/>
		<line class="st0" x1="527.3595581" y1="87.3578491" x2="521.8196411" y2="87.3578491"/>
	</g>
</g>
<g id="ORNAMENT_7">
	<circle class="st0" cx="31.224371" cy="193.687439" r="4.3902001"/>
</g>
<g id="ORNAMENT_6">
	<circle class="st0" cx="550.2987671" cy="187.2029877" r="4.3902001"/>
</g>
<g id="ORNAMENT_5">
	<circle class="st0" cx="322.4251404" cy="409.5864258" r="4.3902001"/>
</g>
<g id="ORNAMENT_4">
	<circle class="st1" cx="57.0924911" cy="132.5527039" r="3.0695159"/>
</g>
<g id="ORNAMENT_3">
	<circle class="st1" cx="231.5616913" cy="450.1287842" r="4.5229254"/>
</g>
<g id="ORNAMENT_2">
	<circle class="st1" cx="528.9588013" cy="459.5614624" r="2.5819871"/>
</g>
<g id="ORNAMENT_1">
	<circle class="st1" cx="429.9398193" cy="95.8544006" r="5.3216376"/>
</g>
<g id="DASHBOARD">
	<g>
		<g>
			<path class="st2" d="M242.7266998,101.8351288h-38.3655243c-2.004303,0-3.6291199,1.6248169-3.6291199,3.6291275v4.9901733
				h45.623764v-4.9901733C246.3558197,103.4599457,244.7310028,101.8351288,242.7266998,101.8351288z"/>
			<path class="st2" d="M283.330658,101.8351288h-20.365509c-2.004303,0-3.6291199,1.6248169-3.6291199,3.6291275v4.9901733
				h27.6237488v-4.9901733C286.9597778,103.4599457,285.3349609,101.8351288,283.330658,101.8351288z"/>
			<path class="st3" d="M518.8779297,392.8161621H169.759613c-6.3171997,0-11.4382935-5.1210938-11.4382935-11.4382935V121.8927155
				c0-6.3171921,5.1210938-11.4382858,11.4382935-11.4382858h349.1183167c6.3171997,0,11.4382935,5.1210938,11.4382935,11.4382858
				v259.4851685C530.3162231,387.6950684,525.1951294,392.8161621,518.8779297,392.8161621z"/>
			<path class="st2" d="M165.821228,283.4174805L165.821228,283.4174805c-1.5683441,0-2.8397522-1.2713928-2.8397522-2.8397522
				v-57.8848724c0-1.5683441,1.2714081-2.8397369,2.8397522-2.8397369l0,0c1.5683441,0,2.8397522,1.2713928,2.8397522,2.8397369
				v57.8848724C168.6609802,282.1460876,167.3895721,283.4174805,165.821228,283.4174805z"/>
			
				<rect x="218.1377869" y="80.6377258" transform="matrix(-1.836970e-16 1 -1 -1.836970e-16 595.9539795 -92.6834106)" class="st4" width="252.3618164" height="341.9951172"/>
		</g>
		<g>
			<path class="st5" d="M353.7585144,170.043869l2.7623901-2.7623749c2.1900024-2.1900024,5.7406921-2.1900024,7.9306946,0
				l5.5247498,5.524765c2.1900024,2.1900024,5.7406921,2.1900024,7.9306946,0l20.1386108-20.1386261
				c2.1900024-2.1900024,5.7406921-2.1900024,7.9306946,0l12.6534729,12.6534729
				c2.1900024,2.1900024,5.7406921,2.1900024,7.9306946,0l0,0c2.1900024-2.1900024,5.7406921-2.1900024,7.9306946,0
				l2.5841675,2.5841522c2.1899719,2.1900024,5.7406616,2.1900024,7.9306641,0l12.6980286-12.6980133
				c2.1900024-2.1900024,5.7406921-2.1900024,7.9306946,0l10.9603882,10.9604034
				c2.1900024,2.1899872,5.7406921,2.1899872,7.9306946,0l4.7227783-4.7227783"/>
			<g>
				<circle class="st2" cx="373.9417114" cy="174.448761" r="2.5396039"/>
				<circle class="st2" cx="360.4862671" cy="165.677536" r="2.3613861"/>
				<circle class="st2" cx="402.0110168" cy="151.0251312" r="3.0742574"/>
				<circle class="st2" cx="422.5951538" cy="167.2369385" r="1.5594059"/>
				<circle class="st2" cx="430.5258484" cy="163.6725922" r="2.6287129"/>
				<circle class="st2" cx="441.0407104" cy="169.6428833" r="1.6039604"/>
				<circle class="st2" cx="461.6694336" cy="153.5201874" r="2.4950495"/>
				<circle class="st2" cx="480.5605164" cy="168.0389252" r="1.7376238"/>
			</g>
		</g>
		<g>
			<g>
				<path class="st3" d="M381.7164612,362.8755493h-0.0000305c-4.2938538,0-7.7747192-3.4808655-7.7747192-7.7747498v-31.5
					c0-4.2938843,3.4808655-7.7747498,7.7747192-7.7747498h0.0000305c4.2938843,0,7.7747498,3.4808655,7.7747498,7.7747498v31.5
					C389.4912109,359.3946838,386.0103455,362.8755493,381.7164612,362.8755493z"/>
				<path class="st3" d="M406.7115173,362.8755493h-0.0000305c-4.2938538,0-7.7747498-3.4808655-7.7747498-7.7747498v-43.1435547
					c0-4.2938843,3.480896-7.7747498,7.7747498-7.7747498h0.0000305c4.2938538,0,7.7747498,3.4808655,7.7747498,7.7747498
					v43.1435547C414.4862671,359.3946838,411.0053711,362.8755493,406.7115173,362.8755493z"/>
				<path class="st3" d="M431.706543,362.8755493L431.706543,362.8755493c-4.2938843,0-7.7747498-3.4808655-7.7747498-7.7747498
					v-62.3910828c0-4.2938843,3.4808655-7.7747498,7.7747498-7.7747498l0,0c4.2938843,0,7.7747498,3.4808655,7.7747498,7.7747498
					v62.3910828C439.4812927,359.3946838,436.0004272,362.8755493,431.706543,362.8755493z"/>
				<path class="st3" d="M456.7015991,362.8755493L456.7015991,362.8755493c-4.2938843,0-7.7747498-3.4808655-7.7747498-7.7747498
					v-24.3712769c0-4.2938843,3.4808655-7.7747498,7.7747498-7.7747498l0,0c4.2938843,0,7.7747498,3.4808655,7.7747498,7.7747498
					v24.3712769C464.4763489,359.3946838,460.9954834,362.8755493,456.7015991,362.8755493z"/>
				<path class="st3" d="M481.6966553,362.8755493L481.6966553,362.8755493c-4.2938843,0-7.7747498-3.4808655-7.7747498-7.7747498
					v-56.9257507c0-4.2938538,3.4808655-7.7747498,7.7747498-7.7747498l0,0c4.2938843,0,7.7747498,3.480896,7.7747498,7.7747498
					v56.9257507C489.471405,359.3946838,485.9905396,362.8755493,481.6966553,362.8755493z"/>
			</g>
			<g>
				<path class="st6" d="M380.6991272,302.7567444c0,0,15.0819702-3.5232849,26.0123596-15.2079163
					c11.4928589-12.2858887,17.0866394-17.5841675,23.8143616-17.5841675s13.4406128,4.9901123,17.4801941,20.4356384
					c4.0396118,15.4455566,9.6237793,20.6732788,15.8613892,4.2772522
					c6.2376404-16.3960571,9.5198059-23.2871399,17.8292236-23.2871399"/>
				<g>
					<g>
						<circle class="st7" cx="381.7164612" cy="302.7567444" r="4.7524753"/>
						<circle class="st7" cx="406.7114868" cy="287.3528137" r="4.7524753"/>
						<circle class="st7" cx="431.706543" cy="269.9646606" r="4.7524753"/>
						<circle class="st7" cx="456.7015991" cy="302.7567444" r="4.7524753"/>
						<circle class="st7" cx="481.6966553" cy="271.8329468" r="4.7524753"/>
					</g>
				</g>
			</g>
		</g>
		<g>
			<path class="st8" d="M484.6595154,250.687439H360.0852661c-2.6575317,0-4.8118896-2.1543579-4.8118896-4.8118744v-48.2970428
				c0-2.6575165,2.1543579-4.8118744,4.8118896-4.8118744h124.5742493c2.6575317,0,4.8118896,2.1543579,4.8118896,4.8118744
				v48.2970428C489.471405,248.5330811,487.3170471,250.687439,484.6595154,250.687439z"/>
			<g>
				<g>
					<path class="st2" d="M395.2897339,202.2120667c-10.7799683,0-19.5100098,8.7299805-19.5100098,19.5100098
						c0,10.7799683,8.7300415,19.5199585,19.5100098,19.5199585c10.7800293,0,19.5200195-8.7399902,19.5200195-19.5199585
						C414.8097534,210.9420471,406.0697632,202.2120667,395.2897339,202.2120667z M395.2897339,231.1420593
						c-5.2000122,0-9.4099731-4.2199707-9.4099731-9.4199829s4.2099609-9.4100342,9.4099731-9.4100342
						s9.4199829,4.210022,9.4199829,9.4100342S400.4897461,231.1420593,395.2897339,231.1420593z"/>
					<path class="st7" d="M395.2997437,200.2120667v14.0999756h-0.0100098c-4.0899658,0-7.4099731,3.3200073-7.4099731,7.4100342
						h-14.1000366c0-11.8599854,9.6500244-21.5100098,21.5100098-21.5100098H395.2997437z"/>
				</g>
				<g>
					<path class="st2" d="M431.9350281,221.7220764c0,10.7799683,8.7399902,19.5199585,19.5200195,19.5199585
						c10.7799683,0,19.5100098-8.7399902,19.5100098-19.5199585c0-10.7800293-8.7300415-19.5100098-19.5100098-19.5100098
						C440.6750183,202.2120667,431.9350281,210.9420471,431.9350281,221.7220764z M442.0350647,221.7220764
						c0-5.2000122,4.2199707-9.4100342,9.4199829-9.4100342s9.4099731,4.210022,9.4099731,9.4100342
						s-4.2099609,9.4199829-9.4099731,9.4199829S442.0350647,226.9220886,442.0350647,221.7220764z"/>
					<path class="st7" d="M429.9398193,221.7220764c0,11.8699951,9.6399536,21.5100098,21.5099487,21.5199585v-14.0999756
						c-4.0899658-0.0100098-7.4099731-3.3300171-7.4099731-7.4199829c0-4.0900269,3.3200073-7.4000244,7.4099731-7.4100342
						v-14.0999756C439.5797729,200.2220764,429.9398193,209.8620911,429.9398193,221.7220764z"/>
				</g>
			</g>
		</g>
		<g>
			<path class="st2" d="M332.8508606,362.8755493H208.2765961c-2.6575317,0-4.8118896-2.1543579-4.8118896-4.8118591v-17.8218079
				c0-2.6575012,2.1543579-4.8118591,4.8118896-4.8118591h124.5742645c2.6575317,0,4.8118591,2.1543579,4.8118591,4.8118591
				v17.8218079C337.6627197,360.7211914,335.5083923,362.8755493,332.8508606,362.8755493z"/>
			<g>
				<path class="st3" d="M216.5637207,356.4002991h-2.4950562c-1.3287659,0-2.4059296-1.0771484-2.4059296-2.4059143v-9.683197
					c0-1.3287659,1.0771637-2.4059143,2.4059296-2.4059143h2.4950562c1.3287659,0,2.4059448,1.0771484,2.4059448,2.4059143v9.683197
					C218.9696655,355.3231506,217.8924866,356.4002991,216.5637207,356.4002991z"/>
				<path class="st4" d="M227.6132202,356.4002991h-2.4950409c-1.3287659,0-2.4059448-1.0771484-2.4059448-2.4059143v-0.0000305
					c0-1.3287354,1.077179-2.4059143,2.4059448-2.4059143h2.4950409c1.3287659,0,2.4059448,1.077179,2.4059448,2.4059143v0.0000305
					C230.019165,355.3231506,228.9419861,356.4002991,227.6132202,356.4002991z"/>
				<path class="st7" d="M238.662735,356.4002991h-2.4950562c-1.3287659,0-2.4059448-1.0771484-2.4059448-2.4059143v-4.8118896
					c0-1.3287659,1.077179-2.4059448,2.4059448-2.4059448h2.4950562c1.3287659,0,2.4059296,1.077179,2.4059296,2.4059448v4.8118896
					C241.0686646,355.3231506,239.9915009,356.4002991,238.662735,356.4002991z"/>
				<path class="st3" d="M249.7122345,356.4002991h-2.4950562c-1.3287659,0-2.4059296-1.0771484-2.4059296-2.4059143v-9.683197
					c0-1.3287659,1.0771637-2.4059143,2.4059296-2.4059143h2.4950562c1.3287659,0,2.4059448,1.0771484,2.4059448,2.4059143v9.683197
					C252.1181793,355.3231506,251.0410004,356.4002991,249.7122345,356.4002991z"/>
				<path class="st4" d="M260.7617493,356.4002991h-2.4950562c-1.3287659,0-2.4059448-1.0771484-2.4059448-2.4059143v-0.0000305
					c0-1.3287354,1.077179-2.4059143,2.4059448-2.4059143h2.4950562c1.3287659,0,2.4059448,1.077179,2.4059448,2.4059143v0.0000305
					C263.1676941,355.3231506,262.0905151,356.4002991,260.7617493,356.4002991z"/>
				<path class="st7" d="M271.8112488,356.4002991h-2.4950562c-1.3287659,0-2.4059448-1.0771484-2.4059448-2.4059143v-4.8118896
					c0-1.3287659,1.077179-2.4059448,2.4059448-2.4059448h2.4950562c1.3287659,0,2.4059448,1.077179,2.4059448,2.4059448v4.8118896
					C274.2171936,355.3231506,273.1400146,356.4002991,271.8112488,356.4002991z"/>
				<path class="st3" d="M282.8607483,356.4002991h-2.4950562c-1.3287659,0-2.4059448-1.0771484-2.4059448-2.4059143v-9.683197
					c0-1.3287659,1.077179-2.4059143,2.4059448-2.4059143h2.4950562c1.3287659,0,2.4059448,1.0771484,2.4059448,2.4059143v9.683197
					C285.2666931,355.3231506,284.1895142,356.4002991,282.8607483,356.4002991z"/>
				<path class="st4" d="M293.9102478,356.4002991h-2.4950562c-1.3287659,0-2.4059143-1.0771484-2.4059143-2.4059143v-0.0000305
					c0-1.3287354,1.0771484-2.4059143,2.4059143-2.4059143h2.4950562c1.3287659,0,2.4059448,1.077179,2.4059448,2.4059143v0.0000305
					C296.3161926,355.3231506,295.2390137,356.4002991,293.9102478,356.4002991z"/>
				<path class="st7" d="M304.9597473,356.4002991h-2.4950256c-1.3287659,0-2.4059448-1.0771484-2.4059448-2.4059143v-4.8118896
					c0-1.3287659,1.077179-2.4059448,2.4059448-2.4059448h2.4950256c1.3287659,0,2.4059448,1.077179,2.4059448,2.4059448v4.8118896
					C307.3656921,355.3231506,306.2885132,356.4002991,304.9597473,356.4002991z"/>
				<path class="st3" d="M316.0092773,356.4002991h-2.4950562c-1.3287659,0-2.4059448-1.0771484-2.4059448-2.4059143v-9.683197
					c0-1.3287659,1.077179-2.4059143,2.4059448-2.4059143h2.4950562c1.3287659,0,2.4059143,1.0771484,2.4059143,2.4059143v9.683197
					C318.4151917,355.3231506,317.3380432,356.4002991,316.0092773,356.4002991z"/>
				<path class="st4" d="M327.0587769,356.4002991h-2.4950562c-1.3287659,0-2.4059448-1.0771484-2.4059448-2.4059143v-0.0000305
					c0-1.3287354,1.077179-2.4059143,2.4059448-2.4059143h2.4950562c1.3287659,0,2.4059448,1.077179,2.4059448,2.4059143v0.0000305
					C329.4647217,355.3231506,328.3875427,356.4002991,327.0587769,356.4002991z"/>
			</g>
		</g>
		<g>
			<path class="st8" d="M332.8508606,321.1725769H208.2765961c-2.6575317,0-4.8118896-2.1543274-4.8118896-4.8118591v-68.9109039
				c0-2.6575317,2.1543579-4.8118744,4.8118896-4.8118744h124.5742645c2.6575317,0,4.8118591,2.1543427,4.8118591,4.8118744
				v68.9109039C337.6627197,319.0182495,335.5083923,321.1725769,332.8508606,321.1725769z"/>
			<g>
				<g>
					<line class="st8" x1="230.1082764" y1="242.6379395" x2="230.1082764" y2="321.1725769"/>
					<line class="st8" x1="257.0785828" y1="242.6379395" x2="257.0785828" y2="321.1725769"/>
					<line class="st8" x1="284.0488586" y1="242.6379395" x2="284.0488586" y2="321.1725769"/>
					<line class="st8" x1="311.019165" y1="242.6379395" x2="311.019165" y2="321.1725769"/>
				</g>
				<g>
					<line class="st8" x1="337.6627808" y1="267.786499" x2="203.464798" y2="267.786499"/>
					<line class="st8" x1="337.6627808" y1="296.0241394" x2="203.464798" y2="296.0241394"/>
				</g>
			</g>
		</g>
		<g>
			<path class="st3" d="M260.6726379,231.3508148h-52.3960419c-2.6575317,0-4.8118896-2.1543579-4.8118896-4.8118744v-0.0000153
				c0-2.6575317,2.1543579-4.8118744,4.8118896-4.8118744h52.3960419c2.6575317,0,4.8118591,2.1543427,4.8118591,4.8118744
				v0.0000153C265.4844971,229.1964569,263.3301697,231.3508148,260.6726379,231.3508148z"/>
			<path class="st7" d="M236.9696655,231.3508148h-28.6930695c-2.6575317,0-4.8118896-2.1543579-4.8118896-4.8118744v-0.0000153
				c0-2.6575317,2.1543579-4.8118744,4.8118896-4.8118744h28.6930695c2.6575165,0,4.8118744,2.1543427,4.8118744,4.8118744
				v0.0000153C241.7815399,229.1964569,239.627182,231.3508148,236.9696655,231.3508148z"/>
			<circle class="st7" cx="275.9102478" cy="226.5389252" r="4.8118858"/>
		</g>
		<g>
			<path class="st3" d="M317.6132507,231.3508148h-26.2203369c-2.6575012,0-4.8118591-2.1543579-4.8118591-4.8118744v-0.0000153
				c0-2.6575317,2.1543579-4.8118744,4.8118591-4.8118744h26.2203369c2.6575317,0,4.8118896,2.1543427,4.8118896,4.8118744
				v0.0000153C322.4251404,229.1964569,320.2707825,231.3508148,317.6132507,231.3508148z"/>
			<path class="st7" d="M293.9102783,231.3508148h-2.5173645c-2.6575012,0-4.8118591-2.1543579-4.8118591-4.8118744v-0.0000153
				c0-2.6575317,2.1543579-4.8118744,4.8118591-4.8118744h2.5173645c2.6575317,0,4.8118896,2.1543427,4.8118896,4.8118744v0.0000153
				C298.722168,229.1964569,296.5678101,231.3508148,293.9102783,231.3508148z"/>
			<circle class="st7" cx="332.8508911" cy="226.5389252" r="4.8118858"/>
		</g>
		<g>
			<path class="st8" d="M306.2072754,206.3231049h-97.9306793c-2.6575317,0-4.8118896-2.1543427-4.8118896-4.8118744v-51.8747406
				c0-2.6575317,2.1543579-4.8118896,4.8118896-4.8118896h97.9306793c2.6575317,0,4.8118896,2.1543579,4.8118896,4.8118896
				v51.8747406C311.019165,204.1687622,308.8648071,206.3231049,306.2072754,206.3231049z"/>
			<g>
				<path class="st2" d="M255.7809448,175.5704041c0,11.3699951-9.210022,20.5800171-20.5700073,20.5800171
					c-11.3699951,0-20.5800171-9.210022-20.5800171-20.5800171c0-11.3599854,9.210022-20.5700073,20.5800171-20.5700073v20.5700073
					H255.7809448z"/>
				<path class="st7" d="M257.7809448,173.5704041h-20.5700073v-20.5700073
					C248.5709229,153.0003967,257.7809448,162.2104187,257.7809448,173.5704041z"/>
			</g>
			<g>
				<g>
					<path class="st7" d="M295.2246399,163.6725922h-20.6287537c-1.9316101,0-3.4974976-1.5659027-3.4974976-3.4975281l0,0
						c0-1.9316254,1.5658875-3.4975281,3.4974976-3.4975281h20.6287537c1.9316406,0,3.4975281,1.5659027,3.4975281,3.4975281l0,0
						C298.722168,162.1066895,297.1562805,163.6725922,295.2246399,163.6725922z"/>
					<path class="st2" d="M295.2246399,174.448761h-3.3119202c-1.9316101,0-3.4975281-1.5659027-3.4975281-3.4975281l0,0
						c0-1.9316406,1.565918-3.4975281,3.4975281-3.4975281h3.3119202c1.9316406,0,3.4975281,1.5658875,3.4975281,3.4975281l0,0
						C298.722168,172.8828583,297.1562805,174.448761,295.2246399,174.448761z"/>
				</g>
				<g>
					<circle class="st8" cx="265.7518311" cy="160.1750641" r="2.0680711"/>
					<line class="st8" x1="263.6837769" y1="160.1750641" x2="248.3161926" y2="160.1750641"/>
				</g>
			</g>
			<g>
				<g>
					<path class="st7" d="M295.2246399,186.271637h-20.6287537c-1.9316101,0-3.4974976-1.5659027-3.4974976-3.4975281l0,0
						c0-1.9316254,1.5658875-3.4975281,3.4974976-3.4975281h20.6287537c1.9316406,0,3.4975281,1.5659027,3.4975281,3.4975281l0,0
						C298.722168,184.7057343,297.1562805,186.271637,295.2246399,186.271637z"/>
					<path class="st2" d="M295.2246399,197.0478058h-3.3119202c-1.9316101,0-3.4975281-1.5659027-3.4975281-3.4975281l0,0
						c0-1.9316406,1.565918-3.4975281,3.4975281-3.4975281h3.3119202c1.9316406,0,3.4975281,1.5658875,3.4975281,3.4975281l0,0
						C298.722168,195.4819031,297.1562805,197.0478058,295.2246399,197.0478058z"/>
				</g>
				<g>
					<circle class="st8" cx="265.7518311" cy="182.7741089" r="2.0680711"/>
					<line class="st8" x1="263.6837769" y1="182.7741089" x2="248.3161926" y2="182.7741089"/>
				</g>
			</g>
		</g>
	</g>
</g>
<g id="PLANT">
	<g>
		<g>
			<path class="st7" d="M477.3598328,371.6057739c0,0-15.6574707-21.918335-11.2020264-53.9975281
				s21.9207764-34.9306946,30.2970276-29.5841675c8.3762207,5.3465271,10.6930542,22.633667,3.2079163,39.2079163
				S479.6509705,362.6924133,477.3598328,371.6057739z"/>
			<path class="st2" d="M478.7518616,396.8557434c0,0,0.9375916-9.8526611,5.1089172-17.465332
				c4.7524719-8.6732788,14.4950256-5.856781,13.0693054,2.2399292
				C495.5043335,389.7270508,482.3162231,391.6280212,478.7518616,396.8557434z"/>
			<path class="st9" d="M489.471405,296.3409119c0,0-18.5611267,81.267334-12.6205444,127.8415833"/>
		</g>
		<g>
			<path class="st2" d="M504.1040955,381.6303406c0,0,15.6972961-10.4379578,38.1527405-21.3686523
				s36.1781616-31.1487732,33.1484985-47.8615112c-3.0297241-16.712738-24.9505005-22.4157104-47.0494995,2
				C506.947113,338.0532227,504.1040955,381.6303406,504.1040955,381.6303406z"/>
			<path class="st7" d="M497.071106,407.2721558c0,0,11.3016052-17.9015503,30.0738525-20.7530212
				c18.7722778-2.8515015,24.5941162,5.584137,23.168335,13.9009705
				c-1.4023438,8.1805115-13.0671387,10.8589478-26.0790405,8.1417236
				C509.9172668,405.572052,497.071106,407.2721558,497.071106,407.2721558z"/>
			<path class="st10" d="M485.2868652,424.1824951c0,0,23.643219-71.5247498,73.7817993-114.7722778"/>
		</g>
		<g>
			<path class="st2" d="M450.1980896,374.7118225c0,0-5.4264221-27.3511658-24.3175049-40.8016357
				c-18.8911133-13.45047-30.5793457,1.8762512-21.1708679,13.4604187S440.8324585,366.9441223,450.1980896,374.7118225z"/>
			<path class="st7" d="M460.8650208,401.335022c0,0-13.7765198-13.5089722-29.8161316-13.5089722
				c-21.0296936,0-14.5920105,17.0594177-1.1090698,14.7035828
				C444.9498901,399.9069824,460.8650208,401.335022,460.8650208,401.335022z"/>
			<g>
				<path class="st10" d="M414.1181946,339.078186c0,0,48.320282,33.0646973,59.8037109,85.1043091"/>
			</g>
		</g>
		<g>
			<path class="st7" d="M509.1527405,422.0403748c1.8137207,0,3.2552795,1.5502625,3.0931702,3.35672
				c-0.0009766,0.0110779-0.0020142,0.0221863-0.0029907,0.0332947
				c-2.7534485,32.3784485-12.8359375,50.6555481-16.0020142,55.6891785
				c-0.566864,0.9012146-1.5562744,1.4408264-2.6209412,1.4408264H462.516449c-1.071167,0-2.0612488-0.5499268-2.6310425-1.4569702
				c-0.7486877-1.1917725-1.8806458-3.1183472-3.2124939-5.7930298c-1.1099854-2.25-2.3699951-5.0200195-3.6499634-8.3300171
				c-3.6678162-9.4475708-7.575592-23.2602234-9.1249695-41.5636902c-0.1534424-1.8127136,1.2757874-3.3763123,3.0949707-3.3763123
				H509.1527405z"/>
			<path class="st11" d="M512.2459106,425.3970947l-0.0029907,0.0332947
				c-7.4299927,2.1300049-16.9099731,7.3500366-24.289978,19.9000244
				c-11.4700317,19.5100098-20.9500122,27.9400024-31.2800293,29.9799805c-1.1099854-2.25-2.3699951-5.0200195-3.6499634-8.3300171
				c4.7399902-2.4299927,10.7399902-7.6999512,14.3099976-19.039978c3.75-11.8699951,7.4400024-20.3800049,13.6300049-25.9000244
				h28.1897888C510.9664612,422.0403748,512.40802,423.5906372,512.2459106,425.3970947z"/>
			<path class="st11" d="M461.7174072,433.8414307c-4.6272888-2.4356995-11.6144104,9.4196167-6.9339905,11.9903259
				S467.2938538,436.7767334,461.7174072,433.8414307z"/>
			<path class="st11" d="M499.1957092,460.8188782c-5.3596497-5.4013062-20.2346802,8.004364-14.860199,13.6163025
				S505.6547546,467.3281555,499.1957092,460.8188782z"/>
		</g>
	</g>
</g>
<g id="GROUND">
	<g>
		<g>
			<line class="st0" x1="429.1842346" y1="482.5593567" x2="541.3894653" y2="482.5593567"/>
			<line class="st0" x1="50.391468" y1="482.5593567" x2="402.2550659" y2="482.5593567"/>
		</g>
		<g>
			<line class="st0" x1="161.8880463" y1="501.8490295" x2="105.8158417" y2="501.8490295"/>
			<line class="st0" x1="502.0911865" y1="501.848999" x2="180.1455383" y2="501.848999"/>
		</g>
		<g>
			<line class="st0" x1="345.7601624" y1="521.1387329" x2="383.7615662" y2="521.1387329"/>
			<line class="st0" x1="162.325943" y1="521.1387329" x2="333.2189331" y2="521.1387329"/>
		</g>
	</g>
</g>
<g id="LEFT_LEG">
	<g>
		<polygon class="st11" points="123.0884933,431.8458557 123.444931,448.7765503 132.8904724,448.7765503 133.6033478,431.8458557 
					"/>
		<path class="st12" d="M120.5934448,443.0735779h16.9306946c0,0,5.1450195,10.9901123,25.1287079,24.0594177
			c12.7931213,8.3666687,9.6815643,15.4263611,9.6815643,15.4263611h-34.9884949l-8.9715881-14.732605l-0.5688248,14.732605
			h-9.5226288C117.4036636,459.6286316,120.5934448,443.0735779,120.5934448,443.0735779z"/>
		<g>
			<g>
				<g>
					<path class="st2" d="M99.7419586,254.1626892l2.5591583,183.9207764h56.0202026
						c0,0-7.2526245-93.0296936-20.1437225-183.7425537C131.821167,230.6379395,101.1677017,234.9151611,99.7419586,254.1626892z"/>
				</g>
			</g>
			<path class="st10" d="M130.0389862,258.202301c0,0-1.3069305,11.7623596,7.6039581,12"/>
			<g>
				<path class="st10" d="M117.1493225,427.1402283l-7.6647873-140.0666504l1.4636078-1.1309814
					c2.3603134-1.8238525,3.6870499-4.6810303,3.5574799-7.6611023l-0.9814835-22.5742493"/>
				<line class="st10" x1="151.9823151" y1="429.2520142" x2="107.2781296" y2="429.2520142"/>
			</g>
		</g>
	</g>
</g>
<g id="RIGHT_LEG">
	<g>
		<polygon class="st11" points="47.1866608,429.9029846 43.2041702,446.3624878 52.3360176,448.7765503 57.3523026,432.590332 		"/>
		<path class="st12" d="M40.0389862,443.0735779h16.9306946c0,0,5.1450195,10.9901123,25.1287155,24.0594177
			c12.7931213,8.3666687,9.6815567,15.4263611,9.6815567,15.4263611H56.7914619l-8.9715843-14.732605l-0.5688248,14.732605
			h-9.5226364C36.849205,459.6286316,40.0389862,443.0735779,40.0389862,443.0735779z"/>
		<g>
			<g>
				<g>
					<path class="st2" d="M70.0271606,252.154068L24.1776009,433.9250488l55.3663368,6.8911133
						c0,0,16.8757019-87.6716919,27.596817-178.6665344C107.0533524,237.6092834,76.3247681,233.9101562,70.0271606,252.154068z"/>
				</g>
			</g>
			<g>
				<g>
					<path class="st10" d="M101.4862366,306.1683044c1.9823227-14.3378296,3.9007645-29.1337891,5.6545181-44.0186768
						c-0.0129547-3.6375427-0.6991348-6.8171692-1.8791809-9.5353088"/>
				</g>
			</g>
			<g>
				<path class="st10" d="M42.6473885,423.8357239l31.609417-147.395813l2.7005692-0.7651672
					c4.9398193-1.3995972,8.7459106-5.3466492,9.9650574-10.3340454l1.9482422-7.9700928"/>
				<line class="st10" x1="75.7419586" y1="432.4993286" x2="31.2464333" y2="426.658905"/>
			</g>
		</g>
	</g>
</g>
<g id="RIGHT_ARM_1_">
	<g>
		<g>
			<path class="st7" d="M119.8673935,200.676239c9.758812,12.9429321,28.9178696,34.6027832,38.4369736,32.3978729
				c6.9963226-1.6177826,20.1278992-21.0470886,26.6041565-31.2454224c2.3486938-3.6908264,3.8218842-6.1772461,3.8218842-6.1772461
				c-3.0736389-4.7597046-10.9472656-8.1380615-10.9472656-8.1380615l-5.8382111,4.1202545l-16.3061829,11.5189056
				c-8.0882568-14.1257172-24.2616119-37.1277161-30.8590546-40.2642365
				C124.7796936,162.8883057,110.100708,187.7348328,119.8673935,200.676239z"/>
			<path class="st9" d="M155.892395,204.8356934c0,0-0.1065063,13.2914581,0,18.5235596"/>
			<path class="st2" d="M171.944931,191.6336365l12.9635925,10.1950531
				c2.3486938-3.6908264,3.8218842-6.1772461,3.8218842-6.1772461c-3.0736389-4.7597046-10.9472656-8.1380615-10.9472656-8.1380615
				L171.944931,191.6336365z"/>
		</g>
	</g>
</g>
<g id="HAIR">
	<path class="st12" d="M118.6029205,109.301239c0,0-0.0688095-0.1342621-0.2149582-0.3667755
		c-1.03228-1.6422577-5.9228973-8.1859436-17.6787491-6.9434586c-13.4202805,1.4184036-18.6574631,17.7845993-14.5113602,24.5492935
		s-3.600563,9.8197174-11.6745529,13.2020569c-8.0739899,3.3823547-14.5113564,14.4022522-6.8738022,24.3310852
		c7.637558,9.9288177,46.5891037,12.2200928,49.098587,0.4364319s-5.4553986-21.276062-4.4734268-30.7684479L118.6029205,109.301239
		z"/>
</g>
<g id="BECK">
	<g>
		<polygon class="st11" points="110.7597961,135.3824158 109.5116119,141.7717743 108.2459488,148.2484131 101.4812546,147.3755493 
			102.6509094,134.9983521 103.0087662,131.2275696 		"/>
		<path class="st12" d="M110.7597961,135.3824158l-1.2481842,6.3893585
			c-4.0413666-0.5237427-5.9529419-3.8406219-6.8607025-6.7734222l0.3578568-3.7707825L110.7597961,135.3824158z"/>
	</g>
</g>
<g id="BODY">
	<g>
		<path class="st7" d="M86.6428757,147.270813c0,0,15.7115479-6.6555939,31.9686356,1.3092957l-3.0550232,9.3832855
			l-26.7314529-0.9819794L86.6428757,147.270813z"/>
		<g>
			<path class="st7" d="M60.6528473,259.29599c3.5643616-33.6481476,8.0963287-91.0764771,8.0963287-91.0764771
				s14.1840439-14.6204681,32.950592-14.1840363c18.7665939,0.4364319,29.6773834,15.4933472,29.6773834,15.4933472
				s9.6015015,15.0569,9.3832855,22.4762268c-0.2182312,7.4193726-5.4554291,27.9316559-5.4554291,27.9316559
				s3.0508118,21.7507324,6.258728,39.5725098C141.563736,259.5092163,107.1663971,266.0525513,60.6528473,259.29599z"/>
			<path class="st9" d="M65.2865143,254.3409119c0,0,52.3960342,4.2772217,72.8910828,0"/>
			<path class="st9" d="M90.6156769,155.4655914c3.4357758-0.9541931,7.1597443-1.521347,11.0840988-1.4300842
				c4.2127151,0.0979614,8.0295639,0.9326782,11.4160004,2.1684265"/>
			<path class="st9" d="M132.5314789,171.4179688c2.5448303,4.2760773,8.3998871,14.7750397,8.2289429,20.5871124
				c-0.1739807,5.9153137-3.5383148,20.1533051-4.8951721,25.682785"/>
		</g>
	</g>
</g>
<g id="RIGHT_ARM">
	<g>
		<g>
			<g>
				<path class="st7" d="M41.2256432,230.9765015c0.4949989,6.2167206,4.8955688,9.2849274,11.9541016,9.6819
					c4.2227516,0.2375031,8.4379082-0.6212769,12.3223534-2.2943268c4.2702026-1.8392029,8.202301-3.7273712,8.202301-3.7273712
					l-5.3729553-13.9627533l6.7701721-11.6671448c0,0,5.5117035-9.6947784,9.5833359-16.3808289
					c6.4974899-10.6719818-7.4232101-33.104538-16.0807724-24.2841034
					C54.1948776,183.0083771,40.4627342,221.2302856,41.2256432,230.9765015z"/>
			</g>
			<g>
				<path class="st9" d="M68.9696274,236.83255c2.7157135-1.2263184,4.7347717-2.1958466,4.7347717-2.1958466l-5.3729553-13.9627533
					l6.7701721-11.6671448c0,0,5.5117035-9.6947784,9.5833359-16.3808289
					c4.7512817-7.8038788-1.4155579-21.8964233-8.4586716-25.4586029"/>
			</g>
			<g>
				<path class="st9" d="M60.92416,216.9005127c0,0-4.3693695,1.6299591-9.4352531,4.4010162"/>
			</g>
			<path class="st2" d="M80.4058609,230.0382233c0,0-2.6260834,1.9393158-6.6996536,4.6024323
				c-9.9751091-5.0756836-10.3462982-14.9208679-10.0864563-18.6882019l6.4304047-1.8466034
				C80.8698196,218.2814789,80.4058609,230.0382233,80.4058609,230.0382233z"/>
			<g>
				<g>
					<path class="st11" d="M70.4864655,216.0931396l13.3714523-4.4212189l5.5294189-6.2506409
						c1.2177658-1.3766022,2.9574814-2.1787872,4.7951355-2.2110291l9.4091187-0.1650696l9.4234161-7.3293152
						c0.7193222-0.5594788,1.7400055-0.507309,2.3985367,0.1225891h0.0000076
						c0.7357101,0.7037354,0.7591095,1.87146,0.0521851,2.6040955l-9.5473785,9.8945465l2.0944443,3.9279175l-2.5520782,3.1092224
						l0.8285675,5.7331848l-18.2258377-0.5930786l-10.783432,7.1170654
						C77.2800217,227.6314087,70.3786316,226.2295532,70.4864655,216.0931396z"/>
					<path class="st13" d="M95.0726852,206.334137l2.8169785,4.5590515
						c0.7275391,1.1774597,0.4465637,2.7144165-0.6505051,3.5583038l-2.2743073,1.7494812"/>
					<path class="st13" d="M99.8713074,206.1723785l2.8169861,4.5590668
						c0.7275314,1.1774597,0.4465561,2.7144012-0.6505051,3.5583038l-2.2743149,2.0187836"/>
					<path class="st13" d="M104.6699371,206.0106201l2.8169785,4.5590668
						c0.7275391,1.1774597,0.4465637,2.7144165-0.6505051,3.5583038l-2.2743073,1.7494812"/>
				</g>
				<g>
					<path class="st11" d="M98.2849808,218.4849701c0.043335-1.2804413,1.0603409-2.3142242,2.3399048-2.3785095
						l5.5573502-0.2791748c1.498848-0.0902863,2.7716751,1.0848389,2.8011093,2.5861206l0,0
						c0.0294113,1.4998932-1.1941605,2.7234497-2.6940536,2.6940155l-5.5735779-0.074295
						c-1.3810349-0.0184021-2.4774475-1.1677856-2.4307327-2.5481415V218.4849701z"/>
					<path class="st13" d="M98.6437073,219.8518372c-0.2424622-0.3967285-0.3756561-0.8666229-0.3587265-1.3668518v-0.0000153
						c0.043335-1.2804413,1.0603409-2.3142242,2.3399048-2.3785095l5.5573502-0.2791748
						c0.4262619-0.0256805,0.8342438,0.0509949,1.2005463,0.2084045"/>
				</g>
			</g>
		</g>
	</g>
</g>
<g id="HEAD">
	<g>
		<path class="st11" d="M107.2290497,111.6575851c-7.5176468,4.0904846-11.4863434,27.1392899,1.9143906,28.2654037
			S122.5441666,103.3243561,107.2290497,111.6575851z"/>
		<path class="st12" d="M98.6705933,130.2384338c0,0,2.5900574-6.5314484,5.8557816-10.5854568
			c0,0,7.9953995,5.0675049,14.8646774,2.5900574c6.8692856-2.4774399,10.6980591-15.6529541,4.8422852-18.2430115
			c-5.8557816-2.5900574-9.0088959,3.2657242-9.0088959,3.2657242S89.9995346,99.946022,98.6705933,130.2384338z"/>
		<g>
			<path class="st11" d="M101.485878,128.2114258c0,0-2.1396179-8.4458313-8.896286-6.7566681
				c-6.7566681,1.6891708-0.5630569,14.5268402,9.1215057,10.2476196L101.485878,128.2114258z"/>
			<g>
				<g>
					<path class="st12" d="M98.8737488,130.2010345c-0.1799164,0-0.3501511-0.1086426-0.4196548-0.2863617
						c-0.0189133-0.0483856-1.9275818-4.8101654-5.9358368-5.4176559c-0.2463379-0.0369492-0.4152603-0.266571-0.3778687-0.5124664
						c0.0369568-0.2467728,0.2678909-0.4148102,0.5124741-0.377861c4.5286407,0.6857834,6.5565186,5.7642822,6.6405411,5.9802704
						c0.0901718,0.2318115-0.0242004,0.4926758-0.2560196,0.5828552
						C98.9837189,130.190918,98.9282913,130.2010345,98.8737488,130.2010345z"/>
				</g>
				<g>
					<path class="st12" d="M95.2262039,129.3810883c-0.2428207,0-0.4429703-0.1926727-0.4500046-0.4372406
						c-0.0013199-0.0611572-0.028595-1.5255356,1.0711212-3.2780457c0.1319656-0.2107086,0.4108582-0.2753677,0.6206818-0.1420822
						c0.2107086,0.1319656,0.2744904,0.4099731,0.1420822,0.6206818c-0.945755,1.5070496-0.9334412,2.7642441-0.9329987,2.7765732
						c0.0044022,0.2480927-0.1922302,0.4539642-0.439888,0.459671
						C95.2336807,129.3810883,95.2297211,129.3810883,95.2262039,129.3810883z"/>
				</g>
			</g>
		</g>
	</g>
</g>
<g id="FACE">
	<g>
		<path class="st12" d="M105.1884766,124.6970139c0,0,1.6018219-2.9011917,3.8022385-1.6672287
			c0,0,0.0913849-0.6713181,0.6811905-0.659668s0.5654602,1.8574295,0.5654602,1.8574295
			S107.5438843,123.8827896,105.1884766,124.6970139z"/>
		<path class="st12" d="M117.7836227,126.6814117c0,0-0.0451431-3.0304718-1.8278198-2.2710571
			c0,0-0.0195084-0.5599213-0.3952789-0.6399612c-0.6499176-0.1384277-0.8621521,1.5911789-0.8621521,1.5911789
			S116.5792618,125.4806824,117.7836227,126.6814117z"/>
		<g>
			
				<ellipse transform="matrix(0.0763355 -0.9970822 0.9970822 0.0763355 -28.0110874 226.445755)" class="st12" cx="108.2168808" cy="128.3416595" rx="1.5383314" ry="1.2442386"/>
			<circle class="st4" cx="108.5320358" cy="127.8184128" r="0.3308544"/>
		</g>
		<g>
			
				<ellipse transform="matrix(0.0763355 -0.9970822 0.9970822 0.0763355 -21.8185444 234.2495422)" class="st12" cx="115.5251846" cy="128.9011688" rx="1.5383314" ry="1.2442386"/>
			<circle class="st4" cx="115.8403473" cy="128.3779297" r="0.3308544"/>
		</g>
		<g>
			<path class="st12" d="M112.3008728,133.9018097c-0.3690643,0-0.7143784-0.0681763-0.9620361-0.1504364
				c-0.2357788-0.0783081-0.3624649-0.33255-0.2850418-0.5683289c0.0774155-0.2353516,0.33255-0.3646698,0.567894-0.2872467
				c0.0131912,0.0043945,1.2752304,0.4051361,1.6579361-0.3875427c0.082695-0.1711273,0.0461884-0.2353516,0.0321121-0.2599792
				c-0.1385651-0.2436981-0.8076401-0.4253693-1.2374039-0.4631958c-0.2445831-0.0211182-0.4275742-0.2349091-0.4108582-0.4794769
				l0.206749-3.0018005c0.0175934-0.2485352,0.2344589-0.4306488,0.4803543-0.4187698
				c0.2485352,0.0171585,0.4354935,0.2322617,0.4187775,0.4803543l-0.178154,2.5852203
				c0.4847488,0.0959015,1.201767,0.322876,1.5030899,0.8516235c0.1302109,0.228302,0.2353439,0.6039581-0.0035172,1.0984039
				C113.7155533,133.67659,112.9699402,133.9018097,112.3008728,133.9018097z"/>
		</g>
		<path class="st4" d="M112.140976,136.6605377c0,0-3.413208,1.9836884-5.3138199-2.196167L112.140976,136.6605377z"/>
	</g>
</g>
<g id="TABLET">
	<g>
		<g>
			<path class="st3" d="M131.9491577,177.8898468l-2.5654602,30.3598328
				c-0.1774139,2.0995178,1.3777466,3.8015289,3.473526,3.8015289h47.8758392c2.0957794,0,3.9385681-1.7020111,4.1159821-3.8015289
				l2.5654602-30.3598328c0.1774139-2.0995178-1.3777466-3.8015137-3.473526-3.8015137h-47.8758392
				C133.9693604,174.0883331,132.1265717,175.790329,131.9491577,177.8898468z"/>
		</g>
		<g>
			<path class="st2" d="M134.6224213,177.8898468l-2.5654602,30.3598328
				c-0.1773987,2.0995178,1.3777466,3.8015289,3.473526,3.8015289h47.8758392c2.0957794,0,3.9385834-1.7020111,4.1159821-3.8015289
				l2.5654602-30.3598328c0.1774139-2.0995178-1.3777313-3.8015137-3.473526-3.8015137h-47.875824
				C136.6426239,174.0883331,134.7998352,175.790329,134.6224213,177.8898468z"/>
		</g>
		<g>
			<path class="st4" d="M147.013916,183.4070435h-6.4752502c-1.0334778,0-1.800354-0.8392944-1.7128754-1.8746185v-0.0000153
				c0.0874939-1.0353241,0.9962158-1.8746185,2.0296936-1.8746185h6.4752502c1.033493,0,1.8003693,0.8392944,1.7128754,1.8746185
				v0.0000153C148.956131,182.567749,148.0474091,183.4070435,147.013916,183.4070435z"/>
			
				<ellipse transform="matrix(0.7145625 -0.6995717 0.6995717 0.7145625 -86.8262253 150.2646332)" class="st2" cx="140.7267761" cy="181.5324097" rx="1.1397468" ry="1.0473213"/>
			
				<ellipse transform="matrix(0.7145625 -0.6995717 0.6995717 0.7145625 -85.9805069 152.3373718)" class="st2" cx="143.6896515" cy="181.5324097" rx="1.1397468" ry="1.0473213"/>
		</g>
	</g>
</g>
<g id="LEFT_HAND">
	<g>
		<path class="st11" d="M191.1677246,203.4360657c3.4454956-1.4458008,1.7034912-5.0308228,1.7034912-5.0308228
			c2.2975464-2.7935181,0.3162842-5.3354797,0.3162842-5.3354797c1.9009857-2.6829071-0.0593872-4.9076233-0.0593872-4.9076233
			c0.8039246-1.5288696,0.3684692-2.7951813-0.233902-3.6578522c-0.5656128-0.8100281-1.5045624-1.2645874-2.4924316-1.2509766
			c-4.7074738,0.0648193-10.7092896,1.0036163-12.0381927,1.483963c-2.1262817,0.7686768-2.5041504,3.0548096-1.2250977,4.1333618
			c0,0-2.286377,2.3199463-0.609375,4.4157715c0,0-1.9733887,2.6125488,0.6221313,4.9805908
			c0,0-1.5883789,2.8447876,2.0081787,4.633606C179.5296021,202.9851379,187.7994385,204.8494568,191.1677246,203.4360657z"/>
		<line class="st13" x1="190.1391754" y1="187.5341644" x2="179.588913" y2="188.1621857"/>
		<line class="st13" x1="190.1391754" y1="193.0697632" x2="178.3477478" y2="193.0697632"/>
		<line class="st13" x1="189.6231384" y1="198.2284393" x2="178.8457794" y2="197.8000488"/>
	</g>
</g>
</svg>
