<?xml version="1.0" encoding="utf-8"?>
<!-- Generator: Adobe Illustrator 25.2.3, SVG Export Plug-In . SVG Version: 6.00 Build 0)  -->
<svg version="1.1" xmlns="http://www.w3.org/2000/svg" xmlns:xlink="http://www.w3.org/1999/xlink" x="0px" y="0px"
	 viewBox="0 0 600 600" style="enable-background:new 0 0 600 600;" xml:space="preserve">
<style type="text/css">
	.st0{fill:#404B7C;}
	.st1{fill:#ECBDBB;}
	.st2{fill:none;stroke:#404B7C;stroke-width:1.0401611;stroke-linecap:round;stroke-linejoin:round;stroke-miterlimit:10;}
	.st3{fill:#F68D88;}
	.st4{fill:#9AB3DA;}
	.st5{fill:none;stroke:#ECBDBB;stroke-width:1.096442;stroke-linecap:round;stroke-linejoin:round;stroke-miterlimit:10;}
	.st6{fill:none;stroke:#D4E6FC;stroke-width:1.0433227;stroke-linecap:round;stroke-linejoin:round;stroke-miterlimit:10;}
	.st7{fill:none;stroke:#F68D88;stroke-width:1.0401611;stroke-linecap:round;stroke-linejoin:round;stroke-miterlimit:10;}
	.st8{fill:none;stroke:#404B7C;stroke-width:1.0361407;stroke-linecap:round;stroke-linejoin:round;stroke-miterlimit:10;}
	.st9{fill:#FFFFFF;}
	.st10{fill:#FFABAB;}
	.st11{fill:none;stroke:#ECBDBB;stroke-width:1.0433227;stroke-linecap:round;stroke-linejoin:round;stroke-miterlimit:10;}
	.st12{fill:#B0C8EA;}
	.st13{fill:none;stroke:#9AB3DA;stroke-width:1.0361407;stroke-linecap:round;stroke-linejoin:round;stroke-miterlimit:10;}
	.st14{fill:none;stroke:#ECBDBB;stroke-width:0.8894239;stroke-linecap:round;stroke-linejoin:round;stroke-miterlimit:10;}
	.st15{fill:none;stroke:#6B81BE;stroke-width:1.0433227;stroke-linecap:round;stroke-linejoin:round;stroke-miterlimit:10;}
	.st16{fill:#E9F3FF;}
	.st17{fill:none;stroke:#6B81BE;stroke-linecap:round;stroke-linejoin:round;stroke-miterlimit:10;}
	.st18{fill:none;stroke:#9AB3DA;stroke-width:1.0433227;stroke-linecap:round;stroke-linejoin:round;stroke-miterlimit:10;}
	.st19{fill:none;stroke:#404B7C;stroke-width:1.0509137;stroke-linecap:round;stroke-linejoin:round;stroke-miterlimit:10;}
	.st20{fill:none;stroke:#9AB3DA;stroke-width:1.0509137;stroke-linecap:round;stroke-linejoin:round;stroke-miterlimit:10;}
	.st21{fill:none;stroke:#ECBDBB;stroke-width:1.0509137;stroke-linecap:round;stroke-linejoin:round;stroke-miterlimit:10;}
	.st22{fill:none;stroke:#ECBDBB;stroke-width:1.0361407;stroke-linecap:round;stroke-linejoin:round;stroke-miterlimit:10;}
</style>
<g id="WOMAN_1_HAIR_1_">
	<path class="st0" d="M434.2049561,126.9824677c0,0,4.0323486,19.4212494,18.3334961,24.0420532
		c0,0-1.8303833,15.3086548-21.7419434,17.0689087c-19.9115295,1.7602539-26.9156494-8.7153778-26.9156494-8.7153778
		s10.1461487-7.4573669,6.3396301-23.2324677C406.4140015,120.3704834,430.1795349,115.2787476,434.2049561,126.9824677z"/>
</g>
<g id="WOMAN_1_LEFT_ARM_1_">
	<g>
		<g>
			<path class="st1" d="M498.3135986,79.0056l-0.1522522-3.599678l-9.3717041-14.1953812
				c-0.5185242-0.5795135-0.5759277-1.4376411-0.1391907-2.0810509v-0.0000038
				c0.4765625-0.7020454,1.3989868-0.9432335,2.1581726-0.5642929l7.7208557,4.9543304l7.8544922-8.3170662l6.5134277-9.4600449
				c0.4456787-0.6472511,1.2941284-0.87714,2.0055542-0.5434036l0,0c0.7855225,0.3684692,1.1365356,1.2940292,0.7929688,2.0907135
				l-0.4819336,1.1174088l0,0c0.8792114,0.7672386,1.2676392,1.9543724,1.0119629,3.092926l-0.1184692,0.5274353
				l0.3727417,0.4843216c0.3490601,0.4535904,0.5692749,0.992981,0.6373291,1.5612755l0.637146,5.3186836
				c0.2245483,1.8748817-0.3396606,3.7588158-1.5579224,5.2015724l-2.0883789,2.4733276l-6.8540039,4.7097702l0.0089417,7.423439
				L498.3135986,79.0056z"/>
		</g>
		<g>
			<path class="st2" d="M515.4572754,56.4506721l-0.4474487,0.1270638c-0.930603,0.2642288-1.5599365,1.1304207-1.5236206,2.0970955
				l0.0563354,1.5016518c0.0247803,0.6591187-0.2619019,1.2915039-0.7738647,1.7073479l-1.831665,1.4877434"/>
			<line class="st2" x1="507.735321" y1="55.3055725" x2="509.1221924" y2="64.4146118"/>
			<path class="st2" d="M514.4346924,52.6785545l-0.9284668,0.4280396
				c-0.9562378,0.4408646-1.4376221,1.5221939-1.1252441,2.5277863v0.0000038
				c0.0126343,0.0406761,0.0239868,0.0817299,0.0341187,0.1231041l1.0004272,4.0835571"/>
			<path class="st2" d="M513.9404297,48.8614082l-0.5180664,0.2359314
				c-0.9471436,0.4313164-1.4349976,1.4917145-1.1463013,2.4915848l0.6090088,1.8648682"/>
		</g>
		<path class="st3" d="M511.3670959,77.8046646l-14.4324341-0.9344177l-13.1230164,58.5988388l-28.4123535,18.8836975
			c0,0-10.5205383,9.5935364-1.7808228,20.3880157c8.7397156,10.7944641,19.6665039,1.6645355,19.6665039,1.6645355
			l26.3512573-27.3198547c3.4578857-3.5849762,5.6019592-8.2338562,6.0838623-13.19133L511.3670959,77.8046646z"/>
	</g>
</g>
<g id="WOMAN_1_LEFT_LEG_1_">
	<g>
		<g>
			<path class="st1" d="M402.4703369,443.6962585c-0.43927,0.3848572-6.5863342,11.9259644-6.5863342,11.9259644l6.121582,4.4396362
				l7.5758972-9.7426453L402.4703369,443.6962585z"/>
			<path class="st3" d="M404.4767761,461.7713928l-7.9169312-12.2340698l-16.8542786,10.2277832l-4.491394,2.7261963
				l6.6941833,25.4732056l13.9184875-4.8347168C395.8268433,483.1297913,398.182373,469.3421021,404.4767761,461.7713928z"/>
			<path class="st4" d="M379.7077332,458.631012l-6.3181458,3.1824646l9.4970703,38.4493103
				c0,0,9.1291199-1.3291016,12.4009705-5.8301697c3.2718201-4.5010376,2.0690308-13.5260925,2.0690308-13.5260925
				l-11.4128723,3.7056885L379.7077332,458.631012z"/>
			<path class="st5" d="M398.2232666,457.8992004c0,0-6.6952209,8.7042542-8.3814697,16.7106628"/>
		</g>
		<g>
			<path class="st4" d="M489.0367432,263.144165l-22.2324219,118.2792358
				c-1.3199158,7.9273987-5.2615051,15.1826782-11.1936951,20.6043396l-45.0753479,54.1324158l-10.3996887-11.07901
				l39.7891541-64.7347412l-7.281311-73.2061768c-0.1880188-6.1537781,1.2095947-12.2524719,4.0586243-17.7102356
				l13.7216187-26.2858276H489.0367432z"/>
			<path class="st6" d="M408.5273743,441.5401306l36.5663452-59.7371521l-6.0571594-80.1697998
				c-0.0400085-2.5177917,0.5996704-4.9997864,1.8516846-7.1846008l8.747406-15.2647095"/>
			<line class="st6" x1="413.5353699" y1="451.4760132" x2="404.6122131" y2="441.9849243"/>
		</g>
	</g>
</g>
<g id="WOMAN_1_RIGHT_LEG_1_">
	<g>
		<g>
			<path class="st1" d="M418.2173462,452.6598816c-0.3106384,0.4945374-2.8935547,13.3129883-2.8935547,13.3129883
				l7.1369019,2.4997253l4.4671326-11.5046997L418.2173462,452.6598816z"/>
			<path class="st3" d="M425.3180847,469.4024963l-11.0900574-9.453125l-13.2176208,14.6277161l-3.5220642,3.8986816
				l13.7114868,22.4875793l11.9499512-8.6196289C423.1497803,492.3437195,421.4564514,478.4591675,425.3180847,469.4024963z"/>
			<path class="st4" d="M400.6875916,473.4898987l-5.1415405,4.8591919l20.1144409,34.1167297
				c0,0,8.3656616-3.8888245,10.2108459-9.1385498c1.8451538-5.2497253-1.8928528-13.5518799-1.8928528-13.5518799
				l-9.8727722,6.8200684L400.6875916,473.4898987z"/>
			<path class="st5" d="M418.2173462,467.4841919c0,0-3.9208679,10.2575378-3.2426453,18.411438"/>
		</g>
		<g>
			<path class="st4" d="M452.4418335,273.3482056l-0.3392029,34.8249817l9.9111938,66.3929138
				c1.0065308,7.9732056-0.6912231,16.0536194-4.8215027,22.9475403l-27.6773071,64.7770996l-13.1378174-7.6351624
				l19.5752258-73.4205322l-27.9491577-68.0514832c-1.9431763-5.8419495-2.3513794-12.0854492-1.1853943-18.1306458
				l5.6157227-29.1151428L452.4418335,273.3482056z"/>
			<path class="st6" d="M452.1026306,308.1731873l9.9111938,66.3929138
				c1.0065308,7.9732056-0.6912231,16.0536194-4.8215027,22.9475403"/>
			<path class="st6" d="M459.2524719,279.7740173l-1.7591248,22.9439087
				c-0.1454468,1.8969727-1.3263245,3.5586548-3.0699463,4.3198242l-3.1893311,1.392334l-0.0006714-31.3775024"/>
			
				<ellipse transform="matrix(0.1969248 -0.9804186 0.9804186 0.1969248 -12.6925583 750.3834229)" class="st6" cx="451.6991577" cy="382.9394531" rx="12.8340979" ry="8.1868172"/>
			<path class="st6" d="M423.402771,448.8587952l17.9192505-67.7091064l-28.7713623-75.0739136
				c-0.7596741-2.4007874-0.8578796-4.9620361-0.2842712-7.4139404l4.5628357-22.6971436"/>
			<line class="st6" x1="431.0473938" y1="456.9434509" x2="419.7791443" y2="450.4066162"/>
			<path class="st6" d="M428.2096558,278.1404724l-3.2910461,13.7073669
				c-1.2155151,3.6173096-4.7044373,5.9712219-8.5137329,5.7441101l-3.8347473-0.2286377"/>
		</g>
	</g>
</g>
<g id="WOMAN_1_BODY_1_">
	<g>
		<path class="st3" d="M441.562439,155.4628754c2.7580566-0.2168732,10.4306641-1.0908508,14.1551819-1.6772614
			c8.3987427-1.3223419,12.6110229,3.903595,15.4512024,11.9173737
			c4.7033691,13.2709045,10.9252014,31.5115814,10.5641785,34.1589661
			c-0.5765991,4.2284851-6.9193115,14.4152832-6.9193115,14.4152832l20.7579956,50.1651764
			c0,0-14.2230835,13.2620544-37.2875366,13.6464844c-23.0644531,0.3843994-53.8170471-11.3400269-53.8170471-11.3400269
			s15.7607117-43.0536499,15.9529114-47.8587494s-11.916626-30.1759949-12.4932556-40.9394073
			C407.3501587,167.1873016,441.562439,155.4628754,441.562439,155.4628754z"/>
		<path class="st5" d="M459.1985168,153.6179352c6.1412048,0.4625549,9.5527954,5.263916,11.9703064,12.0850525
			c0.8999023,2.5391388,1.8554077,5.2602234,2.8097229,8.0192108"/>
		<path class="st5" d="M489.0367432,261.367157c0,0-14.0308533,8.2647705-29.7915649,9.610199
			s-48.8197632-9.4179993-48.8197632-9.4179993"/>
		<path class="st4" d="M439.4481812,154.1174469c11.9474182-2.3355865,15.1200256,8.2006989,15.1200256,14.6074982
			c0,0-4.2284851-2.3064575-11.6603699-2.6908569c0,0-3.9721985,1.9220428-7.944397,7.6881561
			C434.9634399,173.7222443,422.4061279,157.4489899,439.4481812,154.1174469z"/>
	</g>
</g>
<g id="WOMAN_1_NECK_1_">
	<g>
		<polygon class="st1" points="432.0159607,139.7714539 432.5875854,143.9559479 434.7121582,159.3673706 442.1428528,163.4763641 
			445.7234192,158.7310944 443.0919189,149.1003113 441.6252136,143.7402496 		"/>
		<path class="st0" d="M432.0159607,139.7714539l0.5716248,4.184494c3.612854,4.2276154,8.4121094,5.0148773,10.5043335,5.1443634
			l-1.4667053-5.3600616L432.0159607,139.7714539z"/>
	</g>
</g>
<g id="WOMAN_1_HEAD_1_">
	<g>
		<path class="st1" d="M437.4081421,119.5623245c0,0,6.8392029,5.1910858,10.4327087,13.9655685
			s-3.0719604,12.4029846-11.3163452,12.1061554c-8.2443542-0.2968292-16.5126038-8.7997131-16.5126038-8.7997131
			s-6.5671387-7.5580597-2.1708984-13.8430328S430.6351318,114.7651596,437.4081421,119.5623245z"/>
		<path class="st0" d="M419.7790527,125.4385986c0,0,12.2879028,3.8702393,22.1329651-5.4960098
			c0.3254395-11.4534531-19.8933716-18.0419006-25.5802612,0.186615
			c-14.7907104,12.1186752-0.690918,26.4775009,8.2117004,20.6794662
			C424.543457,140.80867,426.8027954,134.4154816,419.7790527,125.4385986z"/>
		<g>
			<g>
				<path class="st1" d="M430.7972107,142.7019653l-5.3612366-3.6583252c0,0-4.9244385-1.9245758-7.5716858,1.5426636
					C415.217041,144.0535278,422.5765991,152.3715973,430.7972107,142.7019653z"/>
				<path class="st2" d="M419.7605591,142.3369751c0,0,3.8364563-1.922287,8.0701294-0.6008301"/>
				<path class="st2" d="M424.1579895,144.7486877c0,0-0.9327698-1.401825-1.3486023-3.3198242"/>
			</g>
			<path class="st7" d="M427.3425293,143.6824646c1.5768127-0.6005859,3.6790161,1.0757751,4.6954041,3.7442627
				c1.0163574,2.6684723,0.5620117,5.318573-1.014801,5.9191589c-1.5768433,0.6005859-3.6790466-1.0757751-4.6954041-3.7442627
				c-0.3921814-1.0296631-0.5653992-2.0565948-0.5396423-2.9641113"/>
		</g>
	</g>
</g>
<g id="WOMAN_1_FACE_1_">
	<g>
		<path class="st0" d="M426.0601807,131.1751556c0,0-0.9240723-4.1020737,2.2032166-4.7848511
			c0,0-0.4787903-0.7139435,0.0906372-1.1997299s2.1011963,1.2860413,2.1011963,1.2860413
			S427.6091614,128.4184418,426.0601807,131.1751556z"/>
		<path class="st0" d="M439.6824036,122.448082c0,0-2.5956421-2.8373566-3.6473999-0.6151199
			c0,0-0.4901733-0.5148315-0.9141235-0.274231c-0.7332764,0.4161377,0.5223389,2.2360077,0.5223389,2.2360077
			S437.5281982,122.3233337,439.6824036,122.448082z"/>
		<path class="st8" d="M436.2007141,130.0857849l2.3322754,3.0224609c0,0,2.1888428-1.6353302,2.6443481-0.0265961
			c0.4474182,1.5802612-1.569397,2.4447937-1.569397,2.4447937"/>
		<path class="st8" d="M429.9438477,133.6523895c0,0,0.2609558-2.69664,3.2881165-2.6437683"/>
		<path class="st8" d="M441.115509,125.81884c0,0-2.0452271-0.5271606-2.8662415,1.7952347"/>
		<path class="st9" d="M444.0890808,138.4788513c0,0-3.1092529,2.7939301-7.9362793,2.0500183
			c3.1307983-1.4936981,5.7771606-3.140152,7.0010071-5.235199L444.0890808,138.4788513z"/>
	</g>
</g>
<g id="WOMAN_1_RIGHT_ARM_1_">
	<g>
		<path class="st3" d="M410.0725708,173.243866c-5.494751,3.3361053-21.5643616,42.9505005-21.5643616,42.9505005
			l-39.9208069,50.0791931l10.5148621,7.1287231c0,0,37.2475281-30.8316803,40.9901123-35.8217773
			c3.7425537-4.990097,23.5247498-33.6831665,27.0891113-41.7029724
			C430.7458191,187.8577271,425.0428772,164.1547546,410.0725708,173.243866z"/>
		<path class="st5" d="M421.1407166,206.4073486c2.8050537-4.4721832,5.0497437-8.3000488,6.0407715-10.5298157
			c3.5643311-8.0198059-2.1386108-31.7227783-17.1089172-22.633667"/>
	</g>
</g>
<g id="PLANTS">
	<g>
		<g>
			<path class="st3" d="M210.879837,531.067627c0,0-2.611618-31.6269531-31.339447-38.3425293
				c-28.7278137-6.7156067,0,29.7185059,0,29.7185059s-23.877655-18.8989563-38.4281158-13.3026123
				c-14.5504532,5.5963135-2.611618,17.2601318,20.8929596,22.2478027L210.879837,531.067627z"/>
			<path class="st10" d="M153.2069702,493.098175c10.6066589,8.5242615,7.0886841,13.6443787-1.8654327,6.0760193
				C142.3874054,491.605835,147.1165619,488.2034912,153.2069702,493.098175z"/>
		</g>
		<g>
			<path class="st3" d="M479.4907837,497.9787903c-1.1800537,0.9799805-2.4000244,1.9500122-3.6500244,2.9299927
				c-2.2200317,1.7299805-4.5200195,3.4500122-6.8599854,5.1500244
				c-13.6500244,9.9599915-28.3500366,19.1800232-33.6199951,25.3299866c0,0-4.8800049-29.6200256,15.3599854-59.5099792
				c2.4099731-3.5599976,4.9099731-6.7000122,7.4699707-9.4500122c6.3800049-6.8800049,13.0800171-11.3900146,19.5200195-14.2000122
				c12.6400146-5.5300293,24.2200317-4.5,30.1799927-2C510.7407837,459.2987976,495.1307373,485.0887756,479.4907837,497.9787903z"
				/>
			<path class="st10" d="M475.8407593,500.908783c-2.2200317,1.7299805-4.5200195,3.4500122-6.8599854,5.1500244
				c2.0299683-8.4100342,2.4099731-19.7399902-6-28.3500366c-4.6700439-4.7699585-5.6600342-10.1399536-4.7900391-15.2799683
				c6.3800049-6.8800049,13.0800171-11.3900146,19.5200195-14.2000122
				c-2.4199829,5.9099731-3.3900146,13.710022,1.9000244,21.7600098
				C485.2407837,478.5688171,481.1507568,490.9187927,475.8407593,500.908783z"/>
			<path class="st11" d="M500.762146,450.027832c0,0-41.584137,20.6732483-62.584137,72.6401367"/>
		</g>
		<g>
			<path class="st4" d="M200.3250427,497.4297791c1.322113,1.0015869,2.6868591,1.9905396,4.0845184,2.9887695
				c2.4817963,1.7615356,5.049469,3.5084839,7.6593781,5.2318726c15.2267303,10.099762,31.5519867,19.3494568,37.542038,25.7383728
				c0,0,3.8404694-32.2329407-19.4680939-63.5437317c-2.7753906-3.7292786-5.6277466-7.0004883-8.526062-9.8475037
				c-7.2244568-7.1238708-14.6800842-11.6721191-21.7727051-14.3964539
				c-13.9216309-5.3630981-26.3812256-3.6908875-32.6987-0.7022705
				C164.6981506,457.1554565,182.8070984,484.2609558,200.3250427,497.4297791z"/>
			<path class="st12" d="M204.4095612,500.4185486c2.4817963,1.7615356,5.049469,3.5084839,7.6593781,5.2318726
				c-2.5992432-8.986908-3.5571747-21.2077637,5.1117096-30.9151611c4.8143616-5.378418,5.6243439-11.2272034,4.4361725-16.7377014
				c-7.2244568-7.1238708-14.6800842-11.6721191-21.7727051-14.3964539
				c2.8997498,6.267334,4.3245087,14.6465149-1.0011139,23.5981445
				C193.1757355,476.7398682,198.1907196,489.8833923,204.4095612,500.4185486z"/>
			<path class="st6" d="M175.0296783,446.6582947c0,0,45.9203491,20.3231201,71.1166077,75.4458923"/>
		</g>
		<g>
			<path class="st4" d="M465.4750366,531.3887939c0,0,9.5527954-15.8779297,22.3366394-27.2233582
				c9.8610229-8.7514648,26.4950256-11.6029663,32.9108582-10.6524658
				c-0.5940552,6.7722778-6.2267456,17.2590027-15.2441101,24.4216003
				C494.9403687,526.3050537,478.4281311,530.8198853,465.4750366,531.3887939z"/>
		</g>
	</g>
</g>
<g id="WOMAN_1_RIGHT_ARM">
	<g>
		<path class="st3" d="M167.6574097,163.6204376l-51.6457214-28.0402985l-12.2331467,20.5006256l45.9231491,29.5119019
			c7.6940308,4.9444733,18.1158447,2.0126953,21.8243256-6.3474884c0.6082001-1.3710632,1.1043854-2.8956757,1.4431152-4.5894775
			C173.8530426,170.2359161,171.6185608,165.7710724,167.6574097,163.6204376z"/>
		<path class="st0" d="M122.8569565,135.9631348l-7.9091492-5.6164856c0,0-11.192627-0.4558716-16.9752808,8.473526
			c-5.7826614,8.9293823-1.0028839,16.1325531-1.0028839,16.1325531l10.3594971,8.2906189
			C107.3291397,163.2433472,125.8823624,154.6361542,122.8569565,135.9631348z"/>
		<g>
			<g>
				<path class="st1" d="M113.2577972,136.2289734c-3.4374771-11.7356491-5.4972687-25.1036682-6.9623871-39.1765442
					l-7.1139145,0.8020782c-7.7995605,35.1488342-1.1205063,51.711319-1.1205063,51.711319
					C104.2713852,151.3654785,112.2553253,144.3587036,113.2577972,136.2289734z"/>
			</g>
			<path class="st1" d="M106.4675751,102.543602l1.8634872-3.095993c1.0976257-1.8235931,1.2917328-4.0527496,0.5198212-6.0363007
				c-1.1713791-3.0100708-2.8702621-7.2223206-3.5725937-8.2063446c-1.1212387-1.5709229-2.9743805,0.2910156-1.7043839,4.1055908
				l-1.8110504-2.8354874c0,0,0.1545792-5.2222137,0.3230667-8.2424927c0.0297318-0.5329971-0.2758942-1.022934-0.7664795-1.2333908
				l0,0c-0.6881485-0.2952194-1.4797363,0.0666962-1.7087631,0.7796097
				c-0.4721375,1.469635-1.2003021,3.8403702-1.5163956,5.4178619c0,0,0.6204071-4.8720856,0.8615341-7.5213776
				c0.0563126-0.6186752-0.3225708-1.1897583-0.9118576-1.3864288l0,0
				c-0.7426682-0.2478485-1.5376816,0.1848907-1.7251968,0.9450455c-0.4413452,1.7891541-1.151062,4.9784851-1.3433456,7.6781006
				l0.3041-7.2232437c0.0307159-0.7295914-0.546257-1.3409195-1.2764053-1.352417l0,0
				c-0.6384888-0.0100555-1.1881866,0.4393463-1.2982407,1.0683594c-0.3191223,1.8239059-0.9023132,5.5818634-0.8487549,8.4198151
				l-0.8590622-6.3429642c-0.0977936-0.7220688-0.7676086-1.2244186-1.4881744-1.1161041l0,0
				c-0.5909271,0.088829-1.0447311,0.5645142-1.1051865,1.1590118c-0.2291412,2.2532425-0.6358185,7.8239288,0.3825607,12.0495911
				l10.6879272,11.1397629L106.4675751,102.543602z"/>
			<path class="st8" d="M92.9055557,85.8201828l4.5348969,4.9583893c0,0,5.2079391,2.3542252,6.803093,5.3792572"/>
			<line class="st8" x1="104.0778503" y1="89.688797" x2="106.9121628" y2="92.7772827"/>
		</g>
	</g>
</g>
<g id="WOMAN_1_BACK_SHIRT">
	<path class="st4" d="M240.6140137,311.9661255c0,0-37.9888916,37.1155396-82.5547943,28.0239868
		s-65.6494827-47.7806702-65.6494827-47.7806702l29.6773605-10.7132874l90.0156403,23.8288269L240.6140137,311.9661255z"/>
</g>
<g id="WOMAN_1_RIGHT_LEG">
	<g>
		<g>
			<path class="st1" d="M190.5605927,455.7515259l12.678009,11.097229c0,0,4.4142456-0.988678,5.7771301-6.0484619
				l-12.2132111-13.4002991L190.5605927,455.7515259z"/>
			<g>
				<path class="st0" d="M224.0089417,466.446106c3.4983368,2.7184448,7.0807495,6.8985596,10.7234802,12.1219482
					l-2.5275421,2.6461792c0,0-8.2812653-5.5964661-12.7565613-7.2685547
					C214.9730377,472.2735596,219.9839478,465.0595703,224.0089417,466.446106z"/>
				<path class="st3" d="M208.0677643,458.1598816c0,0-1.3076172,4.2450867-7.5102692,7.8630066
					c0,0,5.9611206,21.3083801,5.7841797,26.4888611c-0.1769409,5.1804504-3.3044739,13.9042358-4.1923828,17.1044006
					c-0.8879089,3.2001953,15.3975677-12.1850891,18.3278198-16.6152954s1.2000885-12.1551514,1.6624908-17.7858582
					s1.8693848-8.7688599,1.8693848-8.7688599S216.1833038,460.5618896,208.0677643,458.1598816z"/>
			</g>
		</g>
		<g>
			<g>
				<path class="st0" d="M146.039093,255.9080811c-16.332077-1.2995758-25.4795074,14.489624-25.4795074,14.489624
					s-8.6623306,28.8985901-7.480423,43.6152954c1.1905136,14.7273865,10.3839951,77.3114319,10.3839951,77.3114319
					l2.2931061,18.8741455l63.5592728,49.1270447c0,0,9.7103119-6.9808655,11.3427887-13.0166016
					c0,0-18.7663269-20.3057861-27.9043732-31.6329041c-5.4372711-6.7504883-11.6487732-12.3796692-17.7031403-17.3109741
					c2.1432648-16.1328735,6.1640167-49.6141052,7.0160217-80.0866699
					C163.2519684,275.2209778,162.3722229,257.1979675,146.039093,255.9080811z"/>
			</g>
			<polyline class="st13" points="149.191452,323.3687134 145.5753021,402.7340393 191.5367126,446.8242188 			"/>
		</g>
	</g>
</g>
<g id="WOMAN_1_LEFT_LEG">
	<g>
		<g>
			<path class="st1" d="M210.2953491,474.4520264l5.3633881,15.97229c0,0,4.3114319,1.3691406,8.0372314-2.3155823
				l-3.8018951-17.7278442L210.2953491,474.4520264z"/>
			<g>
				<path class="st0" d="M237.2734833,485.292511c3.8895111,2.1213074,8.096756,5.671814,12.5310974,10.2424011
					l-2.0697632,3.0177612c0,0-9.0725708-4.1938782-13.758316-5.1255188
					C229.2907715,492.4955139,233.078064,484.5704041,237.2734833,485.292511z"/>
				<path class="st3" d="M222.6172028,479.6740112c0,0-3.0176239,4.3999939-8.5587158,8.9671021
					c0,0,9.3058777,20.0744019,9.9632416,25.2160645c0.6573486,5.1416626-1.0285492,14.2544556-1.390976,17.5556641
					c-0.362442,3.3012695,13.2407532-14.4997559,15.4214783-19.3430786
					c2.1807251-4.8432922-0.7676239-12.190094-1.2155151-17.821991c-0.4479065-5.6318665,0.4368134-8.9552307,0.4368134-8.9552307
					S231.0131531,480.7414856,222.6172028,479.6740112z"/>
			</g>
		</g>
		<path class="st0" d="M223.7804565,471.386322c-4.4500122,4.3900146-16.3599854,5.5300293-16.3599854,5.5300293
			l-27.7331696-68.4518738c-1.1286621-2.7857971-1.9898834-5.6725769-2.5720673-8.6213989l-2.1947632-11.1167297
			c0,0-17.7360687-63.3616638-20.0260468-77.9516907c-2.2700195-14.5899658,0.7128754-51.3267212,0.7128754-51.3267212
			s9.8731689-12.2216034,26.2531738-12.1415863c16.3900146,0.0799561,24.1099854,22.6800079,26.0499878,64.7099762
			c1.1400146,24.2800293,0.1600342,64.9899902-0.6699829,82.9000244l5.9199829,23.789978
			c1,3.6400146,1.8499756,7.4100342,2.4400024,11.2999878C217.7904663,444.386322,223.7804565,471.386322,223.7804565,471.386322z"
			/>
		<path class="st13" d="M159.6000061,331.5528259c-2.2768707-9.0605774-4.0756378-16.764679-4.7055817-20.7781677
			c-1.72258-11.0714417-0.4203339-34.8958435,0.3079376-45.7429504"/>
		<path class="st13" d="M148.0033417,298.2922668l1.5040283,15.6099854c0.240097,2.4919128,1.96315,4.5912476,4.3603973,5.3126831
			l2.9532928,0.8887634"/>
		<polyline class="st13" points="194.0986176,314.3283691 195.9396362,400.0260315 215.2508698,470.3808899 		"/>
	</g>
</g>
<g id="WOMAN_1_BODY">
	<g>
		<g>
			<path class="st4" d="M184.9186249,165.9753723l20.0710907,22.7620239c0,0,7.976944,118.4519043,7.0441895,118.3278503
				s-32.5809784,5.4756165-59.4460144-3.476593s-30.8886108-16.7649841-30.8886108-16.7649841l23.2941284-72.8420563
				l7.8333435-36.2954407L184.9186249,165.9753723z"/>
			<path class="st8" d="M212.033905,307.0652466c-0.9327545-0.124054-32.5809784,5.4756165-59.4460144-3.476593
				s-30.8886108-16.7649841-30.8886108-16.7649841"/>
			<path class="st8" d="M198.9676971,303.007019c0,0-45.1437988-1.5743713-72.218689-18.4649353"/>
		</g>
		<path class="st3" d="M172.822937,256.9187927c3.7826233,43.7729797,7.1537476,73.7118225,7.1537476,73.7118225
			c20.827652,1.2417908,60.6373291-18.6644897,60.6373291-18.6644897s-26.4633179-38.903595-26.9657135-66.8151703
			c-0.5024109-27.9115753,5.7239838-67.687912,5.7239838-67.687912s-21.1001129-11.4876709-28.1435852-11.5407257
			c-0.2127991,5.8823547-1.3456726,30.197113-5.7102814,47.1208649
			C180.5121307,232.4128418,172.822937,256.9187927,172.822937,256.9187927z"/>
		<g>
			<path class="st3" d="M179.5941772,164.3748932c0,0-5.361145-0.3835907-15.8053284-0.2947235
				c-4.4849091,0.0381622-8.4575195,2.9232483-9.8650513,7.1817474l-3.58284,10.8399048
				c0,0-8.131134,15.5674896-8.9589691,19.4125977c-0.8278198,3.8451233-0.6548615,23.1325989-0.6548615,23.1325989
				s-22.4094772,52.6786957-48.3173904,67.5624237c0,0,5.5930862,12.0305481,14.1036377,21.901123
				c15.0145035-19.2926636,28.0595779-41.6498413,38.7945938-67.6015472c0,0,18.3761902-47.7608795,22.5528717-57.7526398
				C172.0375214,178.7646332,179.5941772,164.3748932,179.5941772,164.3748932z"/>
			<path class="st14" d="M154.1882935,170.1871796l-3.8473358,11.9146423c0,0-8.131134,15.5674896-8.9589691,19.4125977
				c-0.8278198,3.8451233-0.6548615,23.1325989-0.6548615,23.1325989s-3.1198273,8.0532074-13.4314346,26.4611664"/>
		</g>
		<g>
			<path class="st3" d="M187.8534393,161.3557739c6.1347961,1.8139191,9.7263031,16.4816589,10.4178467,29.1248779
				l-7.8761749,5.491745l5.3674469,13.3705902c0,0-14.0205841,24.9252625-22.939621,47.5758057
				c0,0,7.7672272-37.780838,12.4309387-58.5714874c2.5112762-21.6570282-7.3334656-23.766983-18.0684662-4.5126038
				c-10.7641144,21.4559021-21.8774261,52.6743011-21.8774261,52.6743011s3.4440002-32.2384338,7.4042053-49.3256378
				l11.4253082-6.6017914l-2.0340118-8.4973907C162.1034851,182.0841827,176.1830444,157.9050751,187.8534393,161.3557739z"/>
			<path class="st14" d="M146.039093,241.6384735c0,0,2.7128906-27.3679047,6.6730957-44.4551086l11.4253082-6.6017914
				l-2.0340118-8.4973907c0,0,4.7696075-8.1909332,11.057724-14.3576508"/>
			<path class="st14" d="M194.2989197,169.5667572c2.230011,5.7735901,3.5764465,13.6755219,3.9723663,20.9138947
				l-7.8761749,5.491745l5.3674469,13.3705902c0,0-10.7045746,19.0301971-19.3569489,38.9448853"/>
		</g>
	</g>
</g>
<g id="WOMAN_1_HAIR">
	<g>
		<path class="st0" d="M206.899231,128.0619202c0,0,5.5332031-8.1133652,12.9085236-9.0622101
			c7.3753204-0.9488373,11.2560425,7.0080338,11.1376343,16.073822c-0.1183929,9.0657959-7.6857452,15.8716583-16.5964355,6.1810608
			C207.3486023,133.6415253,206.899231,128.0619202,206.899231,128.0619202z"/>
		<path class="st0" d="M208.7499847,128.4374084c0,0,10.7155151,7.5761261,8.2425842,17.8652191
			c-2.4729156,10.289093-21.6484833,16.2458801-30.7651978,9.1735535
			c-9.1167297-7.0723419-5.7045288-15.2771606-5.7045288-15.2771606s-8.5528412-1.7950745-7.7289276-10.146286
			c0.8239288-8.3512115,5.2811584-9.3273087,9.6194611-7.9487686c0,0-0.4176941-10.5499878,9.2711182-10.358345
			C201.373291,111.9372711,208.0116272,117.9286804,208.7499847,128.4374084z"/>
		<path class="st13" d="M208.7499847,128.4374237c0.0038452,0.0027161,7.8768005,5.5709229,8.5651855,13.6420288"/>
	</g>
</g>
<g id="WOMAN_1_NECK">
	<g>
		<path class="st1" d="M167.1895447,193.8352661c0,0,8.3262329-15.8779449,10.6543732-20.631012
			c0.7354584-1.5071564,1.5722198-4.3840485,2.3680573-7.6044006c1.2259979-5.3336792,9.9876099-5.2075195,9.6426086,1.9745941
			c-0.7377319,3.4985962-1.3728943,6.7426453-1.6875458,8.9013214l-2.9095612,21.8761902
			c0,0-6.452774,4.837326-13.1493835,4.4655457C172.1080933,202.8175049,167.986557,199.7379456,167.1895447,193.8352661z"/>
		<g>
			<path class="st1" d="M180.3052979,165.1891022c0.5016174-1.7117767,0.9957428-3.5216064,1.4530792-5.2763519
				c1.3659973-5.275238,2.4382019-10.041748,2.4382019-10.041748l10.5770416-0.3720551c0,0-0.2008667,0.7034302-0.5384674,1.892395
				c-0.9150848,3.2470551-2.8242493,10.1039734-4.3805695,16.1831055
				C184.2213745,170.5424194,181.4007874,167.1780396,180.3052979,165.1891022z"/>
			<path class="st0" d="M181.7583923,159.912796c6.1895447-0.7783508,10.1665192-4.9676056,12.4767609-8.5214691
				c0.3376312-1.1889648,0.5384521-1.8923645,0.5384521-1.8923645l-10.5770111,0.3720245
				C184.1965942,149.8709869,183.1243896,154.6375275,181.7583923,159.912796z"/>
		</g>
	</g>
</g>
<g id="WOMAN_1_HEAD">
	<g>
		<path class="st1" d="M183.4948273,130.6435547c0,0-5.3892212,6.7376251-6.7359161,16.1697845
			c-1.3467102,9.4321747,6.0390625,11.3308868,13.9993439,9.0170898s13.9286652-12.629303,13.9286652-12.629303
			s4.5428772-8.9771423-1.2841492-14.0215302S188.916275,124.3060379,183.4948273,130.6435547z"/>
		<path class="st0" d="M202.1153412,132.0401306c0,0-11.0227051,6.7886353-22.9156342,0.0799713
			c0,0,11.2657013-16.2713089,24.9708099-6.0999146s5.2718353,21.227478-2.9230804,22.166275
			C201.2474365,148.1864624,197.4759979,142.5118866,202.1153412,132.0401306z"/>
		<g>
			<g>
				<path class="st1" d="M195.6188049,151.5669861l4.325531-4.8811493c0,0,4.3256531-3.0845795,7.756546-0.3562469
					S206.0034027,158.9701843,195.6188049,151.5669861z"/>
				<path class="st2" d="M206.2831116,148.5010834c0,0-4.2102509-0.9309235-8.0109406,1.396347"/>
				<path class="st2" d="M202.5905609,151.9308929c0,0,0.5646515-1.5949707,0.4988251-3.5659637"/>
			</g>
			<path class="st7" d="M199.2257843,151.6740112c-1.6839294-0.1979675-3.3206177,1.9516907-3.6556396,4.8013916
				c-0.3350372,2.8497162,0.7584534,5.3203583,2.4423676,5.5183411c1.6839294,0.1979675,3.3206177-1.9516907,3.6556396-4.8014069
				c0.1292877-1.0995941,0.0458679-2.1427612-0.2021027-3.0206909"/>
		</g>
	</g>
</g>
<g id="WOMAN_1_FACE">
	<g>
		<path class="st0" d="M197.4038544,139.1721954c0,0-0.1069641-4.2239227-3.3217926-4.1212311
			c0,0,0.291214-0.8132324-0.3829346-1.1467438s-1.7315521,1.7690887-1.7315521,1.7690887
			S195.2175751,136.8664703,197.4038544,139.1721954z"/>
		<path class="st0" d="M181.9874878,134.0138855c0,0,1.8323822-3.4020844,3.4028931-1.4950562
			c0,0,0.351181-0.6220093,0.8233643-0.491684c0.8166809,0.2254028,0.0401459,2.3070068,0.0401459,2.3070068
			S184.0558624,133.363327,181.9874878,134.0138855z"/>
		<path class="st8" d="M187.2555847,140.6009369l-1.5303192,3.5177765c0,0-2.5343628-1.0559235-2.5831299,0.6234589
			c-0.0479126,1.6496582,2.1295624,1.9967651,2.1295624,1.9967651"/>
		<path class="st8" d="M181.8053131,136.9528809c0,0,2.257431-0.8316803,3.3861389,1.3069305"/>
		<path class="st8" d="M194.8480835,141.7505646c0,0-1.3626862-2.5384064-4.072937-1.5181274"/>
		<path class="st9" d="M181.6303558,150.716156c0,0,3.7157135,1.9588165,8.2364044,0.0485992
			c-3.4174042-0.686615-6.4002991-1.6410217-8.1072693-3.3818665L181.6303558,150.716156z"/>
	</g>
</g>
<g id="WOMAN_1_LEFT_ARM">
	<g>
		<path class="st3" d="M224.5707092,183.3057251l20.7466736,46.9410858l-21.129425,11.1118164l-20.7348022-36.4399567
			c-4.5404205-7.9794617-3.5327606-18.1480255,2.9070587-24.6914215c2.7058411-2.7493439,6.0752869-4.5221863,10.108139-3.6982422
			C220.1055145,177.2720947,223.0700073,179.9102783,224.5707092,183.3057251z"/>
		<path class="st14" d="M212.109787,220.1321106l-8.6566315-15.2134399
			c-4.5404205-7.9794617-3.5327606-18.1480255,2.9070587-24.6914215c1.8924561-1.9228821,4.1095428-3.3681183,6.6511536-3.7813416"
			/>
		<path class="st0" d="M245.3034515,223.3908539l5.1825714,8.2000275c0,0-0.1473083,11.200943-9.375061,16.4945221
			c-9.2277374,5.2935791-16.1631622,0.1329803-16.1631622,0.1329803l-7.7209015-10.7907867
			C217.2268982,237.427597,226.8203735,219.364624,245.3034515,223.3908539z"/>
		<path class="st1" d="M246.6948853,235.4479218l14.6549988,31.0693207l-7.1287231,3.8804626
			c0,0-17.9405975-16.1775055-23.1683197-25.6824493C231.0528412,244.7152557,233.8564606,233.7845612,246.6948853,235.4479218z"/>
	</g>
</g>
<g id="ORNAMENT_10">
	<g>
		<line class="st15" x1="104.858902" y1="440.0629578" x2="104.858902" y2="445.8428345"/>
		<line class="st15" x1="104.858902" y1="452.0123901" x2="104.858902" y2="457.7922668"/>
		<line class="st15" x1="113.7235565" y1="448.9276123" x2="107.9436722" y2="448.9276123"/>
		<line class="st15" x1="101.7741394" y1="448.9276123" x2="95.9942551" y2="448.9276123"/>
	</g>
</g>
<g id="ORNAMENT_9">
	<g>
		<line class="st15" x1="525.6660156" y1="302.5954285" x2="525.6660156" y2="308.3753052"/>
		<line class="st15" x1="525.6660156" y1="314.5448303" x2="525.6660156" y2="320.3247375"/>
		<line class="st15" x1="534.5306396" y1="311.460083" x2="528.7507324" y2="311.460083"/>
		<line class="st15" x1="522.5812378" y1="311.460083" x2="516.8013306" y2="311.460083"/>
	</g>
</g>
<g id="ORNAMENT_8">
	<g>
		<line class="st15" x1="472.9595337" y1="33.6337013" x2="472.9595337" y2="39.4135818"/>
		<line class="st15" x1="472.9595337" y1="45.5831184" x2="472.9595337" y2="51.362999"/>
		<line class="st15" x1="481.8241882" y1="42.4983482" x2="476.0443115" y2="42.4983482"/>
		<line class="st15" x1="469.8747864" y1="42.4983482" x2="464.0949097" y2="42.4983482"/>
	</g>
</g>
<g id="ORNAMENT_7">
	<g>
		<line class="st15" x1="259.4891663" y1="199.1162567" x2="259.4891663" y2="203.870163"/>
		<line class="st15" x1="259.4891663" y1="208.9445496" x2="259.4891663" y2="213.6984406"/>
		<line class="st15" x1="266.7802429" y1="206.4073486" x2="262.0263672" y2="206.4073486"/>
		<line class="st15" x1="256.9519653" y1="206.4073486" x2="252.1980743" y2="206.4073486"/>
	</g>
</g>
<g id="ORNAMENT_6">
	<circle class="st15" cx="70.0497513" cy="258.2422791" r="4.5803947"/>
</g>
<g id="ORNAMENT_5">
	<circle class="st15" cx="500.4060669" cy="405.7859802" r="4.5803947"/>
</g>
<g id="ORNAMENT_4">
	<circle class="st16" cx="466.7495728" cy="99.7464828" r="6.2099867"/>
</g>
<g id="ORNAMENT_3">
	<circle class="st16" cx="148.7581177" cy="121.7093201" r="7.3765845"/>
</g>
<g id="ORNAMENT_2">
	<circle class="st16" cx="360.3410034" cy="216.6255188" r="5.5169287"/>
</g>
<g id="ORNAMENT_1">
	<g>
		<line class="st17" x1="106.9121628" y1="45.9624519" x2="106.9121628" y2="49.1853104"/>
		<line class="st17" x1="106.9121628" y1="52.6254425" x2="106.9121628" y2="55.8483009"/>
		<line class="st17" x1="111.8550873" y1="50.9053764" x2="108.6322327" y2="50.9053764"/>
		<line class="st17" x1="105.1921005" y1="50.9053764" x2="101.9692383" y2="50.9053764"/>
	</g>
</g>
<g id="BOX">
	<g>
		<path class="st0" d="M361.2504883,454.5063171h-95.9100342c-3.7600098,0-6.7999878,3.0400391-6.7999878,6.7900391v62.7899475
			c0,3.75,3.039978,6.789978,6.7999878,6.789978h95.9100342c3.75,0,6.789978-3.039978,6.789978-6.789978v-62.7899475
			C368.0404663,457.5463562,365.0004883,454.5063171,361.2504883,454.5063171z M328.3204956,480.8963318
			c-0.9800415,0.9799805-2.3300171,1.5900269-3.8300171,1.5900269h-22.3900146
			c-2.9899902,0-5.4199829-2.4299927-5.4199829-5.4200439c0-1.5,0.6099854-2.8499756,1.5899658-3.8299561
			c0.9800415-0.9800415,2.3400269-1.5900269,3.8300171-1.5900269h22.3900146c2.9899902,0,5.4099731,2.4299927,5.4099731,5.4199829
			C329.9004517,478.5663147,329.2904663,479.9163513,328.3204956,480.8963318z"/>
		<path class="st0" d="M369.0158691,462.3786316H257.5703125c-2.2186127,0-4.0171661-1.7985535-4.0171661-4.0171814v-16.440918
			c0-2.2185974,1.7985535-4.0171509,4.0171661-4.0171509h111.4455566c2.2186279,0,4.0171814,1.7985535,4.0171814,4.0171509
			v16.440918C373.0330505,460.5800781,371.2344971,462.3786316,369.0158691,462.3786316z"/>
		<line class="st18" x1="362.9400024" y1="462.3786316" x2="257.5703125" y2="462.3786316"/>
	</g>
</g>
<g id="MAN_LEFT_UPPER_ARM">
	<path class="st4" d="M343.5698853,271.3592834c12.8294983-0.743042,17.1343689,7.3361816,21.0413208,20.4054871
		c3.9069824,13.0693054,20.303009,69.8010864,20.303009,69.8010864l-28.2772217,8.8403931l-16.3366394-56.0778809
		L343.5698853,271.3592834z"/>
</g>
<g id="MAN_BODY">
	<g>
		<g>
			<g>
				<path class="st4" d="M345.4160767,390.3304749c-1.8533936-6.1818848-3.3054199-11.9692383-3.8532104-16.3516235
					c-2.1398315-17.1184692,8.1207886-68.9938965,2.007019-102.6195679c0,0-26.8461304,1.2130127-40.0996704,3.0856323
					c-17.7299194-2.4454956-42.4822388-3.0338745-42.4822388-3.0338745s-4.4063721,95.5369873-5.0177612,101.6507568
					c-0.1885986,1.8862305-1.9492798,7.5859985-4.2929077,14.5640869l46.6131592,21.9193115L345.4160767,390.3304749z"/>
				<circle class="st0" cx="294.8985291" cy="369.401123" r="2.5983469"/>
				<path class="st19" d="M344.5886841,321.7174988c1.1131592-16.1506042,1.5988159-33.1437988-0.519989-47.3377991"/>
				<path class="st19" d="M256.5278015,365.5155334c1.1482544-16.8331909,3.0915833-71.9650574,4.0544434-87.5321045"/>
			</g>
			<path class="st19" d="M302.7755737,405.5126038c-1.290741-10.0830688-3.1973572-29.1268005-3.3976746-54.7659912"/>
		</g>
		<g>
			<path class="st0" d="M302.9061584,270.4223938c0,0,7.8768005,1.026886,21.7686462,7.4883728
				c0,0,7.2110596,8.1658325,11.692749,20.7438965l-15.0576477,4.0279236l7.7747498,12.9797058l-29.7067566,33.5558777
				l-25.7545471-32.2486877l7.5383911-16.2071533l-15.0288086-1.8960266c0,0,6.1506042-15.5566406,9.7671509-19.6683655
				C279.5166321,275.0862427,296.7527771,269.9998169,302.9061584,270.4223938z"/>
			<g>
				<path class="st9" d="M303.4701843,274.4449158c4.51297,0.6057129,13.8311768,4.0461731,18.5317078,5.8588562
					c-1.8738403,9.2128906-10.4122009,44.9243774-22.6212769,62.5836792c0,0-13.1402588-41.9134827-18.9739075-62.9566345
					C286.1742859,277.9246521,298.770752,273.814209,303.4701843,274.4449158z"/>
				<g>
					<path class="st0" d="M292.8941345,321.9521179c0.5395508-6.3927002,2.1914062-23.3424072,5.3565979-34.9457703
						l4.4887085-1.2575378l3.3049011,1.7792969c0,0,3.3476562,14.9802246,4.1605225,33.4519043
						c-3.1327515,8.2041626-6.7747192,16.050354-10.8242493,21.9074402
						C299.3806152,342.8874512,296.5288391,333.7907715,292.8941345,321.9521179z"/>
					<path class="st20" d="M305.7389221,295.5118408c0,0-4.6815186-0.1595154-7.4172974,0.1689453"/>
				</g>
			</g>
			<g>
				<path class="st9" d="M301.8084106,287.5953064c0,0,6.1819763,2.4628296,12.7758179,8.1666565
					c0,0,0.0293579-21.8523254-11.5981445-23.2515564c-11.6275024-1.3992004-13.3073425,21.7841492-13.3073425,21.7841492
					S292.4322205,291.0549927,301.8084106,287.5953064z"/>
				<path class="st20" d="M295.0915833,276.4485474c-4.5765686,6.3047791-5.4128418,17.8460083-5.4128418,17.8460083
					s2.753479-3.239563,12.1296692-6.6992493c0,0,6.1819763,2.4628296,12.7758179,8.1666565
					c0,0,0.0151062-11.2468262-4.2695618-18.1199646"/>
			</g>
		</g>
	</g>
</g>
<g id="MAN_RIGHT_ARM">
	<g>
		<g>
			<g>
				<path class="st4" d="M276.9226685,298.401886c-1.0640259-32.0114746-23.8625488-36.8909302-27.0522461-10.8712769
					c0,0-2.8035278,60.875946-3.1422119,82.8200684c-0.0696564,4.5131836,2.8330383,8.5324097,7.1343994,9.9006348
					l0.0000153,0.0000305c3.3069,1.0518799,6.9214935,0.3572388,9.6029205-1.845459l14.7623596-12.1268616L276.9226685,298.401886z"
					/>
			</g>
			<g>
				<line class="st19" x1="277.7781067" y1="342.8874512" x2="277.0112305" y2="303.007019"/>
			</g>
		</g>
		<g>
			<g>
				<path class="st1" d="M334.720459,316.2063293c0,0.7200317-0.8099976,2.4100342-2.5899658,2.0499878
					c-1.0500488-0.2099609-3.4900513-2.2799683-5.3200073-3.9400024c0.0999756,0.6900024,0.1699829,1.4900513,0.0199585,1.8900146
					c-0.2999878,0.7800293-2.3599854,1.7700195-2.3599854,1.7700195s0.7399902,1.8399658-0.2299805,3.4699707
					c-0.960022,1.6400146-2.7800293,1.7200317-2.7800293,1.7200317s0.2900391,1.5599976-0.6799927,3.1900024
					c-0.9599609,1.6300049-4.5999756,1.2299805-4.5999756,1.2299805s-2.8099976,3.8099976-5.0700073,4.1699829
					c-2.25,0.3500366-4.8300171-0.7599487-4.8300171-0.7599487l-8.0700073,7.0199585l-4.1099854-13.289978l7.6199951-5.8599854
					c0,0,5.5200195-12.2400513,7.6300049-13.6600342c2.0999756-1.4099731,14.1199951,1.2299805,16,1.8500366
					c0.3410034,0.1104126,0.6743774,0.2410889,0.9995117,0.3810425l0.0004883-0.0010986l0.0087891,0.0053101
					c0.6723022,0.2902222,1.2909546,0.6380005,1.7412109,1.0547485l0.8099976,0.5
					C328.9104614,308.9963684,334.720459,315.4963684,334.720459,316.2063293z"/>
				<line class="st19" x1="314.1956177" y1="308.8127441" x2="325.414093" y2="312.3736267"/>
				<line class="st19" x1="315.9491882" y1="314.5075684" x2="323.1503601" y2="317.0712585"/>
				<path class="st19" d="M310.0033264,306.6063538c-0.4752502,1.2574158,1.6039734,2.6237488,1.6039734,2.6237488
					s-2.0325623,1.6039734-1.4024353,2.6732788c0.6301575,1.0693054,2.41745,2.4147644,2.41745,2.4147644
					s-1.6680603,0.8931274-1.9057007,2.2348022c-0.2376099,1.3417053,2.0194092,2.6573486,2.0194092,2.6573486
					s-0.8316956,1.8415833-0.7128906,2.8515015c0.1188049,1.0098877,2.3873291,2.7920837,2.3873291,2.7920837"/>
				<line class="st19" x1="315.2055054" y1="320.4622803" x2="320.9555359" y2="322.743103"/>
			</g>
			<g>
				<polygon class="st9" points="300.2142029,347.0767517 308.5425415,340.973877 296.5079651,321.7494812 287.9376526,327.2452393 
									"/>
			</g>
			<path class="st4" d="M257.1488342,367.6028748l5.6256409,11.5352478
				c2.6439514-2.3364868,40.7471619-31.6145325,40.7471619-31.6145325l-13.2468262-23.6071167l-25.2008972,15.8686829
				C255.7191925,345.6757202,252.3030396,357.666687,257.1488342,367.6028748z"/>
			<path class="st19" d="M264.3410339,377.8579407c7.7489319-6.1826172,39.180603-30.3343506,39.180603-30.3343506"/>
			<path class="st19" d="M290.2748108,323.9164734l-25.2008972,15.8686829
				c-4.6322937,2.9169006-7.8084412,7.3296814-9.2462616,12.2480774"/>
			<circle class="st0" cx="294.8985291" cy="346.7715454" r="2.5983469"/>
		</g>
	</g>
</g>
<g id="MAN_LEFT_ARM">
	<g>
		<path class="st4" d="M353.5789185,348.4302979c0,0,2.8149109,16.3862305,5.7206421,20.9743042
			c2.9057617,4.5880737,16.7713318,8.9055786,21.4160156,0.9004211s2.0517883-14.2710266,0.150177-17.2503357
			c-1.9016113-2.9793396-13.2174683-17.7940369-13.2174683-17.7940369
			C358.8575439,334.8923645,353.1880798,338.4427795,353.5789185,348.4302979z"/>
		<g>
			<circle class="st0" cx="360.3410034" cy="356.3093262" r="2.5983469"/>
			<path class="st19" d="M353.5789185,348.4302979c0,0,2.8149109,16.3862305,5.7206421,20.9743042
				c2.9057617,4.5880737,16.7713318,8.9055786,21.4160156,0.9004211s2.0517883-14.2710266,0.150177-17.2503357
				c-1.9016113-2.9793396-13.2174683-17.7940369-13.2174683-17.7940369
				C358.8575439,334.8923645,353.1880798,338.4427795,353.5789185,348.4302979z"/>
			<path class="st9" d="M355.1221619,350.7466125c0,0,3.4752502,2.1765747,8.732666-0.5858154
				c5.2574158-2.7623596,3.5643616-13.1881104,3.5643616-13.1881104l-3.1096802-4.0990295
				c0,0-4.997345-2.331665-10.0784607,2.7397766c-5.0810852,5.0714417-2.6245728,9.5572815-2.6245728,9.5572815
				L355.1221619,350.7466125z"/>
		</g>
		<g>
			<g>
				<path class="st0" d="M353.0132446,364.0023804h-29.3465271c-1.7388916,0-3.1485291-1.4096375-3.1485291-3.1484985v-48.7128906
					c0-1.7388611,1.4096375-3.1484985,3.1485291-3.1484985h29.3465271c1.7388611,0,3.1484985,1.4096375,3.1484985,3.1484985
					v48.7128906C356.1617432,362.5927429,354.7521057,364.0023804,353.0132446,364.0023804z"/>
				<path class="st20" d="M324.08255,312.4380188v47.7623901c0,0.7218018,0.5851135,1.3069153,1.3069153,1.3069153h27.2079468"/>
			</g>
			<g>
				<path class="st1" d="M357.7404785,347.5263367c-0.0200195,0-0.0400391,0.0100098-0.0599976,0.0100098
					c-0.3400269,0.0599976-2.1000366,0.2999878-3.3900146-0.9000244c-1.4299927-1.3399658-3.5599976-6.0599976-3.5599976-6.0599976
					s-7.6699829,0.6199951-8.7399902,0c-1.0700073-0.6300049-1.2399902-1.7000122-0.8900146-2.5
					c0.3400269-0.75,6.1500244-1.6599731,6.8800049-1.7699585c-0.789978,0.0799561-7.5800171,0.7299805-8.9299927-0.2800293
					c-1.4199829-1.0700073-1.0700073-3.0299683-0.1799927-3.4699707c0.8399658-0.4200439,7.3099976-1.6200562,8.1199951-1.7700195
					c-0.7600098,0.0299683-6.7399902,0.3399658-7.4000244,0.3399658c-0.7199707,0-2.8499756-0.4400024-2.8499756-2.4899902
					s2.6699829-2.4099731,2.6699829-2.4099731c-2.5-0.4400024-2.6699829-2.4000244-1.3399658-3.5599976
					c1.3399658-1.1600342,8.789978-2.6099854,16.3999634-3.2999878c3.9199829-0.3600464,4.9000244,0.5299683,5.3400269,1.4299927
					c0.4499512,0.8899536,4.4599609,15.7000122,4.4599609,15.7000122S365.6204834,345.9563293,357.7404785,347.5263367z"/>
				<path class="st19" d="M357.9142151,320.9995728c0,0,1.5445557,1.6633606,0.1188354,2.9703064
					c-1.4257507,1.3069153,2.9702759,2.9108887,0.7128601,4.9306946s2.4950562,3.3267212,0.4158325,5.3465271
					c-2.0791931,2.0198059,0.415863,3.8019714-1.3069153,5.0494995"/>
				<line class="st19" x1="340.8053284" y1="325.8114624" x2="354.349884" y2="324.207489"/>
				<line class="st19" x1="349.1815491" y1="336.0292664" x2="355.1221619" y2="335.1976013"/>
				<line class="st19" x1="348.5280762" y1="330.1481018" x2="354.2310486" y2="329.3164062"/>
			</g>
		</g>
	</g>
</g>
<g id="MAN_LEFT_LEG">
	<g>
		<path class="st0" d="M378.4111023,380.6360474c0,0-8.1107483-12.7049561-25.1008301-16.3326721l-16.9427185,16.3326721
			H378.4111023z"/>
		<path class="st3" d="M403.6304932,376.9063416l-1.710022,15.3699951
			c-25.1699829,13.2399902-52.7399902,43.0100098-74.0100098,45.6300049
			c-2.0299683,0.210022-32.8809509-0.0029602-32.8809509-0.0029602l-2.7290344-9.3670349
			c0,0,3.1499634-25.7700195,28.7000122-39.5599976c13.6699829-7.3800049,19.8499756-13.6000366,54.2299805-30.3300171
			C388.2504883,355.0463562,401.5004883,363.5763245,403.6304932,376.9063416z"/>
		<g>
			<path class="st4" d="M302.5080566,398.6803284l42.9474487-2.8363647c0,0-0.9373169-21.2594299,7.8547668-31.5405884
				C353.3102722,364.3033752,326.5820923,379.6258545,302.5080566,398.6803284z"/>
			<path class="st19" d="M353.3102722,364.3033752c0,0-26.7281799,15.3224792-50.8022156,34.3769531"/>
		</g>
		<line class="st21" x1="314.7694702" y1="418.1205139" x2="376.14151" y2="382.1109314"/>
		<g>
			<g>
				<path class="st1" d="M391.3837891,474.3330078c0,0-0.2602844,12.0679321-0.2948303,15.4451599
					c-0.0261841,5.5943909-0.0758667,13.0641785-0.0438538,13.2572021c0.0500488,0.3015747-5.6004333,2.999115-5.6004333,2.999115
					l-6.6247559-1.3797302l-0.9195862-9.7260132l-1.7588196-18.024353L391.3837891,474.3330078z"/>
				<path class="st0" d="M391.3837891,474.3330078c0,0-0.2602844,12.0679321-0.2948303,15.4451599
					c-3.0625305,1.1897888-8.6001892,3.3729248-13.1886292,5.1505737l-1.7588196-18.024353L391.3837891,474.3330078z"/>
			</g>
			<path class="st3" d="M373.4868774,485.9510498l22.9893799-0.1846008c0,0,6.6994324-81.9014587,6.4092102-91.4714966
				c-0.0568848-1.8756104,0.2032776-6.8031311,0.6304626-13.8903503
				c0.8019104-13.3051453-11.1255798-23.8173828-24.2223511-21.3385315l-14.9840698,5.0194092
				c-0.1353455,11.1683044,0.111969,28.6608887,0.1359253,29.0557251
				C364.5039673,394.1061401,373.4868774,485.9510498,373.4868774,485.9510498z"/>
			<line class="st21" x1="364.6112061" y1="394.9148254" x2="366.4081116" y2="413.4484863"/>
			<polyline class="st21" points="364.3095093,389.0532532 378.4634705,381.6013184 383.7103577,478.299408 			"/>
			<line class="st21" x1="375.1716614" y1="480.2004089" x2="394.5379944" y2="480.2004089"/>
			<path class="st21" d="M380.3757935,358.7015686c-3.5270081,5.3424377-2.2402344,13.2521057,3.3369141,18.5983887
				c5.6278687,5.394928,13.6791077,6.3146667,18.8637085,2.4446106"/>
		</g>
		<g>
			<path class="st0" d="M376.9373169,498.9630127c0,0,8.8963928,2.8769531,16.2876587,0.8229675
				c0,0,12.5983887,9.5967102,20.6721191,12.7585144c8.0737,3.1617432,15.7607422,5.49823,15.4335327,18.3329468
				l-58.5711365-1.4932251C370.759491,529.3842163,370.1547546,509.1256409,376.9373169,498.9630127z"/>
			<path class="st20" d="M401.9191284,513.6049194c0,0-7.0742188-4.3849487-13.4963379-10.3586426"/>
			<path class="st3" d="M401.1643982,522.2089233c0,0,3.1407166-9.24646,9.6398621-12.2915039
				c0,0,10.7549133,3.9436035,15.272522,6.657959c4.5176086,2.7144165,4.6790466,8.3755493,4.5271301,14.3345337
				l-60.9649048-0.0324707l0.2025452-7.9452515L401.1643982,522.2089233z"/>
		</g>
	</g>
</g>
<g id="MAN_RIGHT_LEG">
	<g>
		<g>
			<path class="st3" d="M289.7244263,391.5018005c30.0227356,14.9852295,30.0181885,30.039978,21.9659424,40.4586487
				c-5.6358948,7.2921753-15.7009888,7.2459717-24.9147644,7.0312805
				c-4.4428406-0.1035461-10.4683838-1.0862732-13.9086914-2.6276855
				c-21.4849548-9.6261902-44.9381104-23.5169983-63.9121094-38.9866943l-2.2006836-15.3068237
				c1.7081604-13.3954773,15.4593506-20.8699951,28.5831146-17.6882629
				C270.2363586,380.0050659,275.8247986,384.5641174,289.7244263,391.5018005z"/>
			<path class="st21" d="M299.7523499,399.2703247l1.3244019,15.4053345l4.9463806,4.9177856
				c0,0,0.3564453,9.8742981-1.7821655,16.4683533"/>
			<path class="st21" d="M305.6074219,402.1992798c0.2237854,5.8944702,0.4816589,13.7876282,0.4157104,17.394165"/>
			<g>
				<g>
					<path class="st4" d="M262.012207,376.1363831c2.7513428,2.9812012,8.6807861,10.2788086,10.6555786,20.6204834
						l29.840271,1.9234619C290.1242676,390.2226257,273.6912231,381.7711487,262.012207,376.1363831z"/>
				</g>
				<g>
					<path class="st19" d="M302.5080566,398.6803284c-11.4046936-7.7890015-26.2436523-15.5727539-37.6408997-21.1560059"/>
				</g>
			</g>
			<line class="st21" x1="296.1044617" y1="423.2182617" x2="234.7324219" y2="387.2086792"/>
		</g>
		<g>
			<g>
				<path class="st1" d="M266.5533447,475.8225708c0,0,6.0892334,10.4222717,7.7598572,13.3575745
					c2.7402649,4.8773804,6.4119568,11.3826599,6.4777527,11.5669556c0.1027222,0.2879028,6.3521423-0.0987549,6.3521423-0.0987549
					l5.8865967-1.1532898l-5.18927-12.1188049l-6.7146606-16.7096252L266.5533447,475.8225708z"/>
				<g>
					<path class="st0" d="M278.4115295,498.9630127c0,0,9.2673035-1.4354248,15.8613892,0
						c0,0,3.5643311,11.7720337,2.4950256,29.0592041h-31.7227478v-10.5148926
						C265.0451965,517.5073242,271.8174744,510.1810608,278.4115295,498.9630127z"/>
					<path class="st20" d="M278.4115295,498.9630127c0,0,9.2673035-1.4354248,15.8613892,0
						c0,0,3.5643311,11.7720337,2.4950256,29.0592041h-31.7227478v-10.5148926
						C265.0451965,517.5073242,271.8174744,510.1810608,278.4115295,498.9630127z"/>
					<path class="st20" d="M286.4562683,501.8241577c0,0-6.6190186,11.5841675-12.8566284,16.9307251"/>
					<path class="st3" d="M258.3989868,530.8774414h39.9801636v-6.4196167h-14.9972229
						c0,0-2.8671265-14.1683044-14.7009583-14.1683044C255.2432098,510.2895203,258.3989868,530.8774414,258.3989868,530.8774414z"
						/>
				</g>
				<path class="st0" d="M266.5533447,475.8225708c0,0,6.0892334,10.4222717,7.7598572,13.3575745
					c3.2549133-0.4475708,8.6529541-1.1290283,13.5272217-1.803894l-6.7146606-16.7096252L266.5533447,475.8225708z"/>
			</g>
			<path class="st3" d="M287.8404236,477.2849731l-20.184906,11.005249c0,0-45.6379089-68.3367615-50.0326691-76.8429871
				c-0.8613129-1.6671448-3.4821625-5.8479309-7.2980194-11.8354797
				c-7.1636658-11.2406311-1.843811-26.2229919,10.8082428-30.4176941l0.2880402-0.0535889
				c9.1701202-1.7062378,18.395462,2.6777039,22.8737488,10.8598328c3.4403381,6.2857056,6.2692566,11.5600281,6.3683929,11.7669983
				C251.08078,392.6391907,287.8404236,477.2849731,287.8404236,477.2849731z"/>
			<path class="st21" d="M255.9530334,403.9022522c3.6295471,8.3391418,7.8356628,18.0171509,13.6428833,31.3824158"/>
			<polyline class="st21" points="253.4756012,398.2060852 232.8046875,386.6990662 275.1873474,475.562439 			"/>
			<line class="st21" x1="283.5744934" y1="473.0766296" x2="266.6461792" y2="482.4833984"/>
			<path class="st21" d="M220.0100555,369.401123c5.6779633,2.9566956,8.3951416,10.495636,6.1169434,17.8778381
				c-2.2989197,7.4494019-8.8898468,12.1640625-15.3015442,11.2994995"/>
		</g>
	</g>
</g>
<g id="MAN_NECK">
	<g>
		<path class="st1" d="M298.6570129,280.5330505c0,0,3.4927368,1.9614563,7.811676-0.1364441l0.489502-11.1393738
			l0.5451355-12.225647l-11.7263184-8.2580566l-0.1053467-0.0758667l0.0725098,0.7546234l0.5842896,6.2086487
			L298.6570129,280.5330505z"/>
		<path class="st0" d="M296.3284607,255.6609344c0.9632568,4.7841034,3.5692749,11.4494781,10.6297302,13.5962982
			l0.5451355-12.225647l-11.7263184-8.2580566c-0.0240173,0.2602997-0.0273438,0.48172-0.0328369,0.6787567
			c-0.0146179,0.6156006,0.0204773,0.9807281,0.0227966,1.0050964
			C295.7669678,250.4573822,295.7364807,252.6959686,296.3284607,255.6609344z"/>
	</g>
</g>
<g id="MAN_HEAD">
	<g>
		<g>
			<path class="st0" d="M321.5600891,241.2212372c0,0-2.808075,11.662735-9.9118347,16.40242
				c-7.1037598,4.7396545-3.2263184-19.3110352-3.2263184-19.3110352L321.5600891,241.2212372z"/>
			<g>
				<path class="st1" d="M315.1104126,247.3038635c0,0,3.3125305-3.1093292,5.8569336-0.6309967
					c2.5444031,2.4783478-1.5759277,9.7850494-8.2405396,9.2022552L315.1104126,247.3038635z"/>
				<path class="st19" d="M319.2739258,248.7310638c0,0-2.3068848,0.42659-4.6359253,3.6882172"/>
			</g>
			<path class="st1" d="M303.1017761,228.523056c5.8638306-0.6560364,11.4749756,2.3854218,13.0534058,8.6266022
				c1.0398865,4.1117096,0.0406494,9.4977112-1.0263062,14.6245117c-2.1313477,10.241272-9.4475708,17.5889587-18.491333,9.9346313
				C287.59375,254.0544739,283.2128296,230.7482147,303.1017761,228.523056z"/>
			<path class="st0" d="M293.999176,258.8668213l-2.0215759-4.9826355l0.7388611-5.8894501l2.5949402-3.5571442
				c0,0,7.765564-0.0391235,4.391571-8.8553467c0,0,10.2897339,10.3285828,19.8009033,8.9388733
				c9.513916-1.3776398,15.7278442-13.0215759,13.8173218-16.1610107c-1.8171082-3.0086212-6.0433044,0.7484894-6.3792725,1.0536346
				c0.4219971-0.7052917,8.6383667-14.240509,2.1463928-21.3287659
				c-6.6591797-7.2655945-22.4193726,7.6657867-31.5325623,16.7262573
				c-1.3955078,1.3845825-2.7619019,2.6737823-4.0698547,3.8862305c0.6964417-2.27742,1.7385254-5.9274902,2.5100708-9.7058563
				c1.2618103-6.2368774-7.8197021-3.6898956-5.8990784,12.6879883c0,0-7.2058716-8.2692871-10.8868408-5.6769104
				c-3.1056213,2.1689911,2.9462585,6.6692047,8.3515625,8.1212769c-4.2034607,3.9674835-6.9989929,7.2704926-6.9626465,11.1430817
				C280.6609192,251.7464294,293.999176,258.8668213,293.999176,258.8668213z"/>
			<g>
				<path class="st1" d="M292.9272766,249.2171173c0,0-1.8302002-4.0730743-6.493103-2.7420502
					c-4.6628723,1.3310394-1.346344,11.6696472,8.1143188,9.1352539L292.9272766,249.2171173z"/>
				<path class="st19" d="M292.453125,252.9190369c0,0-1.7570496-3.9841309-5.7802734-4.0148621"/>
				<path class="st19" d="M288.6924438,252.881073c0,0-0.0701294-1.6105499,1.1489868-3.0014648"/>
			</g>
		</g>
		<g>
			<path class="st0" d="M295.3213806,244.0957031c0,0,1.9698486-3.8015594,4.8538208-2.2829132
				c0,0,0.0951233-0.8701477,0.8572693-0.8752136s0.7936401,2.3796234,0.7936401,2.3796234
				S298.3356628,242.9637909,295.3213806,244.0957031z"/>
			<path class="st0" d="M312.6928711,244.0379486c0,0-1.2278137-3.7182312-3.1315918-2.0925751
				c0,0-0.2406311-0.682663-0.7348022-0.6359863c-0.8547058,0.0807343-0.4473267,2.2949371-0.4473267,2.2949371
				S310.7438049,243.0236359,312.6928711,244.0379486z"/>
			<g>
				
					<ellipse transform="matrix(0.049991 -0.9987497 0.9987497 0.049991 35.5057335 536.1559448)" class="st0" cx="299.5847168" cy="249.4142761" rx="1.987475" ry="1.6075166"/>
				<circle class="st9" cx="299.9739075" cy="248.7277679" r="0.4274533"/>
			</g>
			<g>
				
					<ellipse transform="matrix(0.049991 -0.9987497 0.9987497 0.049991 44.0180092 546.0517578)" class="st0" cx="309.0426025" cy="249.8876801" rx="1.987475" ry="1.6075166"/>
				<circle class="st9" cx="309.4317932" cy="249.2011719" r="0.4274533"/>
			</g>
			<path class="st19" d="M305.4824829,253.8275146c0,0,1.8786926,0.7973633,1.3917542,2.1559906
				c-0.56427,1.574295-2.8256836,0.8755341-2.8256836,0.8755341"/>
			<circle class="st19" cx="299.460907" cy="249.4687805" r="4.455934"/>
			<circle class="st19" cx="310.4683533" cy="249.7307434" r="4.455934"/>
			<path class="st19" d="M304.9364624,260.0244751c0,0-3.6651611,1.089386-6.9378052-2.6552124"/>
		</g>
	</g>
</g>
<g id="WOMAN_2_RIGHT_HAND">
	<g>
		<path class="st1" d="M335.4632263,267.334198c-5.4680786,5.8627014-6.2970276,12.2376404-4.9900818,13.4257507
			c1.3069153,1.1881104,2.4950256-0.5940552,2.4950256-0.5940552s0.3564453,2.3762207,2.2574463,2.3762207
			c1.9009705,0,2.6138611-2.0494995,2.6138611-2.0494995s0.1188049,2.168335,1.9009705,2.7623901
			c1.782196,0.5940552,3.3267517-2.8515015,3.3267517-2.8515015s0,3.6831665,2.4950562,3.3267517
			c2.4950256-0.3564453,3.5643311-8.0792236,7.4851379-9.9801941c3.9207764-1.901001,1.6633606,3.5643311,1.5445557,6.5346375
			s2.8514709,3.9208069,4.633667-0.3564453c1.7821655-4.2772217,1.0693054-11.4059143-2.2574463-13.6633606
			c-3.3267212-2.2574158-6.8910828-0.5940552-6.8910828-0.5940552s-2.2574158-1.5742493-4.5742493,0.1188049
			c0,0-1.8712769-1.7821655-4.901001,0.267334C340.6018372,266.0569763,338.3444214,264.2450867,335.4632263,267.334198z"/>
		<path class="st8" d="M343.0671997,279.5718384c0,0,0.831665-5.3465271,4.6930542-10.2178345"/>
		<path class="st8" d="M338.0177002,279.5718384c0,0,1.0098877-6.534668,5.2277222-10.8118896"/>
		<path class="st8" d="M333.2652283,279.1560059c0,0,1.4257202-6.5940857,6-10.5742798"/>
	</g>
</g>
<g id="WOMAN_1_LEFT_HAND">
	<g>
		<path class="st1" d="M276.3890686,266.5186768c5.4681091,5.8627014,6.2970276,12.2376099,4.9901123,13.4257507
			c-1.3069458,1.1881104-2.4950562-0.5940857-2.4950562-0.5940857s-0.3564453,2.3762512-2.2574158,2.3762512
			c-1.901001,0-2.6138611-2.0494995-2.6138611-2.0494995s-0.1188049,2.1683044-1.901001,2.7623596
			c-1.7821655,0.5940552-3.3267212-2.8514709-3.3267212-2.8514709s0,3.6831665-2.4950562,3.3267212
			c-2.4950562-0.3564148-3.5643616-8.0791931-7.4851379-9.9801941c-3.9208069-1.901001-1.6633911,3.5643616-1.5445557,6.534668
			c0.1188049,2.9702759-2.8515015,3.9207764-4.6336823-0.3564453c-1.7821655-4.2772217-1.0693054-11.4059448,2.257431-13.6633606
			c3.3267212-2.2574463,6.8910828-0.5940552,6.8910828-0.5940552s2.2574463-1.5742798,4.5742798,0.1188049
			c0,0,1.8712769-1.782196,4.9009705,0.267334C271.2504578,265.2414551,273.5079041,263.4295654,276.3890686,266.5186768z"/>
		<path class="st8" d="M268.7851257,278.7562866c0,0-0.8316956-5.3465271-4.6930847-10.217804"/>
		<path class="st8" d="M273.8346252,278.7562866c0,0-1.0099182-6.5346375-5.2277222-10.8118591"/>
		<path class="st8" d="M278.5870972,278.3404541c0,0-1.4257507-6.5940552-6-10.5742493"/>
	</g>
</g>
<g id="BULB">
	<g>
		<circle class="st0" cx="338.7998352" cy="168.1304016" r="10.6861353"/>
		<path class="st3" d="M326.9592896,89.7702026c7.0767212,8.1852112,10.1465454,18.3573608,9.4875488,28.2532654
			c-0.0766907,1.2396317-0.2154846,2.4647598-0.4180603,3.6893539c-0.1331787,0.8403244-0.2939453,1.6741638-0.4823608,2.5015717
			c-0.2259521,0.9923172-0.4312134,1.9857101-0.546875,2.9968338c-0.6951294,6.075943-0.0737305,13.912796,5.2674561,20.6980438
			l-21.2951355,16.7630768c-4.2649231-5.4179535-9.8828735-8.0689392-15.0612793-9.300705
			c-1.9929199-0.4740601-4.0350342-0.7347412-6.0834045-0.7108917c-1.5635376,0.0181885-3.1233826-0.060379-4.6686707-0.2284851
			c-0.841156-0.085968-1.6851807-0.2077332-2.5337219-0.3513489c-9.2043152-1.5927429-17.8632507-6.455307-24.1000977-14.3783417
			c-13.9633942-17.7385406-10.1844177-43.7777252,8.8120728-56.710701
			C291.6402283,71.8923187,314.059845,74.850174,326.9592896,89.7702026z"/>
		<g>
			<line class="st22" x1="260.9385986" y1="69.2186508" x2="268.5126038" y2="78.8403549"/>
			<line class="st22" x1="239.3009644" y1="107.790802" x2="251.4601593" y2="109.2387466"/>
			<line class="st22" x1="251.2754517" y1="150.3655548" x2="260.8971558" y2="142.7915497"/>
			<line class="st22" x1="289.8475952" y1="172.0032043" x2="291.2955322" y2="159.8440094"/>
			<line class="st22" x1="303.5133667" y1="57.2441559" x2="302.0654297" y2="69.4033585"/>
			<line class="st22" x1="342.0855103" y1="78.8818054" x2="332.4638062" y2="86.4558105"/>
			<line class="st22" x1="354.0599976" y1="121.4565659" x2="341.9008179" y2="120.0086212"/>
		</g>
		<path class="st22" d="M305.6195374,130.5732574c0,0-12.0345764,1.0042419-17.382782-8.3583069
			s14.3053894-10.6564255,13.8026428-2.6794586c-0.6330566,10.0447998-12.436615-10.0065765-1.7667236-12.9260406
			c7.9207153-2.167244,11.82901,11.216774,9.7605591,19.8796387"/>
		<path class="st4" d="M350.8049622,158.6802216l-24.0102539,18.9003601
			c-1.0758057,0.8468628-2.6344604,0.6612549-3.4812927-0.4145508l-9.5995483-12.1948547
			c-0.8468323-1.0758057-0.6612549-2.6344452,0.4145813-3.481308l24.0102539-18.9003601
			c1.0758057-0.8468628,2.6344299-0.6612549,3.4812927,0.414566l9.5995178,12.1948395
			C352.0663757,156.2747345,351.8807678,157.833374,350.8049622,158.6802216z"/>
	</g>
</g>
<g id="GROUND">
	<g>
		<g>
			<line class="st17" x1="420.9157104" y1="530.9099121" x2="524.1403198" y2="530.9099121"/>
			<line class="st17" x1="72.4406128" y1="530.9099121" x2="396.1419067" y2="530.9099121"/>
		</g>
		<g>
			<line class="st17" x1="175.0132599" y1="548.6381226" x2="123.4289474" y2="548.6381226"/>
			<line class="st17" x1="487.9873657" y1="548.6380615" x2="191.8094788" y2="548.6380615"/>
		</g>
		<g>
			<line class="st17" x1="344.1687012" y1="566.366272" x2="379.1285706" y2="566.366272"/>
			<line class="st17" x1="175.4161224" y1="566.366272" x2="332.6312561" y2="566.366272"/>
		</g>
	</g>
</g>
</svg>
