<svg id="PLANT" xmlns="http://www.w3.org/2000/svg" viewBox="0 0 500 500"><defs><style>.cls-1{fill:#e9f3ff;}.cls-2{fill:#9ab3da;}.cls-3{fill:#ecbdbb;}.cls-4{fill:#f68d88;}.cls-5{fill:#404b7c;}.cls-6{fill:#fff;}.cls-7{fill:#272525;}</style></defs><title>Marketing</title><path class="cls-1" d="M336.44,348.82S321.61,334,332,310.73s34.24-32.59,34.24-32.59,1.83,26-3.11,41.75S345.41,346.8,336.44,348.82Z"/><path class="cls-2" d="M328.66,414.27s0-73.61,21.42-108.21c0,0-18.4,39.82-17.71,108.62Z"/><path class="cls-1" d="M390.82,347.72s-39.73-13.55-40.65,25.82C350.17,373.53,378,385.44,390.82,347.72Z"/><path class="cls-2" d="M332.37,414.69s9-41,41.43-59.83c0,0-33.32,10.44-45.13,59.42Z"/><path class="cls-1" d="M288.95,344.5s43.91-3.21,34.4,37C323.35,381.47,292,386.17,288.95,344.5Z"/><path class="cls-2" d="M329.77,416.84s-0.58-37.3-25.46-59.48c0,0,27.18,15,28.77,59.78Z"/><polygon class="cls-3" points="367.53 407.27 362.99 425.4 301.19 425.4 296.66 407.27 367.53 407.27"/><polygon class="cls-4" points="360.52 425.26 360.31 426.32 359.43 430.94 353.38 462.34 310.81 462.34 310.18 459.06 308.3 449.33 303.67 425.26 360.52 425.26"/><path class="cls-3" d="M360.31,426.32l-0.88,4.61c-6.57-1.78-15-1.94-19.24,6.55-6.58,13.12-11.37,25.85-30,21.58l-1.88-9.73c8.06,1.18,19.45.32,23.93-12.13,2.48-6.9,6.65-10.45,11.34-11.94h13.11C357.93,425.56,359.15,425.93,360.31,426.32Z"/><path class="cls-3" d="M318.31,433.5c-7.09,3.27-5,11.72,2.38,7.69S326.65,429.65,318.31,433.5Z"/><path class="cls-5" d="M281.51,347.48H221.46a0.5,0.5,0,0,1-.5-0.5V305.6a0.5,0.5,0,0,1,1,0v40.88h59.56A0.5,0.5,0,0,1,281.51,347.48Z"/><path class="cls-5" d="M233.08,338a0.5,0.5,0,0,1-.35-0.85l6.25-6.25a3.37,3.37,0,0,1,4.77,0l4.09,4.09a2.43,2.43,0,0,0,3.35,0l18.25-18.25a0.5,0.5,0,0,1,.71.71L251.9,335.65a3.37,3.37,0,0,1-4.77,0L243,331.56a2.38,2.38,0,0,0-3.35,0l-6.25,6.25A0.5,0.5,0,0,1,233.08,338Z"/><path class="cls-5" d="M272.5,319.72l-5.41-5.41a0.7,0.7,0,0,1,.33-1.18l7.23-1.81a0.7,0.7,0,0,1,.85.85l-1.81,7.23A0.7,0.7,0,0,1,272.5,319.72Z"/><rect class="cls-2" x="220.81" y="356.23" width="32.04" height="6.23" rx="2.83" ry="2.83"/><rect class="cls-2" x="220.81" y="365.48" width="23.35" height="6.23" rx="2.83" ry="2.83"/><rect class="cls-1" x="186.67" y="50.91" width="192.8" height="207.09" rx="9.06" ry="9.06"/><path class="cls-2" d="M379.47,60V75.63H186.67V60a9.06,9.06,0,0,1,9.06-9.06H370.41A9.06,9.06,0,0,1,379.47,60Z"/><circle class="cls-6" cx="325.57" cy="63.27" r="5.29"/><circle class="cls-6" cx="345.07" cy="63.27" r="5.29"/><circle class="cls-1" cx="364.57" cy="63.27" r="5.29"/><rect class="cls-2" x="198.2" y="87.17" width="48.34" height="25.54" rx="3.92" ry="3.92"/><rect class="cls-6" x="202.78" y="92.59" width="39.18" height="5.18" rx="2.36" ry="2.36"/><rect class="cls-6" x="202.78" y="102.11" width="15.29" height="5.18" rx="2.36" ry="2.36"/><rect class="cls-2" x="216.51" y="161.5" width="22.7" height="46.87" rx="2.5" ry="2.5"/><rect class="cls-6" x="256.06" y="133.31" width="22.7" height="75.07" rx="2.5" ry="2.5"/><rect class="cls-2" x="295.61" y="105.84" width="22.7" height="102.54" rx="2.5" ry="2.5"/><rect class="cls-6" x="335.16" y="91.01" width="22.7" height="117.37" rx="2.5" ry="2.5"/><path class="cls-5" d="M367.93,214.19H206.81a0.5,0.5,0,0,1,0-1H367.93A0.5,0.5,0,0,1,367.93,214.19Z"/><path class="cls-2" d="M297.44,251.22s8-20.28,16.11-20.28,11.95,10.14,17,10.14c6.45,0,18.13-14.63,30.07,10.14H297.44Z"/><path class="cls-6" d="M310.4,251.22s13.46-20.28,21.56-20.28,18,20.28,18,20.28H310.4Z"/><path class="cls-5" d="M363.72,251.72H297.44a0.5,0.5,0,0,1-.5-0.5V225a0.5,0.5,0,1,1,1,0v25.68h65.78A0.5,0.5,0,0,1,363.72,251.72Z"/><rect class="cls-6" x="262.24" y="225.73" width="22.8" height="19.5" rx="1.81" ry="1.81"/><rect class="cls-6" x="208.17" y="225.73" width="41.66" height="5.66" rx="2.58" ry="2.58"/><rect class="cls-6" x="208.17" y="239.56" width="18.11" height="5.66" rx="2.58" ry="2.58"/><rect class="cls-6" x="231.72" y="239.56" width="9.91" height="5.66" rx="2.58" ry="2.58"/><circle class="cls-2" cx="118.27" cy="62.21" r="6.35"/><circle class="cls-1" cx="111.55" cy="81.81" r="3.16"/><circle class="cls-2" cx="410.13" cy="103.59" r="6.35"/><circle class="cls-1" cx="403.41" cy="123.19" r="3.16"/><circle class="cls-1" cx="260.58" cy="34.16" r="3.16"/><circle class="cls-2" cx="83.95" cy="255.53" r="6.59"/><circle class="cls-1" cx="97.39" cy="235.77" r="2.21"/><circle class="cls-1" cx="404.22" cy="281.62" r="2.21"/><circle class="cls-1" cx="271.2" cy="385.41" r="5.18"/><circle class="cls-1" cx="242.35" cy="416.17" r="3.14"/><circle class="cls-2" cx="313.42" cy="283.81" r="3.02"/><path class="cls-5" d="M94.14,99.46a0.5,0.5,0,0,1-.5-0.5v-2.8a0.5,0.5,0,1,1,1,0V99A0.5,0.5,0,0,1,94.14,99.46Z"/><path class="cls-5" d="M99.74,102.26h-2.8a0.5,0.5,0,0,1,0-1h2.8A0.5,0.5,0,1,1,99.74,102.26Z"/><path class="cls-5" d="M94.14,107.85a0.5,0.5,0,0,1-.5-0.5v-2.8a0.5,0.5,0,0,1,1,0v2.8A0.5,0.5,0,0,1,94.14,107.85Z"/><path class="cls-5" d="M91.35,102.26h-2.8a0.5,0.5,0,0,1,0-1h2.8A0.5,0.5,0,0,1,91.35,102.26Z"/><path class="cls-5" d="M402,156a0.5,0.5,0,0,1-.5-0.5v-2.8a0.5,0.5,0,0,1,1,0v2.8A0.5,0.5,0,0,1,402,156Z"/><path class="cls-5" d="M407.62,158.75h-2.8a0.5,0.5,0,0,1,0-1h2.8A0.5,0.5,0,1,1,407.62,158.75Z"/><path class="cls-5" d="M402,164.35a0.5,0.5,0,0,1-.5-0.5V161a0.5,0.5,0,0,1,1,0v2.8A0.5,0.5,0,0,1,402,164.35Z"/><path class="cls-5" d="M399.23,158.75h-2.8a0.5,0.5,0,0,1,0-1h2.8A0.5,0.5,0,0,1,399.23,158.75Z"/><path class="cls-5" d="M402.57,316.72a0.5,0.5,0,0,1-.5-0.5v-2.8a0.5,0.5,0,0,1,1,0v2.8A0.5,0.5,0,0,1,402.57,316.72Z"/><path class="cls-5" d="M408.17,319.51h-2.8a0.5,0.5,0,0,1,0-1h2.8A0.5,0.5,0,0,1,408.17,319.51Z"/><path class="cls-5" d="M402.57,325.11a0.5,0.5,0,0,1-.5-0.5v-2.8a0.5,0.5,0,0,1,1,0v2.8A0.5,0.5,0,0,1,402.57,325.11Z"/><path class="cls-5" d="M399.78,319.51H397a0.5,0.5,0,0,1,0-1h2.8A0.5,0.5,0,0,1,399.78,319.51Z"/><path class="cls-5" d="M242.13,278.5a0.5,0.5,0,0,1-.5-0.5v-3.63a0.5,0.5,0,0,1,1,0V278A0.5,0.5,0,0,1,242.13,278.5Z"/><path class="cls-5" d="M249.38,282.12h-3.63a0.5,0.5,0,1,1,0-1h3.63A0.5,0.5,0,1,1,249.38,282.12Z"/><path class="cls-5" d="M242.13,289.36a0.5,0.5,0,0,1-.5-0.5v-3.63a0.5,0.5,0,0,1,1,0v3.63A0.5,0.5,0,0,1,242.13,289.36Z"/><path class="cls-5" d="M238.52,282.12h-3.63a0.5,0.5,0,0,1,0-1h3.63A0.5,0.5,0,0,1,238.52,282.12Z"/><path class="cls-3" d="M105.74,430.66h9.52s0.81-5.26,2.47-11.44c-5-.71-10.27-1.39-12.45-1.56C105.79,424.67,105.74,430.66,105.74,430.66Z"/><path class="cls-5" d="M120,459.78h-2.87a3.36,3.36,0,0,1-2.89-1.64l-5.89-9.85,6.09-1.56Z"/><path class="cls-5" d="M130.36,459.78H120l-7.25-11.54L112,459.78h-8s-1.19-12.27-1.1-17.68c0-.6,0-1.26.07-1.93,0.27-5.31,1.22-12.16,1.22-12.16a14.2,14.2,0,0,1,12.36.64s0.18,2.66,2.56,9.89,9.52,14.47,10.44,16.3a7.74,7.74,0,0,1,.64,2.2A17.51,17.51,0,0,1,130.36,459.78Z"/><path class="cls-2" d="M130.36,459.78h-8.47A3.36,3.36,0,0,1,119,458.2l-6.26-10L112,459.78h-8s-1.19-12.27-1.1-17.68c0-.6,0-1.26.07-1.93,2.65-.52,8.13-0.77,11.11,4.78,2.4,4.46,4.53,7.89,5.87,9.93a4.74,4.74,0,0,0,4,2.15h6.27A17.51,17.51,0,0,1,130.36,459.78Z"/><path class="cls-2" d="M163.86,251.27c-0.13,3.65-.26,6-0.26,6l-8.18,22.66-22.76,63s-0.91,17.4-1.27,23.62c-0.27,4.56-8.79,36.81-13.33,53.75-5-.71-11-1.36-13.21-1.53-1.21-16.49-3.21-44.89-3-50,0.37-7.32,9.71-28.38,9.71-28.38-1.83-31.67,7.32-72.51,7.32-72.51s-2.2-15.93-1.82-21.79,10.06-25.45,10.06-25.45c13.73-25.63,33.69-19.23,35.89-6.23C164.63,223.79,164.22,241.88,163.86,251.27Z"/><path class="cls-5" d="M163.86,251.27c-0.13,3.65-.26,6-0.26,6l-8.18,22.66c-6.84-8.74-2.38-30.18-2.38-30.18A33.81,33.81,0,0,1,163.86,251.27Z"/><path class="cls-5" d="M133.44,254.11l-0.22,0c-1.8-.27-8.67-5.11-8.67-7.27,0-1.76,1.68-11,1.75-11.44a0.5,0.5,0,0,1,.56-0.41c7.14,0.9,19.08,1.82,19.2,1.83a0.5,0.5,0,0,1,.45.59c-0.31,1.67-1.9,10.07-2.76,11.12S135.84,254.11,133.44,254.11ZM127.2,236c-0.35,1.94-1.65,9.34-1.65,10.8s6.12,6,7.81,6.28,8.81-4.24,9.61-5.22c0.45-.55,1.57-5.48,2.45-10.12C143,237.58,133.49,236.81,127.2,236Z"/><path class="cls-5" d="M116.91,414.91l-0.13,0a0.5,0.5,0,0,1-.35-0.61c0.11-.4,11-40.23,11.24-43.71s0.54-25.83.55-26.06c5.45-25.65,24.28-81,24.47-81.54a0.5,0.5,0,1,1,.95.32c-0.19.56-19,55.84-24.43,81.33,0,0.82-.27,22.48-0.54,26s-10.83,42.25-11.28,43.9A0.5,0.5,0,0,1,116.91,414.91Z"/><path class="cls-5" d="M117.76,417.08H117.7l-11.4-1.38a0.5,0.5,0,0,1-.44-0.56,0.49,0.49,0,0,1,.56-0.44l11.4,1.38A0.5,0.5,0,0,1,117.76,417.08Z"/><path class="cls-5" d="M126,343.09a0.49,0.49,0,0,1-.18,0,37.57,37.57,0,0,0-11.15-2,0.5,0.5,0,0,1,0-1h0a37.89,37.89,0,0,1,11.5,2A0.5,0.5,0,0,1,126,343.09Z"/><path class="cls-3" d="M187.22,430.66h9.52s-0.11-6-.32-12.68c-5.08-.71-9.35-0.15-11.56-0.32C186.4,424.67,187.22,430.66,187.22,430.66Z"/><path class="cls-5" d="M226.42,459.78H205a3.35,3.35,0,0,1-3-1.89c-3.75-7.68-7.49-10.51-7.49-10.51l-1.33,12.4h-8.6s-0.52-12.9-.64-18.38c0-.36,0-0.75,0-1.13A88.92,88.92,0,0,1,185.2,428a13.62,13.62,0,0,1,12.45,0,77.23,77.23,0,0,0,9.76,14.22c6.11,7,16.27,10.16,17.71,11.74a6.07,6.07,0,0,1,1.13,3.06A16.76,16.76,0,0,1,226.42,459.78Z"/><path class="cls-2" d="M226.42,459.78H205a3.35,3.35,0,0,1-3-1.89c-3.75-7.68-7.49-10.51-7.49-10.51l-1.33,12.4h-8.6s-0.52-12.9-.64-18.38c0-.36,0-0.75,0-1.13l0.08-.1s9.21-2.21,14.35,5.69S205.68,457,205.68,457h20.57A16.76,16.76,0,0,1,226.42,459.78Z"/><path class="cls-2" d="M173.67,203.43c-14.37,1.66-21.79,36.25-21.06,43.76s7.51,21.24,7.51,21.24,17.21,69,18.68,74c0,0-5.86,15.2-6,22.16s11,54.75,11,54.75h13.73s3.66-68.66,4.21-78.37,7.32-98.87.18-117.18S183.19,202.34,173.67,203.43Z"/><path class="cls-5" d="M158.79,266.1a0.5,0.5,0,0,1-.46-0.29c-2.1-4.61-5.69-13.15-6.22-18.57-0.36-3.7,1.3-14.82,5.25-25.26a0.5,0.5,0,0,1,.94.35c-3.9,10.3-5.54,21.21-5.19,24.81,0.52,5.28,4.06,13.7,6.13,18.25A0.5,0.5,0,0,1,158.79,266.1Z"/><path class="cls-5" d="M180.81,343a0.5,0.5,0,0,1-.09-1A35.25,35.25,0,0,1,192,342a0.5,0.5,0,0,1-.18,1,34.78,34.78,0,0,0-10.9,0h-0.09Z"/><path class="cls-5" d="M169.09,255.34c-0.57,0-9.08-4.85-9.28-6-0.14-.84.54-9.63,0.68-11.38a0.5,0.5,0,0,1,.51-0.46l18.68,0.27a0.5,0.5,0,0,1,.49.53l-0.69,12.22a0.5,0.5,0,0,1-.29.43C169.61,255.34,169.22,255.34,169.09,255.34Zm-7.64-16.88c-0.31,4-.74,10.1-0.66,10.67,0.43,0.68,7.15,4.73,8.31,5.19,0.87-.3,6-2.65,9.39-4.2l0.64-11.4Z"/><path class="cls-5" d="M192.05,246.83a0.5,0.5,0,0,1-.05-1c2.48-.25,6.64-1.18,7.25-2.59s-0.23-9-1-13.59a0.5,0.5,0,1,1,1-.16c0.2,1.21,1.92,11.88.93,14.15s-7.35,3.11-8.07,3.18h-0.05Z"/><path class="cls-5" d="M194.77,413.54h0a0.5,0.5,0,0,1-.5-0.5l0.5-67.88c0-.35,1.45-34,0.37-57.47s-5.49-57.16-5.54-57.5a0.5,0.5,0,1,1,1-.13c0,0.34,4.46,34,5.54,57.58s-0.35,57.2-.37,57.54L195.27,413A0.5,0.5,0,0,1,194.77,413.54Z"/><path class="cls-5" d="M196.14,416.42h0l-10.64-.14a0.5,0.5,0,0,1-.49-0.51,0.51,0.51,0,0,1,.51-0.49l10.64,0.14A0.5,0.5,0,0,1,196.14,416.42Z"/><polygon class="cls-3" points="124.05 195.79 139.43 215.29 133.38 222.16 109.63 204.3 124.05 195.79"/><path class="cls-2" d="M101.39,190.14a14,14,0,0,0-2.61,9.22c0.27,1.1,8.38,8.24,10,8.79s15.62,0.07,16.34-12.5c0.14-2.39-4.12-11.08-5.49-11.81S107.57,181.88,101.39,190.14Z"/><path class="cls-4" d="M142.27,159.26c-1.9,2.1-10.44,10.55-16.8,16.79l-7.2,7.06,1.65,4.77a13.42,13.42,0,0,1-4.91,7.31c-5.75,4.13-13.58,1.85-13.58,1.85s-9.12-10.14-9.34-15.11a3.23,3.23,0,0,1,0-.46c0.36-4.76,26.49-49.71,35.66-53.23,9.84-3.79,14.18,5.41,15.56,14.79C144.38,150.32,143.63,157.75,142.27,159.26Z"/><path class="cls-5" d="M142.27,159.26c-1.9,2.1-10.44,10.55-16.8,16.79,1-18.47,7.84-35.07,7.84-35.07a18.93,18.93,0,0,1,10,2C144.38,150.32,143.63,157.75,142.27,159.26Z"/><path class="cls-2" d="M148.35,122.6L148.28,115a27.65,27.65,0,0,1,11.6-2.54,32.68,32.68,0,0,1,11.33,2.4l0.21,7.35Z"/><path class="cls-4" d="M198.84,190.14l5.59,33.8s-16.48,7.33-47.61,5.86-33.87-9-33.87-9l20.69-36.63s-13.36-24.11-16.84-31.26,1-24.72,1-24.72,22.31-9,31-8.87c9.23,0.16,29.78,5.34,29.78,5.34s14,19.64,16.07,27.27a7,7,0,0,1,.22,1.11c0.74,6.59-7.5,27.65-7.5,27.65Z"/><path class="cls-3" d="M172.81,188.29a149.62,149.62,0,0,1-27.14-2.86,0.5,0.5,0,1,1,.21-1c0.18,0,18.1,3.81,33.36,2.6a0.51,0.51,0,0,1,.54.46,0.5,0.5,0,0,1-.46.54C177.18,188.22,175,188.29,172.81,188.29Z"/><path class="cls-5" d="M197.29,180.73l1.55,9.4c-19.53-6.15-17.63-46-17.63-46,10.57,0,18.18,3.17,23.37,7.87a7,7,0,0,1,.22,1.11C205.53,159.67,197.29,180.73,197.29,180.73Z"/><path class="cls-3" d="M133.31,165.85a0.5,0.5,0,0,1-.44-0.26c-3.23-6-5.43-10.16-6.53-12.42-2.83-5.8-.61-18.1.48-23.12a0.5,0.5,0,0,1,1,.21c-1.06,4.92-3.25,16.95-.56,22.47,1.09,2.25,3.28,6.41,6.51,12.39A0.5,0.5,0,0,1,133.31,165.85Z"/><path class="cls-3" d="M221.36,172.58l12.82-23.8s-0.46-2.47-.55-3.66c-0.08-1-.15-9.84-0.18-12.63a1,1,0,0,1,.81-1h0a1,1,0,0,1,1.19.81l1,5.48L236.06,131a1.12,1.12,0,0,1,.93-1.16h0a1.12,1.12,0,0,1,1.3.93l0.92,6,0.72-7.14a1.17,1.17,0,0,1,1.11-1h0a1.17,1.17,0,0,1,1.22,1.14l0.15,6.37,1.84-6.73a1.05,1.05,0,0,1,1.24-.75h0a1.05,1.05,0,0,1,.82,1.17l-1.7,13,3.12-1.11a1.34,1.34,0,0,1,1.72.82h0a1.34,1.34,0,0,1-.36,1.43l-6.49,6-7.23,30.85Z"/><path class="cls-2" d="M214.78,163a4.3,4.3,0,0,1-3.34-1.52,18,18,0,0,1-1.54-1.54c-0.38-.82.48-1.13,0.66-2.08l6.52-34.33a5.44,5.44,0,0,1,5.18-4.33H271.7c1,0,1.06-.55,1.79,0a18.24,18.24,0,0,1,1.54,1.54,4.37,4.37,0,0,1,.88,3.62l-6.52,34.33a5.44,5.44,0,0,1-5.18,4.33H214.78Z"/><path class="cls-5" d="M213.24,161.46a4.3,4.3,0,0,1-3.34-1.52,4.37,4.37,0,0,1-.88-3.62L215.54,122a5.44,5.44,0,0,1,5.18-4.33h49.44a4.3,4.3,0,0,1,3.34,1.52,4.37,4.37,0,0,1,.88,3.62l-6.52,34.33a5.44,5.44,0,0,1-5.18,4.33H213.24Z"/><path class="cls-1" d="M262.67,159.26H213.24a2,2,0,0,1-2.06-2.54l6.52-34.33a3.22,3.22,0,0,1,3-2.54h49.44a2,2,0,0,1,2.06,2.54l-6.52,34.33A3.22,3.22,0,0,1,262.67,159.26Z"/><path class="cls-2" d="M232.07,129.64h-6.81c-2.11,0-3.52-1.5-3.15-3.36h0a4.61,4.61,0,0,1,4.48-3.36h6.81c2.11,0,3.52,1.5,3.15,3.36h0A4.61,4.61,0,0,1,232.07,129.64Z"/><path class="cls-6" d="M234.52,125.71H224.36a0.58,0.58,0,0,1-.64-0.68h0a0.93,0.93,0,0,1,.91-0.68h10.16a0.58,0.58,0,0,1,.64.68h0A0.93,0.93,0,0,1,234.52,125.71Z"/><path class="cls-6" d="M226.89,128.21h-3a0.58,0.58,0,0,1-.64-0.68h0a0.93,0.93,0,0,1,.91-0.68h3a0.58,0.58,0,0,1,.64.68h0A0.93,0.93,0,0,1,226.89,128.21Z"/><path class="cls-2" d="M221.48,154.8h-1.29a2.07,2.07,0,0,1-2.27-2.42l1.48-7.49a3.31,3.31,0,0,1,3.23-2.42h1.29a2.07,2.07,0,0,1,2.27,2.42l-1.48,7.49A3.31,3.31,0,0,1,221.48,154.8Z"/><path class="cls-6" d="M233.3,154.8H232a2.07,2.07,0,0,1-2.27-2.42l3-14.91a3.31,3.31,0,0,1,3.23-2.42h1.29a2.07,2.07,0,0,1,2.27,2.42l-3,14.91A3.31,3.31,0,0,1,233.3,154.8Z"/><path class="cls-2" d="M245.12,154.8h-1.29a2.07,2.07,0,0,1-2.27-2.42l4.38-22.13a3.31,3.31,0,0,1,3.23-2.42h1.29a2.07,2.07,0,0,1,2.27,2.42l-4.38,22.13A3.31,3.31,0,0,1,245.12,154.8Z"/><path class="cls-6" d="M256.94,154.8h-1.29a2.07,2.07,0,0,1-2.27-2.42l5.16-26a3.31,3.31,0,0,1,3.23-2.42h1.29a2.07,2.07,0,0,1,2.27,2.42l-5.16,26A3.31,3.31,0,0,1,256.94,154.8Z"/><path class="cls-5" d="M262.42,156.7H214.27a0.5,0.5,0,0,1,0-1h48.15A0.5,0.5,0,0,1,262.42,156.7Z"/><path class="cls-6" d="M216.88,167.36c-6.65,3.18-10.25,21.42,2.75,25.27s20-11,16.85-17.76S225.3,163.34,216.88,167.36Z"/><path class="cls-4" d="M188.5,124.7c9,1.83,10.62,6.59,12.82,10.25s22.7,35,26.92,41-7,24.54-25.08,6.41-23.62-28.06-24.72-38.08C176.78,129.28,188.5,124.7,188.5,124.7Z"/><path class="cls-3" d="M196.92,176.45a0.5,0.5,0,0,1-.37-0.16C184.22,163,179,154.09,177.93,144.35c-1.18-10.78,4.38-16.32,7.8-18.67a0.5,0.5,0,0,1,.57.83c-3.24,2.22-8.5,7.47-7.37,17.73,0.87,7.93,4.33,16.3,18.37,31.37A0.5,0.5,0,0,1,196.92,176.45Z"/><path class="cls-3" d="M171.93,86.8c4,8.22,2.93,26.73-7,26.27s-20.68-5-19.59-20S165.15,72.88,171.93,86.8Z"/><path class="cls-3" d="M170.37,94.12s1.41-2.77,3.73-1.74c2.68,1.19,1.26,11.58-3.73,10.85S170.37,94.12,170.37,94.12Z"/><path class="cls-5" d="M144.64,80.8s-10-1.24-7.83,19,28,19.09,38,11.81c0,0-4.94-5.63-3.85-18.68,0,0,9.2-7.42,2.47-14.83S150,69.41,144.64,80.8Z"/><rect class="cls-7" x="89.26" y="459.28" width="45.77" height="1"/><rect class="cls-7" x="170.12" y="459.28" width="62.63" height="1"/><rect class="cls-7" x="129.66" y="469.71" width="39.51" height="1"/><rect class="cls-7" x="104.39" y="469.71" width="5.86" height="1"/><rect class="cls-7" x="177.27" y="469.71" width="19.96" height="1"/></svg>