<?xml version="1.0" encoding="utf-8"?>
<!-- Generator: Adobe Illustrator 25.2.3, SVG Export Plug-In . SVG Version: 6.00 Build 0)  -->
<svg version="1.1" xmlns="http://www.w3.org/2000/svg" xmlns:xlink="http://www.w3.org/1999/xlink" x="0px" y="0px"
	 viewBox="0 0 600 600" style="enable-background:new 0 0 600 600;" xml:space="preserve">
<style type="text/css">
	.st0{fill:none;stroke:#6B81BE;stroke-linecap:round;stroke-linejoin:round;stroke-miterlimit:10;}
	.st1{fill:#F68D88;}
	.st2{fill:#ECBDBB;}
	.st3{fill:none;stroke:#ECBDBB;stroke-linecap:round;stroke-linejoin:round;stroke-miterlimit:10;}
	.st4{fill:#9AB3DA;}
	.st5{fill:#404B7C;}
	.st6{fill:#6B81BE;}
	.st7{fill:#FFFFFF;}
	.st8{fill:none;stroke:#9AB3DA;stroke-linecap:round;stroke-linejoin:round;stroke-miterlimit:10;}
	.st9{fill:none;stroke:#404B7C;stroke-linecap:round;stroke-linejoin:round;stroke-miterlimit:10;}
	.st10{fill:none;stroke:#9AB3DA;stroke-linecap:round;stroke-linejoin:round;}
	.st11{fill:none;stroke:#9AB3DA;stroke-linecap:round;stroke-linejoin:round;stroke-dasharray:6.0675936,6.0675936;}
</style>
<g id="GROUND">
	<g>
		<g>
			<g>
				<line class="st0" x1="410.9328003" y1="500.3667908" x2="523.1380005" y2="500.3667908"/>
				<line class="st0" x1="32.1400146" y1="500.3667908" x2="384.0036316" y2="500.3667908"/>
			</g>
			<g>
				<line class="st0" x1="171.2979126" y1="525.3492432" x2="126.1434097" y2="525.3492432"/>
				<line class="st0" x1="445.2608032" y1="525.3492432" x2="244.1292877" y2="525.3492432"/>
			</g>
			<g>
				<line class="st0" x1="327.5086975" y1="550.3317261" x2="365.5101013" y2="550.3317261"/>
				<line class="st0" x1="144.0744934" y1="550.3317261" x2="314.9674683" y2="550.3317261"/>
			</g>
		</g>
	</g>
</g>
<g id="PLANT">
	<g>
		<g>
			<g>
				<path class="st1" d="M256.2657471,479.5352173c0,0-88.4550018-53.2902832-69.9177551-160.6608887
					C186.3479919,318.8743286,280.803894,366.4483948,256.2657471,479.5352173z"/>
				<g>
					<path class="st2" d="M217.903717,374.5419617c-14.9876251-0.7879944-25.9187622-7.4444275-33.6811066-15.1521912
						c0.6691742,9.1502686,2.1107635,17.7827759,4.1604156,25.8840027
						c6.947998,3.8544006,15.4763947,6.3789978,25.8928223,6.3012085
						c17.6491089-0.1317444,30.5762634,4.1508179,39.6808472,9.2132263
						c-1.5971222-5.063324-3.4420166-9.8761597-5.4845886-14.4393921
						C240.446579,380.1003418,230.2985535,375.1936646,217.903717,374.5419617z"/>
					<path class="st2" d="M231.7952271,414.7680969c-15.235321,2.0991516-27.4467163-2.6560974-36.598175-8.9946289
						c4.0328674,9.7332764,8.8512421,18.5036011,13.9966888,26.3055725
						c6.5367584,1.4883423,13.940094,1.7576599,22.2461395,0.1005859c10.98526-2.1915588,20.4267426-2.2687073,28.3999023-1.2084351
						c-0.3669128-4.4789124-0.9354248-8.809082-1.675354-12.9987183
						C250.3980865,414.972229,241.5373688,413.4258118,231.7952271,414.7680969z"/>
				</g>
			</g>
			<line class="st3" x1="190.9072876" y1="330.0623169" x2="253.8644409" y2="471.8764343"/>
		</g>
		<g>
			<path class="st4" d="M250.2787476,481.3504944c0,0-20.1105194-59.9983521-75.0950775-58.2213135
				C175.18367,423.1291809,178.9465637,474.584137,250.2787476,481.3504944z"/>
			<path class="st0" d="M185.4725952,430.8919983c0.4953766,0.1333313,58.6566925,46.7581787,58.6566925,46.7581787"/>
		</g>
		<g>
			<g>
				<path class="st1" d="M463.3292542,488.052124c0,0,101.1830139-20.643158,119.6175842-128.0314026
					C582.9468384,360.0207214,478.0198669,373.2700195,463.3292542,488.052124z"/>
				<g>
					<path class="st2" d="M534.5924683,401.931427c14.3883057,4.2691956,26.9160767,1.6513367,36.809021-3.0169678
						c-3.6904907,8.3997192-7.935791,16.0531921-12.5764771,23.002655
						c-7.8369141,1.3091125-16.7185669,0.8364868-26.5093384-2.7200928
						c-16.5890503-6.026001-30.204071-6.3128052-40.4773865-4.5863953
						c3.1983643-4.2377625,6.5464478-8.1566162,9.9973755-11.7741089
						C511.4886475,399.6315002,522.6932983,398.4007568,534.5924683,401.931427z"/>
					<path class="st2" d="M508.0490723,435.1965027c13.656311,7.0729675,26.7548828,6.6749573,37.4990845,3.7615662
						c-7.055481,7.8243408-14.5292969,14.4785156-21.9874878,20.1107178
						c-6.6581421-0.7832336-13.7253418-3.0050964-20.9990845-7.3442993
						c-9.6199951-5.7388611-18.492157-8.968811-26.3608398-10.6357727c1.8435059-4.0983887,3.827301-7.9891663,5.9256592-11.690155
						C490.4489136,429.1680603,499.3166504,430.6737061,508.0490723,435.1965027z"/>
				</g>
			</g>
			<line class="st3" x1="574.9087524" y1="369.0400085" x2="468.1533813" y2="481.6372681"/>
		</g>
		<g>
			<g>
				<path class="st4" d="M492.5492859,393.0470581c0,0,3.5663452-48.3373718,44.7115784-57.4286194
					C537.2608643,335.6184387,544.2099609,374.519989,492.5492859,393.0470581z"/>
			</g>
		</g>
	</g>
</g>
<g id="PHONE">
	<g>
		<g>
			<path class="st5" d="M467.1433716,494.0400391H269.3113403c-6.8539429,0-11.8912048-5.5561829-11.2510986-12.4101257
				l34.2938232-367.1937561c0.6401062-6.85392,6.7152405-12.4101257,13.5691528-12.4101257h197.8320618
				c6.8539124,0,11.8912048,5.5562057,11.2510681,12.4101257l-34.2937927,367.1937561
				C480.0724182,488.4838562,473.9973145,494.0400391,467.1433716,494.0400391z"/>
			<path class="st6" d="M498.3902283,186.463562h-1.3789062l4.7270508-50.6138611h1.3788757
				c2.6878357,0,4.6632385,2.1789093,4.4122009,4.8667145l-3.8179932,40.8804321
				C503.4604187,184.2846527,501.0780334,186.463562,498.3902283,186.463562z"/>
			<path class="st6" d="M494.2313232,230.9940186h-1.3789062l3.3862-36.2570496h1.3789062
				c2.6878052,0,4.663208,2.1789093,4.4122009,4.8667297l-2.4771729,26.5236053
				C499.3015442,228.8151093,496.9191284,230.9940186,494.2313232,230.9940186z"/>
			<g>
				<path class="st6" d="M450.4343262,494.0400391H252.6022644c-6.8539124,0-11.8912048-5.5561829-11.2510834-12.4101257
					l34.2938385-367.1937561c0.6401062-6.85392,6.71521-12.4101257,13.5691528-12.4101257h197.8320618
					c6.8539124,0,11.8912048,5.5562057,11.2510681,12.4101257L464.003479,481.6299133
					C463.3633728,488.4838562,457.2882385,494.0400391,450.4343262,494.0400391z"/>
				<path class="st5" d="M404.6140747,116.3819427h-35.5264282c-1.7805176,0-3.0890808-1.4433899-2.9227905-3.2238998v-0.0000076
					c0.1662903-1.7805099,1.7444763-3.2238998,3.5249939-3.2238998h35.5264282c1.7805176,0,3.0890808,1.4433899,2.9227905,3.2238998
					v0.0000076C407.9727783,114.9385529,406.3945923,116.3819427,404.6140747,116.3819427z"/>
				<path class="st4" d="M488.8213196,114.4910965l-34.2941284,367.196991
					c-0.1477661,1.5821228-1.5649719,2.8782654-3.1470337,2.8782654h-197.837326
					c-1.582077,0-2.7572327-1.2961426-2.6094666-2.8782654l34.2941132-367.196991
					c0.1477661-1.5821228,1.565033-2.878273,3.1470947-2.878273h71.7944336l-0.5135803,5.4992065
					c-0.2412109,2.5828247,1.6588135,4.689064,4.2415771,4.689064h44.8989258c2.5828247,0,4.8762817-2.1062393,5.1174927-4.689064
					l0.5136108-5.4992065h71.7848816C487.7939758,111.6128235,488.9690857,112.9089737,488.8213196,114.4910965z"/>
				<g>
					<g>
						<path class="st6" d="M424.4946594,184.682724l-5.0905457,54.5058136
							c-0.4690857,5.0226135-4.9178162,9.0826874-9.9309387,9.0826874h-12.6472168l-1.7410583,18.6419525
							c-0.1967163,2.1062927-2.8392944,3.1546326-4.1967468,1.6678772l-18.4034729-20.3098297h-99.8086853l6.7870789-72.6712341
							h136.7971802C421.2829285,175.5999908,424.9628601,179.6696014,424.4946594,184.682724z"/>
						<path class="st6" d="M414.2673035,294.1899109l-5.0905457,54.5057983
							c-0.4682007,5.0131226-4.9178162,9.0827332-9.9309387,9.0827332h-12.6472168l-1.7401428,18.6324158
							c-0.1967163,2.1062927-2.84021,3.1641846-4.1967773,1.6678772l-18.4043579-20.300293h-99.8086853l6.7870789-72.6712341
							h136.7971802C411.0555725,285.1072083,414.7355042,289.1767578,414.2673035,294.1899109z"/>
					</g>
				</g>
				<g>
					<path class="st7" d="M419.1667175,465.3665466H289.2253723c-6.0474243,0-10.4919739-4.9024048-9.9271545-10.9498291
						l4.8179932-51.5877991c0.5647888-6.0473938,5.9250488-10.9497986,11.9724731-10.9497986h129.9413452
						c6.0474243,0,10.4919434,4.9024048,9.9271545,10.9497986l-4.8179932,51.5877991
						C430.5744019,460.4641418,425.2141418,465.3665466,419.1667175,465.3665466z"/>
					<g>
						<g>
							<path class="st5" d="M336.274231,428.627594c-0.4450684,4.7653198-2.2885437,9.197052-5.0928345,12.8949585
								c-4.7636414,6.3092651-12.3092651,10.4646912-20.4484558,10.4646912c-8.1391602,0-14.9085999-4.155426-18.4937744-10.4646912
								c-2.1135864-3.6979065-3.1292725-8.1296387-2.6842346-12.8949585
								c1.2052307-12.90448,12.6377258-23.3691711,25.5422058-23.3691711
								C328.0016785,405.2584229,337.4794312,415.723114,336.274231,428.627594z"/>
							<path class="st4" d="M331.1813965,441.5225525c-4.7636414,6.3092651-12.3092651,10.4646912-20.4484558,10.4646912
								c-8.1391602,0-14.9085999-4.155426-18.4937744-10.4646912c4.7541199-6.3092957,12.3092957-10.4646606,20.4484558-10.4646606
								C320.8268127,431.0578918,327.6057434,435.2132568,331.1813965,441.5225525z"/>
							
								<ellipse transform="matrix(0.7234112 -0.6904174 0.6904174 0.7234112 -202.6414032 332.5978394)" class="st4" cx="313.7925415" cy="419.2143555" rx="9.8586121" ry="8.979866"/>
						</g>
						<g>
							<g>
								<path class="st5" d="M420.9942627,421.6882629h-64.9706726c-2.956604,0-5.1295471-2.3967896-4.8534241-5.353363v-0.0000305
									c0.2761536-2.9565735,2.8967896-5.353363,5.853363-5.353363h64.9707031c2.9565735,0,5.1295166,2.3967896,4.8533936,5.353363
									v0.0000305C426.5715027,419.2914734,423.9508667,421.6882629,420.9942627,421.6882629z"/>
								<path class="st5" d="M418.6989136,446.2651978h-39.907074c-2.956604,0-5.1295471-2.3967896-4.8534241-5.3533936l0,0
									c0.2761536-2.956604,2.8967896-5.3533936,5.853363-5.3533936h39.9071045
									c2.9565735,0,5.1295166,2.3967896,4.8533936,5.3533936l0,0
									C424.2761536,443.8684082,421.6555176,446.2651978,418.6989136,446.2651978z"/>
							</g>
						</g>
					</g>
				</g>
			</g>
		</g>
		<g>
			<path class="st7" d="M395.4580688,151.6665344l14.7056274-1.1555481
				c4.9194031-0.3865662,9.1598511-4.264801,10.0024719-9.1480865l2.5189209-14.5977249l-0.2077942,14.5977249
				c-0.069519,4.8832855,3.4465332,8.7615204,8.2937012,9.1480865l14.4898071,1.1555481l-14.705658,1.1555634
				c-4.9193726,0.3865509-9.1598206,4.264801-10.0024719,9.1480713l-2.5188904,14.5977325l0.2077942-14.5977325
				c0.069519-4.8832703-3.4465332-8.7615204-8.2937012-9.1480713L395.4580688,151.6665344z"/>
			<path class="st7" d="M392.9500122,253.2958374l11.0149231-0.8655396c3.6847229-0.2895508,6.8609619-3.194458,7.4920959-6.8521576
				l1.8867188-10.934082l-0.1556396,10.934082c-0.052063,3.6576996,2.581543,6.5626068,6.2122192,6.8521576l10.853241,0.8655396
				l-11.0149231,0.8655396c-3.6847534,0.2895508-6.8609619,3.194458-7.4920959,6.8521729l-1.8867493,10.934082l0.1556396-10.934082
				c0.0520935-3.6577148-2.5815125-6.5626221-6.2121887-6.8521729L392.9500122,253.2958374z"/>
			<path class="st7" d="M438.5475769,291.0601196l8.1911011-0.6436462c2.7401123-0.2153015,5.1020508-2.3755188,5.5714111-5.09552
				l1.4030151-8.1309814l-0.1157227,8.1309814c-0.0387268,2.7200012,1.9197388,4.8802185,4.6196289,5.09552l8.0708618,0.6436462
				l-8.1911011,0.6436462c-2.7401123,0.215332-5.1020508,2.3755188-5.5714111,5.09552l-1.4030151,8.1309814l0.1157227-8.1309814
				c0.0387268-2.7200012-1.9197083-4.880188-4.6196289-5.09552L438.5475769,291.0601196z"/>
		</g>
	</g>
</g>
<g id="TESTIMONIAL_2">
	<g>
		<path class="st7" d="M402.0895691,170.2393188l-5.0905457,54.5057983
			c-0.4684753,5.0162659-4.9147644,9.0827484-9.9310303,9.0827484h-12.6471252l-1.7404785,18.6357117
			c-0.1966248,2.1054993-2.8407288,3.1599274-4.1904907,1.6711273l-18.4103088-20.306839H238.1515961
			c-5.0162659,0-8.7029572-4.0664825-8.2344666-9.0827484l5.0905304-54.5057983
			c0.4682007-5.0131378,4.9083405-9.0826874,9.931015-9.0826874h148.9164581
			C398.8778076,161.1566315,402.5577698,165.226181,402.0895691,170.2393188z"/>
		<path class="st8" d="M398.0895691,166.2393188l-5.0905457,54.5057983
			c-0.4684753,5.0162659-4.9147644,9.0827484-9.9310303,9.0827484h-12.6471252l-1.7404785,18.6357117
			c-0.1966248,2.1054993-2.8407288,3.1599274-4.1904907,1.6711273l-18.4103088-20.306839H234.1515961
			c-5.0162659,0-8.7029572-4.0664825-8.2344666-9.0827484l5.0905304-54.5057983
			c0.4682007-5.0131378,4.9083405-9.0826874,9.931015-9.0826874h148.9164581
			C394.8778076,157.1566315,398.5577698,161.226181,398.0895691,166.2393188z"/>
		<g>
			<path class="st5" d="M296.2579041,197.0109406c-0.4450684,4.7653351-2.2885437,9.197052-5.0928345,12.8949432
				c-4.7636414,6.3092957-12.3092651,10.4647064-20.4484558,10.4647064c-8.1391602,0-14.9086151-4.1554108-18.4937897-10.4647064
				c-2.1135712-3.6978912-3.1292572-8.1296082-2.6842041-12.8949432
				c1.2052002-12.90448,12.6377106-23.3691711,25.5421906-23.3691711
				C287.9853516,173.6417694,297.4631042,184.1064606,296.2579041,197.0109406z"/>
			<path class="st4" d="M291.1650696,209.9058838c-4.7636414,6.3092957-12.3092651,10.4647064-20.4484558,10.4647064
				c-8.1391602,0-14.9086151-4.1554108-18.4937897-10.4647064c4.7541351-6.3092804,12.3093109-10.4646301,20.4484711-10.4646301
				C280.8104858,199.4412537,287.5894165,203.5966034,291.1650696,209.9058838z"/>
			
				<ellipse transform="matrix(0.7234112 -0.6904174 0.6904174 0.7234112 -53.7972984 240.9072876)" class="st4" cx="273.7762146" cy="187.597702" rx="9.8586121" ry="8.979866"/>
		</g>
		<g>
			<g>
				<path class="st5" d="M380.9779358,190.0716248h-64.9706726c-2.956604,0-5.1295471-2.3967896-4.8534241-5.3533936l0,0
					c0.276123-2.9565887,2.8967896-5.3533936,5.853363-5.3533936h64.9707031c2.9565735,0,5.1295166,2.3968048,4.8533936,5.3533936
					l0,0C386.5551758,187.6748352,383.9345398,190.0716248,380.9779358,190.0716248z"/>
				<path class="st5" d="M378.6825867,214.6485443h-39.907074c-2.956604,0-5.1295471-2.3967896-4.8534241-5.3533936l0,0
					c0.276123-2.9565887,2.8967896-5.3533936,5.853363-5.3533936h39.9071045c2.9565735,0,5.1295166,2.3968048,4.8533936,5.3533936
					l0,0C384.2598267,212.2517548,381.6391907,214.6485443,378.6825867,214.6485443z"/>
			</g>
		</g>
	</g>
</g>
<g id="TESTIMONIAL_1">
	<g>
		<path class="st7" d="M391.8627625,279.740448l-5.0905151,54.5057983
			c-0.4685059,5.0162659-4.9147644,9.0827332-9.9310303,9.0827332h-12.6471252l-1.7404785,18.6357117
			c-0.1966553,2.1054993-2.8407593,3.1599426-4.1905212,1.6711426l-18.4102783-20.3068542h-111.928009
			c-5.0162659,0-8.7029572-4.0664673-8.2344666-9.0827332l5.0905304-54.5057983
			c0.4682007-5.0131531,4.9083405-9.0827026,9.931015-9.0827026h148.9164734
			C388.6510315,270.6577454,392.3309631,274.7272949,391.8627625,279.740448z"/>
		<path class="st8" d="M387.8627625,275.740448l-5.0905151,54.5057983
			c-0.4685059,5.0162659-4.9147644,9.0827332-9.9310303,9.0827332h-12.6471252l-1.7404785,18.6357117
			c-0.1966553,2.1054993-2.8407593,3.1599426-4.1905212,1.6711426l-18.4102783-20.3068542h-111.928009
			c-5.0162659,0-8.7029572-4.0664673-8.2344666-9.0827332l5.0905304-54.5057983
			c0.4682007-5.0131531,4.9083405-9.0827026,9.931015-9.0827026h148.9164734
			C384.6510315,266.6577454,388.3309631,270.7272949,387.8627625,275.740448z"/>
		<g>
			<path class="st5" d="M286.0311279,306.5120544c-0.4450684,4.7653503-2.2885742,9.197052-5.092865,12.8949585
				c-4.7636108,6.3092957-12.3092346,10.4646912-20.4484558,10.4646912c-8.1391602,0-14.9085999-4.1553955-18.4937744-10.4646912
				c-2.1135559-3.6979065-3.1292572-8.1296082-2.6842041-12.8949585
				c1.2052002-12.90448,12.6377106-23.3691711,25.5422058-23.3691711
				C277.7585754,283.1428833,287.2363281,293.6075745,286.0311279,306.5120544z"/>
			<path class="st4" d="M280.9382629,319.4070129c-4.7636108,6.3092957-12.3092346,10.4646912-20.4484558,10.4646912
				c-8.1391602,0-14.9085999-4.1553955-18.4937744-10.4646912c4.7541504-6.3092957,12.3092957-10.4646301,20.4484558-10.4646301
				C270.5837097,308.9423828,277.3626404,313.0977173,280.9382629,319.4070129z"/>
			
				<ellipse transform="matrix(0.7234112 -0.6904174 0.6904174 0.7234112 -132.2274017 264.1333313)" class="st4" cx="263.549408" cy="297.0988159" rx="9.8586121" ry="8.979866"/>
		</g>
		<g>
			<g>
				<path class="st5" d="M370.7511597,299.5727539h-64.9707031c-2.9565735,0-5.1295166-2.3967896-4.8533936-5.3533936l0,0
					c0.276123-2.956604,2.896759-5.3533936,5.853363-5.3533936h64.9706726c2.956604,0,5.1295471,2.3967896,4.8534241,5.3533936l0,0
					C376.3283691,297.1759644,373.7077332,299.5727539,370.7511597,299.5727539z"/>
				<path class="st5" d="M368.4558105,324.1496582h-39.9071045c-2.9565735,0-5.1295166-2.3967896-4.8533936-5.353363v-0.0000305
					c0.276123-2.9565735,2.896759-5.353363,5.853363-5.353363h39.907074c2.956604,0,5.1295471,2.3967896,4.8534241,5.353363
					v0.0000305C374.0330505,321.7528687,371.412384,324.1496582,368.4558105,324.1496582z"/>
			</g>
		</g>
	</g>
</g>
<g id="NECK">
	<g>
		<path class="st2" d="M115.6131439,127.6529312c0.2572861,0.8196182-10.0739059,1.6297531-10.0739059,1.6297531
			l-4.1267929-12.8187332h12.0848618c0,0,0.9245071,5.1370316,1.5630417,8.4632263
			C115.327179,126.3376923,115.5368805,127.4146576,115.6131439,127.6529312z"/>
		<path class="st5" d="M115.0603485,124.9271774c-8.7300491-1.7345886-13.6479034-8.4632263-13.6479034-8.4632263h12.0848618
			C113.4973068,116.4639511,114.421814,121.6009827,115.0603485,124.9271774z"/>
	</g>
</g>
<g id="LEFT_ARM">
	<g>
		<path class="st1" d="M143.3444824,145.5831451c18.7368622-0.730011,31.633667,28.226944,35.7703705,40.1504059
			s9.9767761,27.7402802,9.9767761,27.7402802s14.721817-3.5283661,16.7901611,11.4367828
			c2.0683594,14.9651642-22.8735657,23.3602448-39.4203949,21.6568909s-22.8735657-51.3438568-26.5236053-72.2707367
			S143.3444824,145.5831451,143.3444824,145.5831451z"/>
		<path class="st6" d="M193.3500061,214.5688477l9.490097-2.6766968c0,0,6.5700684,4.3800507,6.6917267,18.8585205
			l-9.8551025,3.8933868C199.6767273,234.6440582,188.7266235,227.4656372,193.3500061,214.5688477z"/>
	</g>
</g>
<g id="LEFT_LEG">
	<g>
		<g>
			<path class="st5" d="M120.7029495,543.1428223c-17.0909424,2.5599976-38.1449661,0-38.1449661,0
				c-12.2078094-13.3740234-18.2570877-30.583374-18.2570877-30.583374
				c1.0294724-2.0680542,2.3140106-4.1907959,3.6987991-6.2587891c5.4661942-8.1902466,12.5813675-15.6060181,12.5813675-15.6060181
				c0.5675964-0.238739,1.2179642-0.4332275,1.9204788-0.5908813c6.4625473-1.4502563,13.0357132,1.9981689,15.7627029,8.0339966
				l0.0000076,0.0000305c0.692337,13.8385925,5.2293167,23.9601746,5.2293167,23.9601746l3.1430206-0.1184692
				C123.4998245,523.1456299,120.7029495,543.1428223,120.7029495,543.1428223z"/>
			
				<ellipse transform="matrix(0.5828693 -0.8125659 0.8125659 0.5828693 -378.138916 273.1266479)" class="st7" cx="76.954361" cy="504.8684998" rx="5.7995038" ry="4.2583771"/>
			<path class="st0" d="M84.7005539,502.1512451c0,0,1.5411224,12.8156738,6.5700684,22.4680176"/>
			<path class="st1" d="M120.7029495,543.1428223c-17.0909424,2.5599976-38.1449661,0-38.1449661,0
				c-12.2078094-13.3740234-18.2570877-30.583374-18.2570877-30.583374
				c1.0294724-2.0680542,2.3140106-4.1907959,3.6987991-6.2587891c2.5144577,6.4318848,9.0920944,21.6552124,18.5121994,31.612793
				c0,0,3.3799515-16.5170288,16.9816742-15.8154907l3.1430206-0.1184692
				C123.4998245,523.1456299,120.7029495,543.1428223,120.7029495,543.1428223z"/>
		</g>
		<path class="st2" d="M89.3239365,483.0899353c-0.3650055,0.1216736-6.4484024,9.8551025-6.4484024,9.8551025
			s-0.4866714,6.4483948,4.2583771,7.7867432s7.3811874-0.3649902,7.3811874-0.3649902l9.1656494-12.2884827L89.3239365,483.0899353
			z"/>
		<path class="st4" d="M115.5230942,459.8919067c-9.4368896-5.4262085-20.683548-2.7983398-20.683548-2.7983398
			l-10.4634399,17.0335083c0,0-0.8516769,15.0868225,11.1934433,19.1018372
			c12.0451279,4.0150452,18.1285248-1.0950012,18.4935226-1.2166748
			c0.3650055-0.1216431,12.1667938-13.9917908,12.1667938-13.9917908S125.2565231,465.4886475,115.5230942,459.8919067z"/>
		<g>
			<path class="st6" d="M172.1392212,289.1512756c0.1610107,3.3365173,2.7588501,127.1835327-1.8650513,138.5392151
				c-4.6239014,11.3556519-55.5621948,53.5338745-55.5621948,53.5338745s-18.8179779,1.7844543-19.1424255-16.8712769
				l39.1953278-48.6671753c0,0-17.7817688-74.6229858-21.675148-120.3701172
				C109.1963577,249.5686493,170.2445526,249.8873901,172.1392212,289.1512756z"/>
			<path class="st8" d="M161.9191284,290.7966614c0,0-0.9733429,13.9242249,7.6245117,15.7106323"/>
			<polyline class="st8" points="136.067688,328.5075378 148.4545441,416.1725769 108.5474625,465.8130798 			"/>
			<path class="st8" d="M131.9076996,330.3561401l1.2078094-0.1240845c2.0330353-0.2088623,3.608017-1.8640747,3.7098694-3.9052734
				c0.3165588-6.3433533,0.7875824-19.9670105-0.2942963-30.6054382"/>
		</g>
	</g>
</g>
<g id="RIGHT_LEG">
	<g>
		<g>
			<path class="st6" d="M70.2626266,293.0446472c0-1.2977905,0,30.8225403,3.2444763,42.502655
				s86.9520035,153.7882385,86.9520035,153.7882385l20.4402161-12.0045471l-48.9916229-146.9748535
				c0,0,2.5955811-63.5917664-27.902504-61.9695129C73.507103,270.0088501,70.2626266,293.0446472,70.2626266,293.0446472z"/>
			<path class="st8" d="M125.580986,429.5910645c4.5378952,7.8343811,8.9451523,15.414978,13.0135269,22.3961487"/>
			<path class="st8" d="M164.3686829,427.7391052l-32.4609833-97.3829651c0,0,2.5955811-63.5917664-27.902504-61.9695129"/>
			
				<ellipse transform="matrix(0.9534665 -0.3014989 0.3014989 0.9534665 -111.6390381 59.3749619)" class="st4" cx="136.5310822" cy="391.3523254" rx="12.1667919" ry="19.7102032"/>
			<path class="st8" d="M88.837265,294.991333c0,0,2.838913,16.8712769-7.2189636,18.1690674l0.4866714,16.7090759
				l77.0563431,144.217041"/>
			<path class="st4" d="M153.3618164,490.0655518c0-0.3649902-1.2166901-14.4784851,9.733429-20.1968689s20.9268799,0,20.9268799,0
				l9.1250916,19.3452148c0,0,0,9.1250916-10.0984344,14.6001282c-10.0984344,5.4750671-16.4251709,2.4333801-16.4251709,2.4333801
				L153.3618164,490.0655518z"/>
		</g>
		<path class="st2" d="M171.8147736,500.4884338l11.8017883,18.3718567l10.5851135-9.003418l-8.0300751-18.6151733
			C186.1716003,491.2416992,175.3431549,489.0516663,171.8147736,500.4884338z"/>
		<g>
			<path class="st5" d="M179.3581848,520.1986694c-0.4028778-0.7503662-1.5816803-13.2618103,13.7484741-17.7635498
				c0,0,12.2884674,0.4461365,21.3730011-5.6778259c14.1134796-4.3800354,18.4935303,0.6083374,18.4935303,0.6083374
				l-30.4980927,48.9916077C202.4750977,546.3572388,189.091629,538.3271484,179.3581848,520.1986694z"/>
			<path class="st0" d="M188.5238342,507.0899658c0,0,7.0567474,2.4242554,17.844635,0"/>
			
				<ellipse transform="matrix(0.6115271 -0.7912235 0.7912235 0.6115271 -337.8162231 351.3756409)" class="st7" cx="188.9246216" cy="519.7119751" rx="4.2583771" ry="5.7995038"/>
			<path class="st1" d="M232.9731903,497.3656311c0,0-6.7322998-6.1644897-16.6279602-3.1633606
				c-9.8956451,3.0011292-6.0833893,12.8156738-6.0833893,12.8156738s-18.6868439,23.8009033-14.210144,34.4089966
				c0,0,5.1220245,4.6751709,6.4234009,4.9302979C203.776474,546.6124268,232.9731903,497.3656311,232.9731903,497.3656311z"/>
			<path class="st2" d="M232.9731903,497.3656311c-10.9279938-5.0776367-42.5432129,44.8548889-30.4980927,48.9916077
				S245.0183105,502.9623718,232.9731903,497.3656311z"/>
		</g>
	</g>
</g>
<g id="BODY">
	<g>
		<path class="st6" d="M94.271759,131.3074341l4.1680145,13.4645844l27.7388687-1.9466858l0.8623428-13.9512482
			C127.0409851,128.8740845,112.2373428,120.9251099,94.271759,131.3074341z"/>
		<g>
			<path class="st1" d="M120.5520325,136.6608276c-37.0962219,0.6624298-51.5481949,19.6231995-51.5481949,19.6231995
				s-12.3680191,69.2754822-6.5279579,136.7606201c0,0,67.1606903,17.844635,118.4234467-5.1911621
				c0,0-0.8370972-68.0840302-16.2260132-125.3278198c-2.4169006-8.9904327-8.9259186-16.2907562-17.5467834-19.8050385
				C139.3905945,139.5670929,129.4992371,136.5010529,120.5520325,136.6608276z"/>
			<path class="st3" d="M173.3356781,203.9417267c-2.1936646-13.7150879-5.0205383-27.8691254-8.6623688-41.4160614
				c-0.2423553-0.901535-0.5258636-1.7860718-0.848526-2.6515045"/>
			<path class="st3" d="M111.1699677,137.2474518c0,0,7.0643539,9.3598175,10.2588196,26.3412933
				c0.2539978,1.3502197,1.5447617,2.2511292,2.9007034,2.0297546l2.9302826-0.4784088
				c1.4117661-0.2304993,2.3589859-1.5785522,2.0868454-2.9828796c-0.9564667-4.9355621-3.5416183-16.08992-8.7945862-25.4963837"/>
			<path class="st3" d="M67.5048218,285.7445679c0,0,63.1050873,13.4645996,107.7166595-3.5689087"/>
		</g>
	</g>
</g>
<g id="HEART_LIKE">
	<g>
		<path class="st6" d="M203.675415,258.6217041l-82.0652771,12.5369873
			c-5.9009094,0.9014893-11.4153366-3.1513672-12.3168106-9.0522766l-9.1072159-59.6143951
			c-0.9014816-5.9009247,3.1513672-11.4153442,9.0522842-12.3168182l82.0652695-12.5370178
			c5.9009247-0.901474,11.4153442,3.1513824,12.3168182,9.0522919l9.1072235,59.6144104
			C213.6291809,252.2057953,209.5763245,257.7202148,203.675415,258.6217041z"/>
		<path class="st1" d="M188.9169769,211.0747528c0.0019684-0.151947,0.0004883-0.2884216-0.0000916-0.4300842
			c0.001236-0.4263458-0.0066833-0.8534241-0.0377045-1.2844849c-0.0532684-0.8871918-0.1401672-1.3808746-0.1401672-1.3808746
			c-1.4341888-9.3880005-10.2072906-15.8358765-19.5953369-14.4016724
			c-9.3880005,1.4341888-15.8358612,10.2073517-14.4016724,19.5953522
			c-1.4341888-9.3880005-10.2073517-15.8358612-19.5953522-14.4016724
			c-9.3880463,1.4342041-15.8358536,10.2073517-14.4016571,19.5953522c0,0,0.0644608,0.4971008,0.278511,1.3597412
			c0.0991058,0.4206696,0.2190475,0.8306122,0.3475266,1.2371521c0.0417557,0.135376,0.0810776,0.2660675,0.1283264,0.4104919
			c0.0574112,0.1670074,0.1096878,0.3362579,0.1719208,0.5005798c2.4065018,6.9047089,10.8127899,22.3339233,39.0973663,30.7477722
			c24.4823303-16.4749756,27.8984985-33.7102966,28.1337128-41.0185852
			C188.9126892,211.428421,188.9120483,211.2512817,188.9169769,211.0747528z"/>
	</g>
</g>
<g id="RIGHT_ARM">
	<g>
		<path class="st1" d="M73.8110733,151.6526642c-22.9520645,15.8986206-51.2873535,67.8806-52.3049507,88.6634064
			s44.6103935,21.5467834,54.8324547,15.5057373c10.2220612-6.0410156,12.4615784-21.5216522,6.8757248-26.3765106
			s-20.1074715-5.8061371-20.1074715-5.8061371s14.0572014-28.2006683,18.6955605-46.3559723
			C86.4407578,159.1278992,73.8110733,151.6526642,73.8110733,151.6526642z"/>
		<path class="st3" d="M61.9806099,258.9636841c6.2852745-0.3818359,11.6053352-1.5151062,14.3579674-3.1418762
			c10.2220612-6.0410156,12.4615784-21.5216522,6.8757248-26.3765106s-20.1074715-5.8061371-20.1074715-5.8061371
			s14.0572014-28.2006683,18.6955605-46.3559723"/>
		<path class="st3" d="M63.1068306,223.6391602c0,0-11.6621742,0.2020721-20.9089355,6.2523804"/>
		<path class="st6" d="M89.4250641,231.1967468l-10.5129089-1.3052063c0,0-12.0628815,8.5507355-3.2448654,23.7652893
			l13.095108-0.657074C88.7623978,252.9997559,96.773201,244.5859985,89.4250641,231.1967468z"/>
		<g>
			<path class="st2" d="M87.1405487,233.3983612c0,0-9.2654419,8.1337585,0.2366943,17.0625153l7.1782761-1.1808777
				c0,0,16.0776138,2.3438416,25.4653015,2.2493591c9.3876877-0.0944672,4.205719-7.8115234,4.205719-7.8115234
				s5.1874161-3.4929047,1.9723511-7.0810242c0,0,3.7828903-4.5447388-1.2062531-6.8897858
				c0,0,3.5865555-5.4084625-1.2129135-6.7683105c-4.7994614-1.3598328-21.2399597-1.5302582-23.3185349-1.400528
				c-2.0785751,0.129715-7.800499,11.1480713-7.800499,11.1480713L87.1405487,233.3983612z"/>
			<g>
				<g>
					<line class="st9" x1="110.5642242" y1="227.696701" x2="122.0337524" y2="228.8942871"/>
					<line class="st9" x1="111.2262726" y1="234.8815765" x2="123.7353516" y2="236.3798676"/>
					<line class="st9" x1="112.0547485" y1="241.9943542" x2="122.232872" y2="243.0398865"/>
				</g>
			</g>
		</g>
	</g>
</g>
<g id="HEAD">
	<g>
		<path class="st5" d="M97.1743317,109.7118759c0,0-13.1509399,2.7179718-19.0183945-8.040062
			C72.288475,90.9137726,90.7323227,78.4840622,90.7323227,78.4840622s3.8643951-13.5082855,5.8246078-16.911087
			c1.9602127-3.4028053,6.109993,8.3030701,6.109993,8.3030701s4.6491318-10.4549561,10.9147415-15.5372391
			c2.96875-2.4080734,4.9334259,11.0436325,3.7690125,18.4082718c0,0,9.7953033-7.8412018,14.8550873-6.1058807
			c5.0597839,1.7353287-1.4866791,16.8385086-6.837265,22.4683762c0,0,3.1304626,3.9030533,3.2049713,5.1833801
			s-11.5858383,4.8879013-11.5858383,4.8879013L97.1743317,109.7118759z"/>
		<path class="st2" d="M94.2430954,101.5370331c0,0,4.3414307,14.8608704,6.6330414,16.3913727
			c2.2916107,1.5304947,16.2127457,3.8326416,20.089447,2.0227737c3.8767014-1.8098755,2.0585175-21.8704376-3.3845901-32.62323
			S88.562149,83.5427933,94.2430954,101.5370331z"/>
		<path class="st5" d="M94.1661606,102.9433289c0,0-0.0776138-2.3271408,2.1381912-4.9804459
			c2.2157974-2.6533051,2.0483627-5.8616409,2.0483627-5.8616409s14.8099289,5.722435,26.4392242-2.3925018
			c0,0-6.5595016-11.9642563-22.6591187-8.8113327C86.0332031,84.0503235,90.6786346,97.9819336,94.1661606,102.9433289z"/>
		<g>
			<path class="st2" d="M96.5595398,105.3284149c0,0-5.5065384-9.8540878-11.5342712-5.2639313
				s5.8779678,18.0029221,13.8791656,12.8868332L96.5595398,105.3284149z"/>
			<path class="st9" d="M87.0154419,102.9162369c0,0,4.7662506,1.4376678,8.953476,7.4952698"/>
			<path class="st9" d="M90.1250839,109.9936218c0,0-0.0132294-2.4678345,1.4676819-4.3772049"/>
		</g>
		<g>
			<path class="st9" d="M111.4914474,102.3224869c0,0,1.8726959,4.0340576,3.667572,6.068573
				c0,0-0.2158432,1.9202881-3.4469452,2.3588181"/>
			<path class="st9" d="M107.992363,114.8019638c0,0,4.4725952,1.3584061,8.6535873-0.6384659"/>
			
				<ellipse transform="matrix(0.9741417 -0.2259381 0.2259381 0.9741417 -20.910675 26.7449646)" class="st5" cx="106.3871918" cy="104.7263489" rx="1.6425169" ry="2.2508564"/>
			<path class="st5" d="M101.4124451,100.5095749c0,0,3.1991882-1.5538406,6.5779572-1.5256577
				c0,0,0.0849533-1.5184784-0.8641129-2.1101837C106.1772156,96.2820206,101.8108292,97.9192276,101.4124451,100.5095749z"/>
			
				<ellipse transform="matrix(0.9741417 -0.2259381 0.2259381 0.9741417 -20.1647873 28.9501362)" class="st5" cx="116.3940048" cy="102.5703354" rx="1.6425169" ry="2.2508564"/>
			<path class="st5" d="M119.3487473,96.3495102c0,0-3.5565567,0.0130615-6.5779648,1.5256653
				c0,0-0.7446976-1.3260498-0.1529846-2.2751236C113.2095032,94.6509781,117.8507843,94.1989899,119.3487473,96.3495102z"/>
		</g>
	</g>
</g>
<g id="LEFT_HAND">
	<g>
		<path class="st2" d="M202.5858917,207.0743866c-7.9246368,2.2641907-5.3613129,6.6742859-4.1577606,6.8931122
			c0,0-3.2824249,3.8295135,1.0941467,7.7684326c0,0-2.625946,4.8142395,2.2977142,7.7684174
			c0,0-2.1882935,6.3460388,4.5953979,7.2213593s15.7192078-3.1730194,12.4367828-9.3002319
			c0,0,3.1365356-5.9448395-1.7871094-8.0237274c0,0,3.0635986-5.7989655-1.2035522-7.1119385
			C215.8615112,212.2898102,217.9039154,202.6978149,202.5858917,207.0743866z"/>
		<line class="st9" x1="202.4142609" y1="212.9871674" x2="213.9118805" y2="211.8921509"/>
		<line class="st9" x1="203.3933411" y1="220.9180908" x2="214.8909607" y2="219.8230743"/>
		<line class="st9" x1="204.3724365" y1="228.8490143" x2="215.8700409" y2="227.7540131"/>
	</g>
</g>
<g id="LINE">
	<g>
		<g>
			<path class="st10" d="M272.898407,108.9148941c-0.5073242-0.8365707-1.0822144-1.6555557-1.719635-2.4541016"/>
			<path class="st11" d="M266.9141846,102.1592712c-16.5988007-13.7782211-53.094101-17.8473816-72.7125092,8.5457306
				c-22.549118,30.3358612,5.5156097,55.9672394,25.7935944,41.5293121
				c18.1290894-12.9079132-0.1622162-43.8004456-29.6869659-34.0670166s-34.7159119,42.502655-34.7159119,42.502655
				s-1.2175446,5.1645966-1.6429291,11.2744598"/>
			<path class="st10" d="M153.8135529,174.97435c-0.0183258,1.0005035-0.0084991,2.0075836,0.0375061,3.0043793"/>
		</g>
	</g>
</g>
<g id="ORNAMENT_6">
	<g>
		<line class="st0" x1="187.0638275" y1="49.6682663" x2="187.0638275" y2="54.9568825"/>
		<line class="st0" x1="187.0638275" y1="60.6020355" x2="187.0638275" y2="65.8906555"/>
		<line class="st0" x1="195.1750183" y1="57.7794571" x2="189.8863983" y2="57.7794571"/>
		<line class="st0" x1="184.2412415" y1="57.7794571" x2="178.9526367" y2="57.7794571"/>
	</g>
</g>
<g id="ORNAMENT_5">
	<g>
		<line class="st0" x1="51.769104" y1="392.0012207" x2="51.769104" y2="397.2898254"/>
		<line class="st0" x1="51.769104" y1="402.9349976" x2="51.769104" y2="408.2236023"/>
		<line class="st0" x1="59.8802986" y1="400.1124268" x2="54.5916786" y2="400.1124268"/>
		<line class="st0" x1="48.9465256" y1="400.1124268" x2="43.6579094" y2="400.1124268"/>
	</g>
</g>
<g id="ORNAMENT_4">
	<g>
		<line class="st0" x1="557.5106201" y1="238.6739655" x2="557.5106201" y2="243.9625854"/>
		<line class="st0" x1="557.5106201" y1="249.6077271" x2="557.5106201" y2="254.896347"/>
		<line class="st0" x1="565.6218262" y1="246.7851562" x2="560.3331909" y2="246.7851562"/>
		<line class="st0" x1="554.6880493" y1="246.7851562" x2="549.3994141" y2="246.7851562"/>
	</g>
</g>
<g id="ORNAMENT_3">
	<g>
		<line class="st0" x1="434.7149353" y1="67.8778992" x2="434.7149353" y2="73.1665115"/>
		<line class="st0" x1="434.7149353" y1="78.8116684" x2="434.7149353" y2="84.1002808"/>
		<line class="st0" x1="442.8261108" y1="75.98909" x2="437.5375061" y2="75.98909"/>
		<line class="st0" x1="431.8923645" y1="75.98909" x2="426.6037292" y2="75.98909"/>
	</g>
</g>
<g id="ORNAMENT_2">
	<circle class="st0" cx="39.9166031" cy="300.821228" r="4.3902001"/>
</g>
<g id="ORNAMENT_1">
	<circle class="st0" cx="537.5731812" cy="290.7966614" r="4.3902001"/>
</g>
</svg>
