<svg id="BOOK" xmlns="http://www.w3.org/2000/svg" viewBox="0 0 500 500"><defs><style>.cls-1{fill:#f68d88;}.cls-2{fill:#ecbdbb;}.cls-3{fill:#fff;}.cls-4{fill:#404b7c;}.cls-5{fill:#9ab3da;}.cls-6{fill:#e9f3ff;}</style></defs><title>Vision</title><path class="cls-1" d="M242.46,441.85h58.15a0,0,0,0,1,0,0v26.66a0,0,0,0,1,0,0H242.46a13.33,13.33,0,0,1-13.33-13.33v0A13.33,13.33,0,0,1,242.46,441.85Z"/><path class="cls-2" d="M359.08,441.86v4.85h-0.34a9.42,9.42,0,0,0-.88.88,10.63,10.63,0,0,0-2,3.39,12.42,12.42,0,0,0-.72,4.21,11.76,11.76,0,0,0,2.08,6.82,9.15,9.15,0,0,0,1.49,1.66h0.33v4.85H300.93a13.33,13.33,0,1,1,0-26.66h58.15Z"/><path class="cls-3" d="M358.75,463.67H302.22a8.48,8.48,0,1,1,0-17h56.52a9.42,9.42,0,0,0-.88.88,10.63,10.63,0,0,0-2,3.39,12.42,12.42,0,0,0-.72,4.21,11.76,11.76,0,0,0,2.08,6.82A9.15,9.15,0,0,0,358.75,463.67Z"/><path class="cls-4" d="M261.58,468.51h-10a13.33,13.33,0,1,1,0-26.66h10A13.33,13.33,0,1,0,261.58,468.51Z"/><path class="cls-4" d="M290.49,468.51h-10a13.33,13.33,0,1,1,0-26.66h10A13.33,13.33,0,1,0,290.49,468.51Z"/><path class="cls-5" d="M231.62,415.19h58.15a0,0,0,0,1,0,0v26.66a0,0,0,0,1,0,0H231.62a13.33,13.33,0,0,1-13.33-13.33v0A13.33,13.33,0,0,1,231.62,415.19Z"/><path class="cls-6" d="M348.24,415.19V420H347.9a9.42,9.42,0,0,0-.88.88,10.63,10.63,0,0,0-2,3.39,12.42,12.42,0,0,0-.72,4.21,11.76,11.76,0,0,0,2.08,6.82,9.15,9.15,0,0,0,1.49,1.66h0.33v4.85H290.08a13.33,13.33,0,1,1,0-26.66h58.15Z"/><path class="cls-3" d="M347.91,437H291.38a8.48,8.48,0,1,1,0-17H347.9a9.42,9.42,0,0,0-.88.88,10.63,10.63,0,0,0-2,3.39,12.42,12.42,0,0,0-.72,4.21,11.76,11.76,0,0,0,2.08,6.82A9.15,9.15,0,0,0,347.91,437Z"/><path class="cls-4" d="M250.74,441.85h-10a13.33,13.33,0,1,1,0-26.66h10A13.33,13.33,0,1,0,250.74,441.85Z"/><path class="cls-4" d="M279.65,441.85h-10a13.33,13.33,0,1,1,0-26.66h10A13.33,13.33,0,1,0,279.65,441.85Z"/><path class="cls-1" d="M249,388.53h58.15a0,0,0,0,1,0,0v26.66a0,0,0,0,1,0,0H249a13.33,13.33,0,0,1-13.33-13.33v0A13.33,13.33,0,0,1,249,388.53Z"/><path class="cls-2" d="M365.58,388.53v4.85h-0.34a9.42,9.42,0,0,0-.88.88,10.63,10.63,0,0,0-2,3.39,12.42,12.42,0,0,0-.72,4.21,11.76,11.76,0,0,0,2.08,6.82,9.15,9.15,0,0,0,1.49,1.66h0.33v4.85H307.43a13.33,13.33,0,1,1,0-26.66h58.15Z"/><path class="cls-3" d="M365.26,410.34H308.72a8.48,8.48,0,1,1,0-17h56.52a9.42,9.42,0,0,0-.88.88,10.63,10.63,0,0,0-2,3.39,12.42,12.42,0,0,0-.72,4.21,11.76,11.76,0,0,0,2.08,6.82A9.15,9.15,0,0,0,365.26,410.34Z"/><path class="cls-4" d="M268.09,415.19h-10a13.33,13.33,0,1,1,0-26.66h10A13.33,13.33,0,1,0,268.09,415.19Z"/><path class="cls-4" d="M297,415.19H287a13.33,13.33,0,1,1,0-26.66h10A13.33,13.33,0,1,0,297,415.19Z"/><path class="cls-5" d="M233.11,361.86h58.15a0,0,0,0,1,0,0v26.66a0,0,0,0,1,0,0H233.11a13.33,13.33,0,0,1-13.33-13.33v0a13.33,13.33,0,0,1,13.33-13.33Z"/><path class="cls-6" d="M349.73,361.87v4.85h-0.34a9.42,9.42,0,0,0-.88.88,10.63,10.63,0,0,0-2,3.39,12.42,12.42,0,0,0-.72,4.21,11.76,11.76,0,0,0,2.08,6.82,9.15,9.15,0,0,0,1.49,1.66h0.33v4.85H291.58a13.33,13.33,0,1,1,0-26.66h58.15Z"/><path class="cls-3" d="M349.4,383.68H292.87a8.48,8.48,0,1,1,0-17h56.52a9.42,9.42,0,0,0-.88.88,10.63,10.63,0,0,0-2,3.39,12.42,12.42,0,0,0-.72,4.21,11.76,11.76,0,0,0,2.08,6.82A9.15,9.15,0,0,0,349.4,383.68Z"/><path class="cls-4" d="M252.23,388.52h-10a13.33,13.33,0,1,1,0-26.66h10A13.33,13.33,0,1,0,252.23,388.52Z"/><path class="cls-4" d="M281.14,388.52h-10a13.33,13.33,0,1,1,0-26.66h10A13.33,13.33,0,1,0,281.14,388.52Z"/><path class="cls-2" d="M264.42,312.88s-2.56,7.11-5.1,14.06c-2.41,6.57-4.81,13-5,13.06-0.39.14-8,.67-8,0.67l3.77-16.14,3.14-13.38Z"/><path class="cls-4" d="M264.42,312.88s-2.56,7.11-5.1,14.06l-9.2-2.41,3.14-13.38Z"/><path class="cls-4" d="M296.54,356l0,0.54-0.39,5.22-25.21.63-31.77.79s0-2,.27-5c0.51-5.58,2-14.79,6.56-22.18a40.39,40.39,0,0,0,10.63.27s14.22,6.32,19.34,6.85l0.31,0C278.88,343.6,297.61,347,296.54,356Z"/><path class="cls-5" d="M274.13,349.36l-0.13,0a190,190,0,0,1-20.53-6.58,0.5,0.5,0,1,1,.38-0.93,188.33,188.33,0,0,0,20.41,6.54A0.5,0.5,0,0,1,274.13,349.36Z"/><ellipse class="cls-1" cx="248.56" cy="347.75" rx="5.45" ry="4.21" transform="translate(-127.94 550.14) rotate(-82.7)"/><path class="cls-1" d="M297.08,356.55a39.82,39.82,0,0,1-1,5.24l-25.21.63a41.61,41.61,0,0,1,.1-5.14c0.36-4.5,1.61-10.19,5.24-14.12a13.32,13.32,0,0,1,1.7-1.57A25.92,25.92,0,0,1,292,345.5C296.71,348.47,297.47,352.58,297.08,356.55Z"/><path class="cls-1" d="M297.08,356.55a39.82,39.82,0,0,1-1,5.24l-25.21.63-31.77.79s0-2,.27-5l31.6-.9,25.51-.71Z"/><path class="cls-5" d="M288.21,253.34c0,3.19-19.41,57.68-19.41,57.68l-19.67-.53,7.71-40.41L246,273.91l-19.22,6.76L200.23,290a29,29,0,0,1-4.24,1.76c-6.15,2.05-17.81,4.09-27.12-5.22-13.29-13.29-.72-51.5,23.92-51.84,19.41-.27,86.92,5.85,88.78,6.65S288.21,250.15,288.21,253.34Z"/><path class="cls-4" d="M263,255.86c-2.22,3.94-6.2,14.23-6.2,14.23L246,273.91l16.45-18.05H263Z"/><path class="cls-4" d="M226.76,280.68L200.23,290a29,29,0,0,1-4.24,1.76l8.41-10.72,6.86-7.67Z"/><path class="cls-4" d="M256.32,306.92l-0.12,0a0.5,0.5,0,0,1-.36-0.61c4.4-17.34,10.92-43.65,10.88-45.08s-3.56-4.47-4.31-4.84c-2.11.48-33.69,9.33-50.39,14a0.5,0.5,0,1,1-.27-1c15.06-4.23,50.14-14.08,50.68-14.08,0.88,0,5.14,3.87,5.28,5.78,0.14,1.76-9.78,40.93-10.91,45.4A0.5,0.5,0,0,1,256.32,306.92Z"/><path class="cls-6" d="M248.16,306c0.91-.28,12.74.73,15.59,0.6s8-.07,8.64.8-2.79,12.69-2.92,13.42-8.57.93-14,.86-10-.13-10.23-2.13S246.46,306.5,248.16,306Z"/><polygon class="cls-2" points="151.45 422.4 149.71 431.31 148.26 438.75 139.35 439.68 140.61 428.42 141.22 422.94 151.45 422.4"/><polygon class="cls-4" points="151.45 422.4 149.71 431.31 140.61 428.42 141.22 422.94 151.45 422.4"/><path class="cls-4" d="M170.72,468.52H130.32a25.35,25.35,0,0,1,.09-6.1c0.05-.5.11-1,0.18-1.59a38.66,38.66,0,0,1,.75-3.88c0.74-3.15,1.88-7.21,3-10.87,1.53-4.91,3.08-9.12,3.66-9.45,1.86-1.06,11.3-1.19,13.43.81s6.38,9.7,6.38,9.7,6.38-.66,9.7,4.78S170.72,468.52,170.72,468.52Z"/><path class="cls-5" d="M148.79,452.67l-0.14,0c-8.12-2.45-8.72-13-8.52-14.06a0.5,0.5,0,1,1,1,.18c-0.16.85,0.45,10.69,7.83,12.92A0.5,0.5,0,0,1,148.79,452.67Z"/><path class="cls-1" d="M170.72,468.52H130.32a25.35,25.35,0,0,1,.09-6.1h16c-0.13-14.76,11.44-15.29,11.44-15.29s6.38-.66,9.7,4.78S170.72,468.52,170.72,468.52Z"/><path class="cls-1" d="M138.22,453c-0.7,3.47-2.95,5.94-5,5.53a2.88,2.88,0,0,1-1.89-1.55c0.74-3.15,1.88-7.21,3-10.87a2.41,2.41,0,0,1,1.41-.15C137.83,446.34,138.92,449.5,138.22,453Z"/><path class="cls-5" d="M152.51,238.59s-2.79,14.75-3.32,21.4-2.57,84.53-2.57,84.53-3.9,14.35-4.43,20.91-2.48,50-2.48,50l14.89-1.06s22.51-69.47,29.95-91.8,19.85-41.47,19.85-41.47,4.58-30.17,5.67-42.53C212.19,214.44,160.89,197.16,152.51,238.59Z"/><path class="cls-4" d="M204.39,281.57a0.49,0.49,0,0,1-.21,0,0.5,0.5,0,0,1-.29-0.52l5.67-42.53a0.5,0.5,0,0,1,1,.13l-5.46,40.92,5.69-6.35c2.49-12.82,5.78-46,5.81-46.34a0.5,0.5,0,0,1,1,.1c0,0.34-3.35,33.8-5.85,46.56a0.5,0.5,0,0,1-.12.24l-6.87,7.67A0.5,0.5,0,0,1,204.39,281.57Z"/><path class="cls-4" d="M143.61,406.87h-0.05a0.5,0.5,0,0,1-.45-0.55c0.19-1.85,4.63-45.47,6-50.93S151.78,342,151.8,342c0-.32,1.24-38,1.41-51s-0.61-39.06-.62-39.32a0.5,0.5,0,0,1,.48-0.52,0.51,0.51,0,0,1,.52.48c0,0.26.8,26.39,0.62,39.36s-1.41,50.67-1.42,51c0,0.14-1.27,8.12-2.67,13.58s-6,50.33-6,50.79A0.5,0.5,0,0,1,143.61,406.87Z"/><path class="cls-6" d="M138.16,410.18c-1.41.3-2.66,12.76-2.26,14.75s7.58,2.66,10.5,2.79a21,21,0,0,0,8.11-1.46c1.33-.66,4.92-15.95,4.78-16.61S140,409.78,138.16,410.18Z"/><path class="cls-1" d="M276.87,146.21c-0.35,2.13-5.14,9.92-7.26,11.16-1.17.69-13.14,1.42-26.74,1a161.36,161.36,0,0,1-26.53-2.65c-1.73-.36-3.36-0.77-4.86-1.21-18.43-5.49-15.06-36.15,14.18-31.19,1,0.18,25.69,5.14,25.69,5.14l-2.48-12.23,7.07,0.19,12.6,0.34S277.23,144.09,276.87,146.21Z"/><path class="cls-4" d="M242.87,158.4a161.36,161.36,0,0,1-26.53-2.65c-1.33-4.24-1.69-8.78-1-10.25,1.41-2.83,8.06-5.49,8.06-5.49Z"/><path class="cls-4" d="M266.15,118l-14.8,10.45-2.48-12.23,7.07,0.19C261.11,117.21,266.15,118,266.15,118Z"/><path class="cls-2" d="M266.15,148.44a0.5,0.5,0,0,1-.33-0.12c-6.69-5.73-13.84-17.15-13.92-17.26a0.5,0.5,0,1,1,.85-0.53c0.07,0.11,7.14,11.4,13.72,17A0.5,0.5,0,0,1,266.15,148.44Z"/><path class="cls-5" d="M245.82,109.53c-0.21.68,0.4,12.23,0.53,12.76s10.23,3.06,16.22,2.26,9.7-4.39,9.84-5.32-3.72-11.56-4.12-11.83a73.82,73.82,0,0,0-11.56-1.46C253.66,105.94,246.35,107.8,245.82,109.53Z"/><path class="cls-2" d="M247.72,101.38a67.91,67.91,0,0,1,1.77,8.42s4.78,1.68,8.15,1.51a9.46,9.46,0,0,0,5.49-2.13l-5.67-10.37s-0.09-10.54-1-13-2.13-5.14-2.13-5.14l-13.73,2.48s0.66,7.93.66,10.26S247.72,101.38,247.72,101.38Z"/><path class="cls-1" d="M242.61,232.86c0,1.06-2.22,4.6-4.52,5.4s-16.13,5.85-39.52,6.38-49.71-5.05-49.71-5.05-2.13-1.33-1.33-5.85,4.7-11.33,3.64-28c-0.06-.9-0.1-1.94-0.1-3.06-0.09-8,.94-21.35,2.19-34.35,1.82-19,4.1-37.32,4.1-37.32a66.82,66.82,0,0,1,27.38-12.1c17.63-1.23,39.79,4.25,39.79,4.25,9.74,32.43,8,90.65,8.94,93.93s3.55,6,4.17,7.08,0.53,4.43.53,4.43S242.61,231.8,242.61,232.86Z"/><path class="cls-2" d="M230.53,157.15a0.5,0.5,0,0,1-.5-0.45,202,202,0,0,0-5-30,0.5,0.5,0,0,1,1-.25A203,203,0,0,1,231,156.6a0.5,0.5,0,0,1-.45.55h-0.05Z"/><path class="cls-4" d="M169.13,162c-0.41.14-12.74,28.45-18.05,40.7-0.09-8,.94-21.35,2.19-34.35Z"/><path class="cls-2" d="M206.06,233.36a202.48,202.48,0,0,1-32.35-2.67,0.5,0.5,0,0,1,.16-1c36.61,5.94,60.75.07,61,0a0.5,0.5,0,1,1,.24,1C234.95,230.73,224.13,233.36,206.06,233.36Z"/><path class="cls-2" d="M163.46,239.39a0.5,0.5,0,0,1-.41-0.22c-3-4.47-2.16-7.93-1-12.71a54.8,54.8,0,0,0,2-12.07c0.52-13.06,0-34.35,0-34.57a0.5,0.5,0,0,1,.49-0.51,0.53,0.53,0,0,1,.51.49c0,0.21.53,21.54,0,34.63a55.66,55.66,0,0,1-2,12.27c-1.19,4.7-2,7.8.81,11.9A0.5,0.5,0,0,1,163.46,239.39Z"/><path class="cls-5" d="M196.2,113c-3.65-.14-9.5.13-9.5,0.13l-6.31,9.77s6.78,5.25,13.62,6.25l6.31-6,5.05,5.18a48.33,48.33,0,0,0,6.78-6.11l-4.65-7.24S199.79,113.15,196.2,113Z"/><path class="cls-1" d="M157,131.22c-13.61,8.9-35.09,58.44-35.27,64.46s12.41,34.73,12.41,34.73l16.55-12.47-6.27-21s12.41-17,24.81-31.9S169.92,122.75,157,131.22Z"/><path class="cls-2" d="M156.37,181.57a0.5,0.5,0,0,1-.4-0.81c4.61-6,8.94-11.36,12.86-16.06,4.31-5.17,6-12.45,4.75-20-1.06-6.12-4-11.29-7.73-13.48a0.5,0.5,0,0,1,.51-0.86c4,2.34,7.1,7.77,8.21,14.17,1.35,7.8-.46,15.36-5,20.76-3.92,4.7-8.23,10.09-12.84,16A0.5,0.5,0,0,1,156.37,181.57Z"/><path class="cls-2" d="M142.1,197.42a0.5,0.5,0,0,1-.22-0.05c-4.4-2.2-12.45-.68-12.53-0.67a0.5,0.5,0,0,1-.19-1c0.34-.07,8.46-1.6,13.17.75A0.5,0.5,0,0,1,142.1,197.42Z"/><path class="cls-5" d="M155.92,224.26c0.1,0.81-1.28,4-3.45,6.93a18.69,18.69,0,0,1-3.59,3.83c-4.13,3.19-11,4.66-11.57,4.52s-6-7.44-6.38-10.37c0,0,2-9.43,8-14.22s12.1-2.8,12.49-1.73S155.79,223.06,155.92,224.26Z"/><path class="cls-4" d="M152.47,231.19a18.69,18.69,0,0,1-3.59,3.83c-4.13,3.19-11,4.66-11.57,4.52C137.31,239.54,142.31,225.93,152.47,231.19Z"/><path class="cls-2" d="M141.21,234s3.1-7.44,8.51-7.53l9.39,15.42s-3.72,6.73-7.53,9.75l-1.15-6.73S143.43,237.41,141.21,234Z"/><path class="cls-4" d="M150.7,252.8a0.5,0.5,0,0,1-.32-0.88,41.58,41.58,0,0,0,8.38-10.43,0.5,0.5,0,1,1,.87.49A41.78,41.78,0,0,1,151,252.68,0.5,0.5,0,0,1,150.7,252.8Z"/><path class="cls-2" d="M201.23,103.19v12.51l-1.86,1a14.88,14.88,0,0,1-7.78-3.13s0.4-13.22.4-13.42l0.1,0Z"/><path class="cls-4" d="M201.23,103.19v8.28c-7.83,0-9-8.12-9.14-11.28Z"/><path class="cls-2" d="M185.6,91s5.57,18.21,17.53,16.1,6.14-36.28-6.62-33.76S182.55,81.61,185.6,91Z"/><path class="cls-4" d="M188.26,94.11l1.86-1s-1-3.46-2-7.11,1.47-5.65,4-4.25c0,0,1.4-3.79,4.72-3.05s5.37,13.76,14.21,12,6.65-11.89,6.65-11.89-2.59,3.72-5.85,2.32-0.72-11-3-18S188.73,53,180.56,77.27c0,0-6.11-.18-7.85,5.27s4.85,19.79,19.81,20.66a27.94,27.94,0,0,1-5.08-7.58Z"/><path class="cls-2" d="M187.43,92s-2.66-3.51-6-1.34,1,9.25,9.18,6.31Z"/><path class="cls-4" d="M188.23,95.65a0.5,0.5,0,0,1-.4-0.2c-2.54-3.38-5.47-2.79-5.5-2.79a0.5,0.5,0,1,1-.21-1c0.15,0,3.59-.73,6.51,3.16A0.5,0.5,0,0,1,188.23,95.65Z"/><path class="cls-4" d="M185.23,96.07a0.5,0.5,0,0,1-.41-0.21,3.32,3.32,0,0,1,0-3.45,0.5,0.5,0,0,1,.88.48,2.34,2.34,0,0,0,0,2.4A0.5,0.5,0,0,1,185.23,96.07Z"/><path class="cls-4" d="M191.93,89.58s1-4.15,4.13-3.39a0.94,0.94,0,0,1,.61-1.06c0.74-.19,1.35,2.11,1.35,2.11A16.42,16.42,0,0,0,191.93,89.58Z"/><path class="cls-4" d="M208.24,87.66s-1.11-3.74-3.06-2.18a0.89,0.89,0,0,0-.71-0.66c-0.85.05-.51,2.27-0.51,2.27A6.91,6.91,0,0,1,208.24,87.66Z"/><ellipse class="cls-4" cx="206.21" cy="91.2" rx="1.6" ry="1.98" transform="translate(-13.89 42.24) rotate(-11.32)"/><circle class="cls-3" cx="206.42" cy="90.44" r="0.43" transform="translate(-13.73 42.27) rotate(-11.32)"/><path class="cls-4" d="M202.87,98.59h-0.15a0.5,0.5,0,0,1-.48-0.52,0.51,0.51,0,0,1,.52-0.48c0.07,0,1.79.06,2-1.12a0.4,0.4,0,0,0-.07-0.4,2.6,2.6,0,0,0-1.77-.17,0.5,0.5,0,0,1-.58-0.39l-0.79-3.79a0.5,0.5,0,0,1,1-.2l0.69,3.34a2.84,2.84,0,0,1,2.17.5,1.38,1.38,0,0,1,.36,1.29C205.47,98.19,203.82,98.59,202.87,98.59Z"/><path class="cls-4" d="M194.5,93a0.5,0.5,0,0,1-.35-0.86,4.14,4.14,0,0,1,4.74-.48,0.5,0.5,0,1,1-.45.89,3.15,3.15,0,0,0-3.59.32A0.5,0.5,0,0,1,194.5,93Z"/><path class="cls-3" d="M204.72,102s-3.54,3.65-7.35-.87Z"/><path class="cls-5" d="M224,98.9l-5.51.06s-4.66-4.25-.4-10.1l4.3-1.05h0a7.73,7.73,0,0,1,2.47,4.85A15.4,15.4,0,0,1,224,98.9Z"/><path class="cls-4" d="M224,98.9a6.33,6.33,0,0,1-3.85-6.65,7,7,0,0,1,2.23-4.44h0a7.73,7.73,0,0,1,2.47,4.85A15.4,15.4,0,0,1,224,98.9Z"/><path class="cls-5" d="M222.25,89.15l44.08-9.84,1,15.06-44.57,2.75S219.5,92.87,222.25,89.15Z"/><path class="cls-5" d="M288.68,96.24s-10.6.52-18.22,0.83c-4.29.19-7.63,0.31-7.63,0.23s-9-10-1.79-21.47l7-1.59,18.29-4.18Z"/><path class="cls-4" d="M270.46,97.07c-4.29.19-7.63,0.31-7.63,0.23s-9-10-1.79-21.47l7-1.59C265.72,79,262.09,89.51,270.46,97.07Z"/><path class="cls-5" d="M323.16,96.6s-14.83.73-25.5,1.16c-6,.27-10.68.43-10.68,0.33,0-.28-12.65-14-2.5-30l9.75-2.23L319.82,60Z"/><path class="cls-4" d="M297.66,97.76c-6,.27-10.68.43-10.68,0.33,0-.28-12.65-14-2.5-30l9.75-2.23C291,72.42,286,87.18,297.66,97.76Z"/><path class="cls-4" d="M336.41,97.92l-12.58,1s-6.38-9.65-7-20.12,3.28-22.23,3.28-22.23l13.74-2.13a81,81,0,0,1,4,21.21A138.14,138.14,0,0,1,336.41,97.92Z"/><path class="cls-6" d="M336.41,97.92A55.09,55.09,0,0,1,330,76.66c-0.9-10.82,3.85-22.24,3.85-22.24s4.52,10.37,4.87,21.17A100.6,100.6,0,0,1,336.41,97.92Z"/><path class="cls-2" d="M240.54,80.51s-1.71,3.63-1.71,4.63,0.8,4.25,2.06,5.18a2.62,2.62,0,0,0,2.72.07,6.94,6.94,0,0,0,2.72.33,8.76,8.76,0,0,0,1.46-.73,5.75,5.75,0,0,0,2.39.13,4.87,4.87,0,0,0,1.59-.93,2.69,2.69,0,0,0,2,.47c0.8-.33,1.26-3.39,1.53-5.25s-0.33-4.85-.86-5.52-2.46-.2-2.46-0.2a4.12,4.12,0,0,0-4.45,0s-2.66-1.2-4.25.82A2.16,2.16,0,0,0,240.54,80.51Z"/><path class="cls-4" d="M242.42,80.83s-0.28.61-.57,1.37a8,8,0,0,0-.58,2.44,5.22,5.22,0,0,0,.28,1.42A32.6,32.6,0,0,0,243,89.62a0.5,0.5,0,0,0,.9-0.43l-0.26-.56c-0.23-.52-0.58-1.32-0.87-2.1-0.14-.39-0.27-0.78-0.36-1.11a3.34,3.34,0,0,1-.14-0.77,7.27,7.27,0,0,1,.52-2.1c0.13-.36.27-0.69,0.37-0.92l0.17-.37a0.5,0.5,0,1,0-.91-0.42h0Z"/><path class="cls-4" d="M246.35,80.33s-0.28.61-.57,1.37a8,8,0,0,0-.58,2.44,5.22,5.22,0,0,0,.28,1.42,32.6,32.6,0,0,0,1.44,3.56,0.5,0.5,0,0,0,.9-0.43l-0.26-.56c-0.23-.52-0.58-1.32-0.87-2.1-0.14-.39-0.27-0.78-0.36-1.11a3.34,3.34,0,0,1-.14-0.77,7.27,7.27,0,0,1,.52-2.1c0.13-.36.27-0.69,0.37-0.92l0.17-.37a0.5,0.5,0,1,0-.91-0.42h0Z"/><path class="cls-4" d="M251,79.83s-0.31.59-.62,1.35a8,8,0,0,0-.68,2.42A5.22,5.22,0,0,0,249.9,85a32.6,32.6,0,0,0,1.3,3.61,0.5,0.5,0,0,0,.92-0.4l-0.24-.57c-0.21-.53-0.53-1.34-0.79-2.14-0.13-.4-0.24-0.79-0.32-1.12a3.34,3.34,0,0,1-.11-0.78,7.27,7.27,0,0,1,.6-2.08c0.15-.36.29-0.68,0.4-0.91l0.18-.37a0.5,0.5,0,1,0-.89-0.46h0Z"/><path class="cls-2" d="M241.25,86.58a49.85,49.85,0,0,0-4.52,6.51c-0.44,1,4.92,5.67,6.69,6.56a39.9,39.9,0,0,0,4.3,1.73s3.59-1.73,3.59-5.23-8.77-4.52-8.77-4.52S244.22,85.21,241.25,86.58Z"/><path class="cls-6" d="M122.46,54.5c-7,0,2.4-16.15,12.5-9.76,0,0-.18-8.85,7.44-9.56s11.08,6.53,11.12,9.56a16.66,16.66,0,0,1,7.51.45c5,1.77,3.66,9.3-1.68,9.3H122.46Z"/><path class="cls-6" d="M363.12,134.39c-7,0,2.4-16.15,12.5-9.76,0,0-.18-8.85,7.44-9.56s11.08,6.53,11.12,9.56a16.66,16.66,0,0,1,7.51.45c5,1.77,3.66,9.3-1.68,9.3H363.12Z"/><circle class="cls-5" cx="260.83" cy="184.23" r="3.99"/><circle class="cls-5" cx="308.55" cy="292.55" r="2.26"/><circle class="cls-5" cx="403.32" cy="186.09" r="3.72"/><circle class="cls-5" cx="160.09" cy="84.54" r="3.72"/><circle class="cls-5" cx="230.53" cy="54.5" r="5.05"/><path class="cls-5" d="M375.23,273.65a0.5,0.5,0,0,1-.5-0.5v-4.48a0.5,0.5,0,0,1,1,0v4.48A0.5,0.5,0,0,1,375.23,273.65Z"/><path class="cls-5" d="M382.76,276.7h-4.48a0.5,0.5,0,0,1,0-1h4.48A0.5,0.5,0,0,1,382.76,276.7Z"/><path class="cls-5" d="M375.23,284.23a0.5,0.5,0,0,1-.5-0.5v-4.48a0.5,0.5,0,0,1,1,0v4.48A0.5,0.5,0,0,1,375.23,284.23Z"/><path class="cls-5" d="M372.18,276.7H367.7a0.5,0.5,0,0,1,0-1h4.48A0.5,0.5,0,0,1,372.18,276.7Z"/><path class="cls-5" d="M255.39,208.72a0.5,0.5,0,0,1-.5-0.5v-4.48a0.5,0.5,0,0,1,1,0v4.48A0.5,0.5,0,0,1,255.39,208.72Z"/><path class="cls-5" d="M262.92,211.77h-4.48a0.5,0.5,0,0,1,0-1h4.48A0.5,0.5,0,0,1,262.92,211.77Z"/><path class="cls-5" d="M255.39,219.31a0.5,0.5,0,0,1-.5-0.5v-4.48a0.5,0.5,0,0,1,1,0v4.48A0.5,0.5,0,0,1,255.39,219.31Z"/><path class="cls-5" d="M252.33,211.77h-4.48a0.5,0.5,0,0,1,0-1h4.48A0.5,0.5,0,0,1,252.33,211.77Z"/><path class="cls-5" d="M130.76,108.17a0.5,0.5,0,0,1-.5-0.5v-4.48a0.5,0.5,0,0,1,1,0v4.48A0.5,0.5,0,0,1,130.76,108.17Z"/><path class="cls-5" d="M138.29,111.22h-4.48a0.5,0.5,0,0,1,0-1h4.48A0.5,0.5,0,0,1,138.29,111.22Z"/><path class="cls-5" d="M130.76,118.75a0.5,0.5,0,0,1-.5-0.5v-4.48a0.5,0.5,0,0,1,1,0v4.48A0.5,0.5,0,0,1,130.76,118.75Z"/><path class="cls-5" d="M127.71,111.22h-4.48a0.5,0.5,0,0,1,0-1h4.48A0.5,0.5,0,1,1,127.71,111.22Z"/><path class="cls-5" d="M293.53,124.95l30.17,0.66a7,7,0,0,0,5.72-.4l23.66-7.71-6.38,55.56L324.1,185.82s-0.93,3.19-6.25,2.39l-33.36,12.36Z"/><polygon class="cls-6" points="285.42 126.28 293.53 124.95 284.49 200.57 276.78 199.64 285.42 126.28"/><path class="cls-4" d="M324.22,184.11h0a0.5,0.5,0,0,1-.45-0.54l5.08-57.06a0.51,0.51,0,0,1,.54-0.45,0.5,0.5,0,0,1,.45.54l-5.08,57.06A0.5,0.5,0,0,1,324.22,184.11Z"/><path class="cls-4" d="M318.06,186h0a0.5,0.5,0,0,1-.45-0.55l5.69-57.89a0.51,0.51,0,0,1,.55-0.45,0.5,0.5,0,0,1,.45.55l-5.69,57.89A0.5,0.5,0,0,1,318.06,186Z"/><polygon class="cls-6" points="333.94 134.92 332.74 149 345.43 144.35 347.09 130.8 333.94 134.92"/><path class="cls-4" d="M332.61,161.47a0.5,0.5,0,0,1-.19-1l10.5-4.32a0.5,0.5,0,0,1,.38.92l-10.5,4.32A0.5,0.5,0,0,1,332.61,161.47Z"/><rect class="cls-6" x="330.92" y="186.43" width="59.54" height="43.59" rx="2.83" ry="2.83"/><rect class="cls-5" x="359.97" y="200.63" width="22.47" height="3.59" rx="1.69" ry="1.69"/><rect class="cls-5" x="359.97" y="210.26" width="22.47" height="3.59" rx="1.69" ry="1.69"/><rect class="cls-5" x="368.02" y="219.9" width="14.42" height="3.59" rx="1.69" ry="1.69"/><circle class="cls-5" cx="365.1" cy="193.78" r="1.66"/><circle class="cls-5" cx="372.94" cy="193.78" r="1.66"/><circle class="cls-5" cx="380.78" cy="193.78" r="1.66"/><path class="cls-5" d="M309.12,195a0.5,0.5,0,0,1-.45-0.73c0.44-.86.73-1.34,0.73-1.34a0.5,0.5,0,0,1,.86.51s-0.28.47-.7,1.29A0.5,0.5,0,0,1,309.12,195Z"/><path class="cls-5" d="M347.29,249.18q-0.81,0-1.62-.06a0.5,0.5,0,0,1-.46-0.53,0.51,0.51,0,0,1,.53-0.46,22.58,22.58,0,0,0,2.91,0,0.5,0.5,0,0,1,.06,1Q348,249.18,347.29,249.18Zm4.35-.42a0.5,0.5,0,0,1-.1-1c0.56-.11,1.12-0.25,1.67-0.4l1.16-.35a0.5,0.5,0,0,1,.31,1l-1.19.36c-0.57.16-1.16,0.31-1.75,0.42h-0.1Zm-8.89,0h-0.1a24.76,24.76,0,0,1-2.94-.77,0.5,0.5,0,0,1,.31-1,23.69,23.69,0,0,0,2.82.74A0.5,0.5,0,0,1,342.75,248.74ZM357.3,247a0.5,0.5,0,0,1-.2-1c0.91-.39,1.8-0.82,2.63-1.28a0.5,0.5,0,1,1,.48.88,30.1,30.1,0,0,1-2.73,1.32A0.49,0.49,0,0,1,357.3,247Zm-20.21-.07a0.5,0.5,0,0,1-.21,0,23.1,23.1,0,0,1-2.66-1.49,0.5,0.5,0,0,1,.54-0.84,21.93,21.93,0,0,0,2.54,1.42A0.5,0.5,0,0,1,337.1,246.88Zm25.42-2.8a0.5,0.5,0,0,1-.29-0.91,25.07,25.07,0,0,0,2.29-1.81,0.5,0.5,0,1,1,.67.75A25.88,25.88,0,0,1,362.8,244,0.5,0.5,0,0,1,362.52,244.08Zm-30.39-.45a0.5,0.5,0,0,1-.33-0.12,19.34,19.34,0,0,1-2.13-2.19,0.5,0.5,0,1,1,.77-0.64,18.29,18.29,0,0,0,2,2.08A0.5,0.5,0,0,1,332.12,243.63Zm34.82-3.52a0.5,0.5,0,0,1-.38-0.83,23.79,23.79,0,0,0,1.78-2.31,0.5,0.5,0,1,1,.83.56,24.87,24.87,0,0,1-1.86,2.41A0.5,0.5,0,0,1,366.94,240.11ZM328.35,239a0.5,0.5,0,0,1-.44-0.25,15.9,15.9,0,0,1-1.25-2.81,0.5,0.5,0,0,1,.95-0.31,14.88,14.88,0,0,0,1.17,2.63A0.5,0.5,0,0,1,328.35,239Zm-1.85-5.62A0.5,0.5,0,0,1,326,233a15.41,15.41,0,0,1-.1-1.77V231.1q0-.61,0-1.18a0.39,0.39,0,0,0,.22-0.71,0.5,0.5,0,0,1,.36-0.61,17.18,17.18,0,0,0,2.73-1,0.5,0.5,0,0,1,.41.91,18.24,18.24,0,0,1-2.89,1h0a0.5,0.5,0,0,1,.17.41c0,0.36,0,.74,0,1.13l-0.5.11h0.5a14.27,14.27,0,0,0,.1,1.65,0.5,0.5,0,0,1-.44.55H326.5Zm-4.93-3.19-0.86,0a0.5,0.5,0,0,1-.48-0.52,0.49,0.49,0,0,1,.52-0.48l0.84,0a19.31,19.31,0,0,0,2.06-.11,0.5,0.5,0,0,1,.11,1C323,230.19,322.28,230.22,321.57,230.23Zm-3.79-.39h-0.1a16.92,16.92,0,0,1-2.93-.91,0.5,0.5,0,1,1,.38-0.92,15.94,15.94,0,0,0,2.76.85A0.5,0.5,0,0,1,317.78,229.83Zm-5.47-2.28a0.5,0.5,0,0,1-.28-0.08,15.55,15.55,0,0,1-2.38-1.95,0.5,0.5,0,1,1,.71-0.71,14.66,14.66,0,0,0,2.23,1.82A0.5,0.5,0,0,1,312.31,227.56Zm14.54-.06h-0.11a0.5,0.5,0,0,1-.37-0.6,11.31,11.31,0,0,1,1.08-2.92,0.5,0.5,0,0,1,.88.49,10.26,10.26,0,0,0-1,2.66A0.5,0.5,0,0,1,326.85,227.5Zm5.17-.43a0.5,0.5,0,0,1-.31-0.89,4.51,4.51,0,0,0,1.42-1.73,3.23,3.23,0,0,0,.12-0.38,0.5,0.5,0,1,1,1,.25,4.24,4.24,0,0,1-.16.5,5.41,5.41,0,0,1-1.72,2.14A0.5,0.5,0,0,1,332,227.07Zm-23.91-3.68a0.5,0.5,0,0,1-.41-0.21,18.7,18.7,0,0,1-1.54-2.64,0.5,0.5,0,0,1,.9-0.43,17.7,17.7,0,0,0,1.46,2.5A0.5,0.5,0,0,1,308.1,223.39Zm21.75-.87a0.5,0.5,0,0,1-.27-0.92,3.55,3.55,0,0,1,3.31-.38,0.5,0.5,0,0,1-.42.91,2.56,2.56,0,0,0-2.36.32A0.5,0.5,0,0,1,329.85,222.52ZM305.54,218a0.5,0.5,0,0,1-.48-0.36,21.2,21.2,0,0,1-.64-3,0.5,0.5,0,1,1,1-.14,20.2,20.2,0,0,0,.61,2.84,0.5,0.5,0,0,1-.34.62Zm-0.85-5.88a0.5,0.5,0,0,1-.5-0.49v-0.37c0-.86,0-1.76.13-2.66a0.51,0.51,0,0,1,.54-0.45,0.5,0.5,0,0,1,.45.54c-0.08.87-.12,1.73-0.12,2.56v0.36a0.5,0.5,0,0,1-.49.51h0Zm0.54-5.93h-0.09a0.5,0.5,0,0,1-.4-0.58c0.18-1,.41-1.95.68-2.94a0.5,0.5,0,0,1,1,.26c-0.26,1-.49,1.93-0.66,2.87A0.5,0.5,0,0,1,305.23,206.22Zm1.56-5.75a0.5,0.5,0,0,1-.47-0.67c0.33-.94.7-1.88,1.09-2.81a0.5,0.5,0,0,1,.92.39c-0.39.91-.75,1.83-1.07,2.75A0.5,0.5,0,0,1,306.79,200.47Z"/><path class="cls-5" d="M370.33,235.08a0.5,0.5,0,0,1-.45-0.73c0.26-.51.47-1,0.64-1.33a0.5,0.5,0,1,1,.91.41c-0.17.38-.38,0.84-0.65,1.37A0.5,0.5,0,0,1,370.33,235.08Z"/><path class="cls-5" d="M369,232.58l4,1.55a0.56,0.56,0,0,0,.76-0.58l-0.5-4.78a0.56,0.56,0,0,0-.94-0.35l-3.48,3.23A0.56,0.56,0,0,0,369,232.58Z"/></svg>