<?xml version="1.0" encoding="UTF-8" standalone="no"?>
<!-- Generator: Adobe Illustrator 21.1.0, SVG Export Plug-In . SVG Version: 6.00 Build 0)  -->

<svg
   version="1.1"
   id="Layer_1"
   x="0px"
   y="0px"
   viewBox="0 0 200 99.999999"
   xml:space="preserve"
   sodipodi:docname="corptrade.svg"
   width="200"
   height="100"
   inkscape:version="1.1.2 (b8e25be833, 2022-02-05)"
   xmlns:inkscape="http://www.inkscape.org/namespaces/inkscape"
   xmlns:sodipodi="http://sodipodi.sourceforge.net/DTD/sodipodi-0.dtd"
   xmlns="http://www.w3.org/2000/svg"
   xmlns:svg="http://www.w3.org/2000/svg"><defs
   id="defs71" /><sodipodi:namedview
   id="namedview69"
   pagecolor="#ffffff"
   bordercolor="#666666"
   borderopacity="1.0"
   inkscape:pageshadow="2"
   inkscape:pageopacity="0.0"
   inkscape:pagecheckerboard="0"
   showgrid="false"
   width="200px"
   inkscape:zoom="0.93306286"
   inkscape:cx="566.41414"
   inkscape:cy="113.60435"
   inkscape:window-width="1920"
   inkscape:window-height="1027"
   inkscape:window-x="-8"
   inkscape:window-y="-8"
   inkscape:window-maximized="1"
   inkscape:current-layer="Layer_1" />
<style
   type="text/css"
   id="style2">
	.st0{fill:url(#SVGID_1_);}
	.st1{fill:url(#SVGID_2_);}
	.st2{fill:url(#SVGID_3_);}
	.st3{fill:url(#SVGID_4_);}
</style>


<linearGradient
   id="SVGID_3_"
   gradientUnits="userSpaceOnUse"
   x1="963.49048"
   y1="65.060501"
   x2="1102.1549"
   y2="53.724602"
   gradientTransform="matrix(1,-0.00569704,0.00569704,1,1.0073,7.6557)">
	<stop
   offset="0"
   style="stop-color:#FF783C"
   id="stop44" />
	<stop
   offset="0.9996"
   style="stop-color:#FFD2C8"
   id="stop46" />
</linearGradient>

<linearGradient
   id="SVGID_4_"
   gradientUnits="userSpaceOnUse"
   x1="963.1806"
   y1="-490.2681"
   x2="1112.7905"
   y2="-476.31961"
   gradientTransform="matrix(1,0.00569704,0.00569704,-1,1.0073,-333.3985)">
	<stop
   offset="0"
   style="stop-color:#001E32"
   id="stop51" />
	<stop
   offset="7.841760e-02"
   style="stop-color:#0E2F44"
   id="stop53" />
	<stop
   offset="0.2769"
   style="stop-color:#2D536C"
   id="stop55" />
	<stop
   offset="0.4723"
   style="stop-color:#45718B"
   id="stop57" />
	<stop
   offset="0.661"
   style="stop-color:#5685A2"
   id="stop59" />
	<stop
   offset="0.8403"
   style="stop-color:#6092AF"
   id="stop61" />
	<stop
   offset="1"
   style="stop-color:#6496B4"
   id="stop63" />
</linearGradient>
<g
   id="g96"
   transform="matrix(0.18497965,0,0,0.18497965,-4.9944493,29.060304)"><g
     id="g22">
	<path
   d="m 80.8,59.7 c -30.7,0 -53.8,23 -53.8,53.5 0,30.6 23.1,53.7 53.8,53.7 18.4,0 33.2,-7.6 42.9,-21.9 l -14.9,-10.3 c -5,7.2 -12.7,15.2 -28,15.2 -19.6,0 -33.9,-15.5 -33.9,-36.7 0,-21.4 13.9,-36.4 33.9,-36.4 11.2,0 20.5,4.8 26.4,13.5 L 121.8,79.9 C 112.5,66.1 99.4,59.7 80.8,59.7 Z"
   id="path4" />
	<path
   d="m 189.2,59.5 c -30.9,0 -54.1,23.1 -54.1,53.7 0,30.6 23.3,53.7 54.1,53.7 30.9,0 54.2,-23.1 54.2,-53.7 0,-30.6 -23.3,-53.7 -54.2,-53.7 z m 0,90.4 c -19.8,0 -34.2,-15.5 -34.2,-36.7 0,-21.2 14.4,-36.7 34.2,-36.7 19.8,0 34.2,15.5 34.2,36.7 0,21.2 -14.4,36.7 -34.2,36.7 z"
   id="path6" />
	<polygon
   points="445.4,60.5 445.4,77.1 476,77.1 476,165.5 495.3,165.5 495.3,77.1 525.9,77.1 525.9,60.5 "
   id="polygon8" />
	<path
   d="m 770.9,61 h -31.6 v 104.5 h 31.6 C 803.3,165.5 826,144 826,113.2 825.9,82.4 803.3,61 770.9,61 Z m -1.2,87.8 H 758.5 V 77.6 h 11.2 c 22.9,0 36.1,13 36.1,35.6 0.1,22.7 -13.1,35.6 -36.1,35.6 z"
   id="path10" />
	<polygon
   points="900.8,104.9 862.7,104.9 862.7,77.2 913.9,77.2 913.9,60.5 843.4,60.5 843.4,165.5 913.9,165.5 913.9,148.8 862.7,148.8 862.7,121.2 900.8,121.2 "
   id="polygon12" />
	<path
   d="m 434.2,98.1 c 0,-24.2 -16.5,-37.6 -46.6,-37.6 h -28.3 v 105 h 19.3 v -29.8 h 9 c 30,0 46.6,-13.4 46.6,-37.6 z M 378.6,119 V 77.1 h 8.3 c 18.9,0 27.3,6.5 27.3,21 0,14.7 -8.2,21 -27.3,21 h -8.3 z"
   id="path14" />
	<path
   d="m 577.1,135.4 19.6,30.1 H 619 l -22.5,-33.9 c 14.8,-5.7 22.1,-17.3 22.1,-33.5 0,-24.2 -16.5,-37.6 -46.6,-37.6 h -28.3 v 105 H 563 v -29.8 c 0,0 10.8,0.1 14.1,-0.3 z M 563,119 V 77.1 h 8.3 c 18.9,0 27.3,6.5 27.3,21 0,14.7 -8.2,21 -27.3,21 H 563 Z"
   id="path16" />
	<path
   d="m 294.6,135.4 19.6,30.1 h 22.2 L 313.9,131.6 C 328.7,125.9 336,114.3 336,98.1 336,73.9 319.5,60.5 289.4,60.5 h -28.3 v 105 h 19.3 v -29.8 c 0.1,0 10.8,0.1 14.2,-0.3 z M 280.5,119 V 77.1 h 8.3 c 18.9,0 27.3,6.5 27.3,21 0,14.7 -8.2,21 -27.3,21 h -8.3 z"
   id="path18" />
	<path
   d="m 705,165.5 h 19.4 L 683.9,60 h -5.3 -5.3 l -40.5,105.5 h 19.4 l 6.5,-18.1 h 39.9 z m -40.7,-33.9 14.2,-39.5 14.2,39.5 z"
   id="path20" />
</g><g
     id="g42">
	<linearGradient
   id="SVGID_1_"
   gradientUnits="userSpaceOnUse"
   x1="1026.8663"
   y1="113.2205"
   x2="1108.1807"
   y2="113.2205">
		<stop
   offset="0"
   style="stop-color:#001E32"
   id="stop24" />
		<stop
   offset="0.8758"
   style="stop-color:#6496B4"
   id="stop26" />
	</linearGradient>
	<path
   class="st0"
   d="m 1093,103 c -20.1,-10.8 -43.9,-13.5 -66.1,-7.1 5.6,3.7 9.3,10.1 9.3,17.3 0,7.2 -3.7,13.6 -9.3,17.4 22.2,6.4 46,3.7 66.1,-7.1 l 15.2,-10.2 z"
   id="path29"
   style="fill:url(#SVGID_1_)" />
	<linearGradient
   id="SVGID_2_"
   gradientUnits="userSpaceOnUse"
   x1="994.63702"
   y1="113.2082"
   x2="994.63702"
   y2="113.2082">
		<stop
   offset="0"
   style="stop-color:#001E32"
   id="stop31" />
		<stop
   offset="0.1802"
   style="stop-color:#113248"
   id="stop33" />
		<stop
   offset="0.5522"
   style="stop-color:#3B657F"
   id="stop35" />
		<stop
   offset="0.8758"
   style="stop-color:#6496B4"
   id="stop37" />
	</linearGradient>
	<polygon
   class="st1"
   points=""
   id="polygon40"
   style="fill:url(#SVGID_2_)" />
</g><path
     class="st2"
     d="M 1093,103 967.7,18.4 c -11.1,33.6 -0.9,71.4 26.9,94.8 2.4,-2 4.8,-3.9 7.5,-5.7 28,-18.9 63,-19.5 90.9,-4.5 z"
     id="path49"
     style="fill:url(#SVGID_3_)" /><path
     class="st3"
     d="m 1002.1,118.9 c -2.6,-1.8 -5.1,-3.7 -7.5,-5.7 -27.8,23.4 -38,61.2 -26.9,94.8 L 1093,123.4 c -27.9,15 -62.9,14.4 -90.9,-4.5 z"
     id="path66"
     style="fill:url(#SVGID_4_)" /></g>
</svg>
