<?xml version="1.0" encoding="UTF-8" standalone="no"?>
<svg
   width="200"
   height="100"
   viewBox="0 0 200 100"
   fill="none"
   version="1.1"
   id="svg13"
   sodipodi:docname="daimler.svg"
   inkscape:version="1.1.2 (b8e25be833, 2022-02-05)"
   xmlns:inkscape="http://www.inkscape.org/namespaces/inkscape"
   xmlns:sodipodi="http://sodipodi.sourceforge.net/DTD/sodipodi-0.dtd"
   xmlns="http://www.w3.org/2000/svg"
   xmlns:svg="http://www.w3.org/2000/svg">
  <sodipodi:namedview
     id="namedview15"
     pagecolor="#ffffff"
     bordercolor="#666666"
     borderopacity="1.0"
     inkscape:pageshadow="2"
     inkscape:pageopacity="0.0"
     inkscape:pagecheckerboard="0"
     showgrid="false"
     height="100px"
     inkscape:zoom="2.645"
     inkscape:cx="36.483932"
     inkscape:cy="53.308129"
     inkscape:window-width="1920"
     inkscape:window-height="1027"
     inkscape:window-x="-8"
     inkscape:window-y="-8"
     inkscape:window-maximized="1"
     inkscape:current-layer="svg13" />
  <g
     clip-path="url(#clip0)"
     id="g6"
     transform="matrix(1.2124931,0,0,1.2124931,-4.7765168,-7.7224438)" />
  <defs
     id="defs11">
    <clipPath
       id="clip0">
      <rect
         width="153"
         height="19"
         fill="#ffffff"
         transform="translate(24,53)"
         id="rect8"
         x="0"
         y="0" />
    </clipPath>
  </defs>
  <path
     d="m 12.789107,38.462707 c -4.80705,0 -4.938,0.293908 -4.704838,1.700764 h 1.601704 c 1.501673,0 1.835957,0.198242 1.835957,1.472209 v 15.444858 c 0,2.192551 -0.634134,2.422561 -4.205169,2.618622 -0.107062,0.42522 -0.107062,0.94926 0,1.275542 h 12.541543 c 9.542927,0 13.481589,-4.517143 13.481589,-11.257513 0,-7.001783 -4.176552,-11.257392 -13.790895,-11.257392 z m 2.903314,18.390731 V 40.393239 h 3.438873 c 6.408753,0 9.745292,3.66282 9.745292,9.948262 0,7.045919 -3.63748,8.842348 -9.344321,8.842348 -3.105559,0 -3.83851,-0.326524 -3.83851,-2.321317 z m 32.44498,-18.162055 c -1.570663,0 -2.002675,0.525009 -3.10568,3.044691 l -6.60748,15.34701 c -0.902095,2.090217 -1.201945,2.286156 -3.772066,2.615227 -0.100035,0.425099 -0.100035,0.949261 0,1.275542 h 9.546564 c 0.832982,0 1.067358,-0.524888 0.832982,-1.472451 h -2.867667 c -1.837169,0 -1.837169,-0.489968 -1.070873,-2.421713 l 1.36842,-3.569701 h 8.612337 l 2.102585,4.942364 c 0.36884,0.851292 0,1.145321 -3.637479,1.243291 -0.101123,0.431284 -0.101123,0.956293 0,1.282576 h 10.81374 c 0.86863,0 1.070874,-0.524889 0.86863,-1.469785 h -0.761567 c -1.701491,0 -2.070453,-0.292211 -2.439293,-1.143502 L 50.310068,41.122917 c -0.535437,-1.143503 -0.761446,-1.692034 -0.868631,-2.41468 z m -1.469541,4.514597 3.639298,8.511095 h -7.11006 z m 18.191033,-4.087678 c -1.401642,0 -1.601582,0.620311 -1.401642,1.469905 h 1.602794 c 1.534896,0 1.834745,0.198122 1.834745,1.37618 v 15.640918 c 0,1.341623 -0.6425,1.66827 -3.307923,2.093975 -0.142711,0.426071 -0.142711,0.950231 0,1.276513 h 10.138018 c 0.999458,0 1.094639,-0.524888 0.868508,-1.471603 h -1.796672 c -1.404066,0 -1.73726,-0.229161 -1.73726,-1.373633 V 42.585062 c 0,-1.37424 0.428374,-1.994793 3.331689,-2.193157 0.09518,-0.326645 0.09518,-0.979937 0,-1.275058 z m 40.087447,0 -7.710359,15.738888 -8.379428,-15.740343 h -6.740731 c -1.392184,0 -1.594429,0.711612 -1.392184,1.469905 3.307923,0.09324 3.510288,0.454928 3.403225,1.504825 l -1.36854,15.37514 c -0.09506,1.376543 -0.404489,2.029834 -4.06937,2.228078 -0.09518,0.419885 -0.09518,0.85129 0,1.271177 h 10.947116 c 0.94005,0 1.070878,-0.524888 0.832984,-1.469784 h -1.796796 c -3.533933,0 -3.533933,-0.327253 -3.438873,-1.609827 L 86.304377,43.187793 95.526111,61.0483 c 0.76145,0 1.03523,-0.198364 1.64208,-1.376664 l 8.015799,-16.494878 1.49985,14.2668 c 0.16612,1.597582 -0.29949,1.959874 -3.10276,2.122591 l -1.80299,0.09275 c -0.13094,0.419887 -0.13094,0.841592 0,1.271177 h 11.77938 c 0.93725,0 1.03546,-0.524888 0.93725,-1.469784 -2.57049,-0.327251 -3.1064,-0.420007 -3.20583,-1.469905 l -1.60656,-15.969746 c -0.0982,-0.944896 0.10311,-1.469905 3.20099,-1.668512 0.14064,-0.419885 0.14064,-0.852139 0,-1.272147 z m 15.95398,0 c -1.40163,0 -1.6017,0.620311 -1.40163,1.469905 h 1.60048 c 1.40407,0 1.83693,0.198122 1.83693,1.37618 v 14.986414 c 0,2.126834 -0.73477,2.55254 -3.97212,2.748479 -0.10792,0.426071 -0.0716,0.849595 0,1.276513 h 16.27771 c 0.42801,-2.029834 1.03547,-3.926659 1.73629,-5.890776 0.34435,-0.975572 -0.0958,-1.376301 -0.99909,-1.376301 l -0.10792,0.0035 -0.93968,2.028138 c -1.40528,2.945752 -1.7375,3.110286 -4.2122,3.110286 h -2.14248 c -0.94089,0 -1.51197,-0.294878 -1.51197,-1.3763 V 43.011132 c 0,-2.126712 0.66687,-2.421833 4.16977,-2.618985 0.0946,-0.326646 0.0946,-0.979936 0,-1.275058 z m 21.62845,0 c -1.46832,0 -1.6017,0.620311 -1.46832,1.469905 h 1.59442 c 1.49986,0 1.79692,0.198122 1.79692,1.37618 v 15.118576 c 0,2.190732 -0.64262,2.4205 -4.17583,2.616438 -0.13095,0.425828 -0.13095,0.849231 0,1.276271 h 18.41899 c 0.42801,-2.029835 1.07062,-4.024628 1.7375,-5.891747 0.3213,-0.944896 -0.1067,-1.377028 -0.9991,-1.377028 l -0.1079,0.0034 -0.93969,2.027167 c -1.40407,2.945024 -1.73629,3.10956 -4.2122,3.10956 h -2.86755 c -2.27221,0 -2.57049,-0.489968 -2.57049,-1.668512 v -5.760433 h 3.5029 c 0.86815,0 1.30221,0.294878 1.7375,2.846085 0.17218,0.077 0.37587,0.111064 0.57472,0.111064 0.22068,0 0.43529,-0.03491 0.59412,-0.104882 -0.097,-2.123439 -0.097,-4.386922 0,-6.43943 0.0678,-1.014856 -0.29706,-1.237107 -0.96272,-1.237107 h -0.40133 l -0.22553,1.668027 c -0.10427,0.851776 -0.30433,1.178543 -1.30464,1.178543 h -3.50531 v -8.408275 h 5.34346 c 1.8345,0 2.5341,0.524888 3.10155,2.519681 l 0.44014,1.469905 c 0.0837,0.01176 0.1552,0.01176 0.22916,0.01176 0.89239,0 1.22704,-0.548289 1.07184,-1.481546 -0.23037,-1.399823 -0.42923,-2.939689 -0.52986,-4.409594 z m 23.89825,-0.09943 c -1.36891,0.09797 -1.60293,0.719736 -1.36891,1.570057 h 1.6017 c 1.36891,0 1.83814,0.198244 1.83814,1.481425 v 15.118575 c 0,1.994795 -0.66808,2.321319 -3.57321,2.519682 -0.10066,0.431527 -0.0667,0.921495 0,1.283181 h 10.51473 c 0.96879,0 1.06821,-0.524887 0.96879,-1.469783 h -1.70113 c -1.7363,0 -2.03699,-0.326889 -2.03699,-1.271663 v -4.805837 h 2.23827 c 2.03456,0 2.10246,0.104882 2.93665,1.574785 0.86814,1.504825 2.06973,2.823049 3.17188,3.767943 2.46985,2.099796 4.50563,2.752966 7.60961,2.752966 3.54532,0 4.37952,-0.851534 4.08125,-1.994793 -2.90271,0 -4.36619,-0.291605 -8.76875,-3.767943 -1.2622,-1.014857 -3.77328,-3.266336 -3.77328,-3.266336 2.77297,-1.14326 4.51048,-3.371458 4.51048,-6.112783 0,-4.479556 -3.53443,-7.454287 -9.94729,-7.454287 -4.66447,0 -6.67599,0 -8.27043,0.128282 z m 6.27828,1.819952 h 1.14096 c 3.77207,0 6.43712,1.377029 6.43712,5.790988 0,4.413961 -2.66748,4.942364 -5.97274,4.942364 h -1.60291 z"
     fill="#656868"
     id="path4"
     style="stroke-width:1.2125" />
</svg>
