<?xml version="1.0" encoding="UTF-8" standalone="no"?>
<svg
   width="200"
   height="100"
   viewBox="0 0 200 100"
   version="1.1"
   id="svg4"
   sodipodi:docname="fitabase.svg"
   inkscape:version="1.1.2 (b8e25be833, 2022-02-05)"
   xmlns:inkscape="http://www.inkscape.org/namespaces/inkscape"
   xmlns:sodipodi="http://sodipodi.sourceforge.net/DTD/sodipodi-0.dtd"
   xmlns="http://www.w3.org/2000/svg"
   xmlns:svg="http://www.w3.org/2000/svg">
  <defs
     id="defs8" />
  <sodipodi:namedview
     id="namedview6"
     pagecolor="#ffffff"
     bordercolor="#666666"
     borderopacity="1.0"
     inkscape:pageshadow="2"
     inkscape:pageopacity="0.0"
     inkscape:pagecheckerboard="0"
     showgrid="false"
     width="200px"
     inkscape:zoom="2.2415254"
     inkscape:cx="-15.837429"
     inkscape:cy="-5.7996219"
     inkscape:window-width="1920"
     inkscape:window-height="1027"
     inkscape:window-x="-8"
     inkscape:window-y="-8"
     inkscape:window-maximized="1"
     inkscape:current-layer="svg4" />
  <path
     fill="#465279"
     d="m 22.296119,30.706208 c -1.336928,0 -1.981278,0.64242 -1.981278,1.929189 v 3.316276 c 0,1.284841 0.594191,1.929189 1.782572,1.929189 h 4.846123 c 1.238539,0 1.880959,-0.646278 1.880959,-1.929189 v -3.316276 c 0,-1.286769 -0.64242,-1.929189 -1.880959,-1.929189 z M 8.6413185,30.955073 c -4.2557912,0 -6.8235418,2.426921 -6.8235418,6.827401 V 69.289992 H 10.427747 V 48.367935 H 16.60694 V 41.247298 H 10.427747 V 39.9586 c 0,-1.334999 0.642421,-1.977419 1.973561,-1.977419 h 5.640949 v -7.024178 z m 73.0082345,0.742738 v 37.592181 0.0038 h 19.386417 c 4.60497,0 6.92965,-2.176124 6.92965,-6.582393 V 47.081166 c 0,-4.550958 -2.27644,-6.8274 -6.77917,-6.8274 H 90.207436 v -8.557884 z m -48.426506,0.493872 v 30.720409 c 0,4.251933 2.372902,6.379829 7.072407,6.379829 h 8.164329 v -8.554025 h -5.388226 c -0.843055,0 -1.288698,-0.54789 -1.288698,-1.684182 V 48.367935 h 6.725154 v -7.815146 h -6.725154 v -8.361106 z m -12.908206,8.064011 v 29.036227 h 8.557884 V 40.255694 Z m 32.049621,0 v 8.112241 H 67.45458 c 0.989674,0 1.485475,0.491944 1.485475,1.485476 v 2.174196 c -0.447572,-0.196778 -0.993532,-0.343396 -1.635953,-0.343396 h -9.744334 c -4.205632,0 -6.329669,2.220497 -6.329669,6.721295 v 4.302092 c 0,4.406268 2.122107,6.582394 6.329669,6.582394 h 13.259317 c 4.454498,0 6.676924,-2.276444 6.676924,-6.827401 V 47.077307 c 0,-4.550957 -2.324673,-6.823541 -6.925789,-6.823541 z m 60.397118,0 v 8.112241 h 15.08626 c 0.98774,0 1.48548,0.491944 1.48548,1.485476 v 2.174196 c -0.44758,-0.196778 -0.98775,-0.343396 -1.63209,-0.343396 h -9.7482 c -4.20563,0 -6.32967,2.220497 -6.32967,6.721295 v 4.302092 c 0,4.406268 2.12597,6.582394 6.32967,6.582394 h 13.26318 c 4.45063,0 6.67692,-2.276444 6.67692,-6.827401 V 47.077307 c 0,-4.550957 -2.32853,-6.823541 -6.92964,-6.823541 z m 35.76138,0 c -4.50079,0 -6.72515,2.278373 -6.72515,6.779171 v 4.400481 c 0,4.356109 1.38322,6.32967 5.8821,6.32967 h 10.83239 c 0.54404,0 0.84113,0.248865 0.84113,0.790967 v 1.732412 c 0,0.592261 -0.29709,0.889356 -0.84113,0.889356 h -16.3711 v 8.112241 h 19.73561 c 4.10725,0 6.13482,-2.276444 6.13482,-6.827401 v -4.498869 c 0,-4.155474 -2.02757,-6.231281 -6.13482,-6.231281 h -10.88255 c -0.54404,0 -0.84114,-0.248865 -0.84114,-0.794826 v -1.728554 c 0,-0.590332 0.2971,-0.889356 0.84114,-0.889356 h 16.22447 v -8.064011 z m 30.06835,0 c -4.45065,0 -6.67693,2.276444 -6.67693,6.827401 v 15.385284 c 0,4.550957 2.33046,6.823542 6.92965,6.823542 h 18.10158 V 61.17968 h -14.98594 c -0.99547,0 -1.4874,-0.493872 -1.4874,-1.485476 v -2.178053 c 0.44371,0.248865 0.98967,0.351111 1.5337,0.351111 h 9.84658 c 4.20564,0 6.32967,-2.226284 6.32967,-6.725153 v -4.25772 c 0,-4.40241 -2.12597,-6.628695 -6.32967,-6.628695 z m 2.87063,7.961764 h 7.21902 c 0.64435,0 0.99546,0.345325 0.99546,0.987745 v 2.031437 c 0,0.64049 -0.35111,0.991603 -0.99546,0.991603 h -7.21902 c -0.6405,0 -0.99161,-0.351113 -0.99161,-0.991603 v -2.031437 c 0,-0.644349 0.35111,-0.987745 0.99161,-0.987745 z m -91.256433,0.64435 h 7.716759 c 0.98774,0 1.485474,0.491943 1.485474,1.485475 v 8.80289 c 0,1.041762 -0.495802,1.585793 -1.485474,1.585793 h -7.716759 z m -29.479939,8.457565 h 7.219026 c 0.64242,0 0.995461,0.349183 0.995461,0.991603 v 2.023719 c 0,0.64435 -0.353041,0.991603 -0.995461,0.991603 h -7.219026 c -0.64242,0 -0.991604,-0.347253 -0.991604,-0.991603 v -2.023719 c 0,-0.64242 0.349184,-0.991603 0.991604,-0.991603 z m 60.397122,0 h 7.21902 c 0.64242,0 0.99161,0.349183 0.99161,0.991603 v 2.023719 c 0,0.64435 -0.34919,0.991603 -0.99161,0.991603 h -7.21902 c -0.64242,0 -0.99546,-0.347253 -0.99546,-0.991603 v -2.023719 c 0,-0.64242 0.35304,-0.991603 0.99546,-0.991603 z"
     id="path2"
     style="stroke-width:1.92918" />
</svg>
