<?xml version="1.0" encoding="UTF-8" standalone="no"?>
<!-- Created with Inkscape (http://www.inkscape.org/) -->

<svg
   width="200"
   height="100"
   viewBox="0 0 52.916666 26.458334"
   version="1.1"
   id="svg9327"
   sodipodi:docname="ge2.svg"
   inkscape:version="1.1.2 (b8e25be833, 2022-02-05)"
   xmlns:inkscape="http://www.inkscape.org/namespaces/inkscape"
   xmlns:sodipodi="http://sodipodi.sourceforge.net/DTD/sodipodi-0.dtd"
   xmlns="http://www.w3.org/2000/svg"
   xmlns:svg="http://www.w3.org/2000/svg">
  <sodipodi:namedview
     id="namedview9329"
     pagecolor="#ffffff"
     bordercolor="#666666"
     borderopacity="1.0"
     inkscape:pageshadow="2"
     inkscape:pageopacity="0.0"
     inkscape:pagecheckerboard="0"
     inkscape:document-units="mm"
     showgrid="false"
     units="px"
     inkscape:zoom="1.4574355"
     inkscape:cx="87.482431"
     inkscape:cy="180.45395"
     inkscape:window-width="1920"
     inkscape:window-height="1027"
     inkscape:window-x="-8"
     inkscape:window-y="-8"
     inkscape:window-maximized="1"
     inkscape:current-layer="layer1"
     width="200px" />
  <defs
     id="defs9324" />
  <g
     inkscape:label="Layer 1"
     inkscape:groupmode="layer"
     id="layer1">
    <path
       id="path9411"
       style="stroke-width:0.591633"
       d="M 26.458333,0.28888784 A 12.940279,12.940279 0 0 0 13.518055,13.229166 12.940279,12.940279 0 0 0 26.458333,26.169445 12.940279,12.940279 0 0 0 39.398612,13.229166 12.940279,12.940279 0 0 0 26.458333,0.28888784 Z m 6.04e-4,0.15105383 c 7.048644,0 12.788621,5.73882993 12.788621,12.78824033 0,7.085503 -5.739977,12.790209 -12.788635,12.790209 -7.051023,0 -12.789815,-5.704706 -12.789815,-12.790209 0,-7.0494104 5.738792,-12.78824033 12.789815,-12.78824033 z m 0,0.60106843 c -6.731544,0 -12.188156,5.4566556 -12.188156,12.1871719 0,6.73111 5.456612,12.18737 12.188156,12.18737 6.730361,0 12.185796,-5.45626 12.185796,-12.18737 0,-6.6950178 -5.454842,-12.1871719 -12.185796,-12.1871719 z m 0,0.7796581 c 1.893211,-0.014312 3.550388,0.5527471 3.612508,0.6024451 l 0.01101,0.063923 -0.04661,0.035403 c -0.01946,-0.00244 -1.096899,-0.4531616 -2.727426,-0.4531616 -1.523443,-5.84e-4 -2.479604,0.6372334 -2.479604,1.4525164 0,0.4608879 0.35439,0.8506612 0.885671,0.8506612 0.956663,0 1.027719,-1.1696838 3.081852,-1.1696838 0.885666,0 1.664843,0.177041 2.5866,0.4610289 4.428335,1.3459846 6.446443,5.5270182 6.482531,9.5649716 0.02012,2.068973 -0.563288,3.634507 -0.569205,3.645748 l -0.06609,0.01377 -0.03737,-0.04622 c 0.0025,-0.02012 0.429568,-1.280862 0.426019,-2.728017 -0.0054,-1.558978 -0.638435,-2.515203 -1.453107,-2.515203 -0.495785,0 -0.84948,0.354969 -0.84948,0.885671 0,0.956684 1.169093,1.027771 1.169093,3.118042 0,0.850781 -0.177047,1.663737 -0.460438,2.550607 -1.311049,4.427238 -5.492011,6.48194 -9.564777,6.48194 -1.878418,0 -3.212573,-0.38581 -3.610147,-0.563895 -0.01588,-0.0083 -0.02948,-0.03945 -0.01711,-0.07081 l 0.05134,-0.03619 c 0.16093,0.06391 1.306937,0.423658 2.724476,0.423658 1.55894,0 2.480195,-0.637325 2.480195,-1.418292 0,-0.494019 -0.389888,-0.883901 -0.886263,-0.883901 -0.956662,0 -1.027717,1.204104 -3.081851,1.204104 -0.885667,0 -1.664254,-0.176846 -2.586601,-0.460243 -4.393439,-1.345405 -6.487261,-5.491814 -6.48371,-9.60136 0.0018,-2.000932 0.5621,-3.5941735 0.571566,-3.6101462 l 0.06333,-0.010621 0.03717,0.046024 c -0.05147,0.165652 -0.423463,1.3086742 -0.423463,2.7250652 0,1.558977 0.637059,2.479604 1.45173,2.479604 0.460879,0 0.851448,-0.353684 0.851448,-0.85007 0,-0.956684 -1.169684,-1.06268 -1.169684,-3.118043 0,-0.885688 0.176851,-1.6648244 0.460242,-2.5860098 1.34654,-4.3923459 5.4916,-6.4519589 9.566142,-6.483316 z M 30.7801,6.3202236 c -1.452447,0 -2.551001,1.8424026 -2.551001,3.5072813 0,0.2833981 -5e-6,0.5667661 0.07159,0.8158481 -0.921756,0.672696 -1.606368,1.090388 -2.84701,1.834675 0,-0.155613 0.03257,-0.554831 0.136106,-1.074292 0.425379,-0.460889 1.008795,-1.150163 1.008795,-1.6814574 0,-0.2478977 -0.140854,-0.4610289 -0.425429,-0.4610289 -0.708178,0 -1.240115,1.0632493 -1.380923,1.8069423 -0.31948,0.389893 -0.956637,0.886851 -1.488509,0.886851 -0.425383,0 -0.566158,-0.390434 -0.602839,-0.531245 1.346545,-0.461481 3.01203,-2.3038223 3.01203,-3.9687038 0,-0.3543917 -0.141353,-1.1336904 -1.204498,-1.1336904 -1.594437,0 -2.941026,2.3737612 -2.941026,4.2155422 -0.566778,0 -0.779265,-0.6023914 -0.779265,-1.0620967 0,-0.4608897 0.177017,-0.9216794 0.177017,-1.0624906 0,-0.1425976 -0.07103,-0.3196126 -0.283423,-0.3196126 -0.531875,0 -0.850858,0.708236 -0.850858,1.5235195 0.03609,1.1341754 0.779772,1.8423514 1.771932,1.9133484 0.140806,0.673288 0.743653,1.31051 1.48733,1.31051 0.46088,0 1.027821,-0.141459 1.417703,-0.495252 -0.03609,0.247899 -0.07109,0.460457 -0.106603,0.672858 -1.558939,0.81528 -2.692436,1.381992 -3.720094,2.302587 -0.812305,0.743104 -1.27314,1.734633 -1.27314,2.514418 0,1.062589 0.673707,2.054174 2.055158,2.054174 1.629345,0 2.869996,-1.310973 3.471681,-3.117256 0.284575,-0.850188 0.397705,-2.087321 0.4687,-3.221498 1.629345,-0.920595 2.402015,-1.45424 3.251591,-2.057124 0.105901,0.1769 0.213433,0.319523 0.354819,0.425429 -0.744268,0.389891 -2.515007,1.487862 -2.515007,4.073929 0,1.842964 1.240678,3.89652 3.684102,3.89652 2.019819,0 3.401268,-1.6642 3.401268,-3.258081 -0.0012,-1.453074 -0.816425,-2.799018 -2.374772,-2.79902 -1.203964,0 -2.125767,0.886164 -2.125767,1.948162 0,0.885687 0.530735,1.593342 1.240096,1.593342 0.248485,0 0.495842,-0.141938 0.495842,-0.460242 0,-0.459705 -0.610636,-0.572668 -0.563304,-1.261339 0.03017,-0.454381 0.457931,-0.758022 0.882131,-0.758022 0.850758,0 1.248357,0.824188 1.248357,1.673786 -0.03609,1.311077 -0.99988,2.223324 -2.133439,2.223324 -1.489127,0 -2.444004,-1.417551 -2.444004,-2.940436 0,-2.267764 1.487421,-3.15347 2.266595,-3.365275 0.0083,-6.04e-4 2.037627,0.362137 1.97432,-0.532425 -0.0278,-0.392853 -0.612918,-0.544377 -1.037707,-0.561535 -0.469753,-0.01834 -0.943104,0.151054 -0.943104,0.151054 -0.247891,-0.124843 -0.418856,-0.368615 -0.524165,-0.65142 1.452447,-1.098086 2.478818,-2.1606915 2.478818,-3.3652746 0,-0.6377884 -0.425426,-1.2052838 -1.240097,-1.2052838 z m -6.425492,0.9370059 c 0.04722,-0.00366 0.09298,0.00145 0.137089,0.016128 0.832421,0.2774808 -0.6904,2.5191956 -1.859457,3.1569855 0,-1.0965727 1.01405,-3.1182287 1.722368,-3.1731135 z m 6.33246,0.011998 c 0.05703,-0.00302 0.111313,0.00747 0.161675,0.03265 0.611743,0.3064702 -0.457218,1.6754455 -1.520373,2.5966312 0,-1.3163104 0.807446,-2.6000673 1.358698,-2.6292812 z m -6.402873,6.8825865 c -0.283389,2.12636 -1.001201,4.555581 -2.821049,4.639005 -0.531282,0.02426 -0.885081,-0.31534 -0.885081,-0.881541 0,-1.52348 2.111692,-2.97709 3.70613,-3.757464 z" />
  </g>
</svg>
