<?xml version="1.0" encoding="UTF-8" standalone="no"?>
<!-- Created with Inkscape (http://www.inkscape.org/) -->

<svg
   width="200"
   height="100"
   viewBox="0 0 52.916666 26.458334"
   version="1.1"
   id="svg5"
   inkscape:version="1.1.2 (b8e25be833, 2022-02-05)"
   sodipodi:docname="pebble.svg"
   xmlns:inkscape="http://www.inkscape.org/namespaces/inkscape"
   xmlns:sodipodi="http://sodipodi.sourceforge.net/DTD/sodipodi-0.dtd"
   xmlns="http://www.w3.org/2000/svg"
   xmlns:svg="http://www.w3.org/2000/svg">
  <sodipodi:namedview
     id="namedview7"
     pagecolor="#ffffff"
     bordercolor="#666666"
     borderopacity="1.0"
     inkscape:pageshadow="2"
     inkscape:pageopacity="0.0"
     inkscape:pagecheckerboard="0"
     inkscape:document-units="mm"
     showgrid="false"
     units="px"
     width="200px"
     inkscape:zoom="1.4984147"
     inkscape:cx="103.10897"
     inkscape:cy="170.84723"
     inkscape:window-width="1920"
     inkscape:window-height="1027"
     inkscape:window-x="-8"
     inkscape:window-y="-8"
     inkscape:window-maximized="1"
     inkscape:current-layer="g221" />
  <defs
     id="defs2" />
  <g
     inkscape:label="Layer 1"
     inkscape:groupmode="layer"
     id="layer1">
    <g
       id="g221"
       transform="matrix(0.26458333,0,0,0.26458333,33.432726,97.162491)">
      <g
         id="g525"
         transform="matrix(0.78384386,0,0,0.78384386,-79.664926,-150.47265)">
        <path
           class="st0"
           d="m 32.283457,-229.2651 c 7.888044,0 13.74431,4.06354 13.74431,13.08689 v 6.57343 c 0,7.82816 -5.617208,12.72829 -13.206305,12.72829 -2.390597,0 -4.541671,-0.53781 -6.334383,-1.31456 v 11.05512 c 0,0.59756 -0.298918,0.89633 -0.896359,0.89633 h -5.139091 c -0.597907,0 -0.896353,-0.29877 -0.896353,-0.89633 v -39.02172 c 0,-0.47805 0.179198,-0.77683 0.657315,-0.95616 3.525543,-1.37446 8.18651,-2.15129 12.07088,-2.15129 z m 6.692738,19.72001 v -6.6928 c 0,-5.13915 -2.569309,-6.9319 -6.871915,-6.9319 -2.031777,0 -4.183316,0.23903 -5.617201,0.83659 v 17.68823 c 1.493773,1.01585 3.465662,1.6733 5.736497,1.6733 4.302606,0 6.752619,-2.09152 6.752619,-6.57342 z"
           id="path11"
           style="fill:#1a1a1a;stroke-width:6.94836" />
        <path
           class="st0"
           d="m 77.580392,-210.97923 c 0,0.5378 -0.298919,0.83658 -0.89636,0.83658 H 58.517355 v 1.67316 c 0,3.64532 2.509894,5.49782 6.33439,5.49782 3.705193,0 6.215093,-1.25494 8.426041,-2.74898 0.418222,-0.29877 0.896352,-0.23902 1.195299,0.17927 l 2.45002,3.28672 c 0.358327,0.41829 0.298432,0.89633 -0.179685,1.25494 -3.166709,2.50975 -7.051079,4.12316 -12.130761,4.12316 -6.752619,0 -13.086529,-3.70494 -13.086529,-11.65275 v -8.48555 c 0,-8.78432 6.572969,-12.25031 13.146417,-12.25031 6.51356,0 12.907824,3.46599 12.907824,12.25031 v 6.03556 z m -12.907824,-12.19056 c -3.52555,0 -6.155213,1.67317 -6.155213,6.09525 v 1.55372 h 12.310411 v -1.55372 c 0,-4.36232 -2.808833,-6.09525 -6.155198,-6.09525 z"
           id="path13"
           style="fill:#1a1a1a;stroke-width:6.94836" />
        <path
           class="st0"
           d="m 97.121545,-229.2651 c 7.529685,0 13.087005,4.90013 13.087005,12.66867 v 6.57329 c 0,9.08324 -5.85626,13.14665 -13.744299,13.14665 -3.88437,0 -8.48545,-0.83659 -12.011479,-2.15115 -0.537525,-0.17926 -0.716702,-0.47804 -0.716702,-1.01592 v -39.38032 c 0,-0.59756 0.298432,-0.89634 0.896345,-0.89634 h 5.139098 c 0.59742,0 0.896353,0.29878 0.896353,0.89634 v 11.47348 c 1.852134,-0.77682 4.063547,-1.3147 6.453679,-1.3147 z m 6.035445,19.30172 v -6.63305 c 0,-4.54159 -2.45001,-6.5136 -6.752613,-6.5136 -2.270843,0 -4.242739,0.59756 -5.736511,1.55365 v 17.62855 c 1.433898,0.59756 3.585437,0.83658 5.617207,0.83658 4.302607,0 6.871917,-1.79267 6.871917,-6.87213 z"
           id="path15"
           style="fill:#1a1a1a;stroke-width:6.94836" />
        <path
           class="st0"
           d="m 129.98877,-229.2651 c 7.52969,0 13.08701,4.90013 13.08701,12.66867 v 6.57329 c 0,9.08324 -5.85627,13.14665 -13.7443,13.14665 -3.88437,0 -8.48547,-0.83659 -12.01148,-2.15115 -0.53753,-0.17926 -0.7167,-0.47804 -0.7167,-1.01592 v -39.38032 c 0,-0.59756 0.2985,-0.89634 0.89635,-0.89634 h 5.13908 c 0.59742,0 0.89636,0.29878 0.89636,0.89634 v 11.47348 c 1.85213,-0.77682 4.06355,-1.3147 6.45368,-1.3147 z m 6.03545,19.30172 v -6.63305 c 0,-4.54159 -2.45002,-6.5136 -6.75263,-6.5136 -2.27083,0 -4.24272,0.59756 -5.7365,1.55365 v 17.62855 c 1.43389,0.59756 3.58543,0.83658 5.61721,0.83658 4.30261,0 6.87192,-1.79267 6.87192,-6.87213 z"
           id="path17"
           style="fill:#1a1a1a;stroke-width:6.94836" />
        <path
           class="st0"
           d="m 159.33045,-196.87649 c -6.45416,0 -9.97969,-4.3025 -9.97969,-11.593 v -30.95439 c 0,-0.59756 0.29892,-0.89634 0.89635,-0.89634 h 5.13908 c 0.59791,0 0.89636,0.29878 0.89636,0.89634 v 30.71544 c 0,3.94403 1.25519,5.49768 3.94425,5.49768 0.71718,0 1.49377,-0.0625 2.27084,-0.11951 0.59742,0 0.89635,0.29878 0.89635,0.89634 v 4.422 c 0,0.47805 -0.17962,0.89648 -0.65732,0.95617 -1.01612,0.11951 -2.21141,0.17927 -3.40624,0.17927 z"
           id="path19"
           style="fill:#1a1a1a;stroke-width:6.94836" />
        <path
           class="st0"
           d="m 192.73522,-210.97923 c 0,0.5378 -0.29899,0.83658 -0.89638,0.83658 h -18.16666 v 1.67316 c 0,3.64532 2.5099,5.49782 6.33438,5.49782 3.70518,0 6.21507,-1.25494 8.42604,-2.74898 0.41822,-0.29877 0.89635,-0.23902 1.19531,0.17927 l 2.44999,3.28672 c 0.35833,0.41829 0.2985,0.89633 -0.17961,1.25494 -3.16674,2.50975 -7.0511,4.12316 -12.13077,4.12316 -6.75264,0 -13.08655,-3.70494 -13.08655,-11.65275 v -8.48555 c 0,-8.78432 6.57299,-12.25031 13.14642,-12.25031 6.51356,0 12.90785,3.46599 12.90785,12.25031 v 6.03556 z m -12.90784,-12.19056 c -3.52555,0 -6.1552,1.67317 -6.1552,6.09525 v 1.55372 h 12.3104 v -1.55372 c 0,-4.36232 -2.80883,-6.09525 -6.1552,-6.09525 z"
           id="path21"
           style="fill:#1a1a1a;stroke-width:6.94836" />
        <g
           id="g77"
           transform="matrix(6.9483609,0,0,6.9483609,-61.367634,-257.90527)">
          <g
             id="g25">
            <path
               class="st1"
               d="m 4.1652446,10.351808 c 0,-0.4599203 0.5311456,-1.0165686 1.1863465,-1.0165686 0.6552009,0 1.1863461,0.5566483 1.1863461,1.0165686 0,0.459921 -0.5311451,0.832759 -1.1863461,0.832759 -0.655201,0 -1.1863465,-0.372839 -1.1863465,-0.832759 z"
               id="path23" />
          </g>
          <path
             class="st2"
             d="m 4.1652446,2.6501904 c 0,-0.4599202 0.5311456,-0.832759 1.1863465,-0.832759 0.6552009,0 1.1863461,0.3728389 1.1863461,0.832759 0,0.4599201 -0.5311451,1.0165689 -1.1863461,1.0165689 -0.655201,0 -1.1863465,-0.5566488 -1.1863465,-1.0165689 z"
             id="path27" />
          <g
             id="g31">
            <path
               class="st3"
               d="M 7.2356505,10.062805 C 6.9104381,9.7375927 6.8924041,8.9684067 7.3557014,8.5051098 7.8189983,8.0418129 8.5881843,8.0598459 8.9133977,8.3850584 9.2386102,8.7102709 9.1266707,9.3494844 8.6633739,9.8127813 8.2000761,10.276078 7.560863,10.388019 7.2356505,10.062805 Z"
               id="path29" />
          </g>
          <path
             class="st4"
             d="M 1.7897846,4.6169395 C 1.4645719,4.291727 1.5765114,3.6525135 2.0398086,3.1892166 2.5031058,2.7259197 3.1423188,2.61398 3.4675315,2.9391928 3.7927442,3.2644056 3.8107777,4.0335918 3.3474806,4.4968887 2.8841836,4.960186 2.1149971,4.942152 1.7897846,4.6169395 Z"
             id="path33" />
          <g
             id="g39">
            <g
               id="g37">
              <path
                 class="st5"
                 d="m 9.2024002,7.6873455 c -0.4599209,0 -1.0165691,-0.5311456 -1.0165691,-1.1863465 0,-0.6552009 0.5566483,-1.1863461 1.0165691,-1.1863461 0.4599199,0 0.8327588,0.5311451 0.8327588,1.1863461 0,0.655201 -0.3728389,1.1863465 -0.8327588,1.1863465 z"
                 id="path35" />
            </g>
          </g>
          <path
             class="st6"
             d="m 1.5007821,7.6873455 c -0.45992,0 -0.832759,-0.5311456 -0.832759,-1.1863465 0,-0.6552009 0.372839,-1.1863461 0.832759,-1.1863461 0.45992,0 1.0165688,0.5311451 1.0165688,1.1863461 0,0.655201 -0.5566486,1.1863465 -1.0165688,1.1863465 z"
             id="path41" />
          <g
             id="g45">
            <path
               class="st7"
               d="M 8.9133978,4.6169395 C 8.5881844,4.942152 7.8189983,4.960186 7.3557014,4.4968886 6.8924041,4.0335917 6.9104381,3.2644053 7.2356505,2.9391928 7.5608629,2.6139803 8.2000761,2.7259195 8.6633739,3.1892166 9.1266708,3.6525135 9.2386103,4.2917271 8.9133978,4.6169395 Z"
               id="path43" />
          </g>
          <path
             class="st8"
             d="M 3.4675314,10.062805 C 3.1423187,10.388019 2.5031054,10.276078 2.0398085,9.8127814 1.5765116,9.3494846 1.4645718,8.7102709 1.7897845,8.3850585 2.1149972,8.0598461 2.8841836,8.041813 3.3474805,8.5051099 3.8107774,8.9684068 3.7927439,9.7375927 3.4675314,10.062805 Z"
             id="path47" />
          <path
             class="st4"
             d="M 5.5435877,8.6358662 C 5.4485483,8.4064665 5.5984454,8.019062 5.9252481,7.8836684 6.2520504,7.7482748 6.6320042,7.9161629 6.7270441,8.1455631 6.822084,8.3749628 6.6342034,8.6706867 6.3074007,8.8060799 5.9805984,8.941473 5.6386275,8.8652658 5.5435877,8.6358662 Z"
             id="path49" />
          <path
             class="st3"
             d="M 5.1595941,4.3621702 C 5.2546339,4.5915699 5.1047363,4.9789743 4.7779336,5.114368 4.4511313,5.2497611 4.0711775,5.081873 3.9761376,4.8524733 3.8810978,4.6230731 4.0689783,4.3273497 4.395781,4.1919565 4.7225833,4.0565629 5.0645542,4.1327701 5.1595941,4.3621702 Z"
             id="path51" />
          <path
             class="st5"
             d="m 3.2147429,6.6910152 c 0.2293999,-0.09504 0.6168044,0.054858 0.7521977,0.38166 C 4.1023339,7.3994775 3.9344458,7.7794318 3.7050459,7.8744712 3.475646,7.969511 3.1799226,7.7816305 3.0445292,7.4548283 2.9091358,7.1280255 2.985343,6.7860551 3.2147429,6.6910152 Z"
             id="path53" />
          <path
             class="st9"
             d="M 3.7048488,5.1238008 C 3.9342623,5.2188077 4.1022053,5.5987378 3.9668584,5.9255596 3.831512,6.2523813 3.444129,6.4023342 3.2147155,6.3073273 2.985302,6.2123204 2.9090457,5.8703604 3.0443921,5.5435386 3.1797388,5.2167168 3.4754353,5.0287938 3.7048488,5.1238008 Z"
             id="path55" />
          <g
             id="g59">
            <path
               class="st9"
               d="m 4.9241252,11.977093 c 0,-0.165333 0.190937,-0.365439 0.4264703,-0.365439 0.2355333,0 0.4264703,0.200106 0.4264703,0.365439 0,0.165333 -0.190937,0.299362 -0.4264703,0.299362 -0.2355333,0 -0.4264703,-0.134029 -0.4264703,-0.299362 z"
               id="path57" />
          </g>
          <g
             id="g65">
            <g
               id="g63">
              <path
                 class="st6"
                 d="m 5.7770658,1.0229071 c 0,0.1653332 -0.190937,0.3654385 -0.4264703,0.3654385 -0.2355333,0 -0.4264703,-0.2001053 -0.4264703,-0.3654385 0,-0.1653332 0.190937,-0.299362 0.4264703,-0.299362 0.2355333,0 0.4264703,0.134029 0.4264703,0.299362 z"
                 id="path61" />
            </g>
          </g>
          <g
             id="g69">
            <path
               class="st8"
               d="m 7.0381713,11.72805 c -0.062849,-0.152921 0.037688,-0.410587 0.2555399,-0.500121 0.2178521,-0.08953 0.4705229,0.02297 0.5333719,0.175889 0.062849,0.152922 -0.062806,0.349471 -0.2806582,0.439006 -0.2178517,0.08953 -0.4454046,0.03815 -0.5082536,-0.114774 z"
               id="path67" />
          </g>
          <g
             id="g75">
            <g
               id="g73">
              <path
                 class="st5"
                 d="M 3.6630197,1.2719496 C 3.7258685,1.4248714 3.6253317,1.6825369 3.4074798,1.7720711 3.1896276,1.8616054 2.9369569,1.7491035 2.8741081,1.5961818 2.8112593,1.4432601 2.9369142,1.2467107 3.1547661,1.1571764 3.372618,1.0676422 3.6001709,1.1190279 3.6630197,1.2719496 Z"
                 id="path71" />
            </g>
          </g>
        </g>
      </g>
    </g>
  </g>
  <style
     type="text/css"
     id="style9">
	.st0{fill:#FFFFFF;}
	.st1{fill:#0082B6;}
	.st2{fill:#00967A;}
	.st3{fill:#604A76;}
	.st4{fill:#0899A8;}
	.st5{fill:#75767A;}
	.st6{fill:#ED6B41;}
	.st7{fill:#006282;}
	.st8{fill:#F9B24E;}
	.st9{fill:#AFB1B0;}
	.st10{fill:#E6AF55;}
	.st11{fill:#D06A45;}
</style>
</svg>
